<?xml version="1.0" encoding="utf-8" standalone="no"?>
<!DOCTYPE svg PUBLIC "-//W3C//DTD SVG 1.1//EN"
  "http://www.w3.org/Graphics/SVG/1.1/DTD/svg11.dtd">
<svg xmlns:xlink="http://www.w3.org/1999/xlink" width="1008pt" height="432pt" viewBox="0 0 1008 432" xmlns="http://www.w3.org/2000/svg" version="1.1">
 <metadata>
  <rdf:RDF xmlns:dc="http://purl.org/dc/elements/1.1/" xmlns:cc="http://creativecommons.org/ns#" xmlns:rdf="http://www.w3.org/1999/02/22-rdf-syntax-ns#">
   <cc:Work>
    <dc:type rdf:resource="http://purl.org/dc/dcmitype/StillImage"/>
    <dc:date>2024-05-13T00:06:03.669058</dc:date>
    <dc:format>image/svg+xml</dc:format>
    <dc:creator>
     <cc:Agent>
      <dc:title>Matplotlib v3.8.3, https://matplotlib.org/</dc:title>
     </cc:Agent>
    </dc:creator>
   </cc:Work>
  </rdf:RDF>
 </metadata>
 <defs>
  <style type="text/css">*{stroke-linejoin: round; stroke-linecap: butt}</style>
 </defs>
 <g id="figure_1">
  <g id="patch_1">
   <path d="M 0 432 
L 1008 432 
L 1008 0 
L 0 0 
z
" style="fill: #ffffff"/>
  </g>
  <g id="axes_1">
   <g id="patch_2">
    <path d="M 126 384.48 
L 907.2 384.48 
L 907.2 51.84 
L 126 51.84 
z
"/>
   </g>
   <g id="matplotlib.axis_1">
    <g id="xtick_1">
     <g id="line2d_1">
      <defs>
       <path id="m20005b6ab3" d="M 0 0 
L 0 3.5 
" style="stroke: #000000; stroke-width: 0.8"/>
      </defs>
      <g>
       <use xlink:href="#m20005b6ab3" x="143.855685" y="384.48" style="stroke: #000000; stroke-width: 0.8"/>
      </g>
     </g>
     <g id="text_1">
      <!-- 0 -->
      <g transform="translate(140.674435 399.078438) scale(0.1 -0.1)">
       <defs>
        <path id="DejaVuSans-30" d="M 2034 4250 
Q 1547 4250 1301 3770 
Q 1056 3291 1056 2328 
Q 1056 1369 1301 889 
Q 1547 409 2034 409 
Q 2525 409 2770 889 
Q 3016 1369 3016 2328 
Q 3016 3291 2770 3770 
Q 2525 4250 2034 4250 
z
M 2034 4750 
Q 2819 4750 3233 4129 
Q 3647 3509 3647 2328 
Q 3647 1150 3233 529 
Q 2819 -91 2034 -91 
Q 1250 -91 836 529 
Q 422 1150 422 2328 
Q 422 3509 836 4129 
Q 1250 4750 2034 4750 
z
" transform="scale(0.015625)"/>
       </defs>
       <use xlink:href="#DejaVuSans-30"/>
      </g>
     </g>
    </g>
    <g id="xtick_2">
     <g id="line2d_2">
      <g>
       <use xlink:href="#m20005b6ab3" x="309.356367" y="384.48" style="stroke: #000000; stroke-width: 0.8"/>
      </g>
     </g>
     <g id="text_2">
      <!-- 1 -->
      <g transform="translate(306.175117 399.078438) scale(0.1 -0.1)">
       <defs>
        <path id="DejaVuSans-31" d="M 794 531 
L 1825 531 
L 1825 4091 
L 703 3866 
L 703 4441 
L 1819 4666 
L 2450 4666 
L 2450 531 
L 3481 531 
L 3481 0 
L 794 0 
L 794 531 
z
" transform="scale(0.015625)"/>
       </defs>
       <use xlink:href="#DejaVuSans-31"/>
      </g>
     </g>
    </g>
    <g id="xtick_3">
     <g id="line2d_3">
      <g>
       <use xlink:href="#m20005b6ab3" x="474.85705" y="384.48" style="stroke: #000000; stroke-width: 0.8"/>
      </g>
     </g>
     <g id="text_3">
      <!-- 2 -->
      <g transform="translate(471.6758 399.078438) scale(0.1 -0.1)">
       <defs>
        <path id="DejaVuSans-32" d="M 1228 531 
L 3431 531 
L 3431 0 
L 469 0 
L 469 531 
Q 828 903 1448 1529 
Q 2069 2156 2228 2338 
Q 2531 2678 2651 2914 
Q 2772 3150 2772 3378 
Q 2772 3750 2511 3984 
Q 2250 4219 1831 4219 
Q 1534 4219 1204 4116 
Q 875 4013 500 3803 
L 500 4441 
Q 881 4594 1212 4672 
Q 1544 4750 1819 4750 
Q 2544 4750 2975 4387 
Q 3406 4025 3406 3419 
Q 3406 3131 3298 2873 
Q 3191 2616 2906 2266 
Q 2828 2175 2409 1742 
Q 1991 1309 1228 531 
z
" transform="scale(0.015625)"/>
       </defs>
       <use xlink:href="#DejaVuSans-32"/>
      </g>
     </g>
    </g>
    <g id="xtick_4">
     <g id="line2d_4">
      <g>
       <use xlink:href="#m20005b6ab3" x="640.357733" y="384.48" style="stroke: #000000; stroke-width: 0.8"/>
      </g>
     </g>
     <g id="text_4">
      <!-- 3 -->
      <g transform="translate(637.176483 399.078438) scale(0.1 -0.1)">
       <defs>
        <path id="DejaVuSans-33" d="M 2597 2516 
Q 3050 2419 3304 2112 
Q 3559 1806 3559 1356 
Q 3559 666 3084 287 
Q 2609 -91 1734 -91 
Q 1441 -91 1130 -33 
Q 819 25 488 141 
L 488 750 
Q 750 597 1062 519 
Q 1375 441 1716 441 
Q 2309 441 2620 675 
Q 2931 909 2931 1356 
Q 2931 1769 2642 2001 
Q 2353 2234 1838 2234 
L 1294 2234 
L 1294 2753 
L 1863 2753 
Q 2328 2753 2575 2939 
Q 2822 3125 2822 3475 
Q 2822 3834 2567 4026 
Q 2313 4219 1838 4219 
Q 1578 4219 1281 4162 
Q 984 4106 628 3988 
L 628 4550 
Q 988 4650 1302 4700 
Q 1616 4750 1894 4750 
Q 2613 4750 3031 4423 
Q 3450 4097 3450 3541 
Q 3450 3153 3228 2886 
Q 3006 2619 2597 2516 
z
" transform="scale(0.015625)"/>
       </defs>
       <use xlink:href="#DejaVuSans-33"/>
      </g>
     </g>
    </g>
    <g id="xtick_5">
     <g id="line2d_5">
      <g>
       <use xlink:href="#m20005b6ab3" x="805.858415" y="384.48" style="stroke: #000000; stroke-width: 0.8"/>
      </g>
     </g>
     <g id="text_5">
      <!-- 4 -->
      <g transform="translate(802.677165 399.078438) scale(0.1 -0.1)">
       <defs>
        <path id="DejaVuSans-34" d="M 2419 4116 
L 825 1625 
L 2419 1625 
L 2419 4116 
z
M 2253 4666 
L 3047 4666 
L 3047 1625 
L 3713 1625 
L 3713 1100 
L 3047 1100 
L 3047 0 
L 2419 0 
L 2419 1100 
L 313 1100 
L 313 1709 
L 2253 4666 
z
" transform="scale(0.015625)"/>
       </defs>
       <use xlink:href="#DejaVuSans-34"/>
      </g>
     </g>
    </g>
    <g id="text_6">
     <!-- Experiment length [min] -->
     <g transform="translate(455.264844 412.756563) scale(0.1 -0.1)">
      <defs>
       <path id="DejaVuSans-45" d="M 628 4666 
L 3578 4666 
L 3578 4134 
L 1259 4134 
L 1259 2753 
L 3481 2753 
L 3481 2222 
L 1259 2222 
L 1259 531 
L 3634 531 
L 3634 0 
L 628 0 
L 628 4666 
z
" transform="scale(0.015625)"/>
       <path id="DejaVuSans-78" d="M 3513 3500 
L 2247 1797 
L 3578 0 
L 2900 0 
L 1881 1375 
L 863 0 
L 184 0 
L 1544 1831 
L 300 3500 
L 978 3500 
L 1906 2253 
L 2834 3500 
L 3513 3500 
z
" transform="scale(0.015625)"/>
       <path id="DejaVuSans-70" d="M 1159 525 
L 1159 -1331 
L 581 -1331 
L 581 3500 
L 1159 3500 
L 1159 2969 
Q 1341 3281 1617 3432 
Q 1894 3584 2278 3584 
Q 2916 3584 3314 3078 
Q 3713 2572 3713 1747 
Q 3713 922 3314 415 
Q 2916 -91 2278 -91 
Q 1894 -91 1617 61 
Q 1341 213 1159 525 
z
M 3116 1747 
Q 3116 2381 2855 2742 
Q 2594 3103 2138 3103 
Q 1681 3103 1420 2742 
Q 1159 2381 1159 1747 
Q 1159 1113 1420 752 
Q 1681 391 2138 391 
Q 2594 391 2855 752 
Q 3116 1113 3116 1747 
z
" transform="scale(0.015625)"/>
       <path id="DejaVuSans-65" d="M 3597 1894 
L 3597 1613 
L 953 1613 
Q 991 1019 1311 708 
Q 1631 397 2203 397 
Q 2534 397 2845 478 
Q 3156 559 3463 722 
L 3463 178 
Q 3153 47 2828 -22 
Q 2503 -91 2169 -91 
Q 1331 -91 842 396 
Q 353 884 353 1716 
Q 353 2575 817 3079 
Q 1281 3584 2069 3584 
Q 2775 3584 3186 3129 
Q 3597 2675 3597 1894 
z
M 3022 2063 
Q 3016 2534 2758 2815 
Q 2500 3097 2075 3097 
Q 1594 3097 1305 2825 
Q 1016 2553 972 2059 
L 3022 2063 
z
" transform="scale(0.015625)"/>
       <path id="DejaVuSans-72" d="M 2631 2963 
Q 2534 3019 2420 3045 
Q 2306 3072 2169 3072 
Q 1681 3072 1420 2755 
Q 1159 2438 1159 1844 
L 1159 0 
L 581 0 
L 581 3500 
L 1159 3500 
L 1159 2956 
Q 1341 3275 1631 3429 
Q 1922 3584 2338 3584 
Q 2397 3584 2469 3576 
Q 2541 3569 2628 3553 
L 2631 2963 
z
" transform="scale(0.015625)"/>
       <path id="DejaVuSans-69" d="M 603 3500 
L 1178 3500 
L 1178 0 
L 603 0 
L 603 3500 
z
M 603 4863 
L 1178 4863 
L 1178 4134 
L 603 4134 
L 603 4863 
z
" transform="scale(0.015625)"/>
       <path id="DejaVuSans-6d" d="M 3328 2828 
Q 3544 3216 3844 3400 
Q 4144 3584 4550 3584 
Q 5097 3584 5394 3201 
Q 5691 2819 5691 2113 
L 5691 0 
L 5113 0 
L 5113 2094 
Q 5113 2597 4934 2840 
Q 4756 3084 4391 3084 
Q 3944 3084 3684 2787 
Q 3425 2491 3425 1978 
L 3425 0 
L 2847 0 
L 2847 2094 
Q 2847 2600 2669 2842 
Q 2491 3084 2119 3084 
Q 1678 3084 1418 2786 
Q 1159 2488 1159 1978 
L 1159 0 
L 581 0 
L 581 3500 
L 1159 3500 
L 1159 2956 
Q 1356 3278 1631 3431 
Q 1906 3584 2284 3584 
Q 2666 3584 2933 3390 
Q 3200 3197 3328 2828 
z
" transform="scale(0.015625)"/>
       <path id="DejaVuSans-6e" d="M 3513 2113 
L 3513 0 
L 2938 0 
L 2938 2094 
Q 2938 2591 2744 2837 
Q 2550 3084 2163 3084 
Q 1697 3084 1428 2787 
Q 1159 2491 1159 1978 
L 1159 0 
L 581 0 
L 581 3500 
L 1159 3500 
L 1159 2956 
Q 1366 3272 1645 3428 
Q 1925 3584 2291 3584 
Q 2894 3584 3203 3211 
Q 3513 2838 3513 2113 
z
" transform="scale(0.015625)"/>
       <path id="DejaVuSans-74" d="M 1172 4494 
L 1172 3500 
L 2356 3500 
L 2356 3053 
L 1172 3053 
L 1172 1153 
Q 1172 725 1289 603 
Q 1406 481 1766 481 
L 2356 481 
L 2356 0 
L 1766 0 
Q 1100 0 847 248 
Q 594 497 594 1153 
L 594 3053 
L 172 3053 
L 172 3500 
L 594 3500 
L 594 4494 
L 1172 4494 
z
" transform="scale(0.015625)"/>
       <path id="DejaVuSans-20" transform="scale(0.015625)"/>
       <path id="DejaVuSans-6c" d="M 603 4863 
L 1178 4863 
L 1178 0 
L 603 0 
L 603 4863 
z
" transform="scale(0.015625)"/>
       <path id="DejaVuSans-67" d="M 2906 1791 
Q 2906 2416 2648 2759 
Q 2391 3103 1925 3103 
Q 1463 3103 1205 2759 
Q 947 2416 947 1791 
Q 947 1169 1205 825 
Q 1463 481 1925 481 
Q 2391 481 2648 825 
Q 2906 1169 2906 1791 
z
M 3481 434 
Q 3481 -459 3084 -895 
Q 2688 -1331 1869 -1331 
Q 1566 -1331 1297 -1286 
Q 1028 -1241 775 -1147 
L 775 -588 
Q 1028 -725 1275 -790 
Q 1522 -856 1778 -856 
Q 2344 -856 2625 -561 
Q 2906 -266 2906 331 
L 2906 616 
Q 2728 306 2450 153 
Q 2172 0 1784 0 
Q 1141 0 747 490 
Q 353 981 353 1791 
Q 353 2603 747 3093 
Q 1141 3584 1784 3584 
Q 2172 3584 2450 3431 
Q 2728 3278 2906 2969 
L 2906 3500 
L 3481 3500 
L 3481 434 
z
" transform="scale(0.015625)"/>
       <path id="DejaVuSans-68" d="M 3513 2113 
L 3513 0 
L 2938 0 
L 2938 2094 
Q 2938 2591 2744 2837 
Q 2550 3084 2163 3084 
Q 1697 3084 1428 2787 
Q 1159 2491 1159 1978 
L 1159 0 
L 581 0 
L 581 4863 
L 1159 4863 
L 1159 2956 
Q 1366 3272 1645 3428 
Q 1925 3584 2291 3584 
Q 2894 3584 3203 3211 
Q 3513 2838 3513 2113 
z
" transform="scale(0.015625)"/>
       <path id="DejaVuSans-5b" d="M 550 4863 
L 1875 4863 
L 1875 4416 
L 1125 4416 
L 1125 -397 
L 1875 -397 
L 1875 -844 
L 550 -844 
L 550 4863 
z
" transform="scale(0.015625)"/>
       <path id="DejaVuSans-5d" d="M 1947 4863 
L 1947 -844 
L 622 -844 
L 622 -397 
L 1369 -397 
L 1369 4416 
L 622 4416 
L 622 4863 
L 1947 4863 
z
" transform="scale(0.015625)"/>
      </defs>
      <use xlink:href="#DejaVuSans-45"/>
      <use xlink:href="#DejaVuSans-78" x="63.183594"/>
      <use xlink:href="#DejaVuSans-70" x="122.363281"/>
      <use xlink:href="#DejaVuSans-65" x="185.839844"/>
      <use xlink:href="#DejaVuSans-72" x="247.363281"/>
      <use xlink:href="#DejaVuSans-69" x="288.476562"/>
      <use xlink:href="#DejaVuSans-6d" x="316.259766"/>
      <use xlink:href="#DejaVuSans-65" x="413.671875"/>
      <use xlink:href="#DejaVuSans-6e" x="475.195312"/>
      <use xlink:href="#DejaVuSans-74" x="538.574219"/>
      <use xlink:href="#DejaVuSans-20" x="577.783203"/>
      <use xlink:href="#DejaVuSans-6c" x="609.570312"/>
      <use xlink:href="#DejaVuSans-65" x="637.353516"/>
      <use xlink:href="#DejaVuSans-6e" x="698.876953"/>
      <use xlink:href="#DejaVuSans-67" x="762.255859"/>
      <use xlink:href="#DejaVuSans-74" x="825.732422"/>
      <use xlink:href="#DejaVuSans-68" x="864.941406"/>
      <use xlink:href="#DejaVuSans-20" x="928.320312"/>
      <use xlink:href="#DejaVuSans-5b" x="960.107422"/>
      <use xlink:href="#DejaVuSans-6d" x="999.121094"/>
      <use xlink:href="#DejaVuSans-69" x="1096.533203"/>
      <use xlink:href="#DejaVuSans-6e" x="1124.316406"/>
      <use xlink:href="#DejaVuSans-5d" x="1187.695312"/>
     </g>
    </g>
   </g>
   <g id="matplotlib.axis_2">
    <g id="ytick_1">
     <g id="line2d_6">
      <defs>
       <path id="m1dc175f32e" d="M 0 0 
L -3.5 0 
" style="stroke: #000000; stroke-width: 0.8"/>
      </defs>
      <g>
       <use xlink:href="#m1dc175f32e" x="126" y="268.56" style="stroke: #000000; stroke-width: 0.8"/>
      </g>
     </g>
     <g id="text_7">
      <!-- deg sniff left dish -->
      <g transform="translate(32.379687 272.359219) scale(0.1 -0.1)">
       <defs>
        <path id="DejaVuSans-64" d="M 2906 2969 
L 2906 4863 
L 3481 4863 
L 3481 0 
L 2906 0 
L 2906 525 
Q 2725 213 2448 61 
Q 2172 -91 1784 -91 
Q 1150 -91 751 415 
Q 353 922 353 1747 
Q 353 2572 751 3078 
Q 1150 3584 1784 3584 
Q 2172 3584 2448 3432 
Q 2725 3281 2906 2969 
z
M 947 1747 
Q 947 1113 1208 752 
Q 1469 391 1925 391 
Q 2381 391 2643 752 
Q 2906 1113 2906 1747 
Q 2906 2381 2643 2742 
Q 2381 3103 1925 3103 
Q 1469 3103 1208 2742 
Q 947 2381 947 1747 
z
" transform="scale(0.015625)"/>
        <path id="DejaVuSans-73" d="M 2834 3397 
L 2834 2853 
Q 2591 2978 2328 3040 
Q 2066 3103 1784 3103 
Q 1356 3103 1142 2972 
Q 928 2841 928 2578 
Q 928 2378 1081 2264 
Q 1234 2150 1697 2047 
L 1894 2003 
Q 2506 1872 2764 1633 
Q 3022 1394 3022 966 
Q 3022 478 2636 193 
Q 2250 -91 1575 -91 
Q 1294 -91 989 -36 
Q 684 19 347 128 
L 347 722 
Q 666 556 975 473 
Q 1284 391 1588 391 
Q 1994 391 2212 530 
Q 2431 669 2431 922 
Q 2431 1156 2273 1281 
Q 2116 1406 1581 1522 
L 1381 1569 
Q 847 1681 609 1914 
Q 372 2147 372 2553 
Q 372 3047 722 3315 
Q 1072 3584 1716 3584 
Q 2034 3584 2315 3537 
Q 2597 3491 2834 3397 
z
" transform="scale(0.015625)"/>
        <path id="DejaVuSans-66" d="M 2375 4863 
L 2375 4384 
L 1825 4384 
Q 1516 4384 1395 4259 
Q 1275 4134 1275 3809 
L 1275 3500 
L 2222 3500 
L 2222 3053 
L 1275 3053 
L 1275 0 
L 697 0 
L 697 3053 
L 147 3053 
L 147 3500 
L 697 3500 
L 697 3744 
Q 697 4328 969 4595 
Q 1241 4863 1831 4863 
L 2375 4863 
z
" transform="scale(0.015625)"/>
       </defs>
       <use xlink:href="#DejaVuSans-64"/>
       <use xlink:href="#DejaVuSans-65" x="63.476562"/>
       <use xlink:href="#DejaVuSans-67" x="125"/>
       <use xlink:href="#DejaVuSans-20" x="188.476562"/>
       <use xlink:href="#DejaVuSans-73" x="220.263672"/>
       <use xlink:href="#DejaVuSans-6e" x="272.363281"/>
       <use xlink:href="#DejaVuSans-69" x="335.742188"/>
       <use xlink:href="#DejaVuSans-66" x="363.525391"/>
       <use xlink:href="#DejaVuSans-66" x="398.730469"/>
       <use xlink:href="#DejaVuSans-20" x="433.935547"/>
       <use xlink:href="#DejaVuSans-6c" x="465.722656"/>
       <use xlink:href="#DejaVuSans-65" x="493.505859"/>
       <use xlink:href="#DejaVuSans-66" x="555.029297"/>
       <use xlink:href="#DejaVuSans-74" x="588.484375"/>
       <use xlink:href="#DejaVuSans-20" x="627.693359"/>
       <use xlink:href="#DejaVuSans-64" x="659.480469"/>
       <use xlink:href="#DejaVuSans-69" x="722.957031"/>
       <use xlink:href="#DejaVuSans-73" x="750.740234"/>
       <use xlink:href="#DejaVuSans-68" x="802.839844"/>
      </g>
     </g>
    </g>
    <g id="ytick_2">
     <g id="line2d_7">
      <g>
       <use xlink:href="#m1dc175f32e" x="126" y="167.76" style="stroke: #000000; stroke-width: 0.8"/>
      </g>
     </g>
     <g id="text_8">
      <!-- def sniff right dish -->
      <g transform="translate(27.909375 171.559219) scale(0.1 -0.1)">
       <use xlink:href="#DejaVuSans-64"/>
       <use xlink:href="#DejaVuSans-65" x="63.476562"/>
       <use xlink:href="#DejaVuSans-66" x="125"/>
       <use xlink:href="#DejaVuSans-20" x="160.205078"/>
       <use xlink:href="#DejaVuSans-73" x="191.992188"/>
       <use xlink:href="#DejaVuSans-6e" x="244.091797"/>
       <use xlink:href="#DejaVuSans-69" x="307.470703"/>
       <use xlink:href="#DejaVuSans-66" x="335.253906"/>
       <use xlink:href="#DejaVuSans-66" x="370.458984"/>
       <use xlink:href="#DejaVuSans-20" x="405.664062"/>
       <use xlink:href="#DejaVuSans-72" x="437.451172"/>
       <use xlink:href="#DejaVuSans-69" x="478.564453"/>
       <use xlink:href="#DejaVuSans-67" x="506.347656"/>
       <use xlink:href="#DejaVuSans-68" x="569.824219"/>
       <use xlink:href="#DejaVuSans-74" x="633.203125"/>
       <use xlink:href="#DejaVuSans-20" x="672.412109"/>
       <use xlink:href="#DejaVuSans-64" x="704.199219"/>
       <use xlink:href="#DejaVuSans-69" x="767.675781"/>
       <use xlink:href="#DejaVuSans-73" x="795.458984"/>
       <use xlink:href="#DejaVuSans-68" x="847.558594"/>
      </g>
     </g>
    </g>
   </g>
   <g id="EventCollection_1">
    <path d="M 161.509091 218.16 
L 161.509091 318.96 
" clip-path="url(#p18f6bdb3d6)" style="fill: none; stroke: #bf00bf; stroke-width: 0.5"/>
    <path d="M 161.692981 218.16 
L 161.692981 318.96 
" clip-path="url(#p18f6bdb3d6)" style="fill: none; stroke: #bf00bf; stroke-width: 0.5"/>
    <path d="M 161.87687 218.16 
L 161.87687 318.96 
" clip-path="url(#p18f6bdb3d6)" style="fill: none; stroke: #bf00bf; stroke-width: 0.5"/>
    <path d="M 175.668594 218.16 
L 175.668594 318.96 
" clip-path="url(#p18f6bdb3d6)" style="fill: none; stroke: #bf00bf; stroke-width: 0.5"/>
    <path d="M 175.852483 218.16 
L 175.852483 318.96 
" clip-path="url(#p18f6bdb3d6)" style="fill: none; stroke: #bf00bf; stroke-width: 0.5"/>
    <path d="M 208.95262 218.16 
L 208.95262 318.96 
" clip-path="url(#p18f6bdb3d6)" style="fill: none; stroke: #bf00bf; stroke-width: 0.5"/>
    <path d="M 210.055958 218.16 
L 210.055958 318.96 
" clip-path="url(#p18f6bdb3d6)" style="fill: none; stroke: #bf00bf; stroke-width: 0.5"/>
    <path d="M 210.423737 218.16 
L 210.423737 318.96 
" clip-path="url(#p18f6bdb3d6)" style="fill: none; stroke: #bf00bf; stroke-width: 0.5"/>
    <path d="M 211.527075 218.16 
L 211.527075 318.96 
" clip-path="url(#p18f6bdb3d6)" style="fill: none; stroke: #bf00bf; stroke-width: 0.5"/>
    <path d="M 211.710965 218.16 
L 211.710965 318.96 
" clip-path="url(#p18f6bdb3d6)" style="fill: none; stroke: #bf00bf; stroke-width: 0.5"/>
    <path d="M 211.894854 218.16 
L 211.894854 318.96 
" clip-path="url(#p18f6bdb3d6)" style="fill: none; stroke: #bf00bf; stroke-width: 0.5"/>
    <path d="M 212.078744 218.16 
L 212.078744 318.96 
" clip-path="url(#p18f6bdb3d6)" style="fill: none; stroke: #bf00bf; stroke-width: 0.5"/>
    <path d="M 212.262634 218.16 
L 212.262634 318.96 
" clip-path="url(#p18f6bdb3d6)" style="fill: none; stroke: #bf00bf; stroke-width: 0.5"/>
    <path d="M 212.446523 218.16 
L 212.446523 318.96 
" clip-path="url(#p18f6bdb3d6)" style="fill: none; stroke: #bf00bf; stroke-width: 0.5"/>
    <path d="M 212.630413 218.16 
L 212.630413 318.96 
" clip-path="url(#p18f6bdb3d6)" style="fill: none; stroke: #bf00bf; stroke-width: 0.5"/>
    <path d="M 212.814303 218.16 
L 212.814303 318.96 
" clip-path="url(#p18f6bdb3d6)" style="fill: none; stroke: #bf00bf; stroke-width: 0.5"/>
    <path d="M 212.998192 218.16 
L 212.998192 318.96 
" clip-path="url(#p18f6bdb3d6)" style="fill: none; stroke: #bf00bf; stroke-width: 0.5"/>
    <path d="M 227.157695 218.16 
L 227.157695 318.96 
" clip-path="url(#p18f6bdb3d6)" style="fill: none; stroke: #bf00bf; stroke-width: 0.5"/>
    <path d="M 268.348976 218.16 
L 268.348976 318.96 
" clip-path="url(#p18f6bdb3d6)" style="fill: none; stroke: #bf00bf; stroke-width: 0.5"/>
    <path d="M 268.532866 218.16 
L 268.532866 318.96 
" clip-path="url(#p18f6bdb3d6)" style="fill: none; stroke: #bf00bf; stroke-width: 0.5"/>
    <path d="M 268.716755 218.16 
L 268.716755 318.96 
" clip-path="url(#p18f6bdb3d6)" style="fill: none; stroke: #bf00bf; stroke-width: 0.5"/>
    <path d="M 268.900645 218.16 
L 268.900645 318.96 
" clip-path="url(#p18f6bdb3d6)" style="fill: none; stroke: #bf00bf; stroke-width: 0.5"/>
    <path d="M 269.084535 218.16 
L 269.084535 318.96 
" clip-path="url(#p18f6bdb3d6)" style="fill: none; stroke: #bf00bf; stroke-width: 0.5"/>
    <path d="M 269.268424 218.16 
L 269.268424 318.96 
" clip-path="url(#p18f6bdb3d6)" style="fill: none; stroke: #bf00bf; stroke-width: 0.5"/>
    <path d="M 269.452314 218.16 
L 269.452314 318.96 
" clip-path="url(#p18f6bdb3d6)" style="fill: none; stroke: #bf00bf; stroke-width: 0.5"/>
    <path d="M 269.636204 218.16 
L 269.636204 318.96 
" clip-path="url(#p18f6bdb3d6)" style="fill: none; stroke: #bf00bf; stroke-width: 0.5"/>
    <path d="M 269.820093 218.16 
L 269.820093 318.96 
" clip-path="url(#p18f6bdb3d6)" style="fill: none; stroke: #bf00bf; stroke-width: 0.5"/>
    <path d="M 270.003983 218.16 
L 270.003983 318.96 
" clip-path="url(#p18f6bdb3d6)" style="fill: none; stroke: #bf00bf; stroke-width: 0.5"/>
    <path d="M 270.187873 218.16 
L 270.187873 318.96 
" clip-path="url(#p18f6bdb3d6)" style="fill: none; stroke: #bf00bf; stroke-width: 0.5"/>
    <path d="M 270.371762 218.16 
L 270.371762 318.96 
" clip-path="url(#p18f6bdb3d6)" style="fill: none; stroke: #bf00bf; stroke-width: 0.5"/>
    <path d="M 270.555652 218.16 
L 270.555652 318.96 
" clip-path="url(#p18f6bdb3d6)" style="fill: none; stroke: #bf00bf; stroke-width: 0.5"/>
    <path d="M 270.739541 218.16 
L 270.739541 318.96 
" clip-path="url(#p18f6bdb3d6)" style="fill: none; stroke: #bf00bf; stroke-width: 0.5"/>
    <path d="M 270.923431 218.16 
L 270.923431 318.96 
" clip-path="url(#p18f6bdb3d6)" style="fill: none; stroke: #bf00bf; stroke-width: 0.5"/>
    <path d="M 271.107321 218.16 
L 271.107321 318.96 
" clip-path="url(#p18f6bdb3d6)" style="fill: none; stroke: #bf00bf; stroke-width: 0.5"/>
    <path d="M 271.29121 218.16 
L 271.29121 318.96 
" clip-path="url(#p18f6bdb3d6)" style="fill: none; stroke: #bf00bf; stroke-width: 0.5"/>
    <path d="M 271.4751 218.16 
L 271.4751 318.96 
" clip-path="url(#p18f6bdb3d6)" style="fill: none; stroke: #bf00bf; stroke-width: 0.5"/>
    <path d="M 271.65899 218.16 
L 271.65899 318.96 
" clip-path="url(#p18f6bdb3d6)" style="fill: none; stroke: #bf00bf; stroke-width: 0.5"/>
    <path d="M 271.842879 218.16 
L 271.842879 318.96 
" clip-path="url(#p18f6bdb3d6)" style="fill: none; stroke: #bf00bf; stroke-width: 0.5"/>
    <path d="M 272.026769 218.16 
L 272.026769 318.96 
" clip-path="url(#p18f6bdb3d6)" style="fill: none; stroke: #bf00bf; stroke-width: 0.5"/>
    <path d="M 272.210659 218.16 
L 272.210659 318.96 
" clip-path="url(#p18f6bdb3d6)" style="fill: none; stroke: #bf00bf; stroke-width: 0.5"/>
    <path d="M 305.494685 218.16 
L 305.494685 318.96 
" clip-path="url(#p18f6bdb3d6)" style="fill: none; stroke: #bf00bf; stroke-width: 0.5"/>
    <path d="M 305.862464 218.16 
L 305.862464 318.96 
" clip-path="url(#p18f6bdb3d6)" style="fill: none; stroke: #bf00bf; stroke-width: 0.5"/>
    <path d="M 306.046354 218.16 
L 306.046354 318.96 
" clip-path="url(#p18f6bdb3d6)" style="fill: none; stroke: #bf00bf; stroke-width: 0.5"/>
    <path d="M 306.230243 218.16 
L 306.230243 318.96 
" clip-path="url(#p18f6bdb3d6)" style="fill: none; stroke: #bf00bf; stroke-width: 0.5"/>
    <path d="M 306.414133 218.16 
L 306.414133 318.96 
" clip-path="url(#p18f6bdb3d6)" style="fill: none; stroke: #bf00bf; stroke-width: 0.5"/>
    <path d="M 306.598023 218.16 
L 306.598023 318.96 
" clip-path="url(#p18f6bdb3d6)" style="fill: none; stroke: #bf00bf; stroke-width: 0.5"/>
    <path d="M 415.276804 218.16 
L 415.276804 318.96 
" clip-path="url(#p18f6bdb3d6)" style="fill: none; stroke: #bf00bf; stroke-width: 0.5"/>
    <path d="M 415.644584 218.16 
L 415.644584 318.96 
" clip-path="url(#p18f6bdb3d6)" style="fill: none; stroke: #bf00bf; stroke-width: 0.5"/>
    <path d="M 415.828473 218.16 
L 415.828473 318.96 
" clip-path="url(#p18f6bdb3d6)" style="fill: none; stroke: #bf00bf; stroke-width: 0.5"/>
    <path d="M 416.012363 218.16 
L 416.012363 318.96 
" clip-path="url(#p18f6bdb3d6)" style="fill: none; stroke: #bf00bf; stroke-width: 0.5"/>
    <path d="M 416.196253 218.16 
L 416.196253 318.96 
" clip-path="url(#p18f6bdb3d6)" style="fill: none; stroke: #bf00bf; stroke-width: 0.5"/>
    <path d="M 416.380142 218.16 
L 416.380142 318.96 
" clip-path="url(#p18f6bdb3d6)" style="fill: none; stroke: #bf00bf; stroke-width: 0.5"/>
    <path d="M 416.564032 218.16 
L 416.564032 318.96 
" clip-path="url(#p18f6bdb3d6)" style="fill: none; stroke: #bf00bf; stroke-width: 0.5"/>
    <path d="M 416.747921 218.16 
L 416.747921 318.96 
" clip-path="url(#p18f6bdb3d6)" style="fill: none; stroke: #bf00bf; stroke-width: 0.5"/>
    <path d="M 416.931811 218.16 
L 416.931811 318.96 
" clip-path="url(#p18f6bdb3d6)" style="fill: none; stroke: #bf00bf; stroke-width: 0.5"/>
    <path d="M 417.115701 218.16 
L 417.115701 318.96 
" clip-path="url(#p18f6bdb3d6)" style="fill: none; stroke: #bf00bf; stroke-width: 0.5"/>
    <path d="M 417.29959 218.16 
L 417.29959 318.96 
" clip-path="url(#p18f6bdb3d6)" style="fill: none; stroke: #bf00bf; stroke-width: 0.5"/>
    <path d="M 417.48348 218.16 
L 417.48348 318.96 
" clip-path="url(#p18f6bdb3d6)" style="fill: none; stroke: #bf00bf; stroke-width: 0.5"/>
    <path d="M 468.604802 218.16 
L 468.604802 318.96 
" clip-path="url(#p18f6bdb3d6)" style="fill: none; stroke: #bf00bf; stroke-width: 0.5"/>
    <path d="M 600.821459 218.16 
L 600.821459 318.96 
" clip-path="url(#p18f6bdb3d6)" style="fill: none; stroke: #bf00bf; stroke-width: 0.5"/>
    <path d="M 601.005348 218.16 
L 601.005348 318.96 
" clip-path="url(#p18f6bdb3d6)" style="fill: none; stroke: #bf00bf; stroke-width: 0.5"/>
    <path d="M 601.189238 218.16 
L 601.189238 318.96 
" clip-path="url(#p18f6bdb3d6)" style="fill: none; stroke: #bf00bf; stroke-width: 0.5"/>
    <path d="M 601.373127 218.16 
L 601.373127 318.96 
" clip-path="url(#p18f6bdb3d6)" style="fill: none; stroke: #bf00bf; stroke-width: 0.5"/>
    <path d="M 601.557017 218.16 
L 601.557017 318.96 
" clip-path="url(#p18f6bdb3d6)" style="fill: none; stroke: #bf00bf; stroke-width: 0.5"/>
    <path d="M 628.772685 218.16 
L 628.772685 318.96 
" clip-path="url(#p18f6bdb3d6)" style="fill: none; stroke: #bf00bf; stroke-width: 0.5"/>
    <path d="M 648.264988 218.16 
L 648.264988 318.96 
" clip-path="url(#p18f6bdb3d6)" style="fill: none; stroke: #bf00bf; stroke-width: 0.5"/>
    <path d="M 648.448877 218.16 
L 648.448877 318.96 
" clip-path="url(#p18f6bdb3d6)" style="fill: none; stroke: #bf00bf; stroke-width: 0.5"/>
    <path d="M 648.632767 218.16 
L 648.632767 318.96 
" clip-path="url(#p18f6bdb3d6)" style="fill: none; stroke: #bf00bf; stroke-width: 0.5"/>
    <path d="M 678.790669 218.16 
L 678.790669 318.96 
" clip-path="url(#p18f6bdb3d6)" style="fill: none; stroke: #bf00bf; stroke-width: 0.5"/>
    <path d="M 678.974559 218.16 
L 678.974559 318.96 
" clip-path="url(#p18f6bdb3d6)" style="fill: none; stroke: #bf00bf; stroke-width: 0.5"/>
    <path d="M 679.158448 218.16 
L 679.158448 318.96 
" clip-path="url(#p18f6bdb3d6)" style="fill: none; stroke: #bf00bf; stroke-width: 0.5"/>
    <path d="M 679.342338 218.16 
L 679.342338 318.96 
" clip-path="url(#p18f6bdb3d6)" style="fill: none; stroke: #bf00bf; stroke-width: 0.5"/>
    <path d="M 679.526228 218.16 
L 679.526228 318.96 
" clip-path="url(#p18f6bdb3d6)" style="fill: none; stroke: #bf00bf; stroke-width: 0.5"/>
    <path d="M 679.710117 218.16 
L 679.710117 318.96 
" clip-path="url(#p18f6bdb3d6)" style="fill: none; stroke: #bf00bf; stroke-width: 0.5"/>
    <path d="M 679.894007 218.16 
L 679.894007 318.96 
" clip-path="url(#p18f6bdb3d6)" style="fill: none; stroke: #bf00bf; stroke-width: 0.5"/>
    <path d="M 680.077897 218.16 
L 680.077897 318.96 
" clip-path="url(#p18f6bdb3d6)" style="fill: none; stroke: #bf00bf; stroke-width: 0.5"/>
    <path d="M 680.261786 218.16 
L 680.261786 318.96 
" clip-path="url(#p18f6bdb3d6)" style="fill: none; stroke: #bf00bf; stroke-width: 0.5"/>
    <path d="M 680.445676 218.16 
L 680.445676 318.96 
" clip-path="url(#p18f6bdb3d6)" style="fill: none; stroke: #bf00bf; stroke-width: 0.5"/>
    <path d="M 680.629565 218.16 
L 680.629565 318.96 
" clip-path="url(#p18f6bdb3d6)" style="fill: none; stroke: #bf00bf; stroke-width: 0.5"/>
    <path d="M 680.813455 218.16 
L 680.813455 318.96 
" clip-path="url(#p18f6bdb3d6)" style="fill: none; stroke: #bf00bf; stroke-width: 0.5"/>
    <path d="M 680.997345 218.16 
L 680.997345 318.96 
" clip-path="url(#p18f6bdb3d6)" style="fill: none; stroke: #bf00bf; stroke-width: 0.5"/>
    <path d="M 681.181234 218.16 
L 681.181234 318.96 
" clip-path="url(#p18f6bdb3d6)" style="fill: none; stroke: #bf00bf; stroke-width: 0.5"/>
    <path d="M 681.365124 218.16 
L 681.365124 318.96 
" clip-path="url(#p18f6bdb3d6)" style="fill: none; stroke: #bf00bf; stroke-width: 0.5"/>
    <path d="M 681.549014 218.16 
L 681.549014 318.96 
" clip-path="url(#p18f6bdb3d6)" style="fill: none; stroke: #bf00bf; stroke-width: 0.5"/>
    <path d="M 681.732903 218.16 
L 681.732903 318.96 
" clip-path="url(#p18f6bdb3d6)" style="fill: none; stroke: #bf00bf; stroke-width: 0.5"/>
    <path d="M 737.451467 218.16 
L 737.451467 318.96 
" clip-path="url(#p18f6bdb3d6)" style="fill: none; stroke: #bf00bf; stroke-width: 0.5"/>
    <path d="M 737.635356 218.16 
L 737.635356 318.96 
" clip-path="url(#p18f6bdb3d6)" style="fill: none; stroke: #bf00bf; stroke-width: 0.5"/>
    <path d="M 737.819246 218.16 
L 737.819246 318.96 
" clip-path="url(#p18f6bdb3d6)" style="fill: none; stroke: #bf00bf; stroke-width: 0.5"/>
    <path d="M 738.003135 218.16 
L 738.003135 318.96 
" clip-path="url(#p18f6bdb3d6)" style="fill: none; stroke: #bf00bf; stroke-width: 0.5"/>
    <path d="M 738.187025 218.16 
L 738.187025 318.96 
" clip-path="url(#p18f6bdb3d6)" style="fill: none; stroke: #bf00bf; stroke-width: 0.5"/>
    <path d="M 738.370915 218.16 
L 738.370915 318.96 
" clip-path="url(#p18f6bdb3d6)" style="fill: none; stroke: #bf00bf; stroke-width: 0.5"/>
    <path d="M 738.554804 218.16 
L 738.554804 318.96 
" clip-path="url(#p18f6bdb3d6)" style="fill: none; stroke: #bf00bf; stroke-width: 0.5"/>
    <path d="M 738.738694 218.16 
L 738.738694 318.96 
" clip-path="url(#p18f6bdb3d6)" style="fill: none; stroke: #bf00bf; stroke-width: 0.5"/>
    <path d="M 790.227795 218.16 
L 790.227795 318.96 
" clip-path="url(#p18f6bdb3d6)" style="fill: none; stroke: #bf00bf; stroke-width: 0.5"/>
    <path d="M 790.411685 218.16 
L 790.411685 318.96 
" clip-path="url(#p18f6bdb3d6)" style="fill: none; stroke: #bf00bf; stroke-width: 0.5"/>
    <path d="M 827.925173 218.16 
L 827.925173 318.96 
" clip-path="url(#p18f6bdb3d6)" style="fill: none; stroke: #bf00bf; stroke-width: 0.5"/>
    <path d="M 828.476842 218.16 
L 828.476842 318.96 
" clip-path="url(#p18f6bdb3d6)" style="fill: none; stroke: #bf00bf; stroke-width: 0.5"/>
    <path d="M 828.660732 218.16 
L 828.660732 318.96 
" clip-path="url(#p18f6bdb3d6)" style="fill: none; stroke: #bf00bf; stroke-width: 0.5"/>
    <path d="M 828.844621 218.16 
L 828.844621 318.96 
" clip-path="url(#p18f6bdb3d6)" style="fill: none; stroke: #bf00bf; stroke-width: 0.5"/>
    <path d="M 848.520814 218.16 
L 848.520814 318.96 
" clip-path="url(#p18f6bdb3d6)" style="fill: none; stroke: #bf00bf; stroke-width: 0.5"/>
    <path d="M 851.830827 218.16 
L 851.830827 318.96 
" clip-path="url(#p18f6bdb3d6)" style="fill: none; stroke: #bf00bf; stroke-width: 0.5"/>
   </g>
   <g id="EventCollection_2">
    <path d="M 191.115324 117.36 
L 191.115324 218.16 
" clip-path="url(#p18f6bdb3d6)" style="fill: none; stroke: #bfbf00; stroke-width: 0.5"/>
    <path d="M 191.299214 117.36 
L 191.299214 218.16 
" clip-path="url(#p18f6bdb3d6)" style="fill: none; stroke: #bfbf00; stroke-width: 0.5"/>
    <path d="M 191.483103 117.36 
L 191.483103 218.16 
" clip-path="url(#p18f6bdb3d6)" style="fill: none; stroke: #bfbf00; stroke-width: 0.5"/>
    <path d="M 191.666993 117.36 
L 191.666993 218.16 
" clip-path="url(#p18f6bdb3d6)" style="fill: none; stroke: #bfbf00; stroke-width: 0.5"/>
    <path d="M 191.850883 117.36 
L 191.850883 218.16 
" clip-path="url(#p18f6bdb3d6)" style="fill: none; stroke: #bfbf00; stroke-width: 0.5"/>
    <path d="M 192.034772 117.36 
L 192.034772 218.16 
" clip-path="url(#p18f6bdb3d6)" style="fill: none; stroke: #bfbf00; stroke-width: 0.5"/>
    <path d="M 192.218662 117.36 
L 192.218662 218.16 
" clip-path="url(#p18f6bdb3d6)" style="fill: none; stroke: #bfbf00; stroke-width: 0.5"/>
    <path d="M 354.77711 117.36 
L 354.77711 218.16 
" clip-path="url(#p18f6bdb3d6)" style="fill: none; stroke: #bfbf00; stroke-width: 0.5"/>
    <path d="M 355.14489 117.36 
L 355.14489 218.16 
" clip-path="url(#p18f6bdb3d6)" style="fill: none; stroke: #bfbf00; stroke-width: 0.5"/>
    <path d="M 355.328779 117.36 
L 355.328779 218.16 
" clip-path="url(#p18f6bdb3d6)" style="fill: none; stroke: #bfbf00; stroke-width: 0.5"/>
    <path d="M 355.512669 117.36 
L 355.512669 218.16 
" clip-path="url(#p18f6bdb3d6)" style="fill: none; stroke: #bfbf00; stroke-width: 0.5"/>
    <path d="M 355.696559 117.36 
L 355.696559 218.16 
" clip-path="url(#p18f6bdb3d6)" style="fill: none; stroke: #bfbf00; stroke-width: 0.5"/>
    <path d="M 355.880448 117.36 
L 355.880448 218.16 
" clip-path="url(#p18f6bdb3d6)" style="fill: none; stroke: #bfbf00; stroke-width: 0.5"/>
    <path d="M 356.064338 117.36 
L 356.064338 218.16 
" clip-path="url(#p18f6bdb3d6)" style="fill: none; stroke: #bfbf00; stroke-width: 0.5"/>
    <path d="M 356.248227 117.36 
L 356.248227 218.16 
" clip-path="url(#p18f6bdb3d6)" style="fill: none; stroke: #bfbf00; stroke-width: 0.5"/>
    <path d="M 356.432117 117.36 
L 356.432117 218.16 
" clip-path="url(#p18f6bdb3d6)" style="fill: none; stroke: #bfbf00; stroke-width: 0.5"/>
    <path d="M 356.616007 117.36 
L 356.616007 218.16 
" clip-path="url(#p18f6bdb3d6)" style="fill: none; stroke: #bfbf00; stroke-width: 0.5"/>
    <path d="M 356.799896 117.36 
L 356.799896 218.16 
" clip-path="url(#p18f6bdb3d6)" style="fill: none; stroke: #bfbf00; stroke-width: 0.5"/>
    <path d="M 356.983786 117.36 
L 356.983786 218.16 
" clip-path="url(#p18f6bdb3d6)" style="fill: none; stroke: #bfbf00; stroke-width: 0.5"/>
    <path d="M 357.167676 117.36 
L 357.167676 218.16 
" clip-path="url(#p18f6bdb3d6)" style="fill: none; stroke: #bfbf00; stroke-width: 0.5"/>
    <path d="M 357.351565 117.36 
L 357.351565 218.16 
" clip-path="url(#p18f6bdb3d6)" style="fill: none; stroke: #bfbf00; stroke-width: 0.5"/>
    <path d="M 357.535455 117.36 
L 357.535455 218.16 
" clip-path="url(#p18f6bdb3d6)" style="fill: none; stroke: #bfbf00; stroke-width: 0.5"/>
    <path d="M 357.719345 117.36 
L 357.719345 218.16 
" clip-path="url(#p18f6bdb3d6)" style="fill: none; stroke: #bfbf00; stroke-width: 0.5"/>
    <path d="M 357.903234 117.36 
L 357.903234 218.16 
" clip-path="url(#p18f6bdb3d6)" style="fill: none; stroke: #bfbf00; stroke-width: 0.5"/>
    <path d="M 358.087124 117.36 
L 358.087124 218.16 
" clip-path="url(#p18f6bdb3d6)" style="fill: none; stroke: #bfbf00; stroke-width: 0.5"/>
    <path d="M 358.271014 117.36 
L 358.271014 218.16 
" clip-path="url(#p18f6bdb3d6)" style="fill: none; stroke: #bfbf00; stroke-width: 0.5"/>
    <path d="M 358.454903 117.36 
L 358.454903 218.16 
" clip-path="url(#p18f6bdb3d6)" style="fill: none; stroke: #bfbf00; stroke-width: 0.5"/>
    <path d="M 358.638793 117.36 
L 358.638793 218.16 
" clip-path="url(#p18f6bdb3d6)" style="fill: none; stroke: #bfbf00; stroke-width: 0.5"/>
    <path d="M 409.392336 117.36 
L 409.392336 218.16 
" clip-path="url(#p18f6bdb3d6)" style="fill: none; stroke: #bfbf00; stroke-width: 0.5"/>
    <path d="M 409.576225 117.36 
L 409.576225 218.16 
" clip-path="url(#p18f6bdb3d6)" style="fill: none; stroke: #bfbf00; stroke-width: 0.5"/>
    <path d="M 410.127894 117.36 
L 410.127894 218.16 
" clip-path="url(#p18f6bdb3d6)" style="fill: none; stroke: #bfbf00; stroke-width: 0.5"/>
    <path d="M 410.311784 117.36 
L 410.311784 218.16 
" clip-path="url(#p18f6bdb3d6)" style="fill: none; stroke: #bfbf00; stroke-width: 0.5"/>
    <path d="M 459.778099 117.36 
L 459.778099 218.16 
" clip-path="url(#p18f6bdb3d6)" style="fill: none; stroke: #bfbf00; stroke-width: 0.5"/>
    <path d="M 459.961989 117.36 
L 459.961989 218.16 
" clip-path="url(#p18f6bdb3d6)" style="fill: none; stroke: #bfbf00; stroke-width: 0.5"/>
    <path d="M 460.145878 117.36 
L 460.145878 218.16 
" clip-path="url(#p18f6bdb3d6)" style="fill: none; stroke: #bfbf00; stroke-width: 0.5"/>
    <path d="M 460.329768 117.36 
L 460.329768 218.16 
" clip-path="url(#p18f6bdb3d6)" style="fill: none; stroke: #bfbf00; stroke-width: 0.5"/>
    <path d="M 460.513658 117.36 
L 460.513658 218.16 
" clip-path="url(#p18f6bdb3d6)" style="fill: none; stroke: #bfbf00; stroke-width: 0.5"/>
    <path d="M 461.800885 117.36 
L 461.800885 218.16 
" clip-path="url(#p18f6bdb3d6)" style="fill: none; stroke: #bfbf00; stroke-width: 0.5"/>
    <path d="M 500.417711 117.36 
L 500.417711 218.16 
" clip-path="url(#p18f6bdb3d6)" style="fill: none; stroke: #bfbf00; stroke-width: 0.5"/>
    <path d="M 500.601601 117.36 
L 500.601601 218.16 
" clip-path="url(#p18f6bdb3d6)" style="fill: none; stroke: #bfbf00; stroke-width: 0.5"/>
    <path d="M 500.78549 117.36 
L 500.78549 218.16 
" clip-path="url(#p18f6bdb3d6)" style="fill: none; stroke: #bfbf00; stroke-width: 0.5"/>
    <path d="M 500.96938 117.36 
L 500.96938 218.16 
" clip-path="url(#p18f6bdb3d6)" style="fill: none; stroke: #bfbf00; stroke-width: 0.5"/>
    <path d="M 501.15327 117.36 
L 501.15327 218.16 
" clip-path="url(#p18f6bdb3d6)" style="fill: none; stroke: #bfbf00; stroke-width: 0.5"/>
    <path d="M 501.337159 117.36 
L 501.337159 218.16 
" clip-path="url(#p18f6bdb3d6)" style="fill: none; stroke: #bfbf00; stroke-width: 0.5"/>
    <path d="M 501.521049 117.36 
L 501.521049 218.16 
" clip-path="url(#p18f6bdb3d6)" style="fill: none; stroke: #bfbf00; stroke-width: 0.5"/>
    <path d="M 501.704939 117.36 
L 501.704939 218.16 
" clip-path="url(#p18f6bdb3d6)" style="fill: none; stroke: #bfbf00; stroke-width: 0.5"/>
    <path d="M 501.888828 117.36 
L 501.888828 218.16 
" clip-path="url(#p18f6bdb3d6)" style="fill: none; stroke: #bfbf00; stroke-width: 0.5"/>
    <path d="M 502.072718 117.36 
L 502.072718 218.16 
" clip-path="url(#p18f6bdb3d6)" style="fill: none; stroke: #bfbf00; stroke-width: 0.5"/>
    <path d="M 502.256608 117.36 
L 502.256608 218.16 
" clip-path="url(#p18f6bdb3d6)" style="fill: none; stroke: #bfbf00; stroke-width: 0.5"/>
    <path d="M 502.440497 117.36 
L 502.440497 218.16 
" clip-path="url(#p18f6bdb3d6)" style="fill: none; stroke: #bfbf00; stroke-width: 0.5"/>
    <path d="M 502.624387 117.36 
L 502.624387 218.16 
" clip-path="url(#p18f6bdb3d6)" style="fill: none; stroke: #bfbf00; stroke-width: 0.5"/>
    <path d="M 502.808276 117.36 
L 502.808276 218.16 
" clip-path="url(#p18f6bdb3d6)" style="fill: none; stroke: #bfbf00; stroke-width: 0.5"/>
    <path d="M 502.992166 117.36 
L 502.992166 218.16 
" clip-path="url(#p18f6bdb3d6)" style="fill: none; stroke: #bfbf00; stroke-width: 0.5"/>
    <path d="M 503.176056 117.36 
L 503.176056 218.16 
" clip-path="url(#p18f6bdb3d6)" style="fill: none; stroke: #bfbf00; stroke-width: 0.5"/>
    <path d="M 504.647173 117.36 
L 504.647173 218.16 
" clip-path="url(#p18f6bdb3d6)" style="fill: none; stroke: #bfbf00; stroke-width: 0.5"/>
    <path d="M 504.831063 117.36 
L 504.831063 218.16 
" clip-path="url(#p18f6bdb3d6)" style="fill: none; stroke: #bfbf00; stroke-width: 0.5"/>
    <path d="M 505.014952 117.36 
L 505.014952 218.16 
" clip-path="url(#p18f6bdb3d6)" style="fill: none; stroke: #bfbf00; stroke-width: 0.5"/>
    <path d="M 505.198842 117.36 
L 505.198842 218.16 
" clip-path="url(#p18f6bdb3d6)" style="fill: none; stroke: #bfbf00; stroke-width: 0.5"/>
    <path d="M 505.382732 117.36 
L 505.382732 218.16 
" clip-path="url(#p18f6bdb3d6)" style="fill: none; stroke: #bfbf00; stroke-width: 0.5"/>
    <path d="M 505.566621 117.36 
L 505.566621 218.16 
" clip-path="url(#p18f6bdb3d6)" style="fill: none; stroke: #bfbf00; stroke-width: 0.5"/>
    <path d="M 505.750511 117.36 
L 505.750511 218.16 
" clip-path="url(#p18f6bdb3d6)" style="fill: none; stroke: #bfbf00; stroke-width: 0.5"/>
    <path d="M 505.9344 117.36 
L 505.9344 218.16 
" clip-path="url(#p18f6bdb3d6)" style="fill: none; stroke: #bfbf00; stroke-width: 0.5"/>
    <path d="M 506.11829 117.36 
L 506.11829 218.16 
" clip-path="url(#p18f6bdb3d6)" style="fill: none; stroke: #bfbf00; stroke-width: 0.5"/>
    <path d="M 506.486069 117.36 
L 506.486069 218.16 
" clip-path="url(#p18f6bdb3d6)" style="fill: none; stroke: #bfbf00; stroke-width: 0.5"/>
    <path d="M 506.669959 117.36 
L 506.669959 218.16 
" clip-path="url(#p18f6bdb3d6)" style="fill: none; stroke: #bfbf00; stroke-width: 0.5"/>
    <path d="M 506.853849 117.36 
L 506.853849 218.16 
" clip-path="url(#p18f6bdb3d6)" style="fill: none; stroke: #bfbf00; stroke-width: 0.5"/>
    <path d="M 507.037738 117.36 
L 507.037738 218.16 
" clip-path="url(#p18f6bdb3d6)" style="fill: none; stroke: #bfbf00; stroke-width: 0.5"/>
    <path d="M 507.221628 117.36 
L 507.221628 218.16 
" clip-path="url(#p18f6bdb3d6)" style="fill: none; stroke: #bfbf00; stroke-width: 0.5"/>
    <path d="M 507.405518 117.36 
L 507.405518 218.16 
" clip-path="url(#p18f6bdb3d6)" style="fill: none; stroke: #bfbf00; stroke-width: 0.5"/>
    <path d="M 507.589407 117.36 
L 507.589407 218.16 
" clip-path="url(#p18f6bdb3d6)" style="fill: none; stroke: #bfbf00; stroke-width: 0.5"/>
    <path d="M 508.692745 117.36 
L 508.692745 218.16 
" clip-path="url(#p18f6bdb3d6)" style="fill: none; stroke: #bfbf00; stroke-width: 0.5"/>
    <path d="M 508.876635 117.36 
L 508.876635 218.16 
" clip-path="url(#p18f6bdb3d6)" style="fill: none; stroke: #bfbf00; stroke-width: 0.5"/>
    <path d="M 509.060524 117.36 
L 509.060524 218.16 
" clip-path="url(#p18f6bdb3d6)" style="fill: none; stroke: #bfbf00; stroke-width: 0.5"/>
    <path d="M 509.244414 117.36 
L 509.244414 218.16 
" clip-path="url(#p18f6bdb3d6)" style="fill: none; stroke: #bfbf00; stroke-width: 0.5"/>
    <path d="M 509.428304 117.36 
L 509.428304 218.16 
" clip-path="url(#p18f6bdb3d6)" style="fill: none; stroke: #bfbf00; stroke-width: 0.5"/>
    <path d="M 509.612193 117.36 
L 509.612193 218.16 
" clip-path="url(#p18f6bdb3d6)" style="fill: none; stroke: #bfbf00; stroke-width: 0.5"/>
    <path d="M 509.796083 117.36 
L 509.796083 218.16 
" clip-path="url(#p18f6bdb3d6)" style="fill: none; stroke: #bfbf00; stroke-width: 0.5"/>
    <path d="M 509.979973 117.36 
L 509.979973 218.16 
" clip-path="url(#p18f6bdb3d6)" style="fill: none; stroke: #bfbf00; stroke-width: 0.5"/>
    <path d="M 510.163862 117.36 
L 510.163862 218.16 
" clip-path="url(#p18f6bdb3d6)" style="fill: none; stroke: #bfbf00; stroke-width: 0.5"/>
    <path d="M 510.347752 117.36 
L 510.347752 218.16 
" clip-path="url(#p18f6bdb3d6)" style="fill: none; stroke: #bfbf00; stroke-width: 0.5"/>
    <path d="M 510.531642 117.36 
L 510.531642 218.16 
" clip-path="url(#p18f6bdb3d6)" style="fill: none; stroke: #bfbf00; stroke-width: 0.5"/>
    <path d="M 510.715531 117.36 
L 510.715531 218.16 
" clip-path="url(#p18f6bdb3d6)" style="fill: none; stroke: #bfbf00; stroke-width: 0.5"/>
    <path d="M 510.899421 117.36 
L 510.899421 218.16 
" clip-path="url(#p18f6bdb3d6)" style="fill: none; stroke: #bfbf00; stroke-width: 0.5"/>
    <path d="M 511.63498 117.36 
L 511.63498 218.16 
" clip-path="url(#p18f6bdb3d6)" style="fill: none; stroke: #bfbf00; stroke-width: 0.5"/>
    <path d="M 511.818869 117.36 
L 511.818869 218.16 
" clip-path="url(#p18f6bdb3d6)" style="fill: none; stroke: #bfbf00; stroke-width: 0.5"/>
    <path d="M 512.002759 117.36 
L 512.002759 218.16 
" clip-path="url(#p18f6bdb3d6)" style="fill: none; stroke: #bfbf00; stroke-width: 0.5"/>
    <path d="M 530.023944 117.36 
L 530.023944 218.16 
" clip-path="url(#p18f6bdb3d6)" style="fill: none; stroke: #bfbf00; stroke-width: 0.5"/>
    <path d="M 530.207834 117.36 
L 530.207834 218.16 
" clip-path="url(#p18f6bdb3d6)" style="fill: none; stroke: #bfbf00; stroke-width: 0.5"/>
    <path d="M 561.285184 117.36 
L 561.285184 218.16 
" clip-path="url(#p18f6bdb3d6)" style="fill: none; stroke: #bfbf00; stroke-width: 0.5"/>
    <path d="M 561.469074 117.36 
L 561.469074 218.16 
" clip-path="url(#p18f6bdb3d6)" style="fill: none; stroke: #bfbf00; stroke-width: 0.5"/>
    <path d="M 561.652964 117.36 
L 561.652964 218.16 
" clip-path="url(#p18f6bdb3d6)" style="fill: none; stroke: #bfbf00; stroke-width: 0.5"/>
    <path d="M 568.272991 117.36 
L 568.272991 218.16 
" clip-path="url(#p18f6bdb3d6)" style="fill: none; stroke: #bfbf00; stroke-width: 0.5"/>
    <path d="M 568.456881 117.36 
L 568.456881 218.16 
" clip-path="url(#p18f6bdb3d6)" style="fill: none; stroke: #bfbf00; stroke-width: 0.5"/>
    <path d="M 568.64077 117.36 
L 568.64077 218.16 
" clip-path="url(#p18f6bdb3d6)" style="fill: none; stroke: #bfbf00; stroke-width: 0.5"/>
    <path d="M 568.82466 117.36 
L 568.82466 218.16 
" clip-path="url(#p18f6bdb3d6)" style="fill: none; stroke: #bfbf00; stroke-width: 0.5"/>
    <path d="M 569.00855 117.36 
L 569.00855 218.16 
" clip-path="url(#p18f6bdb3d6)" style="fill: none; stroke: #bfbf00; stroke-width: 0.5"/>
    <path d="M 569.560218 117.36 
L 569.560218 218.16 
" clip-path="url(#p18f6bdb3d6)" style="fill: none; stroke: #bfbf00; stroke-width: 0.5"/>
    <path d="M 569.744108 117.36 
L 569.744108 218.16 
" clip-path="url(#p18f6bdb3d6)" style="fill: none; stroke: #bfbf00; stroke-width: 0.5"/>
    <path d="M 597.879224 117.36 
L 597.879224 218.16 
" clip-path="url(#p18f6bdb3d6)" style="fill: none; stroke: #bfbf00; stroke-width: 0.5"/>
    <path d="M 598.063114 117.36 
L 598.063114 218.16 
" clip-path="url(#p18f6bdb3d6)" style="fill: none; stroke: #bfbf00; stroke-width: 0.5"/>
    <path d="M 600.453679 117.36 
L 600.453679 218.16 
" clip-path="url(#p18f6bdb3d6)" style="fill: none; stroke: #bfbf00; stroke-width: 0.5"/>
    <path d="M 668.125069 117.36 
L 668.125069 218.16 
" clip-path="url(#p18f6bdb3d6)" style="fill: none; stroke: #bfbf00; stroke-width: 0.5"/>
    <path d="M 668.308959 117.36 
L 668.308959 218.16 
" clip-path="url(#p18f6bdb3d6)" style="fill: none; stroke: #bfbf00; stroke-width: 0.5"/>
    <path d="M 668.492849 117.36 
L 668.492849 218.16 
" clip-path="url(#p18f6bdb3d6)" style="fill: none; stroke: #bfbf00; stroke-width: 0.5"/>
    <path d="M 668.676738 117.36 
L 668.676738 218.16 
" clip-path="url(#p18f6bdb3d6)" style="fill: none; stroke: #bfbf00; stroke-width: 0.5"/>
    <path d="M 668.860628 117.36 
L 668.860628 218.16 
" clip-path="url(#p18f6bdb3d6)" style="fill: none; stroke: #bfbf00; stroke-width: 0.5"/>
    <path d="M 669.044518 117.36 
L 669.044518 218.16 
" clip-path="url(#p18f6bdb3d6)" style="fill: none; stroke: #bfbf00; stroke-width: 0.5"/>
    <path d="M 669.228407 117.36 
L 669.228407 218.16 
" clip-path="url(#p18f6bdb3d6)" style="fill: none; stroke: #bfbf00; stroke-width: 0.5"/>
    <path d="M 792.618361 117.36 
L 792.618361 218.16 
" clip-path="url(#p18f6bdb3d6)" style="fill: none; stroke: #bfbf00; stroke-width: 0.5"/>
    <path d="M 792.80225 117.36 
L 792.80225 218.16 
" clip-path="url(#p18f6bdb3d6)" style="fill: none; stroke: #bfbf00; stroke-width: 0.5"/>
    <path d="M 792.98614 117.36 
L 792.98614 218.16 
" clip-path="url(#p18f6bdb3d6)" style="fill: none; stroke: #bfbf00; stroke-width: 0.5"/>
    <path d="M 793.17003 117.36 
L 793.17003 218.16 
" clip-path="url(#p18f6bdb3d6)" style="fill: none; stroke: #bfbf00; stroke-width: 0.5"/>
    <path d="M 794.089478 117.36 
L 794.089478 218.16 
" clip-path="url(#p18f6bdb3d6)" style="fill: none; stroke: #bfbf00; stroke-width: 0.5"/>
    <path d="M 794.273368 117.36 
L 794.273368 218.16 
" clip-path="url(#p18f6bdb3d6)" style="fill: none; stroke: #bfbf00; stroke-width: 0.5"/>
    <path d="M 803.835629 117.36 
L 803.835629 218.16 
" clip-path="url(#p18f6bdb3d6)" style="fill: none; stroke: #bfbf00; stroke-width: 0.5"/>
    <path d="M 804.019519 117.36 
L 804.019519 218.16 
" clip-path="url(#p18f6bdb3d6)" style="fill: none; stroke: #bfbf00; stroke-width: 0.5"/>
    <path d="M 870.403682 117.36 
L 870.403682 218.16 
" clip-path="url(#p18f6bdb3d6)" style="fill: none; stroke: #bfbf00; stroke-width: 0.5"/>
    <path d="M 870.587571 117.36 
L 870.587571 218.16 
" clip-path="url(#p18f6bdb3d6)" style="fill: none; stroke: #bfbf00; stroke-width: 0.5"/>
    <path d="M 870.771461 117.36 
L 870.771461 218.16 
" clip-path="url(#p18f6bdb3d6)" style="fill: none; stroke: #bfbf00; stroke-width: 0.5"/>
    <path d="M 870.955351 117.36 
L 870.955351 218.16 
" clip-path="url(#p18f6bdb3d6)" style="fill: none; stroke: #bfbf00; stroke-width: 0.5"/>
    <path d="M 871.13924 117.36 
L 871.13924 218.16 
" clip-path="url(#p18f6bdb3d6)" style="fill: none; stroke: #bfbf00; stroke-width: 0.5"/>
    <path d="M 871.32313 117.36 
L 871.32313 218.16 
" clip-path="url(#p18f6bdb3d6)" style="fill: none; stroke: #bfbf00; stroke-width: 0.5"/>
    <path d="M 871.507019 117.36 
L 871.507019 218.16 
" clip-path="url(#p18f6bdb3d6)" style="fill: none; stroke: #bfbf00; stroke-width: 0.5"/>
    <path d="M 871.690909 117.36 
L 871.690909 218.16 
" clip-path="url(#p18f6bdb3d6)" style="fill: none; stroke: #bfbf00; stroke-width: 0.5"/>
   </g>
   <g id="patch_3">
    <path d="M 126 384.48 
L 126 51.84 
" style="fill: none; stroke: #000000; stroke-width: 0.8; stroke-linejoin: miter; stroke-linecap: square"/>
   </g>
   <g id="patch_4">
    <path d="M 126 384.48 
L 907.2 384.48 
" style="fill: none; stroke: #000000; stroke-width: 0.8; stroke-linejoin: miter; stroke-linecap: square"/>
   </g>
   <g id="text_9">
    <!-- Mouse: 39631; Paradigm: femaleurineleft_habituation; Date: 050822 -->
    <g transform="translate(309.748125 45.84) scale(0.12 -0.12)">
     <defs>
      <path id="DejaVuSans-4d" d="M 628 4666 
L 1569 4666 
L 2759 1491 
L 3956 4666 
L 4897 4666 
L 4897 0 
L 4281 0 
L 4281 4097 
L 3078 897 
L 2444 897 
L 1241 4097 
L 1241 0 
L 628 0 
L 628 4666 
z
" transform="scale(0.015625)"/>
      <path id="DejaVuSans-6f" d="M 1959 3097 
Q 1497 3097 1228 2736 
Q 959 2375 959 1747 
Q 959 1119 1226 758 
Q 1494 397 1959 397 
Q 2419 397 2687 759 
Q 2956 1122 2956 1747 
Q 2956 2369 2687 2733 
Q 2419 3097 1959 3097 
z
M 1959 3584 
Q 2709 3584 3137 3096 
Q 3566 2609 3566 1747 
Q 3566 888 3137 398 
Q 2709 -91 1959 -91 
Q 1206 -91 779 398 
Q 353 888 353 1747 
Q 353 2609 779 3096 
Q 1206 3584 1959 3584 
z
" transform="scale(0.015625)"/>
      <path id="DejaVuSans-75" d="M 544 1381 
L 544 3500 
L 1119 3500 
L 1119 1403 
Q 1119 906 1312 657 
Q 1506 409 1894 409 
Q 2359 409 2629 706 
Q 2900 1003 2900 1516 
L 2900 3500 
L 3475 3500 
L 3475 0 
L 2900 0 
L 2900 538 
Q 2691 219 2414 64 
Q 2138 -91 1772 -91 
Q 1169 -91 856 284 
Q 544 659 544 1381 
z
M 1991 3584 
L 1991 3584 
z
" transform="scale(0.015625)"/>
      <path id="DejaVuSans-3a" d="M 750 794 
L 1409 794 
L 1409 0 
L 750 0 
L 750 794 
z
M 750 3309 
L 1409 3309 
L 1409 2516 
L 750 2516 
L 750 3309 
z
" transform="scale(0.015625)"/>
      <path id="DejaVuSans-39" d="M 703 97 
L 703 672 
Q 941 559 1184 500 
Q 1428 441 1663 441 
Q 2288 441 2617 861 
Q 2947 1281 2994 2138 
Q 2813 1869 2534 1725 
Q 2256 1581 1919 1581 
Q 1219 1581 811 2004 
Q 403 2428 403 3163 
Q 403 3881 828 4315 
Q 1253 4750 1959 4750 
Q 2769 4750 3195 4129 
Q 3622 3509 3622 2328 
Q 3622 1225 3098 567 
Q 2575 -91 1691 -91 
Q 1453 -91 1209 -44 
Q 966 3 703 97 
z
M 1959 2075 
Q 2384 2075 2632 2365 
Q 2881 2656 2881 3163 
Q 2881 3666 2632 3958 
Q 2384 4250 1959 4250 
Q 1534 4250 1286 3958 
Q 1038 3666 1038 3163 
Q 1038 2656 1286 2365 
Q 1534 2075 1959 2075 
z
" transform="scale(0.015625)"/>
      <path id="DejaVuSans-36" d="M 2113 2584 
Q 1688 2584 1439 2293 
Q 1191 2003 1191 1497 
Q 1191 994 1439 701 
Q 1688 409 2113 409 
Q 2538 409 2786 701 
Q 3034 994 3034 1497 
Q 3034 2003 2786 2293 
Q 2538 2584 2113 2584 
z
M 3366 4563 
L 3366 3988 
Q 3128 4100 2886 4159 
Q 2644 4219 2406 4219 
Q 1781 4219 1451 3797 
Q 1122 3375 1075 2522 
Q 1259 2794 1537 2939 
Q 1816 3084 2150 3084 
Q 2853 3084 3261 2657 
Q 3669 2231 3669 1497 
Q 3669 778 3244 343 
Q 2819 -91 2113 -91 
Q 1303 -91 875 529 
Q 447 1150 447 2328 
Q 447 3434 972 4092 
Q 1497 4750 2381 4750 
Q 2619 4750 2861 4703 
Q 3103 4656 3366 4563 
z
" transform="scale(0.015625)"/>
      <path id="DejaVuSans-3b" d="M 750 3309 
L 1409 3309 
L 1409 2516 
L 750 2516 
L 750 3309 
z
M 750 794 
L 1409 794 
L 1409 256 
L 897 -744 
L 494 -744 
L 750 256 
L 750 794 
z
" transform="scale(0.015625)"/>
      <path id="DejaVuSans-50" d="M 1259 4147 
L 1259 2394 
L 2053 2394 
Q 2494 2394 2734 2622 
Q 2975 2850 2975 3272 
Q 2975 3691 2734 3919 
Q 2494 4147 2053 4147 
L 1259 4147 
z
M 628 4666 
L 2053 4666 
Q 2838 4666 3239 4311 
Q 3641 3956 3641 3272 
Q 3641 2581 3239 2228 
Q 2838 1875 2053 1875 
L 1259 1875 
L 1259 0 
L 628 0 
L 628 4666 
z
" transform="scale(0.015625)"/>
      <path id="DejaVuSans-61" d="M 2194 1759 
Q 1497 1759 1228 1600 
Q 959 1441 959 1056 
Q 959 750 1161 570 
Q 1363 391 1709 391 
Q 2188 391 2477 730 
Q 2766 1069 2766 1631 
L 2766 1759 
L 2194 1759 
z
M 3341 1997 
L 3341 0 
L 2766 0 
L 2766 531 
Q 2569 213 2275 61 
Q 1981 -91 1556 -91 
Q 1019 -91 701 211 
Q 384 513 384 1019 
Q 384 1609 779 1909 
Q 1175 2209 1959 2209 
L 2766 2209 
L 2766 2266 
Q 2766 2663 2505 2880 
Q 2244 3097 1772 3097 
Q 1472 3097 1187 3025 
Q 903 2953 641 2809 
L 641 3341 
Q 956 3463 1253 3523 
Q 1550 3584 1831 3584 
Q 2591 3584 2966 3190 
Q 3341 2797 3341 1997 
z
" transform="scale(0.015625)"/>
      <path id="DejaVuSans-5f" d="M 3263 -1063 
L 3263 -1509 
L -63 -1509 
L -63 -1063 
L 3263 -1063 
z
" transform="scale(0.015625)"/>
      <path id="DejaVuSans-62" d="M 3116 1747 
Q 3116 2381 2855 2742 
Q 2594 3103 2138 3103 
Q 1681 3103 1420 2742 
Q 1159 2381 1159 1747 
Q 1159 1113 1420 752 
Q 1681 391 2138 391 
Q 2594 391 2855 752 
Q 3116 1113 3116 1747 
z
M 1159 2969 
Q 1341 3281 1617 3432 
Q 1894 3584 2278 3584 
Q 2916 3584 3314 3078 
Q 3713 2572 3713 1747 
Q 3713 922 3314 415 
Q 2916 -91 2278 -91 
Q 1894 -91 1617 61 
Q 1341 213 1159 525 
L 1159 0 
L 581 0 
L 581 4863 
L 1159 4863 
L 1159 2969 
z
" transform="scale(0.015625)"/>
      <path id="DejaVuSans-44" d="M 1259 4147 
L 1259 519 
L 2022 519 
Q 2988 519 3436 956 
Q 3884 1394 3884 2338 
Q 3884 3275 3436 3711 
Q 2988 4147 2022 4147 
L 1259 4147 
z
M 628 4666 
L 1925 4666 
Q 3281 4666 3915 4102 
Q 4550 3538 4550 2338 
Q 4550 1131 3912 565 
Q 3275 0 1925 0 
L 628 0 
L 628 4666 
z
" transform="scale(0.015625)"/>
      <path id="DejaVuSans-35" d="M 691 4666 
L 3169 4666 
L 3169 4134 
L 1269 4134 
L 1269 2991 
Q 1406 3038 1543 3061 
Q 1681 3084 1819 3084 
Q 2600 3084 3056 2656 
Q 3513 2228 3513 1497 
Q 3513 744 3044 326 
Q 2575 -91 1722 -91 
Q 1428 -91 1123 -41 
Q 819 9 494 109 
L 494 744 
Q 775 591 1075 516 
Q 1375 441 1709 441 
Q 2250 441 2565 725 
Q 2881 1009 2881 1497 
Q 2881 1984 2565 2268 
Q 2250 2553 1709 2553 
Q 1456 2553 1204 2497 
Q 953 2441 691 2322 
L 691 4666 
z
" transform="scale(0.015625)"/>
      <path id="DejaVuSans-38" d="M 2034 2216 
Q 1584 2216 1326 1975 
Q 1069 1734 1069 1313 
Q 1069 891 1326 650 
Q 1584 409 2034 409 
Q 2484 409 2743 651 
Q 3003 894 3003 1313 
Q 3003 1734 2745 1975 
Q 2488 2216 2034 2216 
z
M 1403 2484 
Q 997 2584 770 2862 
Q 544 3141 544 3541 
Q 544 4100 942 4425 
Q 1341 4750 2034 4750 
Q 2731 4750 3128 4425 
Q 3525 4100 3525 3541 
Q 3525 3141 3298 2862 
Q 3072 2584 2669 2484 
Q 3125 2378 3379 2068 
Q 3634 1759 3634 1313 
Q 3634 634 3220 271 
Q 2806 -91 2034 -91 
Q 1263 -91 848 271 
Q 434 634 434 1313 
Q 434 1759 690 2068 
Q 947 2378 1403 2484 
z
M 1172 3481 
Q 1172 3119 1398 2916 
Q 1625 2713 2034 2713 
Q 2441 2713 2670 2916 
Q 2900 3119 2900 3481 
Q 2900 3844 2670 4047 
Q 2441 4250 2034 4250 
Q 1625 4250 1398 4047 
Q 1172 3844 1172 3481 
z
" transform="scale(0.015625)"/>
     </defs>
     <use xlink:href="#DejaVuSans-4d"/>
     <use xlink:href="#DejaVuSans-6f" x="86.279297"/>
     <use xlink:href="#DejaVuSans-75" x="147.460938"/>
     <use xlink:href="#DejaVuSans-73" x="210.839844"/>
     <use xlink:href="#DejaVuSans-65" x="262.939453"/>
     <use xlink:href="#DejaVuSans-3a" x="324.462891"/>
     <use xlink:href="#DejaVuSans-20" x="358.154297"/>
     <use xlink:href="#DejaVuSans-33" x="389.941406"/>
     <use xlink:href="#DejaVuSans-39" x="453.564453"/>
     <use xlink:href="#DejaVuSans-36" x="517.1875"/>
     <use xlink:href="#DejaVuSans-33" x="580.810547"/>
     <use xlink:href="#DejaVuSans-31" x="644.433594"/>
     <use xlink:href="#DejaVuSans-3b" x="708.056641"/>
     <use xlink:href="#DejaVuSans-20" x="741.748047"/>
     <use xlink:href="#DejaVuSans-50" x="773.535156"/>
     <use xlink:href="#DejaVuSans-61" x="829.337891"/>
     <use xlink:href="#DejaVuSans-72" x="890.617188"/>
     <use xlink:href="#DejaVuSans-61" x="931.730469"/>
     <use xlink:href="#DejaVuSans-64" x="993.009766"/>
     <use xlink:href="#DejaVuSans-69" x="1056.486328"/>
     <use xlink:href="#DejaVuSans-67" x="1084.269531"/>
     <use xlink:href="#DejaVuSans-6d" x="1147.746094"/>
     <use xlink:href="#DejaVuSans-3a" x="1245.158203"/>
     <use xlink:href="#DejaVuSans-20" x="1278.849609"/>
     <use xlink:href="#DejaVuSans-66" x="1310.636719"/>
     <use xlink:href="#DejaVuSans-65" x="1345.841797"/>
     <use xlink:href="#DejaVuSans-6d" x="1407.365234"/>
     <use xlink:href="#DejaVuSans-61" x="1504.777344"/>
     <use xlink:href="#DejaVuSans-6c" x="1566.056641"/>
     <use xlink:href="#DejaVuSans-65" x="1593.839844"/>
     <use xlink:href="#DejaVuSans-75" x="1655.363281"/>
     <use xlink:href="#DejaVuSans-72" x="1718.742188"/>
     <use xlink:href="#DejaVuSans-69" x="1759.855469"/>
     <use xlink:href="#DejaVuSans-6e" x="1787.638672"/>
     <use xlink:href="#DejaVuSans-65" x="1851.017578"/>
     <use xlink:href="#DejaVuSans-6c" x="1912.541016"/>
     <use xlink:href="#DejaVuSans-65" x="1940.324219"/>
     <use xlink:href="#DejaVuSans-66" x="2001.847656"/>
     <use xlink:href="#DejaVuSans-74" x="2035.302734"/>
     <use xlink:href="#DejaVuSans-5f" x="2074.511719"/>
     <use xlink:href="#DejaVuSans-68" x="2124.511719"/>
     <use xlink:href="#DejaVuSans-61" x="2187.890625"/>
     <use xlink:href="#DejaVuSans-62" x="2249.169922"/>
     <use xlink:href="#DejaVuSans-69" x="2312.646484"/>
     <use xlink:href="#DejaVuSans-74" x="2340.429688"/>
     <use xlink:href="#DejaVuSans-75" x="2379.638672"/>
     <use xlink:href="#DejaVuSans-61" x="2443.017578"/>
     <use xlink:href="#DejaVuSans-74" x="2504.296875"/>
     <use xlink:href="#DejaVuSans-69" x="2543.505859"/>
     <use xlink:href="#DejaVuSans-6f" x="2571.289062"/>
     <use xlink:href="#DejaVuSans-6e" x="2632.470703"/>
     <use xlink:href="#DejaVuSans-3b" x="2695.849609"/>
     <use xlink:href="#DejaVuSans-20" x="2729.541016"/>
     <use xlink:href="#DejaVuSans-44" x="2761.328125"/>
     <use xlink:href="#DejaVuSans-61" x="2838.330078"/>
     <use xlink:href="#DejaVuSans-74" x="2899.609375"/>
     <use xlink:href="#DejaVuSans-65" x="2938.818359"/>
     <use xlink:href="#DejaVuSans-3a" x="3000.341797"/>
     <use xlink:href="#DejaVuSans-20" x="3034.033203"/>
     <use xlink:href="#DejaVuSans-30" x="3065.820312"/>
     <use xlink:href="#DejaVuSans-35" x="3129.443359"/>
     <use xlink:href="#DejaVuSans-30" x="3193.066406"/>
     <use xlink:href="#DejaVuSans-38" x="3256.689453"/>
     <use xlink:href="#DejaVuSans-32" x="3320.3125"/>
     <use xlink:href="#DejaVuSans-32" x="3383.935547"/>
    </g>
   </g>
  </g>
 </g>
 <defs>
  <clipPath id="p18f6bdb3d6">
   <rect x="126" y="51.84" width="781.2" height="332.64"/>
  </clipPath>
 </defs>
</svg>
