<?xml version="1.0" encoding="utf-8" standalone="no"?>
<!DOCTYPE svg PUBLIC "-//W3C//DTD SVG 1.1//EN"
  "http://www.w3.org/Graphics/SVG/1.1/DTD/svg11.dtd">
<svg xmlns:xlink="http://www.w3.org/1999/xlink" width="1008pt" height="432pt" viewBox="0 0 1008 432" xmlns="http://www.w3.org/2000/svg" version="1.1">
 <metadata>
  <rdf:RDF xmlns:dc="http://purl.org/dc/elements/1.1/" xmlns:cc="http://creativecommons.org/ns#" xmlns:rdf="http://www.w3.org/1999/02/22-rdf-syntax-ns#">
   <cc:Work>
    <dc:type rdf:resource="http://purl.org/dc/dcmitype/StillImage"/>
    <dc:date>2024-05-13T00:06:08.250145</dc:date>
    <dc:format>image/svg+xml</dc:format>
    <dc:creator>
     <cc:Agent>
      <dc:title>Matplotlib v3.8.3, https://matplotlib.org/</dc:title>
     </cc:Agent>
    </dc:creator>
   </cc:Work>
  </rdf:RDF>
 </metadata>
 <defs>
  <style type="text/css">*{stroke-linejoin: round; stroke-linecap: butt}</style>
 </defs>
 <g id="figure_1">
  <g id="patch_1">
   <path d="M 0 432 
L 1008 432 
L 1008 0 
L 0 0 
z
" style="fill: #ffffff"/>
  </g>
  <g id="axes_1">
   <g id="patch_2">
    <path d="M 126 384.48 
L 907.2 384.48 
L 907.2 51.84 
L 126 51.84 
z
"/>
   </g>
   <g id="matplotlib.axis_1">
    <g id="xtick_1">
     <g id="line2d_1">
      <defs>
       <path id="ma126291645" d="M 0 0 
L 0 3.5 
" style="stroke: #000000; stroke-width: 0.8"/>
      </defs>
      <g>
       <use xlink:href="#ma126291645" x="207.931303" y="384.48" style="stroke: #000000; stroke-width: 0.8"/>
      </g>
     </g>
     <g id="text_1">
      <!-- 0.5 -->
      <g transform="translate(199.97974 399.078438) scale(0.1 -0.1)">
       <defs>
        <path id="DejaVuSans-30" d="M 2034 4250 
Q 1547 4250 1301 3770 
Q 1056 3291 1056 2328 
Q 1056 1369 1301 889 
Q 1547 409 2034 409 
Q 2525 409 2770 889 
Q 3016 1369 3016 2328 
Q 3016 3291 2770 3770 
Q 2525 4250 2034 4250 
z
M 2034 4750 
Q 2819 4750 3233 4129 
Q 3647 3509 3647 2328 
Q 3647 1150 3233 529 
Q 2819 -91 2034 -91 
Q 1250 -91 836 529 
Q 422 1150 422 2328 
Q 422 3509 836 4129 
Q 1250 4750 2034 4750 
z
" transform="scale(0.015625)"/>
        <path id="DejaVuSans-2e" d="M 684 794 
L 1344 794 
L 1344 0 
L 684 0 
L 684 794 
z
" transform="scale(0.015625)"/>
        <path id="DejaVuSans-35" d="M 691 4666 
L 3169 4666 
L 3169 4134 
L 1269 4134 
L 1269 2991 
Q 1406 3038 1543 3061 
Q 1681 3084 1819 3084 
Q 2600 3084 3056 2656 
Q 3513 2228 3513 1497 
Q 3513 744 3044 326 
Q 2575 -91 1722 -91 
Q 1428 -91 1123 -41 
Q 819 9 494 109 
L 494 744 
Q 775 591 1075 516 
Q 1375 441 1709 441 
Q 2250 441 2565 725 
Q 2881 1009 2881 1497 
Q 2881 1984 2565 2268 
Q 2250 2553 1709 2553 
Q 1456 2553 1204 2497 
Q 953 2441 691 2322 
L 691 4666 
z
" transform="scale(0.015625)"/>
       </defs>
       <use xlink:href="#DejaVuSans-30"/>
       <use xlink:href="#DejaVuSans-2e" x="63.623047"/>
       <use xlink:href="#DejaVuSans-35" x="95.410156"/>
      </g>
     </g>
    </g>
    <g id="xtick_2">
     <g id="line2d_2">
      <g>
       <use xlink:href="#ma126291645" x="295.704392" y="384.48" style="stroke: #000000; stroke-width: 0.8"/>
      </g>
     </g>
     <g id="text_2">
      <!-- 1.0 -->
      <g transform="translate(287.752829 399.078438) scale(0.1 -0.1)">
       <defs>
        <path id="DejaVuSans-31" d="M 794 531 
L 1825 531 
L 1825 4091 
L 703 3866 
L 703 4441 
L 1819 4666 
L 2450 4666 
L 2450 531 
L 3481 531 
L 3481 0 
L 794 0 
L 794 531 
z
" transform="scale(0.015625)"/>
       </defs>
       <use xlink:href="#DejaVuSans-31"/>
       <use xlink:href="#DejaVuSans-2e" x="63.623047"/>
       <use xlink:href="#DejaVuSans-30" x="95.410156"/>
      </g>
     </g>
    </g>
    <g id="xtick_3">
     <g id="line2d_3">
      <g>
       <use xlink:href="#ma126291645" x="383.477481" y="384.48" style="stroke: #000000; stroke-width: 0.8"/>
      </g>
     </g>
     <g id="text_3">
      <!-- 1.5 -->
      <g transform="translate(375.525919 399.078438) scale(0.1 -0.1)">
       <use xlink:href="#DejaVuSans-31"/>
       <use xlink:href="#DejaVuSans-2e" x="63.623047"/>
       <use xlink:href="#DejaVuSans-35" x="95.410156"/>
      </g>
     </g>
    </g>
    <g id="xtick_4">
     <g id="line2d_4">
      <g>
       <use xlink:href="#ma126291645" x="471.250571" y="384.48" style="stroke: #000000; stroke-width: 0.8"/>
      </g>
     </g>
     <g id="text_4">
      <!-- 2.0 -->
      <g transform="translate(463.299008 399.078438) scale(0.1 -0.1)">
       <defs>
        <path id="DejaVuSans-32" d="M 1228 531 
L 3431 531 
L 3431 0 
L 469 0 
L 469 531 
Q 828 903 1448 1529 
Q 2069 2156 2228 2338 
Q 2531 2678 2651 2914 
Q 2772 3150 2772 3378 
Q 2772 3750 2511 3984 
Q 2250 4219 1831 4219 
Q 1534 4219 1204 4116 
Q 875 4013 500 3803 
L 500 4441 
Q 881 4594 1212 4672 
Q 1544 4750 1819 4750 
Q 2544 4750 2975 4387 
Q 3406 4025 3406 3419 
Q 3406 3131 3298 2873 
Q 3191 2616 2906 2266 
Q 2828 2175 2409 1742 
Q 1991 1309 1228 531 
z
" transform="scale(0.015625)"/>
       </defs>
       <use xlink:href="#DejaVuSans-32"/>
       <use xlink:href="#DejaVuSans-2e" x="63.623047"/>
       <use xlink:href="#DejaVuSans-30" x="95.410156"/>
      </g>
     </g>
    </g>
    <g id="xtick_5">
     <g id="line2d_5">
      <g>
       <use xlink:href="#ma126291645" x="559.02366" y="384.48" style="stroke: #000000; stroke-width: 0.8"/>
      </g>
     </g>
     <g id="text_5">
      <!-- 2.5 -->
      <g transform="translate(551.072097 399.078438) scale(0.1 -0.1)">
       <use xlink:href="#DejaVuSans-32"/>
       <use xlink:href="#DejaVuSans-2e" x="63.623047"/>
       <use xlink:href="#DejaVuSans-35" x="95.410156"/>
      </g>
     </g>
    </g>
    <g id="xtick_6">
     <g id="line2d_6">
      <g>
       <use xlink:href="#ma126291645" x="646.796749" y="384.48" style="stroke: #000000; stroke-width: 0.8"/>
      </g>
     </g>
     <g id="text_6">
      <!-- 3.0 -->
      <g transform="translate(638.845187 399.078438) scale(0.1 -0.1)">
       <defs>
        <path id="DejaVuSans-33" d="M 2597 2516 
Q 3050 2419 3304 2112 
Q 3559 1806 3559 1356 
Q 3559 666 3084 287 
Q 2609 -91 1734 -91 
Q 1441 -91 1130 -33 
Q 819 25 488 141 
L 488 750 
Q 750 597 1062 519 
Q 1375 441 1716 441 
Q 2309 441 2620 675 
Q 2931 909 2931 1356 
Q 2931 1769 2642 2001 
Q 2353 2234 1838 2234 
L 1294 2234 
L 1294 2753 
L 1863 2753 
Q 2328 2753 2575 2939 
Q 2822 3125 2822 3475 
Q 2822 3834 2567 4026 
Q 2313 4219 1838 4219 
Q 1578 4219 1281 4162 
Q 984 4106 628 3988 
L 628 4550 
Q 988 4650 1302 4700 
Q 1616 4750 1894 4750 
Q 2613 4750 3031 4423 
Q 3450 4097 3450 3541 
Q 3450 3153 3228 2886 
Q 3006 2619 2597 2516 
z
" transform="scale(0.015625)"/>
       </defs>
       <use xlink:href="#DejaVuSans-33"/>
       <use xlink:href="#DejaVuSans-2e" x="63.623047"/>
       <use xlink:href="#DejaVuSans-30" x="95.410156"/>
      </g>
     </g>
    </g>
    <g id="xtick_7">
     <g id="line2d_7">
      <g>
       <use xlink:href="#ma126291645" x="734.569838" y="384.48" style="stroke: #000000; stroke-width: 0.8"/>
      </g>
     </g>
     <g id="text_7">
      <!-- 3.5 -->
      <g transform="translate(726.618276 399.078438) scale(0.1 -0.1)">
       <use xlink:href="#DejaVuSans-33"/>
       <use xlink:href="#DejaVuSans-2e" x="63.623047"/>
       <use xlink:href="#DejaVuSans-35" x="95.410156"/>
      </g>
     </g>
    </g>
    <g id="xtick_8">
     <g id="line2d_8">
      <g>
       <use xlink:href="#ma126291645" x="822.342928" y="384.48" style="stroke: #000000; stroke-width: 0.8"/>
      </g>
     </g>
     <g id="text_8">
      <!-- 4.0 -->
      <g transform="translate(814.391365 399.078438) scale(0.1 -0.1)">
       <defs>
        <path id="DejaVuSans-34" d="M 2419 4116 
L 825 1625 
L 2419 1625 
L 2419 4116 
z
M 2253 4666 
L 3047 4666 
L 3047 1625 
L 3713 1625 
L 3713 1100 
L 3047 1100 
L 3047 0 
L 2419 0 
L 2419 1100 
L 313 1100 
L 313 1709 
L 2253 4666 
z
" transform="scale(0.015625)"/>
       </defs>
       <use xlink:href="#DejaVuSans-34"/>
       <use xlink:href="#DejaVuSans-2e" x="63.623047"/>
       <use xlink:href="#DejaVuSans-30" x="95.410156"/>
      </g>
     </g>
    </g>
    <g id="text_9">
     <!-- Experiment length [min] -->
     <g transform="translate(455.264844 412.756563) scale(0.1 -0.1)">
      <defs>
       <path id="DejaVuSans-45" d="M 628 4666 
L 3578 4666 
L 3578 4134 
L 1259 4134 
L 1259 2753 
L 3481 2753 
L 3481 2222 
L 1259 2222 
L 1259 531 
L 3634 531 
L 3634 0 
L 628 0 
L 628 4666 
z
" transform="scale(0.015625)"/>
       <path id="DejaVuSans-78" d="M 3513 3500 
L 2247 1797 
L 3578 0 
L 2900 0 
L 1881 1375 
L 863 0 
L 184 0 
L 1544 1831 
L 300 3500 
L 978 3500 
L 1906 2253 
L 2834 3500 
L 3513 3500 
z
" transform="scale(0.015625)"/>
       <path id="DejaVuSans-70" d="M 1159 525 
L 1159 -1331 
L 581 -1331 
L 581 3500 
L 1159 3500 
L 1159 2969 
Q 1341 3281 1617 3432 
Q 1894 3584 2278 3584 
Q 2916 3584 3314 3078 
Q 3713 2572 3713 1747 
Q 3713 922 3314 415 
Q 2916 -91 2278 -91 
Q 1894 -91 1617 61 
Q 1341 213 1159 525 
z
M 3116 1747 
Q 3116 2381 2855 2742 
Q 2594 3103 2138 3103 
Q 1681 3103 1420 2742 
Q 1159 2381 1159 1747 
Q 1159 1113 1420 752 
Q 1681 391 2138 391 
Q 2594 391 2855 752 
Q 3116 1113 3116 1747 
z
" transform="scale(0.015625)"/>
       <path id="DejaVuSans-65" d="M 3597 1894 
L 3597 1613 
L 953 1613 
Q 991 1019 1311 708 
Q 1631 397 2203 397 
Q 2534 397 2845 478 
Q 3156 559 3463 722 
L 3463 178 
Q 3153 47 2828 -22 
Q 2503 -91 2169 -91 
Q 1331 -91 842 396 
Q 353 884 353 1716 
Q 353 2575 817 3079 
Q 1281 3584 2069 3584 
Q 2775 3584 3186 3129 
Q 3597 2675 3597 1894 
z
M 3022 2063 
Q 3016 2534 2758 2815 
Q 2500 3097 2075 3097 
Q 1594 3097 1305 2825 
Q 1016 2553 972 2059 
L 3022 2063 
z
" transform="scale(0.015625)"/>
       <path id="DejaVuSans-72" d="M 2631 2963 
Q 2534 3019 2420 3045 
Q 2306 3072 2169 3072 
Q 1681 3072 1420 2755 
Q 1159 2438 1159 1844 
L 1159 0 
L 581 0 
L 581 3500 
L 1159 3500 
L 1159 2956 
Q 1341 3275 1631 3429 
Q 1922 3584 2338 3584 
Q 2397 3584 2469 3576 
Q 2541 3569 2628 3553 
L 2631 2963 
z
" transform="scale(0.015625)"/>
       <path id="DejaVuSans-69" d="M 603 3500 
L 1178 3500 
L 1178 0 
L 603 0 
L 603 3500 
z
M 603 4863 
L 1178 4863 
L 1178 4134 
L 603 4134 
L 603 4863 
z
" transform="scale(0.015625)"/>
       <path id="DejaVuSans-6d" d="M 3328 2828 
Q 3544 3216 3844 3400 
Q 4144 3584 4550 3584 
Q 5097 3584 5394 3201 
Q 5691 2819 5691 2113 
L 5691 0 
L 5113 0 
L 5113 2094 
Q 5113 2597 4934 2840 
Q 4756 3084 4391 3084 
Q 3944 3084 3684 2787 
Q 3425 2491 3425 1978 
L 3425 0 
L 2847 0 
L 2847 2094 
Q 2847 2600 2669 2842 
Q 2491 3084 2119 3084 
Q 1678 3084 1418 2786 
Q 1159 2488 1159 1978 
L 1159 0 
L 581 0 
L 581 3500 
L 1159 3500 
L 1159 2956 
Q 1356 3278 1631 3431 
Q 1906 3584 2284 3584 
Q 2666 3584 2933 3390 
Q 3200 3197 3328 2828 
z
" transform="scale(0.015625)"/>
       <path id="DejaVuSans-6e" d="M 3513 2113 
L 3513 0 
L 2938 0 
L 2938 2094 
Q 2938 2591 2744 2837 
Q 2550 3084 2163 3084 
Q 1697 3084 1428 2787 
Q 1159 2491 1159 1978 
L 1159 0 
L 581 0 
L 581 3500 
L 1159 3500 
L 1159 2956 
Q 1366 3272 1645 3428 
Q 1925 3584 2291 3584 
Q 2894 3584 3203 3211 
Q 3513 2838 3513 2113 
z
" transform="scale(0.015625)"/>
       <path id="DejaVuSans-74" d="M 1172 4494 
L 1172 3500 
L 2356 3500 
L 2356 3053 
L 1172 3053 
L 1172 1153 
Q 1172 725 1289 603 
Q 1406 481 1766 481 
L 2356 481 
L 2356 0 
L 1766 0 
Q 1100 0 847 248 
Q 594 497 594 1153 
L 594 3053 
L 172 3053 
L 172 3500 
L 594 3500 
L 594 4494 
L 1172 4494 
z
" transform="scale(0.015625)"/>
       <path id="DejaVuSans-20" transform="scale(0.015625)"/>
       <path id="DejaVuSans-6c" d="M 603 4863 
L 1178 4863 
L 1178 0 
L 603 0 
L 603 4863 
z
" transform="scale(0.015625)"/>
       <path id="DejaVuSans-67" d="M 2906 1791 
Q 2906 2416 2648 2759 
Q 2391 3103 1925 3103 
Q 1463 3103 1205 2759 
Q 947 2416 947 1791 
Q 947 1169 1205 825 
Q 1463 481 1925 481 
Q 2391 481 2648 825 
Q 2906 1169 2906 1791 
z
M 3481 434 
Q 3481 -459 3084 -895 
Q 2688 -1331 1869 -1331 
Q 1566 -1331 1297 -1286 
Q 1028 -1241 775 -1147 
L 775 -588 
Q 1028 -725 1275 -790 
Q 1522 -856 1778 -856 
Q 2344 -856 2625 -561 
Q 2906 -266 2906 331 
L 2906 616 
Q 2728 306 2450 153 
Q 2172 0 1784 0 
Q 1141 0 747 490 
Q 353 981 353 1791 
Q 353 2603 747 3093 
Q 1141 3584 1784 3584 
Q 2172 3584 2450 3431 
Q 2728 3278 2906 2969 
L 2906 3500 
L 3481 3500 
L 3481 434 
z
" transform="scale(0.015625)"/>
       <path id="DejaVuSans-68" d="M 3513 2113 
L 3513 0 
L 2938 0 
L 2938 2094 
Q 2938 2591 2744 2837 
Q 2550 3084 2163 3084 
Q 1697 3084 1428 2787 
Q 1159 2491 1159 1978 
L 1159 0 
L 581 0 
L 581 4863 
L 1159 4863 
L 1159 2956 
Q 1366 3272 1645 3428 
Q 1925 3584 2291 3584 
Q 2894 3584 3203 3211 
Q 3513 2838 3513 2113 
z
" transform="scale(0.015625)"/>
       <path id="DejaVuSans-5b" d="M 550 4863 
L 1875 4863 
L 1875 4416 
L 1125 4416 
L 1125 -397 
L 1875 -397 
L 1875 -844 
L 550 -844 
L 550 4863 
z
" transform="scale(0.015625)"/>
       <path id="DejaVuSans-5d" d="M 1947 4863 
L 1947 -844 
L 622 -844 
L 622 -397 
L 1369 -397 
L 1369 4416 
L 622 4416 
L 622 4863 
L 1947 4863 
z
" transform="scale(0.015625)"/>
      </defs>
      <use xlink:href="#DejaVuSans-45"/>
      <use xlink:href="#DejaVuSans-78" x="63.183594"/>
      <use xlink:href="#DejaVuSans-70" x="122.363281"/>
      <use xlink:href="#DejaVuSans-65" x="185.839844"/>
      <use xlink:href="#DejaVuSans-72" x="247.363281"/>
      <use xlink:href="#DejaVuSans-69" x="288.476562"/>
      <use xlink:href="#DejaVuSans-6d" x="316.259766"/>
      <use xlink:href="#DejaVuSans-65" x="413.671875"/>
      <use xlink:href="#DejaVuSans-6e" x="475.195312"/>
      <use xlink:href="#DejaVuSans-74" x="538.574219"/>
      <use xlink:href="#DejaVuSans-20" x="577.783203"/>
      <use xlink:href="#DejaVuSans-6c" x="609.570312"/>
      <use xlink:href="#DejaVuSans-65" x="637.353516"/>
      <use xlink:href="#DejaVuSans-6e" x="698.876953"/>
      <use xlink:href="#DejaVuSans-67" x="762.255859"/>
      <use xlink:href="#DejaVuSans-74" x="825.732422"/>
      <use xlink:href="#DejaVuSans-68" x="864.941406"/>
      <use xlink:href="#DejaVuSans-20" x="928.320312"/>
      <use xlink:href="#DejaVuSans-5b" x="960.107422"/>
      <use xlink:href="#DejaVuSans-6d" x="999.121094"/>
      <use xlink:href="#DejaVuSans-69" x="1096.533203"/>
      <use xlink:href="#DejaVuSans-6e" x="1124.316406"/>
      <use xlink:href="#DejaVuSans-5d" x="1187.695312"/>
     </g>
    </g>
   </g>
   <g id="matplotlib.axis_2">
    <g id="ytick_1">
     <g id="line2d_9">
      <defs>
       <path id="mdef03e4d37" d="M 0 0 
L -3.5 0 
" style="stroke: #000000; stroke-width: 0.8"/>
      </defs>
      <g>
       <use xlink:href="#mdef03e4d37" x="126" y="268.56" style="stroke: #000000; stroke-width: 0.8"/>
      </g>
     </g>
     <g id="text_10">
      <!-- deg sniff left dish -->
      <g transform="translate(32.379687 272.359219) scale(0.1 -0.1)">
       <defs>
        <path id="DejaVuSans-64" d="M 2906 2969 
L 2906 4863 
L 3481 4863 
L 3481 0 
L 2906 0 
L 2906 525 
Q 2725 213 2448 61 
Q 2172 -91 1784 -91 
Q 1150 -91 751 415 
Q 353 922 353 1747 
Q 353 2572 751 3078 
Q 1150 3584 1784 3584 
Q 2172 3584 2448 3432 
Q 2725 3281 2906 2969 
z
M 947 1747 
Q 947 1113 1208 752 
Q 1469 391 1925 391 
Q 2381 391 2643 752 
Q 2906 1113 2906 1747 
Q 2906 2381 2643 2742 
Q 2381 3103 1925 3103 
Q 1469 3103 1208 2742 
Q 947 2381 947 1747 
z
" transform="scale(0.015625)"/>
        <path id="DejaVuSans-73" d="M 2834 3397 
L 2834 2853 
Q 2591 2978 2328 3040 
Q 2066 3103 1784 3103 
Q 1356 3103 1142 2972 
Q 928 2841 928 2578 
Q 928 2378 1081 2264 
Q 1234 2150 1697 2047 
L 1894 2003 
Q 2506 1872 2764 1633 
Q 3022 1394 3022 966 
Q 3022 478 2636 193 
Q 2250 -91 1575 -91 
Q 1294 -91 989 -36 
Q 684 19 347 128 
L 347 722 
Q 666 556 975 473 
Q 1284 391 1588 391 
Q 1994 391 2212 530 
Q 2431 669 2431 922 
Q 2431 1156 2273 1281 
Q 2116 1406 1581 1522 
L 1381 1569 
Q 847 1681 609 1914 
Q 372 2147 372 2553 
Q 372 3047 722 3315 
Q 1072 3584 1716 3584 
Q 2034 3584 2315 3537 
Q 2597 3491 2834 3397 
z
" transform="scale(0.015625)"/>
        <path id="DejaVuSans-66" d="M 2375 4863 
L 2375 4384 
L 1825 4384 
Q 1516 4384 1395 4259 
Q 1275 4134 1275 3809 
L 1275 3500 
L 2222 3500 
L 2222 3053 
L 1275 3053 
L 1275 0 
L 697 0 
L 697 3053 
L 147 3053 
L 147 3500 
L 697 3500 
L 697 3744 
Q 697 4328 969 4595 
Q 1241 4863 1831 4863 
L 2375 4863 
z
" transform="scale(0.015625)"/>
       </defs>
       <use xlink:href="#DejaVuSans-64"/>
       <use xlink:href="#DejaVuSans-65" x="63.476562"/>
       <use xlink:href="#DejaVuSans-67" x="125"/>
       <use xlink:href="#DejaVuSans-20" x="188.476562"/>
       <use xlink:href="#DejaVuSans-73" x="220.263672"/>
       <use xlink:href="#DejaVuSans-6e" x="272.363281"/>
       <use xlink:href="#DejaVuSans-69" x="335.742188"/>
       <use xlink:href="#DejaVuSans-66" x="363.525391"/>
       <use xlink:href="#DejaVuSans-66" x="398.730469"/>
       <use xlink:href="#DejaVuSans-20" x="433.935547"/>
       <use xlink:href="#DejaVuSans-6c" x="465.722656"/>
       <use xlink:href="#DejaVuSans-65" x="493.505859"/>
       <use xlink:href="#DejaVuSans-66" x="555.029297"/>
       <use xlink:href="#DejaVuSans-74" x="588.484375"/>
       <use xlink:href="#DejaVuSans-20" x="627.693359"/>
       <use xlink:href="#DejaVuSans-64" x="659.480469"/>
       <use xlink:href="#DejaVuSans-69" x="722.957031"/>
       <use xlink:href="#DejaVuSans-73" x="750.740234"/>
       <use xlink:href="#DejaVuSans-68" x="802.839844"/>
      </g>
     </g>
    </g>
    <g id="ytick_2">
     <g id="line2d_10">
      <g>
       <use xlink:href="#mdef03e4d37" x="126" y="167.76" style="stroke: #000000; stroke-width: 0.8"/>
      </g>
     </g>
     <g id="text_11">
      <!-- def sniff right dish -->
      <g transform="translate(27.909375 171.559219) scale(0.1 -0.1)">
       <use xlink:href="#DejaVuSans-64"/>
       <use xlink:href="#DejaVuSans-65" x="63.476562"/>
       <use xlink:href="#DejaVuSans-66" x="125"/>
       <use xlink:href="#DejaVuSans-20" x="160.205078"/>
       <use xlink:href="#DejaVuSans-73" x="191.992188"/>
       <use xlink:href="#DejaVuSans-6e" x="244.091797"/>
       <use xlink:href="#DejaVuSans-69" x="307.470703"/>
       <use xlink:href="#DejaVuSans-66" x="335.253906"/>
       <use xlink:href="#DejaVuSans-66" x="370.458984"/>
       <use xlink:href="#DejaVuSans-20" x="405.664062"/>
       <use xlink:href="#DejaVuSans-72" x="437.451172"/>
       <use xlink:href="#DejaVuSans-69" x="478.564453"/>
       <use xlink:href="#DejaVuSans-67" x="506.347656"/>
       <use xlink:href="#DejaVuSans-68" x="569.824219"/>
       <use xlink:href="#DejaVuSans-74" x="633.203125"/>
       <use xlink:href="#DejaVuSans-20" x="672.412109"/>
       <use xlink:href="#DejaVuSans-64" x="704.199219"/>
       <use xlink:href="#DejaVuSans-69" x="767.675781"/>
       <use xlink:href="#DejaVuSans-73" x="795.458984"/>
       <use xlink:href="#DejaVuSans-68" x="847.558594"/>
      </g>
     </g>
    </g>
   </g>
   <g id="EventCollection_1">
    <path d="M 185.890505 218.16 
L 185.890505 318.96 
" clip-path="url(#p0a097f7bc3)" style="fill: none; stroke: #bf00bf; stroke-width: 0.5"/>
    <path d="M 190.961839 218.16 
L 190.961839 318.96 
" clip-path="url(#p0a097f7bc3)" style="fill: none; stroke: #bf00bf; stroke-width: 0.5"/>
    <path d="M 191.15689 218.16 
L 191.15689 318.96 
" clip-path="url(#p0a097f7bc3)" style="fill: none; stroke: #bf00bf; stroke-width: 0.5"/>
    <path d="M 237.38405 218.16 
L 237.38405 318.96 
" clip-path="url(#p0a097f7bc3)" style="fill: none; stroke: #bf00bf; stroke-width: 0.5"/>
    <path d="M 237.579102 218.16 
L 237.579102 318.96 
" clip-path="url(#p0a097f7bc3)" style="fill: none; stroke: #bf00bf; stroke-width: 0.5"/>
    <path d="M 237.774153 218.16 
L 237.774153 318.96 
" clip-path="url(#p0a097f7bc3)" style="fill: none; stroke: #bf00bf; stroke-width: 0.5"/>
    <path d="M 238.164256 218.16 
L 238.164256 318.96 
" clip-path="url(#p0a097f7bc3)" style="fill: none; stroke: #bf00bf; stroke-width: 0.5"/>
    <path d="M 296.679648 218.16 
L 296.679648 318.96 
" clip-path="url(#p0a097f7bc3)" style="fill: none; stroke: #bf00bf; stroke-width: 0.5"/>
    <path d="M 296.8747 218.16 
L 296.8747 318.96 
" clip-path="url(#p0a097f7bc3)" style="fill: none; stroke: #bf00bf; stroke-width: 0.5"/>
    <path d="M 362.802042 218.16 
L 362.802042 318.96 
" clip-path="url(#p0a097f7bc3)" style="fill: none; stroke: #bf00bf; stroke-width: 0.5"/>
    <path d="M 362.997094 218.16 
L 362.997094 318.96 
" clip-path="url(#p0a097f7bc3)" style="fill: none; stroke: #bf00bf; stroke-width: 0.5"/>
    <path d="M 363.192145 218.16 
L 363.192145 318.96 
" clip-path="url(#p0a097f7bc3)" style="fill: none; stroke: #bf00bf; stroke-width: 0.5"/>
    <path d="M 376.260583 218.16 
L 376.260583 318.96 
" clip-path="url(#p0a097f7bc3)" style="fill: none; stroke: #bf00bf; stroke-width: 0.5"/>
    <path d="M 376.455634 218.16 
L 376.455634 318.96 
" clip-path="url(#p0a097f7bc3)" style="fill: none; stroke: #bf00bf; stroke-width: 0.5"/>
    <path d="M 376.650685 218.16 
L 376.650685 318.96 
" clip-path="url(#p0a097f7bc3)" style="fill: none; stroke: #bf00bf; stroke-width: 0.5"/>
    <path d="M 376.845737 218.16 
L 376.845737 318.96 
" clip-path="url(#p0a097f7bc3)" style="fill: none; stroke: #bf00bf; stroke-width: 0.5"/>
    <path d="M 377.040788 218.16 
L 377.040788 318.96 
" clip-path="url(#p0a097f7bc3)" style="fill: none; stroke: #bf00bf; stroke-width: 0.5"/>
    <path d="M 378.991301 218.16 
L 378.991301 318.96 
" clip-path="url(#p0a097f7bc3)" style="fill: none; stroke: #bf00bf; stroke-width: 0.5"/>
    <path d="M 379.186352 218.16 
L 379.186352 318.96 
" clip-path="url(#p0a097f7bc3)" style="fill: none; stroke: #bf00bf; stroke-width: 0.5"/>
    <path d="M 379.381404 218.16 
L 379.381404 318.96 
" clip-path="url(#p0a097f7bc3)" style="fill: none; stroke: #bf00bf; stroke-width: 0.5"/>
    <path d="M 379.576455 218.16 
L 379.576455 318.96 
" clip-path="url(#p0a097f7bc3)" style="fill: none; stroke: #bf00bf; stroke-width: 0.5"/>
    <path d="M 379.771506 218.16 
L 379.771506 318.96 
" clip-path="url(#p0a097f7bc3)" style="fill: none; stroke: #bf00bf; stroke-width: 0.5"/>
    <path d="M 379.966558 218.16 
L 379.966558 318.96 
" clip-path="url(#p0a097f7bc3)" style="fill: none; stroke: #bf00bf; stroke-width: 0.5"/>
    <path d="M 380.161609 218.16 
L 380.161609 318.96 
" clip-path="url(#p0a097f7bc3)" style="fill: none; stroke: #bf00bf; stroke-width: 0.5"/>
    <path d="M 380.35666 218.16 
L 380.35666 318.96 
" clip-path="url(#p0a097f7bc3)" style="fill: none; stroke: #bf00bf; stroke-width: 0.5"/>
    <path d="M 380.551712 218.16 
L 380.551712 318.96 
" clip-path="url(#p0a097f7bc3)" style="fill: none; stroke: #bf00bf; stroke-width: 0.5"/>
    <path d="M 380.746763 218.16 
L 380.746763 318.96 
" clip-path="url(#p0a097f7bc3)" style="fill: none; stroke: #bf00bf; stroke-width: 0.5"/>
    <path d="M 380.941814 218.16 
L 380.941814 318.96 
" clip-path="url(#p0a097f7bc3)" style="fill: none; stroke: #bf00bf; stroke-width: 0.5"/>
    <path d="M 381.136865 218.16 
L 381.136865 318.96 
" clip-path="url(#p0a097f7bc3)" style="fill: none; stroke: #bf00bf; stroke-width: 0.5"/>
    <path d="M 381.331917 218.16 
L 381.331917 318.96 
" clip-path="url(#p0a097f7bc3)" style="fill: none; stroke: #bf00bf; stroke-width: 0.5"/>
    <path d="M 381.526968 218.16 
L 381.526968 318.96 
" clip-path="url(#p0a097f7bc3)" style="fill: none; stroke: #bf00bf; stroke-width: 0.5"/>
    <path d="M 381.722019 218.16 
L 381.722019 318.96 
" clip-path="url(#p0a097f7bc3)" style="fill: none; stroke: #bf00bf; stroke-width: 0.5"/>
    <path d="M 381.917071 218.16 
L 381.917071 318.96 
" clip-path="url(#p0a097f7bc3)" style="fill: none; stroke: #bf00bf; stroke-width: 0.5"/>
    <path d="M 382.112122 218.16 
L 382.112122 318.96 
" clip-path="url(#p0a097f7bc3)" style="fill: none; stroke: #bf00bf; stroke-width: 0.5"/>
    <path d="M 382.307173 218.16 
L 382.307173 318.96 
" clip-path="url(#p0a097f7bc3)" style="fill: none; stroke: #bf00bf; stroke-width: 0.5"/>
    <path d="M 382.502225 218.16 
L 382.502225 318.96 
" clip-path="url(#p0a097f7bc3)" style="fill: none; stroke: #bf00bf; stroke-width: 0.5"/>
    <path d="M 382.697276 218.16 
L 382.697276 318.96 
" clip-path="url(#p0a097f7bc3)" style="fill: none; stroke: #bf00bf; stroke-width: 0.5"/>
    <path d="M 382.892327 218.16 
L 382.892327 318.96 
" clip-path="url(#p0a097f7bc3)" style="fill: none; stroke: #bf00bf; stroke-width: 0.5"/>
    <path d="M 383.087379 218.16 
L 383.087379 318.96 
" clip-path="url(#p0a097f7bc3)" style="fill: none; stroke: #bf00bf; stroke-width: 0.5"/>
    <path d="M 383.28243 218.16 
L 383.28243 318.96 
" clip-path="url(#p0a097f7bc3)" style="fill: none; stroke: #bf00bf; stroke-width: 0.5"/>
    <path d="M 383.477481 218.16 
L 383.477481 318.96 
" clip-path="url(#p0a097f7bc3)" style="fill: none; stroke: #bf00bf; stroke-width: 0.5"/>
    <path d="M 383.672533 218.16 
L 383.672533 318.96 
" clip-path="url(#p0a097f7bc3)" style="fill: none; stroke: #bf00bf; stroke-width: 0.5"/>
    <path d="M 383.867584 218.16 
L 383.867584 318.96 
" clip-path="url(#p0a097f7bc3)" style="fill: none; stroke: #bf00bf; stroke-width: 0.5"/>
    <path d="M 384.062635 218.16 
L 384.062635 318.96 
" clip-path="url(#p0a097f7bc3)" style="fill: none; stroke: #bf00bf; stroke-width: 0.5"/>
    <path d="M 384.257686 218.16 
L 384.257686 318.96 
" clip-path="url(#p0a097f7bc3)" style="fill: none; stroke: #bf00bf; stroke-width: 0.5"/>
    <path d="M 384.452738 218.16 
L 384.452738 318.96 
" clip-path="url(#p0a097f7bc3)" style="fill: none; stroke: #bf00bf; stroke-width: 0.5"/>
    <path d="M 384.647789 218.16 
L 384.647789 318.96 
" clip-path="url(#p0a097f7bc3)" style="fill: none; stroke: #bf00bf; stroke-width: 0.5"/>
    <path d="M 384.84284 218.16 
L 384.84284 318.96 
" clip-path="url(#p0a097f7bc3)" style="fill: none; stroke: #bf00bf; stroke-width: 0.5"/>
    <path d="M 385.037892 218.16 
L 385.037892 318.96 
" clip-path="url(#p0a097f7bc3)" style="fill: none; stroke: #bf00bf; stroke-width: 0.5"/>
    <path d="M 385.232943 218.16 
L 385.232943 318.96 
" clip-path="url(#p0a097f7bc3)" style="fill: none; stroke: #bf00bf; stroke-width: 0.5"/>
    <path d="M 385.427994 218.16 
L 385.427994 318.96 
" clip-path="url(#p0a097f7bc3)" style="fill: none; stroke: #bf00bf; stroke-width: 0.5"/>
    <path d="M 385.623046 218.16 
L 385.623046 318.96 
" clip-path="url(#p0a097f7bc3)" style="fill: none; stroke: #bf00bf; stroke-width: 0.5"/>
    <path d="M 385.818097 218.16 
L 385.818097 318.96 
" clip-path="url(#p0a097f7bc3)" style="fill: none; stroke: #bf00bf; stroke-width: 0.5"/>
    <path d="M 386.013148 218.16 
L 386.013148 318.96 
" clip-path="url(#p0a097f7bc3)" style="fill: none; stroke: #bf00bf; stroke-width: 0.5"/>
    <path d="M 386.2082 218.16 
L 386.2082 318.96 
" clip-path="url(#p0a097f7bc3)" style="fill: none; stroke: #bf00bf; stroke-width: 0.5"/>
    <path d="M 386.403251 218.16 
L 386.403251 318.96 
" clip-path="url(#p0a097f7bc3)" style="fill: none; stroke: #bf00bf; stroke-width: 0.5"/>
    <path d="M 386.598302 218.16 
L 386.598302 318.96 
" clip-path="url(#p0a097f7bc3)" style="fill: none; stroke: #bf00bf; stroke-width: 0.5"/>
    <path d="M 494.461676 218.16 
L 494.461676 318.96 
" clip-path="url(#p0a097f7bc3)" style="fill: none; stroke: #bf00bf; stroke-width: 0.5"/>
    <path d="M 494.656728 218.16 
L 494.656728 318.96 
" clip-path="url(#p0a097f7bc3)" style="fill: none; stroke: #bf00bf; stroke-width: 0.5"/>
    <path d="M 566.825712 218.16 
L 566.825712 318.96 
" clip-path="url(#p0a097f7bc3)" style="fill: none; stroke: #bf00bf; stroke-width: 0.5"/>
    <path d="M 567.020764 218.16 
L 567.020764 318.96 
" clip-path="url(#p0a097f7bc3)" style="fill: none; stroke: #bf00bf; stroke-width: 0.5"/>
    <path d="M 567.215815 218.16 
L 567.215815 318.96 
" clip-path="url(#p0a097f7bc3)" style="fill: none; stroke: #bf00bf; stroke-width: 0.5"/>
    <path d="M 567.410866 218.16 
L 567.410866 318.96 
" clip-path="url(#p0a097f7bc3)" style="fill: none; stroke: #bf00bf; stroke-width: 0.5"/>
    <path d="M 567.605917 218.16 
L 567.605917 318.96 
" clip-path="url(#p0a097f7bc3)" style="fill: none; stroke: #bf00bf; stroke-width: 0.5"/>
    <path d="M 567.99602 218.16 
L 567.99602 318.96 
" clip-path="url(#p0a097f7bc3)" style="fill: none; stroke: #bf00bf; stroke-width: 0.5"/>
    <path d="M 568.191071 218.16 
L 568.191071 318.96 
" clip-path="url(#p0a097f7bc3)" style="fill: none; stroke: #bf00bf; stroke-width: 0.5"/>
    <path d="M 568.386123 218.16 
L 568.386123 318.96 
" clip-path="url(#p0a097f7bc3)" style="fill: none; stroke: #bf00bf; stroke-width: 0.5"/>
    <path d="M 568.581174 218.16 
L 568.581174 318.96 
" clip-path="url(#p0a097f7bc3)" style="fill: none; stroke: #bf00bf; stroke-width: 0.5"/>
    <path d="M 568.776225 218.16 
L 568.776225 318.96 
" clip-path="url(#p0a097f7bc3)" style="fill: none; stroke: #bf00bf; stroke-width: 0.5"/>
    <path d="M 568.971277 218.16 
L 568.971277 318.96 
" clip-path="url(#p0a097f7bc3)" style="fill: none; stroke: #bf00bf; stroke-width: 0.5"/>
    <path d="M 569.166328 218.16 
L 569.166328 318.96 
" clip-path="url(#p0a097f7bc3)" style="fill: none; stroke: #bf00bf; stroke-width: 0.5"/>
    <path d="M 569.361379 218.16 
L 569.361379 318.96 
" clip-path="url(#p0a097f7bc3)" style="fill: none; stroke: #bf00bf; stroke-width: 0.5"/>
    <path d="M 569.556431 218.16 
L 569.556431 318.96 
" clip-path="url(#p0a097f7bc3)" style="fill: none; stroke: #bf00bf; stroke-width: 0.5"/>
    <path d="M 569.751482 218.16 
L 569.751482 318.96 
" clip-path="url(#p0a097f7bc3)" style="fill: none; stroke: #bf00bf; stroke-width: 0.5"/>
    <path d="M 569.946533 218.16 
L 569.946533 318.96 
" clip-path="url(#p0a097f7bc3)" style="fill: none; stroke: #bf00bf; stroke-width: 0.5"/>
    <path d="M 570.141584 218.16 
L 570.141584 318.96 
" clip-path="url(#p0a097f7bc3)" style="fill: none; stroke: #bf00bf; stroke-width: 0.5"/>
    <path d="M 570.336636 218.16 
L 570.336636 318.96 
" clip-path="url(#p0a097f7bc3)" style="fill: none; stroke: #bf00bf; stroke-width: 0.5"/>
    <path d="M 570.531687 218.16 
L 570.531687 318.96 
" clip-path="url(#p0a097f7bc3)" style="fill: none; stroke: #bf00bf; stroke-width: 0.5"/>
    <path d="M 570.726738 218.16 
L 570.726738 318.96 
" clip-path="url(#p0a097f7bc3)" style="fill: none; stroke: #bf00bf; stroke-width: 0.5"/>
    <path d="M 570.92179 218.16 
L 570.92179 318.96 
" clip-path="url(#p0a097f7bc3)" style="fill: none; stroke: #bf00bf; stroke-width: 0.5"/>
    <path d="M 571.116841 218.16 
L 571.116841 318.96 
" clip-path="url(#p0a097f7bc3)" style="fill: none; stroke: #bf00bf; stroke-width: 0.5"/>
    <path d="M 571.311892 218.16 
L 571.311892 318.96 
" clip-path="url(#p0a097f7bc3)" style="fill: none; stroke: #bf00bf; stroke-width: 0.5"/>
    <path d="M 571.506944 218.16 
L 571.506944 318.96 
" clip-path="url(#p0a097f7bc3)" style="fill: none; stroke: #bf00bf; stroke-width: 0.5"/>
    <path d="M 640.94521 218.16 
L 640.94521 318.96 
" clip-path="url(#p0a097f7bc3)" style="fill: none; stroke: #bf00bf; stroke-width: 0.5"/>
    <path d="M 708.432963 218.16 
L 708.432963 318.96 
" clip-path="url(#p0a097f7bc3)" style="fill: none; stroke: #bf00bf; stroke-width: 0.5"/>
    <path d="M 708.628014 218.16 
L 708.628014 318.96 
" clip-path="url(#p0a097f7bc3)" style="fill: none; stroke: #bf00bf; stroke-width: 0.5"/>
    <path d="M 709.40822 218.16 
L 709.40822 318.96 
" clip-path="url(#p0a097f7bc3)" style="fill: none; stroke: #bf00bf; stroke-width: 0.5"/>
    <path d="M 709.603271 218.16 
L 709.603271 318.96 
" clip-path="url(#p0a097f7bc3)" style="fill: none; stroke: #bf00bf; stroke-width: 0.5"/>
    <path d="M 709.798322 218.16 
L 709.798322 318.96 
" clip-path="url(#p0a097f7bc3)" style="fill: none; stroke: #bf00bf; stroke-width: 0.5"/>
    <path d="M 758.56115 218.16 
L 758.56115 318.96 
" clip-path="url(#p0a097f7bc3)" style="fill: none; stroke: #bf00bf; stroke-width: 0.5"/>
    <path d="M 758.756201 218.16 
L 758.756201 318.96 
" clip-path="url(#p0a097f7bc3)" style="fill: none; stroke: #bf00bf; stroke-width: 0.5"/>
    <path d="M 758.951252 218.16 
L 758.951252 318.96 
" clip-path="url(#p0a097f7bc3)" style="fill: none; stroke: #bf00bf; stroke-width: 0.5"/>
    <path d="M 759.146303 218.16 
L 759.146303 318.96 
" clip-path="url(#p0a097f7bc3)" style="fill: none; stroke: #bf00bf; stroke-width: 0.5"/>
    <path d="M 759.341355 218.16 
L 759.341355 318.96 
" clip-path="url(#p0a097f7bc3)" style="fill: none; stroke: #bf00bf; stroke-width: 0.5"/>
    <path d="M 825.6588 218.16 
L 825.6588 318.96 
" clip-path="url(#p0a097f7bc3)" style="fill: none; stroke: #bf00bf; stroke-width: 0.5"/>
    <path d="M 825.853851 218.16 
L 825.853851 318.96 
" clip-path="url(#p0a097f7bc3)" style="fill: none; stroke: #bf00bf; stroke-width: 0.5"/>
    <path d="M 826.048903 218.16 
L 826.048903 318.96 
" clip-path="url(#p0a097f7bc3)" style="fill: none; stroke: #bf00bf; stroke-width: 0.5"/>
    <path d="M 826.243954 218.16 
L 826.243954 318.96 
" clip-path="url(#p0a097f7bc3)" style="fill: none; stroke: #bf00bf; stroke-width: 0.5"/>
    <path d="M 826.439005 218.16 
L 826.439005 318.96 
" clip-path="url(#p0a097f7bc3)" style="fill: none; stroke: #bf00bf; stroke-width: 0.5"/>
    <path d="M 826.634057 218.16 
L 826.634057 318.96 
" clip-path="url(#p0a097f7bc3)" style="fill: none; stroke: #bf00bf; stroke-width: 0.5"/>
    <path d="M 826.829108 218.16 
L 826.829108 318.96 
" clip-path="url(#p0a097f7bc3)" style="fill: none; stroke: #bf00bf; stroke-width: 0.5"/>
    <path d="M 827.024159 218.16 
L 827.024159 318.96 
" clip-path="url(#p0a097f7bc3)" style="fill: none; stroke: #bf00bf; stroke-width: 0.5"/>
    <path d="M 827.219211 218.16 
L 827.219211 318.96 
" clip-path="url(#p0a097f7bc3)" style="fill: none; stroke: #bf00bf; stroke-width: 0.5"/>
    <path d="M 827.414262 218.16 
L 827.414262 318.96 
" clip-path="url(#p0a097f7bc3)" style="fill: none; stroke: #bf00bf; stroke-width: 0.5"/>
    <path d="M 827.609313 218.16 
L 827.609313 318.96 
" clip-path="url(#p0a097f7bc3)" style="fill: none; stroke: #bf00bf; stroke-width: 0.5"/>
    <path d="M 827.804364 218.16 
L 827.804364 318.96 
" clip-path="url(#p0a097f7bc3)" style="fill: none; stroke: #bf00bf; stroke-width: 0.5"/>
    <path d="M 827.999416 218.16 
L 827.999416 318.96 
" clip-path="url(#p0a097f7bc3)" style="fill: none; stroke: #bf00bf; stroke-width: 0.5"/>
    <path d="M 828.194467 218.16 
L 828.194467 318.96 
" clip-path="url(#p0a097f7bc3)" style="fill: none; stroke: #bf00bf; stroke-width: 0.5"/>
    <path d="M 828.389518 218.16 
L 828.389518 318.96 
" clip-path="url(#p0a097f7bc3)" style="fill: none; stroke: #bf00bf; stroke-width: 0.5"/>
    <path d="M 828.58457 218.16 
L 828.58457 318.96 
" clip-path="url(#p0a097f7bc3)" style="fill: none; stroke: #bf00bf; stroke-width: 0.5"/>
    <path d="M 828.779621 218.16 
L 828.779621 318.96 
" clip-path="url(#p0a097f7bc3)" style="fill: none; stroke: #bf00bf; stroke-width: 0.5"/>
    <path d="M 828.974672 218.16 
L 828.974672 318.96 
" clip-path="url(#p0a097f7bc3)" style="fill: none; stroke: #bf00bf; stroke-width: 0.5"/>
    <path d="M 829.169724 218.16 
L 829.169724 318.96 
" clip-path="url(#p0a097f7bc3)" style="fill: none; stroke: #bf00bf; stroke-width: 0.5"/>
    <path d="M 829.364775 218.16 
L 829.364775 318.96 
" clip-path="url(#p0a097f7bc3)" style="fill: none; stroke: #bf00bf; stroke-width: 0.5"/>
    <path d="M 829.559826 218.16 
L 829.559826 318.96 
" clip-path="url(#p0a097f7bc3)" style="fill: none; stroke: #bf00bf; stroke-width: 0.5"/>
    <path d="M 829.754878 218.16 
L 829.754878 318.96 
" clip-path="url(#p0a097f7bc3)" style="fill: none; stroke: #bf00bf; stroke-width: 0.5"/>
    <path d="M 829.949929 218.16 
L 829.949929 318.96 
" clip-path="url(#p0a097f7bc3)" style="fill: none; stroke: #bf00bf; stroke-width: 0.5"/>
    <path d="M 830.14498 218.16 
L 830.14498 318.96 
" clip-path="url(#p0a097f7bc3)" style="fill: none; stroke: #bf00bf; stroke-width: 0.5"/>
    <path d="M 830.340031 218.16 
L 830.340031 318.96 
" clip-path="url(#p0a097f7bc3)" style="fill: none; stroke: #bf00bf; stroke-width: 0.5"/>
    <path d="M 830.535083 218.16 
L 830.535083 318.96 
" clip-path="url(#p0a097f7bc3)" style="fill: none; stroke: #bf00bf; stroke-width: 0.5"/>
    <path d="M 830.730134 218.16 
L 830.730134 318.96 
" clip-path="url(#p0a097f7bc3)" style="fill: none; stroke: #bf00bf; stroke-width: 0.5"/>
    <path d="M 869.155242 218.16 
L 869.155242 318.96 
" clip-path="url(#p0a097f7bc3)" style="fill: none; stroke: #bf00bf; stroke-width: 0.5"/>
    <path d="M 869.350293 218.16 
L 869.350293 318.96 
" clip-path="url(#p0a097f7bc3)" style="fill: none; stroke: #bf00bf; stroke-width: 0.5"/>
    <path d="M 869.545345 218.16 
L 869.545345 318.96 
" clip-path="url(#p0a097f7bc3)" style="fill: none; stroke: #bf00bf; stroke-width: 0.5"/>
    <path d="M 869.740396 218.16 
L 869.740396 318.96 
" clip-path="url(#p0a097f7bc3)" style="fill: none; stroke: #bf00bf; stroke-width: 0.5"/>
    <path d="M 869.935447 218.16 
L 869.935447 318.96 
" clip-path="url(#p0a097f7bc3)" style="fill: none; stroke: #bf00bf; stroke-width: 0.5"/>
    <path d="M 870.130499 218.16 
L 870.130499 318.96 
" clip-path="url(#p0a097f7bc3)" style="fill: none; stroke: #bf00bf; stroke-width: 0.5"/>
    <path d="M 870.32555 218.16 
L 870.32555 318.96 
" clip-path="url(#p0a097f7bc3)" style="fill: none; stroke: #bf00bf; stroke-width: 0.5"/>
    <path d="M 870.520601 218.16 
L 870.520601 318.96 
" clip-path="url(#p0a097f7bc3)" style="fill: none; stroke: #bf00bf; stroke-width: 0.5"/>
    <path d="M 870.715653 218.16 
L 870.715653 318.96 
" clip-path="url(#p0a097f7bc3)" style="fill: none; stroke: #bf00bf; stroke-width: 0.5"/>
    <path d="M 870.910704 218.16 
L 870.910704 318.96 
" clip-path="url(#p0a097f7bc3)" style="fill: none; stroke: #bf00bf; stroke-width: 0.5"/>
    <path d="M 871.105755 218.16 
L 871.105755 318.96 
" clip-path="url(#p0a097f7bc3)" style="fill: none; stroke: #bf00bf; stroke-width: 0.5"/>
    <path d="M 871.300806 218.16 
L 871.300806 318.96 
" clip-path="url(#p0a097f7bc3)" style="fill: none; stroke: #bf00bf; stroke-width: 0.5"/>
    <path d="M 871.495858 218.16 
L 871.495858 318.96 
" clip-path="url(#p0a097f7bc3)" style="fill: none; stroke: #bf00bf; stroke-width: 0.5"/>
    <path d="M 871.690909 218.16 
L 871.690909 318.96 
" clip-path="url(#p0a097f7bc3)" style="fill: none; stroke: #bf00bf; stroke-width: 0.5"/>
   </g>
   <g id="EventCollection_2">
    <path d="M 161.509091 117.36 
L 161.509091 218.16 
" clip-path="url(#p0a097f7bc3)" style="fill: none; stroke: #bfbf00; stroke-width: 0.5"/>
    <path d="M 292.38852 117.36 
L 292.38852 218.16 
" clip-path="url(#p0a097f7bc3)" style="fill: none; stroke: #bfbf00; stroke-width: 0.5"/>
    <path d="M 366.703069 117.36 
L 366.703069 218.16 
" clip-path="url(#p0a097f7bc3)" style="fill: none; stroke: #bfbf00; stroke-width: 0.5"/>
    <path d="M 366.89812 117.36 
L 366.89812 218.16 
" clip-path="url(#p0a097f7bc3)" style="fill: none; stroke: #bfbf00; stroke-width: 0.5"/>
    <path d="M 367.093171 117.36 
L 367.093171 218.16 
" clip-path="url(#p0a097f7bc3)" style="fill: none; stroke: #bfbf00; stroke-width: 0.5"/>
    <path d="M 367.288223 117.36 
L 367.288223 218.16 
" clip-path="url(#p0a097f7bc3)" style="fill: none; stroke: #bfbf00; stroke-width: 0.5"/>
    <path d="M 367.483274 117.36 
L 367.483274 218.16 
" clip-path="url(#p0a097f7bc3)" style="fill: none; stroke: #bfbf00; stroke-width: 0.5"/>
    <path d="M 367.678325 117.36 
L 367.678325 218.16 
" clip-path="url(#p0a097f7bc3)" style="fill: none; stroke: #bfbf00; stroke-width: 0.5"/>
    <path d="M 367.873376 117.36 
L 367.873376 218.16 
" clip-path="url(#p0a097f7bc3)" style="fill: none; stroke: #bfbf00; stroke-width: 0.5"/>
    <path d="M 368.068428 117.36 
L 368.068428 218.16 
" clip-path="url(#p0a097f7bc3)" style="fill: none; stroke: #bfbf00; stroke-width: 0.5"/>
    <path d="M 368.263479 117.36 
L 368.263479 218.16 
" clip-path="url(#p0a097f7bc3)" style="fill: none; stroke: #bfbf00; stroke-width: 0.5"/>
    <path d="M 368.45853 117.36 
L 368.45853 218.16 
" clip-path="url(#p0a097f7bc3)" style="fill: none; stroke: #bfbf00; stroke-width: 0.5"/>
    <path d="M 368.653582 117.36 
L 368.653582 218.16 
" clip-path="url(#p0a097f7bc3)" style="fill: none; stroke: #bfbf00; stroke-width: 0.5"/>
    <path d="M 368.848633 117.36 
L 368.848633 218.16 
" clip-path="url(#p0a097f7bc3)" style="fill: none; stroke: #bfbf00; stroke-width: 0.5"/>
    <path d="M 369.043684 117.36 
L 369.043684 218.16 
" clip-path="url(#p0a097f7bc3)" style="fill: none; stroke: #bfbf00; stroke-width: 0.5"/>
    <path d="M 369.238736 117.36 
L 369.238736 218.16 
" clip-path="url(#p0a097f7bc3)" style="fill: none; stroke: #bfbf00; stroke-width: 0.5"/>
    <path d="M 369.433787 117.36 
L 369.433787 218.16 
" clip-path="url(#p0a097f7bc3)" style="fill: none; stroke: #bfbf00; stroke-width: 0.5"/>
    <path d="M 369.628838 117.36 
L 369.628838 218.16 
" clip-path="url(#p0a097f7bc3)" style="fill: none; stroke: #bfbf00; stroke-width: 0.5"/>
    <path d="M 369.82389 117.36 
L 369.82389 218.16 
" clip-path="url(#p0a097f7bc3)" style="fill: none; stroke: #bfbf00; stroke-width: 0.5"/>
    <path d="M 370.018941 117.36 
L 370.018941 218.16 
" clip-path="url(#p0a097f7bc3)" style="fill: none; stroke: #bfbf00; stroke-width: 0.5"/>
    <path d="M 370.213992 117.36 
L 370.213992 218.16 
" clip-path="url(#p0a097f7bc3)" style="fill: none; stroke: #bfbf00; stroke-width: 0.5"/>
    <path d="M 370.409043 117.36 
L 370.409043 218.16 
" clip-path="url(#p0a097f7bc3)" style="fill: none; stroke: #bfbf00; stroke-width: 0.5"/>
    <path d="M 370.604095 117.36 
L 370.604095 218.16 
" clip-path="url(#p0a097f7bc3)" style="fill: none; stroke: #bfbf00; stroke-width: 0.5"/>
    <path d="M 370.799146 117.36 
L 370.799146 218.16 
" clip-path="url(#p0a097f7bc3)" style="fill: none; stroke: #bfbf00; stroke-width: 0.5"/>
    <path d="M 395.765714 117.36 
L 395.765714 218.16 
" clip-path="url(#p0a097f7bc3)" style="fill: none; stroke: #bfbf00; stroke-width: 0.5"/>
    <path d="M 395.960765 117.36 
L 395.960765 218.16 
" clip-path="url(#p0a097f7bc3)" style="fill: none; stroke: #bfbf00; stroke-width: 0.5"/>
    <path d="M 428.339282 117.36 
L 428.339282 218.16 
" clip-path="url(#p0a097f7bc3)" style="fill: none; stroke: #bfbf00; stroke-width: 0.5"/>
    <path d="M 428.534334 117.36 
L 428.534334 218.16 
" clip-path="url(#p0a097f7bc3)" style="fill: none; stroke: #bfbf00; stroke-width: 0.5"/>
    <path d="M 428.729385 117.36 
L 428.729385 218.16 
" clip-path="url(#p0a097f7bc3)" style="fill: none; stroke: #bfbf00; stroke-width: 0.5"/>
    <path d="M 428.924436 117.36 
L 428.924436 218.16 
" clip-path="url(#p0a097f7bc3)" style="fill: none; stroke: #bfbf00; stroke-width: 0.5"/>
    <path d="M 429.119488 117.36 
L 429.119488 218.16 
" clip-path="url(#p0a097f7bc3)" style="fill: none; stroke: #bfbf00; stroke-width: 0.5"/>
    <path d="M 429.314539 117.36 
L 429.314539 218.16 
" clip-path="url(#p0a097f7bc3)" style="fill: none; stroke: #bfbf00; stroke-width: 0.5"/>
    <path d="M 429.50959 117.36 
L 429.50959 218.16 
" clip-path="url(#p0a097f7bc3)" style="fill: none; stroke: #bfbf00; stroke-width: 0.5"/>
    <path d="M 429.704642 117.36 
L 429.704642 218.16 
" clip-path="url(#p0a097f7bc3)" style="fill: none; stroke: #bfbf00; stroke-width: 0.5"/>
    <path d="M 429.899693 117.36 
L 429.899693 218.16 
" clip-path="url(#p0a097f7bc3)" style="fill: none; stroke: #bfbf00; stroke-width: 0.5"/>
    <path d="M 435.751232 117.36 
L 435.751232 218.16 
" clip-path="url(#p0a097f7bc3)" style="fill: none; stroke: #bfbf00; stroke-width: 0.5"/>
    <path d="M 436.141335 117.36 
L 436.141335 218.16 
" clip-path="url(#p0a097f7bc3)" style="fill: none; stroke: #bfbf00; stroke-width: 0.5"/>
    <path d="M 436.336386 117.36 
L 436.336386 218.16 
" clip-path="url(#p0a097f7bc3)" style="fill: none; stroke: #bfbf00; stroke-width: 0.5"/>
    <path d="M 436.531437 117.36 
L 436.531437 218.16 
" clip-path="url(#p0a097f7bc3)" style="fill: none; stroke: #bfbf00; stroke-width: 0.5"/>
    <path d="M 507.725165 117.36 
L 507.725165 218.16 
" clip-path="url(#p0a097f7bc3)" style="fill: none; stroke: #bfbf00; stroke-width: 0.5"/>
    <path d="M 508.700422 117.36 
L 508.700422 218.16 
" clip-path="url(#p0a097f7bc3)" style="fill: none; stroke: #bfbf00; stroke-width: 0.5"/>
    <path d="M 508.895473 117.36 
L 508.895473 218.16 
" clip-path="url(#p0a097f7bc3)" style="fill: none; stroke: #bfbf00; stroke-width: 0.5"/>
    <path d="M 578.918893 117.36 
L 578.918893 218.16 
" clip-path="url(#p0a097f7bc3)" style="fill: none; stroke: #bfbf00; stroke-width: 0.5"/>
    <path d="M 579.113945 117.36 
L 579.113945 218.16 
" clip-path="url(#p0a097f7bc3)" style="fill: none; stroke: #bfbf00; stroke-width: 0.5"/>
    <path d="M 579.308996 117.36 
L 579.308996 218.16 
" clip-path="url(#p0a097f7bc3)" style="fill: none; stroke: #bfbf00; stroke-width: 0.5"/>
    <path d="M 606.031025 117.36 
L 606.031025 218.16 
" clip-path="url(#p0a097f7bc3)" style="fill: none; stroke: #bfbf00; stroke-width: 0.5"/>
    <path d="M 606.226077 117.36 
L 606.226077 218.16 
" clip-path="url(#p0a097f7bc3)" style="fill: none; stroke: #bfbf00; stroke-width: 0.5"/>
    <path d="M 627.096567 117.36 
L 627.096567 218.16 
" clip-path="url(#p0a097f7bc3)" style="fill: none; stroke: #bfbf00; stroke-width: 0.5"/>
    <path d="M 658.499828 117.36 
L 658.499828 218.16 
" clip-path="url(#p0a097f7bc3)" style="fill: none; stroke: #bfbf00; stroke-width: 0.5"/>
    <path d="M 658.694879 117.36 
L 658.694879 218.16 
" clip-path="url(#p0a097f7bc3)" style="fill: none; stroke: #bfbf00; stroke-width: 0.5"/>
    <path d="M 658.88993 117.36 
L 658.88993 218.16 
" clip-path="url(#p0a097f7bc3)" style="fill: none; stroke: #bfbf00; stroke-width: 0.5"/>
    <path d="M 659.084982 117.36 
L 659.084982 218.16 
" clip-path="url(#p0a097f7bc3)" style="fill: none; stroke: #bfbf00; stroke-width: 0.5"/>
    <path d="M 659.280033 117.36 
L 659.280033 218.16 
" clip-path="url(#p0a097f7bc3)" style="fill: none; stroke: #bfbf00; stroke-width: 0.5"/>
    <path d="M 659.475084 117.36 
L 659.475084 218.16 
" clip-path="url(#p0a097f7bc3)" style="fill: none; stroke: #bfbf00; stroke-width: 0.5"/>
    <path d="M 659.670136 117.36 
L 659.670136 218.16 
" clip-path="url(#p0a097f7bc3)" style="fill: none; stroke: #bfbf00; stroke-width: 0.5"/>
    <path d="M 659.865187 117.36 
L 659.865187 218.16 
" clip-path="url(#p0a097f7bc3)" style="fill: none; stroke: #bfbf00; stroke-width: 0.5"/>
    <path d="M 693.02391 117.36 
L 693.02391 218.16 
" clip-path="url(#p0a097f7bc3)" style="fill: none; stroke: #bfbf00; stroke-width: 0.5"/>
    <path d="M 693.218961 117.36 
L 693.218961 218.16 
" clip-path="url(#p0a097f7bc3)" style="fill: none; stroke: #bfbf00; stroke-width: 0.5"/>
    <path d="M 693.414012 117.36 
L 693.414012 218.16 
" clip-path="url(#p0a097f7bc3)" style="fill: none; stroke: #bfbf00; stroke-width: 0.5"/>
    <path d="M 693.609063 117.36 
L 693.609063 218.16 
" clip-path="url(#p0a097f7bc3)" style="fill: none; stroke: #bfbf00; stroke-width: 0.5"/>
    <path d="M 699.850705 117.36 
L 699.850705 218.16 
" clip-path="url(#p0a097f7bc3)" style="fill: none; stroke: #bfbf00; stroke-width: 0.5"/>
    <path d="M 700.240808 117.36 
L 700.240808 218.16 
" clip-path="url(#p0a097f7bc3)" style="fill: none; stroke: #bfbf00; stroke-width: 0.5"/>
    <path d="M 700.435859 117.36 
L 700.435859 218.16 
" clip-path="url(#p0a097f7bc3)" style="fill: none; stroke: #bfbf00; stroke-width: 0.5"/>
    <path d="M 700.630911 117.36 
L 700.630911 218.16 
" clip-path="url(#p0a097f7bc3)" style="fill: none; stroke: #bfbf00; stroke-width: 0.5"/>
    <path d="M 700.825962 117.36 
L 700.825962 218.16 
" clip-path="url(#p0a097f7bc3)" style="fill: none; stroke: #bfbf00; stroke-width: 0.5"/>
    <path d="M 701.021013 117.36 
L 701.021013 218.16 
" clip-path="url(#p0a097f7bc3)" style="fill: none; stroke: #bfbf00; stroke-width: 0.5"/>
    <path d="M 701.216065 117.36 
L 701.216065 218.16 
" clip-path="url(#p0a097f7bc3)" style="fill: none; stroke: #bfbf00; stroke-width: 0.5"/>
    <path d="M 701.411116 117.36 
L 701.411116 218.16 
" clip-path="url(#p0a097f7bc3)" style="fill: none; stroke: #bfbf00; stroke-width: 0.5"/>
    <path d="M 701.606167 117.36 
L 701.606167 218.16 
" clip-path="url(#p0a097f7bc3)" style="fill: none; stroke: #bfbf00; stroke-width: 0.5"/>
    <path d="M 701.801218 117.36 
L 701.801218 218.16 
" clip-path="url(#p0a097f7bc3)" style="fill: none; stroke: #bfbf00; stroke-width: 0.5"/>
    <path d="M 701.99627 117.36 
L 701.99627 218.16 
" clip-path="url(#p0a097f7bc3)" style="fill: none; stroke: #bfbf00; stroke-width: 0.5"/>
    <path d="M 702.191321 117.36 
L 702.191321 218.16 
" clip-path="url(#p0a097f7bc3)" style="fill: none; stroke: #bfbf00; stroke-width: 0.5"/>
    <path d="M 702.386372 117.36 
L 702.386372 218.16 
" clip-path="url(#p0a097f7bc3)" style="fill: none; stroke: #bfbf00; stroke-width: 0.5"/>
    <path d="M 702.776475 117.36 
L 702.776475 218.16 
" clip-path="url(#p0a097f7bc3)" style="fill: none; stroke: #bfbf00; stroke-width: 0.5"/>
    <path d="M 702.971526 117.36 
L 702.971526 218.16 
" clip-path="url(#p0a097f7bc3)" style="fill: none; stroke: #bfbf00; stroke-width: 0.5"/>
    <path d="M 703.166578 117.36 
L 703.166578 218.16 
" clip-path="url(#p0a097f7bc3)" style="fill: none; stroke: #bfbf00; stroke-width: 0.5"/>
    <path d="M 703.361629 117.36 
L 703.361629 218.16 
" clip-path="url(#p0a097f7bc3)" style="fill: none; stroke: #bfbf00; stroke-width: 0.5"/>
    <path d="M 703.751732 117.36 
L 703.751732 218.16 
" clip-path="url(#p0a097f7bc3)" style="fill: none; stroke: #bfbf00; stroke-width: 0.5"/>
    <path d="M 703.946783 117.36 
L 703.946783 218.16 
" clip-path="url(#p0a097f7bc3)" style="fill: none; stroke: #bfbf00; stroke-width: 0.5"/>
    <path d="M 704.141834 117.36 
L 704.141834 218.16 
" clip-path="url(#p0a097f7bc3)" style="fill: none; stroke: #bfbf00; stroke-width: 0.5"/>
    <path d="M 741.786737 117.36 
L 741.786737 218.16 
" clip-path="url(#p0a097f7bc3)" style="fill: none; stroke: #bfbf00; stroke-width: 0.5"/>
    <path d="M 818.441902 117.36 
L 818.441902 218.16 
" clip-path="url(#p0a097f7bc3)" style="fill: none; stroke: #bfbf00; stroke-width: 0.5"/>
    <path d="M 820.197363 117.36 
L 820.197363 218.16 
" clip-path="url(#p0a097f7bc3)" style="fill: none; stroke: #bfbf00; stroke-width: 0.5"/>
    <path d="M 820.392415 117.36 
L 820.392415 218.16 
" clip-path="url(#p0a097f7bc3)" style="fill: none; stroke: #bfbf00; stroke-width: 0.5"/>
    <path d="M 820.587466 117.36 
L 820.587466 218.16 
" clip-path="url(#p0a097f7bc3)" style="fill: none; stroke: #bfbf00; stroke-width: 0.5"/>
    <path d="M 820.782517 117.36 
L 820.782517 218.16 
" clip-path="url(#p0a097f7bc3)" style="fill: none; stroke: #bfbf00; stroke-width: 0.5"/>
    <path d="M 821.367671 117.36 
L 821.367671 218.16 
" clip-path="url(#p0a097f7bc3)" style="fill: none; stroke: #bfbf00; stroke-width: 0.5"/>
   </g>
   <g id="patch_3">
    <path d="M 126 384.48 
L 126 51.84 
" style="fill: none; stroke: #000000; stroke-width: 0.8; stroke-linejoin: miter; stroke-linecap: square"/>
   </g>
   <g id="patch_4">
    <path d="M 126 384.48 
L 907.2 384.48 
" style="fill: none; stroke: #000000; stroke-width: 0.8; stroke-linejoin: miter; stroke-linecap: square"/>
   </g>
   <g id="text_12">
    <!-- Mouse: 39625; Paradigm: femaleurineright_habituation; Date: 190822 -->
    <g transform="translate(305.369063 45.84) scale(0.12 -0.12)">
     <defs>
      <path id="DejaVuSans-4d" d="M 628 4666 
L 1569 4666 
L 2759 1491 
L 3956 4666 
L 4897 4666 
L 4897 0 
L 4281 0 
L 4281 4097 
L 3078 897 
L 2444 897 
L 1241 4097 
L 1241 0 
L 628 0 
L 628 4666 
z
" transform="scale(0.015625)"/>
      <path id="DejaVuSans-6f" d="M 1959 3097 
Q 1497 3097 1228 2736 
Q 959 2375 959 1747 
Q 959 1119 1226 758 
Q 1494 397 1959 397 
Q 2419 397 2687 759 
Q 2956 1122 2956 1747 
Q 2956 2369 2687 2733 
Q 2419 3097 1959 3097 
z
M 1959 3584 
Q 2709 3584 3137 3096 
Q 3566 2609 3566 1747 
Q 3566 888 3137 398 
Q 2709 -91 1959 -91 
Q 1206 -91 779 398 
Q 353 888 353 1747 
Q 353 2609 779 3096 
Q 1206 3584 1959 3584 
z
" transform="scale(0.015625)"/>
      <path id="DejaVuSans-75" d="M 544 1381 
L 544 3500 
L 1119 3500 
L 1119 1403 
Q 1119 906 1312 657 
Q 1506 409 1894 409 
Q 2359 409 2629 706 
Q 2900 1003 2900 1516 
L 2900 3500 
L 3475 3500 
L 3475 0 
L 2900 0 
L 2900 538 
Q 2691 219 2414 64 
Q 2138 -91 1772 -91 
Q 1169 -91 856 284 
Q 544 659 544 1381 
z
M 1991 3584 
L 1991 3584 
z
" transform="scale(0.015625)"/>
      <path id="DejaVuSans-3a" d="M 750 794 
L 1409 794 
L 1409 0 
L 750 0 
L 750 794 
z
M 750 3309 
L 1409 3309 
L 1409 2516 
L 750 2516 
L 750 3309 
z
" transform="scale(0.015625)"/>
      <path id="DejaVuSans-39" d="M 703 97 
L 703 672 
Q 941 559 1184 500 
Q 1428 441 1663 441 
Q 2288 441 2617 861 
Q 2947 1281 2994 2138 
Q 2813 1869 2534 1725 
Q 2256 1581 1919 1581 
Q 1219 1581 811 2004 
Q 403 2428 403 3163 
Q 403 3881 828 4315 
Q 1253 4750 1959 4750 
Q 2769 4750 3195 4129 
Q 3622 3509 3622 2328 
Q 3622 1225 3098 567 
Q 2575 -91 1691 -91 
Q 1453 -91 1209 -44 
Q 966 3 703 97 
z
M 1959 2075 
Q 2384 2075 2632 2365 
Q 2881 2656 2881 3163 
Q 2881 3666 2632 3958 
Q 2384 4250 1959 4250 
Q 1534 4250 1286 3958 
Q 1038 3666 1038 3163 
Q 1038 2656 1286 2365 
Q 1534 2075 1959 2075 
z
" transform="scale(0.015625)"/>
      <path id="DejaVuSans-36" d="M 2113 2584 
Q 1688 2584 1439 2293 
Q 1191 2003 1191 1497 
Q 1191 994 1439 701 
Q 1688 409 2113 409 
Q 2538 409 2786 701 
Q 3034 994 3034 1497 
Q 3034 2003 2786 2293 
Q 2538 2584 2113 2584 
z
M 3366 4563 
L 3366 3988 
Q 3128 4100 2886 4159 
Q 2644 4219 2406 4219 
Q 1781 4219 1451 3797 
Q 1122 3375 1075 2522 
Q 1259 2794 1537 2939 
Q 1816 3084 2150 3084 
Q 2853 3084 3261 2657 
Q 3669 2231 3669 1497 
Q 3669 778 3244 343 
Q 2819 -91 2113 -91 
Q 1303 -91 875 529 
Q 447 1150 447 2328 
Q 447 3434 972 4092 
Q 1497 4750 2381 4750 
Q 2619 4750 2861 4703 
Q 3103 4656 3366 4563 
z
" transform="scale(0.015625)"/>
      <path id="DejaVuSans-3b" d="M 750 3309 
L 1409 3309 
L 1409 2516 
L 750 2516 
L 750 3309 
z
M 750 794 
L 1409 794 
L 1409 256 
L 897 -744 
L 494 -744 
L 750 256 
L 750 794 
z
" transform="scale(0.015625)"/>
      <path id="DejaVuSans-50" d="M 1259 4147 
L 1259 2394 
L 2053 2394 
Q 2494 2394 2734 2622 
Q 2975 2850 2975 3272 
Q 2975 3691 2734 3919 
Q 2494 4147 2053 4147 
L 1259 4147 
z
M 628 4666 
L 2053 4666 
Q 2838 4666 3239 4311 
Q 3641 3956 3641 3272 
Q 3641 2581 3239 2228 
Q 2838 1875 2053 1875 
L 1259 1875 
L 1259 0 
L 628 0 
L 628 4666 
z
" transform="scale(0.015625)"/>
      <path id="DejaVuSans-61" d="M 2194 1759 
Q 1497 1759 1228 1600 
Q 959 1441 959 1056 
Q 959 750 1161 570 
Q 1363 391 1709 391 
Q 2188 391 2477 730 
Q 2766 1069 2766 1631 
L 2766 1759 
L 2194 1759 
z
M 3341 1997 
L 3341 0 
L 2766 0 
L 2766 531 
Q 2569 213 2275 61 
Q 1981 -91 1556 -91 
Q 1019 -91 701 211 
Q 384 513 384 1019 
Q 384 1609 779 1909 
Q 1175 2209 1959 2209 
L 2766 2209 
L 2766 2266 
Q 2766 2663 2505 2880 
Q 2244 3097 1772 3097 
Q 1472 3097 1187 3025 
Q 903 2953 641 2809 
L 641 3341 
Q 956 3463 1253 3523 
Q 1550 3584 1831 3584 
Q 2591 3584 2966 3190 
Q 3341 2797 3341 1997 
z
" transform="scale(0.015625)"/>
      <path id="DejaVuSans-5f" d="M 3263 -1063 
L 3263 -1509 
L -63 -1509 
L -63 -1063 
L 3263 -1063 
z
" transform="scale(0.015625)"/>
      <path id="DejaVuSans-62" d="M 3116 1747 
Q 3116 2381 2855 2742 
Q 2594 3103 2138 3103 
Q 1681 3103 1420 2742 
Q 1159 2381 1159 1747 
Q 1159 1113 1420 752 
Q 1681 391 2138 391 
Q 2594 391 2855 752 
Q 3116 1113 3116 1747 
z
M 1159 2969 
Q 1341 3281 1617 3432 
Q 1894 3584 2278 3584 
Q 2916 3584 3314 3078 
Q 3713 2572 3713 1747 
Q 3713 922 3314 415 
Q 2916 -91 2278 -91 
Q 1894 -91 1617 61 
Q 1341 213 1159 525 
L 1159 0 
L 581 0 
L 581 4863 
L 1159 4863 
L 1159 2969 
z
" transform="scale(0.015625)"/>
      <path id="DejaVuSans-44" d="M 1259 4147 
L 1259 519 
L 2022 519 
Q 2988 519 3436 956 
Q 3884 1394 3884 2338 
Q 3884 3275 3436 3711 
Q 2988 4147 2022 4147 
L 1259 4147 
z
M 628 4666 
L 1925 4666 
Q 3281 4666 3915 4102 
Q 4550 3538 4550 2338 
Q 4550 1131 3912 565 
Q 3275 0 1925 0 
L 628 0 
L 628 4666 
z
" transform="scale(0.015625)"/>
      <path id="DejaVuSans-38" d="M 2034 2216 
Q 1584 2216 1326 1975 
Q 1069 1734 1069 1313 
Q 1069 891 1326 650 
Q 1584 409 2034 409 
Q 2484 409 2743 651 
Q 3003 894 3003 1313 
Q 3003 1734 2745 1975 
Q 2488 2216 2034 2216 
z
M 1403 2484 
Q 997 2584 770 2862 
Q 544 3141 544 3541 
Q 544 4100 942 4425 
Q 1341 4750 2034 4750 
Q 2731 4750 3128 4425 
Q 3525 4100 3525 3541 
Q 3525 3141 3298 2862 
Q 3072 2584 2669 2484 
Q 3125 2378 3379 2068 
Q 3634 1759 3634 1313 
Q 3634 634 3220 271 
Q 2806 -91 2034 -91 
Q 1263 -91 848 271 
Q 434 634 434 1313 
Q 434 1759 690 2068 
Q 947 2378 1403 2484 
z
M 1172 3481 
Q 1172 3119 1398 2916 
Q 1625 2713 2034 2713 
Q 2441 2713 2670 2916 
Q 2900 3119 2900 3481 
Q 2900 3844 2670 4047 
Q 2441 4250 2034 4250 
Q 1625 4250 1398 4047 
Q 1172 3844 1172 3481 
z
" transform="scale(0.015625)"/>
     </defs>
     <use xlink:href="#DejaVuSans-4d"/>
     <use xlink:href="#DejaVuSans-6f" x="86.279297"/>
     <use xlink:href="#DejaVuSans-75" x="147.460938"/>
     <use xlink:href="#DejaVuSans-73" x="210.839844"/>
     <use xlink:href="#DejaVuSans-65" x="262.939453"/>
     <use xlink:href="#DejaVuSans-3a" x="324.462891"/>
     <use xlink:href="#DejaVuSans-20" x="358.154297"/>
     <use xlink:href="#DejaVuSans-33" x="389.941406"/>
     <use xlink:href="#DejaVuSans-39" x="453.564453"/>
     <use xlink:href="#DejaVuSans-36" x="517.1875"/>
     <use xlink:href="#DejaVuSans-32" x="580.810547"/>
     <use xlink:href="#DejaVuSans-35" x="644.433594"/>
     <use xlink:href="#DejaVuSans-3b" x="708.056641"/>
     <use xlink:href="#DejaVuSans-20" x="741.748047"/>
     <use xlink:href="#DejaVuSans-50" x="773.535156"/>
     <use xlink:href="#DejaVuSans-61" x="829.337891"/>
     <use xlink:href="#DejaVuSans-72" x="890.617188"/>
     <use xlink:href="#DejaVuSans-61" x="931.730469"/>
     <use xlink:href="#DejaVuSans-64" x="993.009766"/>
     <use xlink:href="#DejaVuSans-69" x="1056.486328"/>
     <use xlink:href="#DejaVuSans-67" x="1084.269531"/>
     <use xlink:href="#DejaVuSans-6d" x="1147.746094"/>
     <use xlink:href="#DejaVuSans-3a" x="1245.158203"/>
     <use xlink:href="#DejaVuSans-20" x="1278.849609"/>
     <use xlink:href="#DejaVuSans-66" x="1310.636719"/>
     <use xlink:href="#DejaVuSans-65" x="1345.841797"/>
     <use xlink:href="#DejaVuSans-6d" x="1407.365234"/>
     <use xlink:href="#DejaVuSans-61" x="1504.777344"/>
     <use xlink:href="#DejaVuSans-6c" x="1566.056641"/>
     <use xlink:href="#DejaVuSans-65" x="1593.839844"/>
     <use xlink:href="#DejaVuSans-75" x="1655.363281"/>
     <use xlink:href="#DejaVuSans-72" x="1718.742188"/>
     <use xlink:href="#DejaVuSans-69" x="1759.855469"/>
     <use xlink:href="#DejaVuSans-6e" x="1787.638672"/>
     <use xlink:href="#DejaVuSans-65" x="1851.017578"/>
     <use xlink:href="#DejaVuSans-72" x="1912.541016"/>
     <use xlink:href="#DejaVuSans-69" x="1953.654297"/>
     <use xlink:href="#DejaVuSans-67" x="1981.4375"/>
     <use xlink:href="#DejaVuSans-68" x="2044.914062"/>
     <use xlink:href="#DejaVuSans-74" x="2108.292969"/>
     <use xlink:href="#DejaVuSans-5f" x="2147.501953"/>
     <use xlink:href="#DejaVuSans-68" x="2197.501953"/>
     <use xlink:href="#DejaVuSans-61" x="2260.880859"/>
     <use xlink:href="#DejaVuSans-62" x="2322.160156"/>
     <use xlink:href="#DejaVuSans-69" x="2385.636719"/>
     <use xlink:href="#DejaVuSans-74" x="2413.419922"/>
     <use xlink:href="#DejaVuSans-75" x="2452.628906"/>
     <use xlink:href="#DejaVuSans-61" x="2516.007812"/>
     <use xlink:href="#DejaVuSans-74" x="2577.287109"/>
     <use xlink:href="#DejaVuSans-69" x="2616.496094"/>
     <use xlink:href="#DejaVuSans-6f" x="2644.279297"/>
     <use xlink:href="#DejaVuSans-6e" x="2705.460938"/>
     <use xlink:href="#DejaVuSans-3b" x="2768.839844"/>
     <use xlink:href="#DejaVuSans-20" x="2802.53125"/>
     <use xlink:href="#DejaVuSans-44" x="2834.318359"/>
     <use xlink:href="#DejaVuSans-61" x="2911.320312"/>
     <use xlink:href="#DejaVuSans-74" x="2972.599609"/>
     <use xlink:href="#DejaVuSans-65" x="3011.808594"/>
     <use xlink:href="#DejaVuSans-3a" x="3073.332031"/>
     <use xlink:href="#DejaVuSans-20" x="3107.023438"/>
     <use xlink:href="#DejaVuSans-31" x="3138.810547"/>
     <use xlink:href="#DejaVuSans-39" x="3202.433594"/>
     <use xlink:href="#DejaVuSans-30" x="3266.056641"/>
     <use xlink:href="#DejaVuSans-38" x="3329.679688"/>
     <use xlink:href="#DejaVuSans-32" x="3393.302734"/>
     <use xlink:href="#DejaVuSans-32" x="3456.925781"/>
    </g>
   </g>
  </g>
 </g>
 <defs>
  <clipPath id="p0a097f7bc3">
   <rect x="126" y="51.84" width="781.2" height="332.64"/>
  </clipPath>
 </defs>
</svg>
