<?xml version="1.0" encoding="utf-8" standalone="no"?>
<!DOCTYPE svg PUBLIC "-//W3C//DTD SVG 1.1//EN"
  "http://www.w3.org/Graphics/SVG/1.1/DTD/svg11.dtd">
<svg xmlns:xlink="http://www.w3.org/1999/xlink" width="1008pt" height="432pt" viewBox="0 0 1008 432" xmlns="http://www.w3.org/2000/svg" version="1.1">
 <metadata>
  <rdf:RDF xmlns:dc="http://purl.org/dc/elements/1.1/" xmlns:cc="http://creativecommons.org/ns#" xmlns:rdf="http://www.w3.org/1999/02/22-rdf-syntax-ns#">
   <cc:Work>
    <dc:type rdf:resource="http://purl.org/dc/dcmitype/StillImage"/>
    <dc:date>2024-05-13T10:32:25.208766</dc:date>
    <dc:format>image/svg+xml</dc:format>
    <dc:creator>
     <cc:Agent>
      <dc:title>Matplotlib v3.8.3, https://matplotlib.org/</dc:title>
     </cc:Agent>
    </dc:creator>
   </cc:Work>
  </rdf:RDF>
 </metadata>
 <defs>
  <style type="text/css">*{stroke-linejoin: round; stroke-linecap: butt}</style>
 </defs>
 <g id="figure_1">
  <g id="patch_1">
   <path d="M 0 432 
L 1008 432 
L 1008 0 
L 0 0 
z
" style="fill: #ffffff"/>
  </g>
  <g id="axes_1">
   <g id="patch_2">
    <path d="M 126 384.48 
L 907.2 384.48 
L 907.2 51.84 
L 126 51.84 
z
"/>
   </g>
   <g id="matplotlib.axis_1">
    <g id="xtick_1">
     <g id="line2d_1">
      <defs>
       <path id="m2f5e2229ee" d="M 0 0 
L 0 3.5 
" style="stroke: #000000; stroke-width: 0.8"/>
      </defs>
      <g>
       <use xlink:href="#m2f5e2229ee" x="277.203773" y="384.48" style="stroke: #000000; stroke-width: 0.8"/>
      </g>
     </g>
     <g id="text_1">
      <!-- 2 -->
      <g transform="translate(274.022523 399.078438) scale(0.1 -0.1)">
       <defs>
        <path id="DejaVuSans-32" d="M 1228 531 
L 3431 531 
L 3431 0 
L 469 0 
L 469 531 
Q 828 903 1448 1529 
Q 2069 2156 2228 2338 
Q 2531 2678 2651 2914 
Q 2772 3150 2772 3378 
Q 2772 3750 2511 3984 
Q 2250 4219 1831 4219 
Q 1534 4219 1204 4116 
Q 875 4013 500 3803 
L 500 4441 
Q 881 4594 1212 4672 
Q 1544 4750 1819 4750 
Q 2544 4750 2975 4387 
Q 3406 4025 3406 3419 
Q 3406 3131 3298 2873 
Q 3191 2616 2906 2266 
Q 2828 2175 2409 1742 
Q 1991 1309 1228 531 
z
" transform="scale(0.015625)"/>
       </defs>
       <use xlink:href="#DejaVuSans-32"/>
      </g>
     </g>
    </g>
    <g id="xtick_2">
     <g id="line2d_2">
      <g>
       <use xlink:href="#m2f5e2229ee" x="439.140341" y="384.48" style="stroke: #000000; stroke-width: 0.8"/>
      </g>
     </g>
     <g id="text_2">
      <!-- 4 -->
      <g transform="translate(435.959091 399.078438) scale(0.1 -0.1)">
       <defs>
        <path id="DejaVuSans-34" d="M 2419 4116 
L 825 1625 
L 2419 1625 
L 2419 4116 
z
M 2253 4666 
L 3047 4666 
L 3047 1625 
L 3713 1625 
L 3713 1100 
L 3047 1100 
L 3047 0 
L 2419 0 
L 2419 1100 
L 313 1100 
L 313 1709 
L 2253 4666 
z
" transform="scale(0.015625)"/>
       </defs>
       <use xlink:href="#DejaVuSans-34"/>
      </g>
     </g>
    </g>
    <g id="xtick_3">
     <g id="line2d_3">
      <g>
       <use xlink:href="#m2f5e2229ee" x="601.07691" y="384.48" style="stroke: #000000; stroke-width: 0.8"/>
      </g>
     </g>
     <g id="text_3">
      <!-- 6 -->
      <g transform="translate(597.89566 399.078438) scale(0.1 -0.1)">
       <defs>
        <path id="DejaVuSans-36" d="M 2113 2584 
Q 1688 2584 1439 2293 
Q 1191 2003 1191 1497 
Q 1191 994 1439 701 
Q 1688 409 2113 409 
Q 2538 409 2786 701 
Q 3034 994 3034 1497 
Q 3034 2003 2786 2293 
Q 2538 2584 2113 2584 
z
M 3366 4563 
L 3366 3988 
Q 3128 4100 2886 4159 
Q 2644 4219 2406 4219 
Q 1781 4219 1451 3797 
Q 1122 3375 1075 2522 
Q 1259 2794 1537 2939 
Q 1816 3084 2150 3084 
Q 2853 3084 3261 2657 
Q 3669 2231 3669 1497 
Q 3669 778 3244 343 
Q 2819 -91 2113 -91 
Q 1303 -91 875 529 
Q 447 1150 447 2328 
Q 447 3434 972 4092 
Q 1497 4750 2381 4750 
Q 2619 4750 2861 4703 
Q 3103 4656 3366 4563 
z
" transform="scale(0.015625)"/>
       </defs>
       <use xlink:href="#DejaVuSans-36"/>
      </g>
     </g>
    </g>
    <g id="xtick_4">
     <g id="line2d_4">
      <g>
       <use xlink:href="#m2f5e2229ee" x="763.013479" y="384.48" style="stroke: #000000; stroke-width: 0.8"/>
      </g>
     </g>
     <g id="text_4">
      <!-- 8 -->
      <g transform="translate(759.832229 399.078438) scale(0.1 -0.1)">
       <defs>
        <path id="DejaVuSans-38" d="M 2034 2216 
Q 1584 2216 1326 1975 
Q 1069 1734 1069 1313 
Q 1069 891 1326 650 
Q 1584 409 2034 409 
Q 2484 409 2743 651 
Q 3003 894 3003 1313 
Q 3003 1734 2745 1975 
Q 2488 2216 2034 2216 
z
M 1403 2484 
Q 997 2584 770 2862 
Q 544 3141 544 3541 
Q 544 4100 942 4425 
Q 1341 4750 2034 4750 
Q 2731 4750 3128 4425 
Q 3525 4100 3525 3541 
Q 3525 3141 3298 2862 
Q 3072 2584 2669 2484 
Q 3125 2378 3379 2068 
Q 3634 1759 3634 1313 
Q 3634 634 3220 271 
Q 2806 -91 2034 -91 
Q 1263 -91 848 271 
Q 434 634 434 1313 
Q 434 1759 690 2068 
Q 947 2378 1403 2484 
z
M 1172 3481 
Q 1172 3119 1398 2916 
Q 1625 2713 2034 2713 
Q 2441 2713 2670 2916 
Q 2900 3119 2900 3481 
Q 2900 3844 2670 4047 
Q 2441 4250 2034 4250 
Q 1625 4250 1398 4047 
Q 1172 3844 1172 3481 
z
" transform="scale(0.015625)"/>
       </defs>
       <use xlink:href="#DejaVuSans-38"/>
      </g>
     </g>
    </g>
    <g id="text_5">
     <!-- Experiment length [min] -->
     <g transform="translate(455.264844 412.756563) scale(0.1 -0.1)">
      <defs>
       <path id="DejaVuSans-45" d="M 628 4666 
L 3578 4666 
L 3578 4134 
L 1259 4134 
L 1259 2753 
L 3481 2753 
L 3481 2222 
L 1259 2222 
L 1259 531 
L 3634 531 
L 3634 0 
L 628 0 
L 628 4666 
z
" transform="scale(0.015625)"/>
       <path id="DejaVuSans-78" d="M 3513 3500 
L 2247 1797 
L 3578 0 
L 2900 0 
L 1881 1375 
L 863 0 
L 184 0 
L 1544 1831 
L 300 3500 
L 978 3500 
L 1906 2253 
L 2834 3500 
L 3513 3500 
z
" transform="scale(0.015625)"/>
       <path id="DejaVuSans-70" d="M 1159 525 
L 1159 -1331 
L 581 -1331 
L 581 3500 
L 1159 3500 
L 1159 2969 
Q 1341 3281 1617 3432 
Q 1894 3584 2278 3584 
Q 2916 3584 3314 3078 
Q 3713 2572 3713 1747 
Q 3713 922 3314 415 
Q 2916 -91 2278 -91 
Q 1894 -91 1617 61 
Q 1341 213 1159 525 
z
M 3116 1747 
Q 3116 2381 2855 2742 
Q 2594 3103 2138 3103 
Q 1681 3103 1420 2742 
Q 1159 2381 1159 1747 
Q 1159 1113 1420 752 
Q 1681 391 2138 391 
Q 2594 391 2855 752 
Q 3116 1113 3116 1747 
z
" transform="scale(0.015625)"/>
       <path id="DejaVuSans-65" d="M 3597 1894 
L 3597 1613 
L 953 1613 
Q 991 1019 1311 708 
Q 1631 397 2203 397 
Q 2534 397 2845 478 
Q 3156 559 3463 722 
L 3463 178 
Q 3153 47 2828 -22 
Q 2503 -91 2169 -91 
Q 1331 -91 842 396 
Q 353 884 353 1716 
Q 353 2575 817 3079 
Q 1281 3584 2069 3584 
Q 2775 3584 3186 3129 
Q 3597 2675 3597 1894 
z
M 3022 2063 
Q 3016 2534 2758 2815 
Q 2500 3097 2075 3097 
Q 1594 3097 1305 2825 
Q 1016 2553 972 2059 
L 3022 2063 
z
" transform="scale(0.015625)"/>
       <path id="DejaVuSans-72" d="M 2631 2963 
Q 2534 3019 2420 3045 
Q 2306 3072 2169 3072 
Q 1681 3072 1420 2755 
Q 1159 2438 1159 1844 
L 1159 0 
L 581 0 
L 581 3500 
L 1159 3500 
L 1159 2956 
Q 1341 3275 1631 3429 
Q 1922 3584 2338 3584 
Q 2397 3584 2469 3576 
Q 2541 3569 2628 3553 
L 2631 2963 
z
" transform="scale(0.015625)"/>
       <path id="DejaVuSans-69" d="M 603 3500 
L 1178 3500 
L 1178 0 
L 603 0 
L 603 3500 
z
M 603 4863 
L 1178 4863 
L 1178 4134 
L 603 4134 
L 603 4863 
z
" transform="scale(0.015625)"/>
       <path id="DejaVuSans-6d" d="M 3328 2828 
Q 3544 3216 3844 3400 
Q 4144 3584 4550 3584 
Q 5097 3584 5394 3201 
Q 5691 2819 5691 2113 
L 5691 0 
L 5113 0 
L 5113 2094 
Q 5113 2597 4934 2840 
Q 4756 3084 4391 3084 
Q 3944 3084 3684 2787 
Q 3425 2491 3425 1978 
L 3425 0 
L 2847 0 
L 2847 2094 
Q 2847 2600 2669 2842 
Q 2491 3084 2119 3084 
Q 1678 3084 1418 2786 
Q 1159 2488 1159 1978 
L 1159 0 
L 581 0 
L 581 3500 
L 1159 3500 
L 1159 2956 
Q 1356 3278 1631 3431 
Q 1906 3584 2284 3584 
Q 2666 3584 2933 3390 
Q 3200 3197 3328 2828 
z
" transform="scale(0.015625)"/>
       <path id="DejaVuSans-6e" d="M 3513 2113 
L 3513 0 
L 2938 0 
L 2938 2094 
Q 2938 2591 2744 2837 
Q 2550 3084 2163 3084 
Q 1697 3084 1428 2787 
Q 1159 2491 1159 1978 
L 1159 0 
L 581 0 
L 581 3500 
L 1159 3500 
L 1159 2956 
Q 1366 3272 1645 3428 
Q 1925 3584 2291 3584 
Q 2894 3584 3203 3211 
Q 3513 2838 3513 2113 
z
" transform="scale(0.015625)"/>
       <path id="DejaVuSans-74" d="M 1172 4494 
L 1172 3500 
L 2356 3500 
L 2356 3053 
L 1172 3053 
L 1172 1153 
Q 1172 725 1289 603 
Q 1406 481 1766 481 
L 2356 481 
L 2356 0 
L 1766 0 
Q 1100 0 847 248 
Q 594 497 594 1153 
L 594 3053 
L 172 3053 
L 172 3500 
L 594 3500 
L 594 4494 
L 1172 4494 
z
" transform="scale(0.015625)"/>
       <path id="DejaVuSans-20" transform="scale(0.015625)"/>
       <path id="DejaVuSans-6c" d="M 603 4863 
L 1178 4863 
L 1178 0 
L 603 0 
L 603 4863 
z
" transform="scale(0.015625)"/>
       <path id="DejaVuSans-67" d="M 2906 1791 
Q 2906 2416 2648 2759 
Q 2391 3103 1925 3103 
Q 1463 3103 1205 2759 
Q 947 2416 947 1791 
Q 947 1169 1205 825 
Q 1463 481 1925 481 
Q 2391 481 2648 825 
Q 2906 1169 2906 1791 
z
M 3481 434 
Q 3481 -459 3084 -895 
Q 2688 -1331 1869 -1331 
Q 1566 -1331 1297 -1286 
Q 1028 -1241 775 -1147 
L 775 -588 
Q 1028 -725 1275 -790 
Q 1522 -856 1778 -856 
Q 2344 -856 2625 -561 
Q 2906 -266 2906 331 
L 2906 616 
Q 2728 306 2450 153 
Q 2172 0 1784 0 
Q 1141 0 747 490 
Q 353 981 353 1791 
Q 353 2603 747 3093 
Q 1141 3584 1784 3584 
Q 2172 3584 2450 3431 
Q 2728 3278 2906 2969 
L 2906 3500 
L 3481 3500 
L 3481 434 
z
" transform="scale(0.015625)"/>
       <path id="DejaVuSans-68" d="M 3513 2113 
L 3513 0 
L 2938 0 
L 2938 2094 
Q 2938 2591 2744 2837 
Q 2550 3084 2163 3084 
Q 1697 3084 1428 2787 
Q 1159 2491 1159 1978 
L 1159 0 
L 581 0 
L 581 4863 
L 1159 4863 
L 1159 2956 
Q 1366 3272 1645 3428 
Q 1925 3584 2291 3584 
Q 2894 3584 3203 3211 
Q 3513 2838 3513 2113 
z
" transform="scale(0.015625)"/>
       <path id="DejaVuSans-5b" d="M 550 4863 
L 1875 4863 
L 1875 4416 
L 1125 4416 
L 1125 -397 
L 1875 -397 
L 1875 -844 
L 550 -844 
L 550 4863 
z
" transform="scale(0.015625)"/>
       <path id="DejaVuSans-5d" d="M 1947 4863 
L 1947 -844 
L 622 -844 
L 622 -397 
L 1369 -397 
L 1369 4416 
L 622 4416 
L 622 4863 
L 1947 4863 
z
" transform="scale(0.015625)"/>
      </defs>
      <use xlink:href="#DejaVuSans-45"/>
      <use xlink:href="#DejaVuSans-78" x="63.183594"/>
      <use xlink:href="#DejaVuSans-70" x="122.363281"/>
      <use xlink:href="#DejaVuSans-65" x="185.839844"/>
      <use xlink:href="#DejaVuSans-72" x="247.363281"/>
      <use xlink:href="#DejaVuSans-69" x="288.476562"/>
      <use xlink:href="#DejaVuSans-6d" x="316.259766"/>
      <use xlink:href="#DejaVuSans-65" x="413.671875"/>
      <use xlink:href="#DejaVuSans-6e" x="475.195312"/>
      <use xlink:href="#DejaVuSans-74" x="538.574219"/>
      <use xlink:href="#DejaVuSans-20" x="577.783203"/>
      <use xlink:href="#DejaVuSans-6c" x="609.570312"/>
      <use xlink:href="#DejaVuSans-65" x="637.353516"/>
      <use xlink:href="#DejaVuSans-6e" x="698.876953"/>
      <use xlink:href="#DejaVuSans-67" x="762.255859"/>
      <use xlink:href="#DejaVuSans-74" x="825.732422"/>
      <use xlink:href="#DejaVuSans-68" x="864.941406"/>
      <use xlink:href="#DejaVuSans-20" x="928.320312"/>
      <use xlink:href="#DejaVuSans-5b" x="960.107422"/>
      <use xlink:href="#DejaVuSans-6d" x="999.121094"/>
      <use xlink:href="#DejaVuSans-69" x="1096.533203"/>
      <use xlink:href="#DejaVuSans-6e" x="1124.316406"/>
      <use xlink:href="#DejaVuSans-5d" x="1187.695312"/>
     </g>
    </g>
   </g>
   <g id="matplotlib.axis_2">
    <g id="ytick_1">
     <g id="line2d_5">
      <defs>
       <path id="m0a11a3e58e" d="M 0 0 
L -3.5 0 
" style="stroke: #000000; stroke-width: 0.8"/>
      </defs>
      <g>
       <use xlink:href="#m0a11a3e58e" x="126" y="268.56" style="stroke: #000000; stroke-width: 0.8"/>
      </g>
     </g>
     <g id="text_6">
      <!-- deg sniff left dish -->
      <g transform="translate(32.379687 272.359219) scale(0.1 -0.1)">
       <defs>
        <path id="DejaVuSans-64" d="M 2906 2969 
L 2906 4863 
L 3481 4863 
L 3481 0 
L 2906 0 
L 2906 525 
Q 2725 213 2448 61 
Q 2172 -91 1784 -91 
Q 1150 -91 751 415 
Q 353 922 353 1747 
Q 353 2572 751 3078 
Q 1150 3584 1784 3584 
Q 2172 3584 2448 3432 
Q 2725 3281 2906 2969 
z
M 947 1747 
Q 947 1113 1208 752 
Q 1469 391 1925 391 
Q 2381 391 2643 752 
Q 2906 1113 2906 1747 
Q 2906 2381 2643 2742 
Q 2381 3103 1925 3103 
Q 1469 3103 1208 2742 
Q 947 2381 947 1747 
z
" transform="scale(0.015625)"/>
        <path id="DejaVuSans-73" d="M 2834 3397 
L 2834 2853 
Q 2591 2978 2328 3040 
Q 2066 3103 1784 3103 
Q 1356 3103 1142 2972 
Q 928 2841 928 2578 
Q 928 2378 1081 2264 
Q 1234 2150 1697 2047 
L 1894 2003 
Q 2506 1872 2764 1633 
Q 3022 1394 3022 966 
Q 3022 478 2636 193 
Q 2250 -91 1575 -91 
Q 1294 -91 989 -36 
Q 684 19 347 128 
L 347 722 
Q 666 556 975 473 
Q 1284 391 1588 391 
Q 1994 391 2212 530 
Q 2431 669 2431 922 
Q 2431 1156 2273 1281 
Q 2116 1406 1581 1522 
L 1381 1569 
Q 847 1681 609 1914 
Q 372 2147 372 2553 
Q 372 3047 722 3315 
Q 1072 3584 1716 3584 
Q 2034 3584 2315 3537 
Q 2597 3491 2834 3397 
z
" transform="scale(0.015625)"/>
        <path id="DejaVuSans-66" d="M 2375 4863 
L 2375 4384 
L 1825 4384 
Q 1516 4384 1395 4259 
Q 1275 4134 1275 3809 
L 1275 3500 
L 2222 3500 
L 2222 3053 
L 1275 3053 
L 1275 0 
L 697 0 
L 697 3053 
L 147 3053 
L 147 3500 
L 697 3500 
L 697 3744 
Q 697 4328 969 4595 
Q 1241 4863 1831 4863 
L 2375 4863 
z
" transform="scale(0.015625)"/>
       </defs>
       <use xlink:href="#DejaVuSans-64"/>
       <use xlink:href="#DejaVuSans-65" x="63.476562"/>
       <use xlink:href="#DejaVuSans-67" x="125"/>
       <use xlink:href="#DejaVuSans-20" x="188.476562"/>
       <use xlink:href="#DejaVuSans-73" x="220.263672"/>
       <use xlink:href="#DejaVuSans-6e" x="272.363281"/>
       <use xlink:href="#DejaVuSans-69" x="335.742188"/>
       <use xlink:href="#DejaVuSans-66" x="363.525391"/>
       <use xlink:href="#DejaVuSans-66" x="398.730469"/>
       <use xlink:href="#DejaVuSans-20" x="433.935547"/>
       <use xlink:href="#DejaVuSans-6c" x="465.722656"/>
       <use xlink:href="#DejaVuSans-65" x="493.505859"/>
       <use xlink:href="#DejaVuSans-66" x="555.029297"/>
       <use xlink:href="#DejaVuSans-74" x="588.484375"/>
       <use xlink:href="#DejaVuSans-20" x="627.693359"/>
       <use xlink:href="#DejaVuSans-64" x="659.480469"/>
       <use xlink:href="#DejaVuSans-69" x="722.957031"/>
       <use xlink:href="#DejaVuSans-73" x="750.740234"/>
       <use xlink:href="#DejaVuSans-68" x="802.839844"/>
      </g>
     </g>
    </g>
    <g id="ytick_2">
     <g id="line2d_6">
      <g>
       <use xlink:href="#m0a11a3e58e" x="126" y="167.76" style="stroke: #000000; stroke-width: 0.8"/>
      </g>
     </g>
     <g id="text_7">
      <!-- deg sniff right dish -->
      <g transform="translate(25.08125 171.559219) scale(0.1 -0.1)">
       <use xlink:href="#DejaVuSans-64"/>
       <use xlink:href="#DejaVuSans-65" x="63.476562"/>
       <use xlink:href="#DejaVuSans-67" x="125"/>
       <use xlink:href="#DejaVuSans-20" x="188.476562"/>
       <use xlink:href="#DejaVuSans-73" x="220.263672"/>
       <use xlink:href="#DejaVuSans-6e" x="272.363281"/>
       <use xlink:href="#DejaVuSans-69" x="335.742188"/>
       <use xlink:href="#DejaVuSans-66" x="363.525391"/>
       <use xlink:href="#DejaVuSans-66" x="398.730469"/>
       <use xlink:href="#DejaVuSans-20" x="433.935547"/>
       <use xlink:href="#DejaVuSans-72" x="465.722656"/>
       <use xlink:href="#DejaVuSans-69" x="506.835938"/>
       <use xlink:href="#DejaVuSans-67" x="534.619141"/>
       <use xlink:href="#DejaVuSans-68" x="598.095703"/>
       <use xlink:href="#DejaVuSans-74" x="661.474609"/>
       <use xlink:href="#DejaVuSans-20" x="700.683594"/>
       <use xlink:href="#DejaVuSans-64" x="732.470703"/>
       <use xlink:href="#DejaVuSans-69" x="795.947266"/>
       <use xlink:href="#DejaVuSans-73" x="823.730469"/>
       <use xlink:href="#DejaVuSans-68" x="875.830078"/>
      </g>
     </g>
    </g>
   </g>
   <g id="EventCollection_1">
    <path d="M 177.342889 218.16 
L 177.342889 318.96 
" clip-path="url(#pb4c2c80a33)" style="fill: none; stroke: #bf00bf; stroke-width: 0.5"/>
    <path d="M 177.432853 218.16 
L 177.432853 318.96 
" clip-path="url(#pb4c2c80a33)" style="fill: none; stroke: #bf00bf; stroke-width: 0.5"/>
    <path d="M 177.522818 218.16 
L 177.522818 318.96 
" clip-path="url(#pb4c2c80a33)" style="fill: none; stroke: #bf00bf; stroke-width: 0.5"/>
    <path d="M 177.612783 218.16 
L 177.612783 318.96 
" clip-path="url(#pb4c2c80a33)" style="fill: none; stroke: #bf00bf; stroke-width: 0.5"/>
    <path d="M 177.702748 218.16 
L 177.702748 318.96 
" clip-path="url(#pb4c2c80a33)" style="fill: none; stroke: #bf00bf; stroke-width: 0.5"/>
    <path d="M 177.792713 218.16 
L 177.792713 318.96 
" clip-path="url(#pb4c2c80a33)" style="fill: none; stroke: #bf00bf; stroke-width: 0.5"/>
    <path d="M 177.882677 218.16 
L 177.882677 318.96 
" clip-path="url(#pb4c2c80a33)" style="fill: none; stroke: #bf00bf; stroke-width: 0.5"/>
    <path d="M 414.939821 218.16 
L 414.939821 318.96 
" clip-path="url(#pb4c2c80a33)" style="fill: none; stroke: #bf00bf; stroke-width: 0.5"/>
    <path d="M 415.029786 218.16 
L 415.029786 318.96 
" clip-path="url(#pb4c2c80a33)" style="fill: none; stroke: #bf00bf; stroke-width: 0.5"/>
    <path d="M 415.11975 218.16 
L 415.11975 318.96 
" clip-path="url(#pb4c2c80a33)" style="fill: none; stroke: #bf00bf; stroke-width: 0.5"/>
    <path d="M 415.209715 218.16 
L 415.209715 318.96 
" clip-path="url(#pb4c2c80a33)" style="fill: none; stroke: #bf00bf; stroke-width: 0.5"/>
    <path d="M 415.29968 218.16 
L 415.29968 318.96 
" clip-path="url(#pb4c2c80a33)" style="fill: none; stroke: #bf00bf; stroke-width: 0.5"/>
    <path d="M 415.389645 218.16 
L 415.389645 318.96 
" clip-path="url(#pb4c2c80a33)" style="fill: none; stroke: #bf00bf; stroke-width: 0.5"/>
    <path d="M 415.479609 218.16 
L 415.479609 318.96 
" clip-path="url(#pb4c2c80a33)" style="fill: none; stroke: #bf00bf; stroke-width: 0.5"/>
    <path d="M 415.569574 218.16 
L 415.569574 318.96 
" clip-path="url(#pb4c2c80a33)" style="fill: none; stroke: #bf00bf; stroke-width: 0.5"/>
    <path d="M 415.659539 218.16 
L 415.659539 318.96 
" clip-path="url(#pb4c2c80a33)" style="fill: none; stroke: #bf00bf; stroke-width: 0.5"/>
    <path d="M 415.749504 218.16 
L 415.749504 318.96 
" clip-path="url(#pb4c2c80a33)" style="fill: none; stroke: #bf00bf; stroke-width: 0.5"/>
    <path d="M 415.839468 218.16 
L 415.839468 318.96 
" clip-path="url(#pb4c2c80a33)" style="fill: none; stroke: #bf00bf; stroke-width: 0.5"/>
    <path d="M 415.929433 218.16 
L 415.929433 318.96 
" clip-path="url(#pb4c2c80a33)" style="fill: none; stroke: #bf00bf; stroke-width: 0.5"/>
    <path d="M 416.019398 218.16 
L 416.019398 318.96 
" clip-path="url(#pb4c2c80a33)" style="fill: none; stroke: #bf00bf; stroke-width: 0.5"/>
    <path d="M 416.109363 218.16 
L 416.109363 318.96 
" clip-path="url(#pb4c2c80a33)" style="fill: none; stroke: #bf00bf; stroke-width: 0.5"/>
    <path d="M 416.199327 218.16 
L 416.199327 318.96 
" clip-path="url(#pb4c2c80a33)" style="fill: none; stroke: #bf00bf; stroke-width: 0.5"/>
    <path d="M 416.289292 218.16 
L 416.289292 318.96 
" clip-path="url(#pb4c2c80a33)" style="fill: none; stroke: #bf00bf; stroke-width: 0.5"/>
    <path d="M 472.697197 218.16 
L 472.697197 318.96 
" clip-path="url(#pb4c2c80a33)" style="fill: none; stroke: #bf00bf; stroke-width: 0.5"/>
    <path d="M 472.787162 218.16 
L 472.787162 318.96 
" clip-path="url(#pb4c2c80a33)" style="fill: none; stroke: #bf00bf; stroke-width: 0.5"/>
    <path d="M 472.877126 218.16 
L 472.877126 318.96 
" clip-path="url(#pb4c2c80a33)" style="fill: none; stroke: #bf00bf; stroke-width: 0.5"/>
    <path d="M 472.967091 218.16 
L 472.967091 318.96 
" clip-path="url(#pb4c2c80a33)" style="fill: none; stroke: #bf00bf; stroke-width: 0.5"/>
    <path d="M 507.063735 218.16 
L 507.063735 318.96 
" clip-path="url(#pb4c2c80a33)" style="fill: none; stroke: #bf00bf; stroke-width: 0.5"/>
    <path d="M 507.1537 218.16 
L 507.1537 318.96 
" clip-path="url(#pb4c2c80a33)" style="fill: none; stroke: #bf00bf; stroke-width: 0.5"/>
    <path d="M 507.243665 218.16 
L 507.243665 318.96 
" clip-path="url(#pb4c2c80a33)" style="fill: none; stroke: #bf00bf; stroke-width: 0.5"/>
    <path d="M 507.33363 218.16 
L 507.33363 318.96 
" clip-path="url(#pb4c2c80a33)" style="fill: none; stroke: #bf00bf; stroke-width: 0.5"/>
    <path d="M 507.423594 218.16 
L 507.423594 318.96 
" clip-path="url(#pb4c2c80a33)" style="fill: none; stroke: #bf00bf; stroke-width: 0.5"/>
    <path d="M 535.042776 218.16 
L 535.042776 318.96 
" clip-path="url(#pb4c2c80a33)" style="fill: none; stroke: #bf00bf; stroke-width: 0.5"/>
    <path d="M 535.132741 218.16 
L 535.132741 318.96 
" clip-path="url(#pb4c2c80a33)" style="fill: none; stroke: #bf00bf; stroke-width: 0.5"/>
    <path d="M 535.222705 218.16 
L 535.222705 318.96 
" clip-path="url(#pb4c2c80a33)" style="fill: none; stroke: #bf00bf; stroke-width: 0.5"/>
    <path d="M 535.31267 218.16 
L 535.31267 318.96 
" clip-path="url(#pb4c2c80a33)" style="fill: none; stroke: #bf00bf; stroke-width: 0.5"/>
    <path d="M 535.402635 218.16 
L 535.402635 318.96 
" clip-path="url(#pb4c2c80a33)" style="fill: none; stroke: #bf00bf; stroke-width: 0.5"/>
    <path d="M 535.4926 218.16 
L 535.4926 318.96 
" clip-path="url(#pb4c2c80a33)" style="fill: none; stroke: #bf00bf; stroke-width: 0.5"/>
    <path d="M 535.582564 218.16 
L 535.582564 318.96 
" clip-path="url(#pb4c2c80a33)" style="fill: none; stroke: #bf00bf; stroke-width: 0.5"/>
    <path d="M 536.572177 218.16 
L 536.572177 318.96 
" clip-path="url(#pb4c2c80a33)" style="fill: none; stroke: #bf00bf; stroke-width: 0.5"/>
    <path d="M 536.662142 218.16 
L 536.662142 318.96 
" clip-path="url(#pb4c2c80a33)" style="fill: none; stroke: #bf00bf; stroke-width: 0.5"/>
    <path d="M 536.752106 218.16 
L 536.752106 318.96 
" clip-path="url(#pb4c2c80a33)" style="fill: none; stroke: #bf00bf; stroke-width: 0.5"/>
    <path d="M 536.842071 218.16 
L 536.842071 318.96 
" clip-path="url(#pb4c2c80a33)" style="fill: none; stroke: #bf00bf; stroke-width: 0.5"/>
    <path d="M 545.208794 218.16 
L 545.208794 318.96 
" clip-path="url(#pb4c2c80a33)" style="fill: none; stroke: #bf00bf; stroke-width: 0.5"/>
    <path d="M 545.298759 218.16 
L 545.298759 318.96 
" clip-path="url(#pb4c2c80a33)" style="fill: none; stroke: #bf00bf; stroke-width: 0.5"/>
    <path d="M 545.388723 218.16 
L 545.388723 318.96 
" clip-path="url(#pb4c2c80a33)" style="fill: none; stroke: #bf00bf; stroke-width: 0.5"/>
    <path d="M 545.478688 218.16 
L 545.478688 318.96 
" clip-path="url(#pb4c2c80a33)" style="fill: none; stroke: #bf00bf; stroke-width: 0.5"/>
    <path d="M 698.508745 218.16 
L 698.508745 318.96 
" clip-path="url(#pb4c2c80a33)" style="fill: none; stroke: #bf00bf; stroke-width: 0.5"/>
    <path d="M 698.59871 218.16 
L 698.59871 318.96 
" clip-path="url(#pb4c2c80a33)" style="fill: none; stroke: #bf00bf; stroke-width: 0.5"/>
    <path d="M 698.688675 218.16 
L 698.688675 318.96 
" clip-path="url(#pb4c2c80a33)" style="fill: none; stroke: #bf00bf; stroke-width: 0.5"/>
    <path d="M 698.77864 218.16 
L 698.77864 318.96 
" clip-path="url(#pb4c2c80a33)" style="fill: none; stroke: #bf00bf; stroke-width: 0.5"/>
    <path d="M 698.868604 218.16 
L 698.868604 318.96 
" clip-path="url(#pb4c2c80a33)" style="fill: none; stroke: #bf00bf; stroke-width: 0.5"/>
    <path d="M 698.958569 218.16 
L 698.958569 318.96 
" clip-path="url(#pb4c2c80a33)" style="fill: none; stroke: #bf00bf; stroke-width: 0.5"/>
    <path d="M 770.390589 218.16 
L 770.390589 318.96 
" clip-path="url(#pb4c2c80a33)" style="fill: none; stroke: #bf00bf; stroke-width: 0.5"/>
    <path d="M 770.480554 218.16 
L 770.480554 318.96 
" clip-path="url(#pb4c2c80a33)" style="fill: none; stroke: #bf00bf; stroke-width: 0.5"/>
    <path d="M 770.570518 218.16 
L 770.570518 318.96 
" clip-path="url(#pb4c2c80a33)" style="fill: none; stroke: #bf00bf; stroke-width: 0.5"/>
    <path d="M 770.660483 218.16 
L 770.660483 318.96 
" clip-path="url(#pb4c2c80a33)" style="fill: none; stroke: #bf00bf; stroke-width: 0.5"/>
    <path d="M 779.926854 218.16 
L 779.926854 318.96 
" clip-path="url(#pb4c2c80a33)" style="fill: none; stroke: #bf00bf; stroke-width: 0.5"/>
    <path d="M 780.016818 218.16 
L 780.016818 318.96 
" clip-path="url(#pb4c2c80a33)" style="fill: none; stroke: #bf00bf; stroke-width: 0.5"/>
    <path d="M 780.106783 218.16 
L 780.106783 318.96 
" clip-path="url(#pb4c2c80a33)" style="fill: none; stroke: #bf00bf; stroke-width: 0.5"/>
    <path d="M 780.196748 218.16 
L 780.196748 318.96 
" clip-path="url(#pb4c2c80a33)" style="fill: none; stroke: #bf00bf; stroke-width: 0.5"/>
    <path d="M 797.649911 218.16 
L 797.649911 318.96 
" clip-path="url(#pb4c2c80a33)" style="fill: none; stroke: #bf00bf; stroke-width: 0.5"/>
    <path d="M 797.739876 218.16 
L 797.739876 318.96 
" clip-path="url(#pb4c2c80a33)" style="fill: none; stroke: #bf00bf; stroke-width: 0.5"/>
    <path d="M 797.829841 218.16 
L 797.829841 318.96 
" clip-path="url(#pb4c2c80a33)" style="fill: none; stroke: #bf00bf; stroke-width: 0.5"/>
    <path d="M 797.919806 218.16 
L 797.919806 318.96 
" clip-path="url(#pb4c2c80a33)" style="fill: none; stroke: #bf00bf; stroke-width: 0.5"/>
    <path d="M 798.00977 218.16 
L 798.00977 318.96 
" clip-path="url(#pb4c2c80a33)" style="fill: none; stroke: #bf00bf; stroke-width: 0.5"/>
    <path d="M 798.099735 218.16 
L 798.099735 318.96 
" clip-path="url(#pb4c2c80a33)" style="fill: none; stroke: #bf00bf; stroke-width: 0.5"/>
    <path d="M 798.1897 218.16 
L 798.1897 318.96 
" clip-path="url(#pb4c2c80a33)" style="fill: none; stroke: #bf00bf; stroke-width: 0.5"/>
    <path d="M 798.279665 218.16 
L 798.279665 318.96 
" clip-path="url(#pb4c2c80a33)" style="fill: none; stroke: #bf00bf; stroke-width: 0.5"/>
    <path d="M 798.369629 218.16 
L 798.369629 318.96 
" clip-path="url(#pb4c2c80a33)" style="fill: none; stroke: #bf00bf; stroke-width: 0.5"/>
    <path d="M 798.459594 218.16 
L 798.459594 318.96 
" clip-path="url(#pb4c2c80a33)" style="fill: none; stroke: #bf00bf; stroke-width: 0.5"/>
    <path d="M 798.549559 218.16 
L 798.549559 318.96 
" clip-path="url(#pb4c2c80a33)" style="fill: none; stroke: #bf00bf; stroke-width: 0.5"/>
    <path d="M 798.639524 218.16 
L 798.639524 318.96 
" clip-path="url(#pb4c2c80a33)" style="fill: none; stroke: #bf00bf; stroke-width: 0.5"/>
    <path d="M 798.729488 218.16 
L 798.729488 318.96 
" clip-path="url(#pb4c2c80a33)" style="fill: none; stroke: #bf00bf; stroke-width: 0.5"/>
    <path d="M 798.819453 218.16 
L 798.819453 318.96 
" clip-path="url(#pb4c2c80a33)" style="fill: none; stroke: #bf00bf; stroke-width: 0.5"/>
    <path d="M 798.909418 218.16 
L 798.909418 318.96 
" clip-path="url(#pb4c2c80a33)" style="fill: none; stroke: #bf00bf; stroke-width: 0.5"/>
    <path d="M 798.999383 218.16 
L 798.999383 318.96 
" clip-path="url(#pb4c2c80a33)" style="fill: none; stroke: #bf00bf; stroke-width: 0.5"/>
    <path d="M 799.089347 218.16 
L 799.089347 318.96 
" clip-path="url(#pb4c2c80a33)" style="fill: none; stroke: #bf00bf; stroke-width: 0.5"/>
    <path d="M 799.179312 218.16 
L 799.179312 318.96 
" clip-path="url(#pb4c2c80a33)" style="fill: none; stroke: #bf00bf; stroke-width: 0.5"/>
    <path d="M 799.269277 218.16 
L 799.269277 318.96 
" clip-path="url(#pb4c2c80a33)" style="fill: none; stroke: #bf00bf; stroke-width: 0.5"/>
    <path d="M 811.144625 218.16 
L 811.144625 318.96 
" clip-path="url(#pb4c2c80a33)" style="fill: none; stroke: #bf00bf; stroke-width: 0.5"/>
    <path d="M 811.23459 218.16 
L 811.23459 318.96 
" clip-path="url(#pb4c2c80a33)" style="fill: none; stroke: #bf00bf; stroke-width: 0.5"/>
    <path d="M 811.324555 218.16 
L 811.324555 318.96 
" clip-path="url(#pb4c2c80a33)" style="fill: none; stroke: #bf00bf; stroke-width: 0.5"/>
    <path d="M 811.41452 218.16 
L 811.41452 318.96 
" clip-path="url(#pb4c2c80a33)" style="fill: none; stroke: #bf00bf; stroke-width: 0.5"/>
    <path d="M 811.504484 218.16 
L 811.504484 318.96 
" clip-path="url(#pb4c2c80a33)" style="fill: none; stroke: #bf00bf; stroke-width: 0.5"/>
    <path d="M 811.594449 218.16 
L 811.594449 318.96 
" clip-path="url(#pb4c2c80a33)" style="fill: none; stroke: #bf00bf; stroke-width: 0.5"/>
    <path d="M 811.684414 218.16 
L 811.684414 318.96 
" clip-path="url(#pb4c2c80a33)" style="fill: none; stroke: #bf00bf; stroke-width: 0.5"/>
    <path d="M 811.774379 218.16 
L 811.774379 318.96 
" clip-path="url(#pb4c2c80a33)" style="fill: none; stroke: #bf00bf; stroke-width: 0.5"/>
    <path d="M 811.864343 218.16 
L 811.864343 318.96 
" clip-path="url(#pb4c2c80a33)" style="fill: none; stroke: #bf00bf; stroke-width: 0.5"/>
    <path d="M 811.954308 218.16 
L 811.954308 318.96 
" clip-path="url(#pb4c2c80a33)" style="fill: none; stroke: #bf00bf; stroke-width: 0.5"/>
    <path d="M 812.044273 218.16 
L 812.044273 318.96 
" clip-path="url(#pb4c2c80a33)" style="fill: none; stroke: #bf00bf; stroke-width: 0.5"/>
    <path d="M 812.134238 218.16 
L 812.134238 318.96 
" clip-path="url(#pb4c2c80a33)" style="fill: none; stroke: #bf00bf; stroke-width: 0.5"/>
   </g>
   <g id="EventCollection_2">
    <path d="M 161.509091 117.36 
L 161.509091 218.16 
" clip-path="url(#pb4c2c80a33)" style="fill: none; stroke: #bfbf00; stroke-width: 0.5"/>
    <path d="M 161.599056 117.36 
L 161.599056 218.16 
" clip-path="url(#pb4c2c80a33)" style="fill: none; stroke: #bfbf00; stroke-width: 0.5"/>
    <path d="M 161.68902 117.36 
L 161.68902 218.16 
" clip-path="url(#pb4c2c80a33)" style="fill: none; stroke: #bfbf00; stroke-width: 0.5"/>
    <path d="M 173.564369 117.36 
L 173.564369 218.16 
" clip-path="url(#pb4c2c80a33)" style="fill: none; stroke: #bfbf00; stroke-width: 0.5"/>
    <path d="M 173.654334 117.36 
L 173.654334 218.16 
" clip-path="url(#pb4c2c80a33)" style="fill: none; stroke: #bfbf00; stroke-width: 0.5"/>
    <path d="M 173.744298 117.36 
L 173.744298 218.16 
" clip-path="url(#pb4c2c80a33)" style="fill: none; stroke: #bfbf00; stroke-width: 0.5"/>
    <path d="M 173.834263 117.36 
L 173.834263 218.16 
" clip-path="url(#pb4c2c80a33)" style="fill: none; stroke: #bfbf00; stroke-width: 0.5"/>
    <path d="M 255.162406 117.36 
L 255.162406 218.16 
" clip-path="url(#pb4c2c80a33)" style="fill: none; stroke: #bfbf00; stroke-width: 0.5"/>
    <path d="M 255.252371 117.36 
L 255.252371 218.16 
" clip-path="url(#pb4c2c80a33)" style="fill: none; stroke: #bfbf00; stroke-width: 0.5"/>
    <path d="M 255.342336 117.36 
L 255.342336 218.16 
" clip-path="url(#pb4c2c80a33)" style="fill: none; stroke: #bfbf00; stroke-width: 0.5"/>
    <path d="M 255.432301 117.36 
L 255.432301 218.16 
" clip-path="url(#pb4c2c80a33)" style="fill: none; stroke: #bfbf00; stroke-width: 0.5"/>
    <path d="M 266.94779 117.36 
L 266.94779 218.16 
" clip-path="url(#pb4c2c80a33)" style="fill: none; stroke: #bfbf00; stroke-width: 0.5"/>
    <path d="M 267.037755 117.36 
L 267.037755 218.16 
" clip-path="url(#pb4c2c80a33)" style="fill: none; stroke: #bfbf00; stroke-width: 0.5"/>
    <path d="M 267.12772 117.36 
L 267.12772 218.16 
" clip-path="url(#pb4c2c80a33)" style="fill: none; stroke: #bfbf00; stroke-width: 0.5"/>
    <path d="M 267.217684 117.36 
L 267.217684 218.16 
" clip-path="url(#pb4c2c80a33)" style="fill: none; stroke: #bfbf00; stroke-width: 0.5"/>
    <path d="M 267.307649 117.36 
L 267.307649 218.16 
" clip-path="url(#pb4c2c80a33)" style="fill: none; stroke: #bfbf00; stroke-width: 0.5"/>
    <path d="M 289.61891 117.36 
L 289.61891 218.16 
" clip-path="url(#pb4c2c80a33)" style="fill: none; stroke: #bfbf00; stroke-width: 0.5"/>
    <path d="M 289.708874 117.36 
L 289.708874 218.16 
" clip-path="url(#pb4c2c80a33)" style="fill: none; stroke: #bfbf00; stroke-width: 0.5"/>
    <path d="M 289.798839 117.36 
L 289.798839 218.16 
" clip-path="url(#pb4c2c80a33)" style="fill: none; stroke: #bfbf00; stroke-width: 0.5"/>
    <path d="M 290.428592 117.36 
L 290.428592 218.16 
" clip-path="url(#pb4c2c80a33)" style="fill: none; stroke: #bfbf00; stroke-width: 0.5"/>
    <path d="M 290.518557 117.36 
L 290.518557 218.16 
" clip-path="url(#pb4c2c80a33)" style="fill: none; stroke: #bfbf00; stroke-width: 0.5"/>
    <path d="M 290.608522 117.36 
L 290.608522 218.16 
" clip-path="url(#pb4c2c80a33)" style="fill: none; stroke: #bfbf00; stroke-width: 0.5"/>
    <path d="M 290.698487 117.36 
L 290.698487 218.16 
" clip-path="url(#pb4c2c80a33)" style="fill: none; stroke: #bfbf00; stroke-width: 0.5"/>
    <path d="M 290.788452 117.36 
L 290.788452 218.16 
" clip-path="url(#pb4c2c80a33)" style="fill: none; stroke: #bfbf00; stroke-width: 0.5"/>
    <path d="M 290.878416 117.36 
L 290.878416 218.16 
" clip-path="url(#pb4c2c80a33)" style="fill: none; stroke: #bfbf00; stroke-width: 0.5"/>
    <path d="M 290.968381 117.36 
L 290.968381 218.16 
" clip-path="url(#pb4c2c80a33)" style="fill: none; stroke: #bfbf00; stroke-width: 0.5"/>
    <path d="M 291.418205 117.36 
L 291.418205 218.16 
" clip-path="url(#pb4c2c80a33)" style="fill: none; stroke: #bfbf00; stroke-width: 0.5"/>
    <path d="M 291.50817 117.36 
L 291.50817 218.16 
" clip-path="url(#pb4c2c80a33)" style="fill: none; stroke: #bfbf00; stroke-width: 0.5"/>
    <path d="M 291.598134 117.36 
L 291.598134 218.16 
" clip-path="url(#pb4c2c80a33)" style="fill: none; stroke: #bfbf00; stroke-width: 0.5"/>
    <path d="M 291.688099 117.36 
L 291.688099 218.16 
" clip-path="url(#pb4c2c80a33)" style="fill: none; stroke: #bfbf00; stroke-width: 0.5"/>
    <path d="M 291.778064 117.36 
L 291.778064 218.16 
" clip-path="url(#pb4c2c80a33)" style="fill: none; stroke: #bfbf00; stroke-width: 0.5"/>
    <path d="M 291.868029 117.36 
L 291.868029 218.16 
" clip-path="url(#pb4c2c80a33)" style="fill: none; stroke: #bfbf00; stroke-width: 0.5"/>
    <path d="M 291.957993 117.36 
L 291.957993 218.16 
" clip-path="url(#pb4c2c80a33)" style="fill: none; stroke: #bfbf00; stroke-width: 0.5"/>
    <path d="M 292.857641 117.36 
L 292.857641 218.16 
" clip-path="url(#pb4c2c80a33)" style="fill: none; stroke: #bfbf00; stroke-width: 0.5"/>
    <path d="M 292.947606 117.36 
L 292.947606 218.16 
" clip-path="url(#pb4c2c80a33)" style="fill: none; stroke: #bfbf00; stroke-width: 0.5"/>
    <path d="M 293.037571 117.36 
L 293.037571 218.16 
" clip-path="url(#pb4c2c80a33)" style="fill: none; stroke: #bfbf00; stroke-width: 0.5"/>
    <path d="M 293.127535 117.36 
L 293.127535 218.16 
" clip-path="url(#pb4c2c80a33)" style="fill: none; stroke: #bfbf00; stroke-width: 0.5"/>
    <path d="M 293.2175 117.36 
L 293.2175 218.16 
" clip-path="url(#pb4c2c80a33)" style="fill: none; stroke: #bfbf00; stroke-width: 0.5"/>
    <path d="M 293.577359 117.36 
L 293.577359 218.16 
" clip-path="url(#pb4c2c80a33)" style="fill: none; stroke: #bfbf00; stroke-width: 0.5"/>
    <path d="M 293.667324 117.36 
L 293.667324 218.16 
" clip-path="url(#pb4c2c80a33)" style="fill: none; stroke: #bfbf00; stroke-width: 0.5"/>
    <path d="M 293.757289 117.36 
L 293.757289 218.16 
" clip-path="url(#pb4c2c80a33)" style="fill: none; stroke: #bfbf00; stroke-width: 0.5"/>
    <path d="M 293.847253 117.36 
L 293.847253 218.16 
" clip-path="url(#pb4c2c80a33)" style="fill: none; stroke: #bfbf00; stroke-width: 0.5"/>
    <path d="M 293.937218 117.36 
L 293.937218 218.16 
" clip-path="url(#pb4c2c80a33)" style="fill: none; stroke: #bfbf00; stroke-width: 0.5"/>
    <path d="M 294.027183 117.36 
L 294.027183 218.16 
" clip-path="url(#pb4c2c80a33)" style="fill: none; stroke: #bfbf00; stroke-width: 0.5"/>
    <path d="M 294.117148 117.36 
L 294.117148 218.16 
" clip-path="url(#pb4c2c80a33)" style="fill: none; stroke: #bfbf00; stroke-width: 0.5"/>
    <path d="M 294.207112 117.36 
L 294.207112 218.16 
" clip-path="url(#pb4c2c80a33)" style="fill: none; stroke: #bfbf00; stroke-width: 0.5"/>
    <path d="M 294.297077 117.36 
L 294.297077 218.16 
" clip-path="url(#pb4c2c80a33)" style="fill: none; stroke: #bfbf00; stroke-width: 0.5"/>
    <path d="M 294.387042 117.36 
L 294.387042 218.16 
" clip-path="url(#pb4c2c80a33)" style="fill: none; stroke: #bfbf00; stroke-width: 0.5"/>
    <path d="M 294.477007 117.36 
L 294.477007 218.16 
" clip-path="url(#pb4c2c80a33)" style="fill: none; stroke: #bfbf00; stroke-width: 0.5"/>
    <path d="M 412.780667 117.36 
L 412.780667 218.16 
" clip-path="url(#pb4c2c80a33)" style="fill: none; stroke: #bfbf00; stroke-width: 0.5"/>
    <path d="M 412.870631 117.36 
L 412.870631 218.16 
" clip-path="url(#pb4c2c80a33)" style="fill: none; stroke: #bfbf00; stroke-width: 0.5"/>
    <path d="M 412.960596 117.36 
L 412.960596 218.16 
" clip-path="url(#pb4c2c80a33)" style="fill: none; stroke: #bfbf00; stroke-width: 0.5"/>
    <path d="M 413.050561 117.36 
L 413.050561 218.16 
" clip-path="url(#pb4c2c80a33)" style="fill: none; stroke: #bfbf00; stroke-width: 0.5"/>
    <path d="M 426.095451 117.36 
L 426.095451 218.16 
" clip-path="url(#pb4c2c80a33)" style="fill: none; stroke: #bfbf00; stroke-width: 0.5"/>
    <path d="M 426.185416 117.36 
L 426.185416 218.16 
" clip-path="url(#pb4c2c80a33)" style="fill: none; stroke: #bfbf00; stroke-width: 0.5"/>
    <path d="M 426.275381 117.36 
L 426.275381 218.16 
" clip-path="url(#pb4c2c80a33)" style="fill: none; stroke: #bfbf00; stroke-width: 0.5"/>
    <path d="M 584.163535 117.36 
L 584.163535 218.16 
" clip-path="url(#pb4c2c80a33)" style="fill: none; stroke: #bfbf00; stroke-width: 0.5"/>
    <path d="M 584.2535 117.36 
L 584.2535 218.16 
" clip-path="url(#pb4c2c80a33)" style="fill: none; stroke: #bfbf00; stroke-width: 0.5"/>
    <path d="M 584.343465 117.36 
L 584.343465 218.16 
" clip-path="url(#pb4c2c80a33)" style="fill: none; stroke: #bfbf00; stroke-width: 0.5"/>
    <path d="M 584.433429 117.36 
L 584.433429 218.16 
" clip-path="url(#pb4c2c80a33)" style="fill: none; stroke: #bfbf00; stroke-width: 0.5"/>
    <path d="M 584.523394 117.36 
L 584.523394 218.16 
" clip-path="url(#pb4c2c80a33)" style="fill: none; stroke: #bfbf00; stroke-width: 0.5"/>
    <path d="M 584.613359 117.36 
L 584.613359 218.16 
" clip-path="url(#pb4c2c80a33)" style="fill: none; stroke: #bfbf00; stroke-width: 0.5"/>
    <path d="M 584.703324 117.36 
L 584.703324 218.16 
" clip-path="url(#pb4c2c80a33)" style="fill: none; stroke: #bfbf00; stroke-width: 0.5"/>
    <path d="M 584.793288 117.36 
L 584.793288 218.16 
" clip-path="url(#pb4c2c80a33)" style="fill: none; stroke: #bfbf00; stroke-width: 0.5"/>
    <path d="M 584.883253 117.36 
L 584.883253 218.16 
" clip-path="url(#pb4c2c80a33)" style="fill: none; stroke: #bfbf00; stroke-width: 0.5"/>
    <path d="M 584.973218 117.36 
L 584.973218 218.16 
" clip-path="url(#pb4c2c80a33)" style="fill: none; stroke: #bfbf00; stroke-width: 0.5"/>
    <path d="M 585.063183 117.36 
L 585.063183 218.16 
" clip-path="url(#pb4c2c80a33)" style="fill: none; stroke: #bfbf00; stroke-width: 0.5"/>
    <path d="M 585.153147 117.36 
L 585.153147 218.16 
" clip-path="url(#pb4c2c80a33)" style="fill: none; stroke: #bfbf00; stroke-width: 0.5"/>
    <path d="M 585.243112 117.36 
L 585.243112 218.16 
" clip-path="url(#pb4c2c80a33)" style="fill: none; stroke: #bfbf00; stroke-width: 0.5"/>
    <path d="M 585.333077 117.36 
L 585.333077 218.16 
" clip-path="url(#pb4c2c80a33)" style="fill: none; stroke: #bfbf00; stroke-width: 0.5"/>
    <path d="M 585.423042 117.36 
L 585.423042 218.16 
" clip-path="url(#pb4c2c80a33)" style="fill: none; stroke: #bfbf00; stroke-width: 0.5"/>
    <path d="M 585.513006 117.36 
L 585.513006 218.16 
" clip-path="url(#pb4c2c80a33)" style="fill: none; stroke: #bfbf00; stroke-width: 0.5"/>
    <path d="M 587.402266 117.36 
L 587.402266 218.16 
" clip-path="url(#pb4c2c80a33)" style="fill: none; stroke: #bfbf00; stroke-width: 0.5"/>
    <path d="M 587.492231 117.36 
L 587.492231 218.16 
" clip-path="url(#pb4c2c80a33)" style="fill: none; stroke: #bfbf00; stroke-width: 0.5"/>
    <path d="M 587.582196 117.36 
L 587.582196 218.16 
" clip-path="url(#pb4c2c80a33)" style="fill: none; stroke: #bfbf00; stroke-width: 0.5"/>
    <path d="M 587.672161 117.36 
L 587.672161 218.16 
" clip-path="url(#pb4c2c80a33)" style="fill: none; stroke: #bfbf00; stroke-width: 0.5"/>
    <path d="M 590.551033 117.36 
L 590.551033 218.16 
" clip-path="url(#pb4c2c80a33)" style="fill: none; stroke: #bfbf00; stroke-width: 0.5"/>
    <path d="M 590.640998 117.36 
L 590.640998 218.16 
" clip-path="url(#pb4c2c80a33)" style="fill: none; stroke: #bfbf00; stroke-width: 0.5"/>
    <path d="M 590.730963 117.36 
L 590.730963 218.16 
" clip-path="url(#pb4c2c80a33)" style="fill: none; stroke: #bfbf00; stroke-width: 0.5"/>
    <path d="M 590.820927 117.36 
L 590.820927 218.16 
" clip-path="url(#pb4c2c80a33)" style="fill: none; stroke: #bfbf00; stroke-width: 0.5"/>
    <path d="M 590.910892 117.36 
L 590.910892 218.16 
" clip-path="url(#pb4c2c80a33)" style="fill: none; stroke: #bfbf00; stroke-width: 0.5"/>
    <path d="M 591.000857 117.36 
L 591.000857 218.16 
" clip-path="url(#pb4c2c80a33)" style="fill: none; stroke: #bfbf00; stroke-width: 0.5"/>
    <path d="M 591.090822 117.36 
L 591.090822 218.16 
" clip-path="url(#pb4c2c80a33)" style="fill: none; stroke: #bfbf00; stroke-width: 0.5"/>
    <path d="M 591.180786 117.36 
L 591.180786 218.16 
" clip-path="url(#pb4c2c80a33)" style="fill: none; stroke: #bfbf00; stroke-width: 0.5"/>
    <path d="M 591.270751 117.36 
L 591.270751 218.16 
" clip-path="url(#pb4c2c80a33)" style="fill: none; stroke: #bfbf00; stroke-width: 0.5"/>
    <path d="M 591.360716 117.36 
L 591.360716 218.16 
" clip-path="url(#pb4c2c80a33)" style="fill: none; stroke: #bfbf00; stroke-width: 0.5"/>
    <path d="M 591.450681 117.36 
L 591.450681 218.16 
" clip-path="url(#pb4c2c80a33)" style="fill: none; stroke: #bfbf00; stroke-width: 0.5"/>
    <path d="M 591.540645 117.36 
L 591.540645 218.16 
" clip-path="url(#pb4c2c80a33)" style="fill: none; stroke: #bfbf00; stroke-width: 0.5"/>
    <path d="M 591.63061 117.36 
L 591.63061 218.16 
" clip-path="url(#pb4c2c80a33)" style="fill: none; stroke: #bfbf00; stroke-width: 0.5"/>
    <path d="M 591.720575 117.36 
L 591.720575 218.16 
" clip-path="url(#pb4c2c80a33)" style="fill: none; stroke: #bfbf00; stroke-width: 0.5"/>
    <path d="M 591.81054 117.36 
L 591.81054 218.16 
" clip-path="url(#pb4c2c80a33)" style="fill: none; stroke: #bfbf00; stroke-width: 0.5"/>
    <path d="M 591.900504 117.36 
L 591.900504 218.16 
" clip-path="url(#pb4c2c80a33)" style="fill: none; stroke: #bfbf00; stroke-width: 0.5"/>
    <path d="M 591.990469 117.36 
L 591.990469 218.16 
" clip-path="url(#pb4c2c80a33)" style="fill: none; stroke: #bfbf00; stroke-width: 0.5"/>
    <path d="M 592.080434 117.36 
L 592.080434 218.16 
" clip-path="url(#pb4c2c80a33)" style="fill: none; stroke: #bfbf00; stroke-width: 0.5"/>
    <path d="M 592.170399 117.36 
L 592.170399 218.16 
" clip-path="url(#pb4c2c80a33)" style="fill: none; stroke: #bfbf00; stroke-width: 0.5"/>
    <path d="M 592.260363 117.36 
L 592.260363 218.16 
" clip-path="url(#pb4c2c80a33)" style="fill: none; stroke: #bfbf00; stroke-width: 0.5"/>
    <path d="M 592.350328 117.36 
L 592.350328 218.16 
" clip-path="url(#pb4c2c80a33)" style="fill: none; stroke: #bfbf00; stroke-width: 0.5"/>
    <path d="M 592.440293 117.36 
L 592.440293 218.16 
" clip-path="url(#pb4c2c80a33)" style="fill: none; stroke: #bfbf00; stroke-width: 0.5"/>
    <path d="M 592.530258 117.36 
L 592.530258 218.16 
" clip-path="url(#pb4c2c80a33)" style="fill: none; stroke: #bfbf00; stroke-width: 0.5"/>
    <path d="M 592.620222 117.36 
L 592.620222 218.16 
" clip-path="url(#pb4c2c80a33)" style="fill: none; stroke: #bfbf00; stroke-width: 0.5"/>
    <path d="M 592.710187 117.36 
L 592.710187 218.16 
" clip-path="url(#pb4c2c80a33)" style="fill: none; stroke: #bfbf00; stroke-width: 0.5"/>
    <path d="M 592.800152 117.36 
L 592.800152 218.16 
" clip-path="url(#pb4c2c80a33)" style="fill: none; stroke: #bfbf00; stroke-width: 0.5"/>
    <path d="M 683.034807 117.36 
L 683.034807 218.16 
" clip-path="url(#pb4c2c80a33)" style="fill: none; stroke: #bfbf00; stroke-width: 0.5"/>
    <path d="M 683.124771 117.36 
L 683.124771 218.16 
" clip-path="url(#pb4c2c80a33)" style="fill: none; stroke: #bfbf00; stroke-width: 0.5"/>
    <path d="M 683.214736 117.36 
L 683.214736 218.16 
" clip-path="url(#pb4c2c80a33)" style="fill: none; stroke: #bfbf00; stroke-width: 0.5"/>
    <path d="M 683.304701 117.36 
L 683.304701 218.16 
" clip-path="url(#pb4c2c80a33)" style="fill: none; stroke: #bfbf00; stroke-width: 0.5"/>
    <path d="M 709.75434 117.36 
L 709.75434 218.16 
" clip-path="url(#pb4c2c80a33)" style="fill: none; stroke: #bfbf00; stroke-width: 0.5"/>
    <path d="M 709.844305 117.36 
L 709.844305 218.16 
" clip-path="url(#pb4c2c80a33)" style="fill: none; stroke: #bfbf00; stroke-width: 0.5"/>
    <path d="M 709.93427 117.36 
L 709.93427 218.16 
" clip-path="url(#pb4c2c80a33)" style="fill: none; stroke: #bfbf00; stroke-width: 0.5"/>
    <path d="M 871.51098 117.36 
L 871.51098 218.16 
" clip-path="url(#pb4c2c80a33)" style="fill: none; stroke: #bfbf00; stroke-width: 0.5"/>
    <path d="M 871.600944 117.36 
L 871.600944 218.16 
" clip-path="url(#pb4c2c80a33)" style="fill: none; stroke: #bfbf00; stroke-width: 0.5"/>
    <path d="M 871.690909 117.36 
L 871.690909 218.16 
" clip-path="url(#pb4c2c80a33)" style="fill: none; stroke: #bfbf00; stroke-width: 0.5"/>
   </g>
   <g id="patch_3">
    <path d="M 126 384.48 
L 126 51.84 
" style="fill: none; stroke: #000000; stroke-width: 0.8; stroke-linejoin: miter; stroke-linecap: square"/>
   </g>
   <g id="patch_4">
    <path d="M 126 384.48 
L 907.2 384.48 
" style="fill: none; stroke: #000000; stroke-width: 0.8; stroke-linejoin: miter; stroke-linecap: square"/>
   </g>
   <g id="text_8">
    <!-- Mouse: 2; Paradigm: V1.4_Habituation_Urinright; Date: 240307 -->
    <g transform="translate(327.070312 45.84) scale(0.12 -0.12)">
     <defs>
      <path id="DejaVuSans-4d" d="M 628 4666 
L 1569 4666 
L 2759 1491 
L 3956 4666 
L 4897 4666 
L 4897 0 
L 4281 0 
L 4281 4097 
L 3078 897 
L 2444 897 
L 1241 4097 
L 1241 0 
L 628 0 
L 628 4666 
z
" transform="scale(0.015625)"/>
      <path id="DejaVuSans-6f" d="M 1959 3097 
Q 1497 3097 1228 2736 
Q 959 2375 959 1747 
Q 959 1119 1226 758 
Q 1494 397 1959 397 
Q 2419 397 2687 759 
Q 2956 1122 2956 1747 
Q 2956 2369 2687 2733 
Q 2419 3097 1959 3097 
z
M 1959 3584 
Q 2709 3584 3137 3096 
Q 3566 2609 3566 1747 
Q 3566 888 3137 398 
Q 2709 -91 1959 -91 
Q 1206 -91 779 398 
Q 353 888 353 1747 
Q 353 2609 779 3096 
Q 1206 3584 1959 3584 
z
" transform="scale(0.015625)"/>
      <path id="DejaVuSans-75" d="M 544 1381 
L 544 3500 
L 1119 3500 
L 1119 1403 
Q 1119 906 1312 657 
Q 1506 409 1894 409 
Q 2359 409 2629 706 
Q 2900 1003 2900 1516 
L 2900 3500 
L 3475 3500 
L 3475 0 
L 2900 0 
L 2900 538 
Q 2691 219 2414 64 
Q 2138 -91 1772 -91 
Q 1169 -91 856 284 
Q 544 659 544 1381 
z
M 1991 3584 
L 1991 3584 
z
" transform="scale(0.015625)"/>
      <path id="DejaVuSans-3a" d="M 750 794 
L 1409 794 
L 1409 0 
L 750 0 
L 750 794 
z
M 750 3309 
L 1409 3309 
L 1409 2516 
L 750 2516 
L 750 3309 
z
" transform="scale(0.015625)"/>
      <path id="DejaVuSans-3b" d="M 750 3309 
L 1409 3309 
L 1409 2516 
L 750 2516 
L 750 3309 
z
M 750 794 
L 1409 794 
L 1409 256 
L 897 -744 
L 494 -744 
L 750 256 
L 750 794 
z
" transform="scale(0.015625)"/>
      <path id="DejaVuSans-50" d="M 1259 4147 
L 1259 2394 
L 2053 2394 
Q 2494 2394 2734 2622 
Q 2975 2850 2975 3272 
Q 2975 3691 2734 3919 
Q 2494 4147 2053 4147 
L 1259 4147 
z
M 628 4666 
L 2053 4666 
Q 2838 4666 3239 4311 
Q 3641 3956 3641 3272 
Q 3641 2581 3239 2228 
Q 2838 1875 2053 1875 
L 1259 1875 
L 1259 0 
L 628 0 
L 628 4666 
z
" transform="scale(0.015625)"/>
      <path id="DejaVuSans-61" d="M 2194 1759 
Q 1497 1759 1228 1600 
Q 959 1441 959 1056 
Q 959 750 1161 570 
Q 1363 391 1709 391 
Q 2188 391 2477 730 
Q 2766 1069 2766 1631 
L 2766 1759 
L 2194 1759 
z
M 3341 1997 
L 3341 0 
L 2766 0 
L 2766 531 
Q 2569 213 2275 61 
Q 1981 -91 1556 -91 
Q 1019 -91 701 211 
Q 384 513 384 1019 
Q 384 1609 779 1909 
Q 1175 2209 1959 2209 
L 2766 2209 
L 2766 2266 
Q 2766 2663 2505 2880 
Q 2244 3097 1772 3097 
Q 1472 3097 1187 3025 
Q 903 2953 641 2809 
L 641 3341 
Q 956 3463 1253 3523 
Q 1550 3584 1831 3584 
Q 2591 3584 2966 3190 
Q 3341 2797 3341 1997 
z
" transform="scale(0.015625)"/>
      <path id="DejaVuSans-56" d="M 1831 0 
L 50 4666 
L 709 4666 
L 2188 738 
L 3669 4666 
L 4325 4666 
L 2547 0 
L 1831 0 
z
" transform="scale(0.015625)"/>
      <path id="DejaVuSans-31" d="M 794 531 
L 1825 531 
L 1825 4091 
L 703 3866 
L 703 4441 
L 1819 4666 
L 2450 4666 
L 2450 531 
L 3481 531 
L 3481 0 
L 794 0 
L 794 531 
z
" transform="scale(0.015625)"/>
      <path id="DejaVuSans-2e" d="M 684 794 
L 1344 794 
L 1344 0 
L 684 0 
L 684 794 
z
" transform="scale(0.015625)"/>
      <path id="DejaVuSans-5f" d="M 3263 -1063 
L 3263 -1509 
L -63 -1509 
L -63 -1063 
L 3263 -1063 
z
" transform="scale(0.015625)"/>
      <path id="DejaVuSans-48" d="M 628 4666 
L 1259 4666 
L 1259 2753 
L 3553 2753 
L 3553 4666 
L 4184 4666 
L 4184 0 
L 3553 0 
L 3553 2222 
L 1259 2222 
L 1259 0 
L 628 0 
L 628 4666 
z
" transform="scale(0.015625)"/>
      <path id="DejaVuSans-62" d="M 3116 1747 
Q 3116 2381 2855 2742 
Q 2594 3103 2138 3103 
Q 1681 3103 1420 2742 
Q 1159 2381 1159 1747 
Q 1159 1113 1420 752 
Q 1681 391 2138 391 
Q 2594 391 2855 752 
Q 3116 1113 3116 1747 
z
M 1159 2969 
Q 1341 3281 1617 3432 
Q 1894 3584 2278 3584 
Q 2916 3584 3314 3078 
Q 3713 2572 3713 1747 
Q 3713 922 3314 415 
Q 2916 -91 2278 -91 
Q 1894 -91 1617 61 
Q 1341 213 1159 525 
L 1159 0 
L 581 0 
L 581 4863 
L 1159 4863 
L 1159 2969 
z
" transform="scale(0.015625)"/>
      <path id="DejaVuSans-55" d="M 556 4666 
L 1191 4666 
L 1191 1831 
Q 1191 1081 1462 751 
Q 1734 422 2344 422 
Q 2950 422 3222 751 
Q 3494 1081 3494 1831 
L 3494 4666 
L 4128 4666 
L 4128 1753 
Q 4128 841 3676 375 
Q 3225 -91 2344 -91 
Q 1459 -91 1007 375 
Q 556 841 556 1753 
L 556 4666 
z
" transform="scale(0.015625)"/>
      <path id="DejaVuSans-44" d="M 1259 4147 
L 1259 519 
L 2022 519 
Q 2988 519 3436 956 
Q 3884 1394 3884 2338 
Q 3884 3275 3436 3711 
Q 2988 4147 2022 4147 
L 1259 4147 
z
M 628 4666 
L 1925 4666 
Q 3281 4666 3915 4102 
Q 4550 3538 4550 2338 
Q 4550 1131 3912 565 
Q 3275 0 1925 0 
L 628 0 
L 628 4666 
z
" transform="scale(0.015625)"/>
      <path id="DejaVuSans-30" d="M 2034 4250 
Q 1547 4250 1301 3770 
Q 1056 3291 1056 2328 
Q 1056 1369 1301 889 
Q 1547 409 2034 409 
Q 2525 409 2770 889 
Q 3016 1369 3016 2328 
Q 3016 3291 2770 3770 
Q 2525 4250 2034 4250 
z
M 2034 4750 
Q 2819 4750 3233 4129 
Q 3647 3509 3647 2328 
Q 3647 1150 3233 529 
Q 2819 -91 2034 -91 
Q 1250 -91 836 529 
Q 422 1150 422 2328 
Q 422 3509 836 4129 
Q 1250 4750 2034 4750 
z
" transform="scale(0.015625)"/>
      <path id="DejaVuSans-33" d="M 2597 2516 
Q 3050 2419 3304 2112 
Q 3559 1806 3559 1356 
Q 3559 666 3084 287 
Q 2609 -91 1734 -91 
Q 1441 -91 1130 -33 
Q 819 25 488 141 
L 488 750 
Q 750 597 1062 519 
Q 1375 441 1716 441 
Q 2309 441 2620 675 
Q 2931 909 2931 1356 
Q 2931 1769 2642 2001 
Q 2353 2234 1838 2234 
L 1294 2234 
L 1294 2753 
L 1863 2753 
Q 2328 2753 2575 2939 
Q 2822 3125 2822 3475 
Q 2822 3834 2567 4026 
Q 2313 4219 1838 4219 
Q 1578 4219 1281 4162 
Q 984 4106 628 3988 
L 628 4550 
Q 988 4650 1302 4700 
Q 1616 4750 1894 4750 
Q 2613 4750 3031 4423 
Q 3450 4097 3450 3541 
Q 3450 3153 3228 2886 
Q 3006 2619 2597 2516 
z
" transform="scale(0.015625)"/>
      <path id="DejaVuSans-37" d="M 525 4666 
L 3525 4666 
L 3525 4397 
L 1831 0 
L 1172 0 
L 2766 4134 
L 525 4134 
L 525 4666 
z
" transform="scale(0.015625)"/>
     </defs>
     <use xlink:href="#DejaVuSans-4d"/>
     <use xlink:href="#DejaVuSans-6f" x="86.279297"/>
     <use xlink:href="#DejaVuSans-75" x="147.460938"/>
     <use xlink:href="#DejaVuSans-73" x="210.839844"/>
     <use xlink:href="#DejaVuSans-65" x="262.939453"/>
     <use xlink:href="#DejaVuSans-3a" x="324.462891"/>
     <use xlink:href="#DejaVuSans-20" x="358.154297"/>
     <use xlink:href="#DejaVuSans-32" x="389.941406"/>
     <use xlink:href="#DejaVuSans-3b" x="453.564453"/>
     <use xlink:href="#DejaVuSans-20" x="487.255859"/>
     <use xlink:href="#DejaVuSans-50" x="519.042969"/>
     <use xlink:href="#DejaVuSans-61" x="574.845703"/>
     <use xlink:href="#DejaVuSans-72" x="636.125"/>
     <use xlink:href="#DejaVuSans-61" x="677.238281"/>
     <use xlink:href="#DejaVuSans-64" x="738.517578"/>
     <use xlink:href="#DejaVuSans-69" x="801.994141"/>
     <use xlink:href="#DejaVuSans-67" x="829.777344"/>
     <use xlink:href="#DejaVuSans-6d" x="893.253906"/>
     <use xlink:href="#DejaVuSans-3a" x="990.666016"/>
     <use xlink:href="#DejaVuSans-20" x="1024.357422"/>
     <use xlink:href="#DejaVuSans-56" x="1056.144531"/>
     <use xlink:href="#DejaVuSans-31" x="1124.552734"/>
     <use xlink:href="#DejaVuSans-2e" x="1188.175781"/>
     <use xlink:href="#DejaVuSans-34" x="1219.962891"/>
     <use xlink:href="#DejaVuSans-5f" x="1283.585938"/>
     <use xlink:href="#DejaVuSans-48" x="1333.585938"/>
     <use xlink:href="#DejaVuSans-61" x="1408.78125"/>
     <use xlink:href="#DejaVuSans-62" x="1470.060547"/>
     <use xlink:href="#DejaVuSans-69" x="1533.537109"/>
     <use xlink:href="#DejaVuSans-74" x="1561.320312"/>
     <use xlink:href="#DejaVuSans-75" x="1600.529297"/>
     <use xlink:href="#DejaVuSans-61" x="1663.908203"/>
     <use xlink:href="#DejaVuSans-74" x="1725.1875"/>
     <use xlink:href="#DejaVuSans-69" x="1764.396484"/>
     <use xlink:href="#DejaVuSans-6f" x="1792.179688"/>
     <use xlink:href="#DejaVuSans-6e" x="1853.361328"/>
     <use xlink:href="#DejaVuSans-5f" x="1916.740234"/>
     <use xlink:href="#DejaVuSans-55" x="1966.740234"/>
     <use xlink:href="#DejaVuSans-72" x="2039.933594"/>
     <use xlink:href="#DejaVuSans-69" x="2081.046875"/>
     <use xlink:href="#DejaVuSans-6e" x="2108.830078"/>
     <use xlink:href="#DejaVuSans-72" x="2172.208984"/>
     <use xlink:href="#DejaVuSans-69" x="2213.322266"/>
     <use xlink:href="#DejaVuSans-67" x="2241.105469"/>
     <use xlink:href="#DejaVuSans-68" x="2304.582031"/>
     <use xlink:href="#DejaVuSans-74" x="2367.960938"/>
     <use xlink:href="#DejaVuSans-3b" x="2407.169922"/>
     <use xlink:href="#DejaVuSans-20" x="2440.861328"/>
     <use xlink:href="#DejaVuSans-44" x="2472.648438"/>
     <use xlink:href="#DejaVuSans-61" x="2549.650391"/>
     <use xlink:href="#DejaVuSans-74" x="2610.929688"/>
     <use xlink:href="#DejaVuSans-65" x="2650.138672"/>
     <use xlink:href="#DejaVuSans-3a" x="2711.662109"/>
     <use xlink:href="#DejaVuSans-20" x="2745.353516"/>
     <use xlink:href="#DejaVuSans-32" x="2777.140625"/>
     <use xlink:href="#DejaVuSans-34" x="2840.763672"/>
     <use xlink:href="#DejaVuSans-30" x="2904.386719"/>
     <use xlink:href="#DejaVuSans-33" x="2968.009766"/>
     <use xlink:href="#DejaVuSans-30" x="3031.632812"/>
     <use xlink:href="#DejaVuSans-37" x="3095.255859"/>
    </g>
   </g>
  </g>
 </g>
 <defs>
  <clipPath id="pb4c2c80a33">
   <rect x="126" y="51.84" width="781.2" height="332.64"/>
  </clipPath>
 </defs>
</svg>
