<?xml version="1.0" encoding="utf-8" standalone="no"?>
<!DOCTYPE svg PUBLIC "-//W3C//DTD SVG 1.1//EN"
  "http://www.w3.org/Graphics/SVG/1.1/DTD/svg11.dtd">
<svg xmlns:xlink="http://www.w3.org/1999/xlink" width="1008pt" height="432pt" viewBox="0 0 1008 432" xmlns="http://www.w3.org/2000/svg" version="1.1">
 <metadata>
  <rdf:RDF xmlns:dc="http://purl.org/dc/elements/1.1/" xmlns:cc="http://creativecommons.org/ns#" xmlns:rdf="http://www.w3.org/1999/02/22-rdf-syntax-ns#">
   <cc:Work>
    <dc:type rdf:resource="http://purl.org/dc/dcmitype/StillImage"/>
    <dc:date>2024-05-13T10:32:32.764120</dc:date>
    <dc:format>image/svg+xml</dc:format>
    <dc:creator>
     <cc:Agent>
      <dc:title>Matplotlib v3.8.3, https://matplotlib.org/</dc:title>
     </cc:Agent>
    </dc:creator>
   </cc:Work>
  </rdf:RDF>
 </metadata>
 <defs>
  <style type="text/css">*{stroke-linejoin: round; stroke-linecap: butt}</style>
 </defs>
 <g id="figure_1">
  <g id="patch_1">
   <path d="M 0 432 
L 1008 432 
L 1008 0 
L 0 0 
z
" style="fill: #ffffff"/>
  </g>
  <g id="axes_1">
   <g id="patch_2">
    <path d="M 126 384.48 
L 907.2 384.48 
L 907.2 51.84 
L 126 51.84 
z
"/>
   </g>
   <g id="matplotlib.axis_1">
    <g id="xtick_1">
     <g id="line2d_1">
      <defs>
       <path id="m848538da32" d="M 0 0 
L 0 3.5 
" style="stroke: #000000; stroke-width: 0.8"/>
      </defs>
      <g>
       <use xlink:href="#m848538da32" x="153.472232" y="384.48" style="stroke: #000000; stroke-width: 0.8"/>
      </g>
     </g>
     <g id="text_1">
      <!-- 0 -->
      <g transform="translate(150.290982 399.078438) scale(0.1 -0.1)">
       <defs>
        <path id="DejaVuSans-30" d="M 2034 4250 
Q 1547 4250 1301 3770 
Q 1056 3291 1056 2328 
Q 1056 1369 1301 889 
Q 1547 409 2034 409 
Q 2525 409 2770 889 
Q 3016 1369 3016 2328 
Q 3016 3291 2770 3770 
Q 2525 4250 2034 4250 
z
M 2034 4750 
Q 2819 4750 3233 4129 
Q 3647 3509 3647 2328 
Q 3647 1150 3233 529 
Q 2819 -91 2034 -91 
Q 1250 -91 836 529 
Q 422 1150 422 2328 
Q 422 3509 836 4129 
Q 1250 4750 2034 4750 
z
" transform="scale(0.015625)"/>
       </defs>
       <use xlink:href="#DejaVuSans-30"/>
      </g>
     </g>
    </g>
    <g id="xtick_2">
     <g id="line2d_2">
      <g>
       <use xlink:href="#m848538da32" x="309.024346" y="384.48" style="stroke: #000000; stroke-width: 0.8"/>
      </g>
     </g>
     <g id="text_2">
      <!-- 2 -->
      <g transform="translate(305.843096 399.078438) scale(0.1 -0.1)">
       <defs>
        <path id="DejaVuSans-32" d="M 1228 531 
L 3431 531 
L 3431 0 
L 469 0 
L 469 531 
Q 828 903 1448 1529 
Q 2069 2156 2228 2338 
Q 2531 2678 2651 2914 
Q 2772 3150 2772 3378 
Q 2772 3750 2511 3984 
Q 2250 4219 1831 4219 
Q 1534 4219 1204 4116 
Q 875 4013 500 3803 
L 500 4441 
Q 881 4594 1212 4672 
Q 1544 4750 1819 4750 
Q 2544 4750 2975 4387 
Q 3406 4025 3406 3419 
Q 3406 3131 3298 2873 
Q 3191 2616 2906 2266 
Q 2828 2175 2409 1742 
Q 1991 1309 1228 531 
z
" transform="scale(0.015625)"/>
       </defs>
       <use xlink:href="#DejaVuSans-32"/>
      </g>
     </g>
    </g>
    <g id="xtick_3">
     <g id="line2d_3">
      <g>
       <use xlink:href="#m848538da32" x="464.57646" y="384.48" style="stroke: #000000; stroke-width: 0.8"/>
      </g>
     </g>
     <g id="text_3">
      <!-- 4 -->
      <g transform="translate(461.39521 399.078438) scale(0.1 -0.1)">
       <defs>
        <path id="DejaVuSans-34" d="M 2419 4116 
L 825 1625 
L 2419 1625 
L 2419 4116 
z
M 2253 4666 
L 3047 4666 
L 3047 1625 
L 3713 1625 
L 3713 1100 
L 3047 1100 
L 3047 0 
L 2419 0 
L 2419 1100 
L 313 1100 
L 313 1709 
L 2253 4666 
z
" transform="scale(0.015625)"/>
       </defs>
       <use xlink:href="#DejaVuSans-34"/>
      </g>
     </g>
    </g>
    <g id="xtick_4">
     <g id="line2d_4">
      <g>
       <use xlink:href="#m848538da32" x="620.128574" y="384.48" style="stroke: #000000; stroke-width: 0.8"/>
      </g>
     </g>
     <g id="text_4">
      <!-- 6 -->
      <g transform="translate(616.947324 399.078438) scale(0.1 -0.1)">
       <defs>
        <path id="DejaVuSans-36" d="M 2113 2584 
Q 1688 2584 1439 2293 
Q 1191 2003 1191 1497 
Q 1191 994 1439 701 
Q 1688 409 2113 409 
Q 2538 409 2786 701 
Q 3034 994 3034 1497 
Q 3034 2003 2786 2293 
Q 2538 2584 2113 2584 
z
M 3366 4563 
L 3366 3988 
Q 3128 4100 2886 4159 
Q 2644 4219 2406 4219 
Q 1781 4219 1451 3797 
Q 1122 3375 1075 2522 
Q 1259 2794 1537 2939 
Q 1816 3084 2150 3084 
Q 2853 3084 3261 2657 
Q 3669 2231 3669 1497 
Q 3669 778 3244 343 
Q 2819 -91 2113 -91 
Q 1303 -91 875 529 
Q 447 1150 447 2328 
Q 447 3434 972 4092 
Q 1497 4750 2381 4750 
Q 2619 4750 2861 4703 
Q 3103 4656 3366 4563 
z
" transform="scale(0.015625)"/>
       </defs>
       <use xlink:href="#DejaVuSans-36"/>
      </g>
     </g>
    </g>
    <g id="xtick_5">
     <g id="line2d_5">
      <g>
       <use xlink:href="#m848538da32" x="775.680688" y="384.48" style="stroke: #000000; stroke-width: 0.8"/>
      </g>
     </g>
     <g id="text_5">
      <!-- 8 -->
      <g transform="translate(772.499438 399.078438) scale(0.1 -0.1)">
       <defs>
        <path id="DejaVuSans-38" d="M 2034 2216 
Q 1584 2216 1326 1975 
Q 1069 1734 1069 1313 
Q 1069 891 1326 650 
Q 1584 409 2034 409 
Q 2484 409 2743 651 
Q 3003 894 3003 1313 
Q 3003 1734 2745 1975 
Q 2488 2216 2034 2216 
z
M 1403 2484 
Q 997 2584 770 2862 
Q 544 3141 544 3541 
Q 544 4100 942 4425 
Q 1341 4750 2034 4750 
Q 2731 4750 3128 4425 
Q 3525 4100 3525 3541 
Q 3525 3141 3298 2862 
Q 3072 2584 2669 2484 
Q 3125 2378 3379 2068 
Q 3634 1759 3634 1313 
Q 3634 634 3220 271 
Q 2806 -91 2034 -91 
Q 1263 -91 848 271 
Q 434 634 434 1313 
Q 434 1759 690 2068 
Q 947 2378 1403 2484 
z
M 1172 3481 
Q 1172 3119 1398 2916 
Q 1625 2713 2034 2713 
Q 2441 2713 2670 2916 
Q 2900 3119 2900 3481 
Q 2900 3844 2670 4047 
Q 2441 4250 2034 4250 
Q 1625 4250 1398 4047 
Q 1172 3844 1172 3481 
z
" transform="scale(0.015625)"/>
       </defs>
       <use xlink:href="#DejaVuSans-38"/>
      </g>
     </g>
    </g>
    <g id="text_6">
     <!-- Experiment length [min] -->
     <g transform="translate(455.264844 412.756563) scale(0.1 -0.1)">
      <defs>
       <path id="DejaVuSans-45" d="M 628 4666 
L 3578 4666 
L 3578 4134 
L 1259 4134 
L 1259 2753 
L 3481 2753 
L 3481 2222 
L 1259 2222 
L 1259 531 
L 3634 531 
L 3634 0 
L 628 0 
L 628 4666 
z
" transform="scale(0.015625)"/>
       <path id="DejaVuSans-78" d="M 3513 3500 
L 2247 1797 
L 3578 0 
L 2900 0 
L 1881 1375 
L 863 0 
L 184 0 
L 1544 1831 
L 300 3500 
L 978 3500 
L 1906 2253 
L 2834 3500 
L 3513 3500 
z
" transform="scale(0.015625)"/>
       <path id="DejaVuSans-70" d="M 1159 525 
L 1159 -1331 
L 581 -1331 
L 581 3500 
L 1159 3500 
L 1159 2969 
Q 1341 3281 1617 3432 
Q 1894 3584 2278 3584 
Q 2916 3584 3314 3078 
Q 3713 2572 3713 1747 
Q 3713 922 3314 415 
Q 2916 -91 2278 -91 
Q 1894 -91 1617 61 
Q 1341 213 1159 525 
z
M 3116 1747 
Q 3116 2381 2855 2742 
Q 2594 3103 2138 3103 
Q 1681 3103 1420 2742 
Q 1159 2381 1159 1747 
Q 1159 1113 1420 752 
Q 1681 391 2138 391 
Q 2594 391 2855 752 
Q 3116 1113 3116 1747 
z
" transform="scale(0.015625)"/>
       <path id="DejaVuSans-65" d="M 3597 1894 
L 3597 1613 
L 953 1613 
Q 991 1019 1311 708 
Q 1631 397 2203 397 
Q 2534 397 2845 478 
Q 3156 559 3463 722 
L 3463 178 
Q 3153 47 2828 -22 
Q 2503 -91 2169 -91 
Q 1331 -91 842 396 
Q 353 884 353 1716 
Q 353 2575 817 3079 
Q 1281 3584 2069 3584 
Q 2775 3584 3186 3129 
Q 3597 2675 3597 1894 
z
M 3022 2063 
Q 3016 2534 2758 2815 
Q 2500 3097 2075 3097 
Q 1594 3097 1305 2825 
Q 1016 2553 972 2059 
L 3022 2063 
z
" transform="scale(0.015625)"/>
       <path id="DejaVuSans-72" d="M 2631 2963 
Q 2534 3019 2420 3045 
Q 2306 3072 2169 3072 
Q 1681 3072 1420 2755 
Q 1159 2438 1159 1844 
L 1159 0 
L 581 0 
L 581 3500 
L 1159 3500 
L 1159 2956 
Q 1341 3275 1631 3429 
Q 1922 3584 2338 3584 
Q 2397 3584 2469 3576 
Q 2541 3569 2628 3553 
L 2631 2963 
z
" transform="scale(0.015625)"/>
       <path id="DejaVuSans-69" d="M 603 3500 
L 1178 3500 
L 1178 0 
L 603 0 
L 603 3500 
z
M 603 4863 
L 1178 4863 
L 1178 4134 
L 603 4134 
L 603 4863 
z
" transform="scale(0.015625)"/>
       <path id="DejaVuSans-6d" d="M 3328 2828 
Q 3544 3216 3844 3400 
Q 4144 3584 4550 3584 
Q 5097 3584 5394 3201 
Q 5691 2819 5691 2113 
L 5691 0 
L 5113 0 
L 5113 2094 
Q 5113 2597 4934 2840 
Q 4756 3084 4391 3084 
Q 3944 3084 3684 2787 
Q 3425 2491 3425 1978 
L 3425 0 
L 2847 0 
L 2847 2094 
Q 2847 2600 2669 2842 
Q 2491 3084 2119 3084 
Q 1678 3084 1418 2786 
Q 1159 2488 1159 1978 
L 1159 0 
L 581 0 
L 581 3500 
L 1159 3500 
L 1159 2956 
Q 1356 3278 1631 3431 
Q 1906 3584 2284 3584 
Q 2666 3584 2933 3390 
Q 3200 3197 3328 2828 
z
" transform="scale(0.015625)"/>
       <path id="DejaVuSans-6e" d="M 3513 2113 
L 3513 0 
L 2938 0 
L 2938 2094 
Q 2938 2591 2744 2837 
Q 2550 3084 2163 3084 
Q 1697 3084 1428 2787 
Q 1159 2491 1159 1978 
L 1159 0 
L 581 0 
L 581 3500 
L 1159 3500 
L 1159 2956 
Q 1366 3272 1645 3428 
Q 1925 3584 2291 3584 
Q 2894 3584 3203 3211 
Q 3513 2838 3513 2113 
z
" transform="scale(0.015625)"/>
       <path id="DejaVuSans-74" d="M 1172 4494 
L 1172 3500 
L 2356 3500 
L 2356 3053 
L 1172 3053 
L 1172 1153 
Q 1172 725 1289 603 
Q 1406 481 1766 481 
L 2356 481 
L 2356 0 
L 1766 0 
Q 1100 0 847 248 
Q 594 497 594 1153 
L 594 3053 
L 172 3053 
L 172 3500 
L 594 3500 
L 594 4494 
L 1172 4494 
z
" transform="scale(0.015625)"/>
       <path id="DejaVuSans-20" transform="scale(0.015625)"/>
       <path id="DejaVuSans-6c" d="M 603 4863 
L 1178 4863 
L 1178 0 
L 603 0 
L 603 4863 
z
" transform="scale(0.015625)"/>
       <path id="DejaVuSans-67" d="M 2906 1791 
Q 2906 2416 2648 2759 
Q 2391 3103 1925 3103 
Q 1463 3103 1205 2759 
Q 947 2416 947 1791 
Q 947 1169 1205 825 
Q 1463 481 1925 481 
Q 2391 481 2648 825 
Q 2906 1169 2906 1791 
z
M 3481 434 
Q 3481 -459 3084 -895 
Q 2688 -1331 1869 -1331 
Q 1566 -1331 1297 -1286 
Q 1028 -1241 775 -1147 
L 775 -588 
Q 1028 -725 1275 -790 
Q 1522 -856 1778 -856 
Q 2344 -856 2625 -561 
Q 2906 -266 2906 331 
L 2906 616 
Q 2728 306 2450 153 
Q 2172 0 1784 0 
Q 1141 0 747 490 
Q 353 981 353 1791 
Q 353 2603 747 3093 
Q 1141 3584 1784 3584 
Q 2172 3584 2450 3431 
Q 2728 3278 2906 2969 
L 2906 3500 
L 3481 3500 
L 3481 434 
z
" transform="scale(0.015625)"/>
       <path id="DejaVuSans-68" d="M 3513 2113 
L 3513 0 
L 2938 0 
L 2938 2094 
Q 2938 2591 2744 2837 
Q 2550 3084 2163 3084 
Q 1697 3084 1428 2787 
Q 1159 2491 1159 1978 
L 1159 0 
L 581 0 
L 581 4863 
L 1159 4863 
L 1159 2956 
Q 1366 3272 1645 3428 
Q 1925 3584 2291 3584 
Q 2894 3584 3203 3211 
Q 3513 2838 3513 2113 
z
" transform="scale(0.015625)"/>
       <path id="DejaVuSans-5b" d="M 550 4863 
L 1875 4863 
L 1875 4416 
L 1125 4416 
L 1125 -397 
L 1875 -397 
L 1875 -844 
L 550 -844 
L 550 4863 
z
" transform="scale(0.015625)"/>
       <path id="DejaVuSans-5d" d="M 1947 4863 
L 1947 -844 
L 622 -844 
L 622 -397 
L 1369 -397 
L 1369 4416 
L 622 4416 
L 622 4863 
L 1947 4863 
z
" transform="scale(0.015625)"/>
      </defs>
      <use xlink:href="#DejaVuSans-45"/>
      <use xlink:href="#DejaVuSans-78" x="63.183594"/>
      <use xlink:href="#DejaVuSans-70" x="122.363281"/>
      <use xlink:href="#DejaVuSans-65" x="185.839844"/>
      <use xlink:href="#DejaVuSans-72" x="247.363281"/>
      <use xlink:href="#DejaVuSans-69" x="288.476562"/>
      <use xlink:href="#DejaVuSans-6d" x="316.259766"/>
      <use xlink:href="#DejaVuSans-65" x="413.671875"/>
      <use xlink:href="#DejaVuSans-6e" x="475.195312"/>
      <use xlink:href="#DejaVuSans-74" x="538.574219"/>
      <use xlink:href="#DejaVuSans-20" x="577.783203"/>
      <use xlink:href="#DejaVuSans-6c" x="609.570312"/>
      <use xlink:href="#DejaVuSans-65" x="637.353516"/>
      <use xlink:href="#DejaVuSans-6e" x="698.876953"/>
      <use xlink:href="#DejaVuSans-67" x="762.255859"/>
      <use xlink:href="#DejaVuSans-74" x="825.732422"/>
      <use xlink:href="#DejaVuSans-68" x="864.941406"/>
      <use xlink:href="#DejaVuSans-20" x="928.320312"/>
      <use xlink:href="#DejaVuSans-5b" x="960.107422"/>
      <use xlink:href="#DejaVuSans-6d" x="999.121094"/>
      <use xlink:href="#DejaVuSans-69" x="1096.533203"/>
      <use xlink:href="#DejaVuSans-6e" x="1124.316406"/>
      <use xlink:href="#DejaVuSans-5d" x="1187.695312"/>
     </g>
    </g>
   </g>
   <g id="matplotlib.axis_2">
    <g id="ytick_1">
     <g id="line2d_6">
      <defs>
       <path id="m1f20765b8e" d="M 0 0 
L -3.5 0 
" style="stroke: #000000; stroke-width: 0.8"/>
      </defs>
      <g>
       <use xlink:href="#m1f20765b8e" x="126" y="268.56" style="stroke: #000000; stroke-width: 0.8"/>
      </g>
     </g>
     <g id="text_7">
      <!-- deg sniff left dish -->
      <g transform="translate(32.379687 272.359219) scale(0.1 -0.1)">
       <defs>
        <path id="DejaVuSans-64" d="M 2906 2969 
L 2906 4863 
L 3481 4863 
L 3481 0 
L 2906 0 
L 2906 525 
Q 2725 213 2448 61 
Q 2172 -91 1784 -91 
Q 1150 -91 751 415 
Q 353 922 353 1747 
Q 353 2572 751 3078 
Q 1150 3584 1784 3584 
Q 2172 3584 2448 3432 
Q 2725 3281 2906 2969 
z
M 947 1747 
Q 947 1113 1208 752 
Q 1469 391 1925 391 
Q 2381 391 2643 752 
Q 2906 1113 2906 1747 
Q 2906 2381 2643 2742 
Q 2381 3103 1925 3103 
Q 1469 3103 1208 2742 
Q 947 2381 947 1747 
z
" transform="scale(0.015625)"/>
        <path id="DejaVuSans-73" d="M 2834 3397 
L 2834 2853 
Q 2591 2978 2328 3040 
Q 2066 3103 1784 3103 
Q 1356 3103 1142 2972 
Q 928 2841 928 2578 
Q 928 2378 1081 2264 
Q 1234 2150 1697 2047 
L 1894 2003 
Q 2506 1872 2764 1633 
Q 3022 1394 3022 966 
Q 3022 478 2636 193 
Q 2250 -91 1575 -91 
Q 1294 -91 989 -36 
Q 684 19 347 128 
L 347 722 
Q 666 556 975 473 
Q 1284 391 1588 391 
Q 1994 391 2212 530 
Q 2431 669 2431 922 
Q 2431 1156 2273 1281 
Q 2116 1406 1581 1522 
L 1381 1569 
Q 847 1681 609 1914 
Q 372 2147 372 2553 
Q 372 3047 722 3315 
Q 1072 3584 1716 3584 
Q 2034 3584 2315 3537 
Q 2597 3491 2834 3397 
z
" transform="scale(0.015625)"/>
        <path id="DejaVuSans-66" d="M 2375 4863 
L 2375 4384 
L 1825 4384 
Q 1516 4384 1395 4259 
Q 1275 4134 1275 3809 
L 1275 3500 
L 2222 3500 
L 2222 3053 
L 1275 3053 
L 1275 0 
L 697 0 
L 697 3053 
L 147 3053 
L 147 3500 
L 697 3500 
L 697 3744 
Q 697 4328 969 4595 
Q 1241 4863 1831 4863 
L 2375 4863 
z
" transform="scale(0.015625)"/>
       </defs>
       <use xlink:href="#DejaVuSans-64"/>
       <use xlink:href="#DejaVuSans-65" x="63.476562"/>
       <use xlink:href="#DejaVuSans-67" x="125"/>
       <use xlink:href="#DejaVuSans-20" x="188.476562"/>
       <use xlink:href="#DejaVuSans-73" x="220.263672"/>
       <use xlink:href="#DejaVuSans-6e" x="272.363281"/>
       <use xlink:href="#DejaVuSans-69" x="335.742188"/>
       <use xlink:href="#DejaVuSans-66" x="363.525391"/>
       <use xlink:href="#DejaVuSans-66" x="398.730469"/>
       <use xlink:href="#DejaVuSans-20" x="433.935547"/>
       <use xlink:href="#DejaVuSans-6c" x="465.722656"/>
       <use xlink:href="#DejaVuSans-65" x="493.505859"/>
       <use xlink:href="#DejaVuSans-66" x="555.029297"/>
       <use xlink:href="#DejaVuSans-74" x="588.484375"/>
       <use xlink:href="#DejaVuSans-20" x="627.693359"/>
       <use xlink:href="#DejaVuSans-64" x="659.480469"/>
       <use xlink:href="#DejaVuSans-69" x="722.957031"/>
       <use xlink:href="#DejaVuSans-73" x="750.740234"/>
       <use xlink:href="#DejaVuSans-68" x="802.839844"/>
      </g>
     </g>
    </g>
    <g id="ytick_2">
     <g id="line2d_7">
      <g>
       <use xlink:href="#m1f20765b8e" x="126" y="167.76" style="stroke: #000000; stroke-width: 0.8"/>
      </g>
     </g>
     <g id="text_8">
      <!-- deg sniff right dish -->
      <g transform="translate(25.08125 171.559219) scale(0.1 -0.1)">
       <use xlink:href="#DejaVuSans-64"/>
       <use xlink:href="#DejaVuSans-65" x="63.476562"/>
       <use xlink:href="#DejaVuSans-67" x="125"/>
       <use xlink:href="#DejaVuSans-20" x="188.476562"/>
       <use xlink:href="#DejaVuSans-73" x="220.263672"/>
       <use xlink:href="#DejaVuSans-6e" x="272.363281"/>
       <use xlink:href="#DejaVuSans-69" x="335.742188"/>
       <use xlink:href="#DejaVuSans-66" x="363.525391"/>
       <use xlink:href="#DejaVuSans-66" x="398.730469"/>
       <use xlink:href="#DejaVuSans-20" x="433.935547"/>
       <use xlink:href="#DejaVuSans-72" x="465.722656"/>
       <use xlink:href="#DejaVuSans-69" x="506.835938"/>
       <use xlink:href="#DejaVuSans-67" x="534.619141"/>
       <use xlink:href="#DejaVuSans-68" x="598.095703"/>
       <use xlink:href="#DejaVuSans-74" x="661.474609"/>
       <use xlink:href="#DejaVuSans-20" x="700.683594"/>
       <use xlink:href="#DejaVuSans-64" x="732.470703"/>
       <use xlink:href="#DejaVuSans-69" x="795.947266"/>
       <use xlink:href="#DejaVuSans-73" x="823.730469"/>
       <use xlink:href="#DejaVuSans-68" x="875.830078"/>
      </g>
     </g>
    </g>
   </g>
   <g id="EventCollection_1">
    <path d="M 212.236364 218.16 
L 212.236364 318.96 
" clip-path="url(#p4f25ca3aff)" style="fill: none; stroke: #bf00bf; stroke-width: 0.5"/>
    <path d="M 212.322781 218.16 
L 212.322781 318.96 
" clip-path="url(#p4f25ca3aff)" style="fill: none; stroke: #bf00bf; stroke-width: 0.5"/>
    <path d="M 212.409199 218.16 
L 212.409199 318.96 
" clip-path="url(#p4f25ca3aff)" style="fill: none; stroke: #bf00bf; stroke-width: 0.5"/>
    <path d="M 212.495617 218.16 
L 212.495617 318.96 
" clip-path="url(#p4f25ca3aff)" style="fill: none; stroke: #bf00bf; stroke-width: 0.5"/>
    <path d="M 212.582035 218.16 
L 212.582035 318.96 
" clip-path="url(#p4f25ca3aff)" style="fill: none; stroke: #bf00bf; stroke-width: 0.5"/>
    <path d="M 212.668453 218.16 
L 212.668453 318.96 
" clip-path="url(#p4f25ca3aff)" style="fill: none; stroke: #bf00bf; stroke-width: 0.5"/>
    <path d="M 313.172402 218.16 
L 313.172402 318.96 
" clip-path="url(#p4f25ca3aff)" style="fill: none; stroke: #bf00bf; stroke-width: 0.5"/>
    <path d="M 313.25882 218.16 
L 313.25882 318.96 
" clip-path="url(#p4f25ca3aff)" style="fill: none; stroke: #bf00bf; stroke-width: 0.5"/>
    <path d="M 313.345238 218.16 
L 313.345238 318.96 
" clip-path="url(#p4f25ca3aff)" style="fill: none; stroke: #bf00bf; stroke-width: 0.5"/>
    <path d="M 313.431656 218.16 
L 313.431656 318.96 
" clip-path="url(#p4f25ca3aff)" style="fill: none; stroke: #bf00bf; stroke-width: 0.5"/>
    <path d="M 431.73768 218.16 
L 431.73768 318.96 
" clip-path="url(#p4f25ca3aff)" style="fill: none; stroke: #bf00bf; stroke-width: 0.5"/>
    <path d="M 431.824098 218.16 
L 431.824098 318.96 
" clip-path="url(#p4f25ca3aff)" style="fill: none; stroke: #bf00bf; stroke-width: 0.5"/>
    <path d="M 431.910516 218.16 
L 431.910516 318.96 
" clip-path="url(#p4f25ca3aff)" style="fill: none; stroke: #bf00bf; stroke-width: 0.5"/>
    <path d="M 591.610686 218.16 
L 591.610686 318.96 
" clip-path="url(#p4f25ca3aff)" style="fill: none; stroke: #bf00bf; stroke-width: 0.5"/>
    <path d="M 591.697104 218.16 
L 591.697104 318.96 
" clip-path="url(#p4f25ca3aff)" style="fill: none; stroke: #bf00bf; stroke-width: 0.5"/>
    <path d="M 591.783522 218.16 
L 591.783522 318.96 
" clip-path="url(#p4f25ca3aff)" style="fill: none; stroke: #bf00bf; stroke-width: 0.5"/>
    <path d="M 591.86994 218.16 
L 591.86994 318.96 
" clip-path="url(#p4f25ca3aff)" style="fill: none; stroke: #bf00bf; stroke-width: 0.5"/>
    <path d="M 591.956357 218.16 
L 591.956357 318.96 
" clip-path="url(#p4f25ca3aff)" style="fill: none; stroke: #bf00bf; stroke-width: 0.5"/>
    <path d="M 592.042775 218.16 
L 592.042775 318.96 
" clip-path="url(#p4f25ca3aff)" style="fill: none; stroke: #bf00bf; stroke-width: 0.5"/>
    <path d="M 850.172867 218.16 
L 850.172867 318.96 
" clip-path="url(#p4f25ca3aff)" style="fill: none; stroke: #bf00bf; stroke-width: 0.5"/>
    <path d="M 850.259284 218.16 
L 850.259284 318.96 
" clip-path="url(#p4f25ca3aff)" style="fill: none; stroke: #bf00bf; stroke-width: 0.5"/>
    <path d="M 850.345702 218.16 
L 850.345702 318.96 
" clip-path="url(#p4f25ca3aff)" style="fill: none; stroke: #bf00bf; stroke-width: 0.5"/>
    <path d="M 850.43212 218.16 
L 850.43212 318.96 
" clip-path="url(#p4f25ca3aff)" style="fill: none; stroke: #bf00bf; stroke-width: 0.5"/>
    <path d="M 850.518538 218.16 
L 850.518538 318.96 
" clip-path="url(#p4f25ca3aff)" style="fill: none; stroke: #bf00bf; stroke-width: 0.5"/>
    <path d="M 850.604956 218.16 
L 850.604956 318.96 
" clip-path="url(#p4f25ca3aff)" style="fill: none; stroke: #bf00bf; stroke-width: 0.5"/>
    <path d="M 850.691374 218.16 
L 850.691374 318.96 
" clip-path="url(#p4f25ca3aff)" style="fill: none; stroke: #bf00bf; stroke-width: 0.5"/>
    <path d="M 850.777792 218.16 
L 850.777792 318.96 
" clip-path="url(#p4f25ca3aff)" style="fill: none; stroke: #bf00bf; stroke-width: 0.5"/>
    <path d="M 850.864209 218.16 
L 850.864209 318.96 
" clip-path="url(#p4f25ca3aff)" style="fill: none; stroke: #bf00bf; stroke-width: 0.5"/>
    <path d="M 850.950627 218.16 
L 850.950627 318.96 
" clip-path="url(#p4f25ca3aff)" style="fill: none; stroke: #bf00bf; stroke-width: 0.5"/>
    <path d="M 851.037045 218.16 
L 851.037045 318.96 
" clip-path="url(#p4f25ca3aff)" style="fill: none; stroke: #bf00bf; stroke-width: 0.5"/>
    <path d="M 851.123463 218.16 
L 851.123463 318.96 
" clip-path="url(#p4f25ca3aff)" style="fill: none; stroke: #bf00bf; stroke-width: 0.5"/>
    <path d="M 851.209881 218.16 
L 851.209881 318.96 
" clip-path="url(#p4f25ca3aff)" style="fill: none; stroke: #bf00bf; stroke-width: 0.5"/>
    <path d="M 851.296299 218.16 
L 851.296299 318.96 
" clip-path="url(#p4f25ca3aff)" style="fill: none; stroke: #bf00bf; stroke-width: 0.5"/>
    <path d="M 851.382716 218.16 
L 851.382716 318.96 
" clip-path="url(#p4f25ca3aff)" style="fill: none; stroke: #bf00bf; stroke-width: 0.5"/>
    <path d="M 863.481214 218.16 
L 863.481214 318.96 
" clip-path="url(#p4f25ca3aff)" style="fill: none; stroke: #bf00bf; stroke-width: 0.5"/>
    <path d="M 863.567632 218.16 
L 863.567632 318.96 
" clip-path="url(#p4f25ca3aff)" style="fill: none; stroke: #bf00bf; stroke-width: 0.5"/>
    <path d="M 863.65405 218.16 
L 863.65405 318.96 
" clip-path="url(#p4f25ca3aff)" style="fill: none; stroke: #bf00bf; stroke-width: 0.5"/>
    <path d="M 863.740468 218.16 
L 863.740468 318.96 
" clip-path="url(#p4f25ca3aff)" style="fill: none; stroke: #bf00bf; stroke-width: 0.5"/>
    <path d="M 863.826886 218.16 
L 863.826886 318.96 
" clip-path="url(#p4f25ca3aff)" style="fill: none; stroke: #bf00bf; stroke-width: 0.5"/>
    <path d="M 864.604646 218.16 
L 864.604646 318.96 
" clip-path="url(#p4f25ca3aff)" style="fill: none; stroke: #bf00bf; stroke-width: 0.5"/>
    <path d="M 864.691064 218.16 
L 864.691064 318.96 
" clip-path="url(#p4f25ca3aff)" style="fill: none; stroke: #bf00bf; stroke-width: 0.5"/>
    <path d="M 864.777482 218.16 
L 864.777482 318.96 
" clip-path="url(#p4f25ca3aff)" style="fill: none; stroke: #bf00bf; stroke-width: 0.5"/>
    <path d="M 867.283599 218.16 
L 867.283599 318.96 
" clip-path="url(#p4f25ca3aff)" style="fill: none; stroke: #bf00bf; stroke-width: 0.5"/>
    <path d="M 867.370017 218.16 
L 867.370017 318.96 
" clip-path="url(#p4f25ca3aff)" style="fill: none; stroke: #bf00bf; stroke-width: 0.5"/>
    <path d="M 867.456435 218.16 
L 867.456435 318.96 
" clip-path="url(#p4f25ca3aff)" style="fill: none; stroke: #bf00bf; stroke-width: 0.5"/>
    <path d="M 867.542853 218.16 
L 867.542853 318.96 
" clip-path="url(#p4f25ca3aff)" style="fill: none; stroke: #bf00bf; stroke-width: 0.5"/>
    <path d="M 867.629271 218.16 
L 867.629271 318.96 
" clip-path="url(#p4f25ca3aff)" style="fill: none; stroke: #bf00bf; stroke-width: 0.5"/>
    <path d="M 867.715688 218.16 
L 867.715688 318.96 
" clip-path="url(#p4f25ca3aff)" style="fill: none; stroke: #bf00bf; stroke-width: 0.5"/>
    <path d="M 867.802106 218.16 
L 867.802106 318.96 
" clip-path="url(#p4f25ca3aff)" style="fill: none; stroke: #bf00bf; stroke-width: 0.5"/>
    <path d="M 867.888524 218.16 
L 867.888524 318.96 
" clip-path="url(#p4f25ca3aff)" style="fill: none; stroke: #bf00bf; stroke-width: 0.5"/>
    <path d="M 867.974942 218.16 
L 867.974942 318.96 
" clip-path="url(#p4f25ca3aff)" style="fill: none; stroke: #bf00bf; stroke-width: 0.5"/>
    <path d="M 868.06136 218.16 
L 868.06136 318.96 
" clip-path="url(#p4f25ca3aff)" style="fill: none; stroke: #bf00bf; stroke-width: 0.5"/>
    <path d="M 868.147778 218.16 
L 868.147778 318.96 
" clip-path="url(#p4f25ca3aff)" style="fill: none; stroke: #bf00bf; stroke-width: 0.5"/>
    <path d="M 868.234195 218.16 
L 868.234195 318.96 
" clip-path="url(#p4f25ca3aff)" style="fill: none; stroke: #bf00bf; stroke-width: 0.5"/>
    <path d="M 868.320613 218.16 
L 868.320613 318.96 
" clip-path="url(#p4f25ca3aff)" style="fill: none; stroke: #bf00bf; stroke-width: 0.5"/>
    <path d="M 868.407031 218.16 
L 868.407031 318.96 
" clip-path="url(#p4f25ca3aff)" style="fill: none; stroke: #bf00bf; stroke-width: 0.5"/>
    <path d="M 868.493449 218.16 
L 868.493449 318.96 
" clip-path="url(#p4f25ca3aff)" style="fill: none; stroke: #bf00bf; stroke-width: 0.5"/>
    <path d="M 868.579867 218.16 
L 868.579867 318.96 
" clip-path="url(#p4f25ca3aff)" style="fill: none; stroke: #bf00bf; stroke-width: 0.5"/>
    <path d="M 868.666285 218.16 
L 868.666285 318.96 
" clip-path="url(#p4f25ca3aff)" style="fill: none; stroke: #bf00bf; stroke-width: 0.5"/>
    <path d="M 868.752702 218.16 
L 868.752702 318.96 
" clip-path="url(#p4f25ca3aff)" style="fill: none; stroke: #bf00bf; stroke-width: 0.5"/>
    <path d="M 869.962552 218.16 
L 869.962552 318.96 
" clip-path="url(#p4f25ca3aff)" style="fill: none; stroke: #bf00bf; stroke-width: 0.5"/>
    <path d="M 870.04897 218.16 
L 870.04897 318.96 
" clip-path="url(#p4f25ca3aff)" style="fill: none; stroke: #bf00bf; stroke-width: 0.5"/>
    <path d="M 870.135388 218.16 
L 870.135388 318.96 
" clip-path="url(#p4f25ca3aff)" style="fill: none; stroke: #bf00bf; stroke-width: 0.5"/>
    <path d="M 870.221806 218.16 
L 870.221806 318.96 
" clip-path="url(#p4f25ca3aff)" style="fill: none; stroke: #bf00bf; stroke-width: 0.5"/>
    <path d="M 871.085984 218.16 
L 871.085984 318.96 
" clip-path="url(#p4f25ca3aff)" style="fill: none; stroke: #bf00bf; stroke-width: 0.5"/>
    <path d="M 871.172402 218.16 
L 871.172402 318.96 
" clip-path="url(#p4f25ca3aff)" style="fill: none; stroke: #bf00bf; stroke-width: 0.5"/>
    <path d="M 871.25882 218.16 
L 871.25882 318.96 
" clip-path="url(#p4f25ca3aff)" style="fill: none; stroke: #bf00bf; stroke-width: 0.5"/>
    <path d="M 871.345238 218.16 
L 871.345238 318.96 
" clip-path="url(#p4f25ca3aff)" style="fill: none; stroke: #bf00bf; stroke-width: 0.5"/>
    <path d="M 871.431656 218.16 
L 871.431656 318.96 
" clip-path="url(#p4f25ca3aff)" style="fill: none; stroke: #bf00bf; stroke-width: 0.5"/>
    <path d="M 871.518073 218.16 
L 871.518073 318.96 
" clip-path="url(#p4f25ca3aff)" style="fill: none; stroke: #bf00bf; stroke-width: 0.5"/>
    <path d="M 871.604491 218.16 
L 871.604491 318.96 
" clip-path="url(#p4f25ca3aff)" style="fill: none; stroke: #bf00bf; stroke-width: 0.5"/>
    <path d="M 871.690909 218.16 
L 871.690909 318.96 
" clip-path="url(#p4f25ca3aff)" style="fill: none; stroke: #bf00bf; stroke-width: 0.5"/>
   </g>
   <g id="EventCollection_2">
    <path d="M 161.509091 117.36 
L 161.509091 218.16 
" clip-path="url(#p4f25ca3aff)" style="fill: none; stroke: #bfbf00; stroke-width: 0.5"/>
    <path d="M 161.595509 117.36 
L 161.595509 218.16 
" clip-path="url(#p4f25ca3aff)" style="fill: none; stroke: #bfbf00; stroke-width: 0.5"/>
    <path d="M 161.681927 117.36 
L 161.681927 218.16 
" clip-path="url(#p4f25ca3aff)" style="fill: none; stroke: #bfbf00; stroke-width: 0.5"/>
    <path d="M 190.718321 117.36 
L 190.718321 218.16 
" clip-path="url(#p4f25ca3aff)" style="fill: none; stroke: #bfbf00; stroke-width: 0.5"/>
    <path d="M 190.804739 117.36 
L 190.804739 218.16 
" clip-path="url(#p4f25ca3aff)" style="fill: none; stroke: #bfbf00; stroke-width: 0.5"/>
    <path d="M 190.891157 117.36 
L 190.891157 218.16 
" clip-path="url(#p4f25ca3aff)" style="fill: none; stroke: #bfbf00; stroke-width: 0.5"/>
    <path d="M 190.977575 117.36 
L 190.977575 218.16 
" clip-path="url(#p4f25ca3aff)" style="fill: none; stroke: #bfbf00; stroke-width: 0.5"/>
    <path d="M 191.063993 117.36 
L 191.063993 218.16 
" clip-path="url(#p4f25ca3aff)" style="fill: none; stroke: #bfbf00; stroke-width: 0.5"/>
    <path d="M 191.15041 117.36 
L 191.15041 218.16 
" clip-path="url(#p4f25ca3aff)" style="fill: none; stroke: #bfbf00; stroke-width: 0.5"/>
    <path d="M 191.236828 117.36 
L 191.236828 218.16 
" clip-path="url(#p4f25ca3aff)" style="fill: none; stroke: #bfbf00; stroke-width: 0.5"/>
    <path d="M 191.323246 117.36 
L 191.323246 218.16 
" clip-path="url(#p4f25ca3aff)" style="fill: none; stroke: #bfbf00; stroke-width: 0.5"/>
    <path d="M 191.409664 117.36 
L 191.409664 218.16 
" clip-path="url(#p4f25ca3aff)" style="fill: none; stroke: #bfbf00; stroke-width: 0.5"/>
    <path d="M 191.496082 117.36 
L 191.496082 218.16 
" clip-path="url(#p4f25ca3aff)" style="fill: none; stroke: #bfbf00; stroke-width: 0.5"/>
    <path d="M 191.5825 117.36 
L 191.5825 218.16 
" clip-path="url(#p4f25ca3aff)" style="fill: none; stroke: #bfbf00; stroke-width: 0.5"/>
    <path d="M 206.878457 117.36 
L 206.878457 218.16 
" clip-path="url(#p4f25ca3aff)" style="fill: none; stroke: #bfbf00; stroke-width: 0.5"/>
    <path d="M 206.964875 117.36 
L 206.964875 218.16 
" clip-path="url(#p4f25ca3aff)" style="fill: none; stroke: #bfbf00; stroke-width: 0.5"/>
    <path d="M 207.051293 117.36 
L 207.051293 218.16 
" clip-path="url(#p4f25ca3aff)" style="fill: none; stroke: #bfbf00; stroke-width: 0.5"/>
    <path d="M 207.137711 117.36 
L 207.137711 218.16 
" clip-path="url(#p4f25ca3aff)" style="fill: none; stroke: #bfbf00; stroke-width: 0.5"/>
    <path d="M 207.224129 117.36 
L 207.224129 218.16 
" clip-path="url(#p4f25ca3aff)" style="fill: none; stroke: #bfbf00; stroke-width: 0.5"/>
    <path d="M 370.985938 117.36 
L 370.985938 218.16 
" clip-path="url(#p4f25ca3aff)" style="fill: none; stroke: #bfbf00; stroke-width: 0.5"/>
    <path d="M 371.072356 117.36 
L 371.072356 218.16 
" clip-path="url(#p4f25ca3aff)" style="fill: none; stroke: #bfbf00; stroke-width: 0.5"/>
    <path d="M 371.158773 117.36 
L 371.158773 218.16 
" clip-path="url(#p4f25ca3aff)" style="fill: none; stroke: #bfbf00; stroke-width: 0.5"/>
    <path d="M 371.245191 117.36 
L 371.245191 218.16 
" clip-path="url(#p4f25ca3aff)" style="fill: none; stroke: #bfbf00; stroke-width: 0.5"/>
    <path d="M 371.331609 117.36 
L 371.331609 218.16 
" clip-path="url(#p4f25ca3aff)" style="fill: none; stroke: #bfbf00; stroke-width: 0.5"/>
    <path d="M 371.418027 117.36 
L 371.418027 218.16 
" clip-path="url(#p4f25ca3aff)" style="fill: none; stroke: #bfbf00; stroke-width: 0.5"/>
    <path d="M 371.504445 117.36 
L 371.504445 218.16 
" clip-path="url(#p4f25ca3aff)" style="fill: none; stroke: #bfbf00; stroke-width: 0.5"/>
    <path d="M 371.590863 117.36 
L 371.590863 218.16 
" clip-path="url(#p4f25ca3aff)" style="fill: none; stroke: #bfbf00; stroke-width: 0.5"/>
    <path d="M 371.67728 117.36 
L 371.67728 218.16 
" clip-path="url(#p4f25ca3aff)" style="fill: none; stroke: #bfbf00; stroke-width: 0.5"/>
    <path d="M 371.763698 117.36 
L 371.763698 218.16 
" clip-path="url(#p4f25ca3aff)" style="fill: none; stroke: #bfbf00; stroke-width: 0.5"/>
    <path d="M 371.850116 117.36 
L 371.850116 218.16 
" clip-path="url(#p4f25ca3aff)" style="fill: none; stroke: #bfbf00; stroke-width: 0.5"/>
    <path d="M 371.936534 117.36 
L 371.936534 218.16 
" clip-path="url(#p4f25ca3aff)" style="fill: none; stroke: #bfbf00; stroke-width: 0.5"/>
    <path d="M 372.022952 117.36 
L 372.022952 218.16 
" clip-path="url(#p4f25ca3aff)" style="fill: none; stroke: #bfbf00; stroke-width: 0.5"/>
    <path d="M 372.10937 117.36 
L 372.10937 218.16 
" clip-path="url(#p4f25ca3aff)" style="fill: none; stroke: #bfbf00; stroke-width: 0.5"/>
    <path d="M 372.195788 117.36 
L 372.195788 218.16 
" clip-path="url(#p4f25ca3aff)" style="fill: none; stroke: #bfbf00; stroke-width: 0.5"/>
    <path d="M 372.282205 117.36 
L 372.282205 218.16 
" clip-path="url(#p4f25ca3aff)" style="fill: none; stroke: #bfbf00; stroke-width: 0.5"/>
    <path d="M 372.368623 117.36 
L 372.368623 218.16 
" clip-path="url(#p4f25ca3aff)" style="fill: none; stroke: #bfbf00; stroke-width: 0.5"/>
    <path d="M 372.455041 117.36 
L 372.455041 218.16 
" clip-path="url(#p4f25ca3aff)" style="fill: none; stroke: #bfbf00; stroke-width: 0.5"/>
    <path d="M 372.541459 117.36 
L 372.541459 218.16 
" clip-path="url(#p4f25ca3aff)" style="fill: none; stroke: #bfbf00; stroke-width: 0.5"/>
    <path d="M 372.627877 117.36 
L 372.627877 218.16 
" clip-path="url(#p4f25ca3aff)" style="fill: none; stroke: #bfbf00; stroke-width: 0.5"/>
    <path d="M 372.714295 117.36 
L 372.714295 218.16 
" clip-path="url(#p4f25ca3aff)" style="fill: none; stroke: #bfbf00; stroke-width: 0.5"/>
    <path d="M 372.800712 117.36 
L 372.800712 218.16 
" clip-path="url(#p4f25ca3aff)" style="fill: none; stroke: #bfbf00; stroke-width: 0.5"/>
    <path d="M 375.393248 117.36 
L 375.393248 218.16 
" clip-path="url(#p4f25ca3aff)" style="fill: none; stroke: #bfbf00; stroke-width: 0.5"/>
    <path d="M 375.479665 117.36 
L 375.479665 218.16 
" clip-path="url(#p4f25ca3aff)" style="fill: none; stroke: #bfbf00; stroke-width: 0.5"/>
    <path d="M 375.566083 117.36 
L 375.566083 218.16 
" clip-path="url(#p4f25ca3aff)" style="fill: none; stroke: #bfbf00; stroke-width: 0.5"/>
    <path d="M 375.652501 117.36 
L 375.652501 218.16 
" clip-path="url(#p4f25ca3aff)" style="fill: none; stroke: #bfbf00; stroke-width: 0.5"/>
    <path d="M 375.738919 117.36 
L 375.738919 218.16 
" clip-path="url(#p4f25ca3aff)" style="fill: none; stroke: #bfbf00; stroke-width: 0.5"/>
    <path d="M 375.825337 117.36 
L 375.825337 218.16 
" clip-path="url(#p4f25ca3aff)" style="fill: none; stroke: #bfbf00; stroke-width: 0.5"/>
    <path d="M 375.911755 117.36 
L 375.911755 218.16 
" clip-path="url(#p4f25ca3aff)" style="fill: none; stroke: #bfbf00; stroke-width: 0.5"/>
    <path d="M 380.751154 117.36 
L 380.751154 218.16 
" clip-path="url(#p4f25ca3aff)" style="fill: none; stroke: #bfbf00; stroke-width: 0.5"/>
    <path d="M 380.837572 117.36 
L 380.837572 218.16 
" clip-path="url(#p4f25ca3aff)" style="fill: none; stroke: #bfbf00; stroke-width: 0.5"/>
    <path d="M 380.923989 117.36 
L 380.923989 218.16 
" clip-path="url(#p4f25ca3aff)" style="fill: none; stroke: #bfbf00; stroke-width: 0.5"/>
    <path d="M 388.09667 117.36 
L 388.09667 218.16 
" clip-path="url(#p4f25ca3aff)" style="fill: none; stroke: #bfbf00; stroke-width: 0.5"/>
    <path d="M 388.183088 117.36 
L 388.183088 218.16 
" clip-path="url(#p4f25ca3aff)" style="fill: none; stroke: #bfbf00; stroke-width: 0.5"/>
    <path d="M 388.269506 117.36 
L 388.269506 218.16 
" clip-path="url(#p4f25ca3aff)" style="fill: none; stroke: #bfbf00; stroke-width: 0.5"/>
    <path d="M 388.355924 117.36 
L 388.355924 218.16 
" clip-path="url(#p4f25ca3aff)" style="fill: none; stroke: #bfbf00; stroke-width: 0.5"/>
    <path d="M 388.442342 117.36 
L 388.442342 218.16 
" clip-path="url(#p4f25ca3aff)" style="fill: none; stroke: #bfbf00; stroke-width: 0.5"/>
    <path d="M 388.528759 117.36 
L 388.528759 218.16 
" clip-path="url(#p4f25ca3aff)" style="fill: none; stroke: #bfbf00; stroke-width: 0.5"/>
    <path d="M 388.615177 117.36 
L 388.615177 218.16 
" clip-path="url(#p4f25ca3aff)" style="fill: none; stroke: #bfbf00; stroke-width: 0.5"/>
    <path d="M 388.701595 117.36 
L 388.701595 218.16 
" clip-path="url(#p4f25ca3aff)" style="fill: none; stroke: #bfbf00; stroke-width: 0.5"/>
    <path d="M 564.21623 117.36 
L 564.21623 218.16 
" clip-path="url(#p4f25ca3aff)" style="fill: none; stroke: #bfbf00; stroke-width: 0.5"/>
    <path d="M 564.302648 117.36 
L 564.302648 218.16 
" clip-path="url(#p4f25ca3aff)" style="fill: none; stroke: #bfbf00; stroke-width: 0.5"/>
    <path d="M 564.389066 117.36 
L 564.389066 218.16 
" clip-path="url(#p4f25ca3aff)" style="fill: none; stroke: #bfbf00; stroke-width: 0.5"/>
    <path d="M 564.475484 117.36 
L 564.475484 218.16 
" clip-path="url(#p4f25ca3aff)" style="fill: none; stroke: #bfbf00; stroke-width: 0.5"/>
    <path d="M 564.561902 117.36 
L 564.561902 218.16 
" clip-path="url(#p4f25ca3aff)" style="fill: none; stroke: #bfbf00; stroke-width: 0.5"/>
    <path d="M 564.64832 117.36 
L 564.64832 218.16 
" clip-path="url(#p4f25ca3aff)" style="fill: none; stroke: #bfbf00; stroke-width: 0.5"/>
    <path d="M 564.734737 117.36 
L 564.734737 218.16 
" clip-path="url(#p4f25ca3aff)" style="fill: none; stroke: #bfbf00; stroke-width: 0.5"/>
    <path d="M 564.821155 117.36 
L 564.821155 218.16 
" clip-path="url(#p4f25ca3aff)" style="fill: none; stroke: #bfbf00; stroke-width: 0.5"/>
    <path d="M 564.907573 117.36 
L 564.907573 218.16 
" clip-path="url(#p4f25ca3aff)" style="fill: none; stroke: #bfbf00; stroke-width: 0.5"/>
    <path d="M 606.474555 117.36 
L 606.474555 218.16 
" clip-path="url(#p4f25ca3aff)" style="fill: none; stroke: #bfbf00; stroke-width: 0.5"/>
    <path d="M 606.560973 117.36 
L 606.560973 218.16 
" clip-path="url(#p4f25ca3aff)" style="fill: none; stroke: #bfbf00; stroke-width: 0.5"/>
    <path d="M 606.64739 117.36 
L 606.64739 218.16 
" clip-path="url(#p4f25ca3aff)" style="fill: none; stroke: #bfbf00; stroke-width: 0.5"/>
    <path d="M 606.733808 117.36 
L 606.733808 218.16 
" clip-path="url(#p4f25ca3aff)" style="fill: none; stroke: #bfbf00; stroke-width: 0.5"/>
    <path d="M 606.820226 117.36 
L 606.820226 218.16 
" clip-path="url(#p4f25ca3aff)" style="fill: none; stroke: #bfbf00; stroke-width: 0.5"/>
    <path d="M 606.906644 117.36 
L 606.906644 218.16 
" clip-path="url(#p4f25ca3aff)" style="fill: none; stroke: #bfbf00; stroke-width: 0.5"/>
    <path d="M 646.658851 117.36 
L 646.658851 218.16 
" clip-path="url(#p4f25ca3aff)" style="fill: none; stroke: #bfbf00; stroke-width: 0.5"/>
    <path d="M 646.745269 117.36 
L 646.745269 218.16 
" clip-path="url(#p4f25ca3aff)" style="fill: none; stroke: #bfbf00; stroke-width: 0.5"/>
    <path d="M 646.831687 117.36 
L 646.831687 218.16 
" clip-path="url(#p4f25ca3aff)" style="fill: none; stroke: #bfbf00; stroke-width: 0.5"/>
    <path d="M 646.918104 117.36 
L 646.918104 218.16 
" clip-path="url(#p4f25ca3aff)" style="fill: none; stroke: #bfbf00; stroke-width: 0.5"/>
    <path d="M 647.004522 117.36 
L 647.004522 218.16 
" clip-path="url(#p4f25ca3aff)" style="fill: none; stroke: #bfbf00; stroke-width: 0.5"/>
    <path d="M 647.09094 117.36 
L 647.09094 218.16 
" clip-path="url(#p4f25ca3aff)" style="fill: none; stroke: #bfbf00; stroke-width: 0.5"/>
    <path d="M 647.177358 117.36 
L 647.177358 218.16 
" clip-path="url(#p4f25ca3aff)" style="fill: none; stroke: #bfbf00; stroke-width: 0.5"/>
    <path d="M 680.448227 117.36 
L 680.448227 218.16 
" clip-path="url(#p4f25ca3aff)" style="fill: none; stroke: #bfbf00; stroke-width: 0.5"/>
    <path d="M 680.534645 117.36 
L 680.534645 218.16 
" clip-path="url(#p4f25ca3aff)" style="fill: none; stroke: #bfbf00; stroke-width: 0.5"/>
    <path d="M 680.621062 117.36 
L 680.621062 218.16 
" clip-path="url(#p4f25ca3aff)" style="fill: none; stroke: #bfbf00; stroke-width: 0.5"/>
    <path d="M 680.70748 117.36 
L 680.70748 218.16 
" clip-path="url(#p4f25ca3aff)" style="fill: none; stroke: #bfbf00; stroke-width: 0.5"/>
    <path d="M 680.793898 117.36 
L 680.793898 218.16 
" clip-path="url(#p4f25ca3aff)" style="fill: none; stroke: #bfbf00; stroke-width: 0.5"/>
    <path d="M 680.880316 117.36 
L 680.880316 218.16 
" clip-path="url(#p4f25ca3aff)" style="fill: none; stroke: #bfbf00; stroke-width: 0.5"/>
    <path d="M 680.966734 117.36 
L 680.966734 218.16 
" clip-path="url(#p4f25ca3aff)" style="fill: none; stroke: #bfbf00; stroke-width: 0.5"/>
    <path d="M 748.891157 117.36 
L 748.891157 218.16 
" clip-path="url(#p4f25ca3aff)" style="fill: none; stroke: #bfbf00; stroke-width: 0.5"/>
    <path d="M 748.977575 117.36 
L 748.977575 218.16 
" clip-path="url(#p4f25ca3aff)" style="fill: none; stroke: #bfbf00; stroke-width: 0.5"/>
    <path d="M 749.063993 117.36 
L 749.063993 218.16 
" clip-path="url(#p4f25ca3aff)" style="fill: none; stroke: #bfbf00; stroke-width: 0.5"/>
    <path d="M 749.15041 117.36 
L 749.15041 218.16 
" clip-path="url(#p4f25ca3aff)" style="fill: none; stroke: #bfbf00; stroke-width: 0.5"/>
    <path d="M 802.210965 117.36 
L 802.210965 218.16 
" clip-path="url(#p4f25ca3aff)" style="fill: none; stroke: #bfbf00; stroke-width: 0.5"/>
    <path d="M 802.297383 117.36 
L 802.297383 218.16 
" clip-path="url(#p4f25ca3aff)" style="fill: none; stroke: #bfbf00; stroke-width: 0.5"/>
    <path d="M 802.383801 117.36 
L 802.383801 218.16 
" clip-path="url(#p4f25ca3aff)" style="fill: none; stroke: #bfbf00; stroke-width: 0.5"/>
    <path d="M 802.470218 117.36 
L 802.470218 218.16 
" clip-path="url(#p4f25ca3aff)" style="fill: none; stroke: #bfbf00; stroke-width: 0.5"/>
    <path d="M 802.556636 117.36 
L 802.556636 218.16 
" clip-path="url(#p4f25ca3aff)" style="fill: none; stroke: #bfbf00; stroke-width: 0.5"/>
    <path d="M 802.643054 117.36 
L 802.643054 218.16 
" clip-path="url(#p4f25ca3aff)" style="fill: none; stroke: #bfbf00; stroke-width: 0.5"/>
    <path d="M 802.729472 117.36 
L 802.729472 218.16 
" clip-path="url(#p4f25ca3aff)" style="fill: none; stroke: #bfbf00; stroke-width: 0.5"/>
    <path d="M 807.828125 117.36 
L 807.828125 218.16 
" clip-path="url(#p4f25ca3aff)" style="fill: none; stroke: #bfbf00; stroke-width: 0.5"/>
    <path d="M 807.914542 117.36 
L 807.914542 218.16 
" clip-path="url(#p4f25ca3aff)" style="fill: none; stroke: #bfbf00; stroke-width: 0.5"/>
    <path d="M 808.00096 117.36 
L 808.00096 218.16 
" clip-path="url(#p4f25ca3aff)" style="fill: none; stroke: #bfbf00; stroke-width: 0.5"/>
    <path d="M 808.087378 117.36 
L 808.087378 218.16 
" clip-path="url(#p4f25ca3aff)" style="fill: none; stroke: #bfbf00; stroke-width: 0.5"/>
    <path d="M 808.173796 117.36 
L 808.173796 218.16 
" clip-path="url(#p4f25ca3aff)" style="fill: none; stroke: #bfbf00; stroke-width: 0.5"/>
    <path d="M 808.260214 117.36 
L 808.260214 218.16 
" clip-path="url(#p4f25ca3aff)" style="fill: none; stroke: #bfbf00; stroke-width: 0.5"/>
    <path d="M 808.346632 117.36 
L 808.346632 218.16 
" clip-path="url(#p4f25ca3aff)" style="fill: none; stroke: #bfbf00; stroke-width: 0.5"/>
    <path d="M 808.433049 117.36 
L 808.433049 218.16 
" clip-path="url(#p4f25ca3aff)" style="fill: none; stroke: #bfbf00; stroke-width: 0.5"/>
    <path d="M 808.519467 117.36 
L 808.519467 218.16 
" clip-path="url(#p4f25ca3aff)" style="fill: none; stroke: #bfbf00; stroke-width: 0.5"/>
    <path d="M 808.605885 117.36 
L 808.605885 218.16 
" clip-path="url(#p4f25ca3aff)" style="fill: none; stroke: #bfbf00; stroke-width: 0.5"/>
    <path d="M 808.692303 117.36 
L 808.692303 218.16 
" clip-path="url(#p4f25ca3aff)" style="fill: none; stroke: #bfbf00; stroke-width: 0.5"/>
    <path d="M 808.778721 117.36 
L 808.778721 218.16 
" clip-path="url(#p4f25ca3aff)" style="fill: none; stroke: #bfbf00; stroke-width: 0.5"/>
    <path d="M 808.865139 117.36 
L 808.865139 218.16 
" clip-path="url(#p4f25ca3aff)" style="fill: none; stroke: #bfbf00; stroke-width: 0.5"/>
    <path d="M 808.951556 117.36 
L 808.951556 218.16 
" clip-path="url(#p4f25ca3aff)" style="fill: none; stroke: #bfbf00; stroke-width: 0.5"/>
    <path d="M 809.037974 117.36 
L 809.037974 218.16 
" clip-path="url(#p4f25ca3aff)" style="fill: none; stroke: #bfbf00; stroke-width: 0.5"/>
    <path d="M 809.124392 117.36 
L 809.124392 218.16 
" clip-path="url(#p4f25ca3aff)" style="fill: none; stroke: #bfbf00; stroke-width: 0.5"/>
    <path d="M 809.21081 117.36 
L 809.21081 218.16 
" clip-path="url(#p4f25ca3aff)" style="fill: none; stroke: #bfbf00; stroke-width: 0.5"/>
    <path d="M 809.297228 117.36 
L 809.297228 218.16 
" clip-path="url(#p4f25ca3aff)" style="fill: none; stroke: #bfbf00; stroke-width: 0.5"/>
    <path d="M 809.383646 117.36 
L 809.383646 218.16 
" clip-path="url(#p4f25ca3aff)" style="fill: none; stroke: #bfbf00; stroke-width: 0.5"/>
   </g>
   <g id="patch_3">
    <path d="M 126 384.48 
L 126 51.84 
" style="fill: none; stroke: #000000; stroke-width: 0.8; stroke-linejoin: miter; stroke-linecap: square"/>
   </g>
   <g id="patch_4">
    <path d="M 126 384.48 
L 907.2 384.48 
" style="fill: none; stroke: #000000; stroke-width: 0.8; stroke-linejoin: miter; stroke-linecap: square"/>
   </g>
   <g id="text_9">
    <!-- Mouse: 2; Paradigm: V1.10_Urinleft_Habituation; Date: 240402 -->
    <g transform="translate(327.631875 45.84) scale(0.12 -0.12)">
     <defs>
      <path id="DejaVuSans-4d" d="M 628 4666 
L 1569 4666 
L 2759 1491 
L 3956 4666 
L 4897 4666 
L 4897 0 
L 4281 0 
L 4281 4097 
L 3078 897 
L 2444 897 
L 1241 4097 
L 1241 0 
L 628 0 
L 628 4666 
z
" transform="scale(0.015625)"/>
      <path id="DejaVuSans-6f" d="M 1959 3097 
Q 1497 3097 1228 2736 
Q 959 2375 959 1747 
Q 959 1119 1226 758 
Q 1494 397 1959 397 
Q 2419 397 2687 759 
Q 2956 1122 2956 1747 
Q 2956 2369 2687 2733 
Q 2419 3097 1959 3097 
z
M 1959 3584 
Q 2709 3584 3137 3096 
Q 3566 2609 3566 1747 
Q 3566 888 3137 398 
Q 2709 -91 1959 -91 
Q 1206 -91 779 398 
Q 353 888 353 1747 
Q 353 2609 779 3096 
Q 1206 3584 1959 3584 
z
" transform="scale(0.015625)"/>
      <path id="DejaVuSans-75" d="M 544 1381 
L 544 3500 
L 1119 3500 
L 1119 1403 
Q 1119 906 1312 657 
Q 1506 409 1894 409 
Q 2359 409 2629 706 
Q 2900 1003 2900 1516 
L 2900 3500 
L 3475 3500 
L 3475 0 
L 2900 0 
L 2900 538 
Q 2691 219 2414 64 
Q 2138 -91 1772 -91 
Q 1169 -91 856 284 
Q 544 659 544 1381 
z
M 1991 3584 
L 1991 3584 
z
" transform="scale(0.015625)"/>
      <path id="DejaVuSans-3a" d="M 750 794 
L 1409 794 
L 1409 0 
L 750 0 
L 750 794 
z
M 750 3309 
L 1409 3309 
L 1409 2516 
L 750 2516 
L 750 3309 
z
" transform="scale(0.015625)"/>
      <path id="DejaVuSans-3b" d="M 750 3309 
L 1409 3309 
L 1409 2516 
L 750 2516 
L 750 3309 
z
M 750 794 
L 1409 794 
L 1409 256 
L 897 -744 
L 494 -744 
L 750 256 
L 750 794 
z
" transform="scale(0.015625)"/>
      <path id="DejaVuSans-50" d="M 1259 4147 
L 1259 2394 
L 2053 2394 
Q 2494 2394 2734 2622 
Q 2975 2850 2975 3272 
Q 2975 3691 2734 3919 
Q 2494 4147 2053 4147 
L 1259 4147 
z
M 628 4666 
L 2053 4666 
Q 2838 4666 3239 4311 
Q 3641 3956 3641 3272 
Q 3641 2581 3239 2228 
Q 2838 1875 2053 1875 
L 1259 1875 
L 1259 0 
L 628 0 
L 628 4666 
z
" transform="scale(0.015625)"/>
      <path id="DejaVuSans-61" d="M 2194 1759 
Q 1497 1759 1228 1600 
Q 959 1441 959 1056 
Q 959 750 1161 570 
Q 1363 391 1709 391 
Q 2188 391 2477 730 
Q 2766 1069 2766 1631 
L 2766 1759 
L 2194 1759 
z
M 3341 1997 
L 3341 0 
L 2766 0 
L 2766 531 
Q 2569 213 2275 61 
Q 1981 -91 1556 -91 
Q 1019 -91 701 211 
Q 384 513 384 1019 
Q 384 1609 779 1909 
Q 1175 2209 1959 2209 
L 2766 2209 
L 2766 2266 
Q 2766 2663 2505 2880 
Q 2244 3097 1772 3097 
Q 1472 3097 1187 3025 
Q 903 2953 641 2809 
L 641 3341 
Q 956 3463 1253 3523 
Q 1550 3584 1831 3584 
Q 2591 3584 2966 3190 
Q 3341 2797 3341 1997 
z
" transform="scale(0.015625)"/>
      <path id="DejaVuSans-56" d="M 1831 0 
L 50 4666 
L 709 4666 
L 2188 738 
L 3669 4666 
L 4325 4666 
L 2547 0 
L 1831 0 
z
" transform="scale(0.015625)"/>
      <path id="DejaVuSans-31" d="M 794 531 
L 1825 531 
L 1825 4091 
L 703 3866 
L 703 4441 
L 1819 4666 
L 2450 4666 
L 2450 531 
L 3481 531 
L 3481 0 
L 794 0 
L 794 531 
z
" transform="scale(0.015625)"/>
      <path id="DejaVuSans-2e" d="M 684 794 
L 1344 794 
L 1344 0 
L 684 0 
L 684 794 
z
" transform="scale(0.015625)"/>
      <path id="DejaVuSans-5f" d="M 3263 -1063 
L 3263 -1509 
L -63 -1509 
L -63 -1063 
L 3263 -1063 
z
" transform="scale(0.015625)"/>
      <path id="DejaVuSans-55" d="M 556 4666 
L 1191 4666 
L 1191 1831 
Q 1191 1081 1462 751 
Q 1734 422 2344 422 
Q 2950 422 3222 751 
Q 3494 1081 3494 1831 
L 3494 4666 
L 4128 4666 
L 4128 1753 
Q 4128 841 3676 375 
Q 3225 -91 2344 -91 
Q 1459 -91 1007 375 
Q 556 841 556 1753 
L 556 4666 
z
" transform="scale(0.015625)"/>
      <path id="DejaVuSans-48" d="M 628 4666 
L 1259 4666 
L 1259 2753 
L 3553 2753 
L 3553 4666 
L 4184 4666 
L 4184 0 
L 3553 0 
L 3553 2222 
L 1259 2222 
L 1259 0 
L 628 0 
L 628 4666 
z
" transform="scale(0.015625)"/>
      <path id="DejaVuSans-62" d="M 3116 1747 
Q 3116 2381 2855 2742 
Q 2594 3103 2138 3103 
Q 1681 3103 1420 2742 
Q 1159 2381 1159 1747 
Q 1159 1113 1420 752 
Q 1681 391 2138 391 
Q 2594 391 2855 752 
Q 3116 1113 3116 1747 
z
M 1159 2969 
Q 1341 3281 1617 3432 
Q 1894 3584 2278 3584 
Q 2916 3584 3314 3078 
Q 3713 2572 3713 1747 
Q 3713 922 3314 415 
Q 2916 -91 2278 -91 
Q 1894 -91 1617 61 
Q 1341 213 1159 525 
L 1159 0 
L 581 0 
L 581 4863 
L 1159 4863 
L 1159 2969 
z
" transform="scale(0.015625)"/>
      <path id="DejaVuSans-44" d="M 1259 4147 
L 1259 519 
L 2022 519 
Q 2988 519 3436 956 
Q 3884 1394 3884 2338 
Q 3884 3275 3436 3711 
Q 2988 4147 2022 4147 
L 1259 4147 
z
M 628 4666 
L 1925 4666 
Q 3281 4666 3915 4102 
Q 4550 3538 4550 2338 
Q 4550 1131 3912 565 
Q 3275 0 1925 0 
L 628 0 
L 628 4666 
z
" transform="scale(0.015625)"/>
     </defs>
     <use xlink:href="#DejaVuSans-4d"/>
     <use xlink:href="#DejaVuSans-6f" x="86.279297"/>
     <use xlink:href="#DejaVuSans-75" x="147.460938"/>
     <use xlink:href="#DejaVuSans-73" x="210.839844"/>
     <use xlink:href="#DejaVuSans-65" x="262.939453"/>
     <use xlink:href="#DejaVuSans-3a" x="324.462891"/>
     <use xlink:href="#DejaVuSans-20" x="358.154297"/>
     <use xlink:href="#DejaVuSans-32" x="389.941406"/>
     <use xlink:href="#DejaVuSans-3b" x="453.564453"/>
     <use xlink:href="#DejaVuSans-20" x="487.255859"/>
     <use xlink:href="#DejaVuSans-50" x="519.042969"/>
     <use xlink:href="#DejaVuSans-61" x="574.845703"/>
     <use xlink:href="#DejaVuSans-72" x="636.125"/>
     <use xlink:href="#DejaVuSans-61" x="677.238281"/>
     <use xlink:href="#DejaVuSans-64" x="738.517578"/>
     <use xlink:href="#DejaVuSans-69" x="801.994141"/>
     <use xlink:href="#DejaVuSans-67" x="829.777344"/>
     <use xlink:href="#DejaVuSans-6d" x="893.253906"/>
     <use xlink:href="#DejaVuSans-3a" x="990.666016"/>
     <use xlink:href="#DejaVuSans-20" x="1024.357422"/>
     <use xlink:href="#DejaVuSans-56" x="1056.144531"/>
     <use xlink:href="#DejaVuSans-31" x="1124.552734"/>
     <use xlink:href="#DejaVuSans-2e" x="1188.175781"/>
     <use xlink:href="#DejaVuSans-31" x="1219.962891"/>
     <use xlink:href="#DejaVuSans-30" x="1283.585938"/>
     <use xlink:href="#DejaVuSans-5f" x="1347.208984"/>
     <use xlink:href="#DejaVuSans-55" x="1397.208984"/>
     <use xlink:href="#DejaVuSans-72" x="1470.402344"/>
     <use xlink:href="#DejaVuSans-69" x="1511.515625"/>
     <use xlink:href="#DejaVuSans-6e" x="1539.298828"/>
     <use xlink:href="#DejaVuSans-6c" x="1602.677734"/>
     <use xlink:href="#DejaVuSans-65" x="1630.460938"/>
     <use xlink:href="#DejaVuSans-66" x="1691.984375"/>
     <use xlink:href="#DejaVuSans-74" x="1725.439453"/>
     <use xlink:href="#DejaVuSans-5f" x="1764.648438"/>
     <use xlink:href="#DejaVuSans-48" x="1814.648438"/>
     <use xlink:href="#DejaVuSans-61" x="1889.84375"/>
     <use xlink:href="#DejaVuSans-62" x="1951.123047"/>
     <use xlink:href="#DejaVuSans-69" x="2014.599609"/>
     <use xlink:href="#DejaVuSans-74" x="2042.382812"/>
     <use xlink:href="#DejaVuSans-75" x="2081.591797"/>
     <use xlink:href="#DejaVuSans-61" x="2144.970703"/>
     <use xlink:href="#DejaVuSans-74" x="2206.25"/>
     <use xlink:href="#DejaVuSans-69" x="2245.458984"/>
     <use xlink:href="#DejaVuSans-6f" x="2273.242188"/>
     <use xlink:href="#DejaVuSans-6e" x="2334.423828"/>
     <use xlink:href="#DejaVuSans-3b" x="2397.802734"/>
     <use xlink:href="#DejaVuSans-20" x="2431.494141"/>
     <use xlink:href="#DejaVuSans-44" x="2463.28125"/>
     <use xlink:href="#DejaVuSans-61" x="2540.283203"/>
     <use xlink:href="#DejaVuSans-74" x="2601.5625"/>
     <use xlink:href="#DejaVuSans-65" x="2640.771484"/>
     <use xlink:href="#DejaVuSans-3a" x="2702.294922"/>
     <use xlink:href="#DejaVuSans-20" x="2735.986328"/>
     <use xlink:href="#DejaVuSans-32" x="2767.773438"/>
     <use xlink:href="#DejaVuSans-34" x="2831.396484"/>
     <use xlink:href="#DejaVuSans-30" x="2895.019531"/>
     <use xlink:href="#DejaVuSans-34" x="2958.642578"/>
     <use xlink:href="#DejaVuSans-30" x="3022.265625"/>
     <use xlink:href="#DejaVuSans-32" x="3085.888672"/>
    </g>
   </g>
  </g>
 </g>
 <defs>
  <clipPath id="p4f25ca3aff">
   <rect x="126" y="51.84" width="781.2" height="332.64"/>
  </clipPath>
 </defs>
</svg>
