<?xml version="1.0" encoding="utf-8" standalone="no"?>
<!DOCTYPE svg PUBLIC "-//W3C//DTD SVG 1.1//EN"
  "http://www.w3.org/Graphics/SVG/1.1/DTD/svg11.dtd">
<svg xmlns:xlink="http://www.w3.org/1999/xlink" width="1008pt" height="432pt" viewBox="0 0 1008 432" xmlns="http://www.w3.org/2000/svg" version="1.1">
 <metadata>
  <rdf:RDF xmlns:dc="http://purl.org/dc/elements/1.1/" xmlns:cc="http://creativecommons.org/ns#" xmlns:rdf="http://www.w3.org/1999/02/22-rdf-syntax-ns#">
   <cc:Work>
    <dc:type rdf:resource="http://purl.org/dc/dcmitype/StillImage"/>
    <dc:date>2024-05-13T10:32:31.613295</dc:date>
    <dc:format>image/svg+xml</dc:format>
    <dc:creator>
     <cc:Agent>
      <dc:title>Matplotlib v3.8.3, https://matplotlib.org/</dc:title>
     </cc:Agent>
    </dc:creator>
   </cc:Work>
  </rdf:RDF>
 </metadata>
 <defs>
  <style type="text/css">*{stroke-linejoin: round; stroke-linecap: butt}</style>
 </defs>
 <g id="figure_1">
  <g id="patch_1">
   <path d="M 0 432 
L 1008 432 
L 1008 0 
L 0 0 
z
" style="fill: #ffffff"/>
  </g>
  <g id="axes_1">
   <g id="patch_2">
    <path d="M 126 384.48 
L 907.2 384.48 
L 907.2 51.84 
L 126 51.84 
z
"/>
   </g>
   <g id="matplotlib.axis_1">
    <g id="xtick_1">
     <g id="line2d_1">
      <defs>
       <path id="mb81972ae32" d="M 0 0 
L 0 3.5 
" style="stroke: #000000; stroke-width: 0.8"/>
      </defs>
      <g>
       <use xlink:href="#mb81972ae32" x="135.504839" y="384.48" style="stroke: #000000; stroke-width: 0.8"/>
      </g>
     </g>
     <g id="text_1">
      <!-- 0 -->
      <g transform="translate(132.323589 399.078438) scale(0.1 -0.1)">
       <defs>
        <path id="DejaVuSans-30" d="M 2034 4250 
Q 1547 4250 1301 3770 
Q 1056 3291 1056 2328 
Q 1056 1369 1301 889 
Q 1547 409 2034 409 
Q 2525 409 2770 889 
Q 3016 1369 3016 2328 
Q 3016 3291 2770 3770 
Q 2525 4250 2034 4250 
z
M 2034 4750 
Q 2819 4750 3233 4129 
Q 3647 3509 3647 2328 
Q 3647 1150 3233 529 
Q 2819 -91 2034 -91 
Q 1250 -91 836 529 
Q 422 1150 422 2328 
Q 422 3509 836 4129 
Q 1250 4750 2034 4750 
z
" transform="scale(0.015625)"/>
       </defs>
       <use xlink:href="#DejaVuSans-30"/>
      </g>
     </g>
    </g>
    <g id="xtick_2">
     <g id="line2d_2">
      <g>
       <use xlink:href="#mb81972ae32" x="306.335692" y="384.48" style="stroke: #000000; stroke-width: 0.8"/>
      </g>
     </g>
     <g id="text_2">
      <!-- 2 -->
      <g transform="translate(303.154442 399.078438) scale(0.1 -0.1)">
       <defs>
        <path id="DejaVuSans-32" d="M 1228 531 
L 3431 531 
L 3431 0 
L 469 0 
L 469 531 
Q 828 903 1448 1529 
Q 2069 2156 2228 2338 
Q 2531 2678 2651 2914 
Q 2772 3150 2772 3378 
Q 2772 3750 2511 3984 
Q 2250 4219 1831 4219 
Q 1534 4219 1204 4116 
Q 875 4013 500 3803 
L 500 4441 
Q 881 4594 1212 4672 
Q 1544 4750 1819 4750 
Q 2544 4750 2975 4387 
Q 3406 4025 3406 3419 
Q 3406 3131 3298 2873 
Q 3191 2616 2906 2266 
Q 2828 2175 2409 1742 
Q 1991 1309 1228 531 
z
" transform="scale(0.015625)"/>
       </defs>
       <use xlink:href="#DejaVuSans-32"/>
      </g>
     </g>
    </g>
    <g id="xtick_3">
     <g id="line2d_3">
      <g>
       <use xlink:href="#mb81972ae32" x="477.166545" y="384.48" style="stroke: #000000; stroke-width: 0.8"/>
      </g>
     </g>
     <g id="text_3">
      <!-- 4 -->
      <g transform="translate(473.985295 399.078438) scale(0.1 -0.1)">
       <defs>
        <path id="DejaVuSans-34" d="M 2419 4116 
L 825 1625 
L 2419 1625 
L 2419 4116 
z
M 2253 4666 
L 3047 4666 
L 3047 1625 
L 3713 1625 
L 3713 1100 
L 3047 1100 
L 3047 0 
L 2419 0 
L 2419 1100 
L 313 1100 
L 313 1709 
L 2253 4666 
z
" transform="scale(0.015625)"/>
       </defs>
       <use xlink:href="#DejaVuSans-34"/>
      </g>
     </g>
    </g>
    <g id="xtick_4">
     <g id="line2d_4">
      <g>
       <use xlink:href="#mb81972ae32" x="647.997398" y="384.48" style="stroke: #000000; stroke-width: 0.8"/>
      </g>
     </g>
     <g id="text_4">
      <!-- 6 -->
      <g transform="translate(644.816148 399.078438) scale(0.1 -0.1)">
       <defs>
        <path id="DejaVuSans-36" d="M 2113 2584 
Q 1688 2584 1439 2293 
Q 1191 2003 1191 1497 
Q 1191 994 1439 701 
Q 1688 409 2113 409 
Q 2538 409 2786 701 
Q 3034 994 3034 1497 
Q 3034 2003 2786 2293 
Q 2538 2584 2113 2584 
z
M 3366 4563 
L 3366 3988 
Q 3128 4100 2886 4159 
Q 2644 4219 2406 4219 
Q 1781 4219 1451 3797 
Q 1122 3375 1075 2522 
Q 1259 2794 1537 2939 
Q 1816 3084 2150 3084 
Q 2853 3084 3261 2657 
Q 3669 2231 3669 1497 
Q 3669 778 3244 343 
Q 2819 -91 2113 -91 
Q 1303 -91 875 529 
Q 447 1150 447 2328 
Q 447 3434 972 4092 
Q 1497 4750 2381 4750 
Q 2619 4750 2861 4703 
Q 3103 4656 3366 4563 
z
" transform="scale(0.015625)"/>
       </defs>
       <use xlink:href="#DejaVuSans-36"/>
      </g>
     </g>
    </g>
    <g id="xtick_5">
     <g id="line2d_5">
      <g>
       <use xlink:href="#mb81972ae32" x="818.828251" y="384.48" style="stroke: #000000; stroke-width: 0.8"/>
      </g>
     </g>
     <g id="text_5">
      <!-- 8 -->
      <g transform="translate(815.647001 399.078438) scale(0.1 -0.1)">
       <defs>
        <path id="DejaVuSans-38" d="M 2034 2216 
Q 1584 2216 1326 1975 
Q 1069 1734 1069 1313 
Q 1069 891 1326 650 
Q 1584 409 2034 409 
Q 2484 409 2743 651 
Q 3003 894 3003 1313 
Q 3003 1734 2745 1975 
Q 2488 2216 2034 2216 
z
M 1403 2484 
Q 997 2584 770 2862 
Q 544 3141 544 3541 
Q 544 4100 942 4425 
Q 1341 4750 2034 4750 
Q 2731 4750 3128 4425 
Q 3525 4100 3525 3541 
Q 3525 3141 3298 2862 
Q 3072 2584 2669 2484 
Q 3125 2378 3379 2068 
Q 3634 1759 3634 1313 
Q 3634 634 3220 271 
Q 2806 -91 2034 -91 
Q 1263 -91 848 271 
Q 434 634 434 1313 
Q 434 1759 690 2068 
Q 947 2378 1403 2484 
z
M 1172 3481 
Q 1172 3119 1398 2916 
Q 1625 2713 2034 2713 
Q 2441 2713 2670 2916 
Q 2900 3119 2900 3481 
Q 2900 3844 2670 4047 
Q 2441 4250 2034 4250 
Q 1625 4250 1398 4047 
Q 1172 3844 1172 3481 
z
" transform="scale(0.015625)"/>
       </defs>
       <use xlink:href="#DejaVuSans-38"/>
      </g>
     </g>
    </g>
    <g id="text_6">
     <!-- Experiment length [min] -->
     <g transform="translate(455.264844 412.756563) scale(0.1 -0.1)">
      <defs>
       <path id="DejaVuSans-45" d="M 628 4666 
L 3578 4666 
L 3578 4134 
L 1259 4134 
L 1259 2753 
L 3481 2753 
L 3481 2222 
L 1259 2222 
L 1259 531 
L 3634 531 
L 3634 0 
L 628 0 
L 628 4666 
z
" transform="scale(0.015625)"/>
       <path id="DejaVuSans-78" d="M 3513 3500 
L 2247 1797 
L 3578 0 
L 2900 0 
L 1881 1375 
L 863 0 
L 184 0 
L 1544 1831 
L 300 3500 
L 978 3500 
L 1906 2253 
L 2834 3500 
L 3513 3500 
z
" transform="scale(0.015625)"/>
       <path id="DejaVuSans-70" d="M 1159 525 
L 1159 -1331 
L 581 -1331 
L 581 3500 
L 1159 3500 
L 1159 2969 
Q 1341 3281 1617 3432 
Q 1894 3584 2278 3584 
Q 2916 3584 3314 3078 
Q 3713 2572 3713 1747 
Q 3713 922 3314 415 
Q 2916 -91 2278 -91 
Q 1894 -91 1617 61 
Q 1341 213 1159 525 
z
M 3116 1747 
Q 3116 2381 2855 2742 
Q 2594 3103 2138 3103 
Q 1681 3103 1420 2742 
Q 1159 2381 1159 1747 
Q 1159 1113 1420 752 
Q 1681 391 2138 391 
Q 2594 391 2855 752 
Q 3116 1113 3116 1747 
z
" transform="scale(0.015625)"/>
       <path id="DejaVuSans-65" d="M 3597 1894 
L 3597 1613 
L 953 1613 
Q 991 1019 1311 708 
Q 1631 397 2203 397 
Q 2534 397 2845 478 
Q 3156 559 3463 722 
L 3463 178 
Q 3153 47 2828 -22 
Q 2503 -91 2169 -91 
Q 1331 -91 842 396 
Q 353 884 353 1716 
Q 353 2575 817 3079 
Q 1281 3584 2069 3584 
Q 2775 3584 3186 3129 
Q 3597 2675 3597 1894 
z
M 3022 2063 
Q 3016 2534 2758 2815 
Q 2500 3097 2075 3097 
Q 1594 3097 1305 2825 
Q 1016 2553 972 2059 
L 3022 2063 
z
" transform="scale(0.015625)"/>
       <path id="DejaVuSans-72" d="M 2631 2963 
Q 2534 3019 2420 3045 
Q 2306 3072 2169 3072 
Q 1681 3072 1420 2755 
Q 1159 2438 1159 1844 
L 1159 0 
L 581 0 
L 581 3500 
L 1159 3500 
L 1159 2956 
Q 1341 3275 1631 3429 
Q 1922 3584 2338 3584 
Q 2397 3584 2469 3576 
Q 2541 3569 2628 3553 
L 2631 2963 
z
" transform="scale(0.015625)"/>
       <path id="DejaVuSans-69" d="M 603 3500 
L 1178 3500 
L 1178 0 
L 603 0 
L 603 3500 
z
M 603 4863 
L 1178 4863 
L 1178 4134 
L 603 4134 
L 603 4863 
z
" transform="scale(0.015625)"/>
       <path id="DejaVuSans-6d" d="M 3328 2828 
Q 3544 3216 3844 3400 
Q 4144 3584 4550 3584 
Q 5097 3584 5394 3201 
Q 5691 2819 5691 2113 
L 5691 0 
L 5113 0 
L 5113 2094 
Q 5113 2597 4934 2840 
Q 4756 3084 4391 3084 
Q 3944 3084 3684 2787 
Q 3425 2491 3425 1978 
L 3425 0 
L 2847 0 
L 2847 2094 
Q 2847 2600 2669 2842 
Q 2491 3084 2119 3084 
Q 1678 3084 1418 2786 
Q 1159 2488 1159 1978 
L 1159 0 
L 581 0 
L 581 3500 
L 1159 3500 
L 1159 2956 
Q 1356 3278 1631 3431 
Q 1906 3584 2284 3584 
Q 2666 3584 2933 3390 
Q 3200 3197 3328 2828 
z
" transform="scale(0.015625)"/>
       <path id="DejaVuSans-6e" d="M 3513 2113 
L 3513 0 
L 2938 0 
L 2938 2094 
Q 2938 2591 2744 2837 
Q 2550 3084 2163 3084 
Q 1697 3084 1428 2787 
Q 1159 2491 1159 1978 
L 1159 0 
L 581 0 
L 581 3500 
L 1159 3500 
L 1159 2956 
Q 1366 3272 1645 3428 
Q 1925 3584 2291 3584 
Q 2894 3584 3203 3211 
Q 3513 2838 3513 2113 
z
" transform="scale(0.015625)"/>
       <path id="DejaVuSans-74" d="M 1172 4494 
L 1172 3500 
L 2356 3500 
L 2356 3053 
L 1172 3053 
L 1172 1153 
Q 1172 725 1289 603 
Q 1406 481 1766 481 
L 2356 481 
L 2356 0 
L 1766 0 
Q 1100 0 847 248 
Q 594 497 594 1153 
L 594 3053 
L 172 3053 
L 172 3500 
L 594 3500 
L 594 4494 
L 1172 4494 
z
" transform="scale(0.015625)"/>
       <path id="DejaVuSans-20" transform="scale(0.015625)"/>
       <path id="DejaVuSans-6c" d="M 603 4863 
L 1178 4863 
L 1178 0 
L 603 0 
L 603 4863 
z
" transform="scale(0.015625)"/>
       <path id="DejaVuSans-67" d="M 2906 1791 
Q 2906 2416 2648 2759 
Q 2391 3103 1925 3103 
Q 1463 3103 1205 2759 
Q 947 2416 947 1791 
Q 947 1169 1205 825 
Q 1463 481 1925 481 
Q 2391 481 2648 825 
Q 2906 1169 2906 1791 
z
M 3481 434 
Q 3481 -459 3084 -895 
Q 2688 -1331 1869 -1331 
Q 1566 -1331 1297 -1286 
Q 1028 -1241 775 -1147 
L 775 -588 
Q 1028 -725 1275 -790 
Q 1522 -856 1778 -856 
Q 2344 -856 2625 -561 
Q 2906 -266 2906 331 
L 2906 616 
Q 2728 306 2450 153 
Q 2172 0 1784 0 
Q 1141 0 747 490 
Q 353 981 353 1791 
Q 353 2603 747 3093 
Q 1141 3584 1784 3584 
Q 2172 3584 2450 3431 
Q 2728 3278 2906 2969 
L 2906 3500 
L 3481 3500 
L 3481 434 
z
" transform="scale(0.015625)"/>
       <path id="DejaVuSans-68" d="M 3513 2113 
L 3513 0 
L 2938 0 
L 2938 2094 
Q 2938 2591 2744 2837 
Q 2550 3084 2163 3084 
Q 1697 3084 1428 2787 
Q 1159 2491 1159 1978 
L 1159 0 
L 581 0 
L 581 4863 
L 1159 4863 
L 1159 2956 
Q 1366 3272 1645 3428 
Q 1925 3584 2291 3584 
Q 2894 3584 3203 3211 
Q 3513 2838 3513 2113 
z
" transform="scale(0.015625)"/>
       <path id="DejaVuSans-5b" d="M 550 4863 
L 1875 4863 
L 1875 4416 
L 1125 4416 
L 1125 -397 
L 1875 -397 
L 1875 -844 
L 550 -844 
L 550 4863 
z
" transform="scale(0.015625)"/>
       <path id="DejaVuSans-5d" d="M 1947 4863 
L 1947 -844 
L 622 -844 
L 622 -397 
L 1369 -397 
L 1369 4416 
L 622 4416 
L 622 4863 
L 1947 4863 
z
" transform="scale(0.015625)"/>
      </defs>
      <use xlink:href="#DejaVuSans-45"/>
      <use xlink:href="#DejaVuSans-78" x="63.183594"/>
      <use xlink:href="#DejaVuSans-70" x="122.363281"/>
      <use xlink:href="#DejaVuSans-65" x="185.839844"/>
      <use xlink:href="#DejaVuSans-72" x="247.363281"/>
      <use xlink:href="#DejaVuSans-69" x="288.476562"/>
      <use xlink:href="#DejaVuSans-6d" x="316.259766"/>
      <use xlink:href="#DejaVuSans-65" x="413.671875"/>
      <use xlink:href="#DejaVuSans-6e" x="475.195312"/>
      <use xlink:href="#DejaVuSans-74" x="538.574219"/>
      <use xlink:href="#DejaVuSans-20" x="577.783203"/>
      <use xlink:href="#DejaVuSans-6c" x="609.570312"/>
      <use xlink:href="#DejaVuSans-65" x="637.353516"/>
      <use xlink:href="#DejaVuSans-6e" x="698.876953"/>
      <use xlink:href="#DejaVuSans-67" x="762.255859"/>
      <use xlink:href="#DejaVuSans-74" x="825.732422"/>
      <use xlink:href="#DejaVuSans-68" x="864.941406"/>
      <use xlink:href="#DejaVuSans-20" x="928.320312"/>
      <use xlink:href="#DejaVuSans-5b" x="960.107422"/>
      <use xlink:href="#DejaVuSans-6d" x="999.121094"/>
      <use xlink:href="#DejaVuSans-69" x="1096.533203"/>
      <use xlink:href="#DejaVuSans-6e" x="1124.316406"/>
      <use xlink:href="#DejaVuSans-5d" x="1187.695312"/>
     </g>
    </g>
   </g>
   <g id="matplotlib.axis_2">
    <g id="ytick_1">
     <g id="line2d_6">
      <defs>
       <path id="me9bc325e79" d="M 0 0 
L -3.5 0 
" style="stroke: #000000; stroke-width: 0.8"/>
      </defs>
      <g>
       <use xlink:href="#me9bc325e79" x="126" y="268.56" style="stroke: #000000; stroke-width: 0.8"/>
      </g>
     </g>
     <g id="text_7">
      <!-- deg sniff left dish -->
      <g transform="translate(32.379687 272.359219) scale(0.1 -0.1)">
       <defs>
        <path id="DejaVuSans-64" d="M 2906 2969 
L 2906 4863 
L 3481 4863 
L 3481 0 
L 2906 0 
L 2906 525 
Q 2725 213 2448 61 
Q 2172 -91 1784 -91 
Q 1150 -91 751 415 
Q 353 922 353 1747 
Q 353 2572 751 3078 
Q 1150 3584 1784 3584 
Q 2172 3584 2448 3432 
Q 2725 3281 2906 2969 
z
M 947 1747 
Q 947 1113 1208 752 
Q 1469 391 1925 391 
Q 2381 391 2643 752 
Q 2906 1113 2906 1747 
Q 2906 2381 2643 2742 
Q 2381 3103 1925 3103 
Q 1469 3103 1208 2742 
Q 947 2381 947 1747 
z
" transform="scale(0.015625)"/>
        <path id="DejaVuSans-73" d="M 2834 3397 
L 2834 2853 
Q 2591 2978 2328 3040 
Q 2066 3103 1784 3103 
Q 1356 3103 1142 2972 
Q 928 2841 928 2578 
Q 928 2378 1081 2264 
Q 1234 2150 1697 2047 
L 1894 2003 
Q 2506 1872 2764 1633 
Q 3022 1394 3022 966 
Q 3022 478 2636 193 
Q 2250 -91 1575 -91 
Q 1294 -91 989 -36 
Q 684 19 347 128 
L 347 722 
Q 666 556 975 473 
Q 1284 391 1588 391 
Q 1994 391 2212 530 
Q 2431 669 2431 922 
Q 2431 1156 2273 1281 
Q 2116 1406 1581 1522 
L 1381 1569 
Q 847 1681 609 1914 
Q 372 2147 372 2553 
Q 372 3047 722 3315 
Q 1072 3584 1716 3584 
Q 2034 3584 2315 3537 
Q 2597 3491 2834 3397 
z
" transform="scale(0.015625)"/>
        <path id="DejaVuSans-66" d="M 2375 4863 
L 2375 4384 
L 1825 4384 
Q 1516 4384 1395 4259 
Q 1275 4134 1275 3809 
L 1275 3500 
L 2222 3500 
L 2222 3053 
L 1275 3053 
L 1275 0 
L 697 0 
L 697 3053 
L 147 3053 
L 147 3500 
L 697 3500 
L 697 3744 
Q 697 4328 969 4595 
Q 1241 4863 1831 4863 
L 2375 4863 
z
" transform="scale(0.015625)"/>
       </defs>
       <use xlink:href="#DejaVuSans-64"/>
       <use xlink:href="#DejaVuSans-65" x="63.476562"/>
       <use xlink:href="#DejaVuSans-67" x="125"/>
       <use xlink:href="#DejaVuSans-20" x="188.476562"/>
       <use xlink:href="#DejaVuSans-73" x="220.263672"/>
       <use xlink:href="#DejaVuSans-6e" x="272.363281"/>
       <use xlink:href="#DejaVuSans-69" x="335.742188"/>
       <use xlink:href="#DejaVuSans-66" x="363.525391"/>
       <use xlink:href="#DejaVuSans-66" x="398.730469"/>
       <use xlink:href="#DejaVuSans-20" x="433.935547"/>
       <use xlink:href="#DejaVuSans-6c" x="465.722656"/>
       <use xlink:href="#DejaVuSans-65" x="493.505859"/>
       <use xlink:href="#DejaVuSans-66" x="555.029297"/>
       <use xlink:href="#DejaVuSans-74" x="588.484375"/>
       <use xlink:href="#DejaVuSans-20" x="627.693359"/>
       <use xlink:href="#DejaVuSans-64" x="659.480469"/>
       <use xlink:href="#DejaVuSans-69" x="722.957031"/>
       <use xlink:href="#DejaVuSans-73" x="750.740234"/>
       <use xlink:href="#DejaVuSans-68" x="802.839844"/>
      </g>
     </g>
    </g>
    <g id="ytick_2">
     <g id="line2d_7">
      <g>
       <use xlink:href="#me9bc325e79" x="126" y="167.76" style="stroke: #000000; stroke-width: 0.8"/>
      </g>
     </g>
     <g id="text_8">
      <!-- deg sniff right dish -->
      <g transform="translate(25.08125 171.559219) scale(0.1 -0.1)">
       <use xlink:href="#DejaVuSans-64"/>
       <use xlink:href="#DejaVuSans-65" x="63.476562"/>
       <use xlink:href="#DejaVuSans-67" x="125"/>
       <use xlink:href="#DejaVuSans-20" x="188.476562"/>
       <use xlink:href="#DejaVuSans-73" x="220.263672"/>
       <use xlink:href="#DejaVuSans-6e" x="272.363281"/>
       <use xlink:href="#DejaVuSans-69" x="335.742188"/>
       <use xlink:href="#DejaVuSans-66" x="363.525391"/>
       <use xlink:href="#DejaVuSans-66" x="398.730469"/>
       <use xlink:href="#DejaVuSans-20" x="433.935547"/>
       <use xlink:href="#DejaVuSans-72" x="465.722656"/>
       <use xlink:href="#DejaVuSans-69" x="506.835938"/>
       <use xlink:href="#DejaVuSans-67" x="534.619141"/>
       <use xlink:href="#DejaVuSans-68" x="598.095703"/>
       <use xlink:href="#DejaVuSans-74" x="661.474609"/>
       <use xlink:href="#DejaVuSans-20" x="700.683594"/>
       <use xlink:href="#DejaVuSans-64" x="732.470703"/>
       <use xlink:href="#DejaVuSans-69" x="795.947266"/>
       <use xlink:href="#DejaVuSans-73" x="823.730469"/>
       <use xlink:href="#DejaVuSans-68" x="875.830078"/>
      </g>
     </g>
    </g>
   </g>
   <g id="EventCollection_1">
    <path d="M 161.509091 218.16 
L 161.509091 318.96 
" clip-path="url(#pcd3be7bd83)" style="fill: none; stroke: #bf00bf; stroke-width: 0.5"/>
    <path d="M 161.603997 218.16 
L 161.603997 318.96 
" clip-path="url(#pcd3be7bd83)" style="fill: none; stroke: #bf00bf; stroke-width: 0.5"/>
    <path d="M 161.698903 218.16 
L 161.698903 318.96 
" clip-path="url(#pcd3be7bd83)" style="fill: none; stroke: #bf00bf; stroke-width: 0.5"/>
    <path d="M 161.793809 218.16 
L 161.793809 318.96 
" clip-path="url(#pcd3be7bd83)" style="fill: none; stroke: #bf00bf; stroke-width: 0.5"/>
    <path d="M 161.888715 218.16 
L 161.888715 318.96 
" clip-path="url(#pcd3be7bd83)" style="fill: none; stroke: #bf00bf; stroke-width: 0.5"/>
    <path d="M 161.983621 218.16 
L 161.983621 318.96 
" clip-path="url(#pcd3be7bd83)" style="fill: none; stroke: #bf00bf; stroke-width: 0.5"/>
    <path d="M 162.078527 218.16 
L 162.078527 318.96 
" clip-path="url(#pcd3be7bd83)" style="fill: none; stroke: #bf00bf; stroke-width: 0.5"/>
    <path d="M 162.173433 218.16 
L 162.173433 318.96 
" clip-path="url(#pcd3be7bd83)" style="fill: none; stroke: #bf00bf; stroke-width: 0.5"/>
    <path d="M 162.268339 218.16 
L 162.268339 318.96 
" clip-path="url(#pcd3be7bd83)" style="fill: none; stroke: #bf00bf; stroke-width: 0.5"/>
    <path d="M 162.363245 218.16 
L 162.363245 318.96 
" clip-path="url(#pcd3be7bd83)" style="fill: none; stroke: #bf00bf; stroke-width: 0.5"/>
    <path d="M 162.458151 218.16 
L 162.458151 318.96 
" clip-path="url(#pcd3be7bd83)" style="fill: none; stroke: #bf00bf; stroke-width: 0.5"/>
    <path d="M 162.553057 218.16 
L 162.553057 318.96 
" clip-path="url(#pcd3be7bd83)" style="fill: none; stroke: #bf00bf; stroke-width: 0.5"/>
    <path d="M 162.647963 218.16 
L 162.647963 318.96 
" clip-path="url(#pcd3be7bd83)" style="fill: none; stroke: #bf00bf; stroke-width: 0.5"/>
    <path d="M 162.742869 218.16 
L 162.742869 318.96 
" clip-path="url(#pcd3be7bd83)" style="fill: none; stroke: #bf00bf; stroke-width: 0.5"/>
    <path d="M 162.837775 218.16 
L 162.837775 318.96 
" clip-path="url(#pcd3be7bd83)" style="fill: none; stroke: #bf00bf; stroke-width: 0.5"/>
    <path d="M 162.932681 218.16 
L 162.932681 318.96 
" clip-path="url(#pcd3be7bd83)" style="fill: none; stroke: #bf00bf; stroke-width: 0.5"/>
    <path d="M 163.027587 218.16 
L 163.027587 318.96 
" clip-path="url(#pcd3be7bd83)" style="fill: none; stroke: #bf00bf; stroke-width: 0.5"/>
    <path d="M 202.508496 218.16 
L 202.508496 318.96 
" clip-path="url(#pcd3be7bd83)" style="fill: none; stroke: #bf00bf; stroke-width: 0.5"/>
    <path d="M 202.603402 218.16 
L 202.603402 318.96 
" clip-path="url(#pcd3be7bd83)" style="fill: none; stroke: #bf00bf; stroke-width: 0.5"/>
    <path d="M 202.698308 218.16 
L 202.698308 318.96 
" clip-path="url(#pcd3be7bd83)" style="fill: none; stroke: #bf00bf; stroke-width: 0.5"/>
    <path d="M 202.793214 218.16 
L 202.793214 318.96 
" clip-path="url(#pcd3be7bd83)" style="fill: none; stroke: #bf00bf; stroke-width: 0.5"/>
    <path d="M 273.4033 218.16 
L 273.4033 318.96 
" clip-path="url(#pcd3be7bd83)" style="fill: none; stroke: #bf00bf; stroke-width: 0.5"/>
    <path d="M 273.498206 218.16 
L 273.498206 318.96 
" clip-path="url(#pcd3be7bd83)" style="fill: none; stroke: #bf00bf; stroke-width: 0.5"/>
    <path d="M 273.593112 218.16 
L 273.593112 318.96 
" clip-path="url(#pcd3be7bd83)" style="fill: none; stroke: #bf00bf; stroke-width: 0.5"/>
    <path d="M 326.265958 218.16 
L 326.265958 318.96 
" clip-path="url(#pcd3be7bd83)" style="fill: none; stroke: #bf00bf; stroke-width: 0.5"/>
    <path d="M 326.360864 218.16 
L 326.360864 318.96 
" clip-path="url(#pcd3be7bd83)" style="fill: none; stroke: #bf00bf; stroke-width: 0.5"/>
    <path d="M 326.45577 218.16 
L 326.45577 318.96 
" clip-path="url(#pcd3be7bd83)" style="fill: none; stroke: #bf00bf; stroke-width: 0.5"/>
    <path d="M 326.550676 218.16 
L 326.550676 318.96 
" clip-path="url(#pcd3be7bd83)" style="fill: none; stroke: #bf00bf; stroke-width: 0.5"/>
    <path d="M 326.645582 218.16 
L 326.645582 318.96 
" clip-path="url(#pcd3be7bd83)" style="fill: none; stroke: #bf00bf; stroke-width: 0.5"/>
    <path d="M 352.649834 218.16 
L 352.649834 318.96 
" clip-path="url(#pcd3be7bd83)" style="fill: none; stroke: #bf00bf; stroke-width: 0.5"/>
    <path d="M 352.74474 218.16 
L 352.74474 318.96 
" clip-path="url(#pcd3be7bd83)" style="fill: none; stroke: #bf00bf; stroke-width: 0.5"/>
    <path d="M 352.839646 218.16 
L 352.839646 318.96 
" clip-path="url(#pcd3be7bd83)" style="fill: none; stroke: #bf00bf; stroke-width: 0.5"/>
    <path d="M 352.934552 218.16 
L 352.934552 318.96 
" clip-path="url(#pcd3be7bd83)" style="fill: none; stroke: #bf00bf; stroke-width: 0.5"/>
    <path d="M 402.190782 218.16 
L 402.190782 318.96 
" clip-path="url(#pcd3be7bd83)" style="fill: none; stroke: #bf00bf; stroke-width: 0.5"/>
    <path d="M 402.285688 218.16 
L 402.285688 318.96 
" clip-path="url(#pcd3be7bd83)" style="fill: none; stroke: #bf00bf; stroke-width: 0.5"/>
    <path d="M 402.380594 218.16 
L 402.380594 318.96 
" clip-path="url(#pcd3be7bd83)" style="fill: none; stroke: #bf00bf; stroke-width: 0.5"/>
    <path d="M 402.4755 218.16 
L 402.4755 318.96 
" clip-path="url(#pcd3be7bd83)" style="fill: none; stroke: #bf00bf; stroke-width: 0.5"/>
    <path d="M 402.570406 218.16 
L 402.570406 318.96 
" clip-path="url(#pcd3be7bd83)" style="fill: none; stroke: #bf00bf; stroke-width: 0.5"/>
    <path d="M 402.665312 218.16 
L 402.665312 318.96 
" clip-path="url(#pcd3be7bd83)" style="fill: none; stroke: #bf00bf; stroke-width: 0.5"/>
    <path d="M 402.760218 218.16 
L 402.760218 318.96 
" clip-path="url(#pcd3be7bd83)" style="fill: none; stroke: #bf00bf; stroke-width: 0.5"/>
    <path d="M 402.855124 218.16 
L 402.855124 318.96 
" clip-path="url(#pcd3be7bd83)" style="fill: none; stroke: #bf00bf; stroke-width: 0.5"/>
    <path d="M 402.95003 218.16 
L 402.95003 318.96 
" clip-path="url(#pcd3be7bd83)" style="fill: none; stroke: #bf00bf; stroke-width: 0.5"/>
    <path d="M 403.044936 218.16 
L 403.044936 318.96 
" clip-path="url(#pcd3be7bd83)" style="fill: none; stroke: #bf00bf; stroke-width: 0.5"/>
    <path d="M 403.139842 218.16 
L 403.139842 318.96 
" clip-path="url(#pcd3be7bd83)" style="fill: none; stroke: #bf00bf; stroke-width: 0.5"/>
    <path d="M 403.234748 218.16 
L 403.234748 318.96 
" clip-path="url(#pcd3be7bd83)" style="fill: none; stroke: #bf00bf; stroke-width: 0.5"/>
    <path d="M 403.329654 218.16 
L 403.329654 318.96 
" clip-path="url(#pcd3be7bd83)" style="fill: none; stroke: #bf00bf; stroke-width: 0.5"/>
    <path d="M 403.42456 218.16 
L 403.42456 318.96 
" clip-path="url(#pcd3be7bd83)" style="fill: none; stroke: #bf00bf; stroke-width: 0.5"/>
    <path d="M 403.519466 218.16 
L 403.519466 318.96 
" clip-path="url(#pcd3be7bd83)" style="fill: none; stroke: #bf00bf; stroke-width: 0.5"/>
    <path d="M 403.614372 218.16 
L 403.614372 318.96 
" clip-path="url(#pcd3be7bd83)" style="fill: none; stroke: #bf00bf; stroke-width: 0.5"/>
    <path d="M 403.709278 218.16 
L 403.709278 318.96 
" clip-path="url(#pcd3be7bd83)" style="fill: none; stroke: #bf00bf; stroke-width: 0.5"/>
    <path d="M 403.804184 218.16 
L 403.804184 318.96 
" clip-path="url(#pcd3be7bd83)" style="fill: none; stroke: #bf00bf; stroke-width: 0.5"/>
    <path d="M 403.89909 218.16 
L 403.89909 318.96 
" clip-path="url(#pcd3be7bd83)" style="fill: none; stroke: #bf00bf; stroke-width: 0.5"/>
    <path d="M 403.993996 218.16 
L 403.993996 318.96 
" clip-path="url(#pcd3be7bd83)" style="fill: none; stroke: #bf00bf; stroke-width: 0.5"/>
    <path d="M 404.088902 218.16 
L 404.088902 318.96 
" clip-path="url(#pcd3be7bd83)" style="fill: none; stroke: #bf00bf; stroke-width: 0.5"/>
    <path d="M 404.183808 218.16 
L 404.183808 318.96 
" clip-path="url(#pcd3be7bd83)" style="fill: none; stroke: #bf00bf; stroke-width: 0.5"/>
    <path d="M 404.278714 218.16 
L 404.278714 318.96 
" clip-path="url(#pcd3be7bd83)" style="fill: none; stroke: #bf00bf; stroke-width: 0.5"/>
    <path d="M 404.753244 218.16 
L 404.753244 318.96 
" clip-path="url(#pcd3be7bd83)" style="fill: none; stroke: #bf00bf; stroke-width: 0.5"/>
    <path d="M 404.84815 218.16 
L 404.84815 318.96 
" clip-path="url(#pcd3be7bd83)" style="fill: none; stroke: #bf00bf; stroke-width: 0.5"/>
    <path d="M 404.943056 218.16 
L 404.943056 318.96 
" clip-path="url(#pcd3be7bd83)" style="fill: none; stroke: #bf00bf; stroke-width: 0.5"/>
    <path d="M 405.037962 218.16 
L 405.037962 318.96 
" clip-path="url(#pcd3be7bd83)" style="fill: none; stroke: #bf00bf; stroke-width: 0.5"/>
    <path d="M 405.132868 218.16 
L 405.132868 318.96 
" clip-path="url(#pcd3be7bd83)" style="fill: none; stroke: #bf00bf; stroke-width: 0.5"/>
    <path d="M 405.227774 218.16 
L 405.227774 318.96 
" clip-path="url(#pcd3be7bd83)" style="fill: none; stroke: #bf00bf; stroke-width: 0.5"/>
    <path d="M 405.322681 218.16 
L 405.322681 318.96 
" clip-path="url(#pcd3be7bd83)" style="fill: none; stroke: #bf00bf; stroke-width: 0.5"/>
    <path d="M 405.417587 218.16 
L 405.417587 318.96 
" clip-path="url(#pcd3be7bd83)" style="fill: none; stroke: #bf00bf; stroke-width: 0.5"/>
    <path d="M 405.512493 218.16 
L 405.512493 318.96 
" clip-path="url(#pcd3be7bd83)" style="fill: none; stroke: #bf00bf; stroke-width: 0.5"/>
    <path d="M 405.607399 218.16 
L 405.607399 318.96 
" clip-path="url(#pcd3be7bd83)" style="fill: none; stroke: #bf00bf; stroke-width: 0.5"/>
    <path d="M 405.702305 218.16 
L 405.702305 318.96 
" clip-path="url(#pcd3be7bd83)" style="fill: none; stroke: #bf00bf; stroke-width: 0.5"/>
    <path d="M 405.797211 218.16 
L 405.797211 318.96 
" clip-path="url(#pcd3be7bd83)" style="fill: none; stroke: #bf00bf; stroke-width: 0.5"/>
    <path d="M 405.892117 218.16 
L 405.892117 318.96 
" clip-path="url(#pcd3be7bd83)" style="fill: none; stroke: #bf00bf; stroke-width: 0.5"/>
    <path d="M 405.987023 218.16 
L 405.987023 318.96 
" clip-path="url(#pcd3be7bd83)" style="fill: none; stroke: #bf00bf; stroke-width: 0.5"/>
    <path d="M 406.081929 218.16 
L 406.081929 318.96 
" clip-path="url(#pcd3be7bd83)" style="fill: none; stroke: #bf00bf; stroke-width: 0.5"/>
    <path d="M 406.176835 218.16 
L 406.176835 318.96 
" clip-path="url(#pcd3be7bd83)" style="fill: none; stroke: #bf00bf; stroke-width: 0.5"/>
    <path d="M 406.271741 218.16 
L 406.271741 318.96 
" clip-path="url(#pcd3be7bd83)" style="fill: none; stroke: #bf00bf; stroke-width: 0.5"/>
    <path d="M 406.366647 218.16 
L 406.366647 318.96 
" clip-path="url(#pcd3be7bd83)" style="fill: none; stroke: #bf00bf; stroke-width: 0.5"/>
    <path d="M 406.461553 218.16 
L 406.461553 318.96 
" clip-path="url(#pcd3be7bd83)" style="fill: none; stroke: #bf00bf; stroke-width: 0.5"/>
    <path d="M 406.556459 218.16 
L 406.556459 318.96 
" clip-path="url(#pcd3be7bd83)" style="fill: none; stroke: #bf00bf; stroke-width: 0.5"/>
    <path d="M 406.651365 218.16 
L 406.651365 318.96 
" clip-path="url(#pcd3be7bd83)" style="fill: none; stroke: #bf00bf; stroke-width: 0.5"/>
    <path d="M 406.746271 218.16 
L 406.746271 318.96 
" clip-path="url(#pcd3be7bd83)" style="fill: none; stroke: #bf00bf; stroke-width: 0.5"/>
    <path d="M 406.841177 218.16 
L 406.841177 318.96 
" clip-path="url(#pcd3be7bd83)" style="fill: none; stroke: #bf00bf; stroke-width: 0.5"/>
    <path d="M 406.936083 218.16 
L 406.936083 318.96 
" clip-path="url(#pcd3be7bd83)" style="fill: none; stroke: #bf00bf; stroke-width: 0.5"/>
    <path d="M 407.030989 218.16 
L 407.030989 318.96 
" clip-path="url(#pcd3be7bd83)" style="fill: none; stroke: #bf00bf; stroke-width: 0.5"/>
    <path d="M 407.125895 218.16 
L 407.125895 318.96 
" clip-path="url(#pcd3be7bd83)" style="fill: none; stroke: #bf00bf; stroke-width: 0.5"/>
    <path d="M 407.220801 218.16 
L 407.220801 318.96 
" clip-path="url(#pcd3be7bd83)" style="fill: none; stroke: #bf00bf; stroke-width: 0.5"/>
    <path d="M 407.315707 218.16 
L 407.315707 318.96 
" clip-path="url(#pcd3be7bd83)" style="fill: none; stroke: #bf00bf; stroke-width: 0.5"/>
    <path d="M 410.637418 218.16 
L 410.637418 318.96 
" clip-path="url(#pcd3be7bd83)" style="fill: none; stroke: #bf00bf; stroke-width: 0.5"/>
    <path d="M 410.732324 218.16 
L 410.732324 318.96 
" clip-path="url(#pcd3be7bd83)" style="fill: none; stroke: #bf00bf; stroke-width: 0.5"/>
    <path d="M 410.82723 218.16 
L 410.82723 318.96 
" clip-path="url(#pcd3be7bd83)" style="fill: none; stroke: #bf00bf; stroke-width: 0.5"/>
    <path d="M 410.922136 218.16 
L 410.922136 318.96 
" clip-path="url(#pcd3be7bd83)" style="fill: none; stroke: #bf00bf; stroke-width: 0.5"/>
    <path d="M 411.017042 218.16 
L 411.017042 318.96 
" clip-path="url(#pcd3be7bd83)" style="fill: none; stroke: #bf00bf; stroke-width: 0.5"/>
    <path d="M 411.111948 218.16 
L 411.111948 318.96 
" clip-path="url(#pcd3be7bd83)" style="fill: none; stroke: #bf00bf; stroke-width: 0.5"/>
    <path d="M 411.206854 218.16 
L 411.206854 318.96 
" clip-path="url(#pcd3be7bd83)" style="fill: none; stroke: #bf00bf; stroke-width: 0.5"/>
    <path d="M 411.30176 218.16 
L 411.30176 318.96 
" clip-path="url(#pcd3be7bd83)" style="fill: none; stroke: #bf00bf; stroke-width: 0.5"/>
    <path d="M 411.396666 218.16 
L 411.396666 318.96 
" clip-path="url(#pcd3be7bd83)" style="fill: none; stroke: #bf00bf; stroke-width: 0.5"/>
    <path d="M 411.491572 218.16 
L 411.491572 318.96 
" clip-path="url(#pcd3be7bd83)" style="fill: none; stroke: #bf00bf; stroke-width: 0.5"/>
    <path d="M 411.586478 218.16 
L 411.586478 318.96 
" clip-path="url(#pcd3be7bd83)" style="fill: none; stroke: #bf00bf; stroke-width: 0.5"/>
    <path d="M 411.681384 218.16 
L 411.681384 318.96 
" clip-path="url(#pcd3be7bd83)" style="fill: none; stroke: #bf00bf; stroke-width: 0.5"/>
    <path d="M 411.776291 218.16 
L 411.776291 318.96 
" clip-path="url(#pcd3be7bd83)" style="fill: none; stroke: #bf00bf; stroke-width: 0.5"/>
    <path d="M 411.871197 218.16 
L 411.871197 318.96 
" clip-path="url(#pcd3be7bd83)" style="fill: none; stroke: #bf00bf; stroke-width: 0.5"/>
    <path d="M 411.966103 218.16 
L 411.966103 318.96 
" clip-path="url(#pcd3be7bd83)" style="fill: none; stroke: #bf00bf; stroke-width: 0.5"/>
    <path d="M 412.061009 218.16 
L 412.061009 318.96 
" clip-path="url(#pcd3be7bd83)" style="fill: none; stroke: #bf00bf; stroke-width: 0.5"/>
    <path d="M 412.155915 218.16 
L 412.155915 318.96 
" clip-path="url(#pcd3be7bd83)" style="fill: none; stroke: #bf00bf; stroke-width: 0.5"/>
    <path d="M 412.250821 218.16 
L 412.250821 318.96 
" clip-path="url(#pcd3be7bd83)" style="fill: none; stroke: #bf00bf; stroke-width: 0.5"/>
    <path d="M 412.345727 218.16 
L 412.345727 318.96 
" clip-path="url(#pcd3be7bd83)" style="fill: none; stroke: #bf00bf; stroke-width: 0.5"/>
    <path d="M 412.440633 218.16 
L 412.440633 318.96 
" clip-path="url(#pcd3be7bd83)" style="fill: none; stroke: #bf00bf; stroke-width: 0.5"/>
    <path d="M 412.535539 218.16 
L 412.535539 318.96 
" clip-path="url(#pcd3be7bd83)" style="fill: none; stroke: #bf00bf; stroke-width: 0.5"/>
    <path d="M 412.630445 218.16 
L 412.630445 318.96 
" clip-path="url(#pcd3be7bd83)" style="fill: none; stroke: #bf00bf; stroke-width: 0.5"/>
    <path d="M 412.725351 218.16 
L 412.725351 318.96 
" clip-path="url(#pcd3be7bd83)" style="fill: none; stroke: #bf00bf; stroke-width: 0.5"/>
    <path d="M 412.820257 218.16 
L 412.820257 318.96 
" clip-path="url(#pcd3be7bd83)" style="fill: none; stroke: #bf00bf; stroke-width: 0.5"/>
    <path d="M 412.915163 218.16 
L 412.915163 318.96 
" clip-path="url(#pcd3be7bd83)" style="fill: none; stroke: #bf00bf; stroke-width: 0.5"/>
    <path d="M 414.338753 218.16 
L 414.338753 318.96 
" clip-path="url(#pcd3be7bd83)" style="fill: none; stroke: #bf00bf; stroke-width: 0.5"/>
    <path d="M 414.433659 218.16 
L 414.433659 318.96 
" clip-path="url(#pcd3be7bd83)" style="fill: none; stroke: #bf00bf; stroke-width: 0.5"/>
    <path d="M 414.528565 218.16 
L 414.528565 318.96 
" clip-path="url(#pcd3be7bd83)" style="fill: none; stroke: #bf00bf; stroke-width: 0.5"/>
    <path d="M 414.623471 218.16 
L 414.623471 318.96 
" clip-path="url(#pcd3be7bd83)" style="fill: none; stroke: #bf00bf; stroke-width: 0.5"/>
    <path d="M 414.718377 218.16 
L 414.718377 318.96 
" clip-path="url(#pcd3be7bd83)" style="fill: none; stroke: #bf00bf; stroke-width: 0.5"/>
    <path d="M 414.813283 218.16 
L 414.813283 318.96 
" clip-path="url(#pcd3be7bd83)" style="fill: none; stroke: #bf00bf; stroke-width: 0.5"/>
    <path d="M 414.908189 218.16 
L 414.908189 318.96 
" clip-path="url(#pcd3be7bd83)" style="fill: none; stroke: #bf00bf; stroke-width: 0.5"/>
    <path d="M 415.003096 218.16 
L 415.003096 318.96 
" clip-path="url(#pcd3be7bd83)" style="fill: none; stroke: #bf00bf; stroke-width: 0.5"/>
    <path d="M 506.492508 218.16 
L 506.492508 318.96 
" clip-path="url(#pcd3be7bd83)" style="fill: none; stroke: #bf00bf; stroke-width: 0.5"/>
    <path d="M 506.587414 218.16 
L 506.587414 318.96 
" clip-path="url(#pcd3be7bd83)" style="fill: none; stroke: #bf00bf; stroke-width: 0.5"/>
    <path d="M 506.68232 218.16 
L 506.68232 318.96 
" clip-path="url(#pcd3be7bd83)" style="fill: none; stroke: #bf00bf; stroke-width: 0.5"/>
    <path d="M 506.777226 218.16 
L 506.777226 318.96 
" clip-path="url(#pcd3be7bd83)" style="fill: none; stroke: #bf00bf; stroke-width: 0.5"/>
    <path d="M 506.872132 218.16 
L 506.872132 318.96 
" clip-path="url(#pcd3be7bd83)" style="fill: none; stroke: #bf00bf; stroke-width: 0.5"/>
    <path d="M 681.40432 218.16 
L 681.40432 318.96 
" clip-path="url(#pcd3be7bd83)" style="fill: none; stroke: #bf00bf; stroke-width: 0.5"/>
    <path d="M 681.499226 218.16 
L 681.499226 318.96 
" clip-path="url(#pcd3be7bd83)" style="fill: none; stroke: #bf00bf; stroke-width: 0.5"/>
    <path d="M 681.594132 218.16 
L 681.594132 318.96 
" clip-path="url(#pcd3be7bd83)" style="fill: none; stroke: #bf00bf; stroke-width: 0.5"/>
    <path d="M 681.689038 218.16 
L 681.689038 318.96 
" clip-path="url(#pcd3be7bd83)" style="fill: none; stroke: #bf00bf; stroke-width: 0.5"/>
    <path d="M 681.783944 218.16 
L 681.783944 318.96 
" clip-path="url(#pcd3be7bd83)" style="fill: none; stroke: #bf00bf; stroke-width: 0.5"/>
    <path d="M 681.87885 218.16 
L 681.87885 318.96 
" clip-path="url(#pcd3be7bd83)" style="fill: none; stroke: #bf00bf; stroke-width: 0.5"/>
    <path d="M 681.973756 218.16 
L 681.973756 318.96 
" clip-path="url(#pcd3be7bd83)" style="fill: none; stroke: #bf00bf; stroke-width: 0.5"/>
    <path d="M 682.068662 218.16 
L 682.068662 318.96 
" clip-path="url(#pcd3be7bd83)" style="fill: none; stroke: #bf00bf; stroke-width: 0.5"/>
    <path d="M 682.163568 218.16 
L 682.163568 318.96 
" clip-path="url(#pcd3be7bd83)" style="fill: none; stroke: #bf00bf; stroke-width: 0.5"/>
    <path d="M 682.258474 218.16 
L 682.258474 318.96 
" clip-path="url(#pcd3be7bd83)" style="fill: none; stroke: #bf00bf; stroke-width: 0.5"/>
    <path d="M 682.35338 218.16 
L 682.35338 318.96 
" clip-path="url(#pcd3be7bd83)" style="fill: none; stroke: #bf00bf; stroke-width: 0.5"/>
    <path d="M 682.448286 218.16 
L 682.448286 318.96 
" clip-path="url(#pcd3be7bd83)" style="fill: none; stroke: #bf00bf; stroke-width: 0.5"/>
    <path d="M 682.543192 218.16 
L 682.543192 318.96 
" clip-path="url(#pcd3be7bd83)" style="fill: none; stroke: #bf00bf; stroke-width: 0.5"/>
    <path d="M 682.638098 218.16 
L 682.638098 318.96 
" clip-path="url(#pcd3be7bd83)" style="fill: none; stroke: #bf00bf; stroke-width: 0.5"/>
    <path d="M 764.35219 218.16 
L 764.35219 318.96 
" clip-path="url(#pcd3be7bd83)" style="fill: none; stroke: #bf00bf; stroke-width: 0.5"/>
    <path d="M 764.447096 218.16 
L 764.447096 318.96 
" clip-path="url(#pcd3be7bd83)" style="fill: none; stroke: #bf00bf; stroke-width: 0.5"/>
    <path d="M 764.542002 218.16 
L 764.542002 318.96 
" clip-path="url(#pcd3be7bd83)" style="fill: none; stroke: #bf00bf; stroke-width: 0.5"/>
    <path d="M 764.636908 218.16 
L 764.636908 318.96 
" clip-path="url(#pcd3be7bd83)" style="fill: none; stroke: #bf00bf; stroke-width: 0.5"/>
    <path d="M 764.731814 218.16 
L 764.731814 318.96 
" clip-path="url(#pcd3be7bd83)" style="fill: none; stroke: #bf00bf; stroke-width: 0.5"/>
    <path d="M 764.82672 218.16 
L 764.82672 318.96 
" clip-path="url(#pcd3be7bd83)" style="fill: none; stroke: #bf00bf; stroke-width: 0.5"/>
    <path d="M 764.921626 218.16 
L 764.921626 318.96 
" clip-path="url(#pcd3be7bd83)" style="fill: none; stroke: #bf00bf; stroke-width: 0.5"/>
    <path d="M 765.016532 218.16 
L 765.016532 318.96 
" clip-path="url(#pcd3be7bd83)" style="fill: none; stroke: #bf00bf; stroke-width: 0.5"/>
    <path d="M 765.111438 218.16 
L 765.111438 318.96 
" clip-path="url(#pcd3be7bd83)" style="fill: none; stroke: #bf00bf; stroke-width: 0.5"/>
    <path d="M 765.206344 218.16 
L 765.206344 318.96 
" clip-path="url(#pcd3be7bd83)" style="fill: none; stroke: #bf00bf; stroke-width: 0.5"/>
    <path d="M 765.30125 218.16 
L 765.30125 318.96 
" clip-path="url(#pcd3be7bd83)" style="fill: none; stroke: #bf00bf; stroke-width: 0.5"/>
    <path d="M 765.396156 218.16 
L 765.396156 318.96 
" clip-path="url(#pcd3be7bd83)" style="fill: none; stroke: #bf00bf; stroke-width: 0.5"/>
    <path d="M 765.491062 218.16 
L 765.491062 318.96 
" clip-path="url(#pcd3be7bd83)" style="fill: none; stroke: #bf00bf; stroke-width: 0.5"/>
    <path d="M 765.585968 218.16 
L 765.585968 318.96 
" clip-path="url(#pcd3be7bd83)" style="fill: none; stroke: #bf00bf; stroke-width: 0.5"/>
    <path d="M 870.931661 218.16 
L 870.931661 318.96 
" clip-path="url(#pcd3be7bd83)" style="fill: none; stroke: #bf00bf; stroke-width: 0.5"/>
    <path d="M 871.026567 218.16 
L 871.026567 318.96 
" clip-path="url(#pcd3be7bd83)" style="fill: none; stroke: #bf00bf; stroke-width: 0.5"/>
    <path d="M 871.121473 218.16 
L 871.121473 318.96 
" clip-path="url(#pcd3be7bd83)" style="fill: none; stroke: #bf00bf; stroke-width: 0.5"/>
    <path d="M 871.216379 218.16 
L 871.216379 318.96 
" clip-path="url(#pcd3be7bd83)" style="fill: none; stroke: #bf00bf; stroke-width: 0.5"/>
    <path d="M 871.311285 218.16 
L 871.311285 318.96 
" clip-path="url(#pcd3be7bd83)" style="fill: none; stroke: #bf00bf; stroke-width: 0.5"/>
    <path d="M 871.406191 218.16 
L 871.406191 318.96 
" clip-path="url(#pcd3be7bd83)" style="fill: none; stroke: #bf00bf; stroke-width: 0.5"/>
    <path d="M 871.501097 218.16 
L 871.501097 318.96 
" clip-path="url(#pcd3be7bd83)" style="fill: none; stroke: #bf00bf; stroke-width: 0.5"/>
    <path d="M 871.596003 218.16 
L 871.596003 318.96 
" clip-path="url(#pcd3be7bd83)" style="fill: none; stroke: #bf00bf; stroke-width: 0.5"/>
    <path d="M 871.690909 218.16 
L 871.690909 318.96 
" clip-path="url(#pcd3be7bd83)" style="fill: none; stroke: #bf00bf; stroke-width: 0.5"/>
   </g>
   <g id="EventCollection_2">
    <path d="M 264.861757 117.36 
L 264.861757 218.16 
" clip-path="url(#pcd3be7bd83)" style="fill: none; stroke: #bfbf00; stroke-width: 0.5"/>
    <path d="M 264.956663 117.36 
L 264.956663 218.16 
" clip-path="url(#pcd3be7bd83)" style="fill: none; stroke: #bfbf00; stroke-width: 0.5"/>
    <path d="M 265.051569 117.36 
L 265.051569 218.16 
" clip-path="url(#pcd3be7bd83)" style="fill: none; stroke: #bfbf00; stroke-width: 0.5"/>
    <path d="M 265.146475 117.36 
L 265.146475 218.16 
" clip-path="url(#pcd3be7bd83)" style="fill: none; stroke: #bfbf00; stroke-width: 0.5"/>
    <path d="M 265.241381 117.36 
L 265.241381 218.16 
" clip-path="url(#pcd3be7bd83)" style="fill: none; stroke: #bfbf00; stroke-width: 0.5"/>
    <path d="M 265.336287 117.36 
L 265.336287 218.16 
" clip-path="url(#pcd3be7bd83)" style="fill: none; stroke: #bfbf00; stroke-width: 0.5"/>
    <path d="M 265.431193 117.36 
L 265.431193 218.16 
" clip-path="url(#pcd3be7bd83)" style="fill: none; stroke: #bfbf00; stroke-width: 0.5"/>
    <path d="M 265.526099 117.36 
L 265.526099 218.16 
" clip-path="url(#pcd3be7bd83)" style="fill: none; stroke: #bfbf00; stroke-width: 0.5"/>
    <path d="M 265.621005 117.36 
L 265.621005 218.16 
" clip-path="url(#pcd3be7bd83)" style="fill: none; stroke: #bfbf00; stroke-width: 0.5"/>
    <path d="M 265.715911 117.36 
L 265.715911 218.16 
" clip-path="url(#pcd3be7bd83)" style="fill: none; stroke: #bfbf00; stroke-width: 0.5"/>
    <path d="M 265.810817 117.36 
L 265.810817 218.16 
" clip-path="url(#pcd3be7bd83)" style="fill: none; stroke: #bfbf00; stroke-width: 0.5"/>
    <path d="M 265.905723 117.36 
L 265.905723 218.16 
" clip-path="url(#pcd3be7bd83)" style="fill: none; stroke: #bfbf00; stroke-width: 0.5"/>
    <path d="M 266.000629 117.36 
L 266.000629 218.16 
" clip-path="url(#pcd3be7bd83)" style="fill: none; stroke: #bfbf00; stroke-width: 0.5"/>
    <path d="M 266.095535 117.36 
L 266.095535 218.16 
" clip-path="url(#pcd3be7bd83)" style="fill: none; stroke: #bfbf00; stroke-width: 0.5"/>
    <path d="M 266.190441 117.36 
L 266.190441 218.16 
" clip-path="url(#pcd3be7bd83)" style="fill: none; stroke: #bfbf00; stroke-width: 0.5"/>
    <path d="M 266.285347 117.36 
L 266.285347 218.16 
" clip-path="url(#pcd3be7bd83)" style="fill: none; stroke: #bfbf00; stroke-width: 0.5"/>
    <path d="M 266.380253 117.36 
L 266.380253 218.16 
" clip-path="url(#pcd3be7bd83)" style="fill: none; stroke: #bfbf00; stroke-width: 0.5"/>
    <path d="M 266.475159 117.36 
L 266.475159 218.16 
" clip-path="url(#pcd3be7bd83)" style="fill: none; stroke: #bfbf00; stroke-width: 0.5"/>
    <path d="M 266.570065 117.36 
L 266.570065 218.16 
" clip-path="url(#pcd3be7bd83)" style="fill: none; stroke: #bfbf00; stroke-width: 0.5"/>
    <path d="M 266.664972 117.36 
L 266.664972 218.16 
" clip-path="url(#pcd3be7bd83)" style="fill: none; stroke: #bfbf00; stroke-width: 0.5"/>
    <path d="M 266.759878 117.36 
L 266.759878 218.16 
" clip-path="url(#pcd3be7bd83)" style="fill: none; stroke: #bfbf00; stroke-width: 0.5"/>
    <path d="M 266.854784 117.36 
L 266.854784 218.16 
" clip-path="url(#pcd3be7bd83)" style="fill: none; stroke: #bfbf00; stroke-width: 0.5"/>
    <path d="M 266.94969 117.36 
L 266.94969 218.16 
" clip-path="url(#pcd3be7bd83)" style="fill: none; stroke: #bfbf00; stroke-width: 0.5"/>
    <path d="M 267.044596 117.36 
L 267.044596 218.16 
" clip-path="url(#pcd3be7bd83)" style="fill: none; stroke: #bfbf00; stroke-width: 0.5"/>
    <path d="M 267.139502 117.36 
L 267.139502 218.16 
" clip-path="url(#pcd3be7bd83)" style="fill: none; stroke: #bfbf00; stroke-width: 0.5"/>
    <path d="M 462.835734 117.36 
L 462.835734 218.16 
" clip-path="url(#pcd3be7bd83)" style="fill: none; stroke: #bfbf00; stroke-width: 0.5"/>
    <path d="M 462.93064 117.36 
L 462.93064 218.16 
" clip-path="url(#pcd3be7bd83)" style="fill: none; stroke: #bfbf00; stroke-width: 0.5"/>
    <path d="M 463.025546 117.36 
L 463.025546 218.16 
" clip-path="url(#pcd3be7bd83)" style="fill: none; stroke: #bfbf00; stroke-width: 0.5"/>
    <path d="M 463.120452 117.36 
L 463.120452 218.16 
" clip-path="url(#pcd3be7bd83)" style="fill: none; stroke: #bfbf00; stroke-width: 0.5"/>
    <path d="M 463.215358 117.36 
L 463.215358 218.16 
" clip-path="url(#pcd3be7bd83)" style="fill: none; stroke: #bfbf00; stroke-width: 0.5"/>
    <path d="M 463.310264 117.36 
L 463.310264 218.16 
" clip-path="url(#pcd3be7bd83)" style="fill: none; stroke: #bfbf00; stroke-width: 0.5"/>
    <path d="M 463.405171 117.36 
L 463.405171 218.16 
" clip-path="url(#pcd3be7bd83)" style="fill: none; stroke: #bfbf00; stroke-width: 0.5"/>
    <path d="M 790.546254 117.36 
L 790.546254 218.16 
" clip-path="url(#pcd3be7bd83)" style="fill: none; stroke: #bfbf00; stroke-width: 0.5"/>
    <path d="M 790.64116 117.36 
L 790.64116 218.16 
" clip-path="url(#pcd3be7bd83)" style="fill: none; stroke: #bfbf00; stroke-width: 0.5"/>
    <path d="M 790.736066 117.36 
L 790.736066 218.16 
" clip-path="url(#pcd3be7bd83)" style="fill: none; stroke: #bfbf00; stroke-width: 0.5"/>
    <path d="M 790.830972 117.36 
L 790.830972 218.16 
" clip-path="url(#pcd3be7bd83)" style="fill: none; stroke: #bfbf00; stroke-width: 0.5"/>
    <path d="M 821.865244 117.36 
L 821.865244 218.16 
" clip-path="url(#pcd3be7bd83)" style="fill: none; stroke: #bfbf00; stroke-width: 0.5"/>
    <path d="M 821.96015 117.36 
L 821.96015 218.16 
" clip-path="url(#pcd3be7bd83)" style="fill: none; stroke: #bfbf00; stroke-width: 0.5"/>
    <path d="M 822.055056 117.36 
L 822.055056 218.16 
" clip-path="url(#pcd3be7bd83)" style="fill: none; stroke: #bfbf00; stroke-width: 0.5"/>
    <path d="M 822.149962 117.36 
L 822.149962 218.16 
" clip-path="url(#pcd3be7bd83)" style="fill: none; stroke: #bfbf00; stroke-width: 0.5"/>
    <path d="M 822.244868 117.36 
L 822.244868 218.16 
" clip-path="url(#pcd3be7bd83)" style="fill: none; stroke: #bfbf00; stroke-width: 0.5"/>
   </g>
   <g id="patch_3">
    <path d="M 126 384.48 
L 126 51.84 
" style="fill: none; stroke: #000000; stroke-width: 0.8; stroke-linejoin: miter; stroke-linecap: square"/>
   </g>
   <g id="patch_4">
    <path d="M 126 384.48 
L 907.2 384.48 
" style="fill: none; stroke: #000000; stroke-width: 0.8; stroke-linejoin: miter; stroke-linecap: square"/>
   </g>
   <g id="text_9">
    <!-- Mouse: 117; Paradigm: V1.10_Urinleft_Experiment; Date: 240402 -->
    <g transform="translate(320.318438 45.84) scale(0.12 -0.12)">
     <defs>
      <path id="DejaVuSans-4d" d="M 628 4666 
L 1569 4666 
L 2759 1491 
L 3956 4666 
L 4897 4666 
L 4897 0 
L 4281 0 
L 4281 4097 
L 3078 897 
L 2444 897 
L 1241 4097 
L 1241 0 
L 628 0 
L 628 4666 
z
" transform="scale(0.015625)"/>
      <path id="DejaVuSans-6f" d="M 1959 3097 
Q 1497 3097 1228 2736 
Q 959 2375 959 1747 
Q 959 1119 1226 758 
Q 1494 397 1959 397 
Q 2419 397 2687 759 
Q 2956 1122 2956 1747 
Q 2956 2369 2687 2733 
Q 2419 3097 1959 3097 
z
M 1959 3584 
Q 2709 3584 3137 3096 
Q 3566 2609 3566 1747 
Q 3566 888 3137 398 
Q 2709 -91 1959 -91 
Q 1206 -91 779 398 
Q 353 888 353 1747 
Q 353 2609 779 3096 
Q 1206 3584 1959 3584 
z
" transform="scale(0.015625)"/>
      <path id="DejaVuSans-75" d="M 544 1381 
L 544 3500 
L 1119 3500 
L 1119 1403 
Q 1119 906 1312 657 
Q 1506 409 1894 409 
Q 2359 409 2629 706 
Q 2900 1003 2900 1516 
L 2900 3500 
L 3475 3500 
L 3475 0 
L 2900 0 
L 2900 538 
Q 2691 219 2414 64 
Q 2138 -91 1772 -91 
Q 1169 -91 856 284 
Q 544 659 544 1381 
z
M 1991 3584 
L 1991 3584 
z
" transform="scale(0.015625)"/>
      <path id="DejaVuSans-3a" d="M 750 794 
L 1409 794 
L 1409 0 
L 750 0 
L 750 794 
z
M 750 3309 
L 1409 3309 
L 1409 2516 
L 750 2516 
L 750 3309 
z
" transform="scale(0.015625)"/>
      <path id="DejaVuSans-31" d="M 794 531 
L 1825 531 
L 1825 4091 
L 703 3866 
L 703 4441 
L 1819 4666 
L 2450 4666 
L 2450 531 
L 3481 531 
L 3481 0 
L 794 0 
L 794 531 
z
" transform="scale(0.015625)"/>
      <path id="DejaVuSans-37" d="M 525 4666 
L 3525 4666 
L 3525 4397 
L 1831 0 
L 1172 0 
L 2766 4134 
L 525 4134 
L 525 4666 
z
" transform="scale(0.015625)"/>
      <path id="DejaVuSans-3b" d="M 750 3309 
L 1409 3309 
L 1409 2516 
L 750 2516 
L 750 3309 
z
M 750 794 
L 1409 794 
L 1409 256 
L 897 -744 
L 494 -744 
L 750 256 
L 750 794 
z
" transform="scale(0.015625)"/>
      <path id="DejaVuSans-50" d="M 1259 4147 
L 1259 2394 
L 2053 2394 
Q 2494 2394 2734 2622 
Q 2975 2850 2975 3272 
Q 2975 3691 2734 3919 
Q 2494 4147 2053 4147 
L 1259 4147 
z
M 628 4666 
L 2053 4666 
Q 2838 4666 3239 4311 
Q 3641 3956 3641 3272 
Q 3641 2581 3239 2228 
Q 2838 1875 2053 1875 
L 1259 1875 
L 1259 0 
L 628 0 
L 628 4666 
z
" transform="scale(0.015625)"/>
      <path id="DejaVuSans-61" d="M 2194 1759 
Q 1497 1759 1228 1600 
Q 959 1441 959 1056 
Q 959 750 1161 570 
Q 1363 391 1709 391 
Q 2188 391 2477 730 
Q 2766 1069 2766 1631 
L 2766 1759 
L 2194 1759 
z
M 3341 1997 
L 3341 0 
L 2766 0 
L 2766 531 
Q 2569 213 2275 61 
Q 1981 -91 1556 -91 
Q 1019 -91 701 211 
Q 384 513 384 1019 
Q 384 1609 779 1909 
Q 1175 2209 1959 2209 
L 2766 2209 
L 2766 2266 
Q 2766 2663 2505 2880 
Q 2244 3097 1772 3097 
Q 1472 3097 1187 3025 
Q 903 2953 641 2809 
L 641 3341 
Q 956 3463 1253 3523 
Q 1550 3584 1831 3584 
Q 2591 3584 2966 3190 
Q 3341 2797 3341 1997 
z
" transform="scale(0.015625)"/>
      <path id="DejaVuSans-56" d="M 1831 0 
L 50 4666 
L 709 4666 
L 2188 738 
L 3669 4666 
L 4325 4666 
L 2547 0 
L 1831 0 
z
" transform="scale(0.015625)"/>
      <path id="DejaVuSans-2e" d="M 684 794 
L 1344 794 
L 1344 0 
L 684 0 
L 684 794 
z
" transform="scale(0.015625)"/>
      <path id="DejaVuSans-5f" d="M 3263 -1063 
L 3263 -1509 
L -63 -1509 
L -63 -1063 
L 3263 -1063 
z
" transform="scale(0.015625)"/>
      <path id="DejaVuSans-55" d="M 556 4666 
L 1191 4666 
L 1191 1831 
Q 1191 1081 1462 751 
Q 1734 422 2344 422 
Q 2950 422 3222 751 
Q 3494 1081 3494 1831 
L 3494 4666 
L 4128 4666 
L 4128 1753 
Q 4128 841 3676 375 
Q 3225 -91 2344 -91 
Q 1459 -91 1007 375 
Q 556 841 556 1753 
L 556 4666 
z
" transform="scale(0.015625)"/>
      <path id="DejaVuSans-44" d="M 1259 4147 
L 1259 519 
L 2022 519 
Q 2988 519 3436 956 
Q 3884 1394 3884 2338 
Q 3884 3275 3436 3711 
Q 2988 4147 2022 4147 
L 1259 4147 
z
M 628 4666 
L 1925 4666 
Q 3281 4666 3915 4102 
Q 4550 3538 4550 2338 
Q 4550 1131 3912 565 
Q 3275 0 1925 0 
L 628 0 
L 628 4666 
z
" transform="scale(0.015625)"/>
     </defs>
     <use xlink:href="#DejaVuSans-4d"/>
     <use xlink:href="#DejaVuSans-6f" x="86.279297"/>
     <use xlink:href="#DejaVuSans-75" x="147.460938"/>
     <use xlink:href="#DejaVuSans-73" x="210.839844"/>
     <use xlink:href="#DejaVuSans-65" x="262.939453"/>
     <use xlink:href="#DejaVuSans-3a" x="324.462891"/>
     <use xlink:href="#DejaVuSans-20" x="358.154297"/>
     <use xlink:href="#DejaVuSans-31" x="389.941406"/>
     <use xlink:href="#DejaVuSans-31" x="453.564453"/>
     <use xlink:href="#DejaVuSans-37" x="517.1875"/>
     <use xlink:href="#DejaVuSans-3b" x="580.810547"/>
     <use xlink:href="#DejaVuSans-20" x="614.501953"/>
     <use xlink:href="#DejaVuSans-50" x="646.289062"/>
     <use xlink:href="#DejaVuSans-61" x="702.091797"/>
     <use xlink:href="#DejaVuSans-72" x="763.371094"/>
     <use xlink:href="#DejaVuSans-61" x="804.484375"/>
     <use xlink:href="#DejaVuSans-64" x="865.763672"/>
     <use xlink:href="#DejaVuSans-69" x="929.240234"/>
     <use xlink:href="#DejaVuSans-67" x="957.023438"/>
     <use xlink:href="#DejaVuSans-6d" x="1020.5"/>
     <use xlink:href="#DejaVuSans-3a" x="1117.912109"/>
     <use xlink:href="#DejaVuSans-20" x="1151.603516"/>
     <use xlink:href="#DejaVuSans-56" x="1183.390625"/>
     <use xlink:href="#DejaVuSans-31" x="1251.798828"/>
     <use xlink:href="#DejaVuSans-2e" x="1315.421875"/>
     <use xlink:href="#DejaVuSans-31" x="1347.208984"/>
     <use xlink:href="#DejaVuSans-30" x="1410.832031"/>
     <use xlink:href="#DejaVuSans-5f" x="1474.455078"/>
     <use xlink:href="#DejaVuSans-55" x="1524.455078"/>
     <use xlink:href="#DejaVuSans-72" x="1597.648438"/>
     <use xlink:href="#DejaVuSans-69" x="1638.761719"/>
     <use xlink:href="#DejaVuSans-6e" x="1666.544922"/>
     <use xlink:href="#DejaVuSans-6c" x="1729.923828"/>
     <use xlink:href="#DejaVuSans-65" x="1757.707031"/>
     <use xlink:href="#DejaVuSans-66" x="1819.230469"/>
     <use xlink:href="#DejaVuSans-74" x="1852.685547"/>
     <use xlink:href="#DejaVuSans-5f" x="1891.894531"/>
     <use xlink:href="#DejaVuSans-45" x="1941.894531"/>
     <use xlink:href="#DejaVuSans-78" x="2005.078125"/>
     <use xlink:href="#DejaVuSans-70" x="2064.257812"/>
     <use xlink:href="#DejaVuSans-65" x="2127.734375"/>
     <use xlink:href="#DejaVuSans-72" x="2189.257812"/>
     <use xlink:href="#DejaVuSans-69" x="2230.371094"/>
     <use xlink:href="#DejaVuSans-6d" x="2258.154297"/>
     <use xlink:href="#DejaVuSans-65" x="2355.566406"/>
     <use xlink:href="#DejaVuSans-6e" x="2417.089844"/>
     <use xlink:href="#DejaVuSans-74" x="2480.46875"/>
     <use xlink:href="#DejaVuSans-3b" x="2519.677734"/>
     <use xlink:href="#DejaVuSans-20" x="2553.369141"/>
     <use xlink:href="#DejaVuSans-44" x="2585.15625"/>
     <use xlink:href="#DejaVuSans-61" x="2662.158203"/>
     <use xlink:href="#DejaVuSans-74" x="2723.4375"/>
     <use xlink:href="#DejaVuSans-65" x="2762.646484"/>
     <use xlink:href="#DejaVuSans-3a" x="2824.169922"/>
     <use xlink:href="#DejaVuSans-20" x="2857.861328"/>
     <use xlink:href="#DejaVuSans-32" x="2889.648438"/>
     <use xlink:href="#DejaVuSans-34" x="2953.271484"/>
     <use xlink:href="#DejaVuSans-30" x="3016.894531"/>
     <use xlink:href="#DejaVuSans-34" x="3080.517578"/>
     <use xlink:href="#DejaVuSans-30" x="3144.140625"/>
     <use xlink:href="#DejaVuSans-32" x="3207.763672"/>
    </g>
   </g>
  </g>
 </g>
 <defs>
  <clipPath id="pcd3be7bd83">
   <rect x="126" y="51.84" width="781.2" height="332.64"/>
  </clipPath>
 </defs>
</svg>
