<?xml version="1.0" encoding="utf-8" standalone="no"?>
<!DOCTYPE svg PUBLIC "-//W3C//DTD SVG 1.1//EN"
  "http://www.w3.org/Graphics/SVG/1.1/DTD/svg11.dtd">
<svg xmlns:xlink="http://www.w3.org/1999/xlink" width="1008pt" height="432pt" viewBox="0 0 1008 432" xmlns="http://www.w3.org/2000/svg" version="1.1">
 <metadata>
  <rdf:RDF xmlns:dc="http://purl.org/dc/elements/1.1/" xmlns:cc="http://creativecommons.org/ns#" xmlns:rdf="http://www.w3.org/1999/02/22-rdf-syntax-ns#">
   <cc:Work>
    <dc:type rdf:resource="http://purl.org/dc/dcmitype/StillImage"/>
    <dc:date>2024-05-13T10:32:18.743844</dc:date>
    <dc:format>image/svg+xml</dc:format>
    <dc:creator>
     <cc:Agent>
      <dc:title>Matplotlib v3.8.3, https://matplotlib.org/</dc:title>
     </cc:Agent>
    </dc:creator>
   </cc:Work>
  </rdf:RDF>
 </metadata>
 <defs>
  <style type="text/css">*{stroke-linejoin: round; stroke-linecap: butt}</style>
 </defs>
 <g id="figure_1">
  <g id="patch_1">
   <path d="M 0 432 
L 1008 432 
L 1008 0 
L 0 0 
z
" style="fill: #ffffff"/>
  </g>
  <g id="axes_1">
   <g id="patch_2">
    <path d="M 126 384.48 
L 907.2 384.48 
L 907.2 51.84 
L 126 51.84 
z
"/>
   </g>
   <g id="matplotlib.axis_1">
    <g id="xtick_1">
     <g id="line2d_1">
      <defs>
       <path id="m67ba99eaf4" d="M 0 0 
L 0 3.5 
" style="stroke: #000000; stroke-width: 0.8"/>
      </defs>
      <g>
       <use xlink:href="#m67ba99eaf4" x="133.620595" y="384.48" style="stroke: #000000; stroke-width: 0.8"/>
      </g>
     </g>
     <g id="text_1">
      <!-- 0 -->
      <g transform="translate(130.439345 399.078438) scale(0.1 -0.1)">
       <defs>
        <path id="DejaVuSans-30" d="M 2034 4250 
Q 1547 4250 1301 3770 
Q 1056 3291 1056 2328 
Q 1056 1369 1301 889 
Q 1547 409 2034 409 
Q 2525 409 2770 889 
Q 3016 1369 3016 2328 
Q 3016 3291 2770 3770 
Q 2525 4250 2034 4250 
z
M 2034 4750 
Q 2819 4750 3233 4129 
Q 3647 3509 3647 2328 
Q 3647 1150 3233 529 
Q 2819 -91 2034 -91 
Q 1250 -91 836 529 
Q 422 1150 422 2328 
Q 422 3509 836 4129 
Q 1250 4750 2034 4750 
z
" transform="scale(0.015625)"/>
       </defs>
       <use xlink:href="#DejaVuSans-30"/>
      </g>
     </g>
    </g>
    <g id="xtick_2">
     <g id="line2d_2">
      <g>
       <use xlink:href="#m67ba99eaf4" x="286.202031" y="384.48" style="stroke: #000000; stroke-width: 0.8"/>
      </g>
     </g>
     <g id="text_2">
      <!-- 2 -->
      <g transform="translate(283.020781 399.078438) scale(0.1 -0.1)">
       <defs>
        <path id="DejaVuSans-32" d="M 1228 531 
L 3431 531 
L 3431 0 
L 469 0 
L 469 531 
Q 828 903 1448 1529 
Q 2069 2156 2228 2338 
Q 2531 2678 2651 2914 
Q 2772 3150 2772 3378 
Q 2772 3750 2511 3984 
Q 2250 4219 1831 4219 
Q 1534 4219 1204 4116 
Q 875 4013 500 3803 
L 500 4441 
Q 881 4594 1212 4672 
Q 1544 4750 1819 4750 
Q 2544 4750 2975 4387 
Q 3406 4025 3406 3419 
Q 3406 3131 3298 2873 
Q 3191 2616 2906 2266 
Q 2828 2175 2409 1742 
Q 1991 1309 1228 531 
z
" transform="scale(0.015625)"/>
       </defs>
       <use xlink:href="#DejaVuSans-32"/>
      </g>
     </g>
    </g>
    <g id="xtick_3">
     <g id="line2d_3">
      <g>
       <use xlink:href="#m67ba99eaf4" x="438.783468" y="384.48" style="stroke: #000000; stroke-width: 0.8"/>
      </g>
     </g>
     <g id="text_3">
      <!-- 4 -->
      <g transform="translate(435.602218 399.078438) scale(0.1 -0.1)">
       <defs>
        <path id="DejaVuSans-34" d="M 2419 4116 
L 825 1625 
L 2419 1625 
L 2419 4116 
z
M 2253 4666 
L 3047 4666 
L 3047 1625 
L 3713 1625 
L 3713 1100 
L 3047 1100 
L 3047 0 
L 2419 0 
L 2419 1100 
L 313 1100 
L 313 1709 
L 2253 4666 
z
" transform="scale(0.015625)"/>
       </defs>
       <use xlink:href="#DejaVuSans-34"/>
      </g>
     </g>
    </g>
    <g id="xtick_4">
     <g id="line2d_4">
      <g>
       <use xlink:href="#m67ba99eaf4" x="591.364904" y="384.48" style="stroke: #000000; stroke-width: 0.8"/>
      </g>
     </g>
     <g id="text_4">
      <!-- 6 -->
      <g transform="translate(588.183654 399.078438) scale(0.1 -0.1)">
       <defs>
        <path id="DejaVuSans-36" d="M 2113 2584 
Q 1688 2584 1439 2293 
Q 1191 2003 1191 1497 
Q 1191 994 1439 701 
Q 1688 409 2113 409 
Q 2538 409 2786 701 
Q 3034 994 3034 1497 
Q 3034 2003 2786 2293 
Q 2538 2584 2113 2584 
z
M 3366 4563 
L 3366 3988 
Q 3128 4100 2886 4159 
Q 2644 4219 2406 4219 
Q 1781 4219 1451 3797 
Q 1122 3375 1075 2522 
Q 1259 2794 1537 2939 
Q 1816 3084 2150 3084 
Q 2853 3084 3261 2657 
Q 3669 2231 3669 1497 
Q 3669 778 3244 343 
Q 2819 -91 2113 -91 
Q 1303 -91 875 529 
Q 447 1150 447 2328 
Q 447 3434 972 4092 
Q 1497 4750 2381 4750 
Q 2619 4750 2861 4703 
Q 3103 4656 3366 4563 
z
" transform="scale(0.015625)"/>
       </defs>
       <use xlink:href="#DejaVuSans-36"/>
      </g>
     </g>
    </g>
    <g id="xtick_5">
     <g id="line2d_5">
      <g>
       <use xlink:href="#m67ba99eaf4" x="743.94634" y="384.48" style="stroke: #000000; stroke-width: 0.8"/>
      </g>
     </g>
     <g id="text_5">
      <!-- 8 -->
      <g transform="translate(740.76509 399.078438) scale(0.1 -0.1)">
       <defs>
        <path id="DejaVuSans-38" d="M 2034 2216 
Q 1584 2216 1326 1975 
Q 1069 1734 1069 1313 
Q 1069 891 1326 650 
Q 1584 409 2034 409 
Q 2484 409 2743 651 
Q 3003 894 3003 1313 
Q 3003 1734 2745 1975 
Q 2488 2216 2034 2216 
z
M 1403 2484 
Q 997 2584 770 2862 
Q 544 3141 544 3541 
Q 544 4100 942 4425 
Q 1341 4750 2034 4750 
Q 2731 4750 3128 4425 
Q 3525 4100 3525 3541 
Q 3525 3141 3298 2862 
Q 3072 2584 2669 2484 
Q 3125 2378 3379 2068 
Q 3634 1759 3634 1313 
Q 3634 634 3220 271 
Q 2806 -91 2034 -91 
Q 1263 -91 848 271 
Q 434 634 434 1313 
Q 434 1759 690 2068 
Q 947 2378 1403 2484 
z
M 1172 3481 
Q 1172 3119 1398 2916 
Q 1625 2713 2034 2713 
Q 2441 2713 2670 2916 
Q 2900 3119 2900 3481 
Q 2900 3844 2670 4047 
Q 2441 4250 2034 4250 
Q 1625 4250 1398 4047 
Q 1172 3844 1172 3481 
z
" transform="scale(0.015625)"/>
       </defs>
       <use xlink:href="#DejaVuSans-38"/>
      </g>
     </g>
    </g>
    <g id="xtick_6">
     <g id="line2d_6">
      <g>
       <use xlink:href="#m67ba99eaf4" x="896.527776" y="384.48" style="stroke: #000000; stroke-width: 0.8"/>
      </g>
     </g>
     <g id="text_6">
      <!-- 10 -->
      <g transform="translate(890.165276 399.078438) scale(0.1 -0.1)">
       <defs>
        <path id="DejaVuSans-31" d="M 794 531 
L 1825 531 
L 1825 4091 
L 703 3866 
L 703 4441 
L 1819 4666 
L 2450 4666 
L 2450 531 
L 3481 531 
L 3481 0 
L 794 0 
L 794 531 
z
" transform="scale(0.015625)"/>
       </defs>
       <use xlink:href="#DejaVuSans-31"/>
       <use xlink:href="#DejaVuSans-30" x="63.623047"/>
      </g>
     </g>
    </g>
    <g id="text_7">
     <!-- Experiment length [min] -->
     <g transform="translate(455.264844 412.756563) scale(0.1 -0.1)">
      <defs>
       <path id="DejaVuSans-45" d="M 628 4666 
L 3578 4666 
L 3578 4134 
L 1259 4134 
L 1259 2753 
L 3481 2753 
L 3481 2222 
L 1259 2222 
L 1259 531 
L 3634 531 
L 3634 0 
L 628 0 
L 628 4666 
z
" transform="scale(0.015625)"/>
       <path id="DejaVuSans-78" d="M 3513 3500 
L 2247 1797 
L 3578 0 
L 2900 0 
L 1881 1375 
L 863 0 
L 184 0 
L 1544 1831 
L 300 3500 
L 978 3500 
L 1906 2253 
L 2834 3500 
L 3513 3500 
z
" transform="scale(0.015625)"/>
       <path id="DejaVuSans-70" d="M 1159 525 
L 1159 -1331 
L 581 -1331 
L 581 3500 
L 1159 3500 
L 1159 2969 
Q 1341 3281 1617 3432 
Q 1894 3584 2278 3584 
Q 2916 3584 3314 3078 
Q 3713 2572 3713 1747 
Q 3713 922 3314 415 
Q 2916 -91 2278 -91 
Q 1894 -91 1617 61 
Q 1341 213 1159 525 
z
M 3116 1747 
Q 3116 2381 2855 2742 
Q 2594 3103 2138 3103 
Q 1681 3103 1420 2742 
Q 1159 2381 1159 1747 
Q 1159 1113 1420 752 
Q 1681 391 2138 391 
Q 2594 391 2855 752 
Q 3116 1113 3116 1747 
z
" transform="scale(0.015625)"/>
       <path id="DejaVuSans-65" d="M 3597 1894 
L 3597 1613 
L 953 1613 
Q 991 1019 1311 708 
Q 1631 397 2203 397 
Q 2534 397 2845 478 
Q 3156 559 3463 722 
L 3463 178 
Q 3153 47 2828 -22 
Q 2503 -91 2169 -91 
Q 1331 -91 842 396 
Q 353 884 353 1716 
Q 353 2575 817 3079 
Q 1281 3584 2069 3584 
Q 2775 3584 3186 3129 
Q 3597 2675 3597 1894 
z
M 3022 2063 
Q 3016 2534 2758 2815 
Q 2500 3097 2075 3097 
Q 1594 3097 1305 2825 
Q 1016 2553 972 2059 
L 3022 2063 
z
" transform="scale(0.015625)"/>
       <path id="DejaVuSans-72" d="M 2631 2963 
Q 2534 3019 2420 3045 
Q 2306 3072 2169 3072 
Q 1681 3072 1420 2755 
Q 1159 2438 1159 1844 
L 1159 0 
L 581 0 
L 581 3500 
L 1159 3500 
L 1159 2956 
Q 1341 3275 1631 3429 
Q 1922 3584 2338 3584 
Q 2397 3584 2469 3576 
Q 2541 3569 2628 3553 
L 2631 2963 
z
" transform="scale(0.015625)"/>
       <path id="DejaVuSans-69" d="M 603 3500 
L 1178 3500 
L 1178 0 
L 603 0 
L 603 3500 
z
M 603 4863 
L 1178 4863 
L 1178 4134 
L 603 4134 
L 603 4863 
z
" transform="scale(0.015625)"/>
       <path id="DejaVuSans-6d" d="M 3328 2828 
Q 3544 3216 3844 3400 
Q 4144 3584 4550 3584 
Q 5097 3584 5394 3201 
Q 5691 2819 5691 2113 
L 5691 0 
L 5113 0 
L 5113 2094 
Q 5113 2597 4934 2840 
Q 4756 3084 4391 3084 
Q 3944 3084 3684 2787 
Q 3425 2491 3425 1978 
L 3425 0 
L 2847 0 
L 2847 2094 
Q 2847 2600 2669 2842 
Q 2491 3084 2119 3084 
Q 1678 3084 1418 2786 
Q 1159 2488 1159 1978 
L 1159 0 
L 581 0 
L 581 3500 
L 1159 3500 
L 1159 2956 
Q 1356 3278 1631 3431 
Q 1906 3584 2284 3584 
Q 2666 3584 2933 3390 
Q 3200 3197 3328 2828 
z
" transform="scale(0.015625)"/>
       <path id="DejaVuSans-6e" d="M 3513 2113 
L 3513 0 
L 2938 0 
L 2938 2094 
Q 2938 2591 2744 2837 
Q 2550 3084 2163 3084 
Q 1697 3084 1428 2787 
Q 1159 2491 1159 1978 
L 1159 0 
L 581 0 
L 581 3500 
L 1159 3500 
L 1159 2956 
Q 1366 3272 1645 3428 
Q 1925 3584 2291 3584 
Q 2894 3584 3203 3211 
Q 3513 2838 3513 2113 
z
" transform="scale(0.015625)"/>
       <path id="DejaVuSans-74" d="M 1172 4494 
L 1172 3500 
L 2356 3500 
L 2356 3053 
L 1172 3053 
L 1172 1153 
Q 1172 725 1289 603 
Q 1406 481 1766 481 
L 2356 481 
L 2356 0 
L 1766 0 
Q 1100 0 847 248 
Q 594 497 594 1153 
L 594 3053 
L 172 3053 
L 172 3500 
L 594 3500 
L 594 4494 
L 1172 4494 
z
" transform="scale(0.015625)"/>
       <path id="DejaVuSans-20" transform="scale(0.015625)"/>
       <path id="DejaVuSans-6c" d="M 603 4863 
L 1178 4863 
L 1178 0 
L 603 0 
L 603 4863 
z
" transform="scale(0.015625)"/>
       <path id="DejaVuSans-67" d="M 2906 1791 
Q 2906 2416 2648 2759 
Q 2391 3103 1925 3103 
Q 1463 3103 1205 2759 
Q 947 2416 947 1791 
Q 947 1169 1205 825 
Q 1463 481 1925 481 
Q 2391 481 2648 825 
Q 2906 1169 2906 1791 
z
M 3481 434 
Q 3481 -459 3084 -895 
Q 2688 -1331 1869 -1331 
Q 1566 -1331 1297 -1286 
Q 1028 -1241 775 -1147 
L 775 -588 
Q 1028 -725 1275 -790 
Q 1522 -856 1778 -856 
Q 2344 -856 2625 -561 
Q 2906 -266 2906 331 
L 2906 616 
Q 2728 306 2450 153 
Q 2172 0 1784 0 
Q 1141 0 747 490 
Q 353 981 353 1791 
Q 353 2603 747 3093 
Q 1141 3584 1784 3584 
Q 2172 3584 2450 3431 
Q 2728 3278 2906 2969 
L 2906 3500 
L 3481 3500 
L 3481 434 
z
" transform="scale(0.015625)"/>
       <path id="DejaVuSans-68" d="M 3513 2113 
L 3513 0 
L 2938 0 
L 2938 2094 
Q 2938 2591 2744 2837 
Q 2550 3084 2163 3084 
Q 1697 3084 1428 2787 
Q 1159 2491 1159 1978 
L 1159 0 
L 581 0 
L 581 4863 
L 1159 4863 
L 1159 2956 
Q 1366 3272 1645 3428 
Q 1925 3584 2291 3584 
Q 2894 3584 3203 3211 
Q 3513 2838 3513 2113 
z
" transform="scale(0.015625)"/>
       <path id="DejaVuSans-5b" d="M 550 4863 
L 1875 4863 
L 1875 4416 
L 1125 4416 
L 1125 -397 
L 1875 -397 
L 1875 -844 
L 550 -844 
L 550 4863 
z
" transform="scale(0.015625)"/>
       <path id="DejaVuSans-5d" d="M 1947 4863 
L 1947 -844 
L 622 -844 
L 622 -397 
L 1369 -397 
L 1369 4416 
L 622 4416 
L 622 4863 
L 1947 4863 
z
" transform="scale(0.015625)"/>
      </defs>
      <use xlink:href="#DejaVuSans-45"/>
      <use xlink:href="#DejaVuSans-78" x="63.183594"/>
      <use xlink:href="#DejaVuSans-70" x="122.363281"/>
      <use xlink:href="#DejaVuSans-65" x="185.839844"/>
      <use xlink:href="#DejaVuSans-72" x="247.363281"/>
      <use xlink:href="#DejaVuSans-69" x="288.476562"/>
      <use xlink:href="#DejaVuSans-6d" x="316.259766"/>
      <use xlink:href="#DejaVuSans-65" x="413.671875"/>
      <use xlink:href="#DejaVuSans-6e" x="475.195312"/>
      <use xlink:href="#DejaVuSans-74" x="538.574219"/>
      <use xlink:href="#DejaVuSans-20" x="577.783203"/>
      <use xlink:href="#DejaVuSans-6c" x="609.570312"/>
      <use xlink:href="#DejaVuSans-65" x="637.353516"/>
      <use xlink:href="#DejaVuSans-6e" x="698.876953"/>
      <use xlink:href="#DejaVuSans-67" x="762.255859"/>
      <use xlink:href="#DejaVuSans-74" x="825.732422"/>
      <use xlink:href="#DejaVuSans-68" x="864.941406"/>
      <use xlink:href="#DejaVuSans-20" x="928.320312"/>
      <use xlink:href="#DejaVuSans-5b" x="960.107422"/>
      <use xlink:href="#DejaVuSans-6d" x="999.121094"/>
      <use xlink:href="#DejaVuSans-69" x="1096.533203"/>
      <use xlink:href="#DejaVuSans-6e" x="1124.316406"/>
      <use xlink:href="#DejaVuSans-5d" x="1187.695312"/>
     </g>
    </g>
   </g>
   <g id="matplotlib.axis_2">
    <g id="ytick_1">
     <g id="line2d_7">
      <defs>
       <path id="m56e690b4a0" d="M 0 0 
L -3.5 0 
" style="stroke: #000000; stroke-width: 0.8"/>
      </defs>
      <g>
       <use xlink:href="#m56e690b4a0" x="126" y="268.56" style="stroke: #000000; stroke-width: 0.8"/>
      </g>
     </g>
     <g id="text_8">
      <!-- deg sniff left dish -->
      <g transform="translate(32.379687 272.359219) scale(0.1 -0.1)">
       <defs>
        <path id="DejaVuSans-64" d="M 2906 2969 
L 2906 4863 
L 3481 4863 
L 3481 0 
L 2906 0 
L 2906 525 
Q 2725 213 2448 61 
Q 2172 -91 1784 -91 
Q 1150 -91 751 415 
Q 353 922 353 1747 
Q 353 2572 751 3078 
Q 1150 3584 1784 3584 
Q 2172 3584 2448 3432 
Q 2725 3281 2906 2969 
z
M 947 1747 
Q 947 1113 1208 752 
Q 1469 391 1925 391 
Q 2381 391 2643 752 
Q 2906 1113 2906 1747 
Q 2906 2381 2643 2742 
Q 2381 3103 1925 3103 
Q 1469 3103 1208 2742 
Q 947 2381 947 1747 
z
" transform="scale(0.015625)"/>
        <path id="DejaVuSans-73" d="M 2834 3397 
L 2834 2853 
Q 2591 2978 2328 3040 
Q 2066 3103 1784 3103 
Q 1356 3103 1142 2972 
Q 928 2841 928 2578 
Q 928 2378 1081 2264 
Q 1234 2150 1697 2047 
L 1894 2003 
Q 2506 1872 2764 1633 
Q 3022 1394 3022 966 
Q 3022 478 2636 193 
Q 2250 -91 1575 -91 
Q 1294 -91 989 -36 
Q 684 19 347 128 
L 347 722 
Q 666 556 975 473 
Q 1284 391 1588 391 
Q 1994 391 2212 530 
Q 2431 669 2431 922 
Q 2431 1156 2273 1281 
Q 2116 1406 1581 1522 
L 1381 1569 
Q 847 1681 609 1914 
Q 372 2147 372 2553 
Q 372 3047 722 3315 
Q 1072 3584 1716 3584 
Q 2034 3584 2315 3537 
Q 2597 3491 2834 3397 
z
" transform="scale(0.015625)"/>
        <path id="DejaVuSans-66" d="M 2375 4863 
L 2375 4384 
L 1825 4384 
Q 1516 4384 1395 4259 
Q 1275 4134 1275 3809 
L 1275 3500 
L 2222 3500 
L 2222 3053 
L 1275 3053 
L 1275 0 
L 697 0 
L 697 3053 
L 147 3053 
L 147 3500 
L 697 3500 
L 697 3744 
Q 697 4328 969 4595 
Q 1241 4863 1831 4863 
L 2375 4863 
z
" transform="scale(0.015625)"/>
       </defs>
       <use xlink:href="#DejaVuSans-64"/>
       <use xlink:href="#DejaVuSans-65" x="63.476562"/>
       <use xlink:href="#DejaVuSans-67" x="125"/>
       <use xlink:href="#DejaVuSans-20" x="188.476562"/>
       <use xlink:href="#DejaVuSans-73" x="220.263672"/>
       <use xlink:href="#DejaVuSans-6e" x="272.363281"/>
       <use xlink:href="#DejaVuSans-69" x="335.742188"/>
       <use xlink:href="#DejaVuSans-66" x="363.525391"/>
       <use xlink:href="#DejaVuSans-66" x="398.730469"/>
       <use xlink:href="#DejaVuSans-20" x="433.935547"/>
       <use xlink:href="#DejaVuSans-6c" x="465.722656"/>
       <use xlink:href="#DejaVuSans-65" x="493.505859"/>
       <use xlink:href="#DejaVuSans-66" x="555.029297"/>
       <use xlink:href="#DejaVuSans-74" x="588.484375"/>
       <use xlink:href="#DejaVuSans-20" x="627.693359"/>
       <use xlink:href="#DejaVuSans-64" x="659.480469"/>
       <use xlink:href="#DejaVuSans-69" x="722.957031"/>
       <use xlink:href="#DejaVuSans-73" x="750.740234"/>
       <use xlink:href="#DejaVuSans-68" x="802.839844"/>
      </g>
     </g>
    </g>
    <g id="ytick_2">
     <g id="line2d_8">
      <g>
       <use xlink:href="#m56e690b4a0" x="126" y="167.76" style="stroke: #000000; stroke-width: 0.8"/>
      </g>
     </g>
     <g id="text_9">
      <!-- deg sniff right dish -->
      <g transform="translate(25.08125 171.559219) scale(0.1 -0.1)">
       <use xlink:href="#DejaVuSans-64"/>
       <use xlink:href="#DejaVuSans-65" x="63.476562"/>
       <use xlink:href="#DejaVuSans-67" x="125"/>
       <use xlink:href="#DejaVuSans-20" x="188.476562"/>
       <use xlink:href="#DejaVuSans-73" x="220.263672"/>
       <use xlink:href="#DejaVuSans-6e" x="272.363281"/>
       <use xlink:href="#DejaVuSans-69" x="335.742188"/>
       <use xlink:href="#DejaVuSans-66" x="363.525391"/>
       <use xlink:href="#DejaVuSans-66" x="398.730469"/>
       <use xlink:href="#DejaVuSans-20" x="433.935547"/>
       <use xlink:href="#DejaVuSans-72" x="465.722656"/>
       <use xlink:href="#DejaVuSans-69" x="506.835938"/>
       <use xlink:href="#DejaVuSans-67" x="534.619141"/>
       <use xlink:href="#DejaVuSans-68" x="598.095703"/>
       <use xlink:href="#DejaVuSans-74" x="661.474609"/>
       <use xlink:href="#DejaVuSans-20" x="700.683594"/>
       <use xlink:href="#DejaVuSans-64" x="732.470703"/>
       <use xlink:href="#DejaVuSans-69" x="795.947266"/>
       <use xlink:href="#DejaVuSans-73" x="823.730469"/>
       <use xlink:href="#DejaVuSans-68" x="875.830078"/>
      </g>
     </g>
    </g>
   </g>
   <g id="EventCollection_1">
    <path d="M 226.101899 218.16 
L 226.101899 318.96 
" clip-path="url(#p20ae475525)" style="fill: none; stroke: #bf00bf; stroke-width: 0.5"/>
    <path d="M 226.186666 218.16 
L 226.186666 318.96 
" clip-path="url(#p20ae475525)" style="fill: none; stroke: #bf00bf; stroke-width: 0.5"/>
    <path d="M 226.271434 218.16 
L 226.271434 318.96 
" clip-path="url(#p20ae475525)" style="fill: none; stroke: #bf00bf; stroke-width: 0.5"/>
    <path d="M 226.356201 218.16 
L 226.356201 318.96 
" clip-path="url(#p20ae475525)" style="fill: none; stroke: #bf00bf; stroke-width: 0.5"/>
    <path d="M 226.440969 218.16 
L 226.440969 318.96 
" clip-path="url(#p20ae475525)" style="fill: none; stroke: #bf00bf; stroke-width: 0.5"/>
    <path d="M 226.525736 218.16 
L 226.525736 318.96 
" clip-path="url(#p20ae475525)" style="fill: none; stroke: #bf00bf; stroke-width: 0.5"/>
    <path d="M 226.610504 218.16 
L 226.610504 318.96 
" clip-path="url(#p20ae475525)" style="fill: none; stroke: #bf00bf; stroke-width: 0.5"/>
    <path d="M 226.695271 218.16 
L 226.695271 318.96 
" clip-path="url(#p20ae475525)" style="fill: none; stroke: #bf00bf; stroke-width: 0.5"/>
    <path d="M 226.780039 218.16 
L 226.780039 318.96 
" clip-path="url(#p20ae475525)" style="fill: none; stroke: #bf00bf; stroke-width: 0.5"/>
    <path d="M 226.864806 218.16 
L 226.864806 318.96 
" clip-path="url(#p20ae475525)" style="fill: none; stroke: #bf00bf; stroke-width: 0.5"/>
    <path d="M 226.949574 218.16 
L 226.949574 318.96 
" clip-path="url(#p20ae475525)" style="fill: none; stroke: #bf00bf; stroke-width: 0.5"/>
    <path d="M 227.034341 218.16 
L 227.034341 318.96 
" clip-path="url(#p20ae475525)" style="fill: none; stroke: #bf00bf; stroke-width: 0.5"/>
    <path d="M 227.119108 218.16 
L 227.119108 318.96 
" clip-path="url(#p20ae475525)" style="fill: none; stroke: #bf00bf; stroke-width: 0.5"/>
    <path d="M 227.203876 218.16 
L 227.203876 318.96 
" clip-path="url(#p20ae475525)" style="fill: none; stroke: #bf00bf; stroke-width: 0.5"/>
    <path d="M 227.288643 218.16 
L 227.288643 318.96 
" clip-path="url(#p20ae475525)" style="fill: none; stroke: #bf00bf; stroke-width: 0.5"/>
    <path d="M 227.373411 218.16 
L 227.373411 318.96 
" clip-path="url(#p20ae475525)" style="fill: none; stroke: #bf00bf; stroke-width: 0.5"/>
    <path d="M 227.458178 218.16 
L 227.458178 318.96 
" clip-path="url(#p20ae475525)" style="fill: none; stroke: #bf00bf; stroke-width: 0.5"/>
    <path d="M 227.542946 218.16 
L 227.542946 318.96 
" clip-path="url(#p20ae475525)" style="fill: none; stroke: #bf00bf; stroke-width: 0.5"/>
    <path d="M 227.627713 218.16 
L 227.627713 318.96 
" clip-path="url(#p20ae475525)" style="fill: none; stroke: #bf00bf; stroke-width: 0.5"/>
    <path d="M 227.712481 218.16 
L 227.712481 318.96 
" clip-path="url(#p20ae475525)" style="fill: none; stroke: #bf00bf; stroke-width: 0.5"/>
    <path d="M 227.797248 218.16 
L 227.797248 318.96 
" clip-path="url(#p20ae475525)" style="fill: none; stroke: #bf00bf; stroke-width: 0.5"/>
    <path d="M 227.882016 218.16 
L 227.882016 318.96 
" clip-path="url(#p20ae475525)" style="fill: none; stroke: #bf00bf; stroke-width: 0.5"/>
    <path d="M 227.966783 218.16 
L 227.966783 318.96 
" clip-path="url(#p20ae475525)" style="fill: none; stroke: #bf00bf; stroke-width: 0.5"/>
    <path d="M 228.051551 218.16 
L 228.051551 318.96 
" clip-path="url(#p20ae475525)" style="fill: none; stroke: #bf00bf; stroke-width: 0.5"/>
    <path d="M 228.136318 218.16 
L 228.136318 318.96 
" clip-path="url(#p20ae475525)" style="fill: none; stroke: #bf00bf; stroke-width: 0.5"/>
    <path d="M 228.221086 218.16 
L 228.221086 318.96 
" clip-path="url(#p20ae475525)" style="fill: none; stroke: #bf00bf; stroke-width: 0.5"/>
    <path d="M 228.305853 218.16 
L 228.305853 318.96 
" clip-path="url(#p20ae475525)" style="fill: none; stroke: #bf00bf; stroke-width: 0.5"/>
    <path d="M 228.39062 218.16 
L 228.39062 318.96 
" clip-path="url(#p20ae475525)" style="fill: none; stroke: #bf00bf; stroke-width: 0.5"/>
    <path d="M 228.475388 218.16 
L 228.475388 318.96 
" clip-path="url(#p20ae475525)" style="fill: none; stroke: #bf00bf; stroke-width: 0.5"/>
    <path d="M 228.560155 218.16 
L 228.560155 318.96 
" clip-path="url(#p20ae475525)" style="fill: none; stroke: #bf00bf; stroke-width: 0.5"/>
    <path d="M 228.644923 218.16 
L 228.644923 318.96 
" clip-path="url(#p20ae475525)" style="fill: none; stroke: #bf00bf; stroke-width: 0.5"/>
    <path d="M 228.72969 218.16 
L 228.72969 318.96 
" clip-path="url(#p20ae475525)" style="fill: none; stroke: #bf00bf; stroke-width: 0.5"/>
    <path d="M 344.013442 218.16 
L 344.013442 318.96 
" clip-path="url(#p20ae475525)" style="fill: none; stroke: #bf00bf; stroke-width: 0.5"/>
    <path d="M 344.09821 218.16 
L 344.09821 318.96 
" clip-path="url(#p20ae475525)" style="fill: none; stroke: #bf00bf; stroke-width: 0.5"/>
    <path d="M 344.182977 218.16 
L 344.182977 318.96 
" clip-path="url(#p20ae475525)" style="fill: none; stroke: #bf00bf; stroke-width: 0.5"/>
    <path d="M 344.267745 218.16 
L 344.267745 318.96 
" clip-path="url(#p20ae475525)" style="fill: none; stroke: #bf00bf; stroke-width: 0.5"/>
    <path d="M 363.933796 218.16 
L 363.933796 318.96 
" clip-path="url(#p20ae475525)" style="fill: none; stroke: #bf00bf; stroke-width: 0.5"/>
    <path d="M 364.018564 218.16 
L 364.018564 318.96 
" clip-path="url(#p20ae475525)" style="fill: none; stroke: #bf00bf; stroke-width: 0.5"/>
    <path d="M 364.103331 218.16 
L 364.103331 318.96 
" clip-path="url(#p20ae475525)" style="fill: none; stroke: #bf00bf; stroke-width: 0.5"/>
    <path d="M 364.188099 218.16 
L 364.188099 318.96 
" clip-path="url(#p20ae475525)" style="fill: none; stroke: #bf00bf; stroke-width: 0.5"/>
    <path d="M 364.272866 218.16 
L 364.272866 318.96 
" clip-path="url(#p20ae475525)" style="fill: none; stroke: #bf00bf; stroke-width: 0.5"/>
    <path d="M 364.357634 218.16 
L 364.357634 318.96 
" clip-path="url(#p20ae475525)" style="fill: none; stroke: #bf00bf; stroke-width: 0.5"/>
    <path d="M 489.135341 218.16 
L 489.135341 318.96 
" clip-path="url(#p20ae475525)" style="fill: none; stroke: #bf00bf; stroke-width: 0.5"/>
    <path d="M 489.220109 218.16 
L 489.220109 318.96 
" clip-path="url(#p20ae475525)" style="fill: none; stroke: #bf00bf; stroke-width: 0.5"/>
    <path d="M 489.304876 218.16 
L 489.304876 318.96 
" clip-path="url(#p20ae475525)" style="fill: none; stroke: #bf00bf; stroke-width: 0.5"/>
    <path d="M 489.389644 218.16 
L 489.389644 318.96 
" clip-path="url(#p20ae475525)" style="fill: none; stroke: #bf00bf; stroke-width: 0.5"/>
    <path d="M 489.474411 218.16 
L 489.474411 318.96 
" clip-path="url(#p20ae475525)" style="fill: none; stroke: #bf00bf; stroke-width: 0.5"/>
    <path d="M 489.559179 218.16 
L 489.559179 318.96 
" clip-path="url(#p20ae475525)" style="fill: none; stroke: #bf00bf; stroke-width: 0.5"/>
    <path d="M 489.643946 218.16 
L 489.643946 318.96 
" clip-path="url(#p20ae475525)" style="fill: none; stroke: #bf00bf; stroke-width: 0.5"/>
    <path d="M 489.728714 218.16 
L 489.728714 318.96 
" clip-path="url(#p20ae475525)" style="fill: none; stroke: #bf00bf; stroke-width: 0.5"/>
    <path d="M 489.813481 218.16 
L 489.813481 318.96 
" clip-path="url(#p20ae475525)" style="fill: none; stroke: #bf00bf; stroke-width: 0.5"/>
    <path d="M 489.898249 218.16 
L 489.898249 318.96 
" clip-path="url(#p20ae475525)" style="fill: none; stroke: #bf00bf; stroke-width: 0.5"/>
    <path d="M 489.983016 218.16 
L 489.983016 318.96 
" clip-path="url(#p20ae475525)" style="fill: none; stroke: #bf00bf; stroke-width: 0.5"/>
    <path d="M 490.067784 218.16 
L 490.067784 318.96 
" clip-path="url(#p20ae475525)" style="fill: none; stroke: #bf00bf; stroke-width: 0.5"/>
    <path d="M 490.152551 218.16 
L 490.152551 318.96 
" clip-path="url(#p20ae475525)" style="fill: none; stroke: #bf00bf; stroke-width: 0.5"/>
    <path d="M 490.237319 218.16 
L 490.237319 318.96 
" clip-path="url(#p20ae475525)" style="fill: none; stroke: #bf00bf; stroke-width: 0.5"/>
    <path d="M 490.322086 218.16 
L 490.322086 318.96 
" clip-path="url(#p20ae475525)" style="fill: none; stroke: #bf00bf; stroke-width: 0.5"/>
    <path d="M 490.406853 218.16 
L 490.406853 318.96 
" clip-path="url(#p20ae475525)" style="fill: none; stroke: #bf00bf; stroke-width: 0.5"/>
    <path d="M 490.491621 218.16 
L 490.491621 318.96 
" clip-path="url(#p20ae475525)" style="fill: none; stroke: #bf00bf; stroke-width: 0.5"/>
    <path d="M 490.576388 218.16 
L 490.576388 318.96 
" clip-path="url(#p20ae475525)" style="fill: none; stroke: #bf00bf; stroke-width: 0.5"/>
    <path d="M 490.661156 218.16 
L 490.661156 318.96 
" clip-path="url(#p20ae475525)" style="fill: none; stroke: #bf00bf; stroke-width: 0.5"/>
    <path d="M 500.833252 218.16 
L 500.833252 318.96 
" clip-path="url(#p20ae475525)" style="fill: none; stroke: #bf00bf; stroke-width: 0.5"/>
    <path d="M 500.918019 218.16 
L 500.918019 318.96 
" clip-path="url(#p20ae475525)" style="fill: none; stroke: #bf00bf; stroke-width: 0.5"/>
    <path d="M 501.002787 218.16 
L 501.002787 318.96 
" clip-path="url(#p20ae475525)" style="fill: none; stroke: #bf00bf; stroke-width: 0.5"/>
    <path d="M 501.087554 218.16 
L 501.087554 318.96 
" clip-path="url(#p20ae475525)" style="fill: none; stroke: #bf00bf; stroke-width: 0.5"/>
    <path d="M 501.172321 218.16 
L 501.172321 318.96 
" clip-path="url(#p20ae475525)" style="fill: none; stroke: #bf00bf; stroke-width: 0.5"/>
    <path d="M 501.257089 218.16 
L 501.257089 318.96 
" clip-path="url(#p20ae475525)" style="fill: none; stroke: #bf00bf; stroke-width: 0.5"/>
    <path d="M 501.341856 218.16 
L 501.341856 318.96 
" clip-path="url(#p20ae475525)" style="fill: none; stroke: #bf00bf; stroke-width: 0.5"/>
    <path d="M 501.426624 218.16 
L 501.426624 318.96 
" clip-path="url(#p20ae475525)" style="fill: none; stroke: #bf00bf; stroke-width: 0.5"/>
    <path d="M 501.511391 218.16 
L 501.511391 318.96 
" clip-path="url(#p20ae475525)" style="fill: none; stroke: #bf00bf; stroke-width: 0.5"/>
    <path d="M 501.596159 218.16 
L 501.596159 318.96 
" clip-path="url(#p20ae475525)" style="fill: none; stroke: #bf00bf; stroke-width: 0.5"/>
    <path d="M 501.680926 218.16 
L 501.680926 318.96 
" clip-path="url(#p20ae475525)" style="fill: none; stroke: #bf00bf; stroke-width: 0.5"/>
    <path d="M 542.962681 218.16 
L 542.962681 318.96 
" clip-path="url(#p20ae475525)" style="fill: none; stroke: #bf00bf; stroke-width: 0.5"/>
    <path d="M 543.047449 218.16 
L 543.047449 318.96 
" clip-path="url(#p20ae475525)" style="fill: none; stroke: #bf00bf; stroke-width: 0.5"/>
    <path d="M 543.132216 218.16 
L 543.132216 318.96 
" clip-path="url(#p20ae475525)" style="fill: none; stroke: #bf00bf; stroke-width: 0.5"/>
    <path d="M 543.216984 218.16 
L 543.216984 318.96 
" clip-path="url(#p20ae475525)" style="fill: none; stroke: #bf00bf; stroke-width: 0.5"/>
    <path d="M 543.301751 218.16 
L 543.301751 318.96 
" clip-path="url(#p20ae475525)" style="fill: none; stroke: #bf00bf; stroke-width: 0.5"/>
    <path d="M 543.386519 218.16 
L 543.386519 318.96 
" clip-path="url(#p20ae475525)" style="fill: none; stroke: #bf00bf; stroke-width: 0.5"/>
    <path d="M 543.471286 218.16 
L 543.471286 318.96 
" clip-path="url(#p20ae475525)" style="fill: none; stroke: #bf00bf; stroke-width: 0.5"/>
    <path d="M 543.556054 218.16 
L 543.556054 318.96 
" clip-path="url(#p20ae475525)" style="fill: none; stroke: #bf00bf; stroke-width: 0.5"/>
    <path d="M 695.035513 218.16 
L 695.035513 318.96 
" clip-path="url(#p20ae475525)" style="fill: none; stroke: #bf00bf; stroke-width: 0.5"/>
    <path d="M 695.12028 218.16 
L 695.12028 318.96 
" clip-path="url(#p20ae475525)" style="fill: none; stroke: #bf00bf; stroke-width: 0.5"/>
    <path d="M 695.205048 218.16 
L 695.205048 318.96 
" clip-path="url(#p20ae475525)" style="fill: none; stroke: #bf00bf; stroke-width: 0.5"/>
    <path d="M 695.289815 218.16 
L 695.289815 318.96 
" clip-path="url(#p20ae475525)" style="fill: none; stroke: #bf00bf; stroke-width: 0.5"/>
    <path d="M 695.374583 218.16 
L 695.374583 318.96 
" clip-path="url(#p20ae475525)" style="fill: none; stroke: #bf00bf; stroke-width: 0.5"/>
    <path d="M 695.45935 218.16 
L 695.45935 318.96 
" clip-path="url(#p20ae475525)" style="fill: none; stroke: #bf00bf; stroke-width: 0.5"/>
    <path d="M 695.544118 218.16 
L 695.544118 318.96 
" clip-path="url(#p20ae475525)" style="fill: none; stroke: #bf00bf; stroke-width: 0.5"/>
    <path d="M 695.628885 218.16 
L 695.628885 318.96 
" clip-path="url(#p20ae475525)" style="fill: none; stroke: #bf00bf; stroke-width: 0.5"/>
    <path d="M 695.713653 218.16 
L 695.713653 318.96 
" clip-path="url(#p20ae475525)" style="fill: none; stroke: #bf00bf; stroke-width: 0.5"/>
    <path d="M 695.79842 218.16 
L 695.79842 318.96 
" clip-path="url(#p20ae475525)" style="fill: none; stroke: #bf00bf; stroke-width: 0.5"/>
    <path d="M 695.883188 218.16 
L 695.883188 318.96 
" clip-path="url(#p20ae475525)" style="fill: none; stroke: #bf00bf; stroke-width: 0.5"/>
    <path d="M 695.967955 218.16 
L 695.967955 318.96 
" clip-path="url(#p20ae475525)" style="fill: none; stroke: #bf00bf; stroke-width: 0.5"/>
    <path d="M 696.052722 218.16 
L 696.052722 318.96 
" clip-path="url(#p20ae475525)" style="fill: none; stroke: #bf00bf; stroke-width: 0.5"/>
    <path d="M 696.13749 218.16 
L 696.13749 318.96 
" clip-path="url(#p20ae475525)" style="fill: none; stroke: #bf00bf; stroke-width: 0.5"/>
    <path d="M 774.801697 218.16 
L 774.801697 318.96 
" clip-path="url(#p20ae475525)" style="fill: none; stroke: #bf00bf; stroke-width: 0.5"/>
    <path d="M 774.886465 218.16 
L 774.886465 318.96 
" clip-path="url(#p20ae475525)" style="fill: none; stroke: #bf00bf; stroke-width: 0.5"/>
    <path d="M 774.971232 218.16 
L 774.971232 318.96 
" clip-path="url(#p20ae475525)" style="fill: none; stroke: #bf00bf; stroke-width: 0.5"/>
    <path d="M 775.055999 218.16 
L 775.055999 318.96 
" clip-path="url(#p20ae475525)" style="fill: none; stroke: #bf00bf; stroke-width: 0.5"/>
    <path d="M 775.140767 218.16 
L 775.140767 318.96 
" clip-path="url(#p20ae475525)" style="fill: none; stroke: #bf00bf; stroke-width: 0.5"/>
    <path d="M 775.225534 218.16 
L 775.225534 318.96 
" clip-path="url(#p20ae475525)" style="fill: none; stroke: #bf00bf; stroke-width: 0.5"/>
    <path d="M 775.310302 218.16 
L 775.310302 318.96 
" clip-path="url(#p20ae475525)" style="fill: none; stroke: #bf00bf; stroke-width: 0.5"/>
    <path d="M 775.395069 218.16 
L 775.395069 318.96 
" clip-path="url(#p20ae475525)" style="fill: none; stroke: #bf00bf; stroke-width: 0.5"/>
    <path d="M 775.479837 218.16 
L 775.479837 318.96 
" clip-path="url(#p20ae475525)" style="fill: none; stroke: #bf00bf; stroke-width: 0.5"/>
    <path d="M 775.564604 218.16 
L 775.564604 318.96 
" clip-path="url(#p20ae475525)" style="fill: none; stroke: #bf00bf; stroke-width: 0.5"/>
    <path d="M 775.649372 218.16 
L 775.649372 318.96 
" clip-path="url(#p20ae475525)" style="fill: none; stroke: #bf00bf; stroke-width: 0.5"/>
    <path d="M 775.734139 218.16 
L 775.734139 318.96 
" clip-path="url(#p20ae475525)" style="fill: none; stroke: #bf00bf; stroke-width: 0.5"/>
    <path d="M 775.818907 218.16 
L 775.818907 318.96 
" clip-path="url(#p20ae475525)" style="fill: none; stroke: #bf00bf; stroke-width: 0.5"/>
    <path d="M 870.249862 218.16 
L 870.249862 318.96 
" clip-path="url(#p20ae475525)" style="fill: none; stroke: #bf00bf; stroke-width: 0.5"/>
    <path d="M 870.33463 218.16 
L 870.33463 318.96 
" clip-path="url(#p20ae475525)" style="fill: none; stroke: #bf00bf; stroke-width: 0.5"/>
    <path d="M 870.419397 218.16 
L 870.419397 318.96 
" clip-path="url(#p20ae475525)" style="fill: none; stroke: #bf00bf; stroke-width: 0.5"/>
    <path d="M 870.504165 218.16 
L 870.504165 318.96 
" clip-path="url(#p20ae475525)" style="fill: none; stroke: #bf00bf; stroke-width: 0.5"/>
    <path d="M 870.588932 218.16 
L 870.588932 318.96 
" clip-path="url(#p20ae475525)" style="fill: none; stroke: #bf00bf; stroke-width: 0.5"/>
    <path d="M 870.6737 218.16 
L 870.6737 318.96 
" clip-path="url(#p20ae475525)" style="fill: none; stroke: #bf00bf; stroke-width: 0.5"/>
    <path d="M 870.758467 218.16 
L 870.758467 318.96 
" clip-path="url(#p20ae475525)" style="fill: none; stroke: #bf00bf; stroke-width: 0.5"/>
    <path d="M 870.843234 218.16 
L 870.843234 318.96 
" clip-path="url(#p20ae475525)" style="fill: none; stroke: #bf00bf; stroke-width: 0.5"/>
    <path d="M 870.928002 218.16 
L 870.928002 318.96 
" clip-path="url(#p20ae475525)" style="fill: none; stroke: #bf00bf; stroke-width: 0.5"/>
    <path d="M 871.012769 218.16 
L 871.012769 318.96 
" clip-path="url(#p20ae475525)" style="fill: none; stroke: #bf00bf; stroke-width: 0.5"/>
    <path d="M 871.097537 218.16 
L 871.097537 318.96 
" clip-path="url(#p20ae475525)" style="fill: none; stroke: #bf00bf; stroke-width: 0.5"/>
    <path d="M 871.182304 218.16 
L 871.182304 318.96 
" clip-path="url(#p20ae475525)" style="fill: none; stroke: #bf00bf; stroke-width: 0.5"/>
    <path d="M 871.267072 218.16 
L 871.267072 318.96 
" clip-path="url(#p20ae475525)" style="fill: none; stroke: #bf00bf; stroke-width: 0.5"/>
    <path d="M 871.351839 218.16 
L 871.351839 318.96 
" clip-path="url(#p20ae475525)" style="fill: none; stroke: #bf00bf; stroke-width: 0.5"/>
    <path d="M 871.436607 218.16 
L 871.436607 318.96 
" clip-path="url(#p20ae475525)" style="fill: none; stroke: #bf00bf; stroke-width: 0.5"/>
    <path d="M 871.521374 218.16 
L 871.521374 318.96 
" clip-path="url(#p20ae475525)" style="fill: none; stroke: #bf00bf; stroke-width: 0.5"/>
    <path d="M 871.606142 218.16 
L 871.606142 318.96 
" clip-path="url(#p20ae475525)" style="fill: none; stroke: #bf00bf; stroke-width: 0.5"/>
    <path d="M 871.690909 218.16 
L 871.690909 318.96 
" clip-path="url(#p20ae475525)" style="fill: none; stroke: #bf00bf; stroke-width: 0.5"/>
   </g>
   <g id="EventCollection_2">
    <path d="M 161.509091 117.36 
L 161.509091 218.16 
" clip-path="url(#p20ae475525)" style="fill: none; stroke: #bfbf00; stroke-width: 0.5"/>
    <path d="M 161.593858 117.36 
L 161.593858 218.16 
" clip-path="url(#p20ae475525)" style="fill: none; stroke: #bfbf00; stroke-width: 0.5"/>
    <path d="M 161.678626 117.36 
L 161.678626 218.16 
" clip-path="url(#p20ae475525)" style="fill: none; stroke: #bfbf00; stroke-width: 0.5"/>
    <path d="M 161.763393 117.36 
L 161.763393 218.16 
" clip-path="url(#p20ae475525)" style="fill: none; stroke: #bfbf00; stroke-width: 0.5"/>
    <path d="M 161.848161 117.36 
L 161.848161 218.16 
" clip-path="url(#p20ae475525)" style="fill: none; stroke: #bfbf00; stroke-width: 0.5"/>
    <path d="M 161.932928 117.36 
L 161.932928 218.16 
" clip-path="url(#p20ae475525)" style="fill: none; stroke: #bfbf00; stroke-width: 0.5"/>
    <path d="M 162.017696 117.36 
L 162.017696 218.16 
" clip-path="url(#p20ae475525)" style="fill: none; stroke: #bfbf00; stroke-width: 0.5"/>
    <path d="M 198.552473 117.36 
L 198.552473 218.16 
" clip-path="url(#p20ae475525)" style="fill: none; stroke: #bfbf00; stroke-width: 0.5"/>
    <path d="M 198.63724 117.36 
L 198.63724 218.16 
" clip-path="url(#p20ae475525)" style="fill: none; stroke: #bfbf00; stroke-width: 0.5"/>
    <path d="M 198.722008 117.36 
L 198.722008 218.16 
" clip-path="url(#p20ae475525)" style="fill: none; stroke: #bfbf00; stroke-width: 0.5"/>
    <path d="M 198.806775 117.36 
L 198.806775 218.16 
" clip-path="url(#p20ae475525)" style="fill: none; stroke: #bfbf00; stroke-width: 0.5"/>
    <path d="M 198.891543 117.36 
L 198.891543 218.16 
" clip-path="url(#p20ae475525)" style="fill: none; stroke: #bfbf00; stroke-width: 0.5"/>
    <path d="M 306.63099 117.36 
L 306.63099 218.16 
" clip-path="url(#p20ae475525)" style="fill: none; stroke: #bfbf00; stroke-width: 0.5"/>
    <path d="M 306.715758 117.36 
L 306.715758 218.16 
" clip-path="url(#p20ae475525)" style="fill: none; stroke: #bfbf00; stroke-width: 0.5"/>
    <path d="M 306.800525 117.36 
L 306.800525 218.16 
" clip-path="url(#p20ae475525)" style="fill: none; stroke: #bfbf00; stroke-width: 0.5"/>
    <path d="M 306.885293 117.36 
L 306.885293 218.16 
" clip-path="url(#p20ae475525)" style="fill: none; stroke: #bfbf00; stroke-width: 0.5"/>
    <path d="M 306.97006 117.36 
L 306.97006 218.16 
" clip-path="url(#p20ae475525)" style="fill: none; stroke: #bfbf00; stroke-width: 0.5"/>
    <path d="M 307.054828 117.36 
L 307.054828 218.16 
" clip-path="url(#p20ae475525)" style="fill: none; stroke: #bfbf00; stroke-width: 0.5"/>
    <path d="M 307.139595 117.36 
L 307.139595 218.16 
" clip-path="url(#p20ae475525)" style="fill: none; stroke: #bfbf00; stroke-width: 0.5"/>
    <path d="M 307.224363 117.36 
L 307.224363 218.16 
" clip-path="url(#p20ae475525)" style="fill: none; stroke: #bfbf00; stroke-width: 0.5"/>
    <path d="M 307.30913 117.36 
L 307.30913 218.16 
" clip-path="url(#p20ae475525)" style="fill: none; stroke: #bfbf00; stroke-width: 0.5"/>
    <path d="M 307.393897 117.36 
L 307.393897 218.16 
" clip-path="url(#p20ae475525)" style="fill: none; stroke: #bfbf00; stroke-width: 0.5"/>
    <path d="M 307.478665 117.36 
L 307.478665 218.16 
" clip-path="url(#p20ae475525)" style="fill: none; stroke: #bfbf00; stroke-width: 0.5"/>
    <path d="M 307.563432 117.36 
L 307.563432 218.16 
" clip-path="url(#p20ae475525)" style="fill: none; stroke: #bfbf00; stroke-width: 0.5"/>
    <path d="M 307.6482 117.36 
L 307.6482 218.16 
" clip-path="url(#p20ae475525)" style="fill: none; stroke: #bfbf00; stroke-width: 0.5"/>
    <path d="M 307.732967 117.36 
L 307.732967 218.16 
" clip-path="url(#p20ae475525)" style="fill: none; stroke: #bfbf00; stroke-width: 0.5"/>
    <path d="M 307.817735 117.36 
L 307.817735 218.16 
" clip-path="url(#p20ae475525)" style="fill: none; stroke: #bfbf00; stroke-width: 0.5"/>
    <path d="M 307.902502 117.36 
L 307.902502 218.16 
" clip-path="url(#p20ae475525)" style="fill: none; stroke: #bfbf00; stroke-width: 0.5"/>
    <path d="M 307.98727 117.36 
L 307.98727 218.16 
" clip-path="url(#p20ae475525)" style="fill: none; stroke: #bfbf00; stroke-width: 0.5"/>
    <path d="M 308.072037 117.36 
L 308.072037 218.16 
" clip-path="url(#p20ae475525)" style="fill: none; stroke: #bfbf00; stroke-width: 0.5"/>
    <path d="M 308.156805 117.36 
L 308.156805 218.16 
" clip-path="url(#p20ae475525)" style="fill: none; stroke: #bfbf00; stroke-width: 0.5"/>
    <path d="M 308.241572 117.36 
L 308.241572 218.16 
" clip-path="url(#p20ae475525)" style="fill: none; stroke: #bfbf00; stroke-width: 0.5"/>
    <path d="M 308.32634 117.36 
L 308.32634 218.16 
" clip-path="url(#p20ae475525)" style="fill: none; stroke: #bfbf00; stroke-width: 0.5"/>
    <path d="M 319.769947 117.36 
L 319.769947 218.16 
" clip-path="url(#p20ae475525)" style="fill: none; stroke: #bfbf00; stroke-width: 0.5"/>
    <path d="M 319.854715 117.36 
L 319.854715 218.16 
" clip-path="url(#p20ae475525)" style="fill: none; stroke: #bfbf00; stroke-width: 0.5"/>
    <path d="M 319.939482 117.36 
L 319.939482 218.16 
" clip-path="url(#p20ae475525)" style="fill: none; stroke: #bfbf00; stroke-width: 0.5"/>
    <path d="M 320.02425 117.36 
L 320.02425 218.16 
" clip-path="url(#p20ae475525)" style="fill: none; stroke: #bfbf00; stroke-width: 0.5"/>
    <path d="M 320.109017 117.36 
L 320.109017 218.16 
" clip-path="url(#p20ae475525)" style="fill: none; stroke: #bfbf00; stroke-width: 0.5"/>
    <path d="M 320.193785 117.36 
L 320.193785 218.16 
" clip-path="url(#p20ae475525)" style="fill: none; stroke: #bfbf00; stroke-width: 0.5"/>
    <path d="M 337.06251 117.36 
L 337.06251 218.16 
" clip-path="url(#p20ae475525)" style="fill: none; stroke: #bfbf00; stroke-width: 0.5"/>
    <path d="M 337.147278 117.36 
L 337.147278 218.16 
" clip-path="url(#p20ae475525)" style="fill: none; stroke: #bfbf00; stroke-width: 0.5"/>
    <path d="M 337.232045 117.36 
L 337.232045 218.16 
" clip-path="url(#p20ae475525)" style="fill: none; stroke: #bfbf00; stroke-width: 0.5"/>
    <path d="M 337.316812 117.36 
L 337.316812 218.16 
" clip-path="url(#p20ae475525)" style="fill: none; stroke: #bfbf00; stroke-width: 0.5"/>
    <path d="M 337.40158 117.36 
L 337.40158 218.16 
" clip-path="url(#p20ae475525)" style="fill: none; stroke: #bfbf00; stroke-width: 0.5"/>
    <path d="M 361.390772 117.36 
L 361.390772 218.16 
" clip-path="url(#p20ae475525)" style="fill: none; stroke: #bfbf00; stroke-width: 0.5"/>
    <path d="M 361.47554 117.36 
L 361.47554 218.16 
" clip-path="url(#p20ae475525)" style="fill: none; stroke: #bfbf00; stroke-width: 0.5"/>
    <path d="M 361.560307 117.36 
L 361.560307 218.16 
" clip-path="url(#p20ae475525)" style="fill: none; stroke: #bfbf00; stroke-width: 0.5"/>
    <path d="M 361.645075 117.36 
L 361.645075 218.16 
" clip-path="url(#p20ae475525)" style="fill: none; stroke: #bfbf00; stroke-width: 0.5"/>
    <path d="M 361.729842 117.36 
L 361.729842 218.16 
" clip-path="url(#p20ae475525)" style="fill: none; stroke: #bfbf00; stroke-width: 0.5"/>
    <path d="M 380.20915 117.36 
L 380.20915 218.16 
" clip-path="url(#p20ae475525)" style="fill: none; stroke: #bfbf00; stroke-width: 0.5"/>
    <path d="M 380.293917 117.36 
L 380.293917 218.16 
" clip-path="url(#p20ae475525)" style="fill: none; stroke: #bfbf00; stroke-width: 0.5"/>
    <path d="M 380.378684 117.36 
L 380.378684 218.16 
" clip-path="url(#p20ae475525)" style="fill: none; stroke: #bfbf00; stroke-width: 0.5"/>
    <path d="M 380.463452 117.36 
L 380.463452 218.16 
" clip-path="url(#p20ae475525)" style="fill: none; stroke: #bfbf00; stroke-width: 0.5"/>
    <path d="M 380.548219 117.36 
L 380.548219 218.16 
" clip-path="url(#p20ae475525)" style="fill: none; stroke: #bfbf00; stroke-width: 0.5"/>
    <path d="M 380.632987 117.36 
L 380.632987 218.16 
" clip-path="url(#p20ae475525)" style="fill: none; stroke: #bfbf00; stroke-width: 0.5"/>
    <path d="M 380.717754 117.36 
L 380.717754 218.16 
" clip-path="url(#p20ae475525)" style="fill: none; stroke: #bfbf00; stroke-width: 0.5"/>
    <path d="M 380.802522 117.36 
L 380.802522 218.16 
" clip-path="url(#p20ae475525)" style="fill: none; stroke: #bfbf00; stroke-width: 0.5"/>
    <path d="M 380.887289 117.36 
L 380.887289 218.16 
" clip-path="url(#p20ae475525)" style="fill: none; stroke: #bfbf00; stroke-width: 0.5"/>
    <path d="M 380.972057 117.36 
L 380.972057 218.16 
" clip-path="url(#p20ae475525)" style="fill: none; stroke: #bfbf00; stroke-width: 0.5"/>
    <path d="M 381.056824 117.36 
L 381.056824 218.16 
" clip-path="url(#p20ae475525)" style="fill: none; stroke: #bfbf00; stroke-width: 0.5"/>
    <path d="M 381.141592 117.36 
L 381.141592 218.16 
" clip-path="url(#p20ae475525)" style="fill: none; stroke: #bfbf00; stroke-width: 0.5"/>
    <path d="M 434.375559 117.36 
L 434.375559 218.16 
" clip-path="url(#p20ae475525)" style="fill: none; stroke: #bfbf00; stroke-width: 0.5"/>
    <path d="M 434.460327 117.36 
L 434.460327 218.16 
" clip-path="url(#p20ae475525)" style="fill: none; stroke: #bfbf00; stroke-width: 0.5"/>
    <path d="M 434.545094 117.36 
L 434.545094 218.16 
" clip-path="url(#p20ae475525)" style="fill: none; stroke: #bfbf00; stroke-width: 0.5"/>
    <path d="M 434.629862 117.36 
L 434.629862 218.16 
" clip-path="url(#p20ae475525)" style="fill: none; stroke: #bfbf00; stroke-width: 0.5"/>
    <path d="M 434.714629 117.36 
L 434.714629 218.16 
" clip-path="url(#p20ae475525)" style="fill: none; stroke: #bfbf00; stroke-width: 0.5"/>
    <path d="M 434.799397 117.36 
L 434.799397 218.16 
" clip-path="url(#p20ae475525)" style="fill: none; stroke: #bfbf00; stroke-width: 0.5"/>
    <path d="M 434.884164 117.36 
L 434.884164 218.16 
" clip-path="url(#p20ae475525)" style="fill: none; stroke: #bfbf00; stroke-width: 0.5"/>
    <path d="M 434.968932 117.36 
L 434.968932 218.16 
" clip-path="url(#p20ae475525)" style="fill: none; stroke: #bfbf00; stroke-width: 0.5"/>
    <path d="M 435.053699 117.36 
L 435.053699 218.16 
" clip-path="url(#p20ae475525)" style="fill: none; stroke: #bfbf00; stroke-width: 0.5"/>
    <path d="M 435.138467 117.36 
L 435.138467 218.16 
" clip-path="url(#p20ae475525)" style="fill: none; stroke: #bfbf00; stroke-width: 0.5"/>
    <path d="M 435.223234 117.36 
L 435.223234 218.16 
" clip-path="url(#p20ae475525)" style="fill: none; stroke: #bfbf00; stroke-width: 0.5"/>
    <path d="M 435.308001 117.36 
L 435.308001 218.16 
" clip-path="url(#p20ae475525)" style="fill: none; stroke: #bfbf00; stroke-width: 0.5"/>
    <path d="M 435.392769 117.36 
L 435.392769 218.16 
" clip-path="url(#p20ae475525)" style="fill: none; stroke: #bfbf00; stroke-width: 0.5"/>
    <path d="M 435.477536 117.36 
L 435.477536 218.16 
" clip-path="url(#p20ae475525)" style="fill: none; stroke: #bfbf00; stroke-width: 0.5"/>
    <path d="M 435.562304 117.36 
L 435.562304 218.16 
" clip-path="url(#p20ae475525)" style="fill: none; stroke: #bfbf00; stroke-width: 0.5"/>
    <path d="M 435.647071 117.36 
L 435.647071 218.16 
" clip-path="url(#p20ae475525)" style="fill: none; stroke: #bfbf00; stroke-width: 0.5"/>
    <path d="M 435.731839 117.36 
L 435.731839 218.16 
" clip-path="url(#p20ae475525)" style="fill: none; stroke: #bfbf00; stroke-width: 0.5"/>
    <path d="M 513.548371 117.36 
L 513.548371 218.16 
" clip-path="url(#p20ae475525)" style="fill: none; stroke: #bfbf00; stroke-width: 0.5"/>
    <path d="M 513.633139 117.36 
L 513.633139 218.16 
" clip-path="url(#p20ae475525)" style="fill: none; stroke: #bfbf00; stroke-width: 0.5"/>
    <path d="M 513.717906 117.36 
L 513.717906 218.16 
" clip-path="url(#p20ae475525)" style="fill: none; stroke: #bfbf00; stroke-width: 0.5"/>
    <path d="M 513.802674 117.36 
L 513.802674 218.16 
" clip-path="url(#p20ae475525)" style="fill: none; stroke: #bfbf00; stroke-width: 0.5"/>
    <path d="M 513.887441 117.36 
L 513.887441 218.16 
" clip-path="url(#p20ae475525)" style="fill: none; stroke: #bfbf00; stroke-width: 0.5"/>
    <path d="M 513.972209 117.36 
L 513.972209 218.16 
" clip-path="url(#p20ae475525)" style="fill: none; stroke: #bfbf00; stroke-width: 0.5"/>
    <path d="M 514.056976 117.36 
L 514.056976 218.16 
" clip-path="url(#p20ae475525)" style="fill: none; stroke: #bfbf00; stroke-width: 0.5"/>
    <path d="M 514.141744 117.36 
L 514.141744 218.16 
" clip-path="url(#p20ae475525)" style="fill: none; stroke: #bfbf00; stroke-width: 0.5"/>
    <path d="M 514.226511 117.36 
L 514.226511 218.16 
" clip-path="url(#p20ae475525)" style="fill: none; stroke: #bfbf00; stroke-width: 0.5"/>
    <path d="M 514.311278 117.36 
L 514.311278 218.16 
" clip-path="url(#p20ae475525)" style="fill: none; stroke: #bfbf00; stroke-width: 0.5"/>
    <path d="M 514.396046 117.36 
L 514.396046 218.16 
" clip-path="url(#p20ae475525)" style="fill: none; stroke: #bfbf00; stroke-width: 0.5"/>
    <path d="M 514.480813 117.36 
L 514.480813 218.16 
" clip-path="url(#p20ae475525)" style="fill: none; stroke: #bfbf00; stroke-width: 0.5"/>
    <path d="M 560.424779 117.36 
L 560.424779 218.16 
" clip-path="url(#p20ae475525)" style="fill: none; stroke: #bfbf00; stroke-width: 0.5"/>
    <path d="M 560.509547 117.36 
L 560.509547 218.16 
" clip-path="url(#p20ae475525)" style="fill: none; stroke: #bfbf00; stroke-width: 0.5"/>
    <path d="M 560.594314 117.36 
L 560.594314 218.16 
" clip-path="url(#p20ae475525)" style="fill: none; stroke: #bfbf00; stroke-width: 0.5"/>
    <path d="M 691.390512 117.36 
L 691.390512 218.16 
" clip-path="url(#p20ae475525)" style="fill: none; stroke: #bfbf00; stroke-width: 0.5"/>
    <path d="M 691.475279 117.36 
L 691.475279 218.16 
" clip-path="url(#p20ae475525)" style="fill: none; stroke: #bfbf00; stroke-width: 0.5"/>
    <path d="M 691.560047 117.36 
L 691.560047 218.16 
" clip-path="url(#p20ae475525)" style="fill: none; stroke: #bfbf00; stroke-width: 0.5"/>
    <path d="M 729.874941 117.36 
L 729.874941 218.16 
" clip-path="url(#p20ae475525)" style="fill: none; stroke: #bfbf00; stroke-width: 0.5"/>
    <path d="M 729.959708 117.36 
L 729.959708 218.16 
" clip-path="url(#p20ae475525)" style="fill: none; stroke: #bfbf00; stroke-width: 0.5"/>
    <path d="M 730.044476 117.36 
L 730.044476 218.16 
" clip-path="url(#p20ae475525)" style="fill: none; stroke: #bfbf00; stroke-width: 0.5"/>
    <path d="M 730.129243 117.36 
L 730.129243 218.16 
" clip-path="url(#p20ae475525)" style="fill: none; stroke: #bfbf00; stroke-width: 0.5"/>
    <path d="M 730.214011 117.36 
L 730.214011 218.16 
" clip-path="url(#p20ae475525)" style="fill: none; stroke: #bfbf00; stroke-width: 0.5"/>
    <path d="M 730.298778 117.36 
L 730.298778 218.16 
" clip-path="url(#p20ae475525)" style="fill: none; stroke: #bfbf00; stroke-width: 0.5"/>
    <path d="M 730.383546 117.36 
L 730.383546 218.16 
" clip-path="url(#p20ae475525)" style="fill: none; stroke: #bfbf00; stroke-width: 0.5"/>
   </g>
   <g id="patch_3">
    <path d="M 126 384.48 
L 126 51.84 
" style="fill: none; stroke: #000000; stroke-width: 0.8; stroke-linejoin: miter; stroke-linecap: square"/>
   </g>
   <g id="patch_4">
    <path d="M 126 384.48 
L 907.2 384.48 
" style="fill: none; stroke: #000000; stroke-width: 0.8; stroke-linejoin: miter; stroke-linecap: square"/>
   </g>
   <g id="text_10">
    <!-- Mouse: 105; Paradigm: V1_Habituation_Urinright; Date: 240220 -->
    <g transform="translate(325.159688 45.84) scale(0.12 -0.12)">
     <defs>
      <path id="DejaVuSans-4d" d="M 628 4666 
L 1569 4666 
L 2759 1491 
L 3956 4666 
L 4897 4666 
L 4897 0 
L 4281 0 
L 4281 4097 
L 3078 897 
L 2444 897 
L 1241 4097 
L 1241 0 
L 628 0 
L 628 4666 
z
" transform="scale(0.015625)"/>
      <path id="DejaVuSans-6f" d="M 1959 3097 
Q 1497 3097 1228 2736 
Q 959 2375 959 1747 
Q 959 1119 1226 758 
Q 1494 397 1959 397 
Q 2419 397 2687 759 
Q 2956 1122 2956 1747 
Q 2956 2369 2687 2733 
Q 2419 3097 1959 3097 
z
M 1959 3584 
Q 2709 3584 3137 3096 
Q 3566 2609 3566 1747 
Q 3566 888 3137 398 
Q 2709 -91 1959 -91 
Q 1206 -91 779 398 
Q 353 888 353 1747 
Q 353 2609 779 3096 
Q 1206 3584 1959 3584 
z
" transform="scale(0.015625)"/>
      <path id="DejaVuSans-75" d="M 544 1381 
L 544 3500 
L 1119 3500 
L 1119 1403 
Q 1119 906 1312 657 
Q 1506 409 1894 409 
Q 2359 409 2629 706 
Q 2900 1003 2900 1516 
L 2900 3500 
L 3475 3500 
L 3475 0 
L 2900 0 
L 2900 538 
Q 2691 219 2414 64 
Q 2138 -91 1772 -91 
Q 1169 -91 856 284 
Q 544 659 544 1381 
z
M 1991 3584 
L 1991 3584 
z
" transform="scale(0.015625)"/>
      <path id="DejaVuSans-3a" d="M 750 794 
L 1409 794 
L 1409 0 
L 750 0 
L 750 794 
z
M 750 3309 
L 1409 3309 
L 1409 2516 
L 750 2516 
L 750 3309 
z
" transform="scale(0.015625)"/>
      <path id="DejaVuSans-35" d="M 691 4666 
L 3169 4666 
L 3169 4134 
L 1269 4134 
L 1269 2991 
Q 1406 3038 1543 3061 
Q 1681 3084 1819 3084 
Q 2600 3084 3056 2656 
Q 3513 2228 3513 1497 
Q 3513 744 3044 326 
Q 2575 -91 1722 -91 
Q 1428 -91 1123 -41 
Q 819 9 494 109 
L 494 744 
Q 775 591 1075 516 
Q 1375 441 1709 441 
Q 2250 441 2565 725 
Q 2881 1009 2881 1497 
Q 2881 1984 2565 2268 
Q 2250 2553 1709 2553 
Q 1456 2553 1204 2497 
Q 953 2441 691 2322 
L 691 4666 
z
" transform="scale(0.015625)"/>
      <path id="DejaVuSans-3b" d="M 750 3309 
L 1409 3309 
L 1409 2516 
L 750 2516 
L 750 3309 
z
M 750 794 
L 1409 794 
L 1409 256 
L 897 -744 
L 494 -744 
L 750 256 
L 750 794 
z
" transform="scale(0.015625)"/>
      <path id="DejaVuSans-50" d="M 1259 4147 
L 1259 2394 
L 2053 2394 
Q 2494 2394 2734 2622 
Q 2975 2850 2975 3272 
Q 2975 3691 2734 3919 
Q 2494 4147 2053 4147 
L 1259 4147 
z
M 628 4666 
L 2053 4666 
Q 2838 4666 3239 4311 
Q 3641 3956 3641 3272 
Q 3641 2581 3239 2228 
Q 2838 1875 2053 1875 
L 1259 1875 
L 1259 0 
L 628 0 
L 628 4666 
z
" transform="scale(0.015625)"/>
      <path id="DejaVuSans-61" d="M 2194 1759 
Q 1497 1759 1228 1600 
Q 959 1441 959 1056 
Q 959 750 1161 570 
Q 1363 391 1709 391 
Q 2188 391 2477 730 
Q 2766 1069 2766 1631 
L 2766 1759 
L 2194 1759 
z
M 3341 1997 
L 3341 0 
L 2766 0 
L 2766 531 
Q 2569 213 2275 61 
Q 1981 -91 1556 -91 
Q 1019 -91 701 211 
Q 384 513 384 1019 
Q 384 1609 779 1909 
Q 1175 2209 1959 2209 
L 2766 2209 
L 2766 2266 
Q 2766 2663 2505 2880 
Q 2244 3097 1772 3097 
Q 1472 3097 1187 3025 
Q 903 2953 641 2809 
L 641 3341 
Q 956 3463 1253 3523 
Q 1550 3584 1831 3584 
Q 2591 3584 2966 3190 
Q 3341 2797 3341 1997 
z
" transform="scale(0.015625)"/>
      <path id="DejaVuSans-56" d="M 1831 0 
L 50 4666 
L 709 4666 
L 2188 738 
L 3669 4666 
L 4325 4666 
L 2547 0 
L 1831 0 
z
" transform="scale(0.015625)"/>
      <path id="DejaVuSans-5f" d="M 3263 -1063 
L 3263 -1509 
L -63 -1509 
L -63 -1063 
L 3263 -1063 
z
" transform="scale(0.015625)"/>
      <path id="DejaVuSans-48" d="M 628 4666 
L 1259 4666 
L 1259 2753 
L 3553 2753 
L 3553 4666 
L 4184 4666 
L 4184 0 
L 3553 0 
L 3553 2222 
L 1259 2222 
L 1259 0 
L 628 0 
L 628 4666 
z
" transform="scale(0.015625)"/>
      <path id="DejaVuSans-62" d="M 3116 1747 
Q 3116 2381 2855 2742 
Q 2594 3103 2138 3103 
Q 1681 3103 1420 2742 
Q 1159 2381 1159 1747 
Q 1159 1113 1420 752 
Q 1681 391 2138 391 
Q 2594 391 2855 752 
Q 3116 1113 3116 1747 
z
M 1159 2969 
Q 1341 3281 1617 3432 
Q 1894 3584 2278 3584 
Q 2916 3584 3314 3078 
Q 3713 2572 3713 1747 
Q 3713 922 3314 415 
Q 2916 -91 2278 -91 
Q 1894 -91 1617 61 
Q 1341 213 1159 525 
L 1159 0 
L 581 0 
L 581 4863 
L 1159 4863 
L 1159 2969 
z
" transform="scale(0.015625)"/>
      <path id="DejaVuSans-55" d="M 556 4666 
L 1191 4666 
L 1191 1831 
Q 1191 1081 1462 751 
Q 1734 422 2344 422 
Q 2950 422 3222 751 
Q 3494 1081 3494 1831 
L 3494 4666 
L 4128 4666 
L 4128 1753 
Q 4128 841 3676 375 
Q 3225 -91 2344 -91 
Q 1459 -91 1007 375 
Q 556 841 556 1753 
L 556 4666 
z
" transform="scale(0.015625)"/>
      <path id="DejaVuSans-44" d="M 1259 4147 
L 1259 519 
L 2022 519 
Q 2988 519 3436 956 
Q 3884 1394 3884 2338 
Q 3884 3275 3436 3711 
Q 2988 4147 2022 4147 
L 1259 4147 
z
M 628 4666 
L 1925 4666 
Q 3281 4666 3915 4102 
Q 4550 3538 4550 2338 
Q 4550 1131 3912 565 
Q 3275 0 1925 0 
L 628 0 
L 628 4666 
z
" transform="scale(0.015625)"/>
     </defs>
     <use xlink:href="#DejaVuSans-4d"/>
     <use xlink:href="#DejaVuSans-6f" x="86.279297"/>
     <use xlink:href="#DejaVuSans-75" x="147.460938"/>
     <use xlink:href="#DejaVuSans-73" x="210.839844"/>
     <use xlink:href="#DejaVuSans-65" x="262.939453"/>
     <use xlink:href="#DejaVuSans-3a" x="324.462891"/>
     <use xlink:href="#DejaVuSans-20" x="358.154297"/>
     <use xlink:href="#DejaVuSans-31" x="389.941406"/>
     <use xlink:href="#DejaVuSans-30" x="453.564453"/>
     <use xlink:href="#DejaVuSans-35" x="517.1875"/>
     <use xlink:href="#DejaVuSans-3b" x="580.810547"/>
     <use xlink:href="#DejaVuSans-20" x="614.501953"/>
     <use xlink:href="#DejaVuSans-50" x="646.289062"/>
     <use xlink:href="#DejaVuSans-61" x="702.091797"/>
     <use xlink:href="#DejaVuSans-72" x="763.371094"/>
     <use xlink:href="#DejaVuSans-61" x="804.484375"/>
     <use xlink:href="#DejaVuSans-64" x="865.763672"/>
     <use xlink:href="#DejaVuSans-69" x="929.240234"/>
     <use xlink:href="#DejaVuSans-67" x="957.023438"/>
     <use xlink:href="#DejaVuSans-6d" x="1020.5"/>
     <use xlink:href="#DejaVuSans-3a" x="1117.912109"/>
     <use xlink:href="#DejaVuSans-20" x="1151.603516"/>
     <use xlink:href="#DejaVuSans-56" x="1183.390625"/>
     <use xlink:href="#DejaVuSans-31" x="1251.798828"/>
     <use xlink:href="#DejaVuSans-5f" x="1315.421875"/>
     <use xlink:href="#DejaVuSans-48" x="1365.421875"/>
     <use xlink:href="#DejaVuSans-61" x="1440.617188"/>
     <use xlink:href="#DejaVuSans-62" x="1501.896484"/>
     <use xlink:href="#DejaVuSans-69" x="1565.373047"/>
     <use xlink:href="#DejaVuSans-74" x="1593.15625"/>
     <use xlink:href="#DejaVuSans-75" x="1632.365234"/>
     <use xlink:href="#DejaVuSans-61" x="1695.744141"/>
     <use xlink:href="#DejaVuSans-74" x="1757.023438"/>
     <use xlink:href="#DejaVuSans-69" x="1796.232422"/>
     <use xlink:href="#DejaVuSans-6f" x="1824.015625"/>
     <use xlink:href="#DejaVuSans-6e" x="1885.197266"/>
     <use xlink:href="#DejaVuSans-5f" x="1948.576172"/>
     <use xlink:href="#DejaVuSans-55" x="1998.576172"/>
     <use xlink:href="#DejaVuSans-72" x="2071.769531"/>
     <use xlink:href="#DejaVuSans-69" x="2112.882812"/>
     <use xlink:href="#DejaVuSans-6e" x="2140.666016"/>
     <use xlink:href="#DejaVuSans-72" x="2204.044922"/>
     <use xlink:href="#DejaVuSans-69" x="2245.158203"/>
     <use xlink:href="#DejaVuSans-67" x="2272.941406"/>
     <use xlink:href="#DejaVuSans-68" x="2336.417969"/>
     <use xlink:href="#DejaVuSans-74" x="2399.796875"/>
     <use xlink:href="#DejaVuSans-3b" x="2439.005859"/>
     <use xlink:href="#DejaVuSans-20" x="2472.697266"/>
     <use xlink:href="#DejaVuSans-44" x="2504.484375"/>
     <use xlink:href="#DejaVuSans-61" x="2581.486328"/>
     <use xlink:href="#DejaVuSans-74" x="2642.765625"/>
     <use xlink:href="#DejaVuSans-65" x="2681.974609"/>
     <use xlink:href="#DejaVuSans-3a" x="2743.498047"/>
     <use xlink:href="#DejaVuSans-20" x="2777.189453"/>
     <use xlink:href="#DejaVuSans-32" x="2808.976562"/>
     <use xlink:href="#DejaVuSans-34" x="2872.599609"/>
     <use xlink:href="#DejaVuSans-30" x="2936.222656"/>
     <use xlink:href="#DejaVuSans-32" x="2999.845703"/>
     <use xlink:href="#DejaVuSans-32" x="3063.46875"/>
     <use xlink:href="#DejaVuSans-30" x="3127.091797"/>
    </g>
   </g>
  </g>
 </g>
 <defs>
  <clipPath id="p20ae475525">
   <rect x="126" y="51.84" width="781.2" height="332.64"/>
  </clipPath>
 </defs>
</svg>
