<?xml version="1.0" encoding="utf-8" standalone="no"?>
<!DOCTYPE svg PUBLIC "-//W3C//DTD SVG 1.1//EN"
  "http://www.w3.org/Graphics/SVG/1.1/DTD/svg11.dtd">
<svg xmlns:xlink="http://www.w3.org/1999/xlink" width="1008pt" height="432pt" viewBox="0 0 1008 432" xmlns="http://www.w3.org/2000/svg" version="1.1">
 <metadata>
  <rdf:RDF xmlns:dc="http://purl.org/dc/elements/1.1/" xmlns:cc="http://creativecommons.org/ns#" xmlns:rdf="http://www.w3.org/1999/02/22-rdf-syntax-ns#">
   <cc:Work>
    <dc:type rdf:resource="http://purl.org/dc/dcmitype/StillImage"/>
    <dc:date>2024-05-13T10:32:20.580927</dc:date>
    <dc:format>image/svg+xml</dc:format>
    <dc:creator>
     <cc:Agent>
      <dc:title>Matplotlib v3.8.3, https://matplotlib.org/</dc:title>
     </cc:Agent>
    </dc:creator>
   </cc:Work>
  </rdf:RDF>
 </metadata>
 <defs>
  <style type="text/css">*{stroke-linejoin: round; stroke-linecap: butt}</style>
 </defs>
 <g id="figure_1">
  <g id="patch_1">
   <path d="M 0 432 
L 1008 432 
L 1008 0 
L 0 0 
z
" style="fill: #ffffff"/>
  </g>
  <g id="axes_1">
   <g id="patch_2">
    <path d="M 126 384.48 
L 907.2 384.48 
L 907.2 51.84 
L 126 51.84 
z
"/>
   </g>
   <g id="matplotlib.axis_1">
    <g id="xtick_1">
     <g id="line2d_1">
      <defs>
       <path id="m054090f9fc" d="M 0 0 
L 0 3.5 
" style="stroke: #000000; stroke-width: 0.8"/>
      </defs>
      <g>
       <use xlink:href="#m054090f9fc" x="143.356007" y="384.48" style="stroke: #000000; stroke-width: 0.8"/>
      </g>
     </g>
     <g id="text_1">
      <!-- 0 -->
      <g transform="translate(140.174757 399.078438) scale(0.1 -0.1)">
       <defs>
        <path id="DejaVuSans-30" d="M 2034 4250 
Q 1547 4250 1301 3770 
Q 1056 3291 1056 2328 
Q 1056 1369 1301 889 
Q 1547 409 2034 409 
Q 2525 409 2770 889 
Q 3016 1369 3016 2328 
Q 3016 3291 2770 3770 
Q 2525 4250 2034 4250 
z
M 2034 4750 
Q 2819 4750 3233 4129 
Q 3647 3509 3647 2328 
Q 3647 1150 3233 529 
Q 2819 -91 2034 -91 
Q 1250 -91 836 529 
Q 422 1150 422 2328 
Q 422 3509 836 4129 
Q 1250 4750 2034 4750 
z
" transform="scale(0.015625)"/>
       </defs>
       <use xlink:href="#DejaVuSans-30"/>
      </g>
     </g>
    </g>
    <g id="xtick_2">
     <g id="line2d_2">
      <g>
       <use xlink:href="#m054090f9fc" x="309.221749" y="384.48" style="stroke: #000000; stroke-width: 0.8"/>
      </g>
     </g>
     <g id="text_2">
      <!-- 2 -->
      <g transform="translate(306.040499 399.078438) scale(0.1 -0.1)">
       <defs>
        <path id="DejaVuSans-32" d="M 1228 531 
L 3431 531 
L 3431 0 
L 469 0 
L 469 531 
Q 828 903 1448 1529 
Q 2069 2156 2228 2338 
Q 2531 2678 2651 2914 
Q 2772 3150 2772 3378 
Q 2772 3750 2511 3984 
Q 2250 4219 1831 4219 
Q 1534 4219 1204 4116 
Q 875 4013 500 3803 
L 500 4441 
Q 881 4594 1212 4672 
Q 1544 4750 1819 4750 
Q 2544 4750 2975 4387 
Q 3406 4025 3406 3419 
Q 3406 3131 3298 2873 
Q 3191 2616 2906 2266 
Q 2828 2175 2409 1742 
Q 1991 1309 1228 531 
z
" transform="scale(0.015625)"/>
       </defs>
       <use xlink:href="#DejaVuSans-32"/>
      </g>
     </g>
    </g>
    <g id="xtick_3">
     <g id="line2d_3">
      <g>
       <use xlink:href="#m054090f9fc" x="475.087491" y="384.48" style="stroke: #000000; stroke-width: 0.8"/>
      </g>
     </g>
     <g id="text_3">
      <!-- 4 -->
      <g transform="translate(471.906241 399.078438) scale(0.1 -0.1)">
       <defs>
        <path id="DejaVuSans-34" d="M 2419 4116 
L 825 1625 
L 2419 1625 
L 2419 4116 
z
M 2253 4666 
L 3047 4666 
L 3047 1625 
L 3713 1625 
L 3713 1100 
L 3047 1100 
L 3047 0 
L 2419 0 
L 2419 1100 
L 313 1100 
L 313 1709 
L 2253 4666 
z
" transform="scale(0.015625)"/>
       </defs>
       <use xlink:href="#DejaVuSans-34"/>
      </g>
     </g>
    </g>
    <g id="xtick_4">
     <g id="line2d_4">
      <g>
       <use xlink:href="#m054090f9fc" x="640.953233" y="384.48" style="stroke: #000000; stroke-width: 0.8"/>
      </g>
     </g>
     <g id="text_4">
      <!-- 6 -->
      <g transform="translate(637.771983 399.078438) scale(0.1 -0.1)">
       <defs>
        <path id="DejaVuSans-36" d="M 2113 2584 
Q 1688 2584 1439 2293 
Q 1191 2003 1191 1497 
Q 1191 994 1439 701 
Q 1688 409 2113 409 
Q 2538 409 2786 701 
Q 3034 994 3034 1497 
Q 3034 2003 2786 2293 
Q 2538 2584 2113 2584 
z
M 3366 4563 
L 3366 3988 
Q 3128 4100 2886 4159 
Q 2644 4219 2406 4219 
Q 1781 4219 1451 3797 
Q 1122 3375 1075 2522 
Q 1259 2794 1537 2939 
Q 1816 3084 2150 3084 
Q 2853 3084 3261 2657 
Q 3669 2231 3669 1497 
Q 3669 778 3244 343 
Q 2819 -91 2113 -91 
Q 1303 -91 875 529 
Q 447 1150 447 2328 
Q 447 3434 972 4092 
Q 1497 4750 2381 4750 
Q 2619 4750 2861 4703 
Q 3103 4656 3366 4563 
z
" transform="scale(0.015625)"/>
       </defs>
       <use xlink:href="#DejaVuSans-36"/>
      </g>
     </g>
    </g>
    <g id="xtick_5">
     <g id="line2d_5">
      <g>
       <use xlink:href="#m054090f9fc" x="806.818974" y="384.48" style="stroke: #000000; stroke-width: 0.8"/>
      </g>
     </g>
     <g id="text_5">
      <!-- 8 -->
      <g transform="translate(803.637724 399.078438) scale(0.1 -0.1)">
       <defs>
        <path id="DejaVuSans-38" d="M 2034 2216 
Q 1584 2216 1326 1975 
Q 1069 1734 1069 1313 
Q 1069 891 1326 650 
Q 1584 409 2034 409 
Q 2484 409 2743 651 
Q 3003 894 3003 1313 
Q 3003 1734 2745 1975 
Q 2488 2216 2034 2216 
z
M 1403 2484 
Q 997 2584 770 2862 
Q 544 3141 544 3541 
Q 544 4100 942 4425 
Q 1341 4750 2034 4750 
Q 2731 4750 3128 4425 
Q 3525 4100 3525 3541 
Q 3525 3141 3298 2862 
Q 3072 2584 2669 2484 
Q 3125 2378 3379 2068 
Q 3634 1759 3634 1313 
Q 3634 634 3220 271 
Q 2806 -91 2034 -91 
Q 1263 -91 848 271 
Q 434 634 434 1313 
Q 434 1759 690 2068 
Q 947 2378 1403 2484 
z
M 1172 3481 
Q 1172 3119 1398 2916 
Q 1625 2713 2034 2713 
Q 2441 2713 2670 2916 
Q 2900 3119 2900 3481 
Q 2900 3844 2670 4047 
Q 2441 4250 2034 4250 
Q 1625 4250 1398 4047 
Q 1172 3844 1172 3481 
z
" transform="scale(0.015625)"/>
       </defs>
       <use xlink:href="#DejaVuSans-38"/>
      </g>
     </g>
    </g>
    <g id="text_6">
     <!-- Experiment length [min] -->
     <g transform="translate(455.264844 412.756563) scale(0.1 -0.1)">
      <defs>
       <path id="DejaVuSans-45" d="M 628 4666 
L 3578 4666 
L 3578 4134 
L 1259 4134 
L 1259 2753 
L 3481 2753 
L 3481 2222 
L 1259 2222 
L 1259 531 
L 3634 531 
L 3634 0 
L 628 0 
L 628 4666 
z
" transform="scale(0.015625)"/>
       <path id="DejaVuSans-78" d="M 3513 3500 
L 2247 1797 
L 3578 0 
L 2900 0 
L 1881 1375 
L 863 0 
L 184 0 
L 1544 1831 
L 300 3500 
L 978 3500 
L 1906 2253 
L 2834 3500 
L 3513 3500 
z
" transform="scale(0.015625)"/>
       <path id="DejaVuSans-70" d="M 1159 525 
L 1159 -1331 
L 581 -1331 
L 581 3500 
L 1159 3500 
L 1159 2969 
Q 1341 3281 1617 3432 
Q 1894 3584 2278 3584 
Q 2916 3584 3314 3078 
Q 3713 2572 3713 1747 
Q 3713 922 3314 415 
Q 2916 -91 2278 -91 
Q 1894 -91 1617 61 
Q 1341 213 1159 525 
z
M 3116 1747 
Q 3116 2381 2855 2742 
Q 2594 3103 2138 3103 
Q 1681 3103 1420 2742 
Q 1159 2381 1159 1747 
Q 1159 1113 1420 752 
Q 1681 391 2138 391 
Q 2594 391 2855 752 
Q 3116 1113 3116 1747 
z
" transform="scale(0.015625)"/>
       <path id="DejaVuSans-65" d="M 3597 1894 
L 3597 1613 
L 953 1613 
Q 991 1019 1311 708 
Q 1631 397 2203 397 
Q 2534 397 2845 478 
Q 3156 559 3463 722 
L 3463 178 
Q 3153 47 2828 -22 
Q 2503 -91 2169 -91 
Q 1331 -91 842 396 
Q 353 884 353 1716 
Q 353 2575 817 3079 
Q 1281 3584 2069 3584 
Q 2775 3584 3186 3129 
Q 3597 2675 3597 1894 
z
M 3022 2063 
Q 3016 2534 2758 2815 
Q 2500 3097 2075 3097 
Q 1594 3097 1305 2825 
Q 1016 2553 972 2059 
L 3022 2063 
z
" transform="scale(0.015625)"/>
       <path id="DejaVuSans-72" d="M 2631 2963 
Q 2534 3019 2420 3045 
Q 2306 3072 2169 3072 
Q 1681 3072 1420 2755 
Q 1159 2438 1159 1844 
L 1159 0 
L 581 0 
L 581 3500 
L 1159 3500 
L 1159 2956 
Q 1341 3275 1631 3429 
Q 1922 3584 2338 3584 
Q 2397 3584 2469 3576 
Q 2541 3569 2628 3553 
L 2631 2963 
z
" transform="scale(0.015625)"/>
       <path id="DejaVuSans-69" d="M 603 3500 
L 1178 3500 
L 1178 0 
L 603 0 
L 603 3500 
z
M 603 4863 
L 1178 4863 
L 1178 4134 
L 603 4134 
L 603 4863 
z
" transform="scale(0.015625)"/>
       <path id="DejaVuSans-6d" d="M 3328 2828 
Q 3544 3216 3844 3400 
Q 4144 3584 4550 3584 
Q 5097 3584 5394 3201 
Q 5691 2819 5691 2113 
L 5691 0 
L 5113 0 
L 5113 2094 
Q 5113 2597 4934 2840 
Q 4756 3084 4391 3084 
Q 3944 3084 3684 2787 
Q 3425 2491 3425 1978 
L 3425 0 
L 2847 0 
L 2847 2094 
Q 2847 2600 2669 2842 
Q 2491 3084 2119 3084 
Q 1678 3084 1418 2786 
Q 1159 2488 1159 1978 
L 1159 0 
L 581 0 
L 581 3500 
L 1159 3500 
L 1159 2956 
Q 1356 3278 1631 3431 
Q 1906 3584 2284 3584 
Q 2666 3584 2933 3390 
Q 3200 3197 3328 2828 
z
" transform="scale(0.015625)"/>
       <path id="DejaVuSans-6e" d="M 3513 2113 
L 3513 0 
L 2938 0 
L 2938 2094 
Q 2938 2591 2744 2837 
Q 2550 3084 2163 3084 
Q 1697 3084 1428 2787 
Q 1159 2491 1159 1978 
L 1159 0 
L 581 0 
L 581 3500 
L 1159 3500 
L 1159 2956 
Q 1366 3272 1645 3428 
Q 1925 3584 2291 3584 
Q 2894 3584 3203 3211 
Q 3513 2838 3513 2113 
z
" transform="scale(0.015625)"/>
       <path id="DejaVuSans-74" d="M 1172 4494 
L 1172 3500 
L 2356 3500 
L 2356 3053 
L 1172 3053 
L 1172 1153 
Q 1172 725 1289 603 
Q 1406 481 1766 481 
L 2356 481 
L 2356 0 
L 1766 0 
Q 1100 0 847 248 
Q 594 497 594 1153 
L 594 3053 
L 172 3053 
L 172 3500 
L 594 3500 
L 594 4494 
L 1172 4494 
z
" transform="scale(0.015625)"/>
       <path id="DejaVuSans-20" transform="scale(0.015625)"/>
       <path id="DejaVuSans-6c" d="M 603 4863 
L 1178 4863 
L 1178 0 
L 603 0 
L 603 4863 
z
" transform="scale(0.015625)"/>
       <path id="DejaVuSans-67" d="M 2906 1791 
Q 2906 2416 2648 2759 
Q 2391 3103 1925 3103 
Q 1463 3103 1205 2759 
Q 947 2416 947 1791 
Q 947 1169 1205 825 
Q 1463 481 1925 481 
Q 2391 481 2648 825 
Q 2906 1169 2906 1791 
z
M 3481 434 
Q 3481 -459 3084 -895 
Q 2688 -1331 1869 -1331 
Q 1566 -1331 1297 -1286 
Q 1028 -1241 775 -1147 
L 775 -588 
Q 1028 -725 1275 -790 
Q 1522 -856 1778 -856 
Q 2344 -856 2625 -561 
Q 2906 -266 2906 331 
L 2906 616 
Q 2728 306 2450 153 
Q 2172 0 1784 0 
Q 1141 0 747 490 
Q 353 981 353 1791 
Q 353 2603 747 3093 
Q 1141 3584 1784 3584 
Q 2172 3584 2450 3431 
Q 2728 3278 2906 2969 
L 2906 3500 
L 3481 3500 
L 3481 434 
z
" transform="scale(0.015625)"/>
       <path id="DejaVuSans-68" d="M 3513 2113 
L 3513 0 
L 2938 0 
L 2938 2094 
Q 2938 2591 2744 2837 
Q 2550 3084 2163 3084 
Q 1697 3084 1428 2787 
Q 1159 2491 1159 1978 
L 1159 0 
L 581 0 
L 581 4863 
L 1159 4863 
L 1159 2956 
Q 1366 3272 1645 3428 
Q 1925 3584 2291 3584 
Q 2894 3584 3203 3211 
Q 3513 2838 3513 2113 
z
" transform="scale(0.015625)"/>
       <path id="DejaVuSans-5b" d="M 550 4863 
L 1875 4863 
L 1875 4416 
L 1125 4416 
L 1125 -397 
L 1875 -397 
L 1875 -844 
L 550 -844 
L 550 4863 
z
" transform="scale(0.015625)"/>
       <path id="DejaVuSans-5d" d="M 1947 4863 
L 1947 -844 
L 622 -844 
L 622 -397 
L 1369 -397 
L 1369 4416 
L 622 4416 
L 622 4863 
L 1947 4863 
z
" transform="scale(0.015625)"/>
      </defs>
      <use xlink:href="#DejaVuSans-45"/>
      <use xlink:href="#DejaVuSans-78" x="63.183594"/>
      <use xlink:href="#DejaVuSans-70" x="122.363281"/>
      <use xlink:href="#DejaVuSans-65" x="185.839844"/>
      <use xlink:href="#DejaVuSans-72" x="247.363281"/>
      <use xlink:href="#DejaVuSans-69" x="288.476562"/>
      <use xlink:href="#DejaVuSans-6d" x="316.259766"/>
      <use xlink:href="#DejaVuSans-65" x="413.671875"/>
      <use xlink:href="#DejaVuSans-6e" x="475.195312"/>
      <use xlink:href="#DejaVuSans-74" x="538.574219"/>
      <use xlink:href="#DejaVuSans-20" x="577.783203"/>
      <use xlink:href="#DejaVuSans-6c" x="609.570312"/>
      <use xlink:href="#DejaVuSans-65" x="637.353516"/>
      <use xlink:href="#DejaVuSans-6e" x="698.876953"/>
      <use xlink:href="#DejaVuSans-67" x="762.255859"/>
      <use xlink:href="#DejaVuSans-74" x="825.732422"/>
      <use xlink:href="#DejaVuSans-68" x="864.941406"/>
      <use xlink:href="#DejaVuSans-20" x="928.320312"/>
      <use xlink:href="#DejaVuSans-5b" x="960.107422"/>
      <use xlink:href="#DejaVuSans-6d" x="999.121094"/>
      <use xlink:href="#DejaVuSans-69" x="1096.533203"/>
      <use xlink:href="#DejaVuSans-6e" x="1124.316406"/>
      <use xlink:href="#DejaVuSans-5d" x="1187.695312"/>
     </g>
    </g>
   </g>
   <g id="matplotlib.axis_2">
    <g id="ytick_1">
     <g id="line2d_6">
      <defs>
       <path id="m066e0c653d" d="M 0 0 
L -3.5 0 
" style="stroke: #000000; stroke-width: 0.8"/>
      </defs>
      <g>
       <use xlink:href="#m066e0c653d" x="126" y="268.56" style="stroke: #000000; stroke-width: 0.8"/>
      </g>
     </g>
     <g id="text_7">
      <!-- deg sniff left dish -->
      <g transform="translate(32.379687 272.359219) scale(0.1 -0.1)">
       <defs>
        <path id="DejaVuSans-64" d="M 2906 2969 
L 2906 4863 
L 3481 4863 
L 3481 0 
L 2906 0 
L 2906 525 
Q 2725 213 2448 61 
Q 2172 -91 1784 -91 
Q 1150 -91 751 415 
Q 353 922 353 1747 
Q 353 2572 751 3078 
Q 1150 3584 1784 3584 
Q 2172 3584 2448 3432 
Q 2725 3281 2906 2969 
z
M 947 1747 
Q 947 1113 1208 752 
Q 1469 391 1925 391 
Q 2381 391 2643 752 
Q 2906 1113 2906 1747 
Q 2906 2381 2643 2742 
Q 2381 3103 1925 3103 
Q 1469 3103 1208 2742 
Q 947 2381 947 1747 
z
" transform="scale(0.015625)"/>
        <path id="DejaVuSans-73" d="M 2834 3397 
L 2834 2853 
Q 2591 2978 2328 3040 
Q 2066 3103 1784 3103 
Q 1356 3103 1142 2972 
Q 928 2841 928 2578 
Q 928 2378 1081 2264 
Q 1234 2150 1697 2047 
L 1894 2003 
Q 2506 1872 2764 1633 
Q 3022 1394 3022 966 
Q 3022 478 2636 193 
Q 2250 -91 1575 -91 
Q 1294 -91 989 -36 
Q 684 19 347 128 
L 347 722 
Q 666 556 975 473 
Q 1284 391 1588 391 
Q 1994 391 2212 530 
Q 2431 669 2431 922 
Q 2431 1156 2273 1281 
Q 2116 1406 1581 1522 
L 1381 1569 
Q 847 1681 609 1914 
Q 372 2147 372 2553 
Q 372 3047 722 3315 
Q 1072 3584 1716 3584 
Q 2034 3584 2315 3537 
Q 2597 3491 2834 3397 
z
" transform="scale(0.015625)"/>
        <path id="DejaVuSans-66" d="M 2375 4863 
L 2375 4384 
L 1825 4384 
Q 1516 4384 1395 4259 
Q 1275 4134 1275 3809 
L 1275 3500 
L 2222 3500 
L 2222 3053 
L 1275 3053 
L 1275 0 
L 697 0 
L 697 3053 
L 147 3053 
L 147 3500 
L 697 3500 
L 697 3744 
Q 697 4328 969 4595 
Q 1241 4863 1831 4863 
L 2375 4863 
z
" transform="scale(0.015625)"/>
       </defs>
       <use xlink:href="#DejaVuSans-64"/>
       <use xlink:href="#DejaVuSans-65" x="63.476562"/>
       <use xlink:href="#DejaVuSans-67" x="125"/>
       <use xlink:href="#DejaVuSans-20" x="188.476562"/>
       <use xlink:href="#DejaVuSans-73" x="220.263672"/>
       <use xlink:href="#DejaVuSans-6e" x="272.363281"/>
       <use xlink:href="#DejaVuSans-69" x="335.742188"/>
       <use xlink:href="#DejaVuSans-66" x="363.525391"/>
       <use xlink:href="#DejaVuSans-66" x="398.730469"/>
       <use xlink:href="#DejaVuSans-20" x="433.935547"/>
       <use xlink:href="#DejaVuSans-6c" x="465.722656"/>
       <use xlink:href="#DejaVuSans-65" x="493.505859"/>
       <use xlink:href="#DejaVuSans-66" x="555.029297"/>
       <use xlink:href="#DejaVuSans-74" x="588.484375"/>
       <use xlink:href="#DejaVuSans-20" x="627.693359"/>
       <use xlink:href="#DejaVuSans-64" x="659.480469"/>
       <use xlink:href="#DejaVuSans-69" x="722.957031"/>
       <use xlink:href="#DejaVuSans-73" x="750.740234"/>
       <use xlink:href="#DejaVuSans-68" x="802.839844"/>
      </g>
     </g>
    </g>
    <g id="ytick_2">
     <g id="line2d_7">
      <g>
       <use xlink:href="#m066e0c653d" x="126" y="167.76" style="stroke: #000000; stroke-width: 0.8"/>
      </g>
     </g>
     <g id="text_8">
      <!-- deg sniff right dish -->
      <g transform="translate(25.08125 171.559219) scale(0.1 -0.1)">
       <use xlink:href="#DejaVuSans-64"/>
       <use xlink:href="#DejaVuSans-65" x="63.476562"/>
       <use xlink:href="#DejaVuSans-67" x="125"/>
       <use xlink:href="#DejaVuSans-20" x="188.476562"/>
       <use xlink:href="#DejaVuSans-73" x="220.263672"/>
       <use xlink:href="#DejaVuSans-6e" x="272.363281"/>
       <use xlink:href="#DejaVuSans-69" x="335.742188"/>
       <use xlink:href="#DejaVuSans-66" x="363.525391"/>
       <use xlink:href="#DejaVuSans-66" x="398.730469"/>
       <use xlink:href="#DejaVuSans-20" x="433.935547"/>
       <use xlink:href="#DejaVuSans-72" x="465.722656"/>
       <use xlink:href="#DejaVuSans-69" x="506.835938"/>
       <use xlink:href="#DejaVuSans-67" x="534.619141"/>
       <use xlink:href="#DejaVuSans-68" x="598.095703"/>
       <use xlink:href="#DejaVuSans-74" x="661.474609"/>
       <use xlink:href="#DejaVuSans-20" x="700.683594"/>
       <use xlink:href="#DejaVuSans-64" x="732.470703"/>
       <use xlink:href="#DejaVuSans-69" x="795.947266"/>
       <use xlink:href="#DejaVuSans-73" x="823.730469"/>
       <use xlink:href="#DejaVuSans-68" x="875.830078"/>
      </g>
     </g>
    </g>
   </g>
   <g id="EventCollection_1">
    <path d="M 161.509091 218.16 
L 161.509091 318.96 
" clip-path="url(#pa178d3d4a7)" style="fill: none; stroke: #bf00bf; stroke-width: 0.5"/>
    <path d="M 161.601239 218.16 
L 161.601239 318.96 
" clip-path="url(#pa178d3d4a7)" style="fill: none; stroke: #bf00bf; stroke-width: 0.5"/>
    <path d="M 161.693386 218.16 
L 161.693386 318.96 
" clip-path="url(#pa178d3d4a7)" style="fill: none; stroke: #bf00bf; stroke-width: 0.5"/>
    <path d="M 161.785534 218.16 
L 161.785534 318.96 
" clip-path="url(#pa178d3d4a7)" style="fill: none; stroke: #bf00bf; stroke-width: 0.5"/>
    <path d="M 161.877681 218.16 
L 161.877681 318.96 
" clip-path="url(#pa178d3d4a7)" style="fill: none; stroke: #bf00bf; stroke-width: 0.5"/>
    <path d="M 166.853654 218.16 
L 166.853654 318.96 
" clip-path="url(#pa178d3d4a7)" style="fill: none; stroke: #bf00bf; stroke-width: 0.5"/>
    <path d="M 166.945801 218.16 
L 166.945801 318.96 
" clip-path="url(#pa178d3d4a7)" style="fill: none; stroke: #bf00bf; stroke-width: 0.5"/>
    <path d="M 167.037949 218.16 
L 167.037949 318.96 
" clip-path="url(#pa178d3d4a7)" style="fill: none; stroke: #bf00bf; stroke-width: 0.5"/>
    <path d="M 167.130097 218.16 
L 167.130097 318.96 
" clip-path="url(#pa178d3d4a7)" style="fill: none; stroke: #bf00bf; stroke-width: 0.5"/>
    <path d="M 405.79247 218.16 
L 405.79247 318.96 
" clip-path="url(#pa178d3d4a7)" style="fill: none; stroke: #bf00bf; stroke-width: 0.5"/>
    <path d="M 405.884617 218.16 
L 405.884617 318.96 
" clip-path="url(#pa178d3d4a7)" style="fill: none; stroke: #bf00bf; stroke-width: 0.5"/>
    <path d="M 405.976765 218.16 
L 405.976765 318.96 
" clip-path="url(#pa178d3d4a7)" style="fill: none; stroke: #bf00bf; stroke-width: 0.5"/>
    <path d="M 452.14273 218.16 
L 452.14273 318.96 
" clip-path="url(#pa178d3d4a7)" style="fill: none; stroke: #bf00bf; stroke-width: 0.5"/>
    <path d="M 452.234877 218.16 
L 452.234877 318.96 
" clip-path="url(#pa178d3d4a7)" style="fill: none; stroke: #bf00bf; stroke-width: 0.5"/>
    <path d="M 452.327025 218.16 
L 452.327025 318.96 
" clip-path="url(#pa178d3d4a7)" style="fill: none; stroke: #bf00bf; stroke-width: 0.5"/>
    <path d="M 452.419173 218.16 
L 452.419173 318.96 
" clip-path="url(#pa178d3d4a7)" style="fill: none; stroke: #bf00bf; stroke-width: 0.5"/>
    <path d="M 452.51132 218.16 
L 452.51132 318.96 
" clip-path="url(#pa178d3d4a7)" style="fill: none; stroke: #bf00bf; stroke-width: 0.5"/>
    <path d="M 526.505871 218.16 
L 526.505871 318.96 
" clip-path="url(#pa178d3d4a7)" style="fill: none; stroke: #bf00bf; stroke-width: 0.5"/>
    <path d="M 526.598018 218.16 
L 526.598018 318.96 
" clip-path="url(#pa178d3d4a7)" style="fill: none; stroke: #bf00bf; stroke-width: 0.5"/>
    <path d="M 526.690166 218.16 
L 526.690166 318.96 
" clip-path="url(#pa178d3d4a7)" style="fill: none; stroke: #bf00bf; stroke-width: 0.5"/>
    <path d="M 526.782314 218.16 
L 526.782314 318.96 
" clip-path="url(#pa178d3d4a7)" style="fill: none; stroke: #bf00bf; stroke-width: 0.5"/>
    <path d="M 526.874461 218.16 
L 526.874461 318.96 
" clip-path="url(#pa178d3d4a7)" style="fill: none; stroke: #bf00bf; stroke-width: 0.5"/>
    <path d="M 526.966609 218.16 
L 526.966609 318.96 
" clip-path="url(#pa178d3d4a7)" style="fill: none; stroke: #bf00bf; stroke-width: 0.5"/>
    <path d="M 527.058757 218.16 
L 527.058757 318.96 
" clip-path="url(#pa178d3d4a7)" style="fill: none; stroke: #bf00bf; stroke-width: 0.5"/>
    <path d="M 527.150904 218.16 
L 527.150904 318.96 
" clip-path="url(#pa178d3d4a7)" style="fill: none; stroke: #bf00bf; stroke-width: 0.5"/>
    <path d="M 527.243052 218.16 
L 527.243052 318.96 
" clip-path="url(#pa178d3d4a7)" style="fill: none; stroke: #bf00bf; stroke-width: 0.5"/>
    <path d="M 527.335199 218.16 
L 527.335199 318.96 
" clip-path="url(#pa178d3d4a7)" style="fill: none; stroke: #bf00bf; stroke-width: 0.5"/>
    <path d="M 527.427347 218.16 
L 527.427347 318.96 
" clip-path="url(#pa178d3d4a7)" style="fill: none; stroke: #bf00bf; stroke-width: 0.5"/>
    <path d="M 527.519495 218.16 
L 527.519495 318.96 
" clip-path="url(#pa178d3d4a7)" style="fill: none; stroke: #bf00bf; stroke-width: 0.5"/>
    <path d="M 527.611642 218.16 
L 527.611642 318.96 
" clip-path="url(#pa178d3d4a7)" style="fill: none; stroke: #bf00bf; stroke-width: 0.5"/>
    <path d="M 527.70379 218.16 
L 527.70379 318.96 
" clip-path="url(#pa178d3d4a7)" style="fill: none; stroke: #bf00bf; stroke-width: 0.5"/>
    <path d="M 527.795938 218.16 
L 527.795938 318.96 
" clip-path="url(#pa178d3d4a7)" style="fill: none; stroke: #bf00bf; stroke-width: 0.5"/>
    <path d="M 527.888085 218.16 
L 527.888085 318.96 
" clip-path="url(#pa178d3d4a7)" style="fill: none; stroke: #bf00bf; stroke-width: 0.5"/>
    <path d="M 527.980233 218.16 
L 527.980233 318.96 
" clip-path="url(#pa178d3d4a7)" style="fill: none; stroke: #bf00bf; stroke-width: 0.5"/>
    <path d="M 528.07238 218.16 
L 528.07238 318.96 
" clip-path="url(#pa178d3d4a7)" style="fill: none; stroke: #bf00bf; stroke-width: 0.5"/>
    <path d="M 599.76324 218.16 
L 599.76324 318.96 
" clip-path="url(#pa178d3d4a7)" style="fill: none; stroke: #bf00bf; stroke-width: 0.5"/>
    <path d="M 599.855388 218.16 
L 599.855388 318.96 
" clip-path="url(#pa178d3d4a7)" style="fill: none; stroke: #bf00bf; stroke-width: 0.5"/>
    <path d="M 599.947535 218.16 
L 599.947535 318.96 
" clip-path="url(#pa178d3d4a7)" style="fill: none; stroke: #bf00bf; stroke-width: 0.5"/>
    <path d="M 600.039683 218.16 
L 600.039683 318.96 
" clip-path="url(#pa178d3d4a7)" style="fill: none; stroke: #bf00bf; stroke-width: 0.5"/>
    <path d="M 600.131831 218.16 
L 600.131831 318.96 
" clip-path="url(#pa178d3d4a7)" style="fill: none; stroke: #bf00bf; stroke-width: 0.5"/>
    <path d="M 600.223978 218.16 
L 600.223978 318.96 
" clip-path="url(#pa178d3d4a7)" style="fill: none; stroke: #bf00bf; stroke-width: 0.5"/>
    <path d="M 711.814763 218.16 
L 711.814763 318.96 
" clip-path="url(#pa178d3d4a7)" style="fill: none; stroke: #bf00bf; stroke-width: 0.5"/>
    <path d="M 711.906911 218.16 
L 711.906911 318.96 
" clip-path="url(#pa178d3d4a7)" style="fill: none; stroke: #bf00bf; stroke-width: 0.5"/>
    <path d="M 711.999059 218.16 
L 711.999059 318.96 
" clip-path="url(#pa178d3d4a7)" style="fill: none; stroke: #bf00bf; stroke-width: 0.5"/>
    <path d="M 712.091206 218.16 
L 712.091206 318.96 
" clip-path="url(#pa178d3d4a7)" style="fill: none; stroke: #bf00bf; stroke-width: 0.5"/>
    <path d="M 712.183354 218.16 
L 712.183354 318.96 
" clip-path="url(#pa178d3d4a7)" style="fill: none; stroke: #bf00bf; stroke-width: 0.5"/>
    <path d="M 712.275502 218.16 
L 712.275502 318.96 
" clip-path="url(#pa178d3d4a7)" style="fill: none; stroke: #bf00bf; stroke-width: 0.5"/>
    <path d="M 712.367649 218.16 
L 712.367649 318.96 
" clip-path="url(#pa178d3d4a7)" style="fill: none; stroke: #bf00bf; stroke-width: 0.5"/>
    <path d="M 712.459797 218.16 
L 712.459797 318.96 
" clip-path="url(#pa178d3d4a7)" style="fill: none; stroke: #bf00bf; stroke-width: 0.5"/>
    <path d="M 796.406292 218.16 
L 796.406292 318.96 
" clip-path="url(#pa178d3d4a7)" style="fill: none; stroke: #bf00bf; stroke-width: 0.5"/>
    <path d="M 796.498439 218.16 
L 796.498439 318.96 
" clip-path="url(#pa178d3d4a7)" style="fill: none; stroke: #bf00bf; stroke-width: 0.5"/>
    <path d="M 796.590587 218.16 
L 796.590587 318.96 
" clip-path="url(#pa178d3d4a7)" style="fill: none; stroke: #bf00bf; stroke-width: 0.5"/>
    <path d="M 796.682735 218.16 
L 796.682735 318.96 
" clip-path="url(#pa178d3d4a7)" style="fill: none; stroke: #bf00bf; stroke-width: 0.5"/>
    <path d="M 796.774882 218.16 
L 796.774882 318.96 
" clip-path="url(#pa178d3d4a7)" style="fill: none; stroke: #bf00bf; stroke-width: 0.5"/>
    <path d="M 796.86703 218.16 
L 796.86703 318.96 
" clip-path="url(#pa178d3d4a7)" style="fill: none; stroke: #bf00bf; stroke-width: 0.5"/>
    <path d="M 796.959178 218.16 
L 796.959178 318.96 
" clip-path="url(#pa178d3d4a7)" style="fill: none; stroke: #bf00bf; stroke-width: 0.5"/>
    <path d="M 797.051325 218.16 
L 797.051325 318.96 
" clip-path="url(#pa178d3d4a7)" style="fill: none; stroke: #bf00bf; stroke-width: 0.5"/>
    <path d="M 797.143473 218.16 
L 797.143473 318.96 
" clip-path="url(#pa178d3d4a7)" style="fill: none; stroke: #bf00bf; stroke-width: 0.5"/>
    <path d="M 797.235621 218.16 
L 797.235621 318.96 
" clip-path="url(#pa178d3d4a7)" style="fill: none; stroke: #bf00bf; stroke-width: 0.5"/>
    <path d="M 797.327768 218.16 
L 797.327768 318.96 
" clip-path="url(#pa178d3d4a7)" style="fill: none; stroke: #bf00bf; stroke-width: 0.5"/>
    <path d="M 797.419916 218.16 
L 797.419916 318.96 
" clip-path="url(#pa178d3d4a7)" style="fill: none; stroke: #bf00bf; stroke-width: 0.5"/>
    <path d="M 797.512063 218.16 
L 797.512063 318.96 
" clip-path="url(#pa178d3d4a7)" style="fill: none; stroke: #bf00bf; stroke-width: 0.5"/>
    <path d="M 797.604211 218.16 
L 797.604211 318.96 
" clip-path="url(#pa178d3d4a7)" style="fill: none; stroke: #bf00bf; stroke-width: 0.5"/>
    <path d="M 797.696359 218.16 
L 797.696359 318.96 
" clip-path="url(#pa178d3d4a7)" style="fill: none; stroke: #bf00bf; stroke-width: 0.5"/>
    <path d="M 835.108298 218.16 
L 835.108298 318.96 
" clip-path="url(#pa178d3d4a7)" style="fill: none; stroke: #bf00bf; stroke-width: 0.5"/>
    <path d="M 835.200446 218.16 
L 835.200446 318.96 
" clip-path="url(#pa178d3d4a7)" style="fill: none; stroke: #bf00bf; stroke-width: 0.5"/>
    <path d="M 835.292594 218.16 
L 835.292594 318.96 
" clip-path="url(#pa178d3d4a7)" style="fill: none; stroke: #bf00bf; stroke-width: 0.5"/>
    <path d="M 835.384741 218.16 
L 835.384741 318.96 
" clip-path="url(#pa178d3d4a7)" style="fill: none; stroke: #bf00bf; stroke-width: 0.5"/>
    <path d="M 846.995343 218.16 
L 846.995343 318.96 
" clip-path="url(#pa178d3d4a7)" style="fill: none; stroke: #bf00bf; stroke-width: 0.5"/>
    <path d="M 847.087491 218.16 
L 847.087491 318.96 
" clip-path="url(#pa178d3d4a7)" style="fill: none; stroke: #bf00bf; stroke-width: 0.5"/>
    <path d="M 847.179638 218.16 
L 847.179638 318.96 
" clip-path="url(#pa178d3d4a7)" style="fill: none; stroke: #bf00bf; stroke-width: 0.5"/>
    <path d="M 847.271786 218.16 
L 847.271786 318.96 
" clip-path="url(#pa178d3d4a7)" style="fill: none; stroke: #bf00bf; stroke-width: 0.5"/>
    <path d="M 847.363934 218.16 
L 847.363934 318.96 
" clip-path="url(#pa178d3d4a7)" style="fill: none; stroke: #bf00bf; stroke-width: 0.5"/>
    <path d="M 866.162051 218.16 
L 866.162051 318.96 
" clip-path="url(#pa178d3d4a7)" style="fill: none; stroke: #bf00bf; stroke-width: 0.5"/>
    <path d="M 866.254199 218.16 
L 866.254199 318.96 
" clip-path="url(#pa178d3d4a7)" style="fill: none; stroke: #bf00bf; stroke-width: 0.5"/>
    <path d="M 866.346346 218.16 
L 866.346346 318.96 
" clip-path="url(#pa178d3d4a7)" style="fill: none; stroke: #bf00bf; stroke-width: 0.5"/>
    <path d="M 866.438494 218.16 
L 866.438494 318.96 
" clip-path="url(#pa178d3d4a7)" style="fill: none; stroke: #bf00bf; stroke-width: 0.5"/>
    <path d="M 866.530642 218.16 
L 866.530642 318.96 
" clip-path="url(#pa178d3d4a7)" style="fill: none; stroke: #bf00bf; stroke-width: 0.5"/>
    <path d="M 866.622789 218.16 
L 866.622789 318.96 
" clip-path="url(#pa178d3d4a7)" style="fill: none; stroke: #bf00bf; stroke-width: 0.5"/>
    <path d="M 866.714937 218.16 
L 866.714937 318.96 
" clip-path="url(#pa178d3d4a7)" style="fill: none; stroke: #bf00bf; stroke-width: 0.5"/>
    <path d="M 869.479366 218.16 
L 869.479366 318.96 
" clip-path="url(#pa178d3d4a7)" style="fill: none; stroke: #bf00bf; stroke-width: 0.5"/>
    <path d="M 869.571514 218.16 
L 869.571514 318.96 
" clip-path="url(#pa178d3d4a7)" style="fill: none; stroke: #bf00bf; stroke-width: 0.5"/>
    <path d="M 869.663661 218.16 
L 869.663661 318.96 
" clip-path="url(#pa178d3d4a7)" style="fill: none; stroke: #bf00bf; stroke-width: 0.5"/>
    <path d="M 869.755809 218.16 
L 869.755809 318.96 
" clip-path="url(#pa178d3d4a7)" style="fill: none; stroke: #bf00bf; stroke-width: 0.5"/>
    <path d="M 869.847956 218.16 
L 869.847956 318.96 
" clip-path="url(#pa178d3d4a7)" style="fill: none; stroke: #bf00bf; stroke-width: 0.5"/>
    <path d="M 869.940104 218.16 
L 869.940104 318.96 
" clip-path="url(#pa178d3d4a7)" style="fill: none; stroke: #bf00bf; stroke-width: 0.5"/>
    <path d="M 870.032252 218.16 
L 870.032252 318.96 
" clip-path="url(#pa178d3d4a7)" style="fill: none; stroke: #bf00bf; stroke-width: 0.5"/>
    <path d="M 870.124399 218.16 
L 870.124399 318.96 
" clip-path="url(#pa178d3d4a7)" style="fill: none; stroke: #bf00bf; stroke-width: 0.5"/>
    <path d="M 870.216547 218.16 
L 870.216547 318.96 
" clip-path="url(#pa178d3d4a7)" style="fill: none; stroke: #bf00bf; stroke-width: 0.5"/>
    <path d="M 870.308695 218.16 
L 870.308695 318.96 
" clip-path="url(#pa178d3d4a7)" style="fill: none; stroke: #bf00bf; stroke-width: 0.5"/>
    <path d="M 870.400842 218.16 
L 870.400842 318.96 
" clip-path="url(#pa178d3d4a7)" style="fill: none; stroke: #bf00bf; stroke-width: 0.5"/>
    <path d="M 871.506614 218.16 
L 871.506614 318.96 
" clip-path="url(#pa178d3d4a7)" style="fill: none; stroke: #bf00bf; stroke-width: 0.5"/>
    <path d="M 871.598761 218.16 
L 871.598761 318.96 
" clip-path="url(#pa178d3d4a7)" style="fill: none; stroke: #bf00bf; stroke-width: 0.5"/>
    <path d="M 871.690909 218.16 
L 871.690909 318.96 
" clip-path="url(#pa178d3d4a7)" style="fill: none; stroke: #bf00bf; stroke-width: 0.5"/>
   </g>
   <g id="EventCollection_2">
    <path d="M 243.151895 117.36 
L 243.151895 218.16 
" clip-path="url(#pa178d3d4a7)" style="fill: none; stroke: #bfbf00; stroke-width: 0.5"/>
    <path d="M 243.244043 117.36 
L 243.244043 218.16 
" clip-path="url(#pa178d3d4a7)" style="fill: none; stroke: #bfbf00; stroke-width: 0.5"/>
    <path d="M 243.33619 117.36 
L 243.33619 218.16 
" clip-path="url(#pa178d3d4a7)" style="fill: none; stroke: #bfbf00; stroke-width: 0.5"/>
    <path d="M 243.428338 117.36 
L 243.428338 218.16 
" clip-path="url(#pa178d3d4a7)" style="fill: none; stroke: #bfbf00; stroke-width: 0.5"/>
    <path d="M 243.520486 117.36 
L 243.520486 218.16 
" clip-path="url(#pa178d3d4a7)" style="fill: none; stroke: #bfbf00; stroke-width: 0.5"/>
    <path d="M 243.612633 117.36 
L 243.612633 218.16 
" clip-path="url(#pa178d3d4a7)" style="fill: none; stroke: #bfbf00; stroke-width: 0.5"/>
    <path d="M 243.704781 117.36 
L 243.704781 218.16 
" clip-path="url(#pa178d3d4a7)" style="fill: none; stroke: #bfbf00; stroke-width: 0.5"/>
    <path d="M 252.458806 117.36 
L 252.458806 218.16 
" clip-path="url(#pa178d3d4a7)" style="fill: none; stroke: #bfbf00; stroke-width: 0.5"/>
    <path d="M 252.550954 117.36 
L 252.550954 218.16 
" clip-path="url(#pa178d3d4a7)" style="fill: none; stroke: #bfbf00; stroke-width: 0.5"/>
    <path d="M 317.975774 117.36 
L 317.975774 218.16 
" clip-path="url(#pa178d3d4a7)" style="fill: none; stroke: #bfbf00; stroke-width: 0.5"/>
    <path d="M 318.067922 117.36 
L 318.067922 218.16 
" clip-path="url(#pa178d3d4a7)" style="fill: none; stroke: #bfbf00; stroke-width: 0.5"/>
    <path d="M 318.160069 117.36 
L 318.160069 218.16 
" clip-path="url(#pa178d3d4a7)" style="fill: none; stroke: #bfbf00; stroke-width: 0.5"/>
    <path d="M 318.252217 117.36 
L 318.252217 218.16 
" clip-path="url(#pa178d3d4a7)" style="fill: none; stroke: #bfbf00; stroke-width: 0.5"/>
    <path d="M 318.344365 117.36 
L 318.344365 218.16 
" clip-path="url(#pa178d3d4a7)" style="fill: none; stroke: #bfbf00; stroke-width: 0.5"/>
    <path d="M 318.436512 117.36 
L 318.436512 218.16 
" clip-path="url(#pa178d3d4a7)" style="fill: none; stroke: #bfbf00; stroke-width: 0.5"/>
    <path d="M 318.52866 117.36 
L 318.52866 218.16 
" clip-path="url(#pa178d3d4a7)" style="fill: none; stroke: #bfbf00; stroke-width: 0.5"/>
    <path d="M 318.620808 117.36 
L 318.620808 218.16 
" clip-path="url(#pa178d3d4a7)" style="fill: none; stroke: #bfbf00; stroke-width: 0.5"/>
    <path d="M 318.712955 117.36 
L 318.712955 218.16 
" clip-path="url(#pa178d3d4a7)" style="fill: none; stroke: #bfbf00; stroke-width: 0.5"/>
    <path d="M 318.805103 117.36 
L 318.805103 218.16 
" clip-path="url(#pa178d3d4a7)" style="fill: none; stroke: #bfbf00; stroke-width: 0.5"/>
    <path d="M 318.89725 117.36 
L 318.89725 218.16 
" clip-path="url(#pa178d3d4a7)" style="fill: none; stroke: #bfbf00; stroke-width: 0.5"/>
    <path d="M 318.989398 117.36 
L 318.989398 218.16 
" clip-path="url(#pa178d3d4a7)" style="fill: none; stroke: #bfbf00; stroke-width: 0.5"/>
    <path d="M 319.081546 117.36 
L 319.081546 218.16 
" clip-path="url(#pa178d3d4a7)" style="fill: none; stroke: #bfbf00; stroke-width: 0.5"/>
    <path d="M 319.173693 117.36 
L 319.173693 218.16 
" clip-path="url(#pa178d3d4a7)" style="fill: none; stroke: #bfbf00; stroke-width: 0.5"/>
    <path d="M 319.265841 117.36 
L 319.265841 218.16 
" clip-path="url(#pa178d3d4a7)" style="fill: none; stroke: #bfbf00; stroke-width: 0.5"/>
    <path d="M 319.357989 117.36 
L 319.357989 218.16 
" clip-path="url(#pa178d3d4a7)" style="fill: none; stroke: #bfbf00; stroke-width: 0.5"/>
    <path d="M 319.450136 117.36 
L 319.450136 218.16 
" clip-path="url(#pa178d3d4a7)" style="fill: none; stroke: #bfbf00; stroke-width: 0.5"/>
    <path d="M 338.340401 117.36 
L 338.340401 218.16 
" clip-path="url(#pa178d3d4a7)" style="fill: none; stroke: #bfbf00; stroke-width: 0.5"/>
    <path d="M 338.432549 117.36 
L 338.432549 218.16 
" clip-path="url(#pa178d3d4a7)" style="fill: none; stroke: #bfbf00; stroke-width: 0.5"/>
    <path d="M 338.524697 117.36 
L 338.524697 218.16 
" clip-path="url(#pa178d3d4a7)" style="fill: none; stroke: #bfbf00; stroke-width: 0.5"/>
    <path d="M 338.616844 117.36 
L 338.616844 218.16 
" clip-path="url(#pa178d3d4a7)" style="fill: none; stroke: #bfbf00; stroke-width: 0.5"/>
    <path d="M 338.708992 117.36 
L 338.708992 218.16 
" clip-path="url(#pa178d3d4a7)" style="fill: none; stroke: #bfbf00; stroke-width: 0.5"/>
    <path d="M 338.801139 117.36 
L 338.801139 218.16 
" clip-path="url(#pa178d3d4a7)" style="fill: none; stroke: #bfbf00; stroke-width: 0.5"/>
    <path d="M 338.893287 117.36 
L 338.893287 218.16 
" clip-path="url(#pa178d3d4a7)" style="fill: none; stroke: #bfbf00; stroke-width: 0.5"/>
    <path d="M 353.913351 117.36 
L 353.913351 218.16 
" clip-path="url(#pa178d3d4a7)" style="fill: none; stroke: #bfbf00; stroke-width: 0.5"/>
    <path d="M 354.005499 117.36 
L 354.005499 218.16 
" clip-path="url(#pa178d3d4a7)" style="fill: none; stroke: #bfbf00; stroke-width: 0.5"/>
    <path d="M 354.097647 117.36 
L 354.097647 218.16 
" clip-path="url(#pa178d3d4a7)" style="fill: none; stroke: #bfbf00; stroke-width: 0.5"/>
    <path d="M 354.189794 117.36 
L 354.189794 218.16 
" clip-path="url(#pa178d3d4a7)" style="fill: none; stroke: #bfbf00; stroke-width: 0.5"/>
    <path d="M 354.281942 117.36 
L 354.281942 218.16 
" clip-path="url(#pa178d3d4a7)" style="fill: none; stroke: #bfbf00; stroke-width: 0.5"/>
    <path d="M 354.37409 117.36 
L 354.37409 218.16 
" clip-path="url(#pa178d3d4a7)" style="fill: none; stroke: #bfbf00; stroke-width: 0.5"/>
    <path d="M 354.466237 117.36 
L 354.466237 218.16 
" clip-path="url(#pa178d3d4a7)" style="fill: none; stroke: #bfbf00; stroke-width: 0.5"/>
    <path d="M 354.558385 117.36 
L 354.558385 218.16 
" clip-path="url(#pa178d3d4a7)" style="fill: none; stroke: #bfbf00; stroke-width: 0.5"/>
    <path d="M 354.650533 117.36 
L 354.650533 218.16 
" clip-path="url(#pa178d3d4a7)" style="fill: none; stroke: #bfbf00; stroke-width: 0.5"/>
    <path d="M 375.199455 117.36 
L 375.199455 218.16 
" clip-path="url(#pa178d3d4a7)" style="fill: none; stroke: #bfbf00; stroke-width: 0.5"/>
    <path d="M 375.291603 117.36 
L 375.291603 218.16 
" clip-path="url(#pa178d3d4a7)" style="fill: none; stroke: #bfbf00; stroke-width: 0.5"/>
    <path d="M 375.38375 117.36 
L 375.38375 218.16 
" clip-path="url(#pa178d3d4a7)" style="fill: none; stroke: #bfbf00; stroke-width: 0.5"/>
    <path d="M 375.475898 117.36 
L 375.475898 218.16 
" clip-path="url(#pa178d3d4a7)" style="fill: none; stroke: #bfbf00; stroke-width: 0.5"/>
    <path d="M 471.401585 117.36 
L 471.401585 218.16 
" clip-path="url(#pa178d3d4a7)" style="fill: none; stroke: #bfbf00; stroke-width: 0.5"/>
    <path d="M 471.493733 117.36 
L 471.493733 218.16 
" clip-path="url(#pa178d3d4a7)" style="fill: none; stroke: #bfbf00; stroke-width: 0.5"/>
    <path d="M 471.585881 117.36 
L 471.585881 218.16 
" clip-path="url(#pa178d3d4a7)" style="fill: none; stroke: #bfbf00; stroke-width: 0.5"/>
    <path d="M 623.076592 117.36 
L 623.076592 218.16 
" clip-path="url(#pa178d3d4a7)" style="fill: none; stroke: #bfbf00; stroke-width: 0.5"/>
    <path d="M 623.168739 117.36 
L 623.168739 218.16 
" clip-path="url(#pa178d3d4a7)" style="fill: none; stroke: #bfbf00; stroke-width: 0.5"/>
    <path d="M 623.260887 117.36 
L 623.260887 218.16 
" clip-path="url(#pa178d3d4a7)" style="fill: none; stroke: #bfbf00; stroke-width: 0.5"/>
    <path d="M 623.353034 117.36 
L 623.353034 218.16 
" clip-path="url(#pa178d3d4a7)" style="fill: none; stroke: #bfbf00; stroke-width: 0.5"/>
    <path d="M 623.445182 117.36 
L 623.445182 218.16 
" clip-path="url(#pa178d3d4a7)" style="fill: none; stroke: #bfbf00; stroke-width: 0.5"/>
    <path d="M 623.53733 117.36 
L 623.53733 218.16 
" clip-path="url(#pa178d3d4a7)" style="fill: none; stroke: #bfbf00; stroke-width: 0.5"/>
    <path d="M 623.629477 117.36 
L 623.629477 218.16 
" clip-path="url(#pa178d3d4a7)" style="fill: none; stroke: #bfbf00; stroke-width: 0.5"/>
    <path d="M 623.721625 117.36 
L 623.721625 218.16 
" clip-path="url(#pa178d3d4a7)" style="fill: none; stroke: #bfbf00; stroke-width: 0.5"/>
    <path d="M 623.813773 117.36 
L 623.813773 218.16 
" clip-path="url(#pa178d3d4a7)" style="fill: none; stroke: #bfbf00; stroke-width: 0.5"/>
    <path d="M 623.90592 117.36 
L 623.90592 218.16 
" clip-path="url(#pa178d3d4a7)" style="fill: none; stroke: #bfbf00; stroke-width: 0.5"/>
    <path d="M 640.216052 117.36 
L 640.216052 218.16 
" clip-path="url(#pa178d3d4a7)" style="fill: none; stroke: #bfbf00; stroke-width: 0.5"/>
    <path d="M 640.308199 117.36 
L 640.308199 218.16 
" clip-path="url(#pa178d3d4a7)" style="fill: none; stroke: #bfbf00; stroke-width: 0.5"/>
    <path d="M 640.400347 117.36 
L 640.400347 218.16 
" clip-path="url(#pa178d3d4a7)" style="fill: none; stroke: #bfbf00; stroke-width: 0.5"/>
    <path d="M 640.492494 117.36 
L 640.492494 218.16 
" clip-path="url(#pa178d3d4a7)" style="fill: none; stroke: #bfbf00; stroke-width: 0.5"/>
    <path d="M 640.584642 117.36 
L 640.584642 218.16 
" clip-path="url(#pa178d3d4a7)" style="fill: none; stroke: #bfbf00; stroke-width: 0.5"/>
    <path d="M 640.67679 117.36 
L 640.67679 218.16 
" clip-path="url(#pa178d3d4a7)" style="fill: none; stroke: #bfbf00; stroke-width: 0.5"/>
    <path d="M 640.768937 117.36 
L 640.768937 218.16 
" clip-path="url(#pa178d3d4a7)" style="fill: none; stroke: #bfbf00; stroke-width: 0.5"/>
    <path d="M 640.861085 117.36 
L 640.861085 218.16 
" clip-path="url(#pa178d3d4a7)" style="fill: none; stroke: #bfbf00; stroke-width: 0.5"/>
    <path d="M 640.953233 117.36 
L 640.953233 218.16 
" clip-path="url(#pa178d3d4a7)" style="fill: none; stroke: #bfbf00; stroke-width: 0.5"/>
    <path d="M 641.04538 117.36 
L 641.04538 218.16 
" clip-path="url(#pa178d3d4a7)" style="fill: none; stroke: #bfbf00; stroke-width: 0.5"/>
    <path d="M 641.137528 117.36 
L 641.137528 218.16 
" clip-path="url(#pa178d3d4a7)" style="fill: none; stroke: #bfbf00; stroke-width: 0.5"/>
    <path d="M 641.229676 117.36 
L 641.229676 218.16 
" clip-path="url(#pa178d3d4a7)" style="fill: none; stroke: #bfbf00; stroke-width: 0.5"/>
    <path d="M 641.321823 117.36 
L 641.321823 218.16 
" clip-path="url(#pa178d3d4a7)" style="fill: none; stroke: #bfbf00; stroke-width: 0.5"/>
    <path d="M 641.413971 117.36 
L 641.413971 218.16 
" clip-path="url(#pa178d3d4a7)" style="fill: none; stroke: #bfbf00; stroke-width: 0.5"/>
    <path d="M 641.506118 117.36 
L 641.506118 218.16 
" clip-path="url(#pa178d3d4a7)" style="fill: none; stroke: #bfbf00; stroke-width: 0.5"/>
    <path d="M 641.598266 117.36 
L 641.598266 218.16 
" clip-path="url(#pa178d3d4a7)" style="fill: none; stroke: #bfbf00; stroke-width: 0.5"/>
    <path d="M 641.690414 117.36 
L 641.690414 218.16 
" clip-path="url(#pa178d3d4a7)" style="fill: none; stroke: #bfbf00; stroke-width: 0.5"/>
    <path d="M 641.782561 117.36 
L 641.782561 218.16 
" clip-path="url(#pa178d3d4a7)" style="fill: none; stroke: #bfbf00; stroke-width: 0.5"/>
    <path d="M 641.874709 117.36 
L 641.874709 218.16 
" clip-path="url(#pa178d3d4a7)" style="fill: none; stroke: #bfbf00; stroke-width: 0.5"/>
    <path d="M 641.966857 117.36 
L 641.966857 218.16 
" clip-path="url(#pa178d3d4a7)" style="fill: none; stroke: #bfbf00; stroke-width: 0.5"/>
    <path d="M 642.059004 117.36 
L 642.059004 218.16 
" clip-path="url(#pa178d3d4a7)" style="fill: none; stroke: #bfbf00; stroke-width: 0.5"/>
    <path d="M 642.151152 117.36 
L 642.151152 218.16 
" clip-path="url(#pa178d3d4a7)" style="fill: none; stroke: #bfbf00; stroke-width: 0.5"/>
    <path d="M 642.243299 117.36 
L 642.243299 218.16 
" clip-path="url(#pa178d3d4a7)" style="fill: none; stroke: #bfbf00; stroke-width: 0.5"/>
    <path d="M 642.335447 117.36 
L 642.335447 218.16 
" clip-path="url(#pa178d3d4a7)" style="fill: none; stroke: #bfbf00; stroke-width: 0.5"/>
    <path d="M 642.427595 117.36 
L 642.427595 218.16 
" clip-path="url(#pa178d3d4a7)" style="fill: none; stroke: #bfbf00; stroke-width: 0.5"/>
    <path d="M 642.519742 117.36 
L 642.519742 218.16 
" clip-path="url(#pa178d3d4a7)" style="fill: none; stroke: #bfbf00; stroke-width: 0.5"/>
    <path d="M 670.809066 117.36 
L 670.809066 218.16 
" clip-path="url(#pa178d3d4a7)" style="fill: none; stroke: #bfbf00; stroke-width: 0.5"/>
    <path d="M 670.901214 117.36 
L 670.901214 218.16 
" clip-path="url(#pa178d3d4a7)" style="fill: none; stroke: #bfbf00; stroke-width: 0.5"/>
    <path d="M 670.993361 117.36 
L 670.993361 218.16 
" clip-path="url(#pa178d3d4a7)" style="fill: none; stroke: #bfbf00; stroke-width: 0.5"/>
    <path d="M 705.364429 117.36 
L 705.364429 218.16 
" clip-path="url(#pa178d3d4a7)" style="fill: none; stroke: #bfbf00; stroke-width: 0.5"/>
    <path d="M 705.456577 117.36 
L 705.456577 218.16 
" clip-path="url(#pa178d3d4a7)" style="fill: none; stroke: #bfbf00; stroke-width: 0.5"/>
    <path d="M 705.548724 117.36 
L 705.548724 218.16 
" clip-path="url(#pa178d3d4a7)" style="fill: none; stroke: #bfbf00; stroke-width: 0.5"/>
    <path d="M 705.640872 117.36 
L 705.640872 218.16 
" clip-path="url(#pa178d3d4a7)" style="fill: none; stroke: #bfbf00; stroke-width: 0.5"/>
    <path d="M 705.73302 117.36 
L 705.73302 218.16 
" clip-path="url(#pa178d3d4a7)" style="fill: none; stroke: #bfbf00; stroke-width: 0.5"/>
    <path d="M 705.825167 117.36 
L 705.825167 218.16 
" clip-path="url(#pa178d3d4a7)" style="fill: none; stroke: #bfbf00; stroke-width: 0.5"/>
    <path d="M 705.917315 117.36 
L 705.917315 218.16 
" clip-path="url(#pa178d3d4a7)" style="fill: none; stroke: #bfbf00; stroke-width: 0.5"/>
    <path d="M 706.009462 117.36 
L 706.009462 218.16 
" clip-path="url(#pa178d3d4a7)" style="fill: none; stroke: #bfbf00; stroke-width: 0.5"/>
    <path d="M 706.10161 117.36 
L 706.10161 218.16 
" clip-path="url(#pa178d3d4a7)" style="fill: none; stroke: #bfbf00; stroke-width: 0.5"/>
    <path d="M 706.193758 117.36 
L 706.193758 218.16 
" clip-path="url(#pa178d3d4a7)" style="fill: none; stroke: #bfbf00; stroke-width: 0.5"/>
    <path d="M 706.285905 117.36 
L 706.285905 218.16 
" clip-path="url(#pa178d3d4a7)" style="fill: none; stroke: #bfbf00; stroke-width: 0.5"/>
    <path d="M 821.00971 117.36 
L 821.00971 218.16 
" clip-path="url(#pa178d3d4a7)" style="fill: none; stroke: #bfbf00; stroke-width: 0.5"/>
    <path d="M 821.101858 117.36 
L 821.101858 218.16 
" clip-path="url(#pa178d3d4a7)" style="fill: none; stroke: #bfbf00; stroke-width: 0.5"/>
    <path d="M 821.194005 117.36 
L 821.194005 218.16 
" clip-path="url(#pa178d3d4a7)" style="fill: none; stroke: #bfbf00; stroke-width: 0.5"/>
    <path d="M 821.286153 117.36 
L 821.286153 218.16 
" clip-path="url(#pa178d3d4a7)" style="fill: none; stroke: #bfbf00; stroke-width: 0.5"/>
   </g>
   <g id="patch_3">
    <path d="M 126 384.48 
L 126 51.84 
" style="fill: none; stroke: #000000; stroke-width: 0.8; stroke-linejoin: miter; stroke-linecap: square"/>
   </g>
   <g id="patch_4">
    <path d="M 126 384.48 
L 907.2 384.48 
" style="fill: none; stroke: #000000; stroke-width: 0.8; stroke-linejoin: miter; stroke-linecap: square"/>
   </g>
   <g id="text_9">
    <!-- Mouse: 95; Paradigm: V1_Habituation_Urinright; Date: 240220 -->
    <g transform="translate(328.977188 45.84) scale(0.12 -0.12)">
     <defs>
      <path id="DejaVuSans-4d" d="M 628 4666 
L 1569 4666 
L 2759 1491 
L 3956 4666 
L 4897 4666 
L 4897 0 
L 4281 0 
L 4281 4097 
L 3078 897 
L 2444 897 
L 1241 4097 
L 1241 0 
L 628 0 
L 628 4666 
z
" transform="scale(0.015625)"/>
      <path id="DejaVuSans-6f" d="M 1959 3097 
Q 1497 3097 1228 2736 
Q 959 2375 959 1747 
Q 959 1119 1226 758 
Q 1494 397 1959 397 
Q 2419 397 2687 759 
Q 2956 1122 2956 1747 
Q 2956 2369 2687 2733 
Q 2419 3097 1959 3097 
z
M 1959 3584 
Q 2709 3584 3137 3096 
Q 3566 2609 3566 1747 
Q 3566 888 3137 398 
Q 2709 -91 1959 -91 
Q 1206 -91 779 398 
Q 353 888 353 1747 
Q 353 2609 779 3096 
Q 1206 3584 1959 3584 
z
" transform="scale(0.015625)"/>
      <path id="DejaVuSans-75" d="M 544 1381 
L 544 3500 
L 1119 3500 
L 1119 1403 
Q 1119 906 1312 657 
Q 1506 409 1894 409 
Q 2359 409 2629 706 
Q 2900 1003 2900 1516 
L 2900 3500 
L 3475 3500 
L 3475 0 
L 2900 0 
L 2900 538 
Q 2691 219 2414 64 
Q 2138 -91 1772 -91 
Q 1169 -91 856 284 
Q 544 659 544 1381 
z
M 1991 3584 
L 1991 3584 
z
" transform="scale(0.015625)"/>
      <path id="DejaVuSans-3a" d="M 750 794 
L 1409 794 
L 1409 0 
L 750 0 
L 750 794 
z
M 750 3309 
L 1409 3309 
L 1409 2516 
L 750 2516 
L 750 3309 
z
" transform="scale(0.015625)"/>
      <path id="DejaVuSans-39" d="M 703 97 
L 703 672 
Q 941 559 1184 500 
Q 1428 441 1663 441 
Q 2288 441 2617 861 
Q 2947 1281 2994 2138 
Q 2813 1869 2534 1725 
Q 2256 1581 1919 1581 
Q 1219 1581 811 2004 
Q 403 2428 403 3163 
Q 403 3881 828 4315 
Q 1253 4750 1959 4750 
Q 2769 4750 3195 4129 
Q 3622 3509 3622 2328 
Q 3622 1225 3098 567 
Q 2575 -91 1691 -91 
Q 1453 -91 1209 -44 
Q 966 3 703 97 
z
M 1959 2075 
Q 2384 2075 2632 2365 
Q 2881 2656 2881 3163 
Q 2881 3666 2632 3958 
Q 2384 4250 1959 4250 
Q 1534 4250 1286 3958 
Q 1038 3666 1038 3163 
Q 1038 2656 1286 2365 
Q 1534 2075 1959 2075 
z
" transform="scale(0.015625)"/>
      <path id="DejaVuSans-35" d="M 691 4666 
L 3169 4666 
L 3169 4134 
L 1269 4134 
L 1269 2991 
Q 1406 3038 1543 3061 
Q 1681 3084 1819 3084 
Q 2600 3084 3056 2656 
Q 3513 2228 3513 1497 
Q 3513 744 3044 326 
Q 2575 -91 1722 -91 
Q 1428 -91 1123 -41 
Q 819 9 494 109 
L 494 744 
Q 775 591 1075 516 
Q 1375 441 1709 441 
Q 2250 441 2565 725 
Q 2881 1009 2881 1497 
Q 2881 1984 2565 2268 
Q 2250 2553 1709 2553 
Q 1456 2553 1204 2497 
Q 953 2441 691 2322 
L 691 4666 
z
" transform="scale(0.015625)"/>
      <path id="DejaVuSans-3b" d="M 750 3309 
L 1409 3309 
L 1409 2516 
L 750 2516 
L 750 3309 
z
M 750 794 
L 1409 794 
L 1409 256 
L 897 -744 
L 494 -744 
L 750 256 
L 750 794 
z
" transform="scale(0.015625)"/>
      <path id="DejaVuSans-50" d="M 1259 4147 
L 1259 2394 
L 2053 2394 
Q 2494 2394 2734 2622 
Q 2975 2850 2975 3272 
Q 2975 3691 2734 3919 
Q 2494 4147 2053 4147 
L 1259 4147 
z
M 628 4666 
L 2053 4666 
Q 2838 4666 3239 4311 
Q 3641 3956 3641 3272 
Q 3641 2581 3239 2228 
Q 2838 1875 2053 1875 
L 1259 1875 
L 1259 0 
L 628 0 
L 628 4666 
z
" transform="scale(0.015625)"/>
      <path id="DejaVuSans-61" d="M 2194 1759 
Q 1497 1759 1228 1600 
Q 959 1441 959 1056 
Q 959 750 1161 570 
Q 1363 391 1709 391 
Q 2188 391 2477 730 
Q 2766 1069 2766 1631 
L 2766 1759 
L 2194 1759 
z
M 3341 1997 
L 3341 0 
L 2766 0 
L 2766 531 
Q 2569 213 2275 61 
Q 1981 -91 1556 -91 
Q 1019 -91 701 211 
Q 384 513 384 1019 
Q 384 1609 779 1909 
Q 1175 2209 1959 2209 
L 2766 2209 
L 2766 2266 
Q 2766 2663 2505 2880 
Q 2244 3097 1772 3097 
Q 1472 3097 1187 3025 
Q 903 2953 641 2809 
L 641 3341 
Q 956 3463 1253 3523 
Q 1550 3584 1831 3584 
Q 2591 3584 2966 3190 
Q 3341 2797 3341 1997 
z
" transform="scale(0.015625)"/>
      <path id="DejaVuSans-56" d="M 1831 0 
L 50 4666 
L 709 4666 
L 2188 738 
L 3669 4666 
L 4325 4666 
L 2547 0 
L 1831 0 
z
" transform="scale(0.015625)"/>
      <path id="DejaVuSans-31" d="M 794 531 
L 1825 531 
L 1825 4091 
L 703 3866 
L 703 4441 
L 1819 4666 
L 2450 4666 
L 2450 531 
L 3481 531 
L 3481 0 
L 794 0 
L 794 531 
z
" transform="scale(0.015625)"/>
      <path id="DejaVuSans-5f" d="M 3263 -1063 
L 3263 -1509 
L -63 -1509 
L -63 -1063 
L 3263 -1063 
z
" transform="scale(0.015625)"/>
      <path id="DejaVuSans-48" d="M 628 4666 
L 1259 4666 
L 1259 2753 
L 3553 2753 
L 3553 4666 
L 4184 4666 
L 4184 0 
L 3553 0 
L 3553 2222 
L 1259 2222 
L 1259 0 
L 628 0 
L 628 4666 
z
" transform="scale(0.015625)"/>
      <path id="DejaVuSans-62" d="M 3116 1747 
Q 3116 2381 2855 2742 
Q 2594 3103 2138 3103 
Q 1681 3103 1420 2742 
Q 1159 2381 1159 1747 
Q 1159 1113 1420 752 
Q 1681 391 2138 391 
Q 2594 391 2855 752 
Q 3116 1113 3116 1747 
z
M 1159 2969 
Q 1341 3281 1617 3432 
Q 1894 3584 2278 3584 
Q 2916 3584 3314 3078 
Q 3713 2572 3713 1747 
Q 3713 922 3314 415 
Q 2916 -91 2278 -91 
Q 1894 -91 1617 61 
Q 1341 213 1159 525 
L 1159 0 
L 581 0 
L 581 4863 
L 1159 4863 
L 1159 2969 
z
" transform="scale(0.015625)"/>
      <path id="DejaVuSans-55" d="M 556 4666 
L 1191 4666 
L 1191 1831 
Q 1191 1081 1462 751 
Q 1734 422 2344 422 
Q 2950 422 3222 751 
Q 3494 1081 3494 1831 
L 3494 4666 
L 4128 4666 
L 4128 1753 
Q 4128 841 3676 375 
Q 3225 -91 2344 -91 
Q 1459 -91 1007 375 
Q 556 841 556 1753 
L 556 4666 
z
" transform="scale(0.015625)"/>
      <path id="DejaVuSans-44" d="M 1259 4147 
L 1259 519 
L 2022 519 
Q 2988 519 3436 956 
Q 3884 1394 3884 2338 
Q 3884 3275 3436 3711 
Q 2988 4147 2022 4147 
L 1259 4147 
z
M 628 4666 
L 1925 4666 
Q 3281 4666 3915 4102 
Q 4550 3538 4550 2338 
Q 4550 1131 3912 565 
Q 3275 0 1925 0 
L 628 0 
L 628 4666 
z
" transform="scale(0.015625)"/>
     </defs>
     <use xlink:href="#DejaVuSans-4d"/>
     <use xlink:href="#DejaVuSans-6f" x="86.279297"/>
     <use xlink:href="#DejaVuSans-75" x="147.460938"/>
     <use xlink:href="#DejaVuSans-73" x="210.839844"/>
     <use xlink:href="#DejaVuSans-65" x="262.939453"/>
     <use xlink:href="#DejaVuSans-3a" x="324.462891"/>
     <use xlink:href="#DejaVuSans-20" x="358.154297"/>
     <use xlink:href="#DejaVuSans-39" x="389.941406"/>
     <use xlink:href="#DejaVuSans-35" x="453.564453"/>
     <use xlink:href="#DejaVuSans-3b" x="517.1875"/>
     <use xlink:href="#DejaVuSans-20" x="550.878906"/>
     <use xlink:href="#DejaVuSans-50" x="582.666016"/>
     <use xlink:href="#DejaVuSans-61" x="638.46875"/>
     <use xlink:href="#DejaVuSans-72" x="699.748047"/>
     <use xlink:href="#DejaVuSans-61" x="740.861328"/>
     <use xlink:href="#DejaVuSans-64" x="802.140625"/>
     <use xlink:href="#DejaVuSans-69" x="865.617188"/>
     <use xlink:href="#DejaVuSans-67" x="893.400391"/>
     <use xlink:href="#DejaVuSans-6d" x="956.876953"/>
     <use xlink:href="#DejaVuSans-3a" x="1054.289062"/>
     <use xlink:href="#DejaVuSans-20" x="1087.980469"/>
     <use xlink:href="#DejaVuSans-56" x="1119.767578"/>
     <use xlink:href="#DejaVuSans-31" x="1188.175781"/>
     <use xlink:href="#DejaVuSans-5f" x="1251.798828"/>
     <use xlink:href="#DejaVuSans-48" x="1301.798828"/>
     <use xlink:href="#DejaVuSans-61" x="1376.994141"/>
     <use xlink:href="#DejaVuSans-62" x="1438.273438"/>
     <use xlink:href="#DejaVuSans-69" x="1501.75"/>
     <use xlink:href="#DejaVuSans-74" x="1529.533203"/>
     <use xlink:href="#DejaVuSans-75" x="1568.742188"/>
     <use xlink:href="#DejaVuSans-61" x="1632.121094"/>
     <use xlink:href="#DejaVuSans-74" x="1693.400391"/>
     <use xlink:href="#DejaVuSans-69" x="1732.609375"/>
     <use xlink:href="#DejaVuSans-6f" x="1760.392578"/>
     <use xlink:href="#DejaVuSans-6e" x="1821.574219"/>
     <use xlink:href="#DejaVuSans-5f" x="1884.953125"/>
     <use xlink:href="#DejaVuSans-55" x="1934.953125"/>
     <use xlink:href="#DejaVuSans-72" x="2008.146484"/>
     <use xlink:href="#DejaVuSans-69" x="2049.259766"/>
     <use xlink:href="#DejaVuSans-6e" x="2077.042969"/>
     <use xlink:href="#DejaVuSans-72" x="2140.421875"/>
     <use xlink:href="#DejaVuSans-69" x="2181.535156"/>
     <use xlink:href="#DejaVuSans-67" x="2209.318359"/>
     <use xlink:href="#DejaVuSans-68" x="2272.794922"/>
     <use xlink:href="#DejaVuSans-74" x="2336.173828"/>
     <use xlink:href="#DejaVuSans-3b" x="2375.382812"/>
     <use xlink:href="#DejaVuSans-20" x="2409.074219"/>
     <use xlink:href="#DejaVuSans-44" x="2440.861328"/>
     <use xlink:href="#DejaVuSans-61" x="2517.863281"/>
     <use xlink:href="#DejaVuSans-74" x="2579.142578"/>
     <use xlink:href="#DejaVuSans-65" x="2618.351562"/>
     <use xlink:href="#DejaVuSans-3a" x="2679.875"/>
     <use xlink:href="#DejaVuSans-20" x="2713.566406"/>
     <use xlink:href="#DejaVuSans-32" x="2745.353516"/>
     <use xlink:href="#DejaVuSans-34" x="2808.976562"/>
     <use xlink:href="#DejaVuSans-30" x="2872.599609"/>
     <use xlink:href="#DejaVuSans-32" x="2936.222656"/>
     <use xlink:href="#DejaVuSans-32" x="2999.845703"/>
     <use xlink:href="#DejaVuSans-30" x="3063.46875"/>
    </g>
   </g>
  </g>
 </g>
 <defs>
  <clipPath id="pa178d3d4a7">
   <rect x="126" y="51.84" width="781.2" height="332.64"/>
  </clipPath>
 </defs>
</svg>
