<?xml version="1.0" encoding="utf-8" standalone="no"?>
<!DOCTYPE svg PUBLIC "-//W3C//DTD SVG 1.1//EN"
  "http://www.w3.org/Graphics/SVG/1.1/DTD/svg11.dtd">
<svg xmlns:xlink="http://www.w3.org/1999/xlink" width="1008pt" height="432pt" viewBox="0 0 1008 432" xmlns="http://www.w3.org/2000/svg" version="1.1">
 <metadata>
  <rdf:RDF xmlns:dc="http://purl.org/dc/elements/1.1/" xmlns:cc="http://creativecommons.org/ns#" xmlns:rdf="http://www.w3.org/1999/02/22-rdf-syntax-ns#">
   <cc:Work>
    <dc:type rdf:resource="http://purl.org/dc/dcmitype/StillImage"/>
    <dc:date>2024-05-13T10:32:26.443145</dc:date>
    <dc:format>image/svg+xml</dc:format>
    <dc:creator>
     <cc:Agent>
      <dc:title>Matplotlib v3.8.3, https://matplotlib.org/</dc:title>
     </cc:Agent>
    </dc:creator>
   </cc:Work>
  </rdf:RDF>
 </metadata>
 <defs>
  <style type="text/css">*{stroke-linejoin: round; stroke-linecap: butt}</style>
 </defs>
 <g id="figure_1">
  <g id="patch_1">
   <path d="M 0 432 
L 1008 432 
L 1008 0 
L 0 0 
z
" style="fill: #ffffff"/>
  </g>
  <g id="axes_1">
   <g id="patch_2">
    <path d="M 126 384.48 
L 907.2 384.48 
L 907.2 51.84 
L 126 51.84 
z
"/>
   </g>
   <g id="matplotlib.axis_1">
    <g id="xtick_1">
     <g id="line2d_1">
      <defs>
       <path id="mc17518d44c" d="M 0 0 
L 0 3.5 
" style="stroke: #000000; stroke-width: 0.8"/>
      </defs>
      <g>
       <use xlink:href="#mc17518d44c" x="274.880101" y="384.48" style="stroke: #000000; stroke-width: 0.8"/>
      </g>
     </g>
     <g id="text_1">
      <!-- 2 -->
      <g transform="translate(271.698851 399.078438) scale(0.1 -0.1)">
       <defs>
        <path id="DejaVuSans-32" d="M 1228 531 
L 3431 531 
L 3431 0 
L 469 0 
L 469 531 
Q 828 903 1448 1529 
Q 2069 2156 2228 2338 
Q 2531 2678 2651 2914 
Q 2772 3150 2772 3378 
Q 2772 3750 2511 3984 
Q 2250 4219 1831 4219 
Q 1534 4219 1204 4116 
Q 875 4013 500 3803 
L 500 4441 
Q 881 4594 1212 4672 
Q 1544 4750 1819 4750 
Q 2544 4750 2975 4387 
Q 3406 4025 3406 3419 
Q 3406 3131 3298 2873 
Q 3191 2616 2906 2266 
Q 2828 2175 2409 1742 
Q 1991 1309 1228 531 
z
" transform="scale(0.015625)"/>
       </defs>
       <use xlink:href="#DejaVuSans-32"/>
      </g>
     </g>
    </g>
    <g id="xtick_2">
     <g id="line2d_2">
      <g>
       <use xlink:href="#mc17518d44c" x="440.788897" y="384.48" style="stroke: #000000; stroke-width: 0.8"/>
      </g>
     </g>
     <g id="text_2">
      <!-- 4 -->
      <g transform="translate(437.607647 399.078438) scale(0.1 -0.1)">
       <defs>
        <path id="DejaVuSans-34" d="M 2419 4116 
L 825 1625 
L 2419 1625 
L 2419 4116 
z
M 2253 4666 
L 3047 4666 
L 3047 1625 
L 3713 1625 
L 3713 1100 
L 3047 1100 
L 3047 0 
L 2419 0 
L 2419 1100 
L 313 1100 
L 313 1709 
L 2253 4666 
z
" transform="scale(0.015625)"/>
       </defs>
       <use xlink:href="#DejaVuSans-34"/>
      </g>
     </g>
    </g>
    <g id="xtick_3">
     <g id="line2d_3">
      <g>
       <use xlink:href="#mc17518d44c" x="606.697693" y="384.48" style="stroke: #000000; stroke-width: 0.8"/>
      </g>
     </g>
     <g id="text_3">
      <!-- 6 -->
      <g transform="translate(603.516443 399.078438) scale(0.1 -0.1)">
       <defs>
        <path id="DejaVuSans-36" d="M 2113 2584 
Q 1688 2584 1439 2293 
Q 1191 2003 1191 1497 
Q 1191 994 1439 701 
Q 1688 409 2113 409 
Q 2538 409 2786 701 
Q 3034 994 3034 1497 
Q 3034 2003 2786 2293 
Q 2538 2584 2113 2584 
z
M 3366 4563 
L 3366 3988 
Q 3128 4100 2886 4159 
Q 2644 4219 2406 4219 
Q 1781 4219 1451 3797 
Q 1122 3375 1075 2522 
Q 1259 2794 1537 2939 
Q 1816 3084 2150 3084 
Q 2853 3084 3261 2657 
Q 3669 2231 3669 1497 
Q 3669 778 3244 343 
Q 2819 -91 2113 -91 
Q 1303 -91 875 529 
Q 447 1150 447 2328 
Q 447 3434 972 4092 
Q 1497 4750 2381 4750 
Q 2619 4750 2861 4703 
Q 3103 4656 3366 4563 
z
" transform="scale(0.015625)"/>
       </defs>
       <use xlink:href="#DejaVuSans-36"/>
      </g>
     </g>
    </g>
    <g id="xtick_4">
     <g id="line2d_4">
      <g>
       <use xlink:href="#mc17518d44c" x="772.606489" y="384.48" style="stroke: #000000; stroke-width: 0.8"/>
      </g>
     </g>
     <g id="text_4">
      <!-- 8 -->
      <g transform="translate(769.425239 399.078438) scale(0.1 -0.1)">
       <defs>
        <path id="DejaVuSans-38" d="M 2034 2216 
Q 1584 2216 1326 1975 
Q 1069 1734 1069 1313 
Q 1069 891 1326 650 
Q 1584 409 2034 409 
Q 2484 409 2743 651 
Q 3003 894 3003 1313 
Q 3003 1734 2745 1975 
Q 2488 2216 2034 2216 
z
M 1403 2484 
Q 997 2584 770 2862 
Q 544 3141 544 3541 
Q 544 4100 942 4425 
Q 1341 4750 2034 4750 
Q 2731 4750 3128 4425 
Q 3525 4100 3525 3541 
Q 3525 3141 3298 2862 
Q 3072 2584 2669 2484 
Q 3125 2378 3379 2068 
Q 3634 1759 3634 1313 
Q 3634 634 3220 271 
Q 2806 -91 2034 -91 
Q 1263 -91 848 271 
Q 434 634 434 1313 
Q 434 1759 690 2068 
Q 947 2378 1403 2484 
z
M 1172 3481 
Q 1172 3119 1398 2916 
Q 1625 2713 2034 2713 
Q 2441 2713 2670 2916 
Q 2900 3119 2900 3481 
Q 2900 3844 2670 4047 
Q 2441 4250 2034 4250 
Q 1625 4250 1398 4047 
Q 1172 3844 1172 3481 
z
" transform="scale(0.015625)"/>
       </defs>
       <use xlink:href="#DejaVuSans-38"/>
      </g>
     </g>
    </g>
    <g id="text_5">
     <!-- Experiment length [min] -->
     <g transform="translate(455.264844 412.756563) scale(0.1 -0.1)">
      <defs>
       <path id="DejaVuSans-45" d="M 628 4666 
L 3578 4666 
L 3578 4134 
L 1259 4134 
L 1259 2753 
L 3481 2753 
L 3481 2222 
L 1259 2222 
L 1259 531 
L 3634 531 
L 3634 0 
L 628 0 
L 628 4666 
z
" transform="scale(0.015625)"/>
       <path id="DejaVuSans-78" d="M 3513 3500 
L 2247 1797 
L 3578 0 
L 2900 0 
L 1881 1375 
L 863 0 
L 184 0 
L 1544 1831 
L 300 3500 
L 978 3500 
L 1906 2253 
L 2834 3500 
L 3513 3500 
z
" transform="scale(0.015625)"/>
       <path id="DejaVuSans-70" d="M 1159 525 
L 1159 -1331 
L 581 -1331 
L 581 3500 
L 1159 3500 
L 1159 2969 
Q 1341 3281 1617 3432 
Q 1894 3584 2278 3584 
Q 2916 3584 3314 3078 
Q 3713 2572 3713 1747 
Q 3713 922 3314 415 
Q 2916 -91 2278 -91 
Q 1894 -91 1617 61 
Q 1341 213 1159 525 
z
M 3116 1747 
Q 3116 2381 2855 2742 
Q 2594 3103 2138 3103 
Q 1681 3103 1420 2742 
Q 1159 2381 1159 1747 
Q 1159 1113 1420 752 
Q 1681 391 2138 391 
Q 2594 391 2855 752 
Q 3116 1113 3116 1747 
z
" transform="scale(0.015625)"/>
       <path id="DejaVuSans-65" d="M 3597 1894 
L 3597 1613 
L 953 1613 
Q 991 1019 1311 708 
Q 1631 397 2203 397 
Q 2534 397 2845 478 
Q 3156 559 3463 722 
L 3463 178 
Q 3153 47 2828 -22 
Q 2503 -91 2169 -91 
Q 1331 -91 842 396 
Q 353 884 353 1716 
Q 353 2575 817 3079 
Q 1281 3584 2069 3584 
Q 2775 3584 3186 3129 
Q 3597 2675 3597 1894 
z
M 3022 2063 
Q 3016 2534 2758 2815 
Q 2500 3097 2075 3097 
Q 1594 3097 1305 2825 
Q 1016 2553 972 2059 
L 3022 2063 
z
" transform="scale(0.015625)"/>
       <path id="DejaVuSans-72" d="M 2631 2963 
Q 2534 3019 2420 3045 
Q 2306 3072 2169 3072 
Q 1681 3072 1420 2755 
Q 1159 2438 1159 1844 
L 1159 0 
L 581 0 
L 581 3500 
L 1159 3500 
L 1159 2956 
Q 1341 3275 1631 3429 
Q 1922 3584 2338 3584 
Q 2397 3584 2469 3576 
Q 2541 3569 2628 3553 
L 2631 2963 
z
" transform="scale(0.015625)"/>
       <path id="DejaVuSans-69" d="M 603 3500 
L 1178 3500 
L 1178 0 
L 603 0 
L 603 3500 
z
M 603 4863 
L 1178 4863 
L 1178 4134 
L 603 4134 
L 603 4863 
z
" transform="scale(0.015625)"/>
       <path id="DejaVuSans-6d" d="M 3328 2828 
Q 3544 3216 3844 3400 
Q 4144 3584 4550 3584 
Q 5097 3584 5394 3201 
Q 5691 2819 5691 2113 
L 5691 0 
L 5113 0 
L 5113 2094 
Q 5113 2597 4934 2840 
Q 4756 3084 4391 3084 
Q 3944 3084 3684 2787 
Q 3425 2491 3425 1978 
L 3425 0 
L 2847 0 
L 2847 2094 
Q 2847 2600 2669 2842 
Q 2491 3084 2119 3084 
Q 1678 3084 1418 2786 
Q 1159 2488 1159 1978 
L 1159 0 
L 581 0 
L 581 3500 
L 1159 3500 
L 1159 2956 
Q 1356 3278 1631 3431 
Q 1906 3584 2284 3584 
Q 2666 3584 2933 3390 
Q 3200 3197 3328 2828 
z
" transform="scale(0.015625)"/>
       <path id="DejaVuSans-6e" d="M 3513 2113 
L 3513 0 
L 2938 0 
L 2938 2094 
Q 2938 2591 2744 2837 
Q 2550 3084 2163 3084 
Q 1697 3084 1428 2787 
Q 1159 2491 1159 1978 
L 1159 0 
L 581 0 
L 581 3500 
L 1159 3500 
L 1159 2956 
Q 1366 3272 1645 3428 
Q 1925 3584 2291 3584 
Q 2894 3584 3203 3211 
Q 3513 2838 3513 2113 
z
" transform="scale(0.015625)"/>
       <path id="DejaVuSans-74" d="M 1172 4494 
L 1172 3500 
L 2356 3500 
L 2356 3053 
L 1172 3053 
L 1172 1153 
Q 1172 725 1289 603 
Q 1406 481 1766 481 
L 2356 481 
L 2356 0 
L 1766 0 
Q 1100 0 847 248 
Q 594 497 594 1153 
L 594 3053 
L 172 3053 
L 172 3500 
L 594 3500 
L 594 4494 
L 1172 4494 
z
" transform="scale(0.015625)"/>
       <path id="DejaVuSans-20" transform="scale(0.015625)"/>
       <path id="DejaVuSans-6c" d="M 603 4863 
L 1178 4863 
L 1178 0 
L 603 0 
L 603 4863 
z
" transform="scale(0.015625)"/>
       <path id="DejaVuSans-67" d="M 2906 1791 
Q 2906 2416 2648 2759 
Q 2391 3103 1925 3103 
Q 1463 3103 1205 2759 
Q 947 2416 947 1791 
Q 947 1169 1205 825 
Q 1463 481 1925 481 
Q 2391 481 2648 825 
Q 2906 1169 2906 1791 
z
M 3481 434 
Q 3481 -459 3084 -895 
Q 2688 -1331 1869 -1331 
Q 1566 -1331 1297 -1286 
Q 1028 -1241 775 -1147 
L 775 -588 
Q 1028 -725 1275 -790 
Q 1522 -856 1778 -856 
Q 2344 -856 2625 -561 
Q 2906 -266 2906 331 
L 2906 616 
Q 2728 306 2450 153 
Q 2172 0 1784 0 
Q 1141 0 747 490 
Q 353 981 353 1791 
Q 353 2603 747 3093 
Q 1141 3584 1784 3584 
Q 2172 3584 2450 3431 
Q 2728 3278 2906 2969 
L 2906 3500 
L 3481 3500 
L 3481 434 
z
" transform="scale(0.015625)"/>
       <path id="DejaVuSans-68" d="M 3513 2113 
L 3513 0 
L 2938 0 
L 2938 2094 
Q 2938 2591 2744 2837 
Q 2550 3084 2163 3084 
Q 1697 3084 1428 2787 
Q 1159 2491 1159 1978 
L 1159 0 
L 581 0 
L 581 4863 
L 1159 4863 
L 1159 2956 
Q 1366 3272 1645 3428 
Q 1925 3584 2291 3584 
Q 2894 3584 3203 3211 
Q 3513 2838 3513 2113 
z
" transform="scale(0.015625)"/>
       <path id="DejaVuSans-5b" d="M 550 4863 
L 1875 4863 
L 1875 4416 
L 1125 4416 
L 1125 -397 
L 1875 -397 
L 1875 -844 
L 550 -844 
L 550 4863 
z
" transform="scale(0.015625)"/>
       <path id="DejaVuSans-5d" d="M 1947 4863 
L 1947 -844 
L 622 -844 
L 622 -397 
L 1369 -397 
L 1369 4416 
L 622 4416 
L 622 4863 
L 1947 4863 
z
" transform="scale(0.015625)"/>
      </defs>
      <use xlink:href="#DejaVuSans-45"/>
      <use xlink:href="#DejaVuSans-78" x="63.183594"/>
      <use xlink:href="#DejaVuSans-70" x="122.363281"/>
      <use xlink:href="#DejaVuSans-65" x="185.839844"/>
      <use xlink:href="#DejaVuSans-72" x="247.363281"/>
      <use xlink:href="#DejaVuSans-69" x="288.476562"/>
      <use xlink:href="#DejaVuSans-6d" x="316.259766"/>
      <use xlink:href="#DejaVuSans-65" x="413.671875"/>
      <use xlink:href="#DejaVuSans-6e" x="475.195312"/>
      <use xlink:href="#DejaVuSans-74" x="538.574219"/>
      <use xlink:href="#DejaVuSans-20" x="577.783203"/>
      <use xlink:href="#DejaVuSans-6c" x="609.570312"/>
      <use xlink:href="#DejaVuSans-65" x="637.353516"/>
      <use xlink:href="#DejaVuSans-6e" x="698.876953"/>
      <use xlink:href="#DejaVuSans-67" x="762.255859"/>
      <use xlink:href="#DejaVuSans-74" x="825.732422"/>
      <use xlink:href="#DejaVuSans-68" x="864.941406"/>
      <use xlink:href="#DejaVuSans-20" x="928.320312"/>
      <use xlink:href="#DejaVuSans-5b" x="960.107422"/>
      <use xlink:href="#DejaVuSans-6d" x="999.121094"/>
      <use xlink:href="#DejaVuSans-69" x="1096.533203"/>
      <use xlink:href="#DejaVuSans-6e" x="1124.316406"/>
      <use xlink:href="#DejaVuSans-5d" x="1187.695312"/>
     </g>
    </g>
   </g>
   <g id="matplotlib.axis_2">
    <g id="ytick_1">
     <g id="line2d_5">
      <defs>
       <path id="me94037b6ea" d="M 0 0 
L -3.5 0 
" style="stroke: #000000; stroke-width: 0.8"/>
      </defs>
      <g>
       <use xlink:href="#me94037b6ea" x="126" y="268.56" style="stroke: #000000; stroke-width: 0.8"/>
      </g>
     </g>
     <g id="text_6">
      <!-- deg sniff left dish -->
      <g transform="translate(32.379687 272.359219) scale(0.1 -0.1)">
       <defs>
        <path id="DejaVuSans-64" d="M 2906 2969 
L 2906 4863 
L 3481 4863 
L 3481 0 
L 2906 0 
L 2906 525 
Q 2725 213 2448 61 
Q 2172 -91 1784 -91 
Q 1150 -91 751 415 
Q 353 922 353 1747 
Q 353 2572 751 3078 
Q 1150 3584 1784 3584 
Q 2172 3584 2448 3432 
Q 2725 3281 2906 2969 
z
M 947 1747 
Q 947 1113 1208 752 
Q 1469 391 1925 391 
Q 2381 391 2643 752 
Q 2906 1113 2906 1747 
Q 2906 2381 2643 2742 
Q 2381 3103 1925 3103 
Q 1469 3103 1208 2742 
Q 947 2381 947 1747 
z
" transform="scale(0.015625)"/>
        <path id="DejaVuSans-73" d="M 2834 3397 
L 2834 2853 
Q 2591 2978 2328 3040 
Q 2066 3103 1784 3103 
Q 1356 3103 1142 2972 
Q 928 2841 928 2578 
Q 928 2378 1081 2264 
Q 1234 2150 1697 2047 
L 1894 2003 
Q 2506 1872 2764 1633 
Q 3022 1394 3022 966 
Q 3022 478 2636 193 
Q 2250 -91 1575 -91 
Q 1294 -91 989 -36 
Q 684 19 347 128 
L 347 722 
Q 666 556 975 473 
Q 1284 391 1588 391 
Q 1994 391 2212 530 
Q 2431 669 2431 922 
Q 2431 1156 2273 1281 
Q 2116 1406 1581 1522 
L 1381 1569 
Q 847 1681 609 1914 
Q 372 2147 372 2553 
Q 372 3047 722 3315 
Q 1072 3584 1716 3584 
Q 2034 3584 2315 3537 
Q 2597 3491 2834 3397 
z
" transform="scale(0.015625)"/>
        <path id="DejaVuSans-66" d="M 2375 4863 
L 2375 4384 
L 1825 4384 
Q 1516 4384 1395 4259 
Q 1275 4134 1275 3809 
L 1275 3500 
L 2222 3500 
L 2222 3053 
L 1275 3053 
L 1275 0 
L 697 0 
L 697 3053 
L 147 3053 
L 147 3500 
L 697 3500 
L 697 3744 
Q 697 4328 969 4595 
Q 1241 4863 1831 4863 
L 2375 4863 
z
" transform="scale(0.015625)"/>
       </defs>
       <use xlink:href="#DejaVuSans-64"/>
       <use xlink:href="#DejaVuSans-65" x="63.476562"/>
       <use xlink:href="#DejaVuSans-67" x="125"/>
       <use xlink:href="#DejaVuSans-20" x="188.476562"/>
       <use xlink:href="#DejaVuSans-73" x="220.263672"/>
       <use xlink:href="#DejaVuSans-6e" x="272.363281"/>
       <use xlink:href="#DejaVuSans-69" x="335.742188"/>
       <use xlink:href="#DejaVuSans-66" x="363.525391"/>
       <use xlink:href="#DejaVuSans-66" x="398.730469"/>
       <use xlink:href="#DejaVuSans-20" x="433.935547"/>
       <use xlink:href="#DejaVuSans-6c" x="465.722656"/>
       <use xlink:href="#DejaVuSans-65" x="493.505859"/>
       <use xlink:href="#DejaVuSans-66" x="555.029297"/>
       <use xlink:href="#DejaVuSans-74" x="588.484375"/>
       <use xlink:href="#DejaVuSans-20" x="627.693359"/>
       <use xlink:href="#DejaVuSans-64" x="659.480469"/>
       <use xlink:href="#DejaVuSans-69" x="722.957031"/>
       <use xlink:href="#DejaVuSans-73" x="750.740234"/>
       <use xlink:href="#DejaVuSans-68" x="802.839844"/>
      </g>
     </g>
    </g>
    <g id="ytick_2">
     <g id="line2d_6">
      <g>
       <use xlink:href="#me94037b6ea" x="126" y="167.76" style="stroke: #000000; stroke-width: 0.8"/>
      </g>
     </g>
     <g id="text_7">
      <!-- deg sniff right dish -->
      <g transform="translate(25.08125 171.559219) scale(0.1 -0.1)">
       <use xlink:href="#DejaVuSans-64"/>
       <use xlink:href="#DejaVuSans-65" x="63.476562"/>
       <use xlink:href="#DejaVuSans-67" x="125"/>
       <use xlink:href="#DejaVuSans-20" x="188.476562"/>
       <use xlink:href="#DejaVuSans-73" x="220.263672"/>
       <use xlink:href="#DejaVuSans-6e" x="272.363281"/>
       <use xlink:href="#DejaVuSans-69" x="335.742188"/>
       <use xlink:href="#DejaVuSans-66" x="363.525391"/>
       <use xlink:href="#DejaVuSans-66" x="398.730469"/>
       <use xlink:href="#DejaVuSans-20" x="433.935547"/>
       <use xlink:href="#DejaVuSans-72" x="465.722656"/>
       <use xlink:href="#DejaVuSans-69" x="506.835938"/>
       <use xlink:href="#DejaVuSans-67" x="534.619141"/>
       <use xlink:href="#DejaVuSans-68" x="598.095703"/>
       <use xlink:href="#DejaVuSans-74" x="661.474609"/>
       <use xlink:href="#DejaVuSans-20" x="700.683594"/>
       <use xlink:href="#DejaVuSans-64" x="732.470703"/>
       <use xlink:href="#DejaVuSans-69" x="795.947266"/>
       <use xlink:href="#DejaVuSans-73" x="823.730469"/>
       <use xlink:href="#DejaVuSans-68" x="875.830078"/>
      </g>
     </g>
    </g>
   </g>
   <g id="EventCollection_1">
    <path d="M 161.509091 218.16 
L 161.509091 318.96 
" clip-path="url(#p518bb98659)" style="fill: none; stroke: #bf00bf; stroke-width: 0.5"/>
    <path d="M 161.601262 218.16 
L 161.601262 318.96 
" clip-path="url(#p518bb98659)" style="fill: none; stroke: #bf00bf; stroke-width: 0.5"/>
    <path d="M 161.693434 218.16 
L 161.693434 318.96 
" clip-path="url(#p518bb98659)" style="fill: none; stroke: #bf00bf; stroke-width: 0.5"/>
    <path d="M 161.785606 218.16 
L 161.785606 318.96 
" clip-path="url(#p518bb98659)" style="fill: none; stroke: #bf00bf; stroke-width: 0.5"/>
    <path d="M 161.877777 218.16 
L 161.877777 318.96 
" clip-path="url(#p518bb98659)" style="fill: none; stroke: #bf00bf; stroke-width: 0.5"/>
    <path d="M 161.969949 218.16 
L 161.969949 318.96 
" clip-path="url(#p518bb98659)" style="fill: none; stroke: #bf00bf; stroke-width: 0.5"/>
    <path d="M 162.06212 218.16 
L 162.06212 318.96 
" clip-path="url(#p518bb98659)" style="fill: none; stroke: #bf00bf; stroke-width: 0.5"/>
    <path d="M 162.154292 218.16 
L 162.154292 318.96 
" clip-path="url(#p518bb98659)" style="fill: none; stroke: #bf00bf; stroke-width: 0.5"/>
    <path d="M 162.246463 218.16 
L 162.246463 318.96 
" clip-path="url(#p518bb98659)" style="fill: none; stroke: #bf00bf; stroke-width: 0.5"/>
    <path d="M 162.338635 218.16 
L 162.338635 318.96 
" clip-path="url(#p518bb98659)" style="fill: none; stroke: #bf00bf; stroke-width: 0.5"/>
    <path d="M 162.430806 218.16 
L 162.430806 318.96 
" clip-path="url(#p518bb98659)" style="fill: none; stroke: #bf00bf; stroke-width: 0.5"/>
    <path d="M 176.533054 218.16 
L 176.533054 318.96 
" clip-path="url(#p518bb98659)" style="fill: none; stroke: #bf00bf; stroke-width: 0.5"/>
    <path d="M 176.625226 218.16 
L 176.625226 318.96 
" clip-path="url(#p518bb98659)" style="fill: none; stroke: #bf00bf; stroke-width: 0.5"/>
    <path d="M 176.717397 218.16 
L 176.717397 318.96 
" clip-path="url(#p518bb98659)" style="fill: none; stroke: #bf00bf; stroke-width: 0.5"/>
    <path d="M 195.151708 218.16 
L 195.151708 318.96 
" clip-path="url(#p518bb98659)" style="fill: none; stroke: #bf00bf; stroke-width: 0.5"/>
    <path d="M 195.243879 218.16 
L 195.243879 318.96 
" clip-path="url(#p518bb98659)" style="fill: none; stroke: #bf00bf; stroke-width: 0.5"/>
    <path d="M 195.336051 218.16 
L 195.336051 318.96 
" clip-path="url(#p518bb98659)" style="fill: none; stroke: #bf00bf; stroke-width: 0.5"/>
    <path d="M 243.726116 218.16 
L 243.726116 318.96 
" clip-path="url(#p518bb98659)" style="fill: none; stroke: #bf00bf; stroke-width: 0.5"/>
    <path d="M 243.818288 218.16 
L 243.818288 318.96 
" clip-path="url(#p518bb98659)" style="fill: none; stroke: #bf00bf; stroke-width: 0.5"/>
    <path d="M 243.91046 218.16 
L 243.91046 318.96 
" clip-path="url(#p518bb98659)" style="fill: none; stroke: #bf00bf; stroke-width: 0.5"/>
    <path d="M 244.002631 218.16 
L 244.002631 318.96 
" clip-path="url(#p518bb98659)" style="fill: none; stroke: #bf00bf; stroke-width: 0.5"/>
    <path d="M 244.094803 218.16 
L 244.094803 318.96 
" clip-path="url(#p518bb98659)" style="fill: none; stroke: #bf00bf; stroke-width: 0.5"/>
    <path d="M 244.186974 218.16 
L 244.186974 318.96 
" clip-path="url(#p518bb98659)" style="fill: none; stroke: #bf00bf; stroke-width: 0.5"/>
    <path d="M 264.188201 218.16 
L 264.188201 318.96 
" clip-path="url(#p518bb98659)" style="fill: none; stroke: #bf00bf; stroke-width: 0.5"/>
    <path d="M 264.280373 218.16 
L 264.280373 318.96 
" clip-path="url(#p518bb98659)" style="fill: none; stroke: #bf00bf; stroke-width: 0.5"/>
    <path d="M 264.372544 218.16 
L 264.372544 318.96 
" clip-path="url(#p518bb98659)" style="fill: none; stroke: #bf00bf; stroke-width: 0.5"/>
    <path d="M 264.464716 218.16 
L 264.464716 318.96 
" clip-path="url(#p518bb98659)" style="fill: none; stroke: #bf00bf; stroke-width: 0.5"/>
    <path d="M 264.556887 218.16 
L 264.556887 318.96 
" clip-path="url(#p518bb98659)" style="fill: none; stroke: #bf00bf; stroke-width: 0.5"/>
    <path d="M 264.649059 218.16 
L 264.649059 318.96 
" clip-path="url(#p518bb98659)" style="fill: none; stroke: #bf00bf; stroke-width: 0.5"/>
    <path d="M 264.741231 218.16 
L 264.741231 318.96 
" clip-path="url(#p518bb98659)" style="fill: none; stroke: #bf00bf; stroke-width: 0.5"/>
    <path d="M 264.833402 218.16 
L 264.833402 318.96 
" clip-path="url(#p518bb98659)" style="fill: none; stroke: #bf00bf; stroke-width: 0.5"/>
    <path d="M 264.925574 218.16 
L 264.925574 318.96 
" clip-path="url(#p518bb98659)" style="fill: none; stroke: #bf00bf; stroke-width: 0.5"/>
    <path d="M 265.017745 218.16 
L 265.017745 318.96 
" clip-path="url(#p518bb98659)" style="fill: none; stroke: #bf00bf; stroke-width: 0.5"/>
    <path d="M 265.109917 218.16 
L 265.109917 318.96 
" clip-path="url(#p518bb98659)" style="fill: none; stroke: #bf00bf; stroke-width: 0.5"/>
    <path d="M 265.202088 218.16 
L 265.202088 318.96 
" clip-path="url(#p518bb98659)" style="fill: none; stroke: #bf00bf; stroke-width: 0.5"/>
    <path d="M 265.29426 218.16 
L 265.29426 318.96 
" clip-path="url(#p518bb98659)" style="fill: none; stroke: #bf00bf; stroke-width: 0.5"/>
    <path d="M 265.386431 218.16 
L 265.386431 318.96 
" clip-path="url(#p518bb98659)" style="fill: none; stroke: #bf00bf; stroke-width: 0.5"/>
    <path d="M 265.478603 218.16 
L 265.478603 318.96 
" clip-path="url(#p518bb98659)" style="fill: none; stroke: #bf00bf; stroke-width: 0.5"/>
    <path d="M 297.738647 218.16 
L 297.738647 318.96 
" clip-path="url(#p518bb98659)" style="fill: none; stroke: #bf00bf; stroke-width: 0.5"/>
    <path d="M 297.830818 218.16 
L 297.830818 318.96 
" clip-path="url(#p518bb98659)" style="fill: none; stroke: #bf00bf; stroke-width: 0.5"/>
    <path d="M 297.92299 218.16 
L 297.92299 318.96 
" clip-path="url(#p518bb98659)" style="fill: none; stroke: #bf00bf; stroke-width: 0.5"/>
    <path d="M 298.015161 218.16 
L 298.015161 318.96 
" clip-path="url(#p518bb98659)" style="fill: none; stroke: #bf00bf; stroke-width: 0.5"/>
    <path d="M 298.107333 218.16 
L 298.107333 318.96 
" clip-path="url(#p518bb98659)" style="fill: none; stroke: #bf00bf; stroke-width: 0.5"/>
    <path d="M 307.41666 218.16 
L 307.41666 318.96 
" clip-path="url(#p518bb98659)" style="fill: none; stroke: #bf00bf; stroke-width: 0.5"/>
    <path d="M 307.508831 218.16 
L 307.508831 318.96 
" clip-path="url(#p518bb98659)" style="fill: none; stroke: #bf00bf; stroke-width: 0.5"/>
    <path d="M 307.601003 218.16 
L 307.601003 318.96 
" clip-path="url(#p518bb98659)" style="fill: none; stroke: #bf00bf; stroke-width: 0.5"/>
    <path d="M 307.693174 218.16 
L 307.693174 318.96 
" clip-path="url(#p518bb98659)" style="fill: none; stroke: #bf00bf; stroke-width: 0.5"/>
    <path d="M 307.785346 218.16 
L 307.785346 318.96 
" clip-path="url(#p518bb98659)" style="fill: none; stroke: #bf00bf; stroke-width: 0.5"/>
    <path d="M 307.877518 218.16 
L 307.877518 318.96 
" clip-path="url(#p518bb98659)" style="fill: none; stroke: #bf00bf; stroke-width: 0.5"/>
    <path d="M 333.501209 218.16 
L 333.501209 318.96 
" clip-path="url(#p518bb98659)" style="fill: none; stroke: #bf00bf; stroke-width: 0.5"/>
    <path d="M 333.593381 218.16 
L 333.593381 318.96 
" clip-path="url(#p518bb98659)" style="fill: none; stroke: #bf00bf; stroke-width: 0.5"/>
    <path d="M 333.685552 218.16 
L 333.685552 318.96 
" clip-path="url(#p518bb98659)" style="fill: none; stroke: #bf00bf; stroke-width: 0.5"/>
    <path d="M 333.777724 218.16 
L 333.777724 318.96 
" clip-path="url(#p518bb98659)" style="fill: none; stroke: #bf00bf; stroke-width: 0.5"/>
    <path d="M 333.869896 218.16 
L 333.869896 318.96 
" clip-path="url(#p518bb98659)" style="fill: none; stroke: #bf00bf; stroke-width: 0.5"/>
    <path d="M 333.962067 218.16 
L 333.962067 318.96 
" clip-path="url(#p518bb98659)" style="fill: none; stroke: #bf00bf; stroke-width: 0.5"/>
    <path d="M 334.054239 218.16 
L 334.054239 318.96 
" clip-path="url(#p518bb98659)" style="fill: none; stroke: #bf00bf; stroke-width: 0.5"/>
    <path d="M 376.176639 218.16 
L 376.176639 318.96 
" clip-path="url(#p518bb98659)" style="fill: none; stroke: #bf00bf; stroke-width: 0.5"/>
    <path d="M 376.26881 218.16 
L 376.26881 318.96 
" clip-path="url(#p518bb98659)" style="fill: none; stroke: #bf00bf; stroke-width: 0.5"/>
    <path d="M 376.360982 218.16 
L 376.360982 318.96 
" clip-path="url(#p518bb98659)" style="fill: none; stroke: #bf00bf; stroke-width: 0.5"/>
    <path d="M 447.056563 218.16 
L 447.056563 318.96 
" clip-path="url(#p518bb98659)" style="fill: none; stroke: #bf00bf; stroke-width: 0.5"/>
    <path d="M 447.148735 218.16 
L 447.148735 318.96 
" clip-path="url(#p518bb98659)" style="fill: none; stroke: #bf00bf; stroke-width: 0.5"/>
    <path d="M 447.240906 218.16 
L 447.240906 318.96 
" clip-path="url(#p518bb98659)" style="fill: none; stroke: #bf00bf; stroke-width: 0.5"/>
    <path d="M 447.333078 218.16 
L 447.333078 318.96 
" clip-path="url(#p518bb98659)" style="fill: none; stroke: #bf00bf; stroke-width: 0.5"/>
    <path d="M 447.425249 218.16 
L 447.425249 318.96 
" clip-path="url(#p518bb98659)" style="fill: none; stroke: #bf00bf; stroke-width: 0.5"/>
    <path d="M 447.517421 218.16 
L 447.517421 318.96 
" clip-path="url(#p518bb98659)" style="fill: none; stroke: #bf00bf; stroke-width: 0.5"/>
    <path d="M 447.609592 218.16 
L 447.609592 318.96 
" clip-path="url(#p518bb98659)" style="fill: none; stroke: #bf00bf; stroke-width: 0.5"/>
    <path d="M 447.701764 218.16 
L 447.701764 318.96 
" clip-path="url(#p518bb98659)" style="fill: none; stroke: #bf00bf; stroke-width: 0.5"/>
    <path d="M 447.793935 218.16 
L 447.793935 318.96 
" clip-path="url(#p518bb98659)" style="fill: none; stroke: #bf00bf; stroke-width: 0.5"/>
    <path d="M 447.886107 218.16 
L 447.886107 318.96 
" clip-path="url(#p518bb98659)" style="fill: none; stroke: #bf00bf; stroke-width: 0.5"/>
    <path d="M 447.978279 218.16 
L 447.978279 318.96 
" clip-path="url(#p518bb98659)" style="fill: none; stroke: #bf00bf; stroke-width: 0.5"/>
    <path d="M 448.07045 218.16 
L 448.07045 318.96 
" clip-path="url(#p518bb98659)" style="fill: none; stroke: #bf00bf; stroke-width: 0.5"/>
    <path d="M 448.162622 218.16 
L 448.162622 318.96 
" clip-path="url(#p518bb98659)" style="fill: none; stroke: #bf00bf; stroke-width: 0.5"/>
    <path d="M 448.254793 218.16 
L 448.254793 318.96 
" clip-path="url(#p518bb98659)" style="fill: none; stroke: #bf00bf; stroke-width: 0.5"/>
    <path d="M 448.346965 218.16 
L 448.346965 318.96 
" clip-path="url(#p518bb98659)" style="fill: none; stroke: #bf00bf; stroke-width: 0.5"/>
    <path d="M 448.439136 218.16 
L 448.439136 318.96 
" clip-path="url(#p518bb98659)" style="fill: none; stroke: #bf00bf; stroke-width: 0.5"/>
    <path d="M 448.531308 218.16 
L 448.531308 318.96 
" clip-path="url(#p518bb98659)" style="fill: none; stroke: #bf00bf; stroke-width: 0.5"/>
    <path d="M 448.623479 218.16 
L 448.623479 318.96 
" clip-path="url(#p518bb98659)" style="fill: none; stroke: #bf00bf; stroke-width: 0.5"/>
    <path d="M 454.338116 218.16 
L 454.338116 318.96 
" clip-path="url(#p518bb98659)" style="fill: none; stroke: #bf00bf; stroke-width: 0.5"/>
    <path d="M 454.430287 218.16 
L 454.430287 318.96 
" clip-path="url(#p518bb98659)" style="fill: none; stroke: #bf00bf; stroke-width: 0.5"/>
    <path d="M 454.522459 218.16 
L 454.522459 318.96 
" clip-path="url(#p518bb98659)" style="fill: none; stroke: #bf00bf; stroke-width: 0.5"/>
    <path d="M 454.61463 218.16 
L 454.61463 318.96 
" clip-path="url(#p518bb98659)" style="fill: none; stroke: #bf00bf; stroke-width: 0.5"/>
    <path d="M 454.706802 218.16 
L 454.706802 318.96 
" clip-path="url(#p518bb98659)" style="fill: none; stroke: #bf00bf; stroke-width: 0.5"/>
    <path d="M 454.798974 218.16 
L 454.798974 318.96 
" clip-path="url(#p518bb98659)" style="fill: none; stroke: #bf00bf; stroke-width: 0.5"/>
    <path d="M 454.891145 218.16 
L 454.891145 318.96 
" clip-path="url(#p518bb98659)" style="fill: none; stroke: #bf00bf; stroke-width: 0.5"/>
    <path d="M 454.983317 218.16 
L 454.983317 318.96 
" clip-path="url(#p518bb98659)" style="fill: none; stroke: #bf00bf; stroke-width: 0.5"/>
    <path d="M 455.075488 218.16 
L 455.075488 318.96 
" clip-path="url(#p518bb98659)" style="fill: none; stroke: #bf00bf; stroke-width: 0.5"/>
    <path d="M 455.16766 218.16 
L 455.16766 318.96 
" clip-path="url(#p518bb98659)" style="fill: none; stroke: #bf00bf; stroke-width: 0.5"/>
    <path d="M 455.259831 218.16 
L 455.259831 318.96 
" clip-path="url(#p518bb98659)" style="fill: none; stroke: #bf00bf; stroke-width: 0.5"/>
    <path d="M 455.352003 218.16 
L 455.352003 318.96 
" clip-path="url(#p518bb98659)" style="fill: none; stroke: #bf00bf; stroke-width: 0.5"/>
    <path d="M 534.250852 218.16 
L 534.250852 318.96 
" clip-path="url(#p518bb98659)" style="fill: none; stroke: #bf00bf; stroke-width: 0.5"/>
    <path d="M 534.343024 218.16 
L 534.343024 318.96 
" clip-path="url(#p518bb98659)" style="fill: none; stroke: #bf00bf; stroke-width: 0.5"/>
    <path d="M 534.435196 218.16 
L 534.435196 318.96 
" clip-path="url(#p518bb98659)" style="fill: none; stroke: #bf00bf; stroke-width: 0.5"/>
    <path d="M 534.527367 218.16 
L 534.527367 318.96 
" clip-path="url(#p518bb98659)" style="fill: none; stroke: #bf00bf; stroke-width: 0.5"/>
    <path d="M 534.619539 218.16 
L 534.619539 318.96 
" clip-path="url(#p518bb98659)" style="fill: none; stroke: #bf00bf; stroke-width: 0.5"/>
    <path d="M 534.71171 218.16 
L 534.71171 318.96 
" clip-path="url(#p518bb98659)" style="fill: none; stroke: #bf00bf; stroke-width: 0.5"/>
    <path d="M 600.430028 218.16 
L 600.430028 318.96 
" clip-path="url(#p518bb98659)" style="fill: none; stroke: #bf00bf; stroke-width: 0.5"/>
    <path d="M 600.522199 218.16 
L 600.522199 318.96 
" clip-path="url(#p518bb98659)" style="fill: none; stroke: #bf00bf; stroke-width: 0.5"/>
    <path d="M 600.614371 218.16 
L 600.614371 318.96 
" clip-path="url(#p518bb98659)" style="fill: none; stroke: #bf00bf; stroke-width: 0.5"/>
    <path d="M 600.706542 218.16 
L 600.706542 318.96 
" clip-path="url(#p518bb98659)" style="fill: none; stroke: #bf00bf; stroke-width: 0.5"/>
    <path d="M 611.029756 218.16 
L 611.029756 318.96 
" clip-path="url(#p518bb98659)" style="fill: none; stroke: #bf00bf; stroke-width: 0.5"/>
    <path d="M 611.121928 218.16 
L 611.121928 318.96 
" clip-path="url(#p518bb98659)" style="fill: none; stroke: #bf00bf; stroke-width: 0.5"/>
    <path d="M 611.214099 218.16 
L 611.214099 318.96 
" clip-path="url(#p518bb98659)" style="fill: none; stroke: #bf00bf; stroke-width: 0.5"/>
    <path d="M 645.778432 218.16 
L 645.778432 318.96 
" clip-path="url(#p518bb98659)" style="fill: none; stroke: #bf00bf; stroke-width: 0.5"/>
    <path d="M 645.870604 218.16 
L 645.870604 318.96 
" clip-path="url(#p518bb98659)" style="fill: none; stroke: #bf00bf; stroke-width: 0.5"/>
    <path d="M 645.962775 218.16 
L 645.962775 318.96 
" clip-path="url(#p518bb98659)" style="fill: none; stroke: #bf00bf; stroke-width: 0.5"/>
    <path d="M 646.054947 218.16 
L 646.054947 318.96 
" clip-path="url(#p518bb98659)" style="fill: none; stroke: #bf00bf; stroke-width: 0.5"/>
    <path d="M 646.147118 218.16 
L 646.147118 318.96 
" clip-path="url(#p518bb98659)" style="fill: none; stroke: #bf00bf; stroke-width: 0.5"/>
    <path d="M 646.23929 218.16 
L 646.23929 318.96 
" clip-path="url(#p518bb98659)" style="fill: none; stroke: #bf00bf; stroke-width: 0.5"/>
    <path d="M 646.331461 218.16 
L 646.331461 318.96 
" clip-path="url(#p518bb98659)" style="fill: none; stroke: #bf00bf; stroke-width: 0.5"/>
    <path d="M 646.423633 218.16 
L 646.423633 318.96 
" clip-path="url(#p518bb98659)" style="fill: none; stroke: #bf00bf; stroke-width: 0.5"/>
    <path d="M 646.515804 218.16 
L 646.515804 318.96 
" clip-path="url(#p518bb98659)" style="fill: none; stroke: #bf00bf; stroke-width: 0.5"/>
    <path d="M 646.607976 218.16 
L 646.607976 318.96 
" clip-path="url(#p518bb98659)" style="fill: none; stroke: #bf00bf; stroke-width: 0.5"/>
    <path d="M 664.950115 218.16 
L 664.950115 318.96 
" clip-path="url(#p518bb98659)" style="fill: none; stroke: #bf00bf; stroke-width: 0.5"/>
    <path d="M 665.042287 218.16 
L 665.042287 318.96 
" clip-path="url(#p518bb98659)" style="fill: none; stroke: #bf00bf; stroke-width: 0.5"/>
    <path d="M 665.134458 218.16 
L 665.134458 318.96 
" clip-path="url(#p518bb98659)" style="fill: none; stroke: #bf00bf; stroke-width: 0.5"/>
    <path d="M 665.22663 218.16 
L 665.22663 318.96 
" clip-path="url(#p518bb98659)" style="fill: none; stroke: #bf00bf; stroke-width: 0.5"/>
    <path d="M 665.318801 218.16 
L 665.318801 318.96 
" clip-path="url(#p518bb98659)" style="fill: none; stroke: #bf00bf; stroke-width: 0.5"/>
    <path d="M 729.746717 218.16 
L 729.746717 318.96 
" clip-path="url(#p518bb98659)" style="fill: none; stroke: #bf00bf; stroke-width: 0.5"/>
    <path d="M 729.838889 218.16 
L 729.838889 318.96 
" clip-path="url(#p518bb98659)" style="fill: none; stroke: #bf00bf; stroke-width: 0.5"/>
    <path d="M 729.93106 218.16 
L 729.93106 318.96 
" clip-path="url(#p518bb98659)" style="fill: none; stroke: #bf00bf; stroke-width: 0.5"/>
    <path d="M 730.023232 218.16 
L 730.023232 318.96 
" clip-path="url(#p518bb98659)" style="fill: none; stroke: #bf00bf; stroke-width: 0.5"/>
    <path d="M 775.187293 218.16 
L 775.187293 318.96 
" clip-path="url(#p518bb98659)" style="fill: none; stroke: #bf00bf; stroke-width: 0.5"/>
    <path d="M 775.279464 218.16 
L 775.279464 318.96 
" clip-path="url(#p518bb98659)" style="fill: none; stroke: #bf00bf; stroke-width: 0.5"/>
    <path d="M 775.371636 218.16 
L 775.371636 318.96 
" clip-path="url(#p518bb98659)" style="fill: none; stroke: #bf00bf; stroke-width: 0.5"/>
    <path d="M 775.463807 218.16 
L 775.463807 318.96 
" clip-path="url(#p518bb98659)" style="fill: none; stroke: #bf00bf; stroke-width: 0.5"/>
    <path d="M 775.555979 218.16 
L 775.555979 318.96 
" clip-path="url(#p518bb98659)" style="fill: none; stroke: #bf00bf; stroke-width: 0.5"/>
    <path d="M 775.648151 218.16 
L 775.648151 318.96 
" clip-path="url(#p518bb98659)" style="fill: none; stroke: #bf00bf; stroke-width: 0.5"/>
    <path d="M 777.307239 218.16 
L 777.307239 318.96 
" clip-path="url(#p518bb98659)" style="fill: none; stroke: #bf00bf; stroke-width: 0.5"/>
    <path d="M 777.39941 218.16 
L 777.39941 318.96 
" clip-path="url(#p518bb98659)" style="fill: none; stroke: #bf00bf; stroke-width: 0.5"/>
    <path d="M 777.491582 218.16 
L 777.491582 318.96 
" clip-path="url(#p518bb98659)" style="fill: none; stroke: #bf00bf; stroke-width: 0.5"/>
    <path d="M 777.583753 218.16 
L 777.583753 318.96 
" clip-path="url(#p518bb98659)" style="fill: none; stroke: #bf00bf; stroke-width: 0.5"/>
    <path d="M 777.675925 218.16 
L 777.675925 318.96 
" clip-path="url(#p518bb98659)" style="fill: none; stroke: #bf00bf; stroke-width: 0.5"/>
    <path d="M 777.768096 218.16 
L 777.768096 318.96 
" clip-path="url(#p518bb98659)" style="fill: none; stroke: #bf00bf; stroke-width: 0.5"/>
    <path d="M 777.860268 218.16 
L 777.860268 318.96 
" clip-path="url(#p518bb98659)" style="fill: none; stroke: #bf00bf; stroke-width: 0.5"/>
    <path d="M 777.952439 218.16 
L 777.952439 318.96 
" clip-path="url(#p518bb98659)" style="fill: none; stroke: #bf00bf; stroke-width: 0.5"/>
    <path d="M 778.044611 218.16 
L 778.044611 318.96 
" clip-path="url(#p518bb98659)" style="fill: none; stroke: #bf00bf; stroke-width: 0.5"/>
    <path d="M 867.543189 218.16 
L 867.543189 318.96 
" clip-path="url(#p518bb98659)" style="fill: none; stroke: #bf00bf; stroke-width: 0.5"/>
    <path d="M 867.635361 218.16 
L 867.635361 318.96 
" clip-path="url(#p518bb98659)" style="fill: none; stroke: #bf00bf; stroke-width: 0.5"/>
    <path d="M 867.727532 218.16 
L 867.727532 318.96 
" clip-path="url(#p518bb98659)" style="fill: none; stroke: #bf00bf; stroke-width: 0.5"/>
    <path d="M 867.819704 218.16 
L 867.819704 318.96 
" clip-path="url(#p518bb98659)" style="fill: none; stroke: #bf00bf; stroke-width: 0.5"/>
    <path d="M 871.414394 218.16 
L 871.414394 318.96 
" clip-path="url(#p518bb98659)" style="fill: none; stroke: #bf00bf; stroke-width: 0.5"/>
    <path d="M 871.506566 218.16 
L 871.506566 318.96 
" clip-path="url(#p518bb98659)" style="fill: none; stroke: #bf00bf; stroke-width: 0.5"/>
    <path d="M 871.598738 218.16 
L 871.598738 318.96 
" clip-path="url(#p518bb98659)" style="fill: none; stroke: #bf00bf; stroke-width: 0.5"/>
    <path d="M 871.690909 218.16 
L 871.690909 318.96 
" clip-path="url(#p518bb98659)" style="fill: none; stroke: #bf00bf; stroke-width: 0.5"/>
   </g>
   <g id="EventCollection_2">
    <path d="M 181.04946 117.36 
L 181.04946 218.16 
" clip-path="url(#p518bb98659)" style="fill: none; stroke: #bfbf00; stroke-width: 0.5"/>
    <path d="M 181.141632 117.36 
L 181.141632 218.16 
" clip-path="url(#p518bb98659)" style="fill: none; stroke: #bfbf00; stroke-width: 0.5"/>
    <path d="M 181.233803 117.36 
L 181.233803 218.16 
" clip-path="url(#p518bb98659)" style="fill: none; stroke: #bfbf00; stroke-width: 0.5"/>
    <path d="M 181.325975 117.36 
L 181.325975 218.16 
" clip-path="url(#p518bb98659)" style="fill: none; stroke: #bfbf00; stroke-width: 0.5"/>
    <path d="M 181.418146 117.36 
L 181.418146 218.16 
" clip-path="url(#p518bb98659)" style="fill: none; stroke: #bfbf00; stroke-width: 0.5"/>
    <path d="M 181.510318 117.36 
L 181.510318 218.16 
" clip-path="url(#p518bb98659)" style="fill: none; stroke: #bfbf00; stroke-width: 0.5"/>
    <path d="M 181.60249 117.36 
L 181.60249 218.16 
" clip-path="url(#p518bb98659)" style="fill: none; stroke: #bfbf00; stroke-width: 0.5"/>
    <path d="M 181.694661 117.36 
L 181.694661 218.16 
" clip-path="url(#p518bb98659)" style="fill: none; stroke: #bfbf00; stroke-width: 0.5"/>
    <path d="M 181.786833 117.36 
L 181.786833 218.16 
" clip-path="url(#p518bb98659)" style="fill: none; stroke: #bfbf00; stroke-width: 0.5"/>
    <path d="M 181.879004 117.36 
L 181.879004 218.16 
" clip-path="url(#p518bb98659)" style="fill: none; stroke: #bfbf00; stroke-width: 0.5"/>
    <path d="M 181.971176 117.36 
L 181.971176 218.16 
" clip-path="url(#p518bb98659)" style="fill: none; stroke: #bfbf00; stroke-width: 0.5"/>
    <path d="M 182.063347 117.36 
L 182.063347 218.16 
" clip-path="url(#p518bb98659)" style="fill: none; stroke: #bfbf00; stroke-width: 0.5"/>
    <path d="M 182.155519 117.36 
L 182.155519 218.16 
" clip-path="url(#p518bb98659)" style="fill: none; stroke: #bfbf00; stroke-width: 0.5"/>
    <path d="M 182.24769 117.36 
L 182.24769 218.16 
" clip-path="url(#p518bb98659)" style="fill: none; stroke: #bfbf00; stroke-width: 0.5"/>
    <path d="M 182.339862 117.36 
L 182.339862 218.16 
" clip-path="url(#p518bb98659)" style="fill: none; stroke: #bfbf00; stroke-width: 0.5"/>
    <path d="M 208.885269 117.36 
L 208.885269 218.16 
" clip-path="url(#p518bb98659)" style="fill: none; stroke: #bfbf00; stroke-width: 0.5"/>
    <path d="M 208.977441 117.36 
L 208.977441 218.16 
" clip-path="url(#p518bb98659)" style="fill: none; stroke: #bfbf00; stroke-width: 0.5"/>
    <path d="M 209.069612 117.36 
L 209.069612 218.16 
" clip-path="url(#p518bb98659)" style="fill: none; stroke: #bfbf00; stroke-width: 0.5"/>
    <path d="M 209.161784 117.36 
L 209.161784 218.16 
" clip-path="url(#p518bb98659)" style="fill: none; stroke: #bfbf00; stroke-width: 0.5"/>
    <path d="M 209.253956 117.36 
L 209.253956 218.16 
" clip-path="url(#p518bb98659)" style="fill: none; stroke: #bfbf00; stroke-width: 0.5"/>
    <path d="M 219.392826 117.36 
L 219.392826 218.16 
" clip-path="url(#p518bb98659)" style="fill: none; stroke: #bfbf00; stroke-width: 0.5"/>
    <path d="M 219.484998 117.36 
L 219.484998 218.16 
" clip-path="url(#p518bb98659)" style="fill: none; stroke: #bfbf00; stroke-width: 0.5"/>
    <path d="M 219.577169 117.36 
L 219.577169 218.16 
" clip-path="url(#p518bb98659)" style="fill: none; stroke: #bfbf00; stroke-width: 0.5"/>
    <path d="M 219.669341 117.36 
L 219.669341 218.16 
" clip-path="url(#p518bb98659)" style="fill: none; stroke: #bfbf00; stroke-width: 0.5"/>
    <path d="M 219.761513 117.36 
L 219.761513 218.16 
" clip-path="url(#p518bb98659)" style="fill: none; stroke: #bfbf00; stroke-width: 0.5"/>
    <path d="M 219.853684 117.36 
L 219.853684 218.16 
" clip-path="url(#p518bb98659)" style="fill: none; stroke: #bfbf00; stroke-width: 0.5"/>
    <path d="M 219.945856 117.36 
L 219.945856 218.16 
" clip-path="url(#p518bb98659)" style="fill: none; stroke: #bfbf00; stroke-width: 0.5"/>
    <path d="M 220.038027 117.36 
L 220.038027 218.16 
" clip-path="url(#p518bb98659)" style="fill: none; stroke: #bfbf00; stroke-width: 0.5"/>
    <path d="M 232.296844 117.36 
L 232.296844 218.16 
" clip-path="url(#p518bb98659)" style="fill: none; stroke: #bfbf00; stroke-width: 0.5"/>
    <path d="M 232.389015 117.36 
L 232.389015 218.16 
" clip-path="url(#p518bb98659)" style="fill: none; stroke: #bfbf00; stroke-width: 0.5"/>
    <path d="M 232.481187 117.36 
L 232.481187 218.16 
" clip-path="url(#p518bb98659)" style="fill: none; stroke: #bfbf00; stroke-width: 0.5"/>
    <path d="M 233.587246 117.36 
L 233.587246 218.16 
" clip-path="url(#p518bb98659)" style="fill: none; stroke: #bfbf00; stroke-width: 0.5"/>
    <path d="M 233.679417 117.36 
L 233.679417 218.16 
" clip-path="url(#p518bb98659)" style="fill: none; stroke: #bfbf00; stroke-width: 0.5"/>
    <path d="M 233.771589 117.36 
L 233.771589 218.16 
" clip-path="url(#p518bb98659)" style="fill: none; stroke: #bfbf00; stroke-width: 0.5"/>
    <path d="M 248.426866 117.36 
L 248.426866 218.16 
" clip-path="url(#p518bb98659)" style="fill: none; stroke: #bfbf00; stroke-width: 0.5"/>
    <path d="M 248.519037 117.36 
L 248.519037 218.16 
" clip-path="url(#p518bb98659)" style="fill: none; stroke: #bfbf00; stroke-width: 0.5"/>
    <path d="M 248.611209 117.36 
L 248.611209 218.16 
" clip-path="url(#p518bb98659)" style="fill: none; stroke: #bfbf00; stroke-width: 0.5"/>
    <path d="M 248.70338 117.36 
L 248.70338 218.16 
" clip-path="url(#p518bb98659)" style="fill: none; stroke: #bfbf00; stroke-width: 0.5"/>
    <path d="M 248.795552 117.36 
L 248.795552 218.16 
" clip-path="url(#p518bb98659)" style="fill: none; stroke: #bfbf00; stroke-width: 0.5"/>
    <path d="M 248.887723 117.36 
L 248.887723 218.16 
" clip-path="url(#p518bb98659)" style="fill: none; stroke: #bfbf00; stroke-width: 0.5"/>
    <path d="M 248.979895 117.36 
L 248.979895 218.16 
" clip-path="url(#p518bb98659)" style="fill: none; stroke: #bfbf00; stroke-width: 0.5"/>
    <path d="M 249.072067 117.36 
L 249.072067 218.16 
" clip-path="url(#p518bb98659)" style="fill: none; stroke: #bfbf00; stroke-width: 0.5"/>
    <path d="M 249.164238 117.36 
L 249.164238 218.16 
" clip-path="url(#p518bb98659)" style="fill: none; stroke: #bfbf00; stroke-width: 0.5"/>
    <path d="M 249.25641 117.36 
L 249.25641 218.16 
" clip-path="url(#p518bb98659)" style="fill: none; stroke: #bfbf00; stroke-width: 0.5"/>
    <path d="M 249.348581 117.36 
L 249.348581 218.16 
" clip-path="url(#p518bb98659)" style="fill: none; stroke: #bfbf00; stroke-width: 0.5"/>
    <path d="M 249.440753 117.36 
L 249.440753 218.16 
" clip-path="url(#p518bb98659)" style="fill: none; stroke: #bfbf00; stroke-width: 0.5"/>
    <path d="M 305.6654 117.36 
L 305.6654 218.16 
" clip-path="url(#p518bb98659)" style="fill: none; stroke: #bfbf00; stroke-width: 0.5"/>
    <path d="M 305.757572 117.36 
L 305.757572 218.16 
" clip-path="url(#p518bb98659)" style="fill: none; stroke: #bfbf00; stroke-width: 0.5"/>
    <path d="M 305.849743 117.36 
L 305.849743 218.16 
" clip-path="url(#p518bb98659)" style="fill: none; stroke: #bfbf00; stroke-width: 0.5"/>
    <path d="M 305.941915 117.36 
L 305.941915 218.16 
" clip-path="url(#p518bb98659)" style="fill: none; stroke: #bfbf00; stroke-width: 0.5"/>
    <path d="M 306.034086 117.36 
L 306.034086 218.16 
" clip-path="url(#p518bb98659)" style="fill: none; stroke: #bfbf00; stroke-width: 0.5"/>
    <path d="M 317.555531 117.36 
L 317.555531 218.16 
" clip-path="url(#p518bb98659)" style="fill: none; stroke: #bfbf00; stroke-width: 0.5"/>
    <path d="M 317.647702 117.36 
L 317.647702 218.16 
" clip-path="url(#p518bb98659)" style="fill: none; stroke: #bfbf00; stroke-width: 0.5"/>
    <path d="M 317.739874 117.36 
L 317.739874 218.16 
" clip-path="url(#p518bb98659)" style="fill: none; stroke: #bfbf00; stroke-width: 0.5"/>
    <path d="M 348.525173 117.36 
L 348.525173 218.16 
" clip-path="url(#p518bb98659)" style="fill: none; stroke: #bfbf00; stroke-width: 0.5"/>
    <path d="M 348.617344 117.36 
L 348.617344 218.16 
" clip-path="url(#p518bb98659)" style="fill: none; stroke: #bfbf00; stroke-width: 0.5"/>
    <path d="M 348.709516 117.36 
L 348.709516 218.16 
" clip-path="url(#p518bb98659)" style="fill: none; stroke: #bfbf00; stroke-width: 0.5"/>
    <path d="M 348.801687 117.36 
L 348.801687 218.16 
" clip-path="url(#p518bb98659)" style="fill: none; stroke: #bfbf00; stroke-width: 0.5"/>
    <path d="M 349.723403 117.36 
L 349.723403 218.16 
" clip-path="url(#p518bb98659)" style="fill: none; stroke: #bfbf00; stroke-width: 0.5"/>
    <path d="M 349.815574 117.36 
L 349.815574 218.16 
" clip-path="url(#p518bb98659)" style="fill: none; stroke: #bfbf00; stroke-width: 0.5"/>
    <path d="M 349.907746 117.36 
L 349.907746 218.16 
" clip-path="url(#p518bb98659)" style="fill: none; stroke: #bfbf00; stroke-width: 0.5"/>
    <path d="M 349.999917 117.36 
L 349.999917 218.16 
" clip-path="url(#p518bb98659)" style="fill: none; stroke: #bfbf00; stroke-width: 0.5"/>
    <path d="M 350.092089 117.36 
L 350.092089 218.16 
" clip-path="url(#p518bb98659)" style="fill: none; stroke: #bfbf00; stroke-width: 0.5"/>
    <path d="M 350.184261 117.36 
L 350.184261 218.16 
" clip-path="url(#p518bb98659)" style="fill: none; stroke: #bfbf00; stroke-width: 0.5"/>
    <path d="M 350.276432 117.36 
L 350.276432 218.16 
" clip-path="url(#p518bb98659)" style="fill: none; stroke: #bfbf00; stroke-width: 0.5"/>
    <path d="M 460.697953 117.36 
L 460.697953 218.16 
" clip-path="url(#p518bb98659)" style="fill: none; stroke: #bfbf00; stroke-width: 0.5"/>
    <path d="M 460.790124 117.36 
L 460.790124 218.16 
" clip-path="url(#p518bb98659)" style="fill: none; stroke: #bfbf00; stroke-width: 0.5"/>
    <path d="M 460.882296 117.36 
L 460.882296 218.16 
" clip-path="url(#p518bb98659)" style="fill: none; stroke: #bfbf00; stroke-width: 0.5"/>
    <path d="M 460.974468 117.36 
L 460.974468 218.16 
" clip-path="url(#p518bb98659)" style="fill: none; stroke: #bfbf00; stroke-width: 0.5"/>
    <path d="M 461.066639 117.36 
L 461.066639 218.16 
" clip-path="url(#p518bb98659)" style="fill: none; stroke: #bfbf00; stroke-width: 0.5"/>
    <path d="M 461.158811 117.36 
L 461.158811 218.16 
" clip-path="url(#p518bb98659)" style="fill: none; stroke: #bfbf00; stroke-width: 0.5"/>
    <path d="M 461.250982 117.36 
L 461.250982 218.16 
" clip-path="url(#p518bb98659)" style="fill: none; stroke: #bfbf00; stroke-width: 0.5"/>
    <path d="M 461.343154 117.36 
L 461.343154 218.16 
" clip-path="url(#p518bb98659)" style="fill: none; stroke: #bfbf00; stroke-width: 0.5"/>
    <path d="M 461.435325 117.36 
L 461.435325 218.16 
" clip-path="url(#p518bb98659)" style="fill: none; stroke: #bfbf00; stroke-width: 0.5"/>
    <path d="M 475.721916 117.36 
L 475.721916 218.16 
" clip-path="url(#p518bb98659)" style="fill: none; stroke: #bfbf00; stroke-width: 0.5"/>
    <path d="M 475.814088 117.36 
L 475.814088 218.16 
" clip-path="url(#p518bb98659)" style="fill: none; stroke: #bfbf00; stroke-width: 0.5"/>
    <path d="M 475.906259 117.36 
L 475.906259 218.16 
" clip-path="url(#p518bb98659)" style="fill: none; stroke: #bfbf00; stroke-width: 0.5"/>
    <path d="M 475.998431 117.36 
L 475.998431 218.16 
" clip-path="url(#p518bb98659)" style="fill: none; stroke: #bfbf00; stroke-width: 0.5"/>
    <path d="M 476.090602 117.36 
L 476.090602 218.16 
" clip-path="url(#p518bb98659)" style="fill: none; stroke: #bfbf00; stroke-width: 0.5"/>
    <path d="M 476.182774 117.36 
L 476.182774 218.16 
" clip-path="url(#p518bb98659)" style="fill: none; stroke: #bfbf00; stroke-width: 0.5"/>
    <path d="M 476.274945 117.36 
L 476.274945 218.16 
" clip-path="url(#p518bb98659)" style="fill: none; stroke: #bfbf00; stroke-width: 0.5"/>
    <path d="M 476.367117 117.36 
L 476.367117 218.16 
" clip-path="url(#p518bb98659)" style="fill: none; stroke: #bfbf00; stroke-width: 0.5"/>
    <path d="M 504.848127 117.36 
L 504.848127 218.16 
" clip-path="url(#p518bb98659)" style="fill: none; stroke: #bfbf00; stroke-width: 0.5"/>
    <path d="M 504.940299 117.36 
L 504.940299 218.16 
" clip-path="url(#p518bb98659)" style="fill: none; stroke: #bfbf00; stroke-width: 0.5"/>
    <path d="M 505.03247 117.36 
L 505.03247 218.16 
" clip-path="url(#p518bb98659)" style="fill: none; stroke: #bfbf00; stroke-width: 0.5"/>
    <path d="M 505.124642 117.36 
L 505.124642 218.16 
" clip-path="url(#p518bb98659)" style="fill: none; stroke: #bfbf00; stroke-width: 0.5"/>
    <path d="M 545.680125 117.36 
L 545.680125 218.16 
" clip-path="url(#p518bb98659)" style="fill: none; stroke: #bfbf00; stroke-width: 0.5"/>
    <path d="M 545.772297 117.36 
L 545.772297 218.16 
" clip-path="url(#p518bb98659)" style="fill: none; stroke: #bfbf00; stroke-width: 0.5"/>
    <path d="M 545.864468 117.36 
L 545.864468 218.16 
" clip-path="url(#p518bb98659)" style="fill: none; stroke: #bfbf00; stroke-width: 0.5"/>
    <path d="M 545.95664 117.36 
L 545.95664 218.16 
" clip-path="url(#p518bb98659)" style="fill: none; stroke: #bfbf00; stroke-width: 0.5"/>
    <path d="M 546.048811 117.36 
L 546.048811 218.16 
" clip-path="url(#p518bb98659)" style="fill: none; stroke: #bfbf00; stroke-width: 0.5"/>
    <path d="M 546.140983 117.36 
L 546.140983 218.16 
" clip-path="url(#p518bb98659)" style="fill: none; stroke: #bfbf00; stroke-width: 0.5"/>
    <path d="M 546.233154 117.36 
L 546.233154 218.16 
" clip-path="url(#p518bb98659)" style="fill: none; stroke: #bfbf00; stroke-width: 0.5"/>
    <path d="M 546.325326 117.36 
L 546.325326 218.16 
" clip-path="url(#p518bb98659)" style="fill: none; stroke: #bfbf00; stroke-width: 0.5"/>
    <path d="M 546.417497 117.36 
L 546.417497 218.16 
" clip-path="url(#p518bb98659)" style="fill: none; stroke: #bfbf00; stroke-width: 0.5"/>
    <path d="M 546.509669 117.36 
L 546.509669 218.16 
" clip-path="url(#p518bb98659)" style="fill: none; stroke: #bfbf00; stroke-width: 0.5"/>
    <path d="M 553.69905 117.36 
L 553.69905 218.16 
" clip-path="url(#p518bb98659)" style="fill: none; stroke: #bfbf00; stroke-width: 0.5"/>
    <path d="M 553.791222 117.36 
L 553.791222 218.16 
" clip-path="url(#p518bb98659)" style="fill: none; stroke: #bfbf00; stroke-width: 0.5"/>
    <path d="M 553.883393 117.36 
L 553.883393 218.16 
" clip-path="url(#p518bb98659)" style="fill: none; stroke: #bfbf00; stroke-width: 0.5"/>
    <path d="M 553.975565 117.36 
L 553.975565 218.16 
" clip-path="url(#p518bb98659)" style="fill: none; stroke: #bfbf00; stroke-width: 0.5"/>
    <path d="M 554.067736 117.36 
L 554.067736 218.16 
" clip-path="url(#p518bb98659)" style="fill: none; stroke: #bfbf00; stroke-width: 0.5"/>
    <path d="M 554.159908 117.36 
L 554.159908 218.16 
" clip-path="url(#p518bb98659)" style="fill: none; stroke: #bfbf00; stroke-width: 0.5"/>
    <path d="M 554.25208 117.36 
L 554.25208 218.16 
" clip-path="url(#p518bb98659)" style="fill: none; stroke: #bfbf00; stroke-width: 0.5"/>
    <path d="M 554.344251 117.36 
L 554.344251 218.16 
" clip-path="url(#p518bb98659)" style="fill: none; stroke: #bfbf00; stroke-width: 0.5"/>
    <path d="M 554.436423 117.36 
L 554.436423 218.16 
" clip-path="url(#p518bb98659)" style="fill: none; stroke: #bfbf00; stroke-width: 0.5"/>
    <path d="M 615.822677 117.36 
L 615.822677 218.16 
" clip-path="url(#p518bb98659)" style="fill: none; stroke: #bfbf00; stroke-width: 0.5"/>
    <path d="M 615.914849 117.36 
L 615.914849 218.16 
" clip-path="url(#p518bb98659)" style="fill: none; stroke: #bfbf00; stroke-width: 0.5"/>
    <path d="M 616.00702 117.36 
L 616.00702 218.16 
" clip-path="url(#p518bb98659)" style="fill: none; stroke: #bfbf00; stroke-width: 0.5"/>
    <path d="M 616.099192 117.36 
L 616.099192 218.16 
" clip-path="url(#p518bb98659)" style="fill: none; stroke: #bfbf00; stroke-width: 0.5"/>
    <path d="M 616.191363 117.36 
L 616.191363 218.16 
" clip-path="url(#p518bb98659)" style="fill: none; stroke: #bfbf00; stroke-width: 0.5"/>
    <path d="M 616.283535 117.36 
L 616.283535 218.16 
" clip-path="url(#p518bb98659)" style="fill: none; stroke: #bfbf00; stroke-width: 0.5"/>
    <path d="M 616.375706 117.36 
L 616.375706 218.16 
" clip-path="url(#p518bb98659)" style="fill: none; stroke: #bfbf00; stroke-width: 0.5"/>
    <path d="M 616.467878 117.36 
L 616.467878 218.16 
" clip-path="url(#p518bb98659)" style="fill: none; stroke: #bfbf00; stroke-width: 0.5"/>
    <path d="M 616.56005 117.36 
L 616.56005 218.16 
" clip-path="url(#p518bb98659)" style="fill: none; stroke: #bfbf00; stroke-width: 0.5"/>
    <path d="M 642.921114 117.36 
L 642.921114 218.16 
" clip-path="url(#p518bb98659)" style="fill: none; stroke: #bfbf00; stroke-width: 0.5"/>
    <path d="M 643.013285 117.36 
L 643.013285 218.16 
" clip-path="url(#p518bb98659)" style="fill: none; stroke: #bfbf00; stroke-width: 0.5"/>
    <path d="M 643.105457 117.36 
L 643.105457 218.16 
" clip-path="url(#p518bb98659)" style="fill: none; stroke: #bfbf00; stroke-width: 0.5"/>
    <path d="M 643.474143 117.36 
L 643.474143 218.16 
" clip-path="url(#p518bb98659)" style="fill: none; stroke: #bfbf00; stroke-width: 0.5"/>
    <path d="M 643.566315 117.36 
L 643.566315 218.16 
" clip-path="url(#p518bb98659)" style="fill: none; stroke: #bfbf00; stroke-width: 0.5"/>
    <path d="M 643.658486 117.36 
L 643.658486 218.16 
" clip-path="url(#p518bb98659)" style="fill: none; stroke: #bfbf00; stroke-width: 0.5"/>
    <path d="M 643.750658 117.36 
L 643.750658 218.16 
" clip-path="url(#p518bb98659)" style="fill: none; stroke: #bfbf00; stroke-width: 0.5"/>
    <path d="M 643.842829 117.36 
L 643.842829 218.16 
" clip-path="url(#p518bb98659)" style="fill: none; stroke: #bfbf00; stroke-width: 0.5"/>
    <path d="M 674.259442 117.36 
L 674.259442 218.16 
" clip-path="url(#p518bb98659)" style="fill: none; stroke: #bfbf00; stroke-width: 0.5"/>
    <path d="M 674.351613 117.36 
L 674.351613 218.16 
" clip-path="url(#p518bb98659)" style="fill: none; stroke: #bfbf00; stroke-width: 0.5"/>
    <path d="M 674.443785 117.36 
L 674.443785 218.16 
" clip-path="url(#p518bb98659)" style="fill: none; stroke: #bfbf00; stroke-width: 0.5"/>
    <path d="M 674.535957 117.36 
L 674.535957 218.16 
" clip-path="url(#p518bb98659)" style="fill: none; stroke: #bfbf00; stroke-width: 0.5"/>
    <path d="M 784.220105 117.36 
L 784.220105 218.16 
" clip-path="url(#p518bb98659)" style="fill: none; stroke: #bfbf00; stroke-width: 0.5"/>
    <path d="M 784.312277 117.36 
L 784.312277 218.16 
" clip-path="url(#p518bb98659)" style="fill: none; stroke: #bfbf00; stroke-width: 0.5"/>
    <path d="M 784.404448 117.36 
L 784.404448 218.16 
" clip-path="url(#p518bb98659)" style="fill: none; stroke: #bfbf00; stroke-width: 0.5"/>
    <path d="M 784.49662 117.36 
L 784.49662 218.16 
" clip-path="url(#p518bb98659)" style="fill: none; stroke: #bfbf00; stroke-width: 0.5"/>
    <path d="M 784.588791 117.36 
L 784.588791 218.16 
" clip-path="url(#p518bb98659)" style="fill: none; stroke: #bfbf00; stroke-width: 0.5"/>
    <path d="M 784.680963 117.36 
L 784.680963 218.16 
" clip-path="url(#p518bb98659)" style="fill: none; stroke: #bfbf00; stroke-width: 0.5"/>
    <path d="M 784.773134 117.36 
L 784.773134 218.16 
" clip-path="url(#p518bb98659)" style="fill: none; stroke: #bfbf00; stroke-width: 0.5"/>
    <path d="M 784.865306 117.36 
L 784.865306 218.16 
" clip-path="url(#p518bb98659)" style="fill: none; stroke: #bfbf00; stroke-width: 0.5"/>
    <path d="M 784.957477 117.36 
L 784.957477 218.16 
" clip-path="url(#p518bb98659)" style="fill: none; stroke: #bfbf00; stroke-width: 0.5"/>
   </g>
   <g id="patch_3">
    <path d="M 126 384.48 
L 126 51.84 
" style="fill: none; stroke: #000000; stroke-width: 0.8; stroke-linejoin: miter; stroke-linecap: square"/>
   </g>
   <g id="patch_4">
    <path d="M 126 384.48 
L 907.2 384.48 
" style="fill: none; stroke: #000000; stroke-width: 0.8; stroke-linejoin: miter; stroke-linecap: square"/>
   </g>
   <g id="text_8">
    <!-- Mouse: 105; Paradigm: V1.6_Urinleft_Habituation; Date: 240318 -->
    <g transform="translate(323.814375 45.84) scale(0.12 -0.12)">
     <defs>
      <path id="DejaVuSans-4d" d="M 628 4666 
L 1569 4666 
L 2759 1491 
L 3956 4666 
L 4897 4666 
L 4897 0 
L 4281 0 
L 4281 4097 
L 3078 897 
L 2444 897 
L 1241 4097 
L 1241 0 
L 628 0 
L 628 4666 
z
" transform="scale(0.015625)"/>
      <path id="DejaVuSans-6f" d="M 1959 3097 
Q 1497 3097 1228 2736 
Q 959 2375 959 1747 
Q 959 1119 1226 758 
Q 1494 397 1959 397 
Q 2419 397 2687 759 
Q 2956 1122 2956 1747 
Q 2956 2369 2687 2733 
Q 2419 3097 1959 3097 
z
M 1959 3584 
Q 2709 3584 3137 3096 
Q 3566 2609 3566 1747 
Q 3566 888 3137 398 
Q 2709 -91 1959 -91 
Q 1206 -91 779 398 
Q 353 888 353 1747 
Q 353 2609 779 3096 
Q 1206 3584 1959 3584 
z
" transform="scale(0.015625)"/>
      <path id="DejaVuSans-75" d="M 544 1381 
L 544 3500 
L 1119 3500 
L 1119 1403 
Q 1119 906 1312 657 
Q 1506 409 1894 409 
Q 2359 409 2629 706 
Q 2900 1003 2900 1516 
L 2900 3500 
L 3475 3500 
L 3475 0 
L 2900 0 
L 2900 538 
Q 2691 219 2414 64 
Q 2138 -91 1772 -91 
Q 1169 -91 856 284 
Q 544 659 544 1381 
z
M 1991 3584 
L 1991 3584 
z
" transform="scale(0.015625)"/>
      <path id="DejaVuSans-3a" d="M 750 794 
L 1409 794 
L 1409 0 
L 750 0 
L 750 794 
z
M 750 3309 
L 1409 3309 
L 1409 2516 
L 750 2516 
L 750 3309 
z
" transform="scale(0.015625)"/>
      <path id="DejaVuSans-31" d="M 794 531 
L 1825 531 
L 1825 4091 
L 703 3866 
L 703 4441 
L 1819 4666 
L 2450 4666 
L 2450 531 
L 3481 531 
L 3481 0 
L 794 0 
L 794 531 
z
" transform="scale(0.015625)"/>
      <path id="DejaVuSans-30" d="M 2034 4250 
Q 1547 4250 1301 3770 
Q 1056 3291 1056 2328 
Q 1056 1369 1301 889 
Q 1547 409 2034 409 
Q 2525 409 2770 889 
Q 3016 1369 3016 2328 
Q 3016 3291 2770 3770 
Q 2525 4250 2034 4250 
z
M 2034 4750 
Q 2819 4750 3233 4129 
Q 3647 3509 3647 2328 
Q 3647 1150 3233 529 
Q 2819 -91 2034 -91 
Q 1250 -91 836 529 
Q 422 1150 422 2328 
Q 422 3509 836 4129 
Q 1250 4750 2034 4750 
z
" transform="scale(0.015625)"/>
      <path id="DejaVuSans-35" d="M 691 4666 
L 3169 4666 
L 3169 4134 
L 1269 4134 
L 1269 2991 
Q 1406 3038 1543 3061 
Q 1681 3084 1819 3084 
Q 2600 3084 3056 2656 
Q 3513 2228 3513 1497 
Q 3513 744 3044 326 
Q 2575 -91 1722 -91 
Q 1428 -91 1123 -41 
Q 819 9 494 109 
L 494 744 
Q 775 591 1075 516 
Q 1375 441 1709 441 
Q 2250 441 2565 725 
Q 2881 1009 2881 1497 
Q 2881 1984 2565 2268 
Q 2250 2553 1709 2553 
Q 1456 2553 1204 2497 
Q 953 2441 691 2322 
L 691 4666 
z
" transform="scale(0.015625)"/>
      <path id="DejaVuSans-3b" d="M 750 3309 
L 1409 3309 
L 1409 2516 
L 750 2516 
L 750 3309 
z
M 750 794 
L 1409 794 
L 1409 256 
L 897 -744 
L 494 -744 
L 750 256 
L 750 794 
z
" transform="scale(0.015625)"/>
      <path id="DejaVuSans-50" d="M 1259 4147 
L 1259 2394 
L 2053 2394 
Q 2494 2394 2734 2622 
Q 2975 2850 2975 3272 
Q 2975 3691 2734 3919 
Q 2494 4147 2053 4147 
L 1259 4147 
z
M 628 4666 
L 2053 4666 
Q 2838 4666 3239 4311 
Q 3641 3956 3641 3272 
Q 3641 2581 3239 2228 
Q 2838 1875 2053 1875 
L 1259 1875 
L 1259 0 
L 628 0 
L 628 4666 
z
" transform="scale(0.015625)"/>
      <path id="DejaVuSans-61" d="M 2194 1759 
Q 1497 1759 1228 1600 
Q 959 1441 959 1056 
Q 959 750 1161 570 
Q 1363 391 1709 391 
Q 2188 391 2477 730 
Q 2766 1069 2766 1631 
L 2766 1759 
L 2194 1759 
z
M 3341 1997 
L 3341 0 
L 2766 0 
L 2766 531 
Q 2569 213 2275 61 
Q 1981 -91 1556 -91 
Q 1019 -91 701 211 
Q 384 513 384 1019 
Q 384 1609 779 1909 
Q 1175 2209 1959 2209 
L 2766 2209 
L 2766 2266 
Q 2766 2663 2505 2880 
Q 2244 3097 1772 3097 
Q 1472 3097 1187 3025 
Q 903 2953 641 2809 
L 641 3341 
Q 956 3463 1253 3523 
Q 1550 3584 1831 3584 
Q 2591 3584 2966 3190 
Q 3341 2797 3341 1997 
z
" transform="scale(0.015625)"/>
      <path id="DejaVuSans-56" d="M 1831 0 
L 50 4666 
L 709 4666 
L 2188 738 
L 3669 4666 
L 4325 4666 
L 2547 0 
L 1831 0 
z
" transform="scale(0.015625)"/>
      <path id="DejaVuSans-2e" d="M 684 794 
L 1344 794 
L 1344 0 
L 684 0 
L 684 794 
z
" transform="scale(0.015625)"/>
      <path id="DejaVuSans-5f" d="M 3263 -1063 
L 3263 -1509 
L -63 -1509 
L -63 -1063 
L 3263 -1063 
z
" transform="scale(0.015625)"/>
      <path id="DejaVuSans-55" d="M 556 4666 
L 1191 4666 
L 1191 1831 
Q 1191 1081 1462 751 
Q 1734 422 2344 422 
Q 2950 422 3222 751 
Q 3494 1081 3494 1831 
L 3494 4666 
L 4128 4666 
L 4128 1753 
Q 4128 841 3676 375 
Q 3225 -91 2344 -91 
Q 1459 -91 1007 375 
Q 556 841 556 1753 
L 556 4666 
z
" transform="scale(0.015625)"/>
      <path id="DejaVuSans-48" d="M 628 4666 
L 1259 4666 
L 1259 2753 
L 3553 2753 
L 3553 4666 
L 4184 4666 
L 4184 0 
L 3553 0 
L 3553 2222 
L 1259 2222 
L 1259 0 
L 628 0 
L 628 4666 
z
" transform="scale(0.015625)"/>
      <path id="DejaVuSans-62" d="M 3116 1747 
Q 3116 2381 2855 2742 
Q 2594 3103 2138 3103 
Q 1681 3103 1420 2742 
Q 1159 2381 1159 1747 
Q 1159 1113 1420 752 
Q 1681 391 2138 391 
Q 2594 391 2855 752 
Q 3116 1113 3116 1747 
z
M 1159 2969 
Q 1341 3281 1617 3432 
Q 1894 3584 2278 3584 
Q 2916 3584 3314 3078 
Q 3713 2572 3713 1747 
Q 3713 922 3314 415 
Q 2916 -91 2278 -91 
Q 1894 -91 1617 61 
Q 1341 213 1159 525 
L 1159 0 
L 581 0 
L 581 4863 
L 1159 4863 
L 1159 2969 
z
" transform="scale(0.015625)"/>
      <path id="DejaVuSans-44" d="M 1259 4147 
L 1259 519 
L 2022 519 
Q 2988 519 3436 956 
Q 3884 1394 3884 2338 
Q 3884 3275 3436 3711 
Q 2988 4147 2022 4147 
L 1259 4147 
z
M 628 4666 
L 1925 4666 
Q 3281 4666 3915 4102 
Q 4550 3538 4550 2338 
Q 4550 1131 3912 565 
Q 3275 0 1925 0 
L 628 0 
L 628 4666 
z
" transform="scale(0.015625)"/>
      <path id="DejaVuSans-33" d="M 2597 2516 
Q 3050 2419 3304 2112 
Q 3559 1806 3559 1356 
Q 3559 666 3084 287 
Q 2609 -91 1734 -91 
Q 1441 -91 1130 -33 
Q 819 25 488 141 
L 488 750 
Q 750 597 1062 519 
Q 1375 441 1716 441 
Q 2309 441 2620 675 
Q 2931 909 2931 1356 
Q 2931 1769 2642 2001 
Q 2353 2234 1838 2234 
L 1294 2234 
L 1294 2753 
L 1863 2753 
Q 2328 2753 2575 2939 
Q 2822 3125 2822 3475 
Q 2822 3834 2567 4026 
Q 2313 4219 1838 4219 
Q 1578 4219 1281 4162 
Q 984 4106 628 3988 
L 628 4550 
Q 988 4650 1302 4700 
Q 1616 4750 1894 4750 
Q 2613 4750 3031 4423 
Q 3450 4097 3450 3541 
Q 3450 3153 3228 2886 
Q 3006 2619 2597 2516 
z
" transform="scale(0.015625)"/>
     </defs>
     <use xlink:href="#DejaVuSans-4d"/>
     <use xlink:href="#DejaVuSans-6f" x="86.279297"/>
     <use xlink:href="#DejaVuSans-75" x="147.460938"/>
     <use xlink:href="#DejaVuSans-73" x="210.839844"/>
     <use xlink:href="#DejaVuSans-65" x="262.939453"/>
     <use xlink:href="#DejaVuSans-3a" x="324.462891"/>
     <use xlink:href="#DejaVuSans-20" x="358.154297"/>
     <use xlink:href="#DejaVuSans-31" x="389.941406"/>
     <use xlink:href="#DejaVuSans-30" x="453.564453"/>
     <use xlink:href="#DejaVuSans-35" x="517.1875"/>
     <use xlink:href="#DejaVuSans-3b" x="580.810547"/>
     <use xlink:href="#DejaVuSans-20" x="614.501953"/>
     <use xlink:href="#DejaVuSans-50" x="646.289062"/>
     <use xlink:href="#DejaVuSans-61" x="702.091797"/>
     <use xlink:href="#DejaVuSans-72" x="763.371094"/>
     <use xlink:href="#DejaVuSans-61" x="804.484375"/>
     <use xlink:href="#DejaVuSans-64" x="865.763672"/>
     <use xlink:href="#DejaVuSans-69" x="929.240234"/>
     <use xlink:href="#DejaVuSans-67" x="957.023438"/>
     <use xlink:href="#DejaVuSans-6d" x="1020.5"/>
     <use xlink:href="#DejaVuSans-3a" x="1117.912109"/>
     <use xlink:href="#DejaVuSans-20" x="1151.603516"/>
     <use xlink:href="#DejaVuSans-56" x="1183.390625"/>
     <use xlink:href="#DejaVuSans-31" x="1251.798828"/>
     <use xlink:href="#DejaVuSans-2e" x="1315.421875"/>
     <use xlink:href="#DejaVuSans-36" x="1347.208984"/>
     <use xlink:href="#DejaVuSans-5f" x="1410.832031"/>
     <use xlink:href="#DejaVuSans-55" x="1460.832031"/>
     <use xlink:href="#DejaVuSans-72" x="1534.025391"/>
     <use xlink:href="#DejaVuSans-69" x="1575.138672"/>
     <use xlink:href="#DejaVuSans-6e" x="1602.921875"/>
     <use xlink:href="#DejaVuSans-6c" x="1666.300781"/>
     <use xlink:href="#DejaVuSans-65" x="1694.083984"/>
     <use xlink:href="#DejaVuSans-66" x="1755.607422"/>
     <use xlink:href="#DejaVuSans-74" x="1789.0625"/>
     <use xlink:href="#DejaVuSans-5f" x="1828.271484"/>
     <use xlink:href="#DejaVuSans-48" x="1878.271484"/>
     <use xlink:href="#DejaVuSans-61" x="1953.466797"/>
     <use xlink:href="#DejaVuSans-62" x="2014.746094"/>
     <use xlink:href="#DejaVuSans-69" x="2078.222656"/>
     <use xlink:href="#DejaVuSans-74" x="2106.005859"/>
     <use xlink:href="#DejaVuSans-75" x="2145.214844"/>
     <use xlink:href="#DejaVuSans-61" x="2208.59375"/>
     <use xlink:href="#DejaVuSans-74" x="2269.873047"/>
     <use xlink:href="#DejaVuSans-69" x="2309.082031"/>
     <use xlink:href="#DejaVuSans-6f" x="2336.865234"/>
     <use xlink:href="#DejaVuSans-6e" x="2398.046875"/>
     <use xlink:href="#DejaVuSans-3b" x="2461.425781"/>
     <use xlink:href="#DejaVuSans-20" x="2495.117188"/>
     <use xlink:href="#DejaVuSans-44" x="2526.904297"/>
     <use xlink:href="#DejaVuSans-61" x="2603.90625"/>
     <use xlink:href="#DejaVuSans-74" x="2665.185547"/>
     <use xlink:href="#DejaVuSans-65" x="2704.394531"/>
     <use xlink:href="#DejaVuSans-3a" x="2765.917969"/>
     <use xlink:href="#DejaVuSans-20" x="2799.609375"/>
     <use xlink:href="#DejaVuSans-32" x="2831.396484"/>
     <use xlink:href="#DejaVuSans-34" x="2895.019531"/>
     <use xlink:href="#DejaVuSans-30" x="2958.642578"/>
     <use xlink:href="#DejaVuSans-33" x="3022.265625"/>
     <use xlink:href="#DejaVuSans-31" x="3085.888672"/>
     <use xlink:href="#DejaVuSans-38" x="3149.511719"/>
    </g>
   </g>
  </g>
 </g>
 <defs>
  <clipPath id="p518bb98659">
   <rect x="126" y="51.84" width="781.2" height="332.64"/>
  </clipPath>
 </defs>
</svg>
