<?xml version="1.0" encoding="utf-8" standalone="no"?>
<!DOCTYPE svg PUBLIC "-//W3C//DTD SVG 1.1//EN"
  "http://www.w3.org/Graphics/SVG/1.1/DTD/svg11.dtd">
<svg xmlns:xlink="http://www.w3.org/1999/xlink" width="1008pt" height="432pt" viewBox="0 0 1008 432" xmlns="http://www.w3.org/2000/svg" version="1.1">
 <metadata>
  <rdf:RDF xmlns:dc="http://purl.org/dc/elements/1.1/" xmlns:cc="http://creativecommons.org/ns#" xmlns:rdf="http://www.w3.org/1999/02/22-rdf-syntax-ns#">
   <cc:Work>
    <dc:type rdf:resource="http://purl.org/dc/dcmitype/StillImage"/>
    <dc:date>2024-05-13T10:32:24.240024</dc:date>
    <dc:format>image/svg+xml</dc:format>
    <dc:creator>
     <cc:Agent>
      <dc:title>Matplotlib v3.8.3, https://matplotlib.org/</dc:title>
     </cc:Agent>
    </dc:creator>
   </cc:Work>
  </rdf:RDF>
 </metadata>
 <defs>
  <style type="text/css">*{stroke-linejoin: round; stroke-linecap: butt}</style>
 </defs>
 <g id="figure_1">
  <g id="patch_1">
   <path d="M 0 432 
L 1008 432 
L 1008 0 
L 0 0 
z
" style="fill: #ffffff"/>
  </g>
  <g id="axes_1">
   <g id="patch_2">
    <path d="M 126 384.48 
L 907.2 384.48 
L 907.2 51.84 
L 126 51.84 
z
"/>
   </g>
   <g id="matplotlib.axis_1">
    <g id="xtick_1">
     <g id="line2d_1">
      <defs>
       <path id="m026d25a213" d="M 0 0 
L 0 3.5 
" style="stroke: #000000; stroke-width: 0.8"/>
      </defs>
      <g>
       <use xlink:href="#m026d25a213" x="149.639516" y="384.48" style="stroke: #000000; stroke-width: 0.8"/>
      </g>
     </g>
     <g id="text_1">
      <!-- 0 -->
      <g transform="translate(146.458266 399.078438) scale(0.1 -0.1)">
       <defs>
        <path id="DejaVuSans-30" d="M 2034 4250 
Q 1547 4250 1301 3770 
Q 1056 3291 1056 2328 
Q 1056 1369 1301 889 
Q 1547 409 2034 409 
Q 2525 409 2770 889 
Q 3016 1369 3016 2328 
Q 3016 3291 2770 3770 
Q 2525 4250 2034 4250 
z
M 2034 4750 
Q 2819 4750 3233 4129 
Q 3647 3509 3647 2328 
Q 3647 1150 3233 529 
Q 2819 -91 2034 -91 
Q 1250 -91 836 529 
Q 422 1150 422 2328 
Q 422 3509 836 4129 
Q 1250 4750 2034 4750 
z
" transform="scale(0.015625)"/>
       </defs>
       <use xlink:href="#DejaVuSans-30"/>
      </g>
     </g>
    </g>
    <g id="xtick_2">
     <g id="line2d_2">
      <g>
       <use xlink:href="#m026d25a213" x="305.590141" y="384.48" style="stroke: #000000; stroke-width: 0.8"/>
      </g>
     </g>
     <g id="text_2">
      <!-- 2 -->
      <g transform="translate(302.408891 399.078438) scale(0.1 -0.1)">
       <defs>
        <path id="DejaVuSans-32" d="M 1228 531 
L 3431 531 
L 3431 0 
L 469 0 
L 469 531 
Q 828 903 1448 1529 
Q 2069 2156 2228 2338 
Q 2531 2678 2651 2914 
Q 2772 3150 2772 3378 
Q 2772 3750 2511 3984 
Q 2250 4219 1831 4219 
Q 1534 4219 1204 4116 
Q 875 4013 500 3803 
L 500 4441 
Q 881 4594 1212 4672 
Q 1544 4750 1819 4750 
Q 2544 4750 2975 4387 
Q 3406 4025 3406 3419 
Q 3406 3131 3298 2873 
Q 3191 2616 2906 2266 
Q 2828 2175 2409 1742 
Q 1991 1309 1228 531 
z
" transform="scale(0.015625)"/>
       </defs>
       <use xlink:href="#DejaVuSans-32"/>
      </g>
     </g>
    </g>
    <g id="xtick_3">
     <g id="line2d_3">
      <g>
       <use xlink:href="#m026d25a213" x="461.540765" y="384.48" style="stroke: #000000; stroke-width: 0.8"/>
      </g>
     </g>
     <g id="text_3">
      <!-- 4 -->
      <g transform="translate(458.359515 399.078438) scale(0.1 -0.1)">
       <defs>
        <path id="DejaVuSans-34" d="M 2419 4116 
L 825 1625 
L 2419 1625 
L 2419 4116 
z
M 2253 4666 
L 3047 4666 
L 3047 1625 
L 3713 1625 
L 3713 1100 
L 3047 1100 
L 3047 0 
L 2419 0 
L 2419 1100 
L 313 1100 
L 313 1709 
L 2253 4666 
z
" transform="scale(0.015625)"/>
       </defs>
       <use xlink:href="#DejaVuSans-34"/>
      </g>
     </g>
    </g>
    <g id="xtick_4">
     <g id="line2d_4">
      <g>
       <use xlink:href="#m026d25a213" x="617.49139" y="384.48" style="stroke: #000000; stroke-width: 0.8"/>
      </g>
     </g>
     <g id="text_4">
      <!-- 6 -->
      <g transform="translate(614.31014 399.078438) scale(0.1 -0.1)">
       <defs>
        <path id="DejaVuSans-36" d="M 2113 2584 
Q 1688 2584 1439 2293 
Q 1191 2003 1191 1497 
Q 1191 994 1439 701 
Q 1688 409 2113 409 
Q 2538 409 2786 701 
Q 3034 994 3034 1497 
Q 3034 2003 2786 2293 
Q 2538 2584 2113 2584 
z
M 3366 4563 
L 3366 3988 
Q 3128 4100 2886 4159 
Q 2644 4219 2406 4219 
Q 1781 4219 1451 3797 
Q 1122 3375 1075 2522 
Q 1259 2794 1537 2939 
Q 1816 3084 2150 3084 
Q 2853 3084 3261 2657 
Q 3669 2231 3669 1497 
Q 3669 778 3244 343 
Q 2819 -91 2113 -91 
Q 1303 -91 875 529 
Q 447 1150 447 2328 
Q 447 3434 972 4092 
Q 1497 4750 2381 4750 
Q 2619 4750 2861 4703 
Q 3103 4656 3366 4563 
z
" transform="scale(0.015625)"/>
       </defs>
       <use xlink:href="#DejaVuSans-36"/>
      </g>
     </g>
    </g>
    <g id="xtick_5">
     <g id="line2d_5">
      <g>
       <use xlink:href="#m026d25a213" x="773.442015" y="384.48" style="stroke: #000000; stroke-width: 0.8"/>
      </g>
     </g>
     <g id="text_5">
      <!-- 8 -->
      <g transform="translate(770.260765 399.078438) scale(0.1 -0.1)">
       <defs>
        <path id="DejaVuSans-38" d="M 2034 2216 
Q 1584 2216 1326 1975 
Q 1069 1734 1069 1313 
Q 1069 891 1326 650 
Q 1584 409 2034 409 
Q 2484 409 2743 651 
Q 3003 894 3003 1313 
Q 3003 1734 2745 1975 
Q 2488 2216 2034 2216 
z
M 1403 2484 
Q 997 2584 770 2862 
Q 544 3141 544 3541 
Q 544 4100 942 4425 
Q 1341 4750 2034 4750 
Q 2731 4750 3128 4425 
Q 3525 4100 3525 3541 
Q 3525 3141 3298 2862 
Q 3072 2584 2669 2484 
Q 3125 2378 3379 2068 
Q 3634 1759 3634 1313 
Q 3634 634 3220 271 
Q 2806 -91 2034 -91 
Q 1263 -91 848 271 
Q 434 634 434 1313 
Q 434 1759 690 2068 
Q 947 2378 1403 2484 
z
M 1172 3481 
Q 1172 3119 1398 2916 
Q 1625 2713 2034 2713 
Q 2441 2713 2670 2916 
Q 2900 3119 2900 3481 
Q 2900 3844 2670 4047 
Q 2441 4250 2034 4250 
Q 1625 4250 1398 4047 
Q 1172 3844 1172 3481 
z
" transform="scale(0.015625)"/>
       </defs>
       <use xlink:href="#DejaVuSans-38"/>
      </g>
     </g>
    </g>
    <g id="text_6">
     <!-- Experiment length [min] -->
     <g transform="translate(455.264844 412.756563) scale(0.1 -0.1)">
      <defs>
       <path id="DejaVuSans-45" d="M 628 4666 
L 3578 4666 
L 3578 4134 
L 1259 4134 
L 1259 2753 
L 3481 2753 
L 3481 2222 
L 1259 2222 
L 1259 531 
L 3634 531 
L 3634 0 
L 628 0 
L 628 4666 
z
" transform="scale(0.015625)"/>
       <path id="DejaVuSans-78" d="M 3513 3500 
L 2247 1797 
L 3578 0 
L 2900 0 
L 1881 1375 
L 863 0 
L 184 0 
L 1544 1831 
L 300 3500 
L 978 3500 
L 1906 2253 
L 2834 3500 
L 3513 3500 
z
" transform="scale(0.015625)"/>
       <path id="DejaVuSans-70" d="M 1159 525 
L 1159 -1331 
L 581 -1331 
L 581 3500 
L 1159 3500 
L 1159 2969 
Q 1341 3281 1617 3432 
Q 1894 3584 2278 3584 
Q 2916 3584 3314 3078 
Q 3713 2572 3713 1747 
Q 3713 922 3314 415 
Q 2916 -91 2278 -91 
Q 1894 -91 1617 61 
Q 1341 213 1159 525 
z
M 3116 1747 
Q 3116 2381 2855 2742 
Q 2594 3103 2138 3103 
Q 1681 3103 1420 2742 
Q 1159 2381 1159 1747 
Q 1159 1113 1420 752 
Q 1681 391 2138 391 
Q 2594 391 2855 752 
Q 3116 1113 3116 1747 
z
" transform="scale(0.015625)"/>
       <path id="DejaVuSans-65" d="M 3597 1894 
L 3597 1613 
L 953 1613 
Q 991 1019 1311 708 
Q 1631 397 2203 397 
Q 2534 397 2845 478 
Q 3156 559 3463 722 
L 3463 178 
Q 3153 47 2828 -22 
Q 2503 -91 2169 -91 
Q 1331 -91 842 396 
Q 353 884 353 1716 
Q 353 2575 817 3079 
Q 1281 3584 2069 3584 
Q 2775 3584 3186 3129 
Q 3597 2675 3597 1894 
z
M 3022 2063 
Q 3016 2534 2758 2815 
Q 2500 3097 2075 3097 
Q 1594 3097 1305 2825 
Q 1016 2553 972 2059 
L 3022 2063 
z
" transform="scale(0.015625)"/>
       <path id="DejaVuSans-72" d="M 2631 2963 
Q 2534 3019 2420 3045 
Q 2306 3072 2169 3072 
Q 1681 3072 1420 2755 
Q 1159 2438 1159 1844 
L 1159 0 
L 581 0 
L 581 3500 
L 1159 3500 
L 1159 2956 
Q 1341 3275 1631 3429 
Q 1922 3584 2338 3584 
Q 2397 3584 2469 3576 
Q 2541 3569 2628 3553 
L 2631 2963 
z
" transform="scale(0.015625)"/>
       <path id="DejaVuSans-69" d="M 603 3500 
L 1178 3500 
L 1178 0 
L 603 0 
L 603 3500 
z
M 603 4863 
L 1178 4863 
L 1178 4134 
L 603 4134 
L 603 4863 
z
" transform="scale(0.015625)"/>
       <path id="DejaVuSans-6d" d="M 3328 2828 
Q 3544 3216 3844 3400 
Q 4144 3584 4550 3584 
Q 5097 3584 5394 3201 
Q 5691 2819 5691 2113 
L 5691 0 
L 5113 0 
L 5113 2094 
Q 5113 2597 4934 2840 
Q 4756 3084 4391 3084 
Q 3944 3084 3684 2787 
Q 3425 2491 3425 1978 
L 3425 0 
L 2847 0 
L 2847 2094 
Q 2847 2600 2669 2842 
Q 2491 3084 2119 3084 
Q 1678 3084 1418 2786 
Q 1159 2488 1159 1978 
L 1159 0 
L 581 0 
L 581 3500 
L 1159 3500 
L 1159 2956 
Q 1356 3278 1631 3431 
Q 1906 3584 2284 3584 
Q 2666 3584 2933 3390 
Q 3200 3197 3328 2828 
z
" transform="scale(0.015625)"/>
       <path id="DejaVuSans-6e" d="M 3513 2113 
L 3513 0 
L 2938 0 
L 2938 2094 
Q 2938 2591 2744 2837 
Q 2550 3084 2163 3084 
Q 1697 3084 1428 2787 
Q 1159 2491 1159 1978 
L 1159 0 
L 581 0 
L 581 3500 
L 1159 3500 
L 1159 2956 
Q 1366 3272 1645 3428 
Q 1925 3584 2291 3584 
Q 2894 3584 3203 3211 
Q 3513 2838 3513 2113 
z
" transform="scale(0.015625)"/>
       <path id="DejaVuSans-74" d="M 1172 4494 
L 1172 3500 
L 2356 3500 
L 2356 3053 
L 1172 3053 
L 1172 1153 
Q 1172 725 1289 603 
Q 1406 481 1766 481 
L 2356 481 
L 2356 0 
L 1766 0 
Q 1100 0 847 248 
Q 594 497 594 1153 
L 594 3053 
L 172 3053 
L 172 3500 
L 594 3500 
L 594 4494 
L 1172 4494 
z
" transform="scale(0.015625)"/>
       <path id="DejaVuSans-20" transform="scale(0.015625)"/>
       <path id="DejaVuSans-6c" d="M 603 4863 
L 1178 4863 
L 1178 0 
L 603 0 
L 603 4863 
z
" transform="scale(0.015625)"/>
       <path id="DejaVuSans-67" d="M 2906 1791 
Q 2906 2416 2648 2759 
Q 2391 3103 1925 3103 
Q 1463 3103 1205 2759 
Q 947 2416 947 1791 
Q 947 1169 1205 825 
Q 1463 481 1925 481 
Q 2391 481 2648 825 
Q 2906 1169 2906 1791 
z
M 3481 434 
Q 3481 -459 3084 -895 
Q 2688 -1331 1869 -1331 
Q 1566 -1331 1297 -1286 
Q 1028 -1241 775 -1147 
L 775 -588 
Q 1028 -725 1275 -790 
Q 1522 -856 1778 -856 
Q 2344 -856 2625 -561 
Q 2906 -266 2906 331 
L 2906 616 
Q 2728 306 2450 153 
Q 2172 0 1784 0 
Q 1141 0 747 490 
Q 353 981 353 1791 
Q 353 2603 747 3093 
Q 1141 3584 1784 3584 
Q 2172 3584 2450 3431 
Q 2728 3278 2906 2969 
L 2906 3500 
L 3481 3500 
L 3481 434 
z
" transform="scale(0.015625)"/>
       <path id="DejaVuSans-68" d="M 3513 2113 
L 3513 0 
L 2938 0 
L 2938 2094 
Q 2938 2591 2744 2837 
Q 2550 3084 2163 3084 
Q 1697 3084 1428 2787 
Q 1159 2491 1159 1978 
L 1159 0 
L 581 0 
L 581 4863 
L 1159 4863 
L 1159 2956 
Q 1366 3272 1645 3428 
Q 1925 3584 2291 3584 
Q 2894 3584 3203 3211 
Q 3513 2838 3513 2113 
z
" transform="scale(0.015625)"/>
       <path id="DejaVuSans-5b" d="M 550 4863 
L 1875 4863 
L 1875 4416 
L 1125 4416 
L 1125 -397 
L 1875 -397 
L 1875 -844 
L 550 -844 
L 550 4863 
z
" transform="scale(0.015625)"/>
       <path id="DejaVuSans-5d" d="M 1947 4863 
L 1947 -844 
L 622 -844 
L 622 -397 
L 1369 -397 
L 1369 4416 
L 622 4416 
L 622 4863 
L 1947 4863 
z
" transform="scale(0.015625)"/>
      </defs>
      <use xlink:href="#DejaVuSans-45"/>
      <use xlink:href="#DejaVuSans-78" x="63.183594"/>
      <use xlink:href="#DejaVuSans-70" x="122.363281"/>
      <use xlink:href="#DejaVuSans-65" x="185.839844"/>
      <use xlink:href="#DejaVuSans-72" x="247.363281"/>
      <use xlink:href="#DejaVuSans-69" x="288.476562"/>
      <use xlink:href="#DejaVuSans-6d" x="316.259766"/>
      <use xlink:href="#DejaVuSans-65" x="413.671875"/>
      <use xlink:href="#DejaVuSans-6e" x="475.195312"/>
      <use xlink:href="#DejaVuSans-74" x="538.574219"/>
      <use xlink:href="#DejaVuSans-20" x="577.783203"/>
      <use xlink:href="#DejaVuSans-6c" x="609.570312"/>
      <use xlink:href="#DejaVuSans-65" x="637.353516"/>
      <use xlink:href="#DejaVuSans-6e" x="698.876953"/>
      <use xlink:href="#DejaVuSans-67" x="762.255859"/>
      <use xlink:href="#DejaVuSans-74" x="825.732422"/>
      <use xlink:href="#DejaVuSans-68" x="864.941406"/>
      <use xlink:href="#DejaVuSans-20" x="928.320312"/>
      <use xlink:href="#DejaVuSans-5b" x="960.107422"/>
      <use xlink:href="#DejaVuSans-6d" x="999.121094"/>
      <use xlink:href="#DejaVuSans-69" x="1096.533203"/>
      <use xlink:href="#DejaVuSans-6e" x="1124.316406"/>
      <use xlink:href="#DejaVuSans-5d" x="1187.695312"/>
     </g>
    </g>
   </g>
   <g id="matplotlib.axis_2">
    <g id="ytick_1">
     <g id="line2d_6">
      <defs>
       <path id="m27d4efa13a" d="M 0 0 
L -3.5 0 
" style="stroke: #000000; stroke-width: 0.8"/>
      </defs>
      <g>
       <use xlink:href="#m27d4efa13a" x="126" y="268.56" style="stroke: #000000; stroke-width: 0.8"/>
      </g>
     </g>
     <g id="text_7">
      <!-- deg sniff left dish -->
      <g transform="translate(32.379687 272.359219) scale(0.1 -0.1)">
       <defs>
        <path id="DejaVuSans-64" d="M 2906 2969 
L 2906 4863 
L 3481 4863 
L 3481 0 
L 2906 0 
L 2906 525 
Q 2725 213 2448 61 
Q 2172 -91 1784 -91 
Q 1150 -91 751 415 
Q 353 922 353 1747 
Q 353 2572 751 3078 
Q 1150 3584 1784 3584 
Q 2172 3584 2448 3432 
Q 2725 3281 2906 2969 
z
M 947 1747 
Q 947 1113 1208 752 
Q 1469 391 1925 391 
Q 2381 391 2643 752 
Q 2906 1113 2906 1747 
Q 2906 2381 2643 2742 
Q 2381 3103 1925 3103 
Q 1469 3103 1208 2742 
Q 947 2381 947 1747 
z
" transform="scale(0.015625)"/>
        <path id="DejaVuSans-73" d="M 2834 3397 
L 2834 2853 
Q 2591 2978 2328 3040 
Q 2066 3103 1784 3103 
Q 1356 3103 1142 2972 
Q 928 2841 928 2578 
Q 928 2378 1081 2264 
Q 1234 2150 1697 2047 
L 1894 2003 
Q 2506 1872 2764 1633 
Q 3022 1394 3022 966 
Q 3022 478 2636 193 
Q 2250 -91 1575 -91 
Q 1294 -91 989 -36 
Q 684 19 347 128 
L 347 722 
Q 666 556 975 473 
Q 1284 391 1588 391 
Q 1994 391 2212 530 
Q 2431 669 2431 922 
Q 2431 1156 2273 1281 
Q 2116 1406 1581 1522 
L 1381 1569 
Q 847 1681 609 1914 
Q 372 2147 372 2553 
Q 372 3047 722 3315 
Q 1072 3584 1716 3584 
Q 2034 3584 2315 3537 
Q 2597 3491 2834 3397 
z
" transform="scale(0.015625)"/>
        <path id="DejaVuSans-66" d="M 2375 4863 
L 2375 4384 
L 1825 4384 
Q 1516 4384 1395 4259 
Q 1275 4134 1275 3809 
L 1275 3500 
L 2222 3500 
L 2222 3053 
L 1275 3053 
L 1275 0 
L 697 0 
L 697 3053 
L 147 3053 
L 147 3500 
L 697 3500 
L 697 3744 
Q 697 4328 969 4595 
Q 1241 4863 1831 4863 
L 2375 4863 
z
" transform="scale(0.015625)"/>
       </defs>
       <use xlink:href="#DejaVuSans-64"/>
       <use xlink:href="#DejaVuSans-65" x="63.476562"/>
       <use xlink:href="#DejaVuSans-67" x="125"/>
       <use xlink:href="#DejaVuSans-20" x="188.476562"/>
       <use xlink:href="#DejaVuSans-73" x="220.263672"/>
       <use xlink:href="#DejaVuSans-6e" x="272.363281"/>
       <use xlink:href="#DejaVuSans-69" x="335.742188"/>
       <use xlink:href="#DejaVuSans-66" x="363.525391"/>
       <use xlink:href="#DejaVuSans-66" x="398.730469"/>
       <use xlink:href="#DejaVuSans-20" x="433.935547"/>
       <use xlink:href="#DejaVuSans-6c" x="465.722656"/>
       <use xlink:href="#DejaVuSans-65" x="493.505859"/>
       <use xlink:href="#DejaVuSans-66" x="555.029297"/>
       <use xlink:href="#DejaVuSans-74" x="588.484375"/>
       <use xlink:href="#DejaVuSans-20" x="627.693359"/>
       <use xlink:href="#DejaVuSans-64" x="659.480469"/>
       <use xlink:href="#DejaVuSans-69" x="722.957031"/>
       <use xlink:href="#DejaVuSans-73" x="750.740234"/>
       <use xlink:href="#DejaVuSans-68" x="802.839844"/>
      </g>
     </g>
    </g>
    <g id="ytick_2">
     <g id="line2d_7">
      <g>
       <use xlink:href="#m27d4efa13a" x="126" y="167.76" style="stroke: #000000; stroke-width: 0.8"/>
      </g>
     </g>
     <g id="text_8">
      <!-- deg sniff right dish -->
      <g transform="translate(25.08125 171.559219) scale(0.1 -0.1)">
       <use xlink:href="#DejaVuSans-64"/>
       <use xlink:href="#DejaVuSans-65" x="63.476562"/>
       <use xlink:href="#DejaVuSans-67" x="125"/>
       <use xlink:href="#DejaVuSans-20" x="188.476562"/>
       <use xlink:href="#DejaVuSans-73" x="220.263672"/>
       <use xlink:href="#DejaVuSans-6e" x="272.363281"/>
       <use xlink:href="#DejaVuSans-69" x="335.742188"/>
       <use xlink:href="#DejaVuSans-66" x="363.525391"/>
       <use xlink:href="#DejaVuSans-66" x="398.730469"/>
       <use xlink:href="#DejaVuSans-20" x="433.935547"/>
       <use xlink:href="#DejaVuSans-72" x="465.722656"/>
       <use xlink:href="#DejaVuSans-69" x="506.835938"/>
       <use xlink:href="#DejaVuSans-67" x="534.619141"/>
       <use xlink:href="#DejaVuSans-68" x="598.095703"/>
       <use xlink:href="#DejaVuSans-74" x="661.474609"/>
       <use xlink:href="#DejaVuSans-20" x="700.683594"/>
       <use xlink:href="#DejaVuSans-64" x="732.470703"/>
       <use xlink:href="#DejaVuSans-69" x="795.947266"/>
       <use xlink:href="#DejaVuSans-73" x="823.730469"/>
       <use xlink:href="#DejaVuSans-68" x="875.830078"/>
      </g>
     </g>
    </g>
   </g>
   <g id="EventCollection_1">
    <path d="M 161.509091 218.16 
L 161.509091 318.96 
" clip-path="url(#p519e8a9883)" style="fill: none; stroke: #bf00bf; stroke-width: 0.5"/>
    <path d="M 161.59573 218.16 
L 161.59573 318.96 
" clip-path="url(#p519e8a9883)" style="fill: none; stroke: #bf00bf; stroke-width: 0.5"/>
    <path d="M 161.682369 218.16 
L 161.682369 318.96 
" clip-path="url(#p519e8a9883)" style="fill: none; stroke: #bf00bf; stroke-width: 0.5"/>
    <path d="M 178.490381 218.16 
L 178.490381 318.96 
" clip-path="url(#p519e8a9883)" style="fill: none; stroke: #bf00bf; stroke-width: 0.5"/>
    <path d="M 178.57702 218.16 
L 178.57702 318.96 
" clip-path="url(#p519e8a9883)" style="fill: none; stroke: #bf00bf; stroke-width: 0.5"/>
    <path d="M 178.66366 218.16 
L 178.66366 318.96 
" clip-path="url(#p519e8a9883)" style="fill: none; stroke: #bf00bf; stroke-width: 0.5"/>
    <path d="M 178.750299 218.16 
L 178.750299 318.96 
" clip-path="url(#p519e8a9883)" style="fill: none; stroke: #bf00bf; stroke-width: 0.5"/>
    <path d="M 181.002919 218.16 
L 181.002919 318.96 
" clip-path="url(#p519e8a9883)" style="fill: none; stroke: #bf00bf; stroke-width: 0.5"/>
    <path d="M 181.089558 218.16 
L 181.089558 318.96 
" clip-path="url(#p519e8a9883)" style="fill: none; stroke: #bf00bf; stroke-width: 0.5"/>
    <path d="M 181.176198 218.16 
L 181.176198 318.96 
" clip-path="url(#p519e8a9883)" style="fill: none; stroke: #bf00bf; stroke-width: 0.5"/>
    <path d="M 181.262837 218.16 
L 181.262837 318.96 
" clip-path="url(#p519e8a9883)" style="fill: none; stroke: #bf00bf; stroke-width: 0.5"/>
    <path d="M 181.349476 218.16 
L 181.349476 318.96 
" clip-path="url(#p519e8a9883)" style="fill: none; stroke: #bf00bf; stroke-width: 0.5"/>
    <path d="M 181.436115 218.16 
L 181.436115 318.96 
" clip-path="url(#p519e8a9883)" style="fill: none; stroke: #bf00bf; stroke-width: 0.5"/>
    <path d="M 181.522754 218.16 
L 181.522754 318.96 
" clip-path="url(#p519e8a9883)" style="fill: none; stroke: #bf00bf; stroke-width: 0.5"/>
    <path d="M 487.185979 218.16 
L 487.185979 318.96 
" clip-path="url(#p519e8a9883)" style="fill: none; stroke: #bf00bf; stroke-width: 0.5"/>
    <path d="M 487.272619 218.16 
L 487.272619 318.96 
" clip-path="url(#p519e8a9883)" style="fill: none; stroke: #bf00bf; stroke-width: 0.5"/>
    <path d="M 487.359258 218.16 
L 487.359258 318.96 
" clip-path="url(#p519e8a9883)" style="fill: none; stroke: #bf00bf; stroke-width: 0.5"/>
    <path d="M 487.445897 218.16 
L 487.445897 318.96 
" clip-path="url(#p519e8a9883)" style="fill: none; stroke: #bf00bf; stroke-width: 0.5"/>
    <path d="M 487.532536 218.16 
L 487.532536 318.96 
" clip-path="url(#p519e8a9883)" style="fill: none; stroke: #bf00bf; stroke-width: 0.5"/>
    <path d="M 487.619176 218.16 
L 487.619176 318.96 
" clip-path="url(#p519e8a9883)" style="fill: none; stroke: #bf00bf; stroke-width: 0.5"/>
    <path d="M 487.705815 218.16 
L 487.705815 318.96 
" clip-path="url(#p519e8a9883)" style="fill: none; stroke: #bf00bf; stroke-width: 0.5"/>
    <path d="M 487.792454 218.16 
L 487.792454 318.96 
" clip-path="url(#p519e8a9883)" style="fill: none; stroke: #bf00bf; stroke-width: 0.5"/>
    <path d="M 487.879093 218.16 
L 487.879093 318.96 
" clip-path="url(#p519e8a9883)" style="fill: none; stroke: #bf00bf; stroke-width: 0.5"/>
    <path d="M 487.965732 218.16 
L 487.965732 318.96 
" clip-path="url(#p519e8a9883)" style="fill: none; stroke: #bf00bf; stroke-width: 0.5"/>
    <path d="M 719.898967 218.16 
L 719.898967 318.96 
" clip-path="url(#p519e8a9883)" style="fill: none; stroke: #bf00bf; stroke-width: 0.5"/>
    <path d="M 719.985607 218.16 
L 719.985607 318.96 
" clip-path="url(#p519e8a9883)" style="fill: none; stroke: #bf00bf; stroke-width: 0.5"/>
    <path d="M 720.072246 218.16 
L 720.072246 318.96 
" clip-path="url(#p519e8a9883)" style="fill: none; stroke: #bf00bf; stroke-width: 0.5"/>
    <path d="M 720.158885 218.16 
L 720.158885 318.96 
" clip-path="url(#p519e8a9883)" style="fill: none; stroke: #bf00bf; stroke-width: 0.5"/>
    <path d="M 720.245524 218.16 
L 720.245524 318.96 
" clip-path="url(#p519e8a9883)" style="fill: none; stroke: #bf00bf; stroke-width: 0.5"/>
    <path d="M 720.332164 218.16 
L 720.332164 318.96 
" clip-path="url(#p519e8a9883)" style="fill: none; stroke: #bf00bf; stroke-width: 0.5"/>
    <path d="M 720.418803 218.16 
L 720.418803 318.96 
" clip-path="url(#p519e8a9883)" style="fill: none; stroke: #bf00bf; stroke-width: 0.5"/>
    <path d="M 720.505442 218.16 
L 720.505442 318.96 
" clip-path="url(#p519e8a9883)" style="fill: none; stroke: #bf00bf; stroke-width: 0.5"/>
    <path d="M 729.949119 218.16 
L 729.949119 318.96 
" clip-path="url(#p519e8a9883)" style="fill: none; stroke: #bf00bf; stroke-width: 0.5"/>
    <path d="M 730.035758 218.16 
L 730.035758 318.96 
" clip-path="url(#p519e8a9883)" style="fill: none; stroke: #bf00bf; stroke-width: 0.5"/>
    <path d="M 730.122397 218.16 
L 730.122397 318.96 
" clip-path="url(#p519e8a9883)" style="fill: none; stroke: #bf00bf; stroke-width: 0.5"/>
    <path d="M 730.209037 218.16 
L 730.209037 318.96 
" clip-path="url(#p519e8a9883)" style="fill: none; stroke: #bf00bf; stroke-width: 0.5"/>
    <path d="M 730.295676 218.16 
L 730.295676 318.96 
" clip-path="url(#p519e8a9883)" style="fill: none; stroke: #bf00bf; stroke-width: 0.5"/>
    <path d="M 730.815511 218.16 
L 730.815511 318.96 
" clip-path="url(#p519e8a9883)" style="fill: none; stroke: #bf00bf; stroke-width: 0.5"/>
    <path d="M 730.90215 218.16 
L 730.90215 318.96 
" clip-path="url(#p519e8a9883)" style="fill: none; stroke: #bf00bf; stroke-width: 0.5"/>
    <path d="M 730.98879 218.16 
L 730.98879 318.96 
" clip-path="url(#p519e8a9883)" style="fill: none; stroke: #bf00bf; stroke-width: 0.5"/>
    <path d="M 731.075429 218.16 
L 731.075429 318.96 
" clip-path="url(#p519e8a9883)" style="fill: none; stroke: #bf00bf; stroke-width: 0.5"/>
    <path d="M 731.162068 218.16 
L 731.162068 318.96 
" clip-path="url(#p519e8a9883)" style="fill: none; stroke: #bf00bf; stroke-width: 0.5"/>
    <path d="M 731.248707 218.16 
L 731.248707 318.96 
" clip-path="url(#p519e8a9883)" style="fill: none; stroke: #bf00bf; stroke-width: 0.5"/>
    <path d="M 731.335347 218.16 
L 731.335347 318.96 
" clip-path="url(#p519e8a9883)" style="fill: none; stroke: #bf00bf; stroke-width: 0.5"/>
    <path d="M 731.421986 218.16 
L 731.421986 318.96 
" clip-path="url(#p519e8a9883)" style="fill: none; stroke: #bf00bf; stroke-width: 0.5"/>
    <path d="M 731.508625 218.16 
L 731.508625 318.96 
" clip-path="url(#p519e8a9883)" style="fill: none; stroke: #bf00bf; stroke-width: 0.5"/>
    <path d="M 731.595264 218.16 
L 731.595264 318.96 
" clip-path="url(#p519e8a9883)" style="fill: none; stroke: #bf00bf; stroke-width: 0.5"/>
    <path d="M 731.681904 218.16 
L 731.681904 318.96 
" clip-path="url(#p519e8a9883)" style="fill: none; stroke: #bf00bf; stroke-width: 0.5"/>
    <path d="M 731.768543 218.16 
L 731.768543 318.96 
" clip-path="url(#p519e8a9883)" style="fill: none; stroke: #bf00bf; stroke-width: 0.5"/>
    <path d="M 731.855182 218.16 
L 731.855182 318.96 
" clip-path="url(#p519e8a9883)" style="fill: none; stroke: #bf00bf; stroke-width: 0.5"/>
    <path d="M 731.941821 218.16 
L 731.941821 318.96 
" clip-path="url(#p519e8a9883)" style="fill: none; stroke: #bf00bf; stroke-width: 0.5"/>
    <path d="M 732.028461 218.16 
L 732.028461 318.96 
" clip-path="url(#p519e8a9883)" style="fill: none; stroke: #bf00bf; stroke-width: 0.5"/>
    <path d="M 732.1151 218.16 
L 732.1151 318.96 
" clip-path="url(#p519e8a9883)" style="fill: none; stroke: #bf00bf; stroke-width: 0.5"/>
    <path d="M 732.201739 218.16 
L 732.201739 318.96 
" clip-path="url(#p519e8a9883)" style="fill: none; stroke: #bf00bf; stroke-width: 0.5"/>
    <path d="M 732.288378 218.16 
L 732.288378 318.96 
" clip-path="url(#p519e8a9883)" style="fill: none; stroke: #bf00bf; stroke-width: 0.5"/>
    <path d="M 732.375017 218.16 
L 732.375017 318.96 
" clip-path="url(#p519e8a9883)" style="fill: none; stroke: #bf00bf; stroke-width: 0.5"/>
    <path d="M 732.461657 218.16 
L 732.461657 318.96 
" clip-path="url(#p519e8a9883)" style="fill: none; stroke: #bf00bf; stroke-width: 0.5"/>
    <path d="M 732.548296 218.16 
L 732.548296 318.96 
" clip-path="url(#p519e8a9883)" style="fill: none; stroke: #bf00bf; stroke-width: 0.5"/>
    <path d="M 732.634935 218.16 
L 732.634935 318.96 
" clip-path="url(#p519e8a9883)" style="fill: none; stroke: #bf00bf; stroke-width: 0.5"/>
    <path d="M 732.721574 218.16 
L 732.721574 318.96 
" clip-path="url(#p519e8a9883)" style="fill: none; stroke: #bf00bf; stroke-width: 0.5"/>
    <path d="M 732.808214 218.16 
L 732.808214 318.96 
" clip-path="url(#p519e8a9883)" style="fill: none; stroke: #bf00bf; stroke-width: 0.5"/>
    <path d="M 732.894853 218.16 
L 732.894853 318.96 
" clip-path="url(#p519e8a9883)" style="fill: none; stroke: #bf00bf; stroke-width: 0.5"/>
    <path d="M 732.981492 218.16 
L 732.981492 318.96 
" clip-path="url(#p519e8a9883)" style="fill: none; stroke: #bf00bf; stroke-width: 0.5"/>
    <path d="M 733.068131 218.16 
L 733.068131 318.96 
" clip-path="url(#p519e8a9883)" style="fill: none; stroke: #bf00bf; stroke-width: 0.5"/>
    <path d="M 736.273783 218.16 
L 736.273783 318.96 
" clip-path="url(#p519e8a9883)" style="fill: none; stroke: #bf00bf; stroke-width: 0.5"/>
    <path d="M 736.360422 218.16 
L 736.360422 318.96 
" clip-path="url(#p519e8a9883)" style="fill: none; stroke: #bf00bf; stroke-width: 0.5"/>
    <path d="M 736.447062 218.16 
L 736.447062 318.96 
" clip-path="url(#p519e8a9883)" style="fill: none; stroke: #bf00bf; stroke-width: 0.5"/>
    <path d="M 736.533701 218.16 
L 736.533701 318.96 
" clip-path="url(#p519e8a9883)" style="fill: none; stroke: #bf00bf; stroke-width: 0.5"/>
    <path d="M 736.62034 218.16 
L 736.62034 318.96 
" clip-path="url(#p519e8a9883)" style="fill: none; stroke: #bf00bf; stroke-width: 0.5"/>
    <path d="M 736.706979 218.16 
L 736.706979 318.96 
" clip-path="url(#p519e8a9883)" style="fill: none; stroke: #bf00bf; stroke-width: 0.5"/>
    <path d="M 736.793619 218.16 
L 736.793619 318.96 
" clip-path="url(#p519e8a9883)" style="fill: none; stroke: #bf00bf; stroke-width: 0.5"/>
    <path d="M 736.880258 218.16 
L 736.880258 318.96 
" clip-path="url(#p519e8a9883)" style="fill: none; stroke: #bf00bf; stroke-width: 0.5"/>
    <path d="M 736.966897 218.16 
L 736.966897 318.96 
" clip-path="url(#p519e8a9883)" style="fill: none; stroke: #bf00bf; stroke-width: 0.5"/>
    <path d="M 737.053536 218.16 
L 737.053536 318.96 
" clip-path="url(#p519e8a9883)" style="fill: none; stroke: #bf00bf; stroke-width: 0.5"/>
    <path d="M 737.140175 218.16 
L 737.140175 318.96 
" clip-path="url(#p519e8a9883)" style="fill: none; stroke: #bf00bf; stroke-width: 0.5"/>
    <path d="M 737.226815 218.16 
L 737.226815 318.96 
" clip-path="url(#p519e8a9883)" style="fill: none; stroke: #bf00bf; stroke-width: 0.5"/>
    <path d="M 737.313454 218.16 
L 737.313454 318.96 
" clip-path="url(#p519e8a9883)" style="fill: none; stroke: #bf00bf; stroke-width: 0.5"/>
    <path d="M 737.400093 218.16 
L 737.400093 318.96 
" clip-path="url(#p519e8a9883)" style="fill: none; stroke: #bf00bf; stroke-width: 0.5"/>
    <path d="M 737.486732 218.16 
L 737.486732 318.96 
" clip-path="url(#p519e8a9883)" style="fill: none; stroke: #bf00bf; stroke-width: 0.5"/>
    <path d="M 737.573372 218.16 
L 737.573372 318.96 
" clip-path="url(#p519e8a9883)" style="fill: none; stroke: #bf00bf; stroke-width: 0.5"/>
    <path d="M 737.660011 218.16 
L 737.660011 318.96 
" clip-path="url(#p519e8a9883)" style="fill: none; stroke: #bf00bf; stroke-width: 0.5"/>
    <path d="M 860.341169 218.16 
L 860.341169 318.96 
" clip-path="url(#p519e8a9883)" style="fill: none; stroke: #bf00bf; stroke-width: 0.5"/>
    <path d="M 860.427808 218.16 
L 860.427808 318.96 
" clip-path="url(#p519e8a9883)" style="fill: none; stroke: #bf00bf; stroke-width: 0.5"/>
    <path d="M 860.514448 218.16 
L 860.514448 318.96 
" clip-path="url(#p519e8a9883)" style="fill: none; stroke: #bf00bf; stroke-width: 0.5"/>
    <path d="M 860.601087 218.16 
L 860.601087 318.96 
" clip-path="url(#p519e8a9883)" style="fill: none; stroke: #bf00bf; stroke-width: 0.5"/>
    <path d="M 860.687726 218.16 
L 860.687726 318.96 
" clip-path="url(#p519e8a9883)" style="fill: none; stroke: #bf00bf; stroke-width: 0.5"/>
    <path d="M 860.774365 218.16 
L 860.774365 318.96 
" clip-path="url(#p519e8a9883)" style="fill: none; stroke: #bf00bf; stroke-width: 0.5"/>
    <path d="M 869.26501 218.16 
L 869.26501 318.96 
" clip-path="url(#p519e8a9883)" style="fill: none; stroke: #bf00bf; stroke-width: 0.5"/>
    <path d="M 869.35165 218.16 
L 869.35165 318.96 
" clip-path="url(#p519e8a9883)" style="fill: none; stroke: #bf00bf; stroke-width: 0.5"/>
    <path d="M 869.438289 218.16 
L 869.438289 318.96 
" clip-path="url(#p519e8a9883)" style="fill: none; stroke: #bf00bf; stroke-width: 0.5"/>
    <path d="M 869.524928 218.16 
L 869.524928 318.96 
" clip-path="url(#p519e8a9883)" style="fill: none; stroke: #bf00bf; stroke-width: 0.5"/>
    <path d="M 869.611567 218.16 
L 869.611567 318.96 
" clip-path="url(#p519e8a9883)" style="fill: none; stroke: #bf00bf; stroke-width: 0.5"/>
    <path d="M 869.698207 218.16 
L 869.698207 318.96 
" clip-path="url(#p519e8a9883)" style="fill: none; stroke: #bf00bf; stroke-width: 0.5"/>
    <path d="M 869.784846 218.16 
L 869.784846 318.96 
" clip-path="url(#p519e8a9883)" style="fill: none; stroke: #bf00bf; stroke-width: 0.5"/>
    <path d="M 869.871485 218.16 
L 869.871485 318.96 
" clip-path="url(#p519e8a9883)" style="fill: none; stroke: #bf00bf; stroke-width: 0.5"/>
    <path d="M 869.958124 218.16 
L 869.958124 318.96 
" clip-path="url(#p519e8a9883)" style="fill: none; stroke: #bf00bf; stroke-width: 0.5"/>
    <path d="M 870.044764 218.16 
L 870.044764 318.96 
" clip-path="url(#p519e8a9883)" style="fill: none; stroke: #bf00bf; stroke-width: 0.5"/>
    <path d="M 870.131403 218.16 
L 870.131403 318.96 
" clip-path="url(#p519e8a9883)" style="fill: none; stroke: #bf00bf; stroke-width: 0.5"/>
    <path d="M 870.218042 218.16 
L 870.218042 318.96 
" clip-path="url(#p519e8a9883)" style="fill: none; stroke: #bf00bf; stroke-width: 0.5"/>
    <path d="M 870.304681 218.16 
L 870.304681 318.96 
" clip-path="url(#p519e8a9883)" style="fill: none; stroke: #bf00bf; stroke-width: 0.5"/>
    <path d="M 870.391321 218.16 
L 870.391321 318.96 
" clip-path="url(#p519e8a9883)" style="fill: none; stroke: #bf00bf; stroke-width: 0.5"/>
    <path d="M 870.47796 218.16 
L 870.47796 318.96 
" clip-path="url(#p519e8a9883)" style="fill: none; stroke: #bf00bf; stroke-width: 0.5"/>
    <path d="M 870.564599 218.16 
L 870.564599 318.96 
" clip-path="url(#p519e8a9883)" style="fill: none; stroke: #bf00bf; stroke-width: 0.5"/>
    <path d="M 870.651238 218.16 
L 870.651238 318.96 
" clip-path="url(#p519e8a9883)" style="fill: none; stroke: #bf00bf; stroke-width: 0.5"/>
    <path d="M 870.737877 218.16 
L 870.737877 318.96 
" clip-path="url(#p519e8a9883)" style="fill: none; stroke: #bf00bf; stroke-width: 0.5"/>
    <path d="M 871.084434 218.16 
L 871.084434 318.96 
" clip-path="url(#p519e8a9883)" style="fill: none; stroke: #bf00bf; stroke-width: 0.5"/>
    <path d="M 871.171074 218.16 
L 871.171074 318.96 
" clip-path="url(#p519e8a9883)" style="fill: none; stroke: #bf00bf; stroke-width: 0.5"/>
    <path d="M 871.257713 218.16 
L 871.257713 318.96 
" clip-path="url(#p519e8a9883)" style="fill: none; stroke: #bf00bf; stroke-width: 0.5"/>
    <path d="M 871.344352 218.16 
L 871.344352 318.96 
" clip-path="url(#p519e8a9883)" style="fill: none; stroke: #bf00bf; stroke-width: 0.5"/>
    <path d="M 871.430991 218.16 
L 871.430991 318.96 
" clip-path="url(#p519e8a9883)" style="fill: none; stroke: #bf00bf; stroke-width: 0.5"/>
    <path d="M 871.517631 218.16 
L 871.517631 318.96 
" clip-path="url(#p519e8a9883)" style="fill: none; stroke: #bf00bf; stroke-width: 0.5"/>
    <path d="M 871.60427 218.16 
L 871.60427 318.96 
" clip-path="url(#p519e8a9883)" style="fill: none; stroke: #bf00bf; stroke-width: 0.5"/>
    <path d="M 871.690909 218.16 
L 871.690909 318.96 
" clip-path="url(#p519e8a9883)" style="fill: none; stroke: #bf00bf; stroke-width: 0.5"/>
   </g>
   <g id="EventCollection_2">
    <path d="M 163.241876 117.36 
L 163.241876 218.16 
" clip-path="url(#p519e8a9883)" style="fill: none; stroke: #bfbf00; stroke-width: 0.5"/>
    <path d="M 163.328515 117.36 
L 163.328515 218.16 
" clip-path="url(#p519e8a9883)" style="fill: none; stroke: #bfbf00; stroke-width: 0.5"/>
    <path d="M 163.415154 117.36 
L 163.415154 218.16 
" clip-path="url(#p519e8a9883)" style="fill: none; stroke: #bfbf00; stroke-width: 0.5"/>
    <path d="M 163.501793 117.36 
L 163.501793 218.16 
" clip-path="url(#p519e8a9883)" style="fill: none; stroke: #bfbf00; stroke-width: 0.5"/>
    <path d="M 163.588433 117.36 
L 163.588433 218.16 
" clip-path="url(#p519e8a9883)" style="fill: none; stroke: #bfbf00; stroke-width: 0.5"/>
    <path d="M 163.675072 117.36 
L 163.675072 218.16 
" clip-path="url(#p519e8a9883)" style="fill: none; stroke: #bfbf00; stroke-width: 0.5"/>
    <path d="M 163.761711 117.36 
L 163.761711 218.16 
" clip-path="url(#p519e8a9883)" style="fill: none; stroke: #bfbf00; stroke-width: 0.5"/>
    <path d="M 163.84835 117.36 
L 163.84835 218.16 
" clip-path="url(#p519e8a9883)" style="fill: none; stroke: #bfbf00; stroke-width: 0.5"/>
    <path d="M 163.93499 117.36 
L 163.93499 218.16 
" clip-path="url(#p519e8a9883)" style="fill: none; stroke: #bfbf00; stroke-width: 0.5"/>
    <path d="M 164.021629 117.36 
L 164.021629 218.16 
" clip-path="url(#p519e8a9883)" style="fill: none; stroke: #bfbf00; stroke-width: 0.5"/>
    <path d="M 164.108268 117.36 
L 164.108268 218.16 
" clip-path="url(#p519e8a9883)" style="fill: none; stroke: #bfbf00; stroke-width: 0.5"/>
    <path d="M 164.194907 117.36 
L 164.194907 218.16 
" clip-path="url(#p519e8a9883)" style="fill: none; stroke: #bfbf00; stroke-width: 0.5"/>
    <path d="M 164.281546 117.36 
L 164.281546 218.16 
" clip-path="url(#p519e8a9883)" style="fill: none; stroke: #bfbf00; stroke-width: 0.5"/>
    <path d="M 164.368186 117.36 
L 164.368186 218.16 
" clip-path="url(#p519e8a9883)" style="fill: none; stroke: #bfbf00; stroke-width: 0.5"/>
    <path d="M 164.454825 117.36 
L 164.454825 218.16 
" clip-path="url(#p519e8a9883)" style="fill: none; stroke: #bfbf00; stroke-width: 0.5"/>
    <path d="M 164.541464 117.36 
L 164.541464 218.16 
" clip-path="url(#p519e8a9883)" style="fill: none; stroke: #bfbf00; stroke-width: 0.5"/>
    <path d="M 164.628103 117.36 
L 164.628103 218.16 
" clip-path="url(#p519e8a9883)" style="fill: none; stroke: #bfbf00; stroke-width: 0.5"/>
    <path d="M 189.493564 117.36 
L 189.493564 218.16 
" clip-path="url(#p519e8a9883)" style="fill: none; stroke: #bfbf00; stroke-width: 0.5"/>
    <path d="M 189.580203 117.36 
L 189.580203 218.16 
" clip-path="url(#p519e8a9883)" style="fill: none; stroke: #bfbf00; stroke-width: 0.5"/>
    <path d="M 189.666843 117.36 
L 189.666843 218.16 
" clip-path="url(#p519e8a9883)" style="fill: none; stroke: #bfbf00; stroke-width: 0.5"/>
    <path d="M 189.753482 117.36 
L 189.753482 218.16 
" clip-path="url(#p519e8a9883)" style="fill: none; stroke: #bfbf00; stroke-width: 0.5"/>
    <path d="M 189.840121 117.36 
L 189.840121 218.16 
" clip-path="url(#p519e8a9883)" style="fill: none; stroke: #bfbf00; stroke-width: 0.5"/>
    <path d="M 189.92676 117.36 
L 189.92676 218.16 
" clip-path="url(#p519e8a9883)" style="fill: none; stroke: #bfbf00; stroke-width: 0.5"/>
    <path d="M 350.555904 117.36 
L 350.555904 218.16 
" clip-path="url(#p519e8a9883)" style="fill: none; stroke: #bfbf00; stroke-width: 0.5"/>
    <path d="M 350.642543 117.36 
L 350.642543 218.16 
" clip-path="url(#p519e8a9883)" style="fill: none; stroke: #bfbf00; stroke-width: 0.5"/>
    <path d="M 400.200186 117.36 
L 400.200186 218.16 
" clip-path="url(#p519e8a9883)" style="fill: none; stroke: #bfbf00; stroke-width: 0.5"/>
    <path d="M 400.286826 117.36 
L 400.286826 218.16 
" clip-path="url(#p519e8a9883)" style="fill: none; stroke: #bfbf00; stroke-width: 0.5"/>
    <path d="M 400.373465 117.36 
L 400.373465 218.16 
" clip-path="url(#p519e8a9883)" style="fill: none; stroke: #bfbf00; stroke-width: 0.5"/>
    <path d="M 400.460104 117.36 
L 400.460104 218.16 
" clip-path="url(#p519e8a9883)" style="fill: none; stroke: #bfbf00; stroke-width: 0.5"/>
    <path d="M 400.546743 117.36 
L 400.546743 218.16 
" clip-path="url(#p519e8a9883)" style="fill: none; stroke: #bfbf00; stroke-width: 0.5"/>
    <path d="M 400.633383 117.36 
L 400.633383 218.16 
" clip-path="url(#p519e8a9883)" style="fill: none; stroke: #bfbf00; stroke-width: 0.5"/>
    <path d="M 400.720022 117.36 
L 400.720022 218.16 
" clip-path="url(#p519e8a9883)" style="fill: none; stroke: #bfbf00; stroke-width: 0.5"/>
    <path d="M 400.806661 117.36 
L 400.806661 218.16 
" clip-path="url(#p519e8a9883)" style="fill: none; stroke: #bfbf00; stroke-width: 0.5"/>
    <path d="M 400.8933 117.36 
L 400.8933 218.16 
" clip-path="url(#p519e8a9883)" style="fill: none; stroke: #bfbf00; stroke-width: 0.5"/>
    <path d="M 491.084745 117.36 
L 491.084745 218.16 
" clip-path="url(#p519e8a9883)" style="fill: none; stroke: #bfbf00; stroke-width: 0.5"/>
    <path d="M 491.171384 117.36 
L 491.171384 218.16 
" clip-path="url(#p519e8a9883)" style="fill: none; stroke: #bfbf00; stroke-width: 0.5"/>
    <path d="M 491.258023 117.36 
L 491.258023 218.16 
" clip-path="url(#p519e8a9883)" style="fill: none; stroke: #bfbf00; stroke-width: 0.5"/>
    <path d="M 491.344663 117.36 
L 491.344663 218.16 
" clip-path="url(#p519e8a9883)" style="fill: none; stroke: #bfbf00; stroke-width: 0.5"/>
    <path d="M 624.682447 117.36 
L 624.682447 218.16 
" clip-path="url(#p519e8a9883)" style="fill: none; stroke: #bfbf00; stroke-width: 0.5"/>
    <path d="M 624.769086 117.36 
L 624.769086 218.16 
" clip-path="url(#p519e8a9883)" style="fill: none; stroke: #bfbf00; stroke-width: 0.5"/>
    <path d="M 624.855725 117.36 
L 624.855725 218.16 
" clip-path="url(#p519e8a9883)" style="fill: none; stroke: #bfbf00; stroke-width: 0.5"/>
    <path d="M 624.942365 117.36 
L 624.942365 218.16 
" clip-path="url(#p519e8a9883)" style="fill: none; stroke: #bfbf00; stroke-width: 0.5"/>
    <path d="M 625.029004 117.36 
L 625.029004 218.16 
" clip-path="url(#p519e8a9883)" style="fill: none; stroke: #bfbf00; stroke-width: 0.5"/>
    <path d="M 654.91954 117.36 
L 654.91954 218.16 
" clip-path="url(#p519e8a9883)" style="fill: none; stroke: #bfbf00; stroke-width: 0.5"/>
    <path d="M 655.00618 117.36 
L 655.00618 218.16 
" clip-path="url(#p519e8a9883)" style="fill: none; stroke: #bfbf00; stroke-width: 0.5"/>
    <path d="M 655.092819 117.36 
L 655.092819 218.16 
" clip-path="url(#p519e8a9883)" style="fill: none; stroke: #bfbf00; stroke-width: 0.5"/>
    <path d="M 655.179458 117.36 
L 655.179458 218.16 
" clip-path="url(#p519e8a9883)" style="fill: none; stroke: #bfbf00; stroke-width: 0.5"/>
    <path d="M 655.266097 117.36 
L 655.266097 218.16 
" clip-path="url(#p519e8a9883)" style="fill: none; stroke: #bfbf00; stroke-width: 0.5"/>
    <path d="M 655.352737 117.36 
L 655.352737 218.16 
" clip-path="url(#p519e8a9883)" style="fill: none; stroke: #bfbf00; stroke-width: 0.5"/>
    <path d="M 689.228678 117.36 
L 689.228678 218.16 
" clip-path="url(#p519e8a9883)" style="fill: none; stroke: #bfbf00; stroke-width: 0.5"/>
    <path d="M 689.315317 117.36 
L 689.315317 218.16 
" clip-path="url(#p519e8a9883)" style="fill: none; stroke: #bfbf00; stroke-width: 0.5"/>
    <path d="M 689.401956 117.36 
L 689.401956 218.16 
" clip-path="url(#p519e8a9883)" style="fill: none; stroke: #bfbf00; stroke-width: 0.5"/>
    <path d="M 689.488596 117.36 
L 689.488596 218.16 
" clip-path="url(#p519e8a9883)" style="fill: none; stroke: #bfbf00; stroke-width: 0.5"/>
    <path d="M 689.575235 117.36 
L 689.575235 218.16 
" clip-path="url(#p519e8a9883)" style="fill: none; stroke: #bfbf00; stroke-width: 0.5"/>
    <path d="M 689.661874 117.36 
L 689.661874 218.16 
" clip-path="url(#p519e8a9883)" style="fill: none; stroke: #bfbf00; stroke-width: 0.5"/>
    <path d="M 689.748513 117.36 
L 689.748513 218.16 
" clip-path="url(#p519e8a9883)" style="fill: none; stroke: #bfbf00; stroke-width: 0.5"/>
    <path d="M 689.835153 117.36 
L 689.835153 218.16 
" clip-path="url(#p519e8a9883)" style="fill: none; stroke: #bfbf00; stroke-width: 0.5"/>
    <path d="M 689.921792 117.36 
L 689.921792 218.16 
" clip-path="url(#p519e8a9883)" style="fill: none; stroke: #bfbf00; stroke-width: 0.5"/>
    <path d="M 690.008431 117.36 
L 690.008431 218.16 
" clip-path="url(#p519e8a9883)" style="fill: none; stroke: #bfbf00; stroke-width: 0.5"/>
    <path d="M 690.09507 117.36 
L 690.09507 218.16 
" clip-path="url(#p519e8a9883)" style="fill: none; stroke: #bfbf00; stroke-width: 0.5"/>
    <path d="M 690.181709 117.36 
L 690.181709 218.16 
" clip-path="url(#p519e8a9883)" style="fill: none; stroke: #bfbf00; stroke-width: 0.5"/>
    <path d="M 690.268349 117.36 
L 690.268349 218.16 
" clip-path="url(#p519e8a9883)" style="fill: none; stroke: #bfbf00; stroke-width: 0.5"/>
    <path d="M 690.354988 117.36 
L 690.354988 218.16 
" clip-path="url(#p519e8a9883)" style="fill: none; stroke: #bfbf00; stroke-width: 0.5"/>
    <path d="M 690.441627 117.36 
L 690.441627 218.16 
" clip-path="url(#p519e8a9883)" style="fill: none; stroke: #bfbf00; stroke-width: 0.5"/>
    <path d="M 690.528266 117.36 
L 690.528266 218.16 
" clip-path="url(#p519e8a9883)" style="fill: none; stroke: #bfbf00; stroke-width: 0.5"/>
    <path d="M 690.614906 117.36 
L 690.614906 218.16 
" clip-path="url(#p519e8a9883)" style="fill: none; stroke: #bfbf00; stroke-width: 0.5"/>
    <path d="M 690.701545 117.36 
L 690.701545 218.16 
" clip-path="url(#p519e8a9883)" style="fill: none; stroke: #bfbf00; stroke-width: 0.5"/>
    <path d="M 690.788184 117.36 
L 690.788184 218.16 
" clip-path="url(#p519e8a9883)" style="fill: none; stroke: #bfbf00; stroke-width: 0.5"/>
    <path d="M 690.874823 117.36 
L 690.874823 218.16 
" clip-path="url(#p519e8a9883)" style="fill: none; stroke: #bfbf00; stroke-width: 0.5"/>
    <path d="M 690.961463 117.36 
L 690.961463 218.16 
" clip-path="url(#p519e8a9883)" style="fill: none; stroke: #bfbf00; stroke-width: 0.5"/>
    <path d="M 691.048102 117.36 
L 691.048102 218.16 
" clip-path="url(#p519e8a9883)" style="fill: none; stroke: #bfbf00; stroke-width: 0.5"/>
    <path d="M 691.134741 117.36 
L 691.134741 218.16 
" clip-path="url(#p519e8a9883)" style="fill: none; stroke: #bfbf00; stroke-width: 0.5"/>
    <path d="M 691.22138 117.36 
L 691.22138 218.16 
" clip-path="url(#p519e8a9883)" style="fill: none; stroke: #bfbf00; stroke-width: 0.5"/>
    <path d="M 691.30802 117.36 
L 691.30802 218.16 
" clip-path="url(#p519e8a9883)" style="fill: none; stroke: #bfbf00; stroke-width: 0.5"/>
    <path d="M 691.394659 117.36 
L 691.394659 218.16 
" clip-path="url(#p519e8a9883)" style="fill: none; stroke: #bfbf00; stroke-width: 0.5"/>
    <path d="M 691.481298 117.36 
L 691.481298 218.16 
" clip-path="url(#p519e8a9883)" style="fill: none; stroke: #bfbf00; stroke-width: 0.5"/>
    <path d="M 691.567937 117.36 
L 691.567937 218.16 
" clip-path="url(#p519e8a9883)" style="fill: none; stroke: #bfbf00; stroke-width: 0.5"/>
    <path d="M 691.654577 117.36 
L 691.654577 218.16 
" clip-path="url(#p519e8a9883)" style="fill: none; stroke: #bfbf00; stroke-width: 0.5"/>
    <path d="M 691.741216 117.36 
L 691.741216 218.16 
" clip-path="url(#p519e8a9883)" style="fill: none; stroke: #bfbf00; stroke-width: 0.5"/>
    <path d="M 691.827855 117.36 
L 691.827855 218.16 
" clip-path="url(#p519e8a9883)" style="fill: none; stroke: #bfbf00; stroke-width: 0.5"/>
    <path d="M 691.914494 117.36 
L 691.914494 218.16 
" clip-path="url(#p519e8a9883)" style="fill: none; stroke: #bfbf00; stroke-width: 0.5"/>
    <path d="M 692.001133 117.36 
L 692.001133 218.16 
" clip-path="url(#p519e8a9883)" style="fill: none; stroke: #bfbf00; stroke-width: 0.5"/>
    <path d="M 692.087773 117.36 
L 692.087773 218.16 
" clip-path="url(#p519e8a9883)" style="fill: none; stroke: #bfbf00; stroke-width: 0.5"/>
    <path d="M 692.174412 117.36 
L 692.174412 218.16 
" clip-path="url(#p519e8a9883)" style="fill: none; stroke: #bfbf00; stroke-width: 0.5"/>
    <path d="M 692.261051 117.36 
L 692.261051 218.16 
" clip-path="url(#p519e8a9883)" style="fill: none; stroke: #bfbf00; stroke-width: 0.5"/>
    <path d="M 692.34769 117.36 
L 692.34769 218.16 
" clip-path="url(#p519e8a9883)" style="fill: none; stroke: #bfbf00; stroke-width: 0.5"/>
    <path d="M 692.43433 117.36 
L 692.43433 218.16 
" clip-path="url(#p519e8a9883)" style="fill: none; stroke: #bfbf00; stroke-width: 0.5"/>
    <path d="M 692.520969 117.36 
L 692.520969 218.16 
" clip-path="url(#p519e8a9883)" style="fill: none; stroke: #bfbf00; stroke-width: 0.5"/>
    <path d="M 692.607608 117.36 
L 692.607608 218.16 
" clip-path="url(#p519e8a9883)" style="fill: none; stroke: #bfbf00; stroke-width: 0.5"/>
    <path d="M 692.694247 117.36 
L 692.694247 218.16 
" clip-path="url(#p519e8a9883)" style="fill: none; stroke: #bfbf00; stroke-width: 0.5"/>
    <path d="M 816.761633 117.36 
L 816.761633 218.16 
" clip-path="url(#p519e8a9883)" style="fill: none; stroke: #bfbf00; stroke-width: 0.5"/>
    <path d="M 816.848273 117.36 
L 816.848273 218.16 
" clip-path="url(#p519e8a9883)" style="fill: none; stroke: #bfbf00; stroke-width: 0.5"/>
    <path d="M 816.934912 117.36 
L 816.934912 218.16 
" clip-path="url(#p519e8a9883)" style="fill: none; stroke: #bfbf00; stroke-width: 0.5"/>
    <path d="M 817.021551 117.36 
L 817.021551 218.16 
" clip-path="url(#p519e8a9883)" style="fill: none; stroke: #bfbf00; stroke-width: 0.5"/>
    <path d="M 817.10819 117.36 
L 817.10819 218.16 
" clip-path="url(#p519e8a9883)" style="fill: none; stroke: #bfbf00; stroke-width: 0.5"/>
   </g>
   <g id="patch_3">
    <path d="M 126 384.48 
L 126 51.84 
" style="fill: none; stroke: #000000; stroke-width: 0.8; stroke-linejoin: miter; stroke-linecap: square"/>
   </g>
   <g id="patch_4">
    <path d="M 126 384.48 
L 907.2 384.48 
" style="fill: none; stroke: #000000; stroke-width: 0.8; stroke-linejoin: miter; stroke-linecap: square"/>
   </g>
   <g id="text_9">
    <!-- Mouse: 117; Paradigm: V1.4_Experiment_Urinright; Date: 240307 -->
    <g transform="translate(319.756875 45.84) scale(0.12 -0.12)">
     <defs>
      <path id="DejaVuSans-4d" d="M 628 4666 
L 1569 4666 
L 2759 1491 
L 3956 4666 
L 4897 4666 
L 4897 0 
L 4281 0 
L 4281 4097 
L 3078 897 
L 2444 897 
L 1241 4097 
L 1241 0 
L 628 0 
L 628 4666 
z
" transform="scale(0.015625)"/>
      <path id="DejaVuSans-6f" d="M 1959 3097 
Q 1497 3097 1228 2736 
Q 959 2375 959 1747 
Q 959 1119 1226 758 
Q 1494 397 1959 397 
Q 2419 397 2687 759 
Q 2956 1122 2956 1747 
Q 2956 2369 2687 2733 
Q 2419 3097 1959 3097 
z
M 1959 3584 
Q 2709 3584 3137 3096 
Q 3566 2609 3566 1747 
Q 3566 888 3137 398 
Q 2709 -91 1959 -91 
Q 1206 -91 779 398 
Q 353 888 353 1747 
Q 353 2609 779 3096 
Q 1206 3584 1959 3584 
z
" transform="scale(0.015625)"/>
      <path id="DejaVuSans-75" d="M 544 1381 
L 544 3500 
L 1119 3500 
L 1119 1403 
Q 1119 906 1312 657 
Q 1506 409 1894 409 
Q 2359 409 2629 706 
Q 2900 1003 2900 1516 
L 2900 3500 
L 3475 3500 
L 3475 0 
L 2900 0 
L 2900 538 
Q 2691 219 2414 64 
Q 2138 -91 1772 -91 
Q 1169 -91 856 284 
Q 544 659 544 1381 
z
M 1991 3584 
L 1991 3584 
z
" transform="scale(0.015625)"/>
      <path id="DejaVuSans-3a" d="M 750 794 
L 1409 794 
L 1409 0 
L 750 0 
L 750 794 
z
M 750 3309 
L 1409 3309 
L 1409 2516 
L 750 2516 
L 750 3309 
z
" transform="scale(0.015625)"/>
      <path id="DejaVuSans-31" d="M 794 531 
L 1825 531 
L 1825 4091 
L 703 3866 
L 703 4441 
L 1819 4666 
L 2450 4666 
L 2450 531 
L 3481 531 
L 3481 0 
L 794 0 
L 794 531 
z
" transform="scale(0.015625)"/>
      <path id="DejaVuSans-37" d="M 525 4666 
L 3525 4666 
L 3525 4397 
L 1831 0 
L 1172 0 
L 2766 4134 
L 525 4134 
L 525 4666 
z
" transform="scale(0.015625)"/>
      <path id="DejaVuSans-3b" d="M 750 3309 
L 1409 3309 
L 1409 2516 
L 750 2516 
L 750 3309 
z
M 750 794 
L 1409 794 
L 1409 256 
L 897 -744 
L 494 -744 
L 750 256 
L 750 794 
z
" transform="scale(0.015625)"/>
      <path id="DejaVuSans-50" d="M 1259 4147 
L 1259 2394 
L 2053 2394 
Q 2494 2394 2734 2622 
Q 2975 2850 2975 3272 
Q 2975 3691 2734 3919 
Q 2494 4147 2053 4147 
L 1259 4147 
z
M 628 4666 
L 2053 4666 
Q 2838 4666 3239 4311 
Q 3641 3956 3641 3272 
Q 3641 2581 3239 2228 
Q 2838 1875 2053 1875 
L 1259 1875 
L 1259 0 
L 628 0 
L 628 4666 
z
" transform="scale(0.015625)"/>
      <path id="DejaVuSans-61" d="M 2194 1759 
Q 1497 1759 1228 1600 
Q 959 1441 959 1056 
Q 959 750 1161 570 
Q 1363 391 1709 391 
Q 2188 391 2477 730 
Q 2766 1069 2766 1631 
L 2766 1759 
L 2194 1759 
z
M 3341 1997 
L 3341 0 
L 2766 0 
L 2766 531 
Q 2569 213 2275 61 
Q 1981 -91 1556 -91 
Q 1019 -91 701 211 
Q 384 513 384 1019 
Q 384 1609 779 1909 
Q 1175 2209 1959 2209 
L 2766 2209 
L 2766 2266 
Q 2766 2663 2505 2880 
Q 2244 3097 1772 3097 
Q 1472 3097 1187 3025 
Q 903 2953 641 2809 
L 641 3341 
Q 956 3463 1253 3523 
Q 1550 3584 1831 3584 
Q 2591 3584 2966 3190 
Q 3341 2797 3341 1997 
z
" transform="scale(0.015625)"/>
      <path id="DejaVuSans-56" d="M 1831 0 
L 50 4666 
L 709 4666 
L 2188 738 
L 3669 4666 
L 4325 4666 
L 2547 0 
L 1831 0 
z
" transform="scale(0.015625)"/>
      <path id="DejaVuSans-2e" d="M 684 794 
L 1344 794 
L 1344 0 
L 684 0 
L 684 794 
z
" transform="scale(0.015625)"/>
      <path id="DejaVuSans-5f" d="M 3263 -1063 
L 3263 -1509 
L -63 -1509 
L -63 -1063 
L 3263 -1063 
z
" transform="scale(0.015625)"/>
      <path id="DejaVuSans-55" d="M 556 4666 
L 1191 4666 
L 1191 1831 
Q 1191 1081 1462 751 
Q 1734 422 2344 422 
Q 2950 422 3222 751 
Q 3494 1081 3494 1831 
L 3494 4666 
L 4128 4666 
L 4128 1753 
Q 4128 841 3676 375 
Q 3225 -91 2344 -91 
Q 1459 -91 1007 375 
Q 556 841 556 1753 
L 556 4666 
z
" transform="scale(0.015625)"/>
      <path id="DejaVuSans-44" d="M 1259 4147 
L 1259 519 
L 2022 519 
Q 2988 519 3436 956 
Q 3884 1394 3884 2338 
Q 3884 3275 3436 3711 
Q 2988 4147 2022 4147 
L 1259 4147 
z
M 628 4666 
L 1925 4666 
Q 3281 4666 3915 4102 
Q 4550 3538 4550 2338 
Q 4550 1131 3912 565 
Q 3275 0 1925 0 
L 628 0 
L 628 4666 
z
" transform="scale(0.015625)"/>
      <path id="DejaVuSans-33" d="M 2597 2516 
Q 3050 2419 3304 2112 
Q 3559 1806 3559 1356 
Q 3559 666 3084 287 
Q 2609 -91 1734 -91 
Q 1441 -91 1130 -33 
Q 819 25 488 141 
L 488 750 
Q 750 597 1062 519 
Q 1375 441 1716 441 
Q 2309 441 2620 675 
Q 2931 909 2931 1356 
Q 2931 1769 2642 2001 
Q 2353 2234 1838 2234 
L 1294 2234 
L 1294 2753 
L 1863 2753 
Q 2328 2753 2575 2939 
Q 2822 3125 2822 3475 
Q 2822 3834 2567 4026 
Q 2313 4219 1838 4219 
Q 1578 4219 1281 4162 
Q 984 4106 628 3988 
L 628 4550 
Q 988 4650 1302 4700 
Q 1616 4750 1894 4750 
Q 2613 4750 3031 4423 
Q 3450 4097 3450 3541 
Q 3450 3153 3228 2886 
Q 3006 2619 2597 2516 
z
" transform="scale(0.015625)"/>
     </defs>
     <use xlink:href="#DejaVuSans-4d"/>
     <use xlink:href="#DejaVuSans-6f" x="86.279297"/>
     <use xlink:href="#DejaVuSans-75" x="147.460938"/>
     <use xlink:href="#DejaVuSans-73" x="210.839844"/>
     <use xlink:href="#DejaVuSans-65" x="262.939453"/>
     <use xlink:href="#DejaVuSans-3a" x="324.462891"/>
     <use xlink:href="#DejaVuSans-20" x="358.154297"/>
     <use xlink:href="#DejaVuSans-31" x="389.941406"/>
     <use xlink:href="#DejaVuSans-31" x="453.564453"/>
     <use xlink:href="#DejaVuSans-37" x="517.1875"/>
     <use xlink:href="#DejaVuSans-3b" x="580.810547"/>
     <use xlink:href="#DejaVuSans-20" x="614.501953"/>
     <use xlink:href="#DejaVuSans-50" x="646.289062"/>
     <use xlink:href="#DejaVuSans-61" x="702.091797"/>
     <use xlink:href="#DejaVuSans-72" x="763.371094"/>
     <use xlink:href="#DejaVuSans-61" x="804.484375"/>
     <use xlink:href="#DejaVuSans-64" x="865.763672"/>
     <use xlink:href="#DejaVuSans-69" x="929.240234"/>
     <use xlink:href="#DejaVuSans-67" x="957.023438"/>
     <use xlink:href="#DejaVuSans-6d" x="1020.5"/>
     <use xlink:href="#DejaVuSans-3a" x="1117.912109"/>
     <use xlink:href="#DejaVuSans-20" x="1151.603516"/>
     <use xlink:href="#DejaVuSans-56" x="1183.390625"/>
     <use xlink:href="#DejaVuSans-31" x="1251.798828"/>
     <use xlink:href="#DejaVuSans-2e" x="1315.421875"/>
     <use xlink:href="#DejaVuSans-34" x="1347.208984"/>
     <use xlink:href="#DejaVuSans-5f" x="1410.832031"/>
     <use xlink:href="#DejaVuSans-45" x="1460.832031"/>
     <use xlink:href="#DejaVuSans-78" x="1524.015625"/>
     <use xlink:href="#DejaVuSans-70" x="1583.195312"/>
     <use xlink:href="#DejaVuSans-65" x="1646.671875"/>
     <use xlink:href="#DejaVuSans-72" x="1708.195312"/>
     <use xlink:href="#DejaVuSans-69" x="1749.308594"/>
     <use xlink:href="#DejaVuSans-6d" x="1777.091797"/>
     <use xlink:href="#DejaVuSans-65" x="1874.503906"/>
     <use xlink:href="#DejaVuSans-6e" x="1936.027344"/>
     <use xlink:href="#DejaVuSans-74" x="1999.40625"/>
     <use xlink:href="#DejaVuSans-5f" x="2038.615234"/>
     <use xlink:href="#DejaVuSans-55" x="2088.615234"/>
     <use xlink:href="#DejaVuSans-72" x="2161.808594"/>
     <use xlink:href="#DejaVuSans-69" x="2202.921875"/>
     <use xlink:href="#DejaVuSans-6e" x="2230.705078"/>
     <use xlink:href="#DejaVuSans-72" x="2294.083984"/>
     <use xlink:href="#DejaVuSans-69" x="2335.197266"/>
     <use xlink:href="#DejaVuSans-67" x="2362.980469"/>
     <use xlink:href="#DejaVuSans-68" x="2426.457031"/>
     <use xlink:href="#DejaVuSans-74" x="2489.835938"/>
     <use xlink:href="#DejaVuSans-3b" x="2529.044922"/>
     <use xlink:href="#DejaVuSans-20" x="2562.736328"/>
     <use xlink:href="#DejaVuSans-44" x="2594.523438"/>
     <use xlink:href="#DejaVuSans-61" x="2671.525391"/>
     <use xlink:href="#DejaVuSans-74" x="2732.804688"/>
     <use xlink:href="#DejaVuSans-65" x="2772.013672"/>
     <use xlink:href="#DejaVuSans-3a" x="2833.537109"/>
     <use xlink:href="#DejaVuSans-20" x="2867.228516"/>
     <use xlink:href="#DejaVuSans-32" x="2899.015625"/>
     <use xlink:href="#DejaVuSans-34" x="2962.638672"/>
     <use xlink:href="#DejaVuSans-30" x="3026.261719"/>
     <use xlink:href="#DejaVuSans-33" x="3089.884766"/>
     <use xlink:href="#DejaVuSans-30" x="3153.507812"/>
     <use xlink:href="#DejaVuSans-37" x="3217.130859"/>
    </g>
   </g>
  </g>
 </g>
 <defs>
  <clipPath id="p519e8a9883">
   <rect x="126" y="51.84" width="781.2" height="332.64"/>
  </clipPath>
 </defs>
</svg>
