<?xml version="1.0" encoding="utf-8" standalone="no"?>
<!DOCTYPE svg PUBLIC "-//W3C//DTD SVG 1.1//EN"
  "http://www.w3.org/Graphics/SVG/1.1/DTD/svg11.dtd">
<svg xmlns:xlink="http://www.w3.org/1999/xlink" width="1008pt" height="432pt" viewBox="0 0 1008 432" xmlns="http://www.w3.org/2000/svg" version="1.1">
 <metadata>
  <rdf:RDF xmlns:dc="http://purl.org/dc/elements/1.1/" xmlns:cc="http://creativecommons.org/ns#" xmlns:rdf="http://www.w3.org/1999/02/22-rdf-syntax-ns#">
   <cc:Work>
    <dc:type rdf:resource="http://purl.org/dc/dcmitype/StillImage"/>
    <dc:date>2024-05-13T00:10:22.412665</dc:date>
    <dc:format>image/svg+xml</dc:format>
    <dc:creator>
     <cc:Agent>
      <dc:title>Matplotlib v3.8.3, https://matplotlib.org/</dc:title>
     </cc:Agent>
    </dc:creator>
   </cc:Work>
  </rdf:RDF>
 </metadata>
 <defs>
  <style type="text/css">*{stroke-linejoin: round; stroke-linecap: butt}</style>
 </defs>
 <g id="figure_1">
  <g id="patch_1">
   <path d="M 0 432 
L 1008 432 
L 1008 0 
L 0 0 
z
" style="fill: #ffffff"/>
  </g>
  <g id="axes_1">
   <g id="patch_2">
    <path d="M 126 384.48 
L 907.2 384.48 
L 907.2 51.84 
L 126 51.84 
z
"/>
   </g>
   <g id="matplotlib.axis_1">
    <g id="xtick_1">
     <g id="line2d_1">
      <defs>
       <path id="m56226b4566" d="M 0 0 
L 0 3.5 
" style="stroke: #000000; stroke-width: 0.8"/>
      </defs>
      <g>
       <use xlink:href="#m56226b4566" x="267.597316" y="384.48" style="stroke: #000000; stroke-width: 0.8"/>
      </g>
     </g>
     <g id="text_1">
      <!-- 2 -->
      <g transform="translate(264.416066 399.078438) scale(0.1 -0.1)">
       <defs>
        <path id="DejaVuSans-32" d="M 1228 531 
L 3431 531 
L 3431 0 
L 469 0 
L 469 531 
Q 828 903 1448 1529 
Q 2069 2156 2228 2338 
Q 2531 2678 2651 2914 
Q 2772 3150 2772 3378 
Q 2772 3750 2511 3984 
Q 2250 4219 1831 4219 
Q 1534 4219 1204 4116 
Q 875 4013 500 3803 
L 500 4441 
Q 881 4594 1212 4672 
Q 1544 4750 1819 4750 
Q 2544 4750 2975 4387 
Q 3406 4025 3406 3419 
Q 3406 3131 3298 2873 
Q 3191 2616 2906 2266 
Q 2828 2175 2409 1742 
Q 1991 1309 1228 531 
z
" transform="scale(0.015625)"/>
       </defs>
       <use xlink:href="#DejaVuSans-32"/>
      </g>
     </g>
    </g>
    <g id="xtick_2">
     <g id="line2d_2">
      <g>
       <use xlink:href="#m56226b4566" x="428.880091" y="384.48" style="stroke: #000000; stroke-width: 0.8"/>
      </g>
     </g>
     <g id="text_2">
      <!-- 4 -->
      <g transform="translate(425.698841 399.078438) scale(0.1 -0.1)">
       <defs>
        <path id="DejaVuSans-34" d="M 2419 4116 
L 825 1625 
L 2419 1625 
L 2419 4116 
z
M 2253 4666 
L 3047 4666 
L 3047 1625 
L 3713 1625 
L 3713 1100 
L 3047 1100 
L 3047 0 
L 2419 0 
L 2419 1100 
L 313 1100 
L 313 1709 
L 2253 4666 
z
" transform="scale(0.015625)"/>
       </defs>
       <use xlink:href="#DejaVuSans-34"/>
      </g>
     </g>
    </g>
    <g id="xtick_3">
     <g id="line2d_3">
      <g>
       <use xlink:href="#m56226b4566" x="590.162866" y="384.48" style="stroke: #000000; stroke-width: 0.8"/>
      </g>
     </g>
     <g id="text_3">
      <!-- 6 -->
      <g transform="translate(586.981616 399.078438) scale(0.1 -0.1)">
       <defs>
        <path id="DejaVuSans-36" d="M 2113 2584 
Q 1688 2584 1439 2293 
Q 1191 2003 1191 1497 
Q 1191 994 1439 701 
Q 1688 409 2113 409 
Q 2538 409 2786 701 
Q 3034 994 3034 1497 
Q 3034 2003 2786 2293 
Q 2538 2584 2113 2584 
z
M 3366 4563 
L 3366 3988 
Q 3128 4100 2886 4159 
Q 2644 4219 2406 4219 
Q 1781 4219 1451 3797 
Q 1122 3375 1075 2522 
Q 1259 2794 1537 2939 
Q 1816 3084 2150 3084 
Q 2853 3084 3261 2657 
Q 3669 2231 3669 1497 
Q 3669 778 3244 343 
Q 2819 -91 2113 -91 
Q 1303 -91 875 529 
Q 447 1150 447 2328 
Q 447 3434 972 4092 
Q 1497 4750 2381 4750 
Q 2619 4750 2861 4703 
Q 3103 4656 3366 4563 
z
" transform="scale(0.015625)"/>
       </defs>
       <use xlink:href="#DejaVuSans-36"/>
      </g>
     </g>
    </g>
    <g id="xtick_4">
     <g id="line2d_4">
      <g>
       <use xlink:href="#m56226b4566" x="751.44564" y="384.48" style="stroke: #000000; stroke-width: 0.8"/>
      </g>
     </g>
     <g id="text_4">
      <!-- 8 -->
      <g transform="translate(748.26439 399.078438) scale(0.1 -0.1)">
       <defs>
        <path id="DejaVuSans-38" d="M 2034 2216 
Q 1584 2216 1326 1975 
Q 1069 1734 1069 1313 
Q 1069 891 1326 650 
Q 1584 409 2034 409 
Q 2484 409 2743 651 
Q 3003 894 3003 1313 
Q 3003 1734 2745 1975 
Q 2488 2216 2034 2216 
z
M 1403 2484 
Q 997 2584 770 2862 
Q 544 3141 544 3541 
Q 544 4100 942 4425 
Q 1341 4750 2034 4750 
Q 2731 4750 3128 4425 
Q 3525 4100 3525 3541 
Q 3525 3141 3298 2862 
Q 3072 2584 2669 2484 
Q 3125 2378 3379 2068 
Q 3634 1759 3634 1313 
Q 3634 634 3220 271 
Q 2806 -91 2034 -91 
Q 1263 -91 848 271 
Q 434 634 434 1313 
Q 434 1759 690 2068 
Q 947 2378 1403 2484 
z
M 1172 3481 
Q 1172 3119 1398 2916 
Q 1625 2713 2034 2713 
Q 2441 2713 2670 2916 
Q 2900 3119 2900 3481 
Q 2900 3844 2670 4047 
Q 2441 4250 2034 4250 
Q 1625 4250 1398 4047 
Q 1172 3844 1172 3481 
z
" transform="scale(0.015625)"/>
       </defs>
       <use xlink:href="#DejaVuSans-38"/>
      </g>
     </g>
    </g>
    <g id="text_5">
     <!-- Experiment length [min] -->
     <g transform="translate(455.264844 412.756563) scale(0.1 -0.1)">
      <defs>
       <path id="DejaVuSans-45" d="M 628 4666 
L 3578 4666 
L 3578 4134 
L 1259 4134 
L 1259 2753 
L 3481 2753 
L 3481 2222 
L 1259 2222 
L 1259 531 
L 3634 531 
L 3634 0 
L 628 0 
L 628 4666 
z
" transform="scale(0.015625)"/>
       <path id="DejaVuSans-78" d="M 3513 3500 
L 2247 1797 
L 3578 0 
L 2900 0 
L 1881 1375 
L 863 0 
L 184 0 
L 1544 1831 
L 300 3500 
L 978 3500 
L 1906 2253 
L 2834 3500 
L 3513 3500 
z
" transform="scale(0.015625)"/>
       <path id="DejaVuSans-70" d="M 1159 525 
L 1159 -1331 
L 581 -1331 
L 581 3500 
L 1159 3500 
L 1159 2969 
Q 1341 3281 1617 3432 
Q 1894 3584 2278 3584 
Q 2916 3584 3314 3078 
Q 3713 2572 3713 1747 
Q 3713 922 3314 415 
Q 2916 -91 2278 -91 
Q 1894 -91 1617 61 
Q 1341 213 1159 525 
z
M 3116 1747 
Q 3116 2381 2855 2742 
Q 2594 3103 2138 3103 
Q 1681 3103 1420 2742 
Q 1159 2381 1159 1747 
Q 1159 1113 1420 752 
Q 1681 391 2138 391 
Q 2594 391 2855 752 
Q 3116 1113 3116 1747 
z
" transform="scale(0.015625)"/>
       <path id="DejaVuSans-65" d="M 3597 1894 
L 3597 1613 
L 953 1613 
Q 991 1019 1311 708 
Q 1631 397 2203 397 
Q 2534 397 2845 478 
Q 3156 559 3463 722 
L 3463 178 
Q 3153 47 2828 -22 
Q 2503 -91 2169 -91 
Q 1331 -91 842 396 
Q 353 884 353 1716 
Q 353 2575 817 3079 
Q 1281 3584 2069 3584 
Q 2775 3584 3186 3129 
Q 3597 2675 3597 1894 
z
M 3022 2063 
Q 3016 2534 2758 2815 
Q 2500 3097 2075 3097 
Q 1594 3097 1305 2825 
Q 1016 2553 972 2059 
L 3022 2063 
z
" transform="scale(0.015625)"/>
       <path id="DejaVuSans-72" d="M 2631 2963 
Q 2534 3019 2420 3045 
Q 2306 3072 2169 3072 
Q 1681 3072 1420 2755 
Q 1159 2438 1159 1844 
L 1159 0 
L 581 0 
L 581 3500 
L 1159 3500 
L 1159 2956 
Q 1341 3275 1631 3429 
Q 1922 3584 2338 3584 
Q 2397 3584 2469 3576 
Q 2541 3569 2628 3553 
L 2631 2963 
z
" transform="scale(0.015625)"/>
       <path id="DejaVuSans-69" d="M 603 3500 
L 1178 3500 
L 1178 0 
L 603 0 
L 603 3500 
z
M 603 4863 
L 1178 4863 
L 1178 4134 
L 603 4134 
L 603 4863 
z
" transform="scale(0.015625)"/>
       <path id="DejaVuSans-6d" d="M 3328 2828 
Q 3544 3216 3844 3400 
Q 4144 3584 4550 3584 
Q 5097 3584 5394 3201 
Q 5691 2819 5691 2113 
L 5691 0 
L 5113 0 
L 5113 2094 
Q 5113 2597 4934 2840 
Q 4756 3084 4391 3084 
Q 3944 3084 3684 2787 
Q 3425 2491 3425 1978 
L 3425 0 
L 2847 0 
L 2847 2094 
Q 2847 2600 2669 2842 
Q 2491 3084 2119 3084 
Q 1678 3084 1418 2786 
Q 1159 2488 1159 1978 
L 1159 0 
L 581 0 
L 581 3500 
L 1159 3500 
L 1159 2956 
Q 1356 3278 1631 3431 
Q 1906 3584 2284 3584 
Q 2666 3584 2933 3390 
Q 3200 3197 3328 2828 
z
" transform="scale(0.015625)"/>
       <path id="DejaVuSans-6e" d="M 3513 2113 
L 3513 0 
L 2938 0 
L 2938 2094 
Q 2938 2591 2744 2837 
Q 2550 3084 2163 3084 
Q 1697 3084 1428 2787 
Q 1159 2491 1159 1978 
L 1159 0 
L 581 0 
L 581 3500 
L 1159 3500 
L 1159 2956 
Q 1366 3272 1645 3428 
Q 1925 3584 2291 3584 
Q 2894 3584 3203 3211 
Q 3513 2838 3513 2113 
z
" transform="scale(0.015625)"/>
       <path id="DejaVuSans-74" d="M 1172 4494 
L 1172 3500 
L 2356 3500 
L 2356 3053 
L 1172 3053 
L 1172 1153 
Q 1172 725 1289 603 
Q 1406 481 1766 481 
L 2356 481 
L 2356 0 
L 1766 0 
Q 1100 0 847 248 
Q 594 497 594 1153 
L 594 3053 
L 172 3053 
L 172 3500 
L 594 3500 
L 594 4494 
L 1172 4494 
z
" transform="scale(0.015625)"/>
       <path id="DejaVuSans-20" transform="scale(0.015625)"/>
       <path id="DejaVuSans-6c" d="M 603 4863 
L 1178 4863 
L 1178 0 
L 603 0 
L 603 4863 
z
" transform="scale(0.015625)"/>
       <path id="DejaVuSans-67" d="M 2906 1791 
Q 2906 2416 2648 2759 
Q 2391 3103 1925 3103 
Q 1463 3103 1205 2759 
Q 947 2416 947 1791 
Q 947 1169 1205 825 
Q 1463 481 1925 481 
Q 2391 481 2648 825 
Q 2906 1169 2906 1791 
z
M 3481 434 
Q 3481 -459 3084 -895 
Q 2688 -1331 1869 -1331 
Q 1566 -1331 1297 -1286 
Q 1028 -1241 775 -1147 
L 775 -588 
Q 1028 -725 1275 -790 
Q 1522 -856 1778 -856 
Q 2344 -856 2625 -561 
Q 2906 -266 2906 331 
L 2906 616 
Q 2728 306 2450 153 
Q 2172 0 1784 0 
Q 1141 0 747 490 
Q 353 981 353 1791 
Q 353 2603 747 3093 
Q 1141 3584 1784 3584 
Q 2172 3584 2450 3431 
Q 2728 3278 2906 2969 
L 2906 3500 
L 3481 3500 
L 3481 434 
z
" transform="scale(0.015625)"/>
       <path id="DejaVuSans-68" d="M 3513 2113 
L 3513 0 
L 2938 0 
L 2938 2094 
Q 2938 2591 2744 2837 
Q 2550 3084 2163 3084 
Q 1697 3084 1428 2787 
Q 1159 2491 1159 1978 
L 1159 0 
L 581 0 
L 581 4863 
L 1159 4863 
L 1159 2956 
Q 1366 3272 1645 3428 
Q 1925 3584 2291 3584 
Q 2894 3584 3203 3211 
Q 3513 2838 3513 2113 
z
" transform="scale(0.015625)"/>
       <path id="DejaVuSans-5b" d="M 550 4863 
L 1875 4863 
L 1875 4416 
L 1125 4416 
L 1125 -397 
L 1875 -397 
L 1875 -844 
L 550 -844 
L 550 4863 
z
" transform="scale(0.015625)"/>
       <path id="DejaVuSans-5d" d="M 1947 4863 
L 1947 -844 
L 622 -844 
L 622 -397 
L 1369 -397 
L 1369 4416 
L 622 4416 
L 622 4863 
L 1947 4863 
z
" transform="scale(0.015625)"/>
      </defs>
      <use xlink:href="#DejaVuSans-45"/>
      <use xlink:href="#DejaVuSans-78" x="63.183594"/>
      <use xlink:href="#DejaVuSans-70" x="122.363281"/>
      <use xlink:href="#DejaVuSans-65" x="185.839844"/>
      <use xlink:href="#DejaVuSans-72" x="247.363281"/>
      <use xlink:href="#DejaVuSans-69" x="288.476562"/>
      <use xlink:href="#DejaVuSans-6d" x="316.259766"/>
      <use xlink:href="#DejaVuSans-65" x="413.671875"/>
      <use xlink:href="#DejaVuSans-6e" x="475.195312"/>
      <use xlink:href="#DejaVuSans-74" x="538.574219"/>
      <use xlink:href="#DejaVuSans-20" x="577.783203"/>
      <use xlink:href="#DejaVuSans-6c" x="609.570312"/>
      <use xlink:href="#DejaVuSans-65" x="637.353516"/>
      <use xlink:href="#DejaVuSans-6e" x="698.876953"/>
      <use xlink:href="#DejaVuSans-67" x="762.255859"/>
      <use xlink:href="#DejaVuSans-74" x="825.732422"/>
      <use xlink:href="#DejaVuSans-68" x="864.941406"/>
      <use xlink:href="#DejaVuSans-20" x="928.320312"/>
      <use xlink:href="#DejaVuSans-5b" x="960.107422"/>
      <use xlink:href="#DejaVuSans-6d" x="999.121094"/>
      <use xlink:href="#DejaVuSans-69" x="1096.533203"/>
      <use xlink:href="#DejaVuSans-6e" x="1124.316406"/>
      <use xlink:href="#DejaVuSans-5d" x="1187.695312"/>
     </g>
    </g>
   </g>
   <g id="matplotlib.axis_2">
    <g id="ytick_1">
     <g id="line2d_5">
      <defs>
       <path id="m2f9b2aaf0a" d="M 0 0 
L -3.5 0 
" style="stroke: #000000; stroke-width: 0.8"/>
      </defs>
      <g>
       <use xlink:href="#m2f9b2aaf0a" x="126" y="268.56" style="stroke: #000000; stroke-width: 0.8"/>
      </g>
     </g>
     <g id="text_6">
      <!-- deg sniff left dish -->
      <g transform="translate(32.379687 272.359219) scale(0.1 -0.1)">
       <defs>
        <path id="DejaVuSans-64" d="M 2906 2969 
L 2906 4863 
L 3481 4863 
L 3481 0 
L 2906 0 
L 2906 525 
Q 2725 213 2448 61 
Q 2172 -91 1784 -91 
Q 1150 -91 751 415 
Q 353 922 353 1747 
Q 353 2572 751 3078 
Q 1150 3584 1784 3584 
Q 2172 3584 2448 3432 
Q 2725 3281 2906 2969 
z
M 947 1747 
Q 947 1113 1208 752 
Q 1469 391 1925 391 
Q 2381 391 2643 752 
Q 2906 1113 2906 1747 
Q 2906 2381 2643 2742 
Q 2381 3103 1925 3103 
Q 1469 3103 1208 2742 
Q 947 2381 947 1747 
z
" transform="scale(0.015625)"/>
        <path id="DejaVuSans-73" d="M 2834 3397 
L 2834 2853 
Q 2591 2978 2328 3040 
Q 2066 3103 1784 3103 
Q 1356 3103 1142 2972 
Q 928 2841 928 2578 
Q 928 2378 1081 2264 
Q 1234 2150 1697 2047 
L 1894 2003 
Q 2506 1872 2764 1633 
Q 3022 1394 3022 966 
Q 3022 478 2636 193 
Q 2250 -91 1575 -91 
Q 1294 -91 989 -36 
Q 684 19 347 128 
L 347 722 
Q 666 556 975 473 
Q 1284 391 1588 391 
Q 1994 391 2212 530 
Q 2431 669 2431 922 
Q 2431 1156 2273 1281 
Q 2116 1406 1581 1522 
L 1381 1569 
Q 847 1681 609 1914 
Q 372 2147 372 2553 
Q 372 3047 722 3315 
Q 1072 3584 1716 3584 
Q 2034 3584 2315 3537 
Q 2597 3491 2834 3397 
z
" transform="scale(0.015625)"/>
        <path id="DejaVuSans-66" d="M 2375 4863 
L 2375 4384 
L 1825 4384 
Q 1516 4384 1395 4259 
Q 1275 4134 1275 3809 
L 1275 3500 
L 2222 3500 
L 2222 3053 
L 1275 3053 
L 1275 0 
L 697 0 
L 697 3053 
L 147 3053 
L 147 3500 
L 697 3500 
L 697 3744 
Q 697 4328 969 4595 
Q 1241 4863 1831 4863 
L 2375 4863 
z
" transform="scale(0.015625)"/>
       </defs>
       <use xlink:href="#DejaVuSans-64"/>
       <use xlink:href="#DejaVuSans-65" x="63.476562"/>
       <use xlink:href="#DejaVuSans-67" x="125"/>
       <use xlink:href="#DejaVuSans-20" x="188.476562"/>
       <use xlink:href="#DejaVuSans-73" x="220.263672"/>
       <use xlink:href="#DejaVuSans-6e" x="272.363281"/>
       <use xlink:href="#DejaVuSans-69" x="335.742188"/>
       <use xlink:href="#DejaVuSans-66" x="363.525391"/>
       <use xlink:href="#DejaVuSans-66" x="398.730469"/>
       <use xlink:href="#DejaVuSans-20" x="433.935547"/>
       <use xlink:href="#DejaVuSans-6c" x="465.722656"/>
       <use xlink:href="#DejaVuSans-65" x="493.505859"/>
       <use xlink:href="#DejaVuSans-66" x="555.029297"/>
       <use xlink:href="#DejaVuSans-74" x="588.484375"/>
       <use xlink:href="#DejaVuSans-20" x="627.693359"/>
       <use xlink:href="#DejaVuSans-64" x="659.480469"/>
       <use xlink:href="#DejaVuSans-69" x="722.957031"/>
       <use xlink:href="#DejaVuSans-73" x="750.740234"/>
       <use xlink:href="#DejaVuSans-68" x="802.839844"/>
      </g>
     </g>
    </g>
    <g id="ytick_2">
     <g id="line2d_6">
      <g>
       <use xlink:href="#m2f9b2aaf0a" x="126" y="167.76" style="stroke: #000000; stroke-width: 0.8"/>
      </g>
     </g>
     <g id="text_7">
      <!-- def sniff right dish -->
      <g transform="translate(27.909375 171.559219) scale(0.1 -0.1)">
       <use xlink:href="#DejaVuSans-64"/>
       <use xlink:href="#DejaVuSans-65" x="63.476562"/>
       <use xlink:href="#DejaVuSans-66" x="125"/>
       <use xlink:href="#DejaVuSans-20" x="160.205078"/>
       <use xlink:href="#DejaVuSans-73" x="191.992188"/>
       <use xlink:href="#DejaVuSans-6e" x="244.091797"/>
       <use xlink:href="#DejaVuSans-69" x="307.470703"/>
       <use xlink:href="#DejaVuSans-66" x="335.253906"/>
       <use xlink:href="#DejaVuSans-66" x="370.458984"/>
       <use xlink:href="#DejaVuSans-20" x="405.664062"/>
       <use xlink:href="#DejaVuSans-72" x="437.451172"/>
       <use xlink:href="#DejaVuSans-69" x="478.564453"/>
       <use xlink:href="#DejaVuSans-67" x="506.347656"/>
       <use xlink:href="#DejaVuSans-68" x="569.824219"/>
       <use xlink:href="#DejaVuSans-74" x="633.203125"/>
       <use xlink:href="#DejaVuSans-20" x="672.412109"/>
       <use xlink:href="#DejaVuSans-64" x="704.199219"/>
       <use xlink:href="#DejaVuSans-69" x="767.675781"/>
       <use xlink:href="#DejaVuSans-73" x="795.458984"/>
       <use xlink:href="#DejaVuSans-68" x="847.558594"/>
      </g>
     </g>
    </g>
   </g>
   <g id="EventCollection_1">
    <path d="M 204.517831 218.16 
L 204.517831 318.96 
" clip-path="url(#p126f46ca05)" style="fill: none; stroke: #bf00bf; stroke-width: 0.5"/>
    <path d="M 204.607432 218.16 
L 204.607432 318.96 
" clip-path="url(#p126f46ca05)" style="fill: none; stroke: #bf00bf; stroke-width: 0.5"/>
    <path d="M 204.697034 218.16 
L 204.697034 318.96 
" clip-path="url(#p126f46ca05)" style="fill: none; stroke: #bf00bf; stroke-width: 0.5"/>
    <path d="M 204.786635 218.16 
L 204.786635 318.96 
" clip-path="url(#p126f46ca05)" style="fill: none; stroke: #bf00bf; stroke-width: 0.5"/>
    <path d="M 204.876237 218.16 
L 204.876237 318.96 
" clip-path="url(#p126f46ca05)" style="fill: none; stroke: #bf00bf; stroke-width: 0.5"/>
    <path d="M 204.965839 218.16 
L 204.965839 318.96 
" clip-path="url(#p126f46ca05)" style="fill: none; stroke: #bf00bf; stroke-width: 0.5"/>
    <path d="M 205.05544 218.16 
L 205.05544 318.96 
" clip-path="url(#p126f46ca05)" style="fill: none; stroke: #bf00bf; stroke-width: 0.5"/>
    <path d="M 205.145042 218.16 
L 205.145042 318.96 
" clip-path="url(#p126f46ca05)" style="fill: none; stroke: #bf00bf; stroke-width: 0.5"/>
    <path d="M 205.234643 218.16 
L 205.234643 318.96 
" clip-path="url(#p126f46ca05)" style="fill: none; stroke: #bf00bf; stroke-width: 0.5"/>
    <path d="M 205.324245 218.16 
L 205.324245 318.96 
" clip-path="url(#p126f46ca05)" style="fill: none; stroke: #bf00bf; stroke-width: 0.5"/>
    <path d="M 205.413846 218.16 
L 205.413846 318.96 
" clip-path="url(#p126f46ca05)" style="fill: none; stroke: #bf00bf; stroke-width: 0.5"/>
    <path d="M 205.503448 218.16 
L 205.503448 318.96 
" clip-path="url(#p126f46ca05)" style="fill: none; stroke: #bf00bf; stroke-width: 0.5"/>
    <path d="M 205.593049 218.16 
L 205.593049 318.96 
" clip-path="url(#p126f46ca05)" style="fill: none; stroke: #bf00bf; stroke-width: 0.5"/>
    <path d="M 205.682651 218.16 
L 205.682651 318.96 
" clip-path="url(#p126f46ca05)" style="fill: none; stroke: #bf00bf; stroke-width: 0.5"/>
    <path d="M 205.772252 218.16 
L 205.772252 318.96 
" clip-path="url(#p126f46ca05)" style="fill: none; stroke: #bf00bf; stroke-width: 0.5"/>
    <path d="M 205.861854 218.16 
L 205.861854 318.96 
" clip-path="url(#p126f46ca05)" style="fill: none; stroke: #bf00bf; stroke-width: 0.5"/>
    <path d="M 205.951456 218.16 
L 205.951456 318.96 
" clip-path="url(#p126f46ca05)" style="fill: none; stroke: #bf00bf; stroke-width: 0.5"/>
    <path d="M 207.922689 218.16 
L 207.922689 318.96 
" clip-path="url(#p126f46ca05)" style="fill: none; stroke: #bf00bf; stroke-width: 0.5"/>
    <path d="M 208.012291 218.16 
L 208.012291 318.96 
" clip-path="url(#p126f46ca05)" style="fill: none; stroke: #bf00bf; stroke-width: 0.5"/>
    <path d="M 208.101893 218.16 
L 208.101893 318.96 
" clip-path="url(#p126f46ca05)" style="fill: none; stroke: #bf00bf; stroke-width: 0.5"/>
    <path d="M 208.191494 218.16 
L 208.191494 318.96 
" clip-path="url(#p126f46ca05)" style="fill: none; stroke: #bf00bf; stroke-width: 0.5"/>
    <path d="M 208.281096 218.16 
L 208.281096 318.96 
" clip-path="url(#p126f46ca05)" style="fill: none; stroke: #bf00bf; stroke-width: 0.5"/>
    <path d="M 208.370697 218.16 
L 208.370697 318.96 
" clip-path="url(#p126f46ca05)" style="fill: none; stroke: #bf00bf; stroke-width: 0.5"/>
    <path d="M 208.460299 218.16 
L 208.460299 318.96 
" clip-path="url(#p126f46ca05)" style="fill: none; stroke: #bf00bf; stroke-width: 0.5"/>
    <path d="M 208.5499 218.16 
L 208.5499 318.96 
" clip-path="url(#p126f46ca05)" style="fill: none; stroke: #bf00bf; stroke-width: 0.5"/>
    <path d="M 208.639502 218.16 
L 208.639502 318.96 
" clip-path="url(#p126f46ca05)" style="fill: none; stroke: #bf00bf; stroke-width: 0.5"/>
    <path d="M 208.729103 218.16 
L 208.729103 318.96 
" clip-path="url(#p126f46ca05)" style="fill: none; stroke: #bf00bf; stroke-width: 0.5"/>
    <path d="M 208.818705 218.16 
L 208.818705 318.96 
" clip-path="url(#p126f46ca05)" style="fill: none; stroke: #bf00bf; stroke-width: 0.5"/>
    <path d="M 208.908306 218.16 
L 208.908306 318.96 
" clip-path="url(#p126f46ca05)" style="fill: none; stroke: #bf00bf; stroke-width: 0.5"/>
    <path d="M 208.997908 218.16 
L 208.997908 318.96 
" clip-path="url(#p126f46ca05)" style="fill: none; stroke: #bf00bf; stroke-width: 0.5"/>
    <path d="M 314.190118 218.16 
L 314.190118 318.96 
" clip-path="url(#p126f46ca05)" style="fill: none; stroke: #bf00bf; stroke-width: 0.5"/>
    <path d="M 314.279719 218.16 
L 314.279719 318.96 
" clip-path="url(#p126f46ca05)" style="fill: none; stroke: #bf00bf; stroke-width: 0.5"/>
    <path d="M 314.369321 218.16 
L 314.369321 318.96 
" clip-path="url(#p126f46ca05)" style="fill: none; stroke: #bf00bf; stroke-width: 0.5"/>
    <path d="M 314.458922 218.16 
L 314.458922 318.96 
" clip-path="url(#p126f46ca05)" style="fill: none; stroke: #bf00bf; stroke-width: 0.5"/>
    <path d="M 314.548524 218.16 
L 314.548524 318.96 
" clip-path="url(#p126f46ca05)" style="fill: none; stroke: #bf00bf; stroke-width: 0.5"/>
   </g>
   <g id="EventCollection_2">
    <path d="M 161.509091 117.36 
L 161.509091 218.16 
" clip-path="url(#p126f46ca05)" style="fill: none; stroke: #bfbf00; stroke-width: 0.5"/>
    <path d="M 161.598692 117.36 
L 161.598692 218.16 
" clip-path="url(#p126f46ca05)" style="fill: none; stroke: #bfbf00; stroke-width: 0.5"/>
    <path d="M 161.688294 117.36 
L 161.688294 218.16 
" clip-path="url(#p126f46ca05)" style="fill: none; stroke: #bfbf00; stroke-width: 0.5"/>
    <path d="M 161.777896 117.36 
L 161.777896 218.16 
" clip-path="url(#p126f46ca05)" style="fill: none; stroke: #bfbf00; stroke-width: 0.5"/>
    <path d="M 161.867497 117.36 
L 161.867497 218.16 
" clip-path="url(#p126f46ca05)" style="fill: none; stroke: #bfbf00; stroke-width: 0.5"/>
    <path d="M 161.957099 117.36 
L 161.957099 218.16 
" clip-path="url(#p126f46ca05)" style="fill: none; stroke: #bfbf00; stroke-width: 0.5"/>
    <path d="M 162.0467 117.36 
L 162.0467 218.16 
" clip-path="url(#p126f46ca05)" style="fill: none; stroke: #bfbf00; stroke-width: 0.5"/>
    <path d="M 162.136302 117.36 
L 162.136302 218.16 
" clip-path="url(#p126f46ca05)" style="fill: none; stroke: #bfbf00; stroke-width: 0.5"/>
    <path d="M 162.225903 117.36 
L 162.225903 218.16 
" clip-path="url(#p126f46ca05)" style="fill: none; stroke: #bfbf00; stroke-width: 0.5"/>
    <path d="M 162.315505 117.36 
L 162.315505 218.16 
" clip-path="url(#p126f46ca05)" style="fill: none; stroke: #bfbf00; stroke-width: 0.5"/>
    <path d="M 162.405106 117.36 
L 162.405106 218.16 
" clip-path="url(#p126f46ca05)" style="fill: none; stroke: #bfbf00; stroke-width: 0.5"/>
    <path d="M 162.494708 117.36 
L 162.494708 218.16 
" clip-path="url(#p126f46ca05)" style="fill: none; stroke: #bfbf00; stroke-width: 0.5"/>
    <path d="M 162.584309 117.36 
L 162.584309 218.16 
" clip-path="url(#p126f46ca05)" style="fill: none; stroke: #bfbf00; stroke-width: 0.5"/>
    <path d="M 162.673911 117.36 
L 162.673911 218.16 
" clip-path="url(#p126f46ca05)" style="fill: none; stroke: #bfbf00; stroke-width: 0.5"/>
    <path d="M 162.763512 117.36 
L 162.763512 218.16 
" clip-path="url(#p126f46ca05)" style="fill: none; stroke: #bfbf00; stroke-width: 0.5"/>
    <path d="M 162.853114 117.36 
L 162.853114 218.16 
" clip-path="url(#p126f46ca05)" style="fill: none; stroke: #bfbf00; stroke-width: 0.5"/>
    <path d="M 162.942716 117.36 
L 162.942716 218.16 
" clip-path="url(#p126f46ca05)" style="fill: none; stroke: #bfbf00; stroke-width: 0.5"/>
    <path d="M 163.032317 117.36 
L 163.032317 218.16 
" clip-path="url(#p126f46ca05)" style="fill: none; stroke: #bfbf00; stroke-width: 0.5"/>
    <path d="M 163.121919 117.36 
L 163.121919 218.16 
" clip-path="url(#p126f46ca05)" style="fill: none; stroke: #bfbf00; stroke-width: 0.5"/>
    <path d="M 163.21152 117.36 
L 163.21152 218.16 
" clip-path="url(#p126f46ca05)" style="fill: none; stroke: #bfbf00; stroke-width: 0.5"/>
    <path d="M 163.301122 117.36 
L 163.301122 218.16 
" clip-path="url(#p126f46ca05)" style="fill: none; stroke: #bfbf00; stroke-width: 0.5"/>
    <path d="M 163.390723 117.36 
L 163.390723 218.16 
" clip-path="url(#p126f46ca05)" style="fill: none; stroke: #bfbf00; stroke-width: 0.5"/>
    <path d="M 163.480325 117.36 
L 163.480325 218.16 
" clip-path="url(#p126f46ca05)" style="fill: none; stroke: #bfbf00; stroke-width: 0.5"/>
    <path d="M 163.569926 117.36 
L 163.569926 218.16 
" clip-path="url(#p126f46ca05)" style="fill: none; stroke: #bfbf00; stroke-width: 0.5"/>
    <path d="M 163.659528 117.36 
L 163.659528 218.16 
" clip-path="url(#p126f46ca05)" style="fill: none; stroke: #bfbf00; stroke-width: 0.5"/>
    <path d="M 163.749129 117.36 
L 163.749129 218.16 
" clip-path="url(#p126f46ca05)" style="fill: none; stroke: #bfbf00; stroke-width: 0.5"/>
    <path d="M 163.838731 117.36 
L 163.838731 218.16 
" clip-path="url(#p126f46ca05)" style="fill: none; stroke: #bfbf00; stroke-width: 0.5"/>
    <path d="M 163.928333 117.36 
L 163.928333 218.16 
" clip-path="url(#p126f46ca05)" style="fill: none; stroke: #bfbf00; stroke-width: 0.5"/>
    <path d="M 164.017934 117.36 
L 164.017934 218.16 
" clip-path="url(#p126f46ca05)" style="fill: none; stroke: #bfbf00; stroke-width: 0.5"/>
    <path d="M 164.107536 117.36 
L 164.107536 218.16 
" clip-path="url(#p126f46ca05)" style="fill: none; stroke: #bfbf00; stroke-width: 0.5"/>
    <path d="M 168.050003 117.36 
L 168.050003 218.16 
" clip-path="url(#p126f46ca05)" style="fill: none; stroke: #bfbf00; stroke-width: 0.5"/>
    <path d="M 168.139605 117.36 
L 168.139605 218.16 
" clip-path="url(#p126f46ca05)" style="fill: none; stroke: #bfbf00; stroke-width: 0.5"/>
    <path d="M 168.229207 117.36 
L 168.229207 218.16 
" clip-path="url(#p126f46ca05)" style="fill: none; stroke: #bfbf00; stroke-width: 0.5"/>
    <path d="M 168.318808 117.36 
L 168.318808 218.16 
" clip-path="url(#p126f46ca05)" style="fill: none; stroke: #bfbf00; stroke-width: 0.5"/>
    <path d="M 168.40841 117.36 
L 168.40841 218.16 
" clip-path="url(#p126f46ca05)" style="fill: none; stroke: #bfbf00; stroke-width: 0.5"/>
    <path d="M 168.498011 117.36 
L 168.498011 218.16 
" clip-path="url(#p126f46ca05)" style="fill: none; stroke: #bfbf00; stroke-width: 0.5"/>
    <path d="M 168.587613 117.36 
L 168.587613 218.16 
" clip-path="url(#p126f46ca05)" style="fill: none; stroke: #bfbf00; stroke-width: 0.5"/>
    <path d="M 168.677214 117.36 
L 168.677214 218.16 
" clip-path="url(#p126f46ca05)" style="fill: none; stroke: #bfbf00; stroke-width: 0.5"/>
    <path d="M 239.820838 117.36 
L 239.820838 218.16 
" clip-path="url(#p126f46ca05)" style="fill: none; stroke: #bfbf00; stroke-width: 0.5"/>
    <path d="M 239.91044 117.36 
L 239.91044 218.16 
" clip-path="url(#p126f46ca05)" style="fill: none; stroke: #bfbf00; stroke-width: 0.5"/>
    <path d="M 240.000041 117.36 
L 240.000041 218.16 
" clip-path="url(#p126f46ca05)" style="fill: none; stroke: #bfbf00; stroke-width: 0.5"/>
    <path d="M 240.089643 117.36 
L 240.089643 218.16 
" clip-path="url(#p126f46ca05)" style="fill: none; stroke: #bfbf00; stroke-width: 0.5"/>
    <path d="M 331.035207 117.36 
L 331.035207 218.16 
" clip-path="url(#p126f46ca05)" style="fill: none; stroke: #bfbf00; stroke-width: 0.5"/>
    <path d="M 331.124809 117.36 
L 331.124809 218.16 
" clip-path="url(#p126f46ca05)" style="fill: none; stroke: #bfbf00; stroke-width: 0.5"/>
    <path d="M 331.214411 117.36 
L 331.214411 218.16 
" clip-path="url(#p126f46ca05)" style="fill: none; stroke: #bfbf00; stroke-width: 0.5"/>
    <path d="M 438.73626 117.36 
L 438.73626 218.16 
" clip-path="url(#p126f46ca05)" style="fill: none; stroke: #bfbf00; stroke-width: 0.5"/>
    <path d="M 438.825862 117.36 
L 438.825862 218.16 
" clip-path="url(#p126f46ca05)" style="fill: none; stroke: #bfbf00; stroke-width: 0.5"/>
    <path d="M 438.915463 117.36 
L 438.915463 218.16 
" clip-path="url(#p126f46ca05)" style="fill: none; stroke: #bfbf00; stroke-width: 0.5"/>
    <path d="M 439.005065 117.36 
L 439.005065 218.16 
" clip-path="url(#p126f46ca05)" style="fill: none; stroke: #bfbf00; stroke-width: 0.5"/>
    <path d="M 439.094667 117.36 
L 439.094667 218.16 
" clip-path="url(#p126f46ca05)" style="fill: none; stroke: #bfbf00; stroke-width: 0.5"/>
    <path d="M 439.184268 117.36 
L 439.184268 218.16 
" clip-path="url(#p126f46ca05)" style="fill: none; stroke: #bfbf00; stroke-width: 0.5"/>
    <path d="M 439.27387 117.36 
L 439.27387 218.16 
" clip-path="url(#p126f46ca05)" style="fill: none; stroke: #bfbf00; stroke-width: 0.5"/>
    <path d="M 439.363471 117.36 
L 439.363471 218.16 
" clip-path="url(#p126f46ca05)" style="fill: none; stroke: #bfbf00; stroke-width: 0.5"/>
    <path d="M 439.453073 117.36 
L 439.453073 218.16 
" clip-path="url(#p126f46ca05)" style="fill: none; stroke: #bfbf00; stroke-width: 0.5"/>
    <path d="M 439.542674 117.36 
L 439.542674 218.16 
" clip-path="url(#p126f46ca05)" style="fill: none; stroke: #bfbf00; stroke-width: 0.5"/>
    <path d="M 439.632276 117.36 
L 439.632276 218.16 
" clip-path="url(#p126f46ca05)" style="fill: none; stroke: #bfbf00; stroke-width: 0.5"/>
    <path d="M 439.721877 117.36 
L 439.721877 218.16 
" clip-path="url(#p126f46ca05)" style="fill: none; stroke: #bfbf00; stroke-width: 0.5"/>
    <path d="M 439.811479 117.36 
L 439.811479 218.16 
" clip-path="url(#p126f46ca05)" style="fill: none; stroke: #bfbf00; stroke-width: 0.5"/>
    <path d="M 439.90108 117.36 
L 439.90108 218.16 
" clip-path="url(#p126f46ca05)" style="fill: none; stroke: #bfbf00; stroke-width: 0.5"/>
    <path d="M 439.990682 117.36 
L 439.990682 218.16 
" clip-path="url(#p126f46ca05)" style="fill: none; stroke: #bfbf00; stroke-width: 0.5"/>
    <path d="M 440.080284 117.36 
L 440.080284 218.16 
" clip-path="url(#p126f46ca05)" style="fill: none; stroke: #bfbf00; stroke-width: 0.5"/>
    <path d="M 440.169885 117.36 
L 440.169885 218.16 
" clip-path="url(#p126f46ca05)" style="fill: none; stroke: #bfbf00; stroke-width: 0.5"/>
    <path d="M 440.259487 117.36 
L 440.259487 218.16 
" clip-path="url(#p126f46ca05)" style="fill: none; stroke: #bfbf00; stroke-width: 0.5"/>
    <path d="M 440.349088 117.36 
L 440.349088 218.16 
" clip-path="url(#p126f46ca05)" style="fill: none; stroke: #bfbf00; stroke-width: 0.5"/>
    <path d="M 440.43869 117.36 
L 440.43869 218.16 
" clip-path="url(#p126f46ca05)" style="fill: none; stroke: #bfbf00; stroke-width: 0.5"/>
    <path d="M 440.528291 117.36 
L 440.528291 218.16 
" clip-path="url(#p126f46ca05)" style="fill: none; stroke: #bfbf00; stroke-width: 0.5"/>
    <path d="M 440.617893 117.36 
L 440.617893 218.16 
" clip-path="url(#p126f46ca05)" style="fill: none; stroke: #bfbf00; stroke-width: 0.5"/>
    <path d="M 440.707494 117.36 
L 440.707494 218.16 
" clip-path="url(#p126f46ca05)" style="fill: none; stroke: #bfbf00; stroke-width: 0.5"/>
    <path d="M 440.797096 117.36 
L 440.797096 218.16 
" clip-path="url(#p126f46ca05)" style="fill: none; stroke: #bfbf00; stroke-width: 0.5"/>
    <path d="M 440.886697 117.36 
L 440.886697 218.16 
" clip-path="url(#p126f46ca05)" style="fill: none; stroke: #bfbf00; stroke-width: 0.5"/>
    <path d="M 440.976299 117.36 
L 440.976299 218.16 
" clip-path="url(#p126f46ca05)" style="fill: none; stroke: #bfbf00; stroke-width: 0.5"/>
    <path d="M 441.0659 117.36 
L 441.0659 218.16 
" clip-path="url(#p126f46ca05)" style="fill: none; stroke: #bfbf00; stroke-width: 0.5"/>
    <path d="M 441.155502 117.36 
L 441.155502 218.16 
" clip-path="url(#p126f46ca05)" style="fill: none; stroke: #bfbf00; stroke-width: 0.5"/>
    <path d="M 441.245104 117.36 
L 441.245104 218.16 
" clip-path="url(#p126f46ca05)" style="fill: none; stroke: #bfbf00; stroke-width: 0.5"/>
    <path d="M 441.334705 117.36 
L 441.334705 218.16 
" clip-path="url(#p126f46ca05)" style="fill: none; stroke: #bfbf00; stroke-width: 0.5"/>
    <path d="M 441.424307 117.36 
L 441.424307 218.16 
" clip-path="url(#p126f46ca05)" style="fill: none; stroke: #bfbf00; stroke-width: 0.5"/>
    <path d="M 441.513908 117.36 
L 441.513908 218.16 
" clip-path="url(#p126f46ca05)" style="fill: none; stroke: #bfbf00; stroke-width: 0.5"/>
    <path d="M 441.60351 117.36 
L 441.60351 218.16 
" clip-path="url(#p126f46ca05)" style="fill: none; stroke: #bfbf00; stroke-width: 0.5"/>
    <path d="M 441.693111 117.36 
L 441.693111 218.16 
" clip-path="url(#p126f46ca05)" style="fill: none; stroke: #bfbf00; stroke-width: 0.5"/>
    <path d="M 441.782713 117.36 
L 441.782713 218.16 
" clip-path="url(#p126f46ca05)" style="fill: none; stroke: #bfbf00; stroke-width: 0.5"/>
    <path d="M 441.872314 117.36 
L 441.872314 218.16 
" clip-path="url(#p126f46ca05)" style="fill: none; stroke: #bfbf00; stroke-width: 0.5"/>
    <path d="M 441.961916 117.36 
L 441.961916 218.16 
" clip-path="url(#p126f46ca05)" style="fill: none; stroke: #bfbf00; stroke-width: 0.5"/>
    <path d="M 442.051517 117.36 
L 442.051517 218.16 
" clip-path="url(#p126f46ca05)" style="fill: none; stroke: #bfbf00; stroke-width: 0.5"/>
    <path d="M 442.141119 117.36 
L 442.141119 218.16 
" clip-path="url(#p126f46ca05)" style="fill: none; stroke: #bfbf00; stroke-width: 0.5"/>
    <path d="M 442.230721 117.36 
L 442.230721 218.16 
" clip-path="url(#p126f46ca05)" style="fill: none; stroke: #bfbf00; stroke-width: 0.5"/>
    <path d="M 442.320322 117.36 
L 442.320322 218.16 
" clip-path="url(#p126f46ca05)" style="fill: none; stroke: #bfbf00; stroke-width: 0.5"/>
    <path d="M 442.409924 117.36 
L 442.409924 218.16 
" clip-path="url(#p126f46ca05)" style="fill: none; stroke: #bfbf00; stroke-width: 0.5"/>
    <path d="M 442.499525 117.36 
L 442.499525 218.16 
" clip-path="url(#p126f46ca05)" style="fill: none; stroke: #bfbf00; stroke-width: 0.5"/>
    <path d="M 442.589127 117.36 
L 442.589127 218.16 
" clip-path="url(#p126f46ca05)" style="fill: none; stroke: #bfbf00; stroke-width: 0.5"/>
    <path d="M 442.678728 117.36 
L 442.678728 218.16 
" clip-path="url(#p126f46ca05)" style="fill: none; stroke: #bfbf00; stroke-width: 0.5"/>
    <path d="M 455.760553 117.36 
L 455.760553 218.16 
" clip-path="url(#p126f46ca05)" style="fill: none; stroke: #bfbf00; stroke-width: 0.5"/>
    <path d="M 455.850155 117.36 
L 455.850155 218.16 
" clip-path="url(#p126f46ca05)" style="fill: none; stroke: #bfbf00; stroke-width: 0.5"/>
    <path d="M 455.939756 117.36 
L 455.939756 218.16 
" clip-path="url(#p126f46ca05)" style="fill: none; stroke: #bfbf00; stroke-width: 0.5"/>
    <path d="M 456.029358 117.36 
L 456.029358 218.16 
" clip-path="url(#p126f46ca05)" style="fill: none; stroke: #bfbf00; stroke-width: 0.5"/>
    <path d="M 456.118959 117.36 
L 456.118959 218.16 
" clip-path="url(#p126f46ca05)" style="fill: none; stroke: #bfbf00; stroke-width: 0.5"/>
    <path d="M 456.208561 117.36 
L 456.208561 218.16 
" clip-path="url(#p126f46ca05)" style="fill: none; stroke: #bfbf00; stroke-width: 0.5"/>
    <path d="M 456.298163 117.36 
L 456.298163 218.16 
" clip-path="url(#p126f46ca05)" style="fill: none; stroke: #bfbf00; stroke-width: 0.5"/>
    <path d="M 458.896607 117.36 
L 458.896607 218.16 
" clip-path="url(#p126f46ca05)" style="fill: none; stroke: #bfbf00; stroke-width: 0.5"/>
    <path d="M 458.986209 117.36 
L 458.986209 218.16 
" clip-path="url(#p126f46ca05)" style="fill: none; stroke: #bfbf00; stroke-width: 0.5"/>
    <path d="M 459.07581 117.36 
L 459.07581 218.16 
" clip-path="url(#p126f46ca05)" style="fill: none; stroke: #bfbf00; stroke-width: 0.5"/>
    <path d="M 459.165412 117.36 
L 459.165412 218.16 
" clip-path="url(#p126f46ca05)" style="fill: none; stroke: #bfbf00; stroke-width: 0.5"/>
    <path d="M 459.255013 117.36 
L 459.255013 218.16 
" clip-path="url(#p126f46ca05)" style="fill: none; stroke: #bfbf00; stroke-width: 0.5"/>
    <path d="M 459.344615 117.36 
L 459.344615 218.16 
" clip-path="url(#p126f46ca05)" style="fill: none; stroke: #bfbf00; stroke-width: 0.5"/>
    <path d="M 489.092327 117.36 
L 489.092327 218.16 
" clip-path="url(#p126f46ca05)" style="fill: none; stroke: #bfbf00; stroke-width: 0.5"/>
    <path d="M 489.181928 117.36 
L 489.181928 218.16 
" clip-path="url(#p126f46ca05)" style="fill: none; stroke: #bfbf00; stroke-width: 0.5"/>
    <path d="M 489.27153 117.36 
L 489.27153 218.16 
" clip-path="url(#p126f46ca05)" style="fill: none; stroke: #bfbf00; stroke-width: 0.5"/>
    <path d="M 489.361131 117.36 
L 489.361131 218.16 
" clip-path="url(#p126f46ca05)" style="fill: none; stroke: #bfbf00; stroke-width: 0.5"/>
    <path d="M 489.450733 117.36 
L 489.450733 218.16 
" clip-path="url(#p126f46ca05)" style="fill: none; stroke: #bfbf00; stroke-width: 0.5"/>
    <path d="M 592.940513 117.36 
L 592.940513 218.16 
" clip-path="url(#p126f46ca05)" style="fill: none; stroke: #bfbf00; stroke-width: 0.5"/>
    <path d="M 593.030115 117.36 
L 593.030115 218.16 
" clip-path="url(#p126f46ca05)" style="fill: none; stroke: #bfbf00; stroke-width: 0.5"/>
    <path d="M 593.119716 117.36 
L 593.119716 218.16 
" clip-path="url(#p126f46ca05)" style="fill: none; stroke: #bfbf00; stroke-width: 0.5"/>
    <path d="M 593.209318 117.36 
L 593.209318 218.16 
" clip-path="url(#p126f46ca05)" style="fill: none; stroke: #bfbf00; stroke-width: 0.5"/>
    <path d="M 593.29892 117.36 
L 593.29892 218.16 
" clip-path="url(#p126f46ca05)" style="fill: none; stroke: #bfbf00; stroke-width: 0.5"/>
    <path d="M 593.388521 117.36 
L 593.388521 218.16 
" clip-path="url(#p126f46ca05)" style="fill: none; stroke: #bfbf00; stroke-width: 0.5"/>
    <path d="M 593.478123 117.36 
L 593.478123 218.16 
" clip-path="url(#p126f46ca05)" style="fill: none; stroke: #bfbf00; stroke-width: 0.5"/>
    <path d="M 593.567724 117.36 
L 593.567724 218.16 
" clip-path="url(#p126f46ca05)" style="fill: none; stroke: #bfbf00; stroke-width: 0.5"/>
    <path d="M 593.657326 117.36 
L 593.657326 218.16 
" clip-path="url(#p126f46ca05)" style="fill: none; stroke: #bfbf00; stroke-width: 0.5"/>
    <path d="M 593.746927 117.36 
L 593.746927 218.16 
" clip-path="url(#p126f46ca05)" style="fill: none; stroke: #bfbf00; stroke-width: 0.5"/>
    <path d="M 593.836529 117.36 
L 593.836529 218.16 
" clip-path="url(#p126f46ca05)" style="fill: none; stroke: #bfbf00; stroke-width: 0.5"/>
    <path d="M 593.92613 117.36 
L 593.92613 218.16 
" clip-path="url(#p126f46ca05)" style="fill: none; stroke: #bfbf00; stroke-width: 0.5"/>
    <path d="M 594.015732 117.36 
L 594.015732 218.16 
" clip-path="url(#p126f46ca05)" style="fill: none; stroke: #bfbf00; stroke-width: 0.5"/>
    <path d="M 594.105333 117.36 
L 594.105333 218.16 
" clip-path="url(#p126f46ca05)" style="fill: none; stroke: #bfbf00; stroke-width: 0.5"/>
    <path d="M 594.194935 117.36 
L 594.194935 218.16 
" clip-path="url(#p126f46ca05)" style="fill: none; stroke: #bfbf00; stroke-width: 0.5"/>
    <path d="M 594.284537 117.36 
L 594.284537 218.16 
" clip-path="url(#p126f46ca05)" style="fill: none; stroke: #bfbf00; stroke-width: 0.5"/>
    <path d="M 594.374138 117.36 
L 594.374138 218.16 
" clip-path="url(#p126f46ca05)" style="fill: none; stroke: #bfbf00; stroke-width: 0.5"/>
    <path d="M 594.46374 117.36 
L 594.46374 218.16 
" clip-path="url(#p126f46ca05)" style="fill: none; stroke: #bfbf00; stroke-width: 0.5"/>
    <path d="M 594.553341 117.36 
L 594.553341 218.16 
" clip-path="url(#p126f46ca05)" style="fill: none; stroke: #bfbf00; stroke-width: 0.5"/>
    <path d="M 594.642943 117.36 
L 594.642943 218.16 
" clip-path="url(#p126f46ca05)" style="fill: none; stroke: #bfbf00; stroke-width: 0.5"/>
    <path d="M 594.732544 117.36 
L 594.732544 218.16 
" clip-path="url(#p126f46ca05)" style="fill: none; stroke: #bfbf00; stroke-width: 0.5"/>
    <path d="M 594.822146 117.36 
L 594.822146 218.16 
" clip-path="url(#p126f46ca05)" style="fill: none; stroke: #bfbf00; stroke-width: 0.5"/>
    <path d="M 767.573918 117.36 
L 767.573918 218.16 
" clip-path="url(#p126f46ca05)" style="fill: none; stroke: #bfbf00; stroke-width: 0.5"/>
    <path d="M 767.663519 117.36 
L 767.663519 218.16 
" clip-path="url(#p126f46ca05)" style="fill: none; stroke: #bfbf00; stroke-width: 0.5"/>
    <path d="M 767.753121 117.36 
L 767.753121 218.16 
" clip-path="url(#p126f46ca05)" style="fill: none; stroke: #bfbf00; stroke-width: 0.5"/>
    <path d="M 767.842722 117.36 
L 767.842722 218.16 
" clip-path="url(#p126f46ca05)" style="fill: none; stroke: #bfbf00; stroke-width: 0.5"/>
    <path d="M 767.932324 117.36 
L 767.932324 218.16 
" clip-path="url(#p126f46ca05)" style="fill: none; stroke: #bfbf00; stroke-width: 0.5"/>
    <path d="M 793.737568 117.36 
L 793.737568 218.16 
" clip-path="url(#p126f46ca05)" style="fill: none; stroke: #bfbf00; stroke-width: 0.5"/>
    <path d="M 793.827169 117.36 
L 793.827169 218.16 
" clip-path="url(#p126f46ca05)" style="fill: none; stroke: #bfbf00; stroke-width: 0.5"/>
    <path d="M 793.916771 117.36 
L 793.916771 218.16 
" clip-path="url(#p126f46ca05)" style="fill: none; stroke: #bfbf00; stroke-width: 0.5"/>
    <path d="M 794.006373 117.36 
L 794.006373 218.16 
" clip-path="url(#p126f46ca05)" style="fill: none; stroke: #bfbf00; stroke-width: 0.5"/>
    <path d="M 794.095974 117.36 
L 794.095974 218.16 
" clip-path="url(#p126f46ca05)" style="fill: none; stroke: #bfbf00; stroke-width: 0.5"/>
    <path d="M 794.185576 117.36 
L 794.185576 218.16 
" clip-path="url(#p126f46ca05)" style="fill: none; stroke: #bfbf00; stroke-width: 0.5"/>
    <path d="M 794.275177 117.36 
L 794.275177 218.16 
" clip-path="url(#p126f46ca05)" style="fill: none; stroke: #bfbf00; stroke-width: 0.5"/>
    <path d="M 794.364779 117.36 
L 794.364779 218.16 
" clip-path="url(#p126f46ca05)" style="fill: none; stroke: #bfbf00; stroke-width: 0.5"/>
    <path d="M 794.45438 117.36 
L 794.45438 218.16 
" clip-path="url(#p126f46ca05)" style="fill: none; stroke: #bfbf00; stroke-width: 0.5"/>
    <path d="M 794.543982 117.36 
L 794.543982 218.16 
" clip-path="url(#p126f46ca05)" style="fill: none; stroke: #bfbf00; stroke-width: 0.5"/>
    <path d="M 794.633583 117.36 
L 794.633583 218.16 
" clip-path="url(#p126f46ca05)" style="fill: none; stroke: #bfbf00; stroke-width: 0.5"/>
    <path d="M 794.723185 117.36 
L 794.723185 218.16 
" clip-path="url(#p126f46ca05)" style="fill: none; stroke: #bfbf00; stroke-width: 0.5"/>
    <path d="M 794.812786 117.36 
L 794.812786 218.16 
" clip-path="url(#p126f46ca05)" style="fill: none; stroke: #bfbf00; stroke-width: 0.5"/>
    <path d="M 871.601308 117.36 
L 871.601308 218.16 
" clip-path="url(#p126f46ca05)" style="fill: none; stroke: #bfbf00; stroke-width: 0.5"/>
    <path d="M 871.690909 117.36 
L 871.690909 218.16 
" clip-path="url(#p126f46ca05)" style="fill: none; stroke: #bfbf00; stroke-width: 0.5"/>
   </g>
   <g id="patch_3">
    <path d="M 126 384.48 
L 126 51.84 
" style="fill: none; stroke: #000000; stroke-width: 0.8; stroke-linejoin: miter; stroke-linecap: square"/>
   </g>
   <g id="patch_4">
    <path d="M 126 384.48 
L 907.2 384.48 
" style="fill: none; stroke: #000000; stroke-width: 0.8; stroke-linejoin: miter; stroke-linecap: square"/>
   </g>
   <g id="text_8">
    <!-- Mouse: 1; Paradigm: V1.7_Experiment_Urinright; Date: 240321 -->
    <g transform="translate(327.391875 45.84) scale(0.12 -0.12)">
     <defs>
      <path id="DejaVuSans-4d" d="M 628 4666 
L 1569 4666 
L 2759 1491 
L 3956 4666 
L 4897 4666 
L 4897 0 
L 4281 0 
L 4281 4097 
L 3078 897 
L 2444 897 
L 1241 4097 
L 1241 0 
L 628 0 
L 628 4666 
z
" transform="scale(0.015625)"/>
      <path id="DejaVuSans-6f" d="M 1959 3097 
Q 1497 3097 1228 2736 
Q 959 2375 959 1747 
Q 959 1119 1226 758 
Q 1494 397 1959 397 
Q 2419 397 2687 759 
Q 2956 1122 2956 1747 
Q 2956 2369 2687 2733 
Q 2419 3097 1959 3097 
z
M 1959 3584 
Q 2709 3584 3137 3096 
Q 3566 2609 3566 1747 
Q 3566 888 3137 398 
Q 2709 -91 1959 -91 
Q 1206 -91 779 398 
Q 353 888 353 1747 
Q 353 2609 779 3096 
Q 1206 3584 1959 3584 
z
" transform="scale(0.015625)"/>
      <path id="DejaVuSans-75" d="M 544 1381 
L 544 3500 
L 1119 3500 
L 1119 1403 
Q 1119 906 1312 657 
Q 1506 409 1894 409 
Q 2359 409 2629 706 
Q 2900 1003 2900 1516 
L 2900 3500 
L 3475 3500 
L 3475 0 
L 2900 0 
L 2900 538 
Q 2691 219 2414 64 
Q 2138 -91 1772 -91 
Q 1169 -91 856 284 
Q 544 659 544 1381 
z
M 1991 3584 
L 1991 3584 
z
" transform="scale(0.015625)"/>
      <path id="DejaVuSans-3a" d="M 750 794 
L 1409 794 
L 1409 0 
L 750 0 
L 750 794 
z
M 750 3309 
L 1409 3309 
L 1409 2516 
L 750 2516 
L 750 3309 
z
" transform="scale(0.015625)"/>
      <path id="DejaVuSans-31" d="M 794 531 
L 1825 531 
L 1825 4091 
L 703 3866 
L 703 4441 
L 1819 4666 
L 2450 4666 
L 2450 531 
L 3481 531 
L 3481 0 
L 794 0 
L 794 531 
z
" transform="scale(0.015625)"/>
      <path id="DejaVuSans-3b" d="M 750 3309 
L 1409 3309 
L 1409 2516 
L 750 2516 
L 750 3309 
z
M 750 794 
L 1409 794 
L 1409 256 
L 897 -744 
L 494 -744 
L 750 256 
L 750 794 
z
" transform="scale(0.015625)"/>
      <path id="DejaVuSans-50" d="M 1259 4147 
L 1259 2394 
L 2053 2394 
Q 2494 2394 2734 2622 
Q 2975 2850 2975 3272 
Q 2975 3691 2734 3919 
Q 2494 4147 2053 4147 
L 1259 4147 
z
M 628 4666 
L 2053 4666 
Q 2838 4666 3239 4311 
Q 3641 3956 3641 3272 
Q 3641 2581 3239 2228 
Q 2838 1875 2053 1875 
L 1259 1875 
L 1259 0 
L 628 0 
L 628 4666 
z
" transform="scale(0.015625)"/>
      <path id="DejaVuSans-61" d="M 2194 1759 
Q 1497 1759 1228 1600 
Q 959 1441 959 1056 
Q 959 750 1161 570 
Q 1363 391 1709 391 
Q 2188 391 2477 730 
Q 2766 1069 2766 1631 
L 2766 1759 
L 2194 1759 
z
M 3341 1997 
L 3341 0 
L 2766 0 
L 2766 531 
Q 2569 213 2275 61 
Q 1981 -91 1556 -91 
Q 1019 -91 701 211 
Q 384 513 384 1019 
Q 384 1609 779 1909 
Q 1175 2209 1959 2209 
L 2766 2209 
L 2766 2266 
Q 2766 2663 2505 2880 
Q 2244 3097 1772 3097 
Q 1472 3097 1187 3025 
Q 903 2953 641 2809 
L 641 3341 
Q 956 3463 1253 3523 
Q 1550 3584 1831 3584 
Q 2591 3584 2966 3190 
Q 3341 2797 3341 1997 
z
" transform="scale(0.015625)"/>
      <path id="DejaVuSans-56" d="M 1831 0 
L 50 4666 
L 709 4666 
L 2188 738 
L 3669 4666 
L 4325 4666 
L 2547 0 
L 1831 0 
z
" transform="scale(0.015625)"/>
      <path id="DejaVuSans-2e" d="M 684 794 
L 1344 794 
L 1344 0 
L 684 0 
L 684 794 
z
" transform="scale(0.015625)"/>
      <path id="DejaVuSans-37" d="M 525 4666 
L 3525 4666 
L 3525 4397 
L 1831 0 
L 1172 0 
L 2766 4134 
L 525 4134 
L 525 4666 
z
" transform="scale(0.015625)"/>
      <path id="DejaVuSans-5f" d="M 3263 -1063 
L 3263 -1509 
L -63 -1509 
L -63 -1063 
L 3263 -1063 
z
" transform="scale(0.015625)"/>
      <path id="DejaVuSans-55" d="M 556 4666 
L 1191 4666 
L 1191 1831 
Q 1191 1081 1462 751 
Q 1734 422 2344 422 
Q 2950 422 3222 751 
Q 3494 1081 3494 1831 
L 3494 4666 
L 4128 4666 
L 4128 1753 
Q 4128 841 3676 375 
Q 3225 -91 2344 -91 
Q 1459 -91 1007 375 
Q 556 841 556 1753 
L 556 4666 
z
" transform="scale(0.015625)"/>
      <path id="DejaVuSans-44" d="M 1259 4147 
L 1259 519 
L 2022 519 
Q 2988 519 3436 956 
Q 3884 1394 3884 2338 
Q 3884 3275 3436 3711 
Q 2988 4147 2022 4147 
L 1259 4147 
z
M 628 4666 
L 1925 4666 
Q 3281 4666 3915 4102 
Q 4550 3538 4550 2338 
Q 4550 1131 3912 565 
Q 3275 0 1925 0 
L 628 0 
L 628 4666 
z
" transform="scale(0.015625)"/>
      <path id="DejaVuSans-30" d="M 2034 4250 
Q 1547 4250 1301 3770 
Q 1056 3291 1056 2328 
Q 1056 1369 1301 889 
Q 1547 409 2034 409 
Q 2525 409 2770 889 
Q 3016 1369 3016 2328 
Q 3016 3291 2770 3770 
Q 2525 4250 2034 4250 
z
M 2034 4750 
Q 2819 4750 3233 4129 
Q 3647 3509 3647 2328 
Q 3647 1150 3233 529 
Q 2819 -91 2034 -91 
Q 1250 -91 836 529 
Q 422 1150 422 2328 
Q 422 3509 836 4129 
Q 1250 4750 2034 4750 
z
" transform="scale(0.015625)"/>
      <path id="DejaVuSans-33" d="M 2597 2516 
Q 3050 2419 3304 2112 
Q 3559 1806 3559 1356 
Q 3559 666 3084 287 
Q 2609 -91 1734 -91 
Q 1441 -91 1130 -33 
Q 819 25 488 141 
L 488 750 
Q 750 597 1062 519 
Q 1375 441 1716 441 
Q 2309 441 2620 675 
Q 2931 909 2931 1356 
Q 2931 1769 2642 2001 
Q 2353 2234 1838 2234 
L 1294 2234 
L 1294 2753 
L 1863 2753 
Q 2328 2753 2575 2939 
Q 2822 3125 2822 3475 
Q 2822 3834 2567 4026 
Q 2313 4219 1838 4219 
Q 1578 4219 1281 4162 
Q 984 4106 628 3988 
L 628 4550 
Q 988 4650 1302 4700 
Q 1616 4750 1894 4750 
Q 2613 4750 3031 4423 
Q 3450 4097 3450 3541 
Q 3450 3153 3228 2886 
Q 3006 2619 2597 2516 
z
" transform="scale(0.015625)"/>
     </defs>
     <use xlink:href="#DejaVuSans-4d"/>
     <use xlink:href="#DejaVuSans-6f" x="86.279297"/>
     <use xlink:href="#DejaVuSans-75" x="147.460938"/>
     <use xlink:href="#DejaVuSans-73" x="210.839844"/>
     <use xlink:href="#DejaVuSans-65" x="262.939453"/>
     <use xlink:href="#DejaVuSans-3a" x="324.462891"/>
     <use xlink:href="#DejaVuSans-20" x="358.154297"/>
     <use xlink:href="#DejaVuSans-31" x="389.941406"/>
     <use xlink:href="#DejaVuSans-3b" x="453.564453"/>
     <use xlink:href="#DejaVuSans-20" x="487.255859"/>
     <use xlink:href="#DejaVuSans-50" x="519.042969"/>
     <use xlink:href="#DejaVuSans-61" x="574.845703"/>
     <use xlink:href="#DejaVuSans-72" x="636.125"/>
     <use xlink:href="#DejaVuSans-61" x="677.238281"/>
     <use xlink:href="#DejaVuSans-64" x="738.517578"/>
     <use xlink:href="#DejaVuSans-69" x="801.994141"/>
     <use xlink:href="#DejaVuSans-67" x="829.777344"/>
     <use xlink:href="#DejaVuSans-6d" x="893.253906"/>
     <use xlink:href="#DejaVuSans-3a" x="990.666016"/>
     <use xlink:href="#DejaVuSans-20" x="1024.357422"/>
     <use xlink:href="#DejaVuSans-56" x="1056.144531"/>
     <use xlink:href="#DejaVuSans-31" x="1124.552734"/>
     <use xlink:href="#DejaVuSans-2e" x="1188.175781"/>
     <use xlink:href="#DejaVuSans-37" x="1219.962891"/>
     <use xlink:href="#DejaVuSans-5f" x="1283.585938"/>
     <use xlink:href="#DejaVuSans-45" x="1333.585938"/>
     <use xlink:href="#DejaVuSans-78" x="1396.769531"/>
     <use xlink:href="#DejaVuSans-70" x="1455.949219"/>
     <use xlink:href="#DejaVuSans-65" x="1519.425781"/>
     <use xlink:href="#DejaVuSans-72" x="1580.949219"/>
     <use xlink:href="#DejaVuSans-69" x="1622.0625"/>
     <use xlink:href="#DejaVuSans-6d" x="1649.845703"/>
     <use xlink:href="#DejaVuSans-65" x="1747.257812"/>
     <use xlink:href="#DejaVuSans-6e" x="1808.78125"/>
     <use xlink:href="#DejaVuSans-74" x="1872.160156"/>
     <use xlink:href="#DejaVuSans-5f" x="1911.369141"/>
     <use xlink:href="#DejaVuSans-55" x="1961.369141"/>
     <use xlink:href="#DejaVuSans-72" x="2034.5625"/>
     <use xlink:href="#DejaVuSans-69" x="2075.675781"/>
     <use xlink:href="#DejaVuSans-6e" x="2103.458984"/>
     <use xlink:href="#DejaVuSans-72" x="2166.837891"/>
     <use xlink:href="#DejaVuSans-69" x="2207.951172"/>
     <use xlink:href="#DejaVuSans-67" x="2235.734375"/>
     <use xlink:href="#DejaVuSans-68" x="2299.210938"/>
     <use xlink:href="#DejaVuSans-74" x="2362.589844"/>
     <use xlink:href="#DejaVuSans-3b" x="2401.798828"/>
     <use xlink:href="#DejaVuSans-20" x="2435.490234"/>
     <use xlink:href="#DejaVuSans-44" x="2467.277344"/>
     <use xlink:href="#DejaVuSans-61" x="2544.279297"/>
     <use xlink:href="#DejaVuSans-74" x="2605.558594"/>
     <use xlink:href="#DejaVuSans-65" x="2644.767578"/>
     <use xlink:href="#DejaVuSans-3a" x="2706.291016"/>
     <use xlink:href="#DejaVuSans-20" x="2739.982422"/>
     <use xlink:href="#DejaVuSans-32" x="2771.769531"/>
     <use xlink:href="#DejaVuSans-34" x="2835.392578"/>
     <use xlink:href="#DejaVuSans-30" x="2899.015625"/>
     <use xlink:href="#DejaVuSans-33" x="2962.638672"/>
     <use xlink:href="#DejaVuSans-32" x="3026.261719"/>
     <use xlink:href="#DejaVuSans-31" x="3089.884766"/>
    </g>
   </g>
  </g>
 </g>
 <defs>
  <clipPath id="p126f46ca05">
   <rect x="126" y="51.84" width="781.2" height="332.64"/>
  </clipPath>
 </defs>
</svg>
