<?xml version="1.0" encoding="utf-8" standalone="no"?>
<!DOCTYPE svg PUBLIC "-//W3C//DTD SVG 1.1//EN"
  "http://www.w3.org/Graphics/SVG/1.1/DTD/svg11.dtd">
<svg xmlns:xlink="http://www.w3.org/1999/xlink" width="1008pt" height="432pt" viewBox="0 0 1008 432" xmlns="http://www.w3.org/2000/svg" version="1.1">
 <metadata>
  <rdf:RDF xmlns:dc="http://purl.org/dc/elements/1.1/" xmlns:cc="http://creativecommons.org/ns#" xmlns:rdf="http://www.w3.org/1999/02/22-rdf-syntax-ns#">
   <cc:Work>
    <dc:type rdf:resource="http://purl.org/dc/dcmitype/StillImage"/>
    <dc:date>2024-05-13T00:06:00.932631</dc:date>
    <dc:format>image/svg+xml</dc:format>
    <dc:creator>
     <cc:Agent>
      <dc:title>Matplotlib v3.8.3, https://matplotlib.org/</dc:title>
     </cc:Agent>
    </dc:creator>
   </cc:Work>
  </rdf:RDF>
 </metadata>
 <defs>
  <style type="text/css">*{stroke-linejoin: round; stroke-linecap: butt}</style>
 </defs>
 <g id="figure_1">
  <g id="patch_1">
   <path d="M 0 432 
L 1008 432 
L 1008 0 
L 0 0 
z
" style="fill: #ffffff"/>
  </g>
  <g id="axes_1">
   <g id="patch_2">
    <path d="M 126 384.48 
L 907.2 384.48 
L 907.2 51.84 
L 126 51.84 
z
"/>
   </g>
   <g id="matplotlib.axis_1">
    <g id="xtick_1">
     <g id="line2d_1">
      <defs>
       <path id="med1e4ec696" d="M 0 0 
L 0 3.5 
" style="stroke: #000000; stroke-width: 0.8"/>
      </defs>
      <g>
       <use xlink:href="#med1e4ec696" x="151.112689" y="384.48" style="stroke: #000000; stroke-width: 0.8"/>
      </g>
     </g>
     <g id="text_1">
      <!-- 0 -->
      <g transform="translate(147.931439 399.078438) scale(0.1 -0.1)">
       <defs>
        <path id="DejaVuSans-30" d="M 2034 4250 
Q 1547 4250 1301 3770 
Q 1056 3291 1056 2328 
Q 1056 1369 1301 889 
Q 1547 409 2034 409 
Q 2525 409 2770 889 
Q 3016 1369 3016 2328 
Q 3016 3291 2770 3770 
Q 2525 4250 2034 4250 
z
M 2034 4750 
Q 2819 4750 3233 4129 
Q 3647 3509 3647 2328 
Q 3647 1150 3233 529 
Q 2819 -91 2034 -91 
Q 1250 -91 836 529 
Q 422 1150 422 2328 
Q 422 3509 836 4129 
Q 1250 4750 2034 4750 
z
" transform="scale(0.015625)"/>
       </defs>
       <use xlink:href="#DejaVuSans-30"/>
      </g>
     </g>
    </g>
    <g id="xtick_2">
     <g id="line2d_2">
      <g>
       <use xlink:href="#med1e4ec696" x="312.436171" y="384.48" style="stroke: #000000; stroke-width: 0.8"/>
      </g>
     </g>
     <g id="text_2">
      <!-- 1 -->
      <g transform="translate(309.254921 399.078438) scale(0.1 -0.1)">
       <defs>
        <path id="DejaVuSans-31" d="M 794 531 
L 1825 531 
L 1825 4091 
L 703 3866 
L 703 4441 
L 1819 4666 
L 2450 4666 
L 2450 531 
L 3481 531 
L 3481 0 
L 794 0 
L 794 531 
z
" transform="scale(0.015625)"/>
       </defs>
       <use xlink:href="#DejaVuSans-31"/>
      </g>
     </g>
    </g>
    <g id="xtick_3">
     <g id="line2d_3">
      <g>
       <use xlink:href="#med1e4ec696" x="473.759653" y="384.48" style="stroke: #000000; stroke-width: 0.8"/>
      </g>
     </g>
     <g id="text_3">
      <!-- 2 -->
      <g transform="translate(470.578403 399.078438) scale(0.1 -0.1)">
       <defs>
        <path id="DejaVuSans-32" d="M 1228 531 
L 3431 531 
L 3431 0 
L 469 0 
L 469 531 
Q 828 903 1448 1529 
Q 2069 2156 2228 2338 
Q 2531 2678 2651 2914 
Q 2772 3150 2772 3378 
Q 2772 3750 2511 3984 
Q 2250 4219 1831 4219 
Q 1534 4219 1204 4116 
Q 875 4013 500 3803 
L 500 4441 
Q 881 4594 1212 4672 
Q 1544 4750 1819 4750 
Q 2544 4750 2975 4387 
Q 3406 4025 3406 3419 
Q 3406 3131 3298 2873 
Q 3191 2616 2906 2266 
Q 2828 2175 2409 1742 
Q 1991 1309 1228 531 
z
" transform="scale(0.015625)"/>
       </defs>
       <use xlink:href="#DejaVuSans-32"/>
      </g>
     </g>
    </g>
    <g id="xtick_4">
     <g id="line2d_4">
      <g>
       <use xlink:href="#med1e4ec696" x="635.083135" y="384.48" style="stroke: #000000; stroke-width: 0.8"/>
      </g>
     </g>
     <g id="text_4">
      <!-- 3 -->
      <g transform="translate(631.901885 399.078438) scale(0.1 -0.1)">
       <defs>
        <path id="DejaVuSans-33" d="M 2597 2516 
Q 3050 2419 3304 2112 
Q 3559 1806 3559 1356 
Q 3559 666 3084 287 
Q 2609 -91 1734 -91 
Q 1441 -91 1130 -33 
Q 819 25 488 141 
L 488 750 
Q 750 597 1062 519 
Q 1375 441 1716 441 
Q 2309 441 2620 675 
Q 2931 909 2931 1356 
Q 2931 1769 2642 2001 
Q 2353 2234 1838 2234 
L 1294 2234 
L 1294 2753 
L 1863 2753 
Q 2328 2753 2575 2939 
Q 2822 3125 2822 3475 
Q 2822 3834 2567 4026 
Q 2313 4219 1838 4219 
Q 1578 4219 1281 4162 
Q 984 4106 628 3988 
L 628 4550 
Q 988 4650 1302 4700 
Q 1616 4750 1894 4750 
Q 2613 4750 3031 4423 
Q 3450 4097 3450 3541 
Q 3450 3153 3228 2886 
Q 3006 2619 2597 2516 
z
" transform="scale(0.015625)"/>
       </defs>
       <use xlink:href="#DejaVuSans-33"/>
      </g>
     </g>
    </g>
    <g id="xtick_5">
     <g id="line2d_5">
      <g>
       <use xlink:href="#med1e4ec696" x="796.406617" y="384.48" style="stroke: #000000; stroke-width: 0.8"/>
      </g>
     </g>
     <g id="text_5">
      <!-- 4 -->
      <g transform="translate(793.225367 399.078438) scale(0.1 -0.1)">
       <defs>
        <path id="DejaVuSans-34" d="M 2419 4116 
L 825 1625 
L 2419 1625 
L 2419 4116 
z
M 2253 4666 
L 3047 4666 
L 3047 1625 
L 3713 1625 
L 3713 1100 
L 3047 1100 
L 3047 0 
L 2419 0 
L 2419 1100 
L 313 1100 
L 313 1709 
L 2253 4666 
z
" transform="scale(0.015625)"/>
       </defs>
       <use xlink:href="#DejaVuSans-34"/>
      </g>
     </g>
    </g>
    <g id="text_6">
     <!-- Experiment length [min] -->
     <g transform="translate(455.264844 412.756563) scale(0.1 -0.1)">
      <defs>
       <path id="DejaVuSans-45" d="M 628 4666 
L 3578 4666 
L 3578 4134 
L 1259 4134 
L 1259 2753 
L 3481 2753 
L 3481 2222 
L 1259 2222 
L 1259 531 
L 3634 531 
L 3634 0 
L 628 0 
L 628 4666 
z
" transform="scale(0.015625)"/>
       <path id="DejaVuSans-78" d="M 3513 3500 
L 2247 1797 
L 3578 0 
L 2900 0 
L 1881 1375 
L 863 0 
L 184 0 
L 1544 1831 
L 300 3500 
L 978 3500 
L 1906 2253 
L 2834 3500 
L 3513 3500 
z
" transform="scale(0.015625)"/>
       <path id="DejaVuSans-70" d="M 1159 525 
L 1159 -1331 
L 581 -1331 
L 581 3500 
L 1159 3500 
L 1159 2969 
Q 1341 3281 1617 3432 
Q 1894 3584 2278 3584 
Q 2916 3584 3314 3078 
Q 3713 2572 3713 1747 
Q 3713 922 3314 415 
Q 2916 -91 2278 -91 
Q 1894 -91 1617 61 
Q 1341 213 1159 525 
z
M 3116 1747 
Q 3116 2381 2855 2742 
Q 2594 3103 2138 3103 
Q 1681 3103 1420 2742 
Q 1159 2381 1159 1747 
Q 1159 1113 1420 752 
Q 1681 391 2138 391 
Q 2594 391 2855 752 
Q 3116 1113 3116 1747 
z
" transform="scale(0.015625)"/>
       <path id="DejaVuSans-65" d="M 3597 1894 
L 3597 1613 
L 953 1613 
Q 991 1019 1311 708 
Q 1631 397 2203 397 
Q 2534 397 2845 478 
Q 3156 559 3463 722 
L 3463 178 
Q 3153 47 2828 -22 
Q 2503 -91 2169 -91 
Q 1331 -91 842 396 
Q 353 884 353 1716 
Q 353 2575 817 3079 
Q 1281 3584 2069 3584 
Q 2775 3584 3186 3129 
Q 3597 2675 3597 1894 
z
M 3022 2063 
Q 3016 2534 2758 2815 
Q 2500 3097 2075 3097 
Q 1594 3097 1305 2825 
Q 1016 2553 972 2059 
L 3022 2063 
z
" transform="scale(0.015625)"/>
       <path id="DejaVuSans-72" d="M 2631 2963 
Q 2534 3019 2420 3045 
Q 2306 3072 2169 3072 
Q 1681 3072 1420 2755 
Q 1159 2438 1159 1844 
L 1159 0 
L 581 0 
L 581 3500 
L 1159 3500 
L 1159 2956 
Q 1341 3275 1631 3429 
Q 1922 3584 2338 3584 
Q 2397 3584 2469 3576 
Q 2541 3569 2628 3553 
L 2631 2963 
z
" transform="scale(0.015625)"/>
       <path id="DejaVuSans-69" d="M 603 3500 
L 1178 3500 
L 1178 0 
L 603 0 
L 603 3500 
z
M 603 4863 
L 1178 4863 
L 1178 4134 
L 603 4134 
L 603 4863 
z
" transform="scale(0.015625)"/>
       <path id="DejaVuSans-6d" d="M 3328 2828 
Q 3544 3216 3844 3400 
Q 4144 3584 4550 3584 
Q 5097 3584 5394 3201 
Q 5691 2819 5691 2113 
L 5691 0 
L 5113 0 
L 5113 2094 
Q 5113 2597 4934 2840 
Q 4756 3084 4391 3084 
Q 3944 3084 3684 2787 
Q 3425 2491 3425 1978 
L 3425 0 
L 2847 0 
L 2847 2094 
Q 2847 2600 2669 2842 
Q 2491 3084 2119 3084 
Q 1678 3084 1418 2786 
Q 1159 2488 1159 1978 
L 1159 0 
L 581 0 
L 581 3500 
L 1159 3500 
L 1159 2956 
Q 1356 3278 1631 3431 
Q 1906 3584 2284 3584 
Q 2666 3584 2933 3390 
Q 3200 3197 3328 2828 
z
" transform="scale(0.015625)"/>
       <path id="DejaVuSans-6e" d="M 3513 2113 
L 3513 0 
L 2938 0 
L 2938 2094 
Q 2938 2591 2744 2837 
Q 2550 3084 2163 3084 
Q 1697 3084 1428 2787 
Q 1159 2491 1159 1978 
L 1159 0 
L 581 0 
L 581 3500 
L 1159 3500 
L 1159 2956 
Q 1366 3272 1645 3428 
Q 1925 3584 2291 3584 
Q 2894 3584 3203 3211 
Q 3513 2838 3513 2113 
z
" transform="scale(0.015625)"/>
       <path id="DejaVuSans-74" d="M 1172 4494 
L 1172 3500 
L 2356 3500 
L 2356 3053 
L 1172 3053 
L 1172 1153 
Q 1172 725 1289 603 
Q 1406 481 1766 481 
L 2356 481 
L 2356 0 
L 1766 0 
Q 1100 0 847 248 
Q 594 497 594 1153 
L 594 3053 
L 172 3053 
L 172 3500 
L 594 3500 
L 594 4494 
L 1172 4494 
z
" transform="scale(0.015625)"/>
       <path id="DejaVuSans-20" transform="scale(0.015625)"/>
       <path id="DejaVuSans-6c" d="M 603 4863 
L 1178 4863 
L 1178 0 
L 603 0 
L 603 4863 
z
" transform="scale(0.015625)"/>
       <path id="DejaVuSans-67" d="M 2906 1791 
Q 2906 2416 2648 2759 
Q 2391 3103 1925 3103 
Q 1463 3103 1205 2759 
Q 947 2416 947 1791 
Q 947 1169 1205 825 
Q 1463 481 1925 481 
Q 2391 481 2648 825 
Q 2906 1169 2906 1791 
z
M 3481 434 
Q 3481 -459 3084 -895 
Q 2688 -1331 1869 -1331 
Q 1566 -1331 1297 -1286 
Q 1028 -1241 775 -1147 
L 775 -588 
Q 1028 -725 1275 -790 
Q 1522 -856 1778 -856 
Q 2344 -856 2625 -561 
Q 2906 -266 2906 331 
L 2906 616 
Q 2728 306 2450 153 
Q 2172 0 1784 0 
Q 1141 0 747 490 
Q 353 981 353 1791 
Q 353 2603 747 3093 
Q 1141 3584 1784 3584 
Q 2172 3584 2450 3431 
Q 2728 3278 2906 2969 
L 2906 3500 
L 3481 3500 
L 3481 434 
z
" transform="scale(0.015625)"/>
       <path id="DejaVuSans-68" d="M 3513 2113 
L 3513 0 
L 2938 0 
L 2938 2094 
Q 2938 2591 2744 2837 
Q 2550 3084 2163 3084 
Q 1697 3084 1428 2787 
Q 1159 2491 1159 1978 
L 1159 0 
L 581 0 
L 581 4863 
L 1159 4863 
L 1159 2956 
Q 1366 3272 1645 3428 
Q 1925 3584 2291 3584 
Q 2894 3584 3203 3211 
Q 3513 2838 3513 2113 
z
" transform="scale(0.015625)"/>
       <path id="DejaVuSans-5b" d="M 550 4863 
L 1875 4863 
L 1875 4416 
L 1125 4416 
L 1125 -397 
L 1875 -397 
L 1875 -844 
L 550 -844 
L 550 4863 
z
" transform="scale(0.015625)"/>
       <path id="DejaVuSans-5d" d="M 1947 4863 
L 1947 -844 
L 622 -844 
L 622 -397 
L 1369 -397 
L 1369 4416 
L 622 4416 
L 622 4863 
L 1947 4863 
z
" transform="scale(0.015625)"/>
      </defs>
      <use xlink:href="#DejaVuSans-45"/>
      <use xlink:href="#DejaVuSans-78" x="63.183594"/>
      <use xlink:href="#DejaVuSans-70" x="122.363281"/>
      <use xlink:href="#DejaVuSans-65" x="185.839844"/>
      <use xlink:href="#DejaVuSans-72" x="247.363281"/>
      <use xlink:href="#DejaVuSans-69" x="288.476562"/>
      <use xlink:href="#DejaVuSans-6d" x="316.259766"/>
      <use xlink:href="#DejaVuSans-65" x="413.671875"/>
      <use xlink:href="#DejaVuSans-6e" x="475.195312"/>
      <use xlink:href="#DejaVuSans-74" x="538.574219"/>
      <use xlink:href="#DejaVuSans-20" x="577.783203"/>
      <use xlink:href="#DejaVuSans-6c" x="609.570312"/>
      <use xlink:href="#DejaVuSans-65" x="637.353516"/>
      <use xlink:href="#DejaVuSans-6e" x="698.876953"/>
      <use xlink:href="#DejaVuSans-67" x="762.255859"/>
      <use xlink:href="#DejaVuSans-74" x="825.732422"/>
      <use xlink:href="#DejaVuSans-68" x="864.941406"/>
      <use xlink:href="#DejaVuSans-20" x="928.320312"/>
      <use xlink:href="#DejaVuSans-5b" x="960.107422"/>
      <use xlink:href="#DejaVuSans-6d" x="999.121094"/>
      <use xlink:href="#DejaVuSans-69" x="1096.533203"/>
      <use xlink:href="#DejaVuSans-6e" x="1124.316406"/>
      <use xlink:href="#DejaVuSans-5d" x="1187.695312"/>
     </g>
    </g>
   </g>
   <g id="matplotlib.axis_2">
    <g id="ytick_1">
     <g id="line2d_6">
      <defs>
       <path id="md5c5e8b903" d="M 0 0 
L -3.5 0 
" style="stroke: #000000; stroke-width: 0.8"/>
      </defs>
      <g>
       <use xlink:href="#md5c5e8b903" x="126" y="268.56" style="stroke: #000000; stroke-width: 0.8"/>
      </g>
     </g>
     <g id="text_7">
      <!-- deg sniff left dish -->
      <g transform="translate(32.379687 272.359219) scale(0.1 -0.1)">
       <defs>
        <path id="DejaVuSans-64" d="M 2906 2969 
L 2906 4863 
L 3481 4863 
L 3481 0 
L 2906 0 
L 2906 525 
Q 2725 213 2448 61 
Q 2172 -91 1784 -91 
Q 1150 -91 751 415 
Q 353 922 353 1747 
Q 353 2572 751 3078 
Q 1150 3584 1784 3584 
Q 2172 3584 2448 3432 
Q 2725 3281 2906 2969 
z
M 947 1747 
Q 947 1113 1208 752 
Q 1469 391 1925 391 
Q 2381 391 2643 752 
Q 2906 1113 2906 1747 
Q 2906 2381 2643 2742 
Q 2381 3103 1925 3103 
Q 1469 3103 1208 2742 
Q 947 2381 947 1747 
z
" transform="scale(0.015625)"/>
        <path id="DejaVuSans-73" d="M 2834 3397 
L 2834 2853 
Q 2591 2978 2328 3040 
Q 2066 3103 1784 3103 
Q 1356 3103 1142 2972 
Q 928 2841 928 2578 
Q 928 2378 1081 2264 
Q 1234 2150 1697 2047 
L 1894 2003 
Q 2506 1872 2764 1633 
Q 3022 1394 3022 966 
Q 3022 478 2636 193 
Q 2250 -91 1575 -91 
Q 1294 -91 989 -36 
Q 684 19 347 128 
L 347 722 
Q 666 556 975 473 
Q 1284 391 1588 391 
Q 1994 391 2212 530 
Q 2431 669 2431 922 
Q 2431 1156 2273 1281 
Q 2116 1406 1581 1522 
L 1381 1569 
Q 847 1681 609 1914 
Q 372 2147 372 2553 
Q 372 3047 722 3315 
Q 1072 3584 1716 3584 
Q 2034 3584 2315 3537 
Q 2597 3491 2834 3397 
z
" transform="scale(0.015625)"/>
        <path id="DejaVuSans-66" d="M 2375 4863 
L 2375 4384 
L 1825 4384 
Q 1516 4384 1395 4259 
Q 1275 4134 1275 3809 
L 1275 3500 
L 2222 3500 
L 2222 3053 
L 1275 3053 
L 1275 0 
L 697 0 
L 697 3053 
L 147 3053 
L 147 3500 
L 697 3500 
L 697 3744 
Q 697 4328 969 4595 
Q 1241 4863 1831 4863 
L 2375 4863 
z
" transform="scale(0.015625)"/>
       </defs>
       <use xlink:href="#DejaVuSans-64"/>
       <use xlink:href="#DejaVuSans-65" x="63.476562"/>
       <use xlink:href="#DejaVuSans-67" x="125"/>
       <use xlink:href="#DejaVuSans-20" x="188.476562"/>
       <use xlink:href="#DejaVuSans-73" x="220.263672"/>
       <use xlink:href="#DejaVuSans-6e" x="272.363281"/>
       <use xlink:href="#DejaVuSans-69" x="335.742188"/>
       <use xlink:href="#DejaVuSans-66" x="363.525391"/>
       <use xlink:href="#DejaVuSans-66" x="398.730469"/>
       <use xlink:href="#DejaVuSans-20" x="433.935547"/>
       <use xlink:href="#DejaVuSans-6c" x="465.722656"/>
       <use xlink:href="#DejaVuSans-65" x="493.505859"/>
       <use xlink:href="#DejaVuSans-66" x="555.029297"/>
       <use xlink:href="#DejaVuSans-74" x="588.484375"/>
       <use xlink:href="#DejaVuSans-20" x="627.693359"/>
       <use xlink:href="#DejaVuSans-64" x="659.480469"/>
       <use xlink:href="#DejaVuSans-69" x="722.957031"/>
       <use xlink:href="#DejaVuSans-73" x="750.740234"/>
       <use xlink:href="#DejaVuSans-68" x="802.839844"/>
      </g>
     </g>
    </g>
    <g id="ytick_2">
     <g id="line2d_7">
      <g>
       <use xlink:href="#md5c5e8b903" x="126" y="167.76" style="stroke: #000000; stroke-width: 0.8"/>
      </g>
     </g>
     <g id="text_8">
      <!-- def sniff right dish -->
      <g transform="translate(27.909375 171.559219) scale(0.1 -0.1)">
       <use xlink:href="#DejaVuSans-64"/>
       <use xlink:href="#DejaVuSans-65" x="63.476562"/>
       <use xlink:href="#DejaVuSans-66" x="125"/>
       <use xlink:href="#DejaVuSans-20" x="160.205078"/>
       <use xlink:href="#DejaVuSans-73" x="191.992188"/>
       <use xlink:href="#DejaVuSans-6e" x="244.091797"/>
       <use xlink:href="#DejaVuSans-69" x="307.470703"/>
       <use xlink:href="#DejaVuSans-66" x="335.253906"/>
       <use xlink:href="#DejaVuSans-66" x="370.458984"/>
       <use xlink:href="#DejaVuSans-20" x="405.664062"/>
       <use xlink:href="#DejaVuSans-72" x="437.451172"/>
       <use xlink:href="#DejaVuSans-69" x="478.564453"/>
       <use xlink:href="#DejaVuSans-67" x="506.347656"/>
       <use xlink:href="#DejaVuSans-68" x="569.824219"/>
       <use xlink:href="#DejaVuSans-74" x="633.203125"/>
       <use xlink:href="#DejaVuSans-20" x="672.412109"/>
       <use xlink:href="#DejaVuSans-64" x="704.199219"/>
       <use xlink:href="#DejaVuSans-69" x="767.675781"/>
       <use xlink:href="#DejaVuSans-73" x="795.458984"/>
       <use xlink:href="#DejaVuSans-68" x="847.558594"/>
      </g>
     </g>
    </g>
   </g>
   <g id="EventCollection_1">
    <path d="M 231.415933 218.16 
L 231.415933 318.96 
" clip-path="url(#p5c7902d772)" style="fill: none; stroke: #bf00bf; stroke-width: 0.5"/>
    <path d="M 231.595181 218.16 
L 231.595181 318.96 
" clip-path="url(#p5c7902d772)" style="fill: none; stroke: #bf00bf; stroke-width: 0.5"/>
    <path d="M 231.77443 218.16 
L 231.77443 318.96 
" clip-path="url(#p5c7902d772)" style="fill: none; stroke: #bf00bf; stroke-width: 0.5"/>
    <path d="M 231.953678 218.16 
L 231.953678 318.96 
" clip-path="url(#p5c7902d772)" style="fill: none; stroke: #bf00bf; stroke-width: 0.5"/>
    <path d="M 232.132926 218.16 
L 232.132926 318.96 
" clip-path="url(#p5c7902d772)" style="fill: none; stroke: #bf00bf; stroke-width: 0.5"/>
    <path d="M 232.312175 218.16 
L 232.312175 318.96 
" clip-path="url(#p5c7902d772)" style="fill: none; stroke: #bf00bf; stroke-width: 0.5"/>
    <path d="M 232.491423 218.16 
L 232.491423 318.96 
" clip-path="url(#p5c7902d772)" style="fill: none; stroke: #bf00bf; stroke-width: 0.5"/>
    <path d="M 263.501381 218.16 
L 263.501381 318.96 
" clip-path="url(#p5c7902d772)" style="fill: none; stroke: #bf00bf; stroke-width: 0.5"/>
    <path d="M 263.68063 218.16 
L 263.68063 318.96 
" clip-path="url(#p5c7902d772)" style="fill: none; stroke: #bf00bf; stroke-width: 0.5"/>
    <path d="M 271.02981 218.16 
L 271.02981 318.96 
" clip-path="url(#p5c7902d772)" style="fill: none; stroke: #bf00bf; stroke-width: 0.5"/>
    <path d="M 283.756441 218.16 
L 283.756441 318.96 
" clip-path="url(#p5c7902d772)" style="fill: none; stroke: #bf00bf; stroke-width: 0.5"/>
    <path d="M 283.935689 218.16 
L 283.935689 318.96 
" clip-path="url(#p5c7902d772)" style="fill: none; stroke: #bf00bf; stroke-width: 0.5"/>
    <path d="M 284.114937 218.16 
L 284.114937 318.96 
" clip-path="url(#p5c7902d772)" style="fill: none; stroke: #bf00bf; stroke-width: 0.5"/>
    <path d="M 284.294186 218.16 
L 284.294186 318.96 
" clip-path="url(#p5c7902d772)" style="fill: none; stroke: #bf00bf; stroke-width: 0.5"/>
    <path d="M 312.973916 218.16 
L 312.973916 318.96 
" clip-path="url(#p5c7902d772)" style="fill: none; stroke: #bf00bf; stroke-width: 0.5"/>
    <path d="M 313.153164 218.16 
L 313.153164 318.96 
" clip-path="url(#p5c7902d772)" style="fill: none; stroke: #bf00bf; stroke-width: 0.5"/>
    <path d="M 313.332412 218.16 
L 313.332412 318.96 
" clip-path="url(#p5c7902d772)" style="fill: none; stroke: #bf00bf; stroke-width: 0.5"/>
    <path d="M 313.511661 218.16 
L 313.511661 318.96 
" clip-path="url(#p5c7902d772)" style="fill: none; stroke: #bf00bf; stroke-width: 0.5"/>
    <path d="M 313.690909 218.16 
L 313.690909 318.96 
" clip-path="url(#p5c7902d772)" style="fill: none; stroke: #bf00bf; stroke-width: 0.5"/>
    <path d="M 313.870157 218.16 
L 313.870157 318.96 
" clip-path="url(#p5c7902d772)" style="fill: none; stroke: #bf00bf; stroke-width: 0.5"/>
    <path d="M 314.049406 218.16 
L 314.049406 318.96 
" clip-path="url(#p5c7902d772)" style="fill: none; stroke: #bf00bf; stroke-width: 0.5"/>
    <path d="M 314.228654 218.16 
L 314.228654 318.96 
" clip-path="url(#p5c7902d772)" style="fill: none; stroke: #bf00bf; stroke-width: 0.5"/>
    <path d="M 314.407902 218.16 
L 314.407902 318.96 
" clip-path="url(#p5c7902d772)" style="fill: none; stroke: #bf00bf; stroke-width: 0.5"/>
    <path d="M 314.587151 218.16 
L 314.587151 318.96 
" clip-path="url(#p5c7902d772)" style="fill: none; stroke: #bf00bf; stroke-width: 0.5"/>
    <path d="M 314.766399 218.16 
L 314.766399 318.96 
" clip-path="url(#p5c7902d772)" style="fill: none; stroke: #bf00bf; stroke-width: 0.5"/>
    <path d="M 314.945647 218.16 
L 314.945647 318.96 
" clip-path="url(#p5c7902d772)" style="fill: none; stroke: #bf00bf; stroke-width: 0.5"/>
    <path d="M 315.124896 218.16 
L 315.124896 318.96 
" clip-path="url(#p5c7902d772)" style="fill: none; stroke: #bf00bf; stroke-width: 0.5"/>
    <path d="M 324.983553 218.16 
L 324.983553 318.96 
" clip-path="url(#p5c7902d772)" style="fill: none; stroke: #bf00bf; stroke-width: 0.5"/>
    <path d="M 325.162801 218.16 
L 325.162801 318.96 
" clip-path="url(#p5c7902d772)" style="fill: none; stroke: #bf00bf; stroke-width: 0.5"/>
    <path d="M 325.342049 218.16 
L 325.342049 318.96 
" clip-path="url(#p5c7902d772)" style="fill: none; stroke: #bf00bf; stroke-width: 0.5"/>
    <path d="M 350.257565 218.16 
L 350.257565 318.96 
" clip-path="url(#p5c7902d772)" style="fill: none; stroke: #bf00bf; stroke-width: 0.5"/>
    <path d="M 350.436813 218.16 
L 350.436813 318.96 
" clip-path="url(#p5c7902d772)" style="fill: none; stroke: #bf00bf; stroke-width: 0.5"/>
    <path d="M 350.616062 218.16 
L 350.616062 318.96 
" clip-path="url(#p5c7902d772)" style="fill: none; stroke: #bf00bf; stroke-width: 0.5"/>
    <path d="M 350.79531 218.16 
L 350.79531 318.96 
" clip-path="url(#p5c7902d772)" style="fill: none; stroke: #bf00bf; stroke-width: 0.5"/>
    <path d="M 350.974558 218.16 
L 350.974558 318.96 
" clip-path="url(#p5c7902d772)" style="fill: none; stroke: #bf00bf; stroke-width: 0.5"/>
    <path d="M 351.153807 218.16 
L 351.153807 318.96 
" clip-path="url(#p5c7902d772)" style="fill: none; stroke: #bf00bf; stroke-width: 0.5"/>
    <path d="M 351.333055 218.16 
L 351.333055 318.96 
" clip-path="url(#p5c7902d772)" style="fill: none; stroke: #bf00bf; stroke-width: 0.5"/>
    <path d="M 443.825185 218.16 
L 443.825185 318.96 
" clip-path="url(#p5c7902d772)" style="fill: none; stroke: #bf00bf; stroke-width: 0.5"/>
    <path d="M 444.004433 218.16 
L 444.004433 318.96 
" clip-path="url(#p5c7902d772)" style="fill: none; stroke: #bf00bf; stroke-width: 0.5"/>
    <path d="M 444.183681 218.16 
L 444.183681 318.96 
" clip-path="url(#p5c7902d772)" style="fill: none; stroke: #bf00bf; stroke-width: 0.5"/>
    <path d="M 444.36293 218.16 
L 444.36293 318.96 
" clip-path="url(#p5c7902d772)" style="fill: none; stroke: #bf00bf; stroke-width: 0.5"/>
    <path d="M 444.542178 218.16 
L 444.542178 318.96 
" clip-path="url(#p5c7902d772)" style="fill: none; stroke: #bf00bf; stroke-width: 0.5"/>
    <path d="M 444.721426 218.16 
L 444.721426 318.96 
" clip-path="url(#p5c7902d772)" style="fill: none; stroke: #bf00bf; stroke-width: 0.5"/>
    <path d="M 444.900675 218.16 
L 444.900675 318.96 
" clip-path="url(#p5c7902d772)" style="fill: none; stroke: #bf00bf; stroke-width: 0.5"/>
    <path d="M 445.259171 218.16 
L 445.259171 318.96 
" clip-path="url(#p5c7902d772)" style="fill: none; stroke: #bf00bf; stroke-width: 0.5"/>
    <path d="M 454.580084 218.16 
L 454.580084 318.96 
" clip-path="url(#p5c7902d772)" style="fill: none; stroke: #bf00bf; stroke-width: 0.5"/>
    <path d="M 454.759332 218.16 
L 454.759332 318.96 
" clip-path="url(#p5c7902d772)" style="fill: none; stroke: #bf00bf; stroke-width: 0.5"/>
    <path d="M 454.93858 218.16 
L 454.93858 318.96 
" clip-path="url(#p5c7902d772)" style="fill: none; stroke: #bf00bf; stroke-width: 0.5"/>
    <path d="M 486.486283 218.16 
L 486.486283 318.96 
" clip-path="url(#p5c7902d772)" style="fill: none; stroke: #bf00bf; stroke-width: 0.5"/>
    <path d="M 543.845744 218.16 
L 543.845744 318.96 
" clip-path="url(#p5c7902d772)" style="fill: none; stroke: #bf00bf; stroke-width: 0.5"/>
    <path d="M 544.024992 218.16 
L 544.024992 318.96 
" clip-path="url(#p5c7902d772)" style="fill: none; stroke: #bf00bf; stroke-width: 0.5"/>
    <path d="M 544.20424 218.16 
L 544.20424 318.96 
" clip-path="url(#p5c7902d772)" style="fill: none; stroke: #bf00bf; stroke-width: 0.5"/>
    <path d="M 544.383489 218.16 
L 544.383489 318.96 
" clip-path="url(#p5c7902d772)" style="fill: none; stroke: #bf00bf; stroke-width: 0.5"/>
    <path d="M 584.535111 218.16 
L 584.535111 318.96 
" clip-path="url(#p5c7902d772)" style="fill: none; stroke: #bf00bf; stroke-width: 0.5"/>
    <path d="M 584.714359 218.16 
L 584.714359 318.96 
" clip-path="url(#p5c7902d772)" style="fill: none; stroke: #bf00bf; stroke-width: 0.5"/>
    <path d="M 661.432637 218.16 
L 661.432637 318.96 
" clip-path="url(#p5c7902d772)" style="fill: none; stroke: #bf00bf; stroke-width: 0.5"/>
    <path d="M 661.611886 218.16 
L 661.611886 318.96 
" clip-path="url(#p5c7902d772)" style="fill: none; stroke: #bf00bf; stroke-width: 0.5"/>
    <path d="M 661.791134 218.16 
L 661.791134 318.96 
" clip-path="url(#p5c7902d772)" style="fill: none; stroke: #bf00bf; stroke-width: 0.5"/>
    <path d="M 661.970382 218.16 
L 661.970382 318.96 
" clip-path="url(#p5c7902d772)" style="fill: none; stroke: #bf00bf; stroke-width: 0.5"/>
    <path d="M 662.149631 218.16 
L 662.149631 318.96 
" clip-path="url(#p5c7902d772)" style="fill: none; stroke: #bf00bf; stroke-width: 0.5"/>
    <path d="M 662.328879 218.16 
L 662.328879 318.96 
" clip-path="url(#p5c7902d772)" style="fill: none; stroke: #bf00bf; stroke-width: 0.5"/>
    <path d="M 663.045872 218.16 
L 663.045872 318.96 
" clip-path="url(#p5c7902d772)" style="fill: none; stroke: #bf00bf; stroke-width: 0.5"/>
    <path d="M 663.404369 218.16 
L 663.404369 318.96 
" clip-path="url(#p5c7902d772)" style="fill: none; stroke: #bf00bf; stroke-width: 0.5"/>
    <path d="M 687.782139 218.16 
L 687.782139 318.96 
" clip-path="url(#p5c7902d772)" style="fill: none; stroke: #bf00bf; stroke-width: 0.5"/>
    <path d="M 687.961388 218.16 
L 687.961388 318.96 
" clip-path="url(#p5c7902d772)" style="fill: none; stroke: #bf00bf; stroke-width: 0.5"/>
    <path d="M 688.140636 218.16 
L 688.140636 318.96 
" clip-path="url(#p5c7902d772)" style="fill: none; stroke: #bf00bf; stroke-width: 0.5"/>
    <path d="M 688.319884 218.16 
L 688.319884 318.96 
" clip-path="url(#p5c7902d772)" style="fill: none; stroke: #bf00bf; stroke-width: 0.5"/>
    <path d="M 688.499133 218.16 
L 688.499133 318.96 
" clip-path="url(#p5c7902d772)" style="fill: none; stroke: #bf00bf; stroke-width: 0.5"/>
    <path d="M 688.678381 218.16 
L 688.678381 318.96 
" clip-path="url(#p5c7902d772)" style="fill: none; stroke: #bf00bf; stroke-width: 0.5"/>
    <path d="M 688.857629 218.16 
L 688.857629 318.96 
" clip-path="url(#p5c7902d772)" style="fill: none; stroke: #bf00bf; stroke-width: 0.5"/>
    <path d="M 689.036878 218.16 
L 689.036878 318.96 
" clip-path="url(#p5c7902d772)" style="fill: none; stroke: #bf00bf; stroke-width: 0.5"/>
    <path d="M 689.216126 218.16 
L 689.216126 318.96 
" clip-path="url(#p5c7902d772)" style="fill: none; stroke: #bf00bf; stroke-width: 0.5"/>
    <path d="M 689.395374 218.16 
L 689.395374 318.96 
" clip-path="url(#p5c7902d772)" style="fill: none; stroke: #bf00bf; stroke-width: 0.5"/>
    <path d="M 689.574623 218.16 
L 689.574623 318.96 
" clip-path="url(#p5c7902d772)" style="fill: none; stroke: #bf00bf; stroke-width: 0.5"/>
    <path d="M 703.376743 218.16 
L 703.376743 318.96 
" clip-path="url(#p5c7902d772)" style="fill: none; stroke: #bf00bf; stroke-width: 0.5"/>
    <path d="M 703.555991 218.16 
L 703.555991 318.96 
" clip-path="url(#p5c7902d772)" style="fill: none; stroke: #bf00bf; stroke-width: 0.5"/>
    <path d="M 703.735239 218.16 
L 703.735239 318.96 
" clip-path="url(#p5c7902d772)" style="fill: none; stroke: #bf00bf; stroke-width: 0.5"/>
    <path d="M 703.914488 218.16 
L 703.914488 318.96 
" clip-path="url(#p5c7902d772)" style="fill: none; stroke: #bf00bf; stroke-width: 0.5"/>
    <path d="M 704.093736 218.16 
L 704.093736 318.96 
" clip-path="url(#p5c7902d772)" style="fill: none; stroke: #bf00bf; stroke-width: 0.5"/>
    <path d="M 704.272984 218.16 
L 704.272984 318.96 
" clip-path="url(#p5c7902d772)" style="fill: none; stroke: #bf00bf; stroke-width: 0.5"/>
    <path d="M 704.452233 218.16 
L 704.452233 318.96 
" clip-path="url(#p5c7902d772)" style="fill: none; stroke: #bf00bf; stroke-width: 0.5"/>
    <path d="M 704.631481 218.16 
L 704.631481 318.96 
" clip-path="url(#p5c7902d772)" style="fill: none; stroke: #bf00bf; stroke-width: 0.5"/>
    <path d="M 704.810729 218.16 
L 704.810729 318.96 
" clip-path="url(#p5c7902d772)" style="fill: none; stroke: #bf00bf; stroke-width: 0.5"/>
    <path d="M 704.989978 218.16 
L 704.989978 318.96 
" clip-path="url(#p5c7902d772)" style="fill: none; stroke: #bf00bf; stroke-width: 0.5"/>
    <path d="M 705.169226 218.16 
L 705.169226 318.96 
" clip-path="url(#p5c7902d772)" style="fill: none; stroke: #bf00bf; stroke-width: 0.5"/>
    <path d="M 705.348474 218.16 
L 705.348474 318.96 
" clip-path="url(#p5c7902d772)" style="fill: none; stroke: #bf00bf; stroke-width: 0.5"/>
    <path d="M 716.999615 218.16 
L 716.999615 318.96 
" clip-path="url(#p5c7902d772)" style="fill: none; stroke: #bf00bf; stroke-width: 0.5"/>
    <path d="M 717.178863 218.16 
L 717.178863 318.96 
" clip-path="url(#p5c7902d772)" style="fill: none; stroke: #bf00bf; stroke-width: 0.5"/>
    <path d="M 717.358111 218.16 
L 717.358111 318.96 
" clip-path="url(#p5c7902d772)" style="fill: none; stroke: #bf00bf; stroke-width: 0.5"/>
    <path d="M 745.320848 218.16 
L 745.320848 318.96 
" clip-path="url(#p5c7902d772)" style="fill: none; stroke: #bf00bf; stroke-width: 0.5"/>
    <path d="M 745.500096 218.16 
L 745.500096 318.96 
" clip-path="url(#p5c7902d772)" style="fill: none; stroke: #bf00bf; stroke-width: 0.5"/>
    <path d="M 745.679345 218.16 
L 745.679345 318.96 
" clip-path="url(#p5c7902d772)" style="fill: none; stroke: #bf00bf; stroke-width: 0.5"/>
    <path d="M 745.858593 218.16 
L 745.858593 318.96 
" clip-path="url(#p5c7902d772)" style="fill: none; stroke: #bf00bf; stroke-width: 0.5"/>
    <path d="M 759.122968 218.16 
L 759.122968 318.96 
" clip-path="url(#p5c7902d772)" style="fill: none; stroke: #bf00bf; stroke-width: 0.5"/>
    <path d="M 759.302217 218.16 
L 759.302217 318.96 
" clip-path="url(#p5c7902d772)" style="fill: none; stroke: #bf00bf; stroke-width: 0.5"/>
    <path d="M 759.481465 218.16 
L 759.481465 318.96 
" clip-path="url(#p5c7902d772)" style="fill: none; stroke: #bf00bf; stroke-width: 0.5"/>
    <path d="M 812.718214 218.16 
L 812.718214 318.96 
" clip-path="url(#p5c7902d772)" style="fill: none; stroke: #bf00bf; stroke-width: 0.5"/>
    <path d="M 812.897462 218.16 
L 812.897462 318.96 
" clip-path="url(#p5c7902d772)" style="fill: none; stroke: #bf00bf; stroke-width: 0.5"/>
    <path d="M 813.076711 218.16 
L 813.076711 318.96 
" clip-path="url(#p5c7902d772)" style="fill: none; stroke: #bf00bf; stroke-width: 0.5"/>
    <path d="M 813.255959 218.16 
L 813.255959 318.96 
" clip-path="url(#p5c7902d772)" style="fill: none; stroke: #bf00bf; stroke-width: 0.5"/>
    <path d="M 813.435207 218.16 
L 813.435207 318.96 
" clip-path="url(#p5c7902d772)" style="fill: none; stroke: #bf00bf; stroke-width: 0.5"/>
    <path d="M 813.614456 218.16 
L 813.614456 318.96 
" clip-path="url(#p5c7902d772)" style="fill: none; stroke: #bf00bf; stroke-width: 0.5"/>
    <path d="M 813.793704 218.16 
L 813.793704 318.96 
" clip-path="url(#p5c7902d772)" style="fill: none; stroke: #bf00bf; stroke-width: 0.5"/>
    <path d="M 813.972952 218.16 
L 813.972952 318.96 
" clip-path="url(#p5c7902d772)" style="fill: none; stroke: #bf00bf; stroke-width: 0.5"/>
    <path d="M 844.803662 218.16 
L 844.803662 318.96 
" clip-path="url(#p5c7902d772)" style="fill: none; stroke: #bf00bf; stroke-width: 0.5"/>
    <path d="M 844.98291 218.16 
L 844.98291 318.96 
" clip-path="url(#p5c7902d772)" style="fill: none; stroke: #bf00bf; stroke-width: 0.5"/>
    <path d="M 859.143527 218.16 
L 859.143527 318.96 
" clip-path="url(#p5c7902d772)" style="fill: none; stroke: #bf00bf; stroke-width: 0.5"/>
    <path d="M 859.322775 218.16 
L 859.322775 318.96 
" clip-path="url(#p5c7902d772)" style="fill: none; stroke: #bf00bf; stroke-width: 0.5"/>
   </g>
   <g id="EventCollection_2">
    <path d="M 161.509091 117.36 
L 161.509091 218.16 
" clip-path="url(#p5c7902d772)" style="fill: none; stroke: #bfbf00; stroke-width: 0.5"/>
    <path d="M 161.688339 117.36 
L 161.688339 218.16 
" clip-path="url(#p5c7902d772)" style="fill: none; stroke: #bfbf00; stroke-width: 0.5"/>
    <path d="M 161.867588 117.36 
L 161.867588 218.16 
" clip-path="url(#p5c7902d772)" style="fill: none; stroke: #bfbf00; stroke-width: 0.5"/>
    <path d="M 187.320848 117.36 
L 187.320848 218.16 
" clip-path="url(#p5c7902d772)" style="fill: none; stroke: #bfbf00; stroke-width: 0.5"/>
    <path d="M 187.500096 117.36 
L 187.500096 218.16 
" clip-path="url(#p5c7902d772)" style="fill: none; stroke: #bfbf00; stroke-width: 0.5"/>
    <path d="M 187.679345 117.36 
L 187.679345 218.16 
" clip-path="url(#p5c7902d772)" style="fill: none; stroke: #bfbf00; stroke-width: 0.5"/>
    <path d="M 234.463155 117.36 
L 234.463155 218.16 
" clip-path="url(#p5c7902d772)" style="fill: none; stroke: #bfbf00; stroke-width: 0.5"/>
    <path d="M 234.642403 117.36 
L 234.642403 218.16 
" clip-path="url(#p5c7902d772)" style="fill: none; stroke: #bfbf00; stroke-width: 0.5"/>
    <path d="M 234.821651 117.36 
L 234.821651 218.16 
" clip-path="url(#p5c7902d772)" style="fill: none; stroke: #bfbf00; stroke-width: 0.5"/>
    <path d="M 235.000899 117.36 
L 235.000899 218.16 
" clip-path="url(#p5c7902d772)" style="fill: none; stroke: #bfbf00; stroke-width: 0.5"/>
    <path d="M 235.180148 117.36 
L 235.180148 218.16 
" clip-path="url(#p5c7902d772)" style="fill: none; stroke: #bfbf00; stroke-width: 0.5"/>
    <path d="M 235.359396 117.36 
L 235.359396 218.16 
" clip-path="url(#p5c7902d772)" style="fill: none; stroke: #bfbf00; stroke-width: 0.5"/>
    <path d="M 235.538644 117.36 
L 235.538644 218.16 
" clip-path="url(#p5c7902d772)" style="fill: none; stroke: #bfbf00; stroke-width: 0.5"/>
    <path d="M 235.717893 117.36 
L 235.717893 218.16 
" clip-path="url(#p5c7902d772)" style="fill: none; stroke: #bfbf00; stroke-width: 0.5"/>
    <path d="M 235.897141 117.36 
L 235.897141 218.16 
" clip-path="url(#p5c7902d772)" style="fill: none; stroke: #bfbf00; stroke-width: 0.5"/>
    <path d="M 236.076389 117.36 
L 236.076389 218.16 
" clip-path="url(#p5c7902d772)" style="fill: none; stroke: #bfbf00; stroke-width: 0.5"/>
    <path d="M 236.255638 117.36 
L 236.255638 218.16 
" clip-path="url(#p5c7902d772)" style="fill: none; stroke: #bfbf00; stroke-width: 0.5"/>
    <path d="M 243.604819 117.36 
L 243.604819 218.16 
" clip-path="url(#p5c7902d772)" style="fill: none; stroke: #bfbf00; stroke-width: 0.5"/>
    <path d="M 244.142563 117.36 
L 244.142563 218.16 
" clip-path="url(#p5c7902d772)" style="fill: none; stroke: #bfbf00; stroke-width: 0.5"/>
    <path d="M 244.321812 117.36 
L 244.321812 218.16 
" clip-path="url(#p5c7902d772)" style="fill: none; stroke: #bfbf00; stroke-width: 0.5"/>
    <path d="M 300.605782 117.36 
L 300.605782 218.16 
" clip-path="url(#p5c7902d772)" style="fill: none; stroke: #bfbf00; stroke-width: 0.5"/>
    <path d="M 300.785031 117.36 
L 300.785031 218.16 
" clip-path="url(#p5c7902d772)" style="fill: none; stroke: #bfbf00; stroke-width: 0.5"/>
    <path d="M 300.964279 117.36 
L 300.964279 218.16 
" clip-path="url(#p5c7902d772)" style="fill: none; stroke: #bfbf00; stroke-width: 0.5"/>
    <path d="M 301.143527 117.36 
L 301.143527 218.16 
" clip-path="url(#p5c7902d772)" style="fill: none; stroke: #bfbf00; stroke-width: 0.5"/>
    <path d="M 301.322775 117.36 
L 301.322775 218.16 
" clip-path="url(#p5c7902d772)" style="fill: none; stroke: #bfbf00; stroke-width: 0.5"/>
    <path d="M 301.502024 117.36 
L 301.502024 218.16 
" clip-path="url(#p5c7902d772)" style="fill: none; stroke: #bfbf00; stroke-width: 0.5"/>
    <path d="M 301.681272 117.36 
L 301.681272 218.16 
" clip-path="url(#p5c7902d772)" style="fill: none; stroke: #bfbf00; stroke-width: 0.5"/>
    <path d="M 301.86052 117.36 
L 301.86052 218.16 
" clip-path="url(#p5c7902d772)" style="fill: none; stroke: #bfbf00; stroke-width: 0.5"/>
    <path d="M 302.039769 117.36 
L 302.039769 218.16 
" clip-path="url(#p5c7902d772)" style="fill: none; stroke: #bfbf00; stroke-width: 0.5"/>
    <path d="M 302.219017 117.36 
L 302.219017 218.16 
" clip-path="url(#p5c7902d772)" style="fill: none; stroke: #bfbf00; stroke-width: 0.5"/>
    <path d="M 302.398265 117.36 
L 302.398265 218.16 
" clip-path="url(#p5c7902d772)" style="fill: none; stroke: #bfbf00; stroke-width: 0.5"/>
    <path d="M 302.577514 117.36 
L 302.577514 218.16 
" clip-path="url(#p5c7902d772)" style="fill: none; stroke: #bfbf00; stroke-width: 0.5"/>
    <path d="M 302.756762 117.36 
L 302.756762 218.16 
" clip-path="url(#p5c7902d772)" style="fill: none; stroke: #bfbf00; stroke-width: 0.5"/>
    <path d="M 302.93601 117.36 
L 302.93601 218.16 
" clip-path="url(#p5c7902d772)" style="fill: none; stroke: #bfbf00; stroke-width: 0.5"/>
    <path d="M 303.115259 117.36 
L 303.115259 218.16 
" clip-path="url(#p5c7902d772)" style="fill: none; stroke: #bfbf00; stroke-width: 0.5"/>
    <path d="M 303.294507 117.36 
L 303.294507 218.16 
" clip-path="url(#p5c7902d772)" style="fill: none; stroke: #bfbf00; stroke-width: 0.5"/>
    <path d="M 303.473755 117.36 
L 303.473755 218.16 
" clip-path="url(#p5c7902d772)" style="fill: none; stroke: #bfbf00; stroke-width: 0.5"/>
    <path d="M 303.653004 117.36 
L 303.653004 218.16 
" clip-path="url(#p5c7902d772)" style="fill: none; stroke: #bfbf00; stroke-width: 0.5"/>
    <path d="M 303.832252 117.36 
L 303.832252 218.16 
" clip-path="url(#p5c7902d772)" style="fill: none; stroke: #bfbf00; stroke-width: 0.5"/>
    <path d="M 304.0115 117.36 
L 304.0115 218.16 
" clip-path="url(#p5c7902d772)" style="fill: none; stroke: #bfbf00; stroke-width: 0.5"/>
    <path d="M 304.190748 117.36 
L 304.190748 218.16 
" clip-path="url(#p5c7902d772)" style="fill: none; stroke: #bfbf00; stroke-width: 0.5"/>
    <path d="M 304.369997 117.36 
L 304.369997 218.16 
" clip-path="url(#p5c7902d772)" style="fill: none; stroke: #bfbf00; stroke-width: 0.5"/>
    <path d="M 304.549245 117.36 
L 304.549245 218.16 
" clip-path="url(#p5c7902d772)" style="fill: none; stroke: #bfbf00; stroke-width: 0.5"/>
    <path d="M 304.728493 117.36 
L 304.728493 218.16 
" clip-path="url(#p5c7902d772)" style="fill: none; stroke: #bfbf00; stroke-width: 0.5"/>
    <path d="M 304.907742 117.36 
L 304.907742 218.16 
" clip-path="url(#p5c7902d772)" style="fill: none; stroke: #bfbf00; stroke-width: 0.5"/>
    <path d="M 305.08699 117.36 
L 305.08699 218.16 
" clip-path="url(#p5c7902d772)" style="fill: none; stroke: #bfbf00; stroke-width: 0.5"/>
    <path d="M 305.266238 117.36 
L 305.266238 218.16 
" clip-path="url(#p5c7902d772)" style="fill: none; stroke: #bfbf00; stroke-width: 0.5"/>
    <path d="M 345.417861 117.36 
L 345.417861 218.16 
" clip-path="url(#p5c7902d772)" style="fill: none; stroke: #bfbf00; stroke-width: 0.5"/>
    <path d="M 345.597109 117.36 
L 345.597109 218.16 
" clip-path="url(#p5c7902d772)" style="fill: none; stroke: #bfbf00; stroke-width: 0.5"/>
    <path d="M 345.776357 117.36 
L 345.776357 218.16 
" clip-path="url(#p5c7902d772)" style="fill: none; stroke: #bfbf00; stroke-width: 0.5"/>
    <path d="M 345.955606 117.36 
L 345.955606 218.16 
" clip-path="url(#p5c7902d772)" style="fill: none; stroke: #bfbf00; stroke-width: 0.5"/>
    <path d="M 346.134854 117.36 
L 346.134854 218.16 
" clip-path="url(#p5c7902d772)" style="fill: none; stroke: #bfbf00; stroke-width: 0.5"/>
    <path d="M 346.314102 117.36 
L 346.314102 218.16 
" clip-path="url(#p5c7902d772)" style="fill: none; stroke: #bfbf00; stroke-width: 0.5"/>
    <path d="M 346.49335 117.36 
L 346.49335 218.16 
" clip-path="url(#p5c7902d772)" style="fill: none; stroke: #bfbf00; stroke-width: 0.5"/>
    <path d="M 346.672599 117.36 
L 346.672599 218.16 
" clip-path="url(#p5c7902d772)" style="fill: none; stroke: #bfbf00; stroke-width: 0.5"/>
    <path d="M 346.851847 117.36 
L 346.851847 218.16 
" clip-path="url(#p5c7902d772)" style="fill: none; stroke: #bfbf00; stroke-width: 0.5"/>
    <path d="M 347.031095 117.36 
L 347.031095 218.16 
" clip-path="url(#p5c7902d772)" style="fill: none; stroke: #bfbf00; stroke-width: 0.5"/>
    <path d="M 347.210344 117.36 
L 347.210344 218.16 
" clip-path="url(#p5c7902d772)" style="fill: none; stroke: #bfbf00; stroke-width: 0.5"/>
    <path d="M 347.389592 117.36 
L 347.389592 218.16 
" clip-path="url(#p5c7902d772)" style="fill: none; stroke: #bfbf00; stroke-width: 0.5"/>
    <path d="M 347.748089 117.36 
L 347.748089 218.16 
" clip-path="url(#p5c7902d772)" style="fill: none; stroke: #bfbf00; stroke-width: 0.5"/>
    <path d="M 347.927337 117.36 
L 347.927337 218.16 
" clip-path="url(#p5c7902d772)" style="fill: none; stroke: #bfbf00; stroke-width: 0.5"/>
    <path d="M 348.106585 117.36 
L 348.106585 218.16 
" clip-path="url(#p5c7902d772)" style="fill: none; stroke: #bfbf00; stroke-width: 0.5"/>
    <path d="M 348.285834 117.36 
L 348.285834 218.16 
" clip-path="url(#p5c7902d772)" style="fill: none; stroke: #bfbf00; stroke-width: 0.5"/>
    <path d="M 364.059685 117.36 
L 364.059685 218.16 
" clip-path="url(#p5c7902d772)" style="fill: none; stroke: #bfbf00; stroke-width: 0.5"/>
    <path d="M 364.238934 117.36 
L 364.238934 218.16 
" clip-path="url(#p5c7902d772)" style="fill: none; stroke: #bfbf00; stroke-width: 0.5"/>
    <path d="M 394.35265 117.36 
L 394.35265 218.16 
" clip-path="url(#p5c7902d772)" style="fill: none; stroke: #bfbf00; stroke-width: 0.5"/>
    <path d="M 394.531898 117.36 
L 394.531898 218.16 
" clip-path="url(#p5c7902d772)" style="fill: none; stroke: #bfbf00; stroke-width: 0.5"/>
    <path d="M 394.711147 117.36 
L 394.711147 218.16 
" clip-path="url(#p5c7902d772)" style="fill: none; stroke: #bfbf00; stroke-width: 0.5"/>
    <path d="M 394.890395 117.36 
L 394.890395 218.16 
" clip-path="url(#p5c7902d772)" style="fill: none; stroke: #bfbf00; stroke-width: 0.5"/>
    <path d="M 412.45673 117.36 
L 412.45673 218.16 
" clip-path="url(#p5c7902d772)" style="fill: none; stroke: #bfbf00; stroke-width: 0.5"/>
    <path d="M 484.156055 117.36 
L 484.156055 218.16 
" clip-path="url(#p5c7902d772)" style="fill: none; stroke: #bfbf00; stroke-width: 0.5"/>
    <path d="M 484.335304 117.36 
L 484.335304 218.16 
" clip-path="url(#p5c7902d772)" style="fill: none; stroke: #bfbf00; stroke-width: 0.5"/>
    <path d="M 484.514552 117.36 
L 484.514552 218.16 
" clip-path="url(#p5c7902d772)" style="fill: none; stroke: #bfbf00; stroke-width: 0.5"/>
    <path d="M 484.6938 117.36 
L 484.6938 218.16 
" clip-path="url(#p5c7902d772)" style="fill: none; stroke: #bfbf00; stroke-width: 0.5"/>
    <path d="M 484.873049 117.36 
L 484.873049 218.16 
" clip-path="url(#p5c7902d772)" style="fill: none; stroke: #bfbf00; stroke-width: 0.5"/>
    <path d="M 485.052297 117.36 
L 485.052297 218.16 
" clip-path="url(#p5c7902d772)" style="fill: none; stroke: #bfbf00; stroke-width: 0.5"/>
    <path d="M 485.231545 117.36 
L 485.231545 218.16 
" clip-path="url(#p5c7902d772)" style="fill: none; stroke: #bfbf00; stroke-width: 0.5"/>
    <path d="M 577.902923 117.36 
L 577.902923 218.16 
" clip-path="url(#p5c7902d772)" style="fill: none; stroke: #bfbf00; stroke-width: 0.5"/>
    <path d="M 578.082172 117.36 
L 578.082172 218.16 
" clip-path="url(#p5c7902d772)" style="fill: none; stroke: #bfbf00; stroke-width: 0.5"/>
    <path d="M 578.26142 117.36 
L 578.26142 218.16 
" clip-path="url(#p5c7902d772)" style="fill: none; stroke: #bfbf00; stroke-width: 0.5"/>
    <path d="M 578.440668 117.36 
L 578.440668 218.16 
" clip-path="url(#p5c7902d772)" style="fill: none; stroke: #bfbf00; stroke-width: 0.5"/>
    <path d="M 578.619916 117.36 
L 578.619916 218.16 
" clip-path="url(#p5c7902d772)" style="fill: none; stroke: #bfbf00; stroke-width: 0.5"/>
    <path d="M 578.799165 117.36 
L 578.799165 218.16 
" clip-path="url(#p5c7902d772)" style="fill: none; stroke: #bfbf00; stroke-width: 0.5"/>
    <path d="M 578.978413 117.36 
L 578.978413 218.16 
" clip-path="url(#p5c7902d772)" style="fill: none; stroke: #bfbf00; stroke-width: 0.5"/>
    <path d="M 579.157661 117.36 
L 579.157661 218.16 
" clip-path="url(#p5c7902d772)" style="fill: none; stroke: #bfbf00; stroke-width: 0.5"/>
    <path d="M 579.33691 117.36 
L 579.33691 218.16 
" clip-path="url(#p5c7902d772)" style="fill: none; stroke: #bfbf00; stroke-width: 0.5"/>
    <path d="M 579.516158 117.36 
L 579.516158 218.16 
" clip-path="url(#p5c7902d772)" style="fill: none; stroke: #bfbf00; stroke-width: 0.5"/>
    <path d="M 601.742949 117.36 
L 601.742949 218.16 
" clip-path="url(#p5c7902d772)" style="fill: none; stroke: #bfbf00; stroke-width: 0.5"/>
    <path d="M 601.922197 117.36 
L 601.922197 218.16 
" clip-path="url(#p5c7902d772)" style="fill: none; stroke: #bfbf00; stroke-width: 0.5"/>
    <path d="M 602.101446 117.36 
L 602.101446 218.16 
" clip-path="url(#p5c7902d772)" style="fill: none; stroke: #bfbf00; stroke-width: 0.5"/>
    <path d="M 602.280694 117.36 
L 602.280694 218.16 
" clip-path="url(#p5c7902d772)" style="fill: none; stroke: #bfbf00; stroke-width: 0.5"/>
    <path d="M 602.459942 117.36 
L 602.459942 218.16 
" clip-path="url(#p5c7902d772)" style="fill: none; stroke: #bfbf00; stroke-width: 0.5"/>
    <path d="M 602.63919 117.36 
L 602.63919 218.16 
" clip-path="url(#p5c7902d772)" style="fill: none; stroke: #bfbf00; stroke-width: 0.5"/>
    <path d="M 602.818439 117.36 
L 602.818439 218.16 
" clip-path="url(#p5c7902d772)" style="fill: none; stroke: #bfbf00; stroke-width: 0.5"/>
    <path d="M 602.997687 117.36 
L 602.997687 218.16 
" clip-path="url(#p5c7902d772)" style="fill: none; stroke: #bfbf00; stroke-width: 0.5"/>
    <path d="M 603.176935 117.36 
L 603.176935 218.16 
" clip-path="url(#p5c7902d772)" style="fill: none; stroke: #bfbf00; stroke-width: 0.5"/>
    <path d="M 603.356184 117.36 
L 603.356184 218.16 
" clip-path="url(#p5c7902d772)" style="fill: none; stroke: #bfbf00; stroke-width: 0.5"/>
    <path d="M 603.535432 117.36 
L 603.535432 218.16 
" clip-path="url(#p5c7902d772)" style="fill: none; stroke: #bfbf00; stroke-width: 0.5"/>
    <path d="M 603.71468 117.36 
L 603.71468 218.16 
" clip-path="url(#p5c7902d772)" style="fill: none; stroke: #bfbf00; stroke-width: 0.5"/>
    <path d="M 603.893929 117.36 
L 603.893929 218.16 
" clip-path="url(#p5c7902d772)" style="fill: none; stroke: #bfbf00; stroke-width: 0.5"/>
    <path d="M 604.073177 117.36 
L 604.073177 218.16 
" clip-path="url(#p5c7902d772)" style="fill: none; stroke: #bfbf00; stroke-width: 0.5"/>
    <path d="M 604.252425 117.36 
L 604.252425 218.16 
" clip-path="url(#p5c7902d772)" style="fill: none; stroke: #bfbf00; stroke-width: 0.5"/>
    <path d="M 604.431674 117.36 
L 604.431674 218.16 
" clip-path="url(#p5c7902d772)" style="fill: none; stroke: #bfbf00; stroke-width: 0.5"/>
    <path d="M 604.610922 117.36 
L 604.610922 218.16 
" clip-path="url(#p5c7902d772)" style="fill: none; stroke: #bfbf00; stroke-width: 0.5"/>
    <path d="M 604.79017 117.36 
L 604.79017 218.16 
" clip-path="url(#p5c7902d772)" style="fill: none; stroke: #bfbf00; stroke-width: 0.5"/>
    <path d="M 604.969419 117.36 
L 604.969419 218.16 
" clip-path="url(#p5c7902d772)" style="fill: none; stroke: #bfbf00; stroke-width: 0.5"/>
    <path d="M 605.148667 117.36 
L 605.148667 218.16 
" clip-path="url(#p5c7902d772)" style="fill: none; stroke: #bfbf00; stroke-width: 0.5"/>
    <path d="M 605.327915 117.36 
L 605.327915 218.16 
" clip-path="url(#p5c7902d772)" style="fill: none; stroke: #bfbf00; stroke-width: 0.5"/>
    <path d="M 605.507164 117.36 
L 605.507164 218.16 
" clip-path="url(#p5c7902d772)" style="fill: none; stroke: #bfbf00; stroke-width: 0.5"/>
    <path d="M 605.686412 117.36 
L 605.686412 218.16 
" clip-path="url(#p5c7902d772)" style="fill: none; stroke: #bfbf00; stroke-width: 0.5"/>
    <path d="M 605.86566 117.36 
L 605.86566 218.16 
" clip-path="url(#p5c7902d772)" style="fill: none; stroke: #bfbf00; stroke-width: 0.5"/>
    <path d="M 657.489174 117.36 
L 657.489174 218.16 
" clip-path="url(#p5c7902d772)" style="fill: none; stroke: #bfbf00; stroke-width: 0.5"/>
    <path d="M 657.668423 117.36 
L 657.668423 218.16 
" clip-path="url(#p5c7902d772)" style="fill: none; stroke: #bfbf00; stroke-width: 0.5"/>
    <path d="M 657.847671 117.36 
L 657.847671 218.16 
" clip-path="url(#p5c7902d772)" style="fill: none; stroke: #bfbf00; stroke-width: 0.5"/>
    <path d="M 658.026919 117.36 
L 658.026919 218.16 
" clip-path="url(#p5c7902d772)" style="fill: none; stroke: #bfbf00; stroke-width: 0.5"/>
    <path d="M 658.206168 117.36 
L 658.206168 218.16 
" clip-path="url(#p5c7902d772)" style="fill: none; stroke: #bfbf00; stroke-width: 0.5"/>
    <path d="M 658.385416 117.36 
L 658.385416 218.16 
" clip-path="url(#p5c7902d772)" style="fill: none; stroke: #bfbf00; stroke-width: 0.5"/>
    <path d="M 658.564664 117.36 
L 658.564664 218.16 
" clip-path="url(#p5c7902d772)" style="fill: none; stroke: #bfbf00; stroke-width: 0.5"/>
    <path d="M 658.743913 117.36 
L 658.743913 218.16 
" clip-path="url(#p5c7902d772)" style="fill: none; stroke: #bfbf00; stroke-width: 0.5"/>
    <path d="M 658.923161 117.36 
L 658.923161 218.16 
" clip-path="url(#p5c7902d772)" style="fill: none; stroke: #bfbf00; stroke-width: 0.5"/>
    <path d="M 659.102409 117.36 
L 659.102409 218.16 
" clip-path="url(#p5c7902d772)" style="fill: none; stroke: #bfbf00; stroke-width: 0.5"/>
    <path d="M 692.442596 117.36 
L 692.442596 218.16 
" clip-path="url(#p5c7902d772)" style="fill: none; stroke: #bfbf00; stroke-width: 0.5"/>
    <path d="M 692.621844 117.36 
L 692.621844 218.16 
" clip-path="url(#p5c7902d772)" style="fill: none; stroke: #bfbf00; stroke-width: 0.5"/>
    <path d="M 692.801092 117.36 
L 692.801092 218.16 
" clip-path="url(#p5c7902d772)" style="fill: none; stroke: #bfbf00; stroke-width: 0.5"/>
    <path d="M 692.980341 117.36 
L 692.980341 218.16 
" clip-path="url(#p5c7902d772)" style="fill: none; stroke: #bfbf00; stroke-width: 0.5"/>
    <path d="M 693.159589 117.36 
L 693.159589 218.16 
" clip-path="url(#p5c7902d772)" style="fill: none; stroke: #bfbf00; stroke-width: 0.5"/>
    <path d="M 693.338837 117.36 
L 693.338837 218.16 
" clip-path="url(#p5c7902d772)" style="fill: none; stroke: #bfbf00; stroke-width: 0.5"/>
    <path d="M 693.518085 117.36 
L 693.518085 218.16 
" clip-path="url(#p5c7902d772)" style="fill: none; stroke: #bfbf00; stroke-width: 0.5"/>
    <path d="M 694.414327 117.36 
L 694.414327 218.16 
" clip-path="url(#p5c7902d772)" style="fill: none; stroke: #bfbf00; stroke-width: 0.5"/>
    <path d="M 694.593575 117.36 
L 694.593575 218.16 
" clip-path="url(#p5c7902d772)" style="fill: none; stroke: #bfbf00; stroke-width: 0.5"/>
    <path d="M 694.772824 117.36 
L 694.772824 218.16 
" clip-path="url(#p5c7902d772)" style="fill: none; stroke: #bfbf00; stroke-width: 0.5"/>
    <path d="M 720.226084 117.36 
L 720.226084 218.16 
" clip-path="url(#p5c7902d772)" style="fill: none; stroke: #bfbf00; stroke-width: 0.5"/>
    <path d="M 720.405332 117.36 
L 720.405332 218.16 
" clip-path="url(#p5c7902d772)" style="fill: none; stroke: #bfbf00; stroke-width: 0.5"/>
    <path d="M 720.584581 117.36 
L 720.584581 218.16 
" clip-path="url(#p5c7902d772)" style="fill: none; stroke: #bfbf00; stroke-width: 0.5"/>
    <path d="M 720.763829 117.36 
L 720.763829 218.16 
" clip-path="url(#p5c7902d772)" style="fill: none; stroke: #bfbf00; stroke-width: 0.5"/>
    <path d="M 720.943077 117.36 
L 720.943077 218.16 
" clip-path="url(#p5c7902d772)" style="fill: none; stroke: #bfbf00; stroke-width: 0.5"/>
    <path d="M 721.122326 117.36 
L 721.122326 218.16 
" clip-path="url(#p5c7902d772)" style="fill: none; stroke: #bfbf00; stroke-width: 0.5"/>
    <path d="M 756.254995 117.36 
L 756.254995 218.16 
" clip-path="url(#p5c7902d772)" style="fill: none; stroke: #bfbf00; stroke-width: 0.5"/>
    <path d="M 756.434243 117.36 
L 756.434243 218.16 
" clip-path="url(#p5c7902d772)" style="fill: none; stroke: #bfbf00; stroke-width: 0.5"/>
    <path d="M 756.613492 117.36 
L 756.613492 218.16 
" clip-path="url(#p5c7902d772)" style="fill: none; stroke: #bfbf00; stroke-width: 0.5"/>
    <path d="M 756.79274 117.36 
L 756.79274 218.16 
" clip-path="url(#p5c7902d772)" style="fill: none; stroke: #bfbf00; stroke-width: 0.5"/>
    <path d="M 756.971988 117.36 
L 756.971988 218.16 
" clip-path="url(#p5c7902d772)" style="fill: none; stroke: #bfbf00; stroke-width: 0.5"/>
    <path d="M 757.151237 117.36 
L 757.151237 218.16 
" clip-path="url(#p5c7902d772)" style="fill: none; stroke: #bfbf00; stroke-width: 0.5"/>
    <path d="M 757.330485 117.36 
L 757.330485 218.16 
" clip-path="url(#p5c7902d772)" style="fill: none; stroke: #bfbf00; stroke-width: 0.5"/>
    <path d="M 793.897141 117.36 
L 793.897141 218.16 
" clip-path="url(#p5c7902d772)" style="fill: none; stroke: #bfbf00; stroke-width: 0.5"/>
    <path d="M 794.076389 117.36 
L 794.076389 218.16 
" clip-path="url(#p5c7902d772)" style="fill: none; stroke: #bfbf00; stroke-width: 0.5"/>
    <path d="M 870.794668 117.36 
L 870.794668 218.16 
" clip-path="url(#p5c7902d772)" style="fill: none; stroke: #bfbf00; stroke-width: 0.5"/>
    <path d="M 870.973916 117.36 
L 870.973916 218.16 
" clip-path="url(#p5c7902d772)" style="fill: none; stroke: #bfbf00; stroke-width: 0.5"/>
    <path d="M 871.153164 117.36 
L 871.153164 218.16 
" clip-path="url(#p5c7902d772)" style="fill: none; stroke: #bfbf00; stroke-width: 0.5"/>
    <path d="M 871.332412 117.36 
L 871.332412 218.16 
" clip-path="url(#p5c7902d772)" style="fill: none; stroke: #bfbf00; stroke-width: 0.5"/>
    <path d="M 871.511661 117.36 
L 871.511661 218.16 
" clip-path="url(#p5c7902d772)" style="fill: none; stroke: #bfbf00; stroke-width: 0.5"/>
    <path d="M 871.690909 117.36 
L 871.690909 218.16 
" clip-path="url(#p5c7902d772)" style="fill: none; stroke: #bfbf00; stroke-width: 0.5"/>
   </g>
   <g id="patch_3">
    <path d="M 126 384.48 
L 126 51.84 
" style="fill: none; stroke: #000000; stroke-width: 0.8; stroke-linejoin: miter; stroke-linecap: square"/>
   </g>
   <g id="patch_4">
    <path d="M 126 384.48 
L 907.2 384.48 
" style="fill: none; stroke: #000000; stroke-width: 0.8; stroke-linejoin: miter; stroke-linecap: square"/>
   </g>
   <g id="text_9">
    <!-- Mouse: 39623; Paradigm: femaleurineright_habituation; Date: 010822 -->
    <g transform="translate(305.369063 45.84) scale(0.12 -0.12)">
     <defs>
      <path id="DejaVuSans-4d" d="M 628 4666 
L 1569 4666 
L 2759 1491 
L 3956 4666 
L 4897 4666 
L 4897 0 
L 4281 0 
L 4281 4097 
L 3078 897 
L 2444 897 
L 1241 4097 
L 1241 0 
L 628 0 
L 628 4666 
z
" transform="scale(0.015625)"/>
      <path id="DejaVuSans-6f" d="M 1959 3097 
Q 1497 3097 1228 2736 
Q 959 2375 959 1747 
Q 959 1119 1226 758 
Q 1494 397 1959 397 
Q 2419 397 2687 759 
Q 2956 1122 2956 1747 
Q 2956 2369 2687 2733 
Q 2419 3097 1959 3097 
z
M 1959 3584 
Q 2709 3584 3137 3096 
Q 3566 2609 3566 1747 
Q 3566 888 3137 398 
Q 2709 -91 1959 -91 
Q 1206 -91 779 398 
Q 353 888 353 1747 
Q 353 2609 779 3096 
Q 1206 3584 1959 3584 
z
" transform="scale(0.015625)"/>
      <path id="DejaVuSans-75" d="M 544 1381 
L 544 3500 
L 1119 3500 
L 1119 1403 
Q 1119 906 1312 657 
Q 1506 409 1894 409 
Q 2359 409 2629 706 
Q 2900 1003 2900 1516 
L 2900 3500 
L 3475 3500 
L 3475 0 
L 2900 0 
L 2900 538 
Q 2691 219 2414 64 
Q 2138 -91 1772 -91 
Q 1169 -91 856 284 
Q 544 659 544 1381 
z
M 1991 3584 
L 1991 3584 
z
" transform="scale(0.015625)"/>
      <path id="DejaVuSans-3a" d="M 750 794 
L 1409 794 
L 1409 0 
L 750 0 
L 750 794 
z
M 750 3309 
L 1409 3309 
L 1409 2516 
L 750 2516 
L 750 3309 
z
" transform="scale(0.015625)"/>
      <path id="DejaVuSans-39" d="M 703 97 
L 703 672 
Q 941 559 1184 500 
Q 1428 441 1663 441 
Q 2288 441 2617 861 
Q 2947 1281 2994 2138 
Q 2813 1869 2534 1725 
Q 2256 1581 1919 1581 
Q 1219 1581 811 2004 
Q 403 2428 403 3163 
Q 403 3881 828 4315 
Q 1253 4750 1959 4750 
Q 2769 4750 3195 4129 
Q 3622 3509 3622 2328 
Q 3622 1225 3098 567 
Q 2575 -91 1691 -91 
Q 1453 -91 1209 -44 
Q 966 3 703 97 
z
M 1959 2075 
Q 2384 2075 2632 2365 
Q 2881 2656 2881 3163 
Q 2881 3666 2632 3958 
Q 2384 4250 1959 4250 
Q 1534 4250 1286 3958 
Q 1038 3666 1038 3163 
Q 1038 2656 1286 2365 
Q 1534 2075 1959 2075 
z
" transform="scale(0.015625)"/>
      <path id="DejaVuSans-36" d="M 2113 2584 
Q 1688 2584 1439 2293 
Q 1191 2003 1191 1497 
Q 1191 994 1439 701 
Q 1688 409 2113 409 
Q 2538 409 2786 701 
Q 3034 994 3034 1497 
Q 3034 2003 2786 2293 
Q 2538 2584 2113 2584 
z
M 3366 4563 
L 3366 3988 
Q 3128 4100 2886 4159 
Q 2644 4219 2406 4219 
Q 1781 4219 1451 3797 
Q 1122 3375 1075 2522 
Q 1259 2794 1537 2939 
Q 1816 3084 2150 3084 
Q 2853 3084 3261 2657 
Q 3669 2231 3669 1497 
Q 3669 778 3244 343 
Q 2819 -91 2113 -91 
Q 1303 -91 875 529 
Q 447 1150 447 2328 
Q 447 3434 972 4092 
Q 1497 4750 2381 4750 
Q 2619 4750 2861 4703 
Q 3103 4656 3366 4563 
z
" transform="scale(0.015625)"/>
      <path id="DejaVuSans-3b" d="M 750 3309 
L 1409 3309 
L 1409 2516 
L 750 2516 
L 750 3309 
z
M 750 794 
L 1409 794 
L 1409 256 
L 897 -744 
L 494 -744 
L 750 256 
L 750 794 
z
" transform="scale(0.015625)"/>
      <path id="DejaVuSans-50" d="M 1259 4147 
L 1259 2394 
L 2053 2394 
Q 2494 2394 2734 2622 
Q 2975 2850 2975 3272 
Q 2975 3691 2734 3919 
Q 2494 4147 2053 4147 
L 1259 4147 
z
M 628 4666 
L 2053 4666 
Q 2838 4666 3239 4311 
Q 3641 3956 3641 3272 
Q 3641 2581 3239 2228 
Q 2838 1875 2053 1875 
L 1259 1875 
L 1259 0 
L 628 0 
L 628 4666 
z
" transform="scale(0.015625)"/>
      <path id="DejaVuSans-61" d="M 2194 1759 
Q 1497 1759 1228 1600 
Q 959 1441 959 1056 
Q 959 750 1161 570 
Q 1363 391 1709 391 
Q 2188 391 2477 730 
Q 2766 1069 2766 1631 
L 2766 1759 
L 2194 1759 
z
M 3341 1997 
L 3341 0 
L 2766 0 
L 2766 531 
Q 2569 213 2275 61 
Q 1981 -91 1556 -91 
Q 1019 -91 701 211 
Q 384 513 384 1019 
Q 384 1609 779 1909 
Q 1175 2209 1959 2209 
L 2766 2209 
L 2766 2266 
Q 2766 2663 2505 2880 
Q 2244 3097 1772 3097 
Q 1472 3097 1187 3025 
Q 903 2953 641 2809 
L 641 3341 
Q 956 3463 1253 3523 
Q 1550 3584 1831 3584 
Q 2591 3584 2966 3190 
Q 3341 2797 3341 1997 
z
" transform="scale(0.015625)"/>
      <path id="DejaVuSans-5f" d="M 3263 -1063 
L 3263 -1509 
L -63 -1509 
L -63 -1063 
L 3263 -1063 
z
" transform="scale(0.015625)"/>
      <path id="DejaVuSans-62" d="M 3116 1747 
Q 3116 2381 2855 2742 
Q 2594 3103 2138 3103 
Q 1681 3103 1420 2742 
Q 1159 2381 1159 1747 
Q 1159 1113 1420 752 
Q 1681 391 2138 391 
Q 2594 391 2855 752 
Q 3116 1113 3116 1747 
z
M 1159 2969 
Q 1341 3281 1617 3432 
Q 1894 3584 2278 3584 
Q 2916 3584 3314 3078 
Q 3713 2572 3713 1747 
Q 3713 922 3314 415 
Q 2916 -91 2278 -91 
Q 1894 -91 1617 61 
Q 1341 213 1159 525 
L 1159 0 
L 581 0 
L 581 4863 
L 1159 4863 
L 1159 2969 
z
" transform="scale(0.015625)"/>
      <path id="DejaVuSans-44" d="M 1259 4147 
L 1259 519 
L 2022 519 
Q 2988 519 3436 956 
Q 3884 1394 3884 2338 
Q 3884 3275 3436 3711 
Q 2988 4147 2022 4147 
L 1259 4147 
z
M 628 4666 
L 1925 4666 
Q 3281 4666 3915 4102 
Q 4550 3538 4550 2338 
Q 4550 1131 3912 565 
Q 3275 0 1925 0 
L 628 0 
L 628 4666 
z
" transform="scale(0.015625)"/>
      <path id="DejaVuSans-38" d="M 2034 2216 
Q 1584 2216 1326 1975 
Q 1069 1734 1069 1313 
Q 1069 891 1326 650 
Q 1584 409 2034 409 
Q 2484 409 2743 651 
Q 3003 894 3003 1313 
Q 3003 1734 2745 1975 
Q 2488 2216 2034 2216 
z
M 1403 2484 
Q 997 2584 770 2862 
Q 544 3141 544 3541 
Q 544 4100 942 4425 
Q 1341 4750 2034 4750 
Q 2731 4750 3128 4425 
Q 3525 4100 3525 3541 
Q 3525 3141 3298 2862 
Q 3072 2584 2669 2484 
Q 3125 2378 3379 2068 
Q 3634 1759 3634 1313 
Q 3634 634 3220 271 
Q 2806 -91 2034 -91 
Q 1263 -91 848 271 
Q 434 634 434 1313 
Q 434 1759 690 2068 
Q 947 2378 1403 2484 
z
M 1172 3481 
Q 1172 3119 1398 2916 
Q 1625 2713 2034 2713 
Q 2441 2713 2670 2916 
Q 2900 3119 2900 3481 
Q 2900 3844 2670 4047 
Q 2441 4250 2034 4250 
Q 1625 4250 1398 4047 
Q 1172 3844 1172 3481 
z
" transform="scale(0.015625)"/>
     </defs>
     <use xlink:href="#DejaVuSans-4d"/>
     <use xlink:href="#DejaVuSans-6f" x="86.279297"/>
     <use xlink:href="#DejaVuSans-75" x="147.460938"/>
     <use xlink:href="#DejaVuSans-73" x="210.839844"/>
     <use xlink:href="#DejaVuSans-65" x="262.939453"/>
     <use xlink:href="#DejaVuSans-3a" x="324.462891"/>
     <use xlink:href="#DejaVuSans-20" x="358.154297"/>
     <use xlink:href="#DejaVuSans-33" x="389.941406"/>
     <use xlink:href="#DejaVuSans-39" x="453.564453"/>
     <use xlink:href="#DejaVuSans-36" x="517.1875"/>
     <use xlink:href="#DejaVuSans-32" x="580.810547"/>
     <use xlink:href="#DejaVuSans-33" x="644.433594"/>
     <use xlink:href="#DejaVuSans-3b" x="708.056641"/>
     <use xlink:href="#DejaVuSans-20" x="741.748047"/>
     <use xlink:href="#DejaVuSans-50" x="773.535156"/>
     <use xlink:href="#DejaVuSans-61" x="829.337891"/>
     <use xlink:href="#DejaVuSans-72" x="890.617188"/>
     <use xlink:href="#DejaVuSans-61" x="931.730469"/>
     <use xlink:href="#DejaVuSans-64" x="993.009766"/>
     <use xlink:href="#DejaVuSans-69" x="1056.486328"/>
     <use xlink:href="#DejaVuSans-67" x="1084.269531"/>
     <use xlink:href="#DejaVuSans-6d" x="1147.746094"/>
     <use xlink:href="#DejaVuSans-3a" x="1245.158203"/>
     <use xlink:href="#DejaVuSans-20" x="1278.849609"/>
     <use xlink:href="#DejaVuSans-66" x="1310.636719"/>
     <use xlink:href="#DejaVuSans-65" x="1345.841797"/>
     <use xlink:href="#DejaVuSans-6d" x="1407.365234"/>
     <use xlink:href="#DejaVuSans-61" x="1504.777344"/>
     <use xlink:href="#DejaVuSans-6c" x="1566.056641"/>
     <use xlink:href="#DejaVuSans-65" x="1593.839844"/>
     <use xlink:href="#DejaVuSans-75" x="1655.363281"/>
     <use xlink:href="#DejaVuSans-72" x="1718.742188"/>
     <use xlink:href="#DejaVuSans-69" x="1759.855469"/>
     <use xlink:href="#DejaVuSans-6e" x="1787.638672"/>
     <use xlink:href="#DejaVuSans-65" x="1851.017578"/>
     <use xlink:href="#DejaVuSans-72" x="1912.541016"/>
     <use xlink:href="#DejaVuSans-69" x="1953.654297"/>
     <use xlink:href="#DejaVuSans-67" x="1981.4375"/>
     <use xlink:href="#DejaVuSans-68" x="2044.914062"/>
     <use xlink:href="#DejaVuSans-74" x="2108.292969"/>
     <use xlink:href="#DejaVuSans-5f" x="2147.501953"/>
     <use xlink:href="#DejaVuSans-68" x="2197.501953"/>
     <use xlink:href="#DejaVuSans-61" x="2260.880859"/>
     <use xlink:href="#DejaVuSans-62" x="2322.160156"/>
     <use xlink:href="#DejaVuSans-69" x="2385.636719"/>
     <use xlink:href="#DejaVuSans-74" x="2413.419922"/>
     <use xlink:href="#DejaVuSans-75" x="2452.628906"/>
     <use xlink:href="#DejaVuSans-61" x="2516.007812"/>
     <use xlink:href="#DejaVuSans-74" x="2577.287109"/>
     <use xlink:href="#DejaVuSans-69" x="2616.496094"/>
     <use xlink:href="#DejaVuSans-6f" x="2644.279297"/>
     <use xlink:href="#DejaVuSans-6e" x="2705.460938"/>
     <use xlink:href="#DejaVuSans-3b" x="2768.839844"/>
     <use xlink:href="#DejaVuSans-20" x="2802.53125"/>
     <use xlink:href="#DejaVuSans-44" x="2834.318359"/>
     <use xlink:href="#DejaVuSans-61" x="2911.320312"/>
     <use xlink:href="#DejaVuSans-74" x="2972.599609"/>
     <use xlink:href="#DejaVuSans-65" x="3011.808594"/>
     <use xlink:href="#DejaVuSans-3a" x="3073.332031"/>
     <use xlink:href="#DejaVuSans-20" x="3107.023438"/>
     <use xlink:href="#DejaVuSans-30" x="3138.810547"/>
     <use xlink:href="#DejaVuSans-31" x="3202.433594"/>
     <use xlink:href="#DejaVuSans-30" x="3266.056641"/>
     <use xlink:href="#DejaVuSans-38" x="3329.679688"/>
     <use xlink:href="#DejaVuSans-32" x="3393.302734"/>
     <use xlink:href="#DejaVuSans-32" x="3456.925781"/>
    </g>
   </g>
  </g>
 </g>
 <defs>
  <clipPath id="p5c7902d772">
   <rect x="126" y="51.84" width="781.2" height="332.64"/>
  </clipPath>
 </defs>
</svg>
