<?xml version="1.0" encoding="utf-8" standalone="no"?>
<!DOCTYPE svg PUBLIC "-//W3C//DTD SVG 1.1//EN"
  "http://www.w3.org/Graphics/SVG/1.1/DTD/svg11.dtd">
<svg xmlns:xlink="http://www.w3.org/1999/xlink" width="720pt" height="576pt" viewBox="0 0 720 576" xmlns="http://www.w3.org/2000/svg" version="1.1">
 <metadata>
  <rdf:RDF xmlns:dc="http://purl.org/dc/elements/1.1/" xmlns:cc="http://creativecommons.org/ns#" xmlns:rdf="http://www.w3.org/1999/02/22-rdf-syntax-ns#">
   <cc:Work>
    <dc:type rdf:resource="http://purl.org/dc/dcmitype/StillImage"/>
    <dc:date>2024-05-12T23:24:01.212923</dc:date>
    <dc:format>image/svg+xml</dc:format>
    <dc:creator>
     <cc:Agent>
      <dc:title>Matplotlib v3.8.3, https://matplotlib.org/</dc:title>
     </cc:Agent>
    </dc:creator>
   </cc:Work>
  </rdf:RDF>
 </metadata>
 <defs>
  <style type="text/css">*{stroke-linejoin: round; stroke-linecap: butt}</style>
 </defs>
 <g id="figure_1">
  <g id="patch_1">
   <path d="M 0 576 
L 720 576 
L 720 0 
L 0 0 
z
"/>
  </g>
  <g id="axes_1">
   <g id="patch_2">
    <path d="M 90 512.64 
L 648 512.64 
L 648 69.12 
L 90 69.12 
z
"/>
   </g>
   <g id="matplotlib.axis_1">
    <g id="xtick_1">
     <g id="line2d_1">
      <defs>
       <path id="m159c2a349a" d="M 0 0 
L 0 3.5 
" style="stroke: #ffffff; stroke-width: 0.8"/>
      </defs>
      <g>
       <use xlink:href="#m159c2a349a" x="171.727273" y="512.64" style="fill: #ffffff; stroke: #ffffff; stroke-width: 0.8"/>
      </g>
     </g>
     <g id="text_1">
      <!-- 2 -->
      <g style="fill: #ffffff" transform="translate(168.546023 527.238438) scale(0.1 -0.1)">
       <defs>
        <path id="DejaVuSans-32" d="M 1228 531 
L 3431 531 
L 3431 0 
L 469 0 
L 469 531 
Q 828 903 1448 1529 
Q 2069 2156 2228 2338 
Q 2531 2678 2651 2914 
Q 2772 3150 2772 3378 
Q 2772 3750 2511 3984 
Q 2250 4219 1831 4219 
Q 1534 4219 1204 4116 
Q 875 4013 500 3803 
L 500 4441 
Q 881 4594 1212 4672 
Q 1544 4750 1819 4750 
Q 2544 4750 2975 4387 
Q 3406 4025 3406 3419 
Q 3406 3131 3298 2873 
Q 3191 2616 2906 2266 
Q 2828 2175 2409 1742 
Q 1991 1309 1228 531 
z
" transform="scale(0.015625)"/>
       </defs>
       <use xlink:href="#DejaVuSans-32"/>
      </g>
     </g>
    </g>
    <g id="xtick_2">
     <g id="line2d_2">
      <g>
       <use xlink:href="#m159c2a349a" x="284.454545" y="512.64" style="fill: #ffffff; stroke: #ffffff; stroke-width: 0.8"/>
      </g>
     </g>
     <g id="text_2">
      <!-- 4 -->
      <g style="fill: #ffffff" transform="translate(281.273295 527.238438) scale(0.1 -0.1)">
       <defs>
        <path id="DejaVuSans-34" d="M 2419 4116 
L 825 1625 
L 2419 1625 
L 2419 4116 
z
M 2253 4666 
L 3047 4666 
L 3047 1625 
L 3713 1625 
L 3713 1100 
L 3047 1100 
L 3047 0 
L 2419 0 
L 2419 1100 
L 313 1100 
L 313 1709 
L 2253 4666 
z
" transform="scale(0.015625)"/>
       </defs>
       <use xlink:href="#DejaVuSans-34"/>
      </g>
     </g>
    </g>
    <g id="xtick_3">
     <g id="line2d_3">
      <g>
       <use xlink:href="#m159c2a349a" x="397.181818" y="512.64" style="fill: #ffffff; stroke: #ffffff; stroke-width: 0.8"/>
      </g>
     </g>
     <g id="text_3">
      <!-- 6 -->
      <g style="fill: #ffffff" transform="translate(394.000568 527.238438) scale(0.1 -0.1)">
       <defs>
        <path id="DejaVuSans-36" d="M 2113 2584 
Q 1688 2584 1439 2293 
Q 1191 2003 1191 1497 
Q 1191 994 1439 701 
Q 1688 409 2113 409 
Q 2538 409 2786 701 
Q 3034 994 3034 1497 
Q 3034 2003 2786 2293 
Q 2538 2584 2113 2584 
z
M 3366 4563 
L 3366 3988 
Q 3128 4100 2886 4159 
Q 2644 4219 2406 4219 
Q 1781 4219 1451 3797 
Q 1122 3375 1075 2522 
Q 1259 2794 1537 2939 
Q 1816 3084 2150 3084 
Q 2853 3084 3261 2657 
Q 3669 2231 3669 1497 
Q 3669 778 3244 343 
Q 2819 -91 2113 -91 
Q 1303 -91 875 529 
Q 447 1150 447 2328 
Q 447 3434 972 4092 
Q 1497 4750 2381 4750 
Q 2619 4750 2861 4703 
Q 3103 4656 3366 4563 
z
" transform="scale(0.015625)"/>
       </defs>
       <use xlink:href="#DejaVuSans-36"/>
      </g>
     </g>
    </g>
    <g id="xtick_4">
     <g id="line2d_4">
      <g>
       <use xlink:href="#m159c2a349a" x="509.909091" y="512.64" style="fill: #ffffff; stroke: #ffffff; stroke-width: 0.8"/>
      </g>
     </g>
     <g id="text_4">
      <!-- 8 -->
      <g style="fill: #ffffff" transform="translate(506.727841 527.238438) scale(0.1 -0.1)">
       <defs>
        <path id="DejaVuSans-38" d="M 2034 2216 
Q 1584 2216 1326 1975 
Q 1069 1734 1069 1313 
Q 1069 891 1326 650 
Q 1584 409 2034 409 
Q 2484 409 2743 651 
Q 3003 894 3003 1313 
Q 3003 1734 2745 1975 
Q 2488 2216 2034 2216 
z
M 1403 2484 
Q 997 2584 770 2862 
Q 544 3141 544 3541 
Q 544 4100 942 4425 
Q 1341 4750 2034 4750 
Q 2731 4750 3128 4425 
Q 3525 4100 3525 3541 
Q 3525 3141 3298 2862 
Q 3072 2584 2669 2484 
Q 3125 2378 3379 2068 
Q 3634 1759 3634 1313 
Q 3634 634 3220 271 
Q 2806 -91 2034 -91 
Q 1263 -91 848 271 
Q 434 634 434 1313 
Q 434 1759 690 2068 
Q 947 2378 1403 2484 
z
M 1172 3481 
Q 1172 3119 1398 2916 
Q 1625 2713 2034 2713 
Q 2441 2713 2670 2916 
Q 2900 3119 2900 3481 
Q 2900 3844 2670 4047 
Q 2441 4250 2034 4250 
Q 1625 4250 1398 4047 
Q 1172 3844 1172 3481 
z
" transform="scale(0.015625)"/>
       </defs>
       <use xlink:href="#DejaVuSans-38"/>
      </g>
     </g>
    </g>
    <g id="xtick_5">
     <g id="line2d_5">
      <g>
       <use xlink:href="#m159c2a349a" x="622.636364" y="512.64" style="fill: #ffffff; stroke: #ffffff; stroke-width: 0.8"/>
      </g>
     </g>
     <g id="text_5">
      <!-- 10 -->
      <g style="fill: #ffffff" transform="translate(616.273864 527.238438) scale(0.1 -0.1)">
       <defs>
        <path id="DejaVuSans-31" d="M 794 531 
L 1825 531 
L 1825 4091 
L 703 3866 
L 703 4441 
L 1819 4666 
L 2450 4666 
L 2450 531 
L 3481 531 
L 3481 0 
L 794 0 
L 794 531 
z
" transform="scale(0.015625)"/>
        <path id="DejaVuSans-30" d="M 2034 4250 
Q 1547 4250 1301 3770 
Q 1056 3291 1056 2328 
Q 1056 1369 1301 889 
Q 1547 409 2034 409 
Q 2525 409 2770 889 
Q 3016 1369 3016 2328 
Q 3016 3291 2770 3770 
Q 2525 4250 2034 4250 
z
M 2034 4750 
Q 2819 4750 3233 4129 
Q 3647 3509 3647 2328 
Q 3647 1150 3233 529 
Q 2819 -91 2034 -91 
Q 1250 -91 836 529 
Q 422 1150 422 2328 
Q 422 3509 836 4129 
Q 1250 4750 2034 4750 
z
" transform="scale(0.015625)"/>
       </defs>
       <use xlink:href="#DejaVuSans-31"/>
       <use xlink:href="#DejaVuSans-30" x="63.623047"/>
      </g>
     </g>
    </g>
    <g id="text_6">
     <!-- Minute -->
     <g style="fill: #ffffff" transform="translate(351.922656 540.916563) scale(0.1 -0.1)">
      <defs>
       <path id="DejaVuSans-4d" d="M 628 4666 
L 1569 4666 
L 2759 1491 
L 3956 4666 
L 4897 4666 
L 4897 0 
L 4281 0 
L 4281 4097 
L 3078 897 
L 2444 897 
L 1241 4097 
L 1241 0 
L 628 0 
L 628 4666 
z
" transform="scale(0.015625)"/>
       <path id="DejaVuSans-69" d="M 603 3500 
L 1178 3500 
L 1178 0 
L 603 0 
L 603 3500 
z
M 603 4863 
L 1178 4863 
L 1178 4134 
L 603 4134 
L 603 4863 
z
" transform="scale(0.015625)"/>
       <path id="DejaVuSans-6e" d="M 3513 2113 
L 3513 0 
L 2938 0 
L 2938 2094 
Q 2938 2591 2744 2837 
Q 2550 3084 2163 3084 
Q 1697 3084 1428 2787 
Q 1159 2491 1159 1978 
L 1159 0 
L 581 0 
L 581 3500 
L 1159 3500 
L 1159 2956 
Q 1366 3272 1645 3428 
Q 1925 3584 2291 3584 
Q 2894 3584 3203 3211 
Q 3513 2838 3513 2113 
z
" transform="scale(0.015625)"/>
       <path id="DejaVuSans-75" d="M 544 1381 
L 544 3500 
L 1119 3500 
L 1119 1403 
Q 1119 906 1312 657 
Q 1506 409 1894 409 
Q 2359 409 2629 706 
Q 2900 1003 2900 1516 
L 2900 3500 
L 3475 3500 
L 3475 0 
L 2900 0 
L 2900 538 
Q 2691 219 2414 64 
Q 2138 -91 1772 -91 
Q 1169 -91 856 284 
Q 544 659 544 1381 
z
M 1991 3584 
L 1991 3584 
z
" transform="scale(0.015625)"/>
       <path id="DejaVuSans-74" d="M 1172 4494 
L 1172 3500 
L 2356 3500 
L 2356 3053 
L 1172 3053 
L 1172 1153 
Q 1172 725 1289 603 
Q 1406 481 1766 481 
L 2356 481 
L 2356 0 
L 1766 0 
Q 1100 0 847 248 
Q 594 497 594 1153 
L 594 3053 
L 172 3053 
L 172 3500 
L 594 3500 
L 594 4494 
L 1172 4494 
z
" transform="scale(0.015625)"/>
       <path id="DejaVuSans-65" d="M 3597 1894 
L 3597 1613 
L 953 1613 
Q 991 1019 1311 708 
Q 1631 397 2203 397 
Q 2534 397 2845 478 
Q 3156 559 3463 722 
L 3463 178 
Q 3153 47 2828 -22 
Q 2503 -91 2169 -91 
Q 1331 -91 842 396 
Q 353 884 353 1716 
Q 353 2575 817 3079 
Q 1281 3584 2069 3584 
Q 2775 3584 3186 3129 
Q 3597 2675 3597 1894 
z
M 3022 2063 
Q 3016 2534 2758 2815 
Q 2500 3097 2075 3097 
Q 1594 3097 1305 2825 
Q 1016 2553 972 2059 
L 3022 2063 
z
" transform="scale(0.015625)"/>
      </defs>
      <use xlink:href="#DejaVuSans-4d"/>
      <use xlink:href="#DejaVuSans-69" x="86.279297"/>
      <use xlink:href="#DejaVuSans-6e" x="114.0625"/>
      <use xlink:href="#DejaVuSans-75" x="177.441406"/>
      <use xlink:href="#DejaVuSans-74" x="240.820312"/>
      <use xlink:href="#DejaVuSans-65" x="280.029297"/>
     </g>
    </g>
   </g>
   <g id="matplotlib.axis_2">
    <g id="ytick_1">
     <g id="line2d_6">
      <defs>
       <path id="md8d5814112" d="M 0 0 
L -3.5 0 
" style="stroke: #ffffff; stroke-width: 0.8"/>
      </defs>
      <g>
       <use xlink:href="#md8d5814112" x="90" y="492.48" style="fill: #ffffff; stroke: #ffffff; stroke-width: 0.8"/>
      </g>
     </g>
     <g id="text_7">
      <!-- 0 -->
      <g style="fill: #ffffff" transform="translate(76.6375 496.279219) scale(0.1 -0.1)">
       <use xlink:href="#DejaVuSans-30"/>
      </g>
     </g>
    </g>
    <g id="ytick_2">
     <g id="line2d_7">
      <g>
       <use xlink:href="#md8d5814112" x="90" y="432.923131" style="fill: #ffffff; stroke: #ffffff; stroke-width: 0.8"/>
      </g>
     </g>
     <g id="text_8">
      <!-- 200 -->
      <g style="fill: #ffffff" transform="translate(63.9125 436.72235) scale(0.1 -0.1)">
       <use xlink:href="#DejaVuSans-32"/>
       <use xlink:href="#DejaVuSans-30" x="63.623047"/>
       <use xlink:href="#DejaVuSans-30" x="127.246094"/>
      </g>
     </g>
    </g>
    <g id="ytick_3">
     <g id="line2d_8">
      <g>
       <use xlink:href="#md8d5814112" x="90" y="373.366263" style="fill: #ffffff; stroke: #ffffff; stroke-width: 0.8"/>
      </g>
     </g>
     <g id="text_9">
      <!-- 400 -->
      <g style="fill: #ffffff" transform="translate(63.9125 377.165482) scale(0.1 -0.1)">
       <use xlink:href="#DejaVuSans-34"/>
       <use xlink:href="#DejaVuSans-30" x="63.623047"/>
       <use xlink:href="#DejaVuSans-30" x="127.246094"/>
      </g>
     </g>
    </g>
    <g id="ytick_4">
     <g id="line2d_9">
      <g>
       <use xlink:href="#md8d5814112" x="90" y="313.809394" style="fill: #ffffff; stroke: #ffffff; stroke-width: 0.8"/>
      </g>
     </g>
     <g id="text_10">
      <!-- 600 -->
      <g style="fill: #ffffff" transform="translate(63.9125 317.608613) scale(0.1 -0.1)">
       <use xlink:href="#DejaVuSans-36"/>
       <use xlink:href="#DejaVuSans-30" x="63.623047"/>
       <use xlink:href="#DejaVuSans-30" x="127.246094"/>
      </g>
     </g>
    </g>
    <g id="ytick_5">
     <g id="line2d_10">
      <g>
       <use xlink:href="#md8d5814112" x="90" y="254.252526" style="fill: #ffffff; stroke: #ffffff; stroke-width: 0.8"/>
      </g>
     </g>
     <g id="text_11">
      <!-- 800 -->
      <g style="fill: #ffffff" transform="translate(63.9125 258.051745) scale(0.1 -0.1)">
       <use xlink:href="#DejaVuSans-38"/>
       <use xlink:href="#DejaVuSans-30" x="63.623047"/>
       <use xlink:href="#DejaVuSans-30" x="127.246094"/>
      </g>
     </g>
    </g>
    <g id="ytick_6">
     <g id="line2d_11">
      <g>
       <use xlink:href="#md8d5814112" x="90" y="194.695657" style="fill: #ffffff; stroke: #ffffff; stroke-width: 0.8"/>
      </g>
     </g>
     <g id="text_12">
      <!-- 1000 -->
      <g style="fill: #ffffff" transform="translate(57.55 198.494876) scale(0.1 -0.1)">
       <use xlink:href="#DejaVuSans-31"/>
       <use xlink:href="#DejaVuSans-30" x="63.623047"/>
       <use xlink:href="#DejaVuSans-30" x="127.246094"/>
       <use xlink:href="#DejaVuSans-30" x="190.869141"/>
      </g>
     </g>
    </g>
    <g id="ytick_7">
     <g id="line2d_12">
      <g>
       <use xlink:href="#md8d5814112" x="90" y="135.138789" style="fill: #ffffff; stroke: #ffffff; stroke-width: 0.8"/>
      </g>
     </g>
     <g id="text_13">
      <!-- 1200 -->
      <g style="fill: #ffffff" transform="translate(57.55 138.938008) scale(0.1 -0.1)">
       <use xlink:href="#DejaVuSans-31"/>
       <use xlink:href="#DejaVuSans-32" x="63.623047"/>
       <use xlink:href="#DejaVuSans-30" x="127.246094"/>
       <use xlink:href="#DejaVuSans-30" x="190.869141"/>
      </g>
     </g>
    </g>
    <g id="ytick_8">
     <g id="line2d_13">
      <g>
       <use xlink:href="#md8d5814112" x="90" y="75.58192" style="fill: #ffffff; stroke: #ffffff; stroke-width: 0.8"/>
      </g>
     </g>
     <g id="text_14">
      <!-- 1400 -->
      <g style="fill: #ffffff" transform="translate(57.55 79.381139) scale(0.1 -0.1)">
       <use xlink:href="#DejaVuSans-31"/>
       <use xlink:href="#DejaVuSans-34" x="63.623047"/>
       <use xlink:href="#DejaVuSans-30" x="127.246094"/>
       <use xlink:href="#DejaVuSans-30" x="190.869141"/>
      </g>
     </g>
    </g>
    <g id="text_15">
     <!-- Frames with Investigation -->
     <g style="fill: #ffffff" transform="translate(51.470312 355.29875) rotate(-90) scale(0.1 -0.1)">
      <defs>
       <path id="DejaVuSans-46" d="M 628 4666 
L 3309 4666 
L 3309 4134 
L 1259 4134 
L 1259 2759 
L 3109 2759 
L 3109 2228 
L 1259 2228 
L 1259 0 
L 628 0 
L 628 4666 
z
" transform="scale(0.015625)"/>
       <path id="DejaVuSans-72" d="M 2631 2963 
Q 2534 3019 2420 3045 
Q 2306 3072 2169 3072 
Q 1681 3072 1420 2755 
Q 1159 2438 1159 1844 
L 1159 0 
L 581 0 
L 581 3500 
L 1159 3500 
L 1159 2956 
Q 1341 3275 1631 3429 
Q 1922 3584 2338 3584 
Q 2397 3584 2469 3576 
Q 2541 3569 2628 3553 
L 2631 2963 
z
" transform="scale(0.015625)"/>
       <path id="DejaVuSans-61" d="M 2194 1759 
Q 1497 1759 1228 1600 
Q 959 1441 959 1056 
Q 959 750 1161 570 
Q 1363 391 1709 391 
Q 2188 391 2477 730 
Q 2766 1069 2766 1631 
L 2766 1759 
L 2194 1759 
z
M 3341 1997 
L 3341 0 
L 2766 0 
L 2766 531 
Q 2569 213 2275 61 
Q 1981 -91 1556 -91 
Q 1019 -91 701 211 
Q 384 513 384 1019 
Q 384 1609 779 1909 
Q 1175 2209 1959 2209 
L 2766 2209 
L 2766 2266 
Q 2766 2663 2505 2880 
Q 2244 3097 1772 3097 
Q 1472 3097 1187 3025 
Q 903 2953 641 2809 
L 641 3341 
Q 956 3463 1253 3523 
Q 1550 3584 1831 3584 
Q 2591 3584 2966 3190 
Q 3341 2797 3341 1997 
z
" transform="scale(0.015625)"/>
       <path id="DejaVuSans-6d" d="M 3328 2828 
Q 3544 3216 3844 3400 
Q 4144 3584 4550 3584 
Q 5097 3584 5394 3201 
Q 5691 2819 5691 2113 
L 5691 0 
L 5113 0 
L 5113 2094 
Q 5113 2597 4934 2840 
Q 4756 3084 4391 3084 
Q 3944 3084 3684 2787 
Q 3425 2491 3425 1978 
L 3425 0 
L 2847 0 
L 2847 2094 
Q 2847 2600 2669 2842 
Q 2491 3084 2119 3084 
Q 1678 3084 1418 2786 
Q 1159 2488 1159 1978 
L 1159 0 
L 581 0 
L 581 3500 
L 1159 3500 
L 1159 2956 
Q 1356 3278 1631 3431 
Q 1906 3584 2284 3584 
Q 2666 3584 2933 3390 
Q 3200 3197 3328 2828 
z
" transform="scale(0.015625)"/>
       <path id="DejaVuSans-73" d="M 2834 3397 
L 2834 2853 
Q 2591 2978 2328 3040 
Q 2066 3103 1784 3103 
Q 1356 3103 1142 2972 
Q 928 2841 928 2578 
Q 928 2378 1081 2264 
Q 1234 2150 1697 2047 
L 1894 2003 
Q 2506 1872 2764 1633 
Q 3022 1394 3022 966 
Q 3022 478 2636 193 
Q 2250 -91 1575 -91 
Q 1294 -91 989 -36 
Q 684 19 347 128 
L 347 722 
Q 666 556 975 473 
Q 1284 391 1588 391 
Q 1994 391 2212 530 
Q 2431 669 2431 922 
Q 2431 1156 2273 1281 
Q 2116 1406 1581 1522 
L 1381 1569 
Q 847 1681 609 1914 
Q 372 2147 372 2553 
Q 372 3047 722 3315 
Q 1072 3584 1716 3584 
Q 2034 3584 2315 3537 
Q 2597 3491 2834 3397 
z
" transform="scale(0.015625)"/>
       <path id="DejaVuSans-20" transform="scale(0.015625)"/>
       <path id="DejaVuSans-77" d="M 269 3500 
L 844 3500 
L 1563 769 
L 2278 3500 
L 2956 3500 
L 3675 769 
L 4391 3500 
L 4966 3500 
L 4050 0 
L 3372 0 
L 2619 2869 
L 1863 0 
L 1184 0 
L 269 3500 
z
" transform="scale(0.015625)"/>
       <path id="DejaVuSans-68" d="M 3513 2113 
L 3513 0 
L 2938 0 
L 2938 2094 
Q 2938 2591 2744 2837 
Q 2550 3084 2163 3084 
Q 1697 3084 1428 2787 
Q 1159 2491 1159 1978 
L 1159 0 
L 581 0 
L 581 4863 
L 1159 4863 
L 1159 2956 
Q 1366 3272 1645 3428 
Q 1925 3584 2291 3584 
Q 2894 3584 3203 3211 
Q 3513 2838 3513 2113 
z
" transform="scale(0.015625)"/>
       <path id="DejaVuSans-49" d="M 628 4666 
L 1259 4666 
L 1259 0 
L 628 0 
L 628 4666 
z
" transform="scale(0.015625)"/>
       <path id="DejaVuSans-76" d="M 191 3500 
L 800 3500 
L 1894 563 
L 2988 3500 
L 3597 3500 
L 2284 0 
L 1503 0 
L 191 3500 
z
" transform="scale(0.015625)"/>
       <path id="DejaVuSans-67" d="M 2906 1791 
Q 2906 2416 2648 2759 
Q 2391 3103 1925 3103 
Q 1463 3103 1205 2759 
Q 947 2416 947 1791 
Q 947 1169 1205 825 
Q 1463 481 1925 481 
Q 2391 481 2648 825 
Q 2906 1169 2906 1791 
z
M 3481 434 
Q 3481 -459 3084 -895 
Q 2688 -1331 1869 -1331 
Q 1566 -1331 1297 -1286 
Q 1028 -1241 775 -1147 
L 775 -588 
Q 1028 -725 1275 -790 
Q 1522 -856 1778 -856 
Q 2344 -856 2625 -561 
Q 2906 -266 2906 331 
L 2906 616 
Q 2728 306 2450 153 
Q 2172 0 1784 0 
Q 1141 0 747 490 
Q 353 981 353 1791 
Q 353 2603 747 3093 
Q 1141 3584 1784 3584 
Q 2172 3584 2450 3431 
Q 2728 3278 2906 2969 
L 2906 3500 
L 3481 3500 
L 3481 434 
z
" transform="scale(0.015625)"/>
       <path id="DejaVuSans-6f" d="M 1959 3097 
Q 1497 3097 1228 2736 
Q 959 2375 959 1747 
Q 959 1119 1226 758 
Q 1494 397 1959 397 
Q 2419 397 2687 759 
Q 2956 1122 2956 1747 
Q 2956 2369 2687 2733 
Q 2419 3097 1959 3097 
z
M 1959 3584 
Q 2709 3584 3137 3096 
Q 3566 2609 3566 1747 
Q 3566 888 3137 398 
Q 2709 -91 1959 -91 
Q 1206 -91 779 398 
Q 353 888 353 1747 
Q 353 2609 779 3096 
Q 1206 3584 1959 3584 
z
" transform="scale(0.015625)"/>
      </defs>
      <use xlink:href="#DejaVuSans-46"/>
      <use xlink:href="#DejaVuSans-72" x="50.269531"/>
      <use xlink:href="#DejaVuSans-61" x="91.382812"/>
      <use xlink:href="#DejaVuSans-6d" x="152.662109"/>
      <use xlink:href="#DejaVuSans-65" x="250.074219"/>
      <use xlink:href="#DejaVuSans-73" x="311.597656"/>
      <use xlink:href="#DejaVuSans-20" x="363.697266"/>
      <use xlink:href="#DejaVuSans-77" x="395.484375"/>
      <use xlink:href="#DejaVuSans-69" x="477.271484"/>
      <use xlink:href="#DejaVuSans-74" x="505.054688"/>
      <use xlink:href="#DejaVuSans-68" x="544.263672"/>
      <use xlink:href="#DejaVuSans-20" x="607.642578"/>
      <use xlink:href="#DejaVuSans-49" x="639.429688"/>
      <use xlink:href="#DejaVuSans-6e" x="668.921875"/>
      <use xlink:href="#DejaVuSans-76" x="732.300781"/>
      <use xlink:href="#DejaVuSans-65" x="791.480469"/>
      <use xlink:href="#DejaVuSans-73" x="853.003906"/>
      <use xlink:href="#DejaVuSans-74" x="905.103516"/>
      <use xlink:href="#DejaVuSans-69" x="944.3125"/>
      <use xlink:href="#DejaVuSans-67" x="972.095703"/>
      <use xlink:href="#DejaVuSans-61" x="1035.572266"/>
      <use xlink:href="#DejaVuSans-74" x="1096.851562"/>
      <use xlink:href="#DejaVuSans-69" x="1136.060547"/>
      <use xlink:href="#DejaVuSans-6f" x="1163.84375"/>
      <use xlink:href="#DejaVuSans-6e" x="1225.025391"/>
     </g>
    </g>
   </g>
   <g id="line2d_14">
    <path d="M 115.363636 354.903634 
L 171.727273 436.496544 
L 228.090909 448.705702 
L 284.454545 446.621211 
L 340.818182 480.270842 
L 397.181818 253.061388 
L 453.545455 446.918996 
L 509.909091 461.510428 
L 566.272727 461.808213 
L 622.636364 492.48 
" clip-path="url(#pca776851fe)" style="fill: none; stroke: #440154; stroke-width: 1.5; stroke-linecap: square"/>
   </g>
   <g id="line2d_15">
    <path d="M 115.363636 307.555923 
L 171.727273 369.197282 
L 228.090909 467.466115 
L 284.454545 291.177784 
L 340.818182 334.05873 
L 397.181818 413.567149 
L 453.545455 492.48 
L 509.909091 462.105997 
L 566.272727 454.06582 
L 622.636364 490.097725 
" clip-path="url(#pca776851fe)" style="fill: none; stroke: #414487; stroke-width: 1.5; stroke-linecap: square"/>
   </g>
   <g id="line2d_16">
    <path d="M 115.363636 256.337016 
L 171.727273 479.675273 
L 228.090909 287.604372 
L 284.454545 463.892703 
L 340.818182 360.859321 
L 397.181818 492.48 
L 453.545455 391.233323 
L 509.909091 466.572762 
L 566.272727 348.352378 
L 622.636364 492.48 
" clip-path="url(#pca776851fe)" style="fill: none; stroke: #2a788e; stroke-width: 1.5; stroke-linecap: square"/>
   </g>
   <g id="line2d_17">
    <path d="M 115.363636 348.650162 
L 171.727273 461.510428 
L 228.090909 453.470251 
L 284.454545 377.237459 
L 340.818182 444.834505 
L 397.181818 486.822097 
L 453.545455 462.105997 
L 509.909091 489.502157 
L 566.272727 488.906588 
L 622.636364 435.007622 
" clip-path="url(#pca776851fe)" style="fill: none; stroke: #22a884; stroke-width: 1.5; stroke-linecap: square"/>
   </g>
   <g id="line2d_18">
    <path d="M 115.363636 291.773353 
L 171.727273 439.176603 
L 228.090909 475.804077 
L 284.454545 318.871728 
L 340.818182 421.309542 
L 397.181818 492.48 
L 453.545455 463.892703 
L 509.909091 488.608804 
L 566.272727 438.878818 
L 622.636364 266.1639 
" clip-path="url(#pca776851fe)" style="fill: none; stroke: #7ad151; stroke-width: 1.5; stroke-linecap: square"/>
   </g>
   <g id="line2d_19">
    <path d="M 115.363636 350.139084 
L 171.727273 462.99935 
L 228.090909 399.273501 
L 284.454545 337.334357 
L 340.818182 446.621211 
L 397.181818 438.581034 
L 453.545455 485.928744 
L 509.909091 488.013235 
L 566.272727 441.856662 
L 622.636364 371.579557 
" clip-path="url(#pca776851fe)" style="fill: none; stroke: #fde725; stroke-width: 1.5; stroke-linecap: square"/>
   </g>
   <g id="line2d_20">
    <path d="M 115.363636 244.425643 
L 171.727273 387.957696 
L 228.090909 257.528154 
L 284.454545 399.273501 
L 340.818182 477.590783 
L 397.181818 398.380148 
L 453.545455 481.759764 
L 509.909091 427.860798 
L 566.272727 421.309542 
L 622.636364 381.108656 
" clip-path="url(#pca776851fe)" style="fill: none; stroke: #440154; stroke-width: 1.5; stroke-linecap: square"/>
   </g>
   <g id="line2d_21">
    <path d="M 115.363636 310.235982 
L 171.727273 252.46582 
L 228.090909 448.407917 
L 284.454545 344.183397 
L 340.818182 344.778966 
L 397.181818 315.298316 
L 453.545455 489.204372 
L 509.909091 471.635096 
L 566.272727 436.198759 
L 622.636364 218.518405 
" clip-path="url(#pca776851fe)" style="fill: none; stroke: #414487; stroke-width: 1.5; stroke-linecap: square"/>
   </g>
   <g id="line2d_22">
    <path d="M 115.363636 249.785761 
L 171.727273 317.085022 
L 228.090909 247.403486 
L 284.454545 237.874387 
L 340.818182 346.565672 
L 397.181818 452.874682 
L 453.545455 485.928744 
L 509.909091 414.162718 
L 566.272727 461.808213 
L 622.636364 346.267888 
" clip-path="url(#pca776851fe)" style="fill: none; stroke: #2a788e; stroke-width: 1.5; stroke-linecap: square"/>
   </g>
   <g id="line2d_23">
    <path d="M 115.363636 345.374535 
L 171.727273 327.20969 
L 228.090909 409.100384 
L 284.454545 449.896839 
L 340.818182 356.392555 
L 397.181818 433.816484 
L 453.545455 482.950901 
L 509.909091 138.116632 
L 566.272727 370.686204 
L 622.636364 487.417666 
" clip-path="url(#pca776851fe)" style="fill: none; stroke: #22a884; stroke-width: 1.5; stroke-linecap: square"/>
   </g>
   <g id="line2d_24">
    <path d="M 115.363636 286.115451 
L 171.727273 246.807917 
L 228.090909 309.044845 
L 284.454545 292.666706 
L 340.818182 421.309542 
L 397.181818 321.849572 
L 453.545455 429.647504 
L 509.909091 342.098907 
L 566.272727 206.011462 
L 622.636364 452.279114 
" clip-path="url(#pca776851fe)" style="fill: none; stroke: #7ad151; stroke-width: 1.5; stroke-linecap: square"/>
   </g>
   <g id="line2d_25">
    <path d="M 115.363636 362.348242 
L 171.727273 437.092112 
L 228.090909 416.247208 
L 284.454545 307.853708 
L 340.818182 336.14322 
L 397.181818 266.461684 
L 453.545455 490.991078 
L 509.909091 491.884431 
L 566.272727 486.822097 
L 622.636364 492.48 
" clip-path="url(#pca776851fe)" style="fill: none; stroke: #fde725; stroke-width: 1.5; stroke-linecap: square"/>
   </g>
   <g id="line2d_26">
    <path d="M 115.363636 253.061388 
L 171.727273 356.392555 
L 228.090909 407.015894 
L 284.454545 482.653117 
L 340.818182 435.900975 
L 397.181818 474.315155 
L 453.545455 372.770694 
L 509.909091 492.182216 
L 566.272727 316.489453 
L 622.636364 492.48 
" clip-path="url(#pca776851fe)" style="fill: none; stroke: #440154; stroke-width: 1.5; stroke-linecap: square"/>
   </g>
   <g id="line2d_27">
    <path d="M 115.363636 200.35356 
L 171.727273 197.971285 
L 228.090909 420.713973 
L 284.454545 434.114269 
L 340.818182 472.230665 
L 397.181818 483.844254 
L 453.545455 358.477046 
L 509.909091 487.119882 
L 566.272727 476.399645 
L 622.636364 472.826233 
" clip-path="url(#pca776851fe)" style="fill: none; stroke: #414487; stroke-width: 1.5; stroke-linecap: square"/>
   </g>
   <g id="line2d_28">
    <path d="M 115.363636 219.709542 
L 171.727273 447.514564 
L 228.090909 389.446617 
L 284.454545 474.017371 
L 340.818182 467.168331 
L 397.181818 418.927267 
L 453.545455 483.54647 
L 509.909091 478.78192 
L 566.272727 453.172467 
L 622.636364 458.532585 
" clip-path="url(#pca776851fe)" style="fill: none; stroke: #2a788e; stroke-width: 1.5; stroke-linecap: square"/>
   </g>
   <g id="line2d_29">
    <path d="M 115.363636 423.394032 
L 171.727273 492.48 
L 228.090909 472.230665 
L 284.454545 432.327563 
L 340.818182 491.884431 
L 397.181818 476.399645 
L 453.545455 473.421802 
L 509.909091 425.776307 
L 566.272727 475.208508 
L 622.636364 482.355332 
" clip-path="url(#pca776851fe)" style="fill: none; stroke: #22a884; stroke-width: 1.5; stroke-linecap: square"/>
   </g>
   <g id="line2d_30">
    <path d="M 115.363636 155.983693 
L 171.727273 419.225052 
L 228.090909 410.88709 
L 284.454545 356.094771 
L 340.818182 476.399645 
L 397.181818 491.884431 
L 453.545455 273.012939 
L 509.909091 355.499202 
L 566.272727 446.025643 
L 622.636364 304.875864 
" clip-path="url(#pca776851fe)" style="fill: none; stroke: #7ad151; stroke-width: 1.5; stroke-linecap: square"/>
   </g>
   <g id="line2d_31">
    <path d="M 115.363636 371.281773 
L 171.727273 464.786056 
L 228.090909 488.608804 
L 284.454545 473.124018 
L 340.818182 492.48 
L 397.181818 492.48 
L 453.545455 472.230665 
L 509.909091 492.48 
L 566.272727 492.48 
L 622.636364 459.128154 
" clip-path="url(#pca776851fe)" style="fill: none; stroke: #fde725; stroke-width: 1.5; stroke-linecap: square"/>
   </g>
   <g id="line2d_32">
    <path d="M 115.363636 245.318996 
L 171.727273 413.269365 
L 228.090909 481.461979 
L 284.454545 426.66966 
L 340.818182 411.482659 
L 397.181818 491.288863 
L 453.545455 484.439823 
L 509.909091 478.78192 
L 566.272727 399.869069 
L 622.636364 468.359468 
" clip-path="url(#pca776851fe)" style="fill: none; stroke: #440154; stroke-width: 1.5; stroke-linecap: square"/>
   </g>
   <g id="line2d_33">
    <path d="M 115.363636 368.899498 
L 171.727273 387.957696 
L 228.090909 474.910724 
L 284.454545 492.48 
L 340.818182 490.097725 
L 397.181818 488.608804 
L 453.545455 473.719586 
L 509.909091 364.432733 
L 566.272727 492.48 
L 622.636364 492.182216 
" clip-path="url(#pca776851fe)" style="fill: none; stroke: #443983; stroke-width: 1.5; stroke-linecap: square"/>
   </g>
   <g id="line2d_34">
    <path d="M 115.363636 354.010281 
L 171.727273 413.269365 
L 228.090909 393.02003 
L 284.454545 456.448095 
L 340.818182 374.259616 
L 397.181818 492.48 
L 453.545455 466.572762 
L 509.909091 490.097725 
L 566.272727 487.119882 
L 622.636364 478.484136 
" clip-path="url(#pca776851fe)" style="fill: none; stroke: #31688e; stroke-width: 1.5; stroke-linecap: square"/>
   </g>
   <g id="line2d_35">
    <path d="M 115.363636 331.378671 
L 171.727273 390.637755 
L 228.090909 451.981329 
L 284.454545 456.448095 
L 340.818182 492.48 
L 397.181818 474.910724 
L 453.545455 470.146174 
L 509.909091 489.799941 
L 566.272727 433.5187 
L 622.636364 492.48 
" clip-path="url(#pca776851fe)" style="fill: none; stroke: #21918c; stroke-width: 1.5; stroke-linecap: square"/>
   </g>
   <g id="line2d_36">
    <path d="M 115.363636 255.443663 
L 171.727273 447.514564 
L 228.090909 455.554742 
L 284.454545 468.061684 
L 340.818182 405.824756 
L 397.181818 451.385761 
L 453.545455 492.48 
L 509.909091 487.119882 
L 566.272727 412.078227 
L 622.636364 492.48 
" clip-path="url(#pca776851fe)" style="fill: none; stroke: #35b779; stroke-width: 1.5; stroke-linecap: square"/>
   </g>
   <g id="line2d_37">
    <path d="M 115.363636 331.080886 
L 171.727273 445.727858 
L 228.090909 258.123722 
L 284.454545 369.792851 
L 340.818182 380.215303 
L 397.181818 482.950901 
L 453.545455 412.673796 
L 509.909091 242.341152 
L 566.272727 467.466115 
L 622.636364 492.182216 
" clip-path="url(#pca776851fe)" style="fill: none; stroke: #90d743; stroke-width: 1.5; stroke-linecap: square"/>
   </g>
   <g id="line2d_38">
    <path d="M 115.363636 239.661093 
L 171.727273 477.590783 
L 228.090909 368.899498 
L 284.454545 492.48 
L 340.818182 491.884431 
L 397.181818 492.48 
L 453.545455 470.146174 
L 509.909091 438.581034 
L 566.272727 274.799645 
L 622.636364 446.918996 
" clip-path="url(#pca776851fe)" style="fill: none; stroke: #fde725; stroke-width: 1.5; stroke-linecap: square"/>
   </g>
   <g id="line2d_39">
    <path d="M 115.363636 255.741448 
L 171.727273 360.561536 
L 228.090909 435.305406 
L 284.454545 365.326086 
L 340.818182 357.285908 
L 397.181818 492.48 
L 453.545455 437.092112 
L 509.909091 477.292999 
L 566.272727 456.15031 
L 622.636364 453.172467 
" clip-path="url(#pca776851fe)" style="fill: none; stroke: #440154; stroke-width: 1.5; stroke-linecap: square"/>
   </g>
   <g id="line2d_40">
    <path d="M 115.363636 194.993442 
L 171.727273 363.837164 
L 228.090909 492.48 
L 284.454545 404.633619 
L 340.818182 421.011758 
L 397.181818 480.866411 
L 453.545455 464.786056 
L 509.909091 465.977194 
L 566.272727 461.510428 
L 622.636364 372.770694 
" clip-path="url(#pca776851fe)" style="fill: none; stroke: #443983; stroke-width: 1.5; stroke-linecap: square"/>
   </g>
   <g id="line2d_41">
    <path d="M 115.363636 409.100384 
L 171.727273 213.753855 
L 228.090909 218.22062 
L 284.454545 460.91486 
L 340.818182 439.772171 
L 397.181818 423.096248 
L 453.545455 484.142038 
L 509.909091 486.822097 
L 566.272727 485.035391 
L 622.636364 491.884431 
" clip-path="url(#pca776851fe)" style="fill: none; stroke: #31688e; stroke-width: 1.5; stroke-linecap: square"/>
   </g>
   <g id="line2d_42">
    <path d="M 115.363636 276.288567 
L 171.727273 353.712496 
L 228.090909 338.22771 
L 284.454545 488.311019 
L 340.818182 435.305406 
L 397.181818 439.176603 
L 453.545455 488.311019 
L 509.909091 458.532585 
L 566.272727 451.087976 
L 622.636364 492.48 
" clip-path="url(#pca776851fe)" style="fill: none; stroke: #21918c; stroke-width: 1.5; stroke-linecap: square"/>
   </g>
   <g id="line2d_43">
    <path d="M 115.363636 370.388419 
L 171.727273 399.869069 
L 228.090909 492.48 
L 284.454545 371.281773 
L 340.818182 482.653117 
L 397.181818 464.488272 
L 453.545455 485.333176 
L 509.909091 483.248685 
L 566.272727 348.054594 
L 622.636364 492.48 
" clip-path="url(#pca776851fe)" style="fill: none; stroke: #35b779; stroke-width: 1.5; stroke-linecap: square"/>
   </g>
   <g id="line2d_44">
    <path d="M 115.363636 250.679114 
L 171.727273 411.780443 
L 228.090909 478.78192 
L 284.454545 432.923131 
L 340.818182 214.05164 
L 397.181818 442.154446 
L 453.545455 407.313678 
L 509.909091 474.315155 
L 566.272727 456.15031 
L 622.636364 489.204372 
" clip-path="url(#pca776851fe)" style="fill: none; stroke: #90d743; stroke-width: 1.5; stroke-linecap: square"/>
   </g>
   <g id="line2d_45">
    <path d="M 115.363636 295.942334 
L 171.727273 477.888567 
L 228.090909 452.279114 
L 284.454545 476.101861 
L 340.818182 456.15031 
L 397.181818 457.043663 
L 453.545455 456.15031 
L 509.909091 479.973058 
L 566.272727 472.230665 
L 622.636364 461.510428 
" clip-path="url(#pca776851fe)" style="fill: none; stroke: #fde725; stroke-width: 1.5; stroke-linecap: square"/>
   </g>
   <g id="line2d_46">
    <path d="M 115.363636 297.133471 
L 171.727273 146.156809 
L 228.090909 348.352378 
L 284.454545 416.247208 
L 340.818182 456.448095 
L 397.181818 375.450753 
L 453.545455 440.069956 
L 509.909091 480.270842 
L 566.272727 484.737607 
L 622.636364 377.535244 
" clip-path="url(#pca776851fe)" style="fill: none; stroke: #440154; stroke-width: 1.5; stroke-linecap: square"/>
   </g>
   <g id="line2d_47">
    <path d="M 115.363636 330.187533 
L 171.727273 397.486795 
L 228.090909 417.140561 
L 284.454545 388.553264 
L 340.818182 370.090635 
L 397.181818 474.017371 
L 453.545455 373.664047 
L 509.909091 461.212644 
L 566.272727 417.140561 
L 622.636364 331.676455 
" clip-path="url(#pca776851fe)" style="fill: none; stroke: #443983; stroke-width: 1.5; stroke-linecap: square"/>
   </g>
   <g id="line2d_48">
    <path d="M 115.363636 327.20969 
L 171.727273 365.326086 
L 228.090909 449.30127 
L 284.454545 440.069956 
L 340.818182 464.786056 
L 397.181818 481.759764 
L 453.545455 457.341448 
L 509.909091 429.945288 
L 566.272727 363.241595 
L 622.636364 484.439823 
" clip-path="url(#pca776851fe)" style="fill: none; stroke: #31688e; stroke-width: 1.5; stroke-linecap: square"/>
   </g>
   <g id="line2d_49">
    <path d="M 115.363636 270.035096 
L 171.727273 301.004668 
L 228.090909 368.006145 
L 284.454545 407.015894 
L 340.818182 471.039527 
L 397.181818 468.359468 
L 453.545455 451.981329 
L 509.909091 466.274978 
L 566.272727 478.186352 
L 622.636364 480.270842 
" clip-path="url(#pca776851fe)" style="fill: none; stroke: #21918c; stroke-width: 1.5; stroke-linecap: square"/>
   </g>
   <g id="line2d_50">
    <path d="M 115.363636 307.258139 
L 171.727273 476.995214 
L 228.090909 432.327563 
L 284.454545 396.593442 
L 340.818182 425.776307 
L 397.181818 468.657253 
L 453.545455 420.416189 
L 509.909091 450.790192 
L 566.272727 492.48 
L 622.636364 472.826233 
" clip-path="url(#pca776851fe)" style="fill: none; stroke: #35b779; stroke-width: 1.5; stroke-linecap: square"/>
   </g>
   <g id="line2d_51">
    <path d="M 115.363636 223.282954 
L 171.727273 354.605849 
L 228.090909 354.903634 
L 284.454545 403.442482 
L 340.818182 468.657253 
L 397.181818 443.643368 
L 453.545455 485.63096 
L 509.909091 392.722245 
L 566.272727 445.13229 
L 622.636364 392.126677 
" clip-path="url(#pca776851fe)" style="fill: none; stroke: #90d743; stroke-width: 1.5; stroke-linecap: square"/>
   </g>
   <g id="line2d_52">
    <path d="M 115.363636 201.246913 
L 171.727273 429.647504 
L 228.090909 474.910724 
L 284.454545 405.526972 
L 340.818182 424.882954 
L 397.181818 450.194623 
L 453.545455 461.510428 
L 509.909091 380.513087 
L 566.272727 471.337312 
L 622.636364 477.590783 
" clip-path="url(#pca776851fe)" style="fill: none; stroke: #fde725; stroke-width: 1.5; stroke-linecap: square"/>
   </g>
   <g id="line2d_53">
    <path d="M 115.363636 242.638936 
L 171.727273 332.272024 
L 228.090909 367.112792 
L 284.454545 292.96449 
L 340.818182 404.931403 
L 397.181818 404.931403 
L 453.545455 478.186352 
L 509.909091 407.611462 
L 566.272727 459.425938 
L 622.636364 399.869069 
" clip-path="url(#pca776851fe)" style="fill: none; stroke: #440154; stroke-width: 1.5; stroke-linecap: square"/>
   </g>
   <g id="line2d_54">
    <path d="M 115.363636 319.467297 
L 171.727273 303.684727 
L 228.090909 396.891226 
L 284.454545 375.450753 
L 340.818182 421.309542 
L 397.181818 438.878818 
L 453.545455 474.017371 
L 509.909091 440.069956 
L 566.272727 469.84839 
L 622.636364 480.866411 
" clip-path="url(#pca776851fe)" style="fill: none; stroke: #414487; stroke-width: 1.5; stroke-linecap: square"/>
   </g>
   <g id="line2d_55">
    <path d="M 115.363636 280.755332 
L 171.727273 356.094771 
L 228.090909 384.086499 
L 284.454545 434.709838 
L 340.818182 380.810871 
L 397.181818 475.506292 
L 453.545455 484.142038 
L 509.909091 472.826233 
L 566.272727 487.119882 
L 622.636364 486.524313 
" clip-path="url(#pca776851fe)" style="fill: none; stroke: #2a788e; stroke-width: 1.5; stroke-linecap: square"/>
   </g>
   <g id="line2d_56">
    <path d="M 115.363636 231.620916 
L 171.727273 392.722245 
L 228.090909 399.869069 
L 284.454545 476.399645 
L 340.818182 294.751196 
L 397.181818 491.586647 
L 453.545455 482.057548 
L 509.909091 400.464638 
L 566.272727 303.982511 
L 622.636364 465.381625 
" clip-path="url(#pca776851fe)" style="fill: none; stroke: #22a884; stroke-width: 1.5; stroke-linecap: square"/>
   </g>
   <g id="line2d_57">
    <path d="M 115.363636 211.669365 
L 171.727273 406.420325 
L 228.090909 371.877341 
L 284.454545 410.88709 
L 340.818182 472.230665 
L 397.181818 482.057548 
L 453.545455 386.468774 
L 509.909091 483.844254 
L 566.272727 482.653117 
L 622.636364 485.333176 
" clip-path="url(#pca776851fe)" style="fill: none; stroke: #7ad151; stroke-width: 1.5; stroke-linecap: square"/>
   </g>
   <g id="line2d_58">
    <path d="M 115.363636 188.144402 
L 171.727273 352.223575 
L 228.090909 374.5574 
L 284.454545 449.896839 
L 340.818182 489.799941 
L 397.181818 340.609985 
L 453.545455 467.7639 
L 509.909091 483.844254 
L 566.272727 411.184874 
L 622.636364 490.991078 
" clip-path="url(#pca776851fe)" style="fill: none; stroke: #fde725; stroke-width: 1.5; stroke-linecap: square"/>
   </g>
   <g id="line2d_59">
    <path d="M 115.363636 492.48 
L 171.727273 492.48 
L 228.090909 492.48 
L 284.454545 492.48 
L 340.818182 428.158582 
L 397.181818 407.015894 
L 453.545455 459.723722 
L 509.909091 397.18901 
L 566.272727 410.291521 
L 622.636364 456.448095 
" clip-path="url(#pca776851fe)" style="fill: none; stroke: #440154; stroke-width: 1.5; stroke-linecap: square"/>
   </g>
   <g id="line2d_60">
    <path d="M 115.363636 326.316337 
L 171.727273 278.968626 
L 228.090909 279.266411 
L 284.454545 265.866115 
L 340.818182 354.010281 
L 397.181818 427.860798 
L 453.545455 422.500679 
L 509.909091 233.407622 
L 566.272727 382.299793 
L 622.636364 383.788715 
" clip-path="url(#pca776851fe)" style="fill: none; stroke: #414487; stroke-width: 1.5; stroke-linecap: square"/>
   </g>
   <g id="line2d_61">
    <path d="M 115.363636 333.165377 
L 171.727273 472.826233 
L 228.090909 475.506292 
L 284.454545 484.142038 
L 340.818182 335.845436 
L 397.181818 290.88 
L 453.545455 486.822097 
L 509.909091 492.48 
L 566.272727 492.48 
L 622.636364 426.66966 
" clip-path="url(#pca776851fe)" style="fill: none; stroke: #2a788e; stroke-width: 1.5; stroke-linecap: square"/>
   </g>
   <g id="line2d_62">
    <path d="M 115.363636 330.783102 
L 171.727273 360.561536 
L 228.090909 394.806736 
L 284.454545 484.142038 
L 340.818182 296.240118 
L 397.181818 487.715451 
L 453.545455 492.48 
L 509.909091 442.45223 
L 566.272727 424.287386 
L 622.636364 435.305406 
" clip-path="url(#pca776851fe)" style="fill: none; stroke: #22a884; stroke-width: 1.5; stroke-linecap: square"/>
   </g>
   <g id="line2d_63">
    <path d="M 115.363636 252.168035 
L 171.727273 456.745879 
L 228.090909 309.044845 
L 284.454545 423.691817 
L 340.818182 466.572762 
L 397.181818 482.355332 
L 453.545455 481.164195 
L 509.909091 474.910724 
L 566.272727 479.377489 
L 622.636364 89.28 
" clip-path="url(#pca776851fe)" style="fill: none; stroke: #7ad151; stroke-width: 1.5; stroke-linecap: square"/>
   </g>
   <g id="line2d_64">
    <path d="M 115.363636 202.140266 
L 171.727273 139.903338 
L 228.090909 490.39551 
L 284.454545 491.884431 
L 340.818182 492.48 
L 397.181818 446.025643 
L 453.545455 390.33997 
L 509.909091 492.48 
L 566.272727 481.164195 
L 622.636364 469.252821 
" clip-path="url(#pca776851fe)" style="fill: none; stroke: #fde725; stroke-width: 1.5; stroke-linecap: square"/>
   </g>
   <g id="line2d_65">
    <path d="M 115.363636 434.412053 
L 171.727273 492.48 
L 228.090909 444.238936 
L 284.454545 466.870547 
L 340.818182 186.65548 
L 397.181818 272.119586 
L 453.545455 207.798168 
L 509.909091 328.103043 
L 566.272727 303.982511 
L 622.636364 190.228892 
" clip-path="url(#pca776851fe)" style="fill: none; stroke: #440154; stroke-width: 1.5; stroke-linecap: square"/>
   </g>
   <g id="line2d_66">
    <path d="M 115.363636 229.238641 
L 171.727273 461.212644 
L 228.090909 409.993737 
L 284.454545 464.488272 
L 340.818182 315.893885 
L 397.181818 376.344106 
L 453.545455 331.378671 
L 509.909091 490.097725 
L 566.272727 480.568626 
L 622.636364 492.48 
" clip-path="url(#pca776851fe)" style="fill: none; stroke: #3b528b; stroke-width: 1.5; stroke-linecap: square"/>
   </g>
   <g id="line2d_67">
    <path d="M 115.363636 328.400827 
L 171.727273 463.594919 
L 228.090909 428.158582 
L 284.454545 368.601713 
L 340.818182 475.506292 
L 397.181818 481.164195 
L 453.545455 452.874682 
L 509.909091 443.643368 
L 566.272727 474.612939 
L 622.636364 450.790192 
" clip-path="url(#pca776851fe)" style="fill: none; stroke: #21918c; stroke-width: 1.5; stroke-linecap: square"/>
   </g>
   <g id="line2d_68">
    <path d="M 115.363636 289.688863 
L 171.727273 432.327563 
L 228.090909 457.639232 
L 284.454545 224.771876 
L 340.818182 490.39551 
L 397.181818 492.48 
L 453.545455 492.48 
L 509.909091 492.48 
L 566.272727 183.082068 
L 622.636364 383.788715 
" clip-path="url(#pca776851fe)" style="fill: none; stroke: #5ec962; stroke-width: 1.5; stroke-linecap: square"/>
   </g>
   <g id="line2d_69">
    <path d="M 115.363636 455.554742 
L 171.727273 322.44514 
L 228.090909 364.134948 
L 284.454545 460.91486 
L 340.818182 475.804077 
L 397.181818 472.230665 
L 453.545455 465.977194 
L 509.909091 478.186352 
L 566.272727 399.571285 
L 622.636364 281.053117 
" clip-path="url(#pca776851fe)" style="fill: none; stroke: #fde725; stroke-width: 1.5; stroke-linecap: square"/>
   </g>
   <g id="line2d_70">
    <path d="M 115.363636 432.625347 
L 171.727273 413.567149 
L 228.090909 348.947947 
L 284.454545 348.947947 
L 340.818182 390.637755 
L 397.181818 317.085022 
L 453.545455 208.095953 
L 509.909091 283.733176 
L 566.272727 242.638936 
L 622.636364 291.177784 
" clip-path="url(#pca776851fe)" style="fill: none; stroke: #440154; stroke-width: 1.5; stroke-linecap: square"/>
   </g>
   <g id="line2d_71">
    <path d="M 115.363636 361.157105 
L 171.727273 343.290044 
L 228.090909 374.5574 
L 284.454545 115.187238 
L 340.818182 492.48 
L 397.181818 318.27616 
L 453.545455 438.581034 
L 509.909091 191.42003 
L 566.272727 91.36449 
L 622.636364 455.554742 
" clip-path="url(#pca776851fe)" style="fill: none; stroke: #21918c; stroke-width: 1.5; stroke-linecap: square"/>
   </g>
   <g id="line2d_72">
    <path d="M 115.363636 417.140561 
L 171.727273 331.080886 
L 228.090909 382.895362 
L 284.454545 473.124018 
L 340.818182 479.675273 
L 397.181818 487.119882 
L 453.545455 440.665524 
L 509.909091 353.712496 
L 566.272727 424.287386 
L 622.636364 492.48 
" clip-path="url(#pca776851fe)" style="fill: none; stroke: #fde725; stroke-width: 1.5; stroke-linecap: square"/>
   </g>
   <g id="patch_3">
    <path d="M 90 512.64 
L 90 69.12 
" style="fill: none; stroke: #ffffff; stroke-width: 0.8; stroke-linejoin: miter; stroke-linecap: square"/>
   </g>
   <g id="patch_4">
    <path d="M 90 512.64 
L 648 512.64 
" style="fill: none; stroke: #ffffff; stroke-width: 0.8; stroke-linejoin: miter; stroke-linecap: square"/>
   </g>
   <g id="text_16">
    <!-- Investigation Time of Mice in 1-Minute Bins (experiment) -->
    <g style="fill: #ffffff" transform="translate(198.613125 63.12) scale(0.12 -0.12)">
     <defs>
      <path id="DejaVuSans-54" d="M -19 4666 
L 3928 4666 
L 3928 4134 
L 2272 4134 
L 2272 0 
L 1638 0 
L 1638 4134 
L -19 4134 
L -19 4666 
z
" transform="scale(0.015625)"/>
      <path id="DejaVuSans-66" d="M 2375 4863 
L 2375 4384 
L 1825 4384 
Q 1516 4384 1395 4259 
Q 1275 4134 1275 3809 
L 1275 3500 
L 2222 3500 
L 2222 3053 
L 1275 3053 
L 1275 0 
L 697 0 
L 697 3053 
L 147 3053 
L 147 3500 
L 697 3500 
L 697 3744 
Q 697 4328 969 4595 
Q 1241 4863 1831 4863 
L 2375 4863 
z
" transform="scale(0.015625)"/>
      <path id="DejaVuSans-63" d="M 3122 3366 
L 3122 2828 
Q 2878 2963 2633 3030 
Q 2388 3097 2138 3097 
Q 1578 3097 1268 2742 
Q 959 2388 959 1747 
Q 959 1106 1268 751 
Q 1578 397 2138 397 
Q 2388 397 2633 464 
Q 2878 531 3122 666 
L 3122 134 
Q 2881 22 2623 -34 
Q 2366 -91 2075 -91 
Q 1284 -91 818 406 
Q 353 903 353 1747 
Q 353 2603 823 3093 
Q 1294 3584 2113 3584 
Q 2378 3584 2631 3529 
Q 2884 3475 3122 3366 
z
" transform="scale(0.015625)"/>
      <path id="DejaVuSans-2d" d="M 313 2009 
L 1997 2009 
L 1997 1497 
L 313 1497 
L 313 2009 
z
" transform="scale(0.015625)"/>
      <path id="DejaVuSans-42" d="M 1259 2228 
L 1259 519 
L 2272 519 
Q 2781 519 3026 730 
Q 3272 941 3272 1375 
Q 3272 1813 3026 2020 
Q 2781 2228 2272 2228 
L 1259 2228 
z
M 1259 4147 
L 1259 2741 
L 2194 2741 
Q 2656 2741 2882 2914 
Q 3109 3088 3109 3444 
Q 3109 3797 2882 3972 
Q 2656 4147 2194 4147 
L 1259 4147 
z
M 628 4666 
L 2241 4666 
Q 2963 4666 3353 4366 
Q 3744 4066 3744 3513 
Q 3744 3084 3544 2831 
Q 3344 2578 2956 2516 
Q 3422 2416 3680 2098 
Q 3938 1781 3938 1306 
Q 3938 681 3513 340 
Q 3088 0 2303 0 
L 628 0 
L 628 4666 
z
" transform="scale(0.015625)"/>
      <path id="DejaVuSans-28" d="M 1984 4856 
Q 1566 4138 1362 3434 
Q 1159 2731 1159 2009 
Q 1159 1288 1364 580 
Q 1569 -128 1984 -844 
L 1484 -844 
Q 1016 -109 783 600 
Q 550 1309 550 2009 
Q 550 2706 781 3412 
Q 1013 4119 1484 4856 
L 1984 4856 
z
" transform="scale(0.015625)"/>
      <path id="DejaVuSans-78" d="M 3513 3500 
L 2247 1797 
L 3578 0 
L 2900 0 
L 1881 1375 
L 863 0 
L 184 0 
L 1544 1831 
L 300 3500 
L 978 3500 
L 1906 2253 
L 2834 3500 
L 3513 3500 
z
" transform="scale(0.015625)"/>
      <path id="DejaVuSans-70" d="M 1159 525 
L 1159 -1331 
L 581 -1331 
L 581 3500 
L 1159 3500 
L 1159 2969 
Q 1341 3281 1617 3432 
Q 1894 3584 2278 3584 
Q 2916 3584 3314 3078 
Q 3713 2572 3713 1747 
Q 3713 922 3314 415 
Q 2916 -91 2278 -91 
Q 1894 -91 1617 61 
Q 1341 213 1159 525 
z
M 3116 1747 
Q 3116 2381 2855 2742 
Q 2594 3103 2138 3103 
Q 1681 3103 1420 2742 
Q 1159 2381 1159 1747 
Q 1159 1113 1420 752 
Q 1681 391 2138 391 
Q 2594 391 2855 752 
Q 3116 1113 3116 1747 
z
" transform="scale(0.015625)"/>
      <path id="DejaVuSans-29" d="M 513 4856 
L 1013 4856 
Q 1481 4119 1714 3412 
Q 1947 2706 1947 2009 
Q 1947 1309 1714 600 
Q 1481 -109 1013 -844 
L 513 -844 
Q 928 -128 1133 580 
Q 1338 1288 1338 2009 
Q 1338 2731 1133 3434 
Q 928 4138 513 4856 
z
" transform="scale(0.015625)"/>
     </defs>
     <use xlink:href="#DejaVuSans-49"/>
     <use xlink:href="#DejaVuSans-6e" x="29.492188"/>
     <use xlink:href="#DejaVuSans-76" x="92.871094"/>
     <use xlink:href="#DejaVuSans-65" x="152.050781"/>
     <use xlink:href="#DejaVuSans-73" x="213.574219"/>
     <use xlink:href="#DejaVuSans-74" x="265.673828"/>
     <use xlink:href="#DejaVuSans-69" x="304.882812"/>
     <use xlink:href="#DejaVuSans-67" x="332.666016"/>
     <use xlink:href="#DejaVuSans-61" x="396.142578"/>
     <use xlink:href="#DejaVuSans-74" x="457.421875"/>
     <use xlink:href="#DejaVuSans-69" x="496.630859"/>
     <use xlink:href="#DejaVuSans-6f" x="524.414062"/>
     <use xlink:href="#DejaVuSans-6e" x="585.595703"/>
     <use xlink:href="#DejaVuSans-20" x="648.974609"/>
     <use xlink:href="#DejaVuSans-54" x="680.761719"/>
     <use xlink:href="#DejaVuSans-69" x="738.720703"/>
     <use xlink:href="#DejaVuSans-6d" x="766.503906"/>
     <use xlink:href="#DejaVuSans-65" x="863.916016"/>
     <use xlink:href="#DejaVuSans-20" x="925.439453"/>
     <use xlink:href="#DejaVuSans-6f" x="957.226562"/>
     <use xlink:href="#DejaVuSans-66" x="1018.408203"/>
     <use xlink:href="#DejaVuSans-20" x="1053.613281"/>
     <use xlink:href="#DejaVuSans-4d" x="1085.400391"/>
     <use xlink:href="#DejaVuSans-69" x="1171.679688"/>
     <use xlink:href="#DejaVuSans-63" x="1199.462891"/>
     <use xlink:href="#DejaVuSans-65" x="1254.443359"/>
     <use xlink:href="#DejaVuSans-20" x="1315.966797"/>
     <use xlink:href="#DejaVuSans-69" x="1347.753906"/>
     <use xlink:href="#DejaVuSans-6e" x="1375.537109"/>
     <use xlink:href="#DejaVuSans-20" x="1438.916016"/>
     <use xlink:href="#DejaVuSans-31" x="1470.703125"/>
     <use xlink:href="#DejaVuSans-2d" x="1534.326172"/>
     <use xlink:href="#DejaVuSans-4d" x="1570.410156"/>
     <use xlink:href="#DejaVuSans-69" x="1656.689453"/>
     <use xlink:href="#DejaVuSans-6e" x="1684.472656"/>
     <use xlink:href="#DejaVuSans-75" x="1747.851562"/>
     <use xlink:href="#DejaVuSans-74" x="1811.230469"/>
     <use xlink:href="#DejaVuSans-65" x="1850.439453"/>
     <use xlink:href="#DejaVuSans-20" x="1911.962891"/>
     <use xlink:href="#DejaVuSans-42" x="1943.75"/>
     <use xlink:href="#DejaVuSans-69" x="2012.353516"/>
     <use xlink:href="#DejaVuSans-6e" x="2040.136719"/>
     <use xlink:href="#DejaVuSans-73" x="2103.515625"/>
     <use xlink:href="#DejaVuSans-20" x="2155.615234"/>
     <use xlink:href="#DejaVuSans-28" x="2187.402344"/>
     <use xlink:href="#DejaVuSans-65" x="2226.416016"/>
     <use xlink:href="#DejaVuSans-78" x="2286.189453"/>
     <use xlink:href="#DejaVuSans-70" x="2345.369141"/>
     <use xlink:href="#DejaVuSans-65" x="2408.845703"/>
     <use xlink:href="#DejaVuSans-72" x="2470.369141"/>
     <use xlink:href="#DejaVuSans-69" x="2511.482422"/>
     <use xlink:href="#DejaVuSans-6d" x="2539.265625"/>
     <use xlink:href="#DejaVuSans-65" x="2636.677734"/>
     <use xlink:href="#DejaVuSans-6e" x="2698.201172"/>
     <use xlink:href="#DejaVuSans-74" x="2761.580078"/>
     <use xlink:href="#DejaVuSans-29" x="2800.789062"/>
    </g>
   </g>
  </g>
 </g>
 <defs>
  <clipPath id="pca776851fe">
   <rect x="90" y="69.12" width="558" height="443.52"/>
  </clipPath>
 </defs>
</svg>
