<?xml version="1.0" encoding="utf-8" standalone="no"?>
<!DOCTYPE svg PUBLIC "-//W3C//DTD SVG 1.1//EN"
  "http://www.w3.org/Graphics/SVG/1.1/DTD/svg11.dtd">
<svg xmlns:xlink="http://www.w3.org/1999/xlink" width="720pt" height="576pt" viewBox="0 0 720 576" xmlns="http://www.w3.org/2000/svg" version="1.1">
 <metadata>
  <rdf:RDF xmlns:dc="http://purl.org/dc/elements/1.1/" xmlns:cc="http://creativecommons.org/ns#" xmlns:rdf="http://www.w3.org/1999/02/22-rdf-syntax-ns#">
   <cc:Work>
    <dc:type rdf:resource="http://purl.org/dc/dcmitype/StillImage"/>
    <dc:date>2024-05-12T23:25:23.773132</dc:date>
    <dc:format>image/svg+xml</dc:format>
    <dc:creator>
     <cc:Agent>
      <dc:title>Matplotlib v3.8.3, https://matplotlib.org/</dc:title>
     </cc:Agent>
    </dc:creator>
   </cc:Work>
  </rdf:RDF>
 </metadata>
 <defs>
  <style type="text/css">*{stroke-linejoin: round; stroke-linecap: butt}</style>
 </defs>
 <g id="figure_1">
  <g id="patch_1">
   <path d="M 0 576 
L 720 576 
L 720 0 
L 0 0 
z
"/>
  </g>
  <g id="axes_1">
   <g id="patch_2">
    <path d="M 90 512.64 
L 648 512.64 
L 648 69.12 
L 90 69.12 
z
"/>
   </g>
   <g id="matplotlib.axis_1">
    <g id="xtick_1">
     <g id="line2d_1">
      <defs>
       <path id="m05ade44402" d="M 0 0 
L 0 3.5 
" style="stroke: #ffffff; stroke-width: 0.8"/>
      </defs>
      <g>
       <use xlink:href="#m05ade44402" x="171.727273" y="512.64" style="fill: #ffffff; stroke: #ffffff; stroke-width: 0.8"/>
      </g>
     </g>
     <g id="text_1">
      <!-- 2 -->
      <g style="fill: #ffffff" transform="translate(168.546023 527.238438) scale(0.1 -0.1)">
       <defs>
        <path id="DejaVuSans-32" d="M 1228 531 
L 3431 531 
L 3431 0 
L 469 0 
L 469 531 
Q 828 903 1448 1529 
Q 2069 2156 2228 2338 
Q 2531 2678 2651 2914 
Q 2772 3150 2772 3378 
Q 2772 3750 2511 3984 
Q 2250 4219 1831 4219 
Q 1534 4219 1204 4116 
Q 875 4013 500 3803 
L 500 4441 
Q 881 4594 1212 4672 
Q 1544 4750 1819 4750 
Q 2544 4750 2975 4387 
Q 3406 4025 3406 3419 
Q 3406 3131 3298 2873 
Q 3191 2616 2906 2266 
Q 2828 2175 2409 1742 
Q 1991 1309 1228 531 
z
" transform="scale(0.015625)"/>
       </defs>
       <use xlink:href="#DejaVuSans-32"/>
      </g>
     </g>
    </g>
    <g id="xtick_2">
     <g id="line2d_2">
      <g>
       <use xlink:href="#m05ade44402" x="284.454545" y="512.64" style="fill: #ffffff; stroke: #ffffff; stroke-width: 0.8"/>
      </g>
     </g>
     <g id="text_2">
      <!-- 4 -->
      <g style="fill: #ffffff" transform="translate(281.273295 527.238438) scale(0.1 -0.1)">
       <defs>
        <path id="DejaVuSans-34" d="M 2419 4116 
L 825 1625 
L 2419 1625 
L 2419 4116 
z
M 2253 4666 
L 3047 4666 
L 3047 1625 
L 3713 1625 
L 3713 1100 
L 3047 1100 
L 3047 0 
L 2419 0 
L 2419 1100 
L 313 1100 
L 313 1709 
L 2253 4666 
z
" transform="scale(0.015625)"/>
       </defs>
       <use xlink:href="#DejaVuSans-34"/>
      </g>
     </g>
    </g>
    <g id="xtick_3">
     <g id="line2d_3">
      <g>
       <use xlink:href="#m05ade44402" x="397.181818" y="512.64" style="fill: #ffffff; stroke: #ffffff; stroke-width: 0.8"/>
      </g>
     </g>
     <g id="text_3">
      <!-- 6 -->
      <g style="fill: #ffffff" transform="translate(394.000568 527.238438) scale(0.1 -0.1)">
       <defs>
        <path id="DejaVuSans-36" d="M 2113 2584 
Q 1688 2584 1439 2293 
Q 1191 2003 1191 1497 
Q 1191 994 1439 701 
Q 1688 409 2113 409 
Q 2538 409 2786 701 
Q 3034 994 3034 1497 
Q 3034 2003 2786 2293 
Q 2538 2584 2113 2584 
z
M 3366 4563 
L 3366 3988 
Q 3128 4100 2886 4159 
Q 2644 4219 2406 4219 
Q 1781 4219 1451 3797 
Q 1122 3375 1075 2522 
Q 1259 2794 1537 2939 
Q 1816 3084 2150 3084 
Q 2853 3084 3261 2657 
Q 3669 2231 3669 1497 
Q 3669 778 3244 343 
Q 2819 -91 2113 -91 
Q 1303 -91 875 529 
Q 447 1150 447 2328 
Q 447 3434 972 4092 
Q 1497 4750 2381 4750 
Q 2619 4750 2861 4703 
Q 3103 4656 3366 4563 
z
" transform="scale(0.015625)"/>
       </defs>
       <use xlink:href="#DejaVuSans-36"/>
      </g>
     </g>
    </g>
    <g id="xtick_4">
     <g id="line2d_4">
      <g>
       <use xlink:href="#m05ade44402" x="509.909091" y="512.64" style="fill: #ffffff; stroke: #ffffff; stroke-width: 0.8"/>
      </g>
     </g>
     <g id="text_4">
      <!-- 8 -->
      <g style="fill: #ffffff" transform="translate(506.727841 527.238438) scale(0.1 -0.1)">
       <defs>
        <path id="DejaVuSans-38" d="M 2034 2216 
Q 1584 2216 1326 1975 
Q 1069 1734 1069 1313 
Q 1069 891 1326 650 
Q 1584 409 2034 409 
Q 2484 409 2743 651 
Q 3003 894 3003 1313 
Q 3003 1734 2745 1975 
Q 2488 2216 2034 2216 
z
M 1403 2484 
Q 997 2584 770 2862 
Q 544 3141 544 3541 
Q 544 4100 942 4425 
Q 1341 4750 2034 4750 
Q 2731 4750 3128 4425 
Q 3525 4100 3525 3541 
Q 3525 3141 3298 2862 
Q 3072 2584 2669 2484 
Q 3125 2378 3379 2068 
Q 3634 1759 3634 1313 
Q 3634 634 3220 271 
Q 2806 -91 2034 -91 
Q 1263 -91 848 271 
Q 434 634 434 1313 
Q 434 1759 690 2068 
Q 947 2378 1403 2484 
z
M 1172 3481 
Q 1172 3119 1398 2916 
Q 1625 2713 2034 2713 
Q 2441 2713 2670 2916 
Q 2900 3119 2900 3481 
Q 2900 3844 2670 4047 
Q 2441 4250 2034 4250 
Q 1625 4250 1398 4047 
Q 1172 3844 1172 3481 
z
" transform="scale(0.015625)"/>
       </defs>
       <use xlink:href="#DejaVuSans-38"/>
      </g>
     </g>
    </g>
    <g id="xtick_5">
     <g id="line2d_5">
      <g>
       <use xlink:href="#m05ade44402" x="622.636364" y="512.64" style="fill: #ffffff; stroke: #ffffff; stroke-width: 0.8"/>
      </g>
     </g>
     <g id="text_5">
      <!-- 10 -->
      <g style="fill: #ffffff" transform="translate(616.273864 527.238438) scale(0.1 -0.1)">
       <defs>
        <path id="DejaVuSans-31" d="M 794 531 
L 1825 531 
L 1825 4091 
L 703 3866 
L 703 4441 
L 1819 4666 
L 2450 4666 
L 2450 531 
L 3481 531 
L 3481 0 
L 794 0 
L 794 531 
z
" transform="scale(0.015625)"/>
        <path id="DejaVuSans-30" d="M 2034 4250 
Q 1547 4250 1301 3770 
Q 1056 3291 1056 2328 
Q 1056 1369 1301 889 
Q 1547 409 2034 409 
Q 2525 409 2770 889 
Q 3016 1369 3016 2328 
Q 3016 3291 2770 3770 
Q 2525 4250 2034 4250 
z
M 2034 4750 
Q 2819 4750 3233 4129 
Q 3647 3509 3647 2328 
Q 3647 1150 3233 529 
Q 2819 -91 2034 -91 
Q 1250 -91 836 529 
Q 422 1150 422 2328 
Q 422 3509 836 4129 
Q 1250 4750 2034 4750 
z
" transform="scale(0.015625)"/>
       </defs>
       <use xlink:href="#DejaVuSans-31"/>
       <use xlink:href="#DejaVuSans-30" x="63.623047"/>
      </g>
     </g>
    </g>
    <g id="text_6">
     <!-- Minute -->
     <g style="fill: #ffffff" transform="translate(351.922656 540.916563) scale(0.1 -0.1)">
      <defs>
       <path id="DejaVuSans-4d" d="M 628 4666 
L 1569 4666 
L 2759 1491 
L 3956 4666 
L 4897 4666 
L 4897 0 
L 4281 0 
L 4281 4097 
L 3078 897 
L 2444 897 
L 1241 4097 
L 1241 0 
L 628 0 
L 628 4666 
z
" transform="scale(0.015625)"/>
       <path id="DejaVuSans-69" d="M 603 3500 
L 1178 3500 
L 1178 0 
L 603 0 
L 603 3500 
z
M 603 4863 
L 1178 4863 
L 1178 4134 
L 603 4134 
L 603 4863 
z
" transform="scale(0.015625)"/>
       <path id="DejaVuSans-6e" d="M 3513 2113 
L 3513 0 
L 2938 0 
L 2938 2094 
Q 2938 2591 2744 2837 
Q 2550 3084 2163 3084 
Q 1697 3084 1428 2787 
Q 1159 2491 1159 1978 
L 1159 0 
L 581 0 
L 581 3500 
L 1159 3500 
L 1159 2956 
Q 1366 3272 1645 3428 
Q 1925 3584 2291 3584 
Q 2894 3584 3203 3211 
Q 3513 2838 3513 2113 
z
" transform="scale(0.015625)"/>
       <path id="DejaVuSans-75" d="M 544 1381 
L 544 3500 
L 1119 3500 
L 1119 1403 
Q 1119 906 1312 657 
Q 1506 409 1894 409 
Q 2359 409 2629 706 
Q 2900 1003 2900 1516 
L 2900 3500 
L 3475 3500 
L 3475 0 
L 2900 0 
L 2900 538 
Q 2691 219 2414 64 
Q 2138 -91 1772 -91 
Q 1169 -91 856 284 
Q 544 659 544 1381 
z
M 1991 3584 
L 1991 3584 
z
" transform="scale(0.015625)"/>
       <path id="DejaVuSans-74" d="M 1172 4494 
L 1172 3500 
L 2356 3500 
L 2356 3053 
L 1172 3053 
L 1172 1153 
Q 1172 725 1289 603 
Q 1406 481 1766 481 
L 2356 481 
L 2356 0 
L 1766 0 
Q 1100 0 847 248 
Q 594 497 594 1153 
L 594 3053 
L 172 3053 
L 172 3500 
L 594 3500 
L 594 4494 
L 1172 4494 
z
" transform="scale(0.015625)"/>
       <path id="DejaVuSans-65" d="M 3597 1894 
L 3597 1613 
L 953 1613 
Q 991 1019 1311 708 
Q 1631 397 2203 397 
Q 2534 397 2845 478 
Q 3156 559 3463 722 
L 3463 178 
Q 3153 47 2828 -22 
Q 2503 -91 2169 -91 
Q 1331 -91 842 396 
Q 353 884 353 1716 
Q 353 2575 817 3079 
Q 1281 3584 2069 3584 
Q 2775 3584 3186 3129 
Q 3597 2675 3597 1894 
z
M 3022 2063 
Q 3016 2534 2758 2815 
Q 2500 3097 2075 3097 
Q 1594 3097 1305 2825 
Q 1016 2553 972 2059 
L 3022 2063 
z
" transform="scale(0.015625)"/>
      </defs>
      <use xlink:href="#DejaVuSans-4d"/>
      <use xlink:href="#DejaVuSans-69" x="86.279297"/>
      <use xlink:href="#DejaVuSans-6e" x="114.0625"/>
      <use xlink:href="#DejaVuSans-75" x="177.441406"/>
      <use xlink:href="#DejaVuSans-74" x="240.820312"/>
      <use xlink:href="#DejaVuSans-65" x="280.029297"/>
     </g>
    </g>
   </g>
   <g id="matplotlib.axis_2">
    <g id="ytick_1">
     <g id="line2d_6">
      <defs>
       <path id="mce866bf515" d="M 0 0 
L -3.5 0 
" style="stroke: #ffffff; stroke-width: 0.8"/>
      </defs>
      <g>
       <use xlink:href="#mce866bf515" x="90" y="492.48" style="fill: #ffffff; stroke: #ffffff; stroke-width: 0.8"/>
      </g>
     </g>
     <g id="text_7">
      <!-- 0 -->
      <g style="fill: #ffffff" transform="translate(76.6375 496.279219) scale(0.1 -0.1)">
       <use xlink:href="#DejaVuSans-30"/>
      </g>
     </g>
    </g>
    <g id="ytick_2">
     <g id="line2d_7">
      <g>
       <use xlink:href="#mce866bf515" x="90" y="401.974949" style="fill: #ffffff; stroke: #ffffff; stroke-width: 0.8"/>
      </g>
     </g>
     <g id="text_8">
      <!-- 200 -->
      <g style="fill: #ffffff" transform="translate(63.9125 405.774168) scale(0.1 -0.1)">
       <use xlink:href="#DejaVuSans-32"/>
       <use xlink:href="#DejaVuSans-30" x="63.623047"/>
       <use xlink:href="#DejaVuSans-30" x="127.246094"/>
      </g>
     </g>
    </g>
    <g id="ytick_3">
     <g id="line2d_8">
      <g>
       <use xlink:href="#mce866bf515" x="90" y="311.469899" style="fill: #ffffff; stroke: #ffffff; stroke-width: 0.8"/>
      </g>
     </g>
     <g id="text_9">
      <!-- 400 -->
      <g style="fill: #ffffff" transform="translate(63.9125 315.269118) scale(0.1 -0.1)">
       <use xlink:href="#DejaVuSans-34"/>
       <use xlink:href="#DejaVuSans-30" x="63.623047"/>
       <use xlink:href="#DejaVuSans-30" x="127.246094"/>
      </g>
     </g>
    </g>
    <g id="ytick_4">
     <g id="line2d_9">
      <g>
       <use xlink:href="#mce866bf515" x="90" y="220.964848" style="fill: #ffffff; stroke: #ffffff; stroke-width: 0.8"/>
      </g>
     </g>
     <g id="text_10">
      <!-- 600 -->
      <g style="fill: #ffffff" transform="translate(63.9125 224.764067) scale(0.1 -0.1)">
       <use xlink:href="#DejaVuSans-36"/>
       <use xlink:href="#DejaVuSans-30" x="63.623047"/>
       <use xlink:href="#DejaVuSans-30" x="127.246094"/>
      </g>
     </g>
    </g>
    <g id="ytick_5">
     <g id="line2d_10">
      <g>
       <use xlink:href="#mce866bf515" x="90" y="130.459798" style="fill: #ffffff; stroke: #ffffff; stroke-width: 0.8"/>
      </g>
     </g>
     <g id="text_11">
      <!-- 800 -->
      <g style="fill: #ffffff" transform="translate(63.9125 134.259017) scale(0.1 -0.1)">
       <use xlink:href="#DejaVuSans-38"/>
       <use xlink:href="#DejaVuSans-30" x="63.623047"/>
       <use xlink:href="#DejaVuSans-30" x="127.246094"/>
      </g>
     </g>
    </g>
    <g id="text_12">
     <!-- Frames with Investigation -->
     <g style="fill: #ffffff" transform="translate(57.832812 355.29875) rotate(-90) scale(0.1 -0.1)">
      <defs>
       <path id="DejaVuSans-46" d="M 628 4666 
L 3309 4666 
L 3309 4134 
L 1259 4134 
L 1259 2759 
L 3109 2759 
L 3109 2228 
L 1259 2228 
L 1259 0 
L 628 0 
L 628 4666 
z
" transform="scale(0.015625)"/>
       <path id="DejaVuSans-72" d="M 2631 2963 
Q 2534 3019 2420 3045 
Q 2306 3072 2169 3072 
Q 1681 3072 1420 2755 
Q 1159 2438 1159 1844 
L 1159 0 
L 581 0 
L 581 3500 
L 1159 3500 
L 1159 2956 
Q 1341 3275 1631 3429 
Q 1922 3584 2338 3584 
Q 2397 3584 2469 3576 
Q 2541 3569 2628 3553 
L 2631 2963 
z
" transform="scale(0.015625)"/>
       <path id="DejaVuSans-61" d="M 2194 1759 
Q 1497 1759 1228 1600 
Q 959 1441 959 1056 
Q 959 750 1161 570 
Q 1363 391 1709 391 
Q 2188 391 2477 730 
Q 2766 1069 2766 1631 
L 2766 1759 
L 2194 1759 
z
M 3341 1997 
L 3341 0 
L 2766 0 
L 2766 531 
Q 2569 213 2275 61 
Q 1981 -91 1556 -91 
Q 1019 -91 701 211 
Q 384 513 384 1019 
Q 384 1609 779 1909 
Q 1175 2209 1959 2209 
L 2766 2209 
L 2766 2266 
Q 2766 2663 2505 2880 
Q 2244 3097 1772 3097 
Q 1472 3097 1187 3025 
Q 903 2953 641 2809 
L 641 3341 
Q 956 3463 1253 3523 
Q 1550 3584 1831 3584 
Q 2591 3584 2966 3190 
Q 3341 2797 3341 1997 
z
" transform="scale(0.015625)"/>
       <path id="DejaVuSans-6d" d="M 3328 2828 
Q 3544 3216 3844 3400 
Q 4144 3584 4550 3584 
Q 5097 3584 5394 3201 
Q 5691 2819 5691 2113 
L 5691 0 
L 5113 0 
L 5113 2094 
Q 5113 2597 4934 2840 
Q 4756 3084 4391 3084 
Q 3944 3084 3684 2787 
Q 3425 2491 3425 1978 
L 3425 0 
L 2847 0 
L 2847 2094 
Q 2847 2600 2669 2842 
Q 2491 3084 2119 3084 
Q 1678 3084 1418 2786 
Q 1159 2488 1159 1978 
L 1159 0 
L 581 0 
L 581 3500 
L 1159 3500 
L 1159 2956 
Q 1356 3278 1631 3431 
Q 1906 3584 2284 3584 
Q 2666 3584 2933 3390 
Q 3200 3197 3328 2828 
z
" transform="scale(0.015625)"/>
       <path id="DejaVuSans-73" d="M 2834 3397 
L 2834 2853 
Q 2591 2978 2328 3040 
Q 2066 3103 1784 3103 
Q 1356 3103 1142 2972 
Q 928 2841 928 2578 
Q 928 2378 1081 2264 
Q 1234 2150 1697 2047 
L 1894 2003 
Q 2506 1872 2764 1633 
Q 3022 1394 3022 966 
Q 3022 478 2636 193 
Q 2250 -91 1575 -91 
Q 1294 -91 989 -36 
Q 684 19 347 128 
L 347 722 
Q 666 556 975 473 
Q 1284 391 1588 391 
Q 1994 391 2212 530 
Q 2431 669 2431 922 
Q 2431 1156 2273 1281 
Q 2116 1406 1581 1522 
L 1381 1569 
Q 847 1681 609 1914 
Q 372 2147 372 2553 
Q 372 3047 722 3315 
Q 1072 3584 1716 3584 
Q 2034 3584 2315 3537 
Q 2597 3491 2834 3397 
z
" transform="scale(0.015625)"/>
       <path id="DejaVuSans-20" transform="scale(0.015625)"/>
       <path id="DejaVuSans-77" d="M 269 3500 
L 844 3500 
L 1563 769 
L 2278 3500 
L 2956 3500 
L 3675 769 
L 4391 3500 
L 4966 3500 
L 4050 0 
L 3372 0 
L 2619 2869 
L 1863 0 
L 1184 0 
L 269 3500 
z
" transform="scale(0.015625)"/>
       <path id="DejaVuSans-68" d="M 3513 2113 
L 3513 0 
L 2938 0 
L 2938 2094 
Q 2938 2591 2744 2837 
Q 2550 3084 2163 3084 
Q 1697 3084 1428 2787 
Q 1159 2491 1159 1978 
L 1159 0 
L 581 0 
L 581 4863 
L 1159 4863 
L 1159 2956 
Q 1366 3272 1645 3428 
Q 1925 3584 2291 3584 
Q 2894 3584 3203 3211 
Q 3513 2838 3513 2113 
z
" transform="scale(0.015625)"/>
       <path id="DejaVuSans-49" d="M 628 4666 
L 1259 4666 
L 1259 0 
L 628 0 
L 628 4666 
z
" transform="scale(0.015625)"/>
       <path id="DejaVuSans-76" d="M 191 3500 
L 800 3500 
L 1894 563 
L 2988 3500 
L 3597 3500 
L 2284 0 
L 1503 0 
L 191 3500 
z
" transform="scale(0.015625)"/>
       <path id="DejaVuSans-67" d="M 2906 1791 
Q 2906 2416 2648 2759 
Q 2391 3103 1925 3103 
Q 1463 3103 1205 2759 
Q 947 2416 947 1791 
Q 947 1169 1205 825 
Q 1463 481 1925 481 
Q 2391 481 2648 825 
Q 2906 1169 2906 1791 
z
M 3481 434 
Q 3481 -459 3084 -895 
Q 2688 -1331 1869 -1331 
Q 1566 -1331 1297 -1286 
Q 1028 -1241 775 -1147 
L 775 -588 
Q 1028 -725 1275 -790 
Q 1522 -856 1778 -856 
Q 2344 -856 2625 -561 
Q 2906 -266 2906 331 
L 2906 616 
Q 2728 306 2450 153 
Q 2172 0 1784 0 
Q 1141 0 747 490 
Q 353 981 353 1791 
Q 353 2603 747 3093 
Q 1141 3584 1784 3584 
Q 2172 3584 2450 3431 
Q 2728 3278 2906 2969 
L 2906 3500 
L 3481 3500 
L 3481 434 
z
" transform="scale(0.015625)"/>
       <path id="DejaVuSans-6f" d="M 1959 3097 
Q 1497 3097 1228 2736 
Q 959 2375 959 1747 
Q 959 1119 1226 758 
Q 1494 397 1959 397 
Q 2419 397 2687 759 
Q 2956 1122 2956 1747 
Q 2956 2369 2687 2733 
Q 2419 3097 1959 3097 
z
M 1959 3584 
Q 2709 3584 3137 3096 
Q 3566 2609 3566 1747 
Q 3566 888 3137 398 
Q 2709 -91 1959 -91 
Q 1206 -91 779 398 
Q 353 888 353 1747 
Q 353 2609 779 3096 
Q 1206 3584 1959 3584 
z
" transform="scale(0.015625)"/>
      </defs>
      <use xlink:href="#DejaVuSans-46"/>
      <use xlink:href="#DejaVuSans-72" x="50.269531"/>
      <use xlink:href="#DejaVuSans-61" x="91.382812"/>
      <use xlink:href="#DejaVuSans-6d" x="152.662109"/>
      <use xlink:href="#DejaVuSans-65" x="250.074219"/>
      <use xlink:href="#DejaVuSans-73" x="311.597656"/>
      <use xlink:href="#DejaVuSans-20" x="363.697266"/>
      <use xlink:href="#DejaVuSans-77" x="395.484375"/>
      <use xlink:href="#DejaVuSans-69" x="477.271484"/>
      <use xlink:href="#DejaVuSans-74" x="505.054688"/>
      <use xlink:href="#DejaVuSans-68" x="544.263672"/>
      <use xlink:href="#DejaVuSans-20" x="607.642578"/>
      <use xlink:href="#DejaVuSans-49" x="639.429688"/>
      <use xlink:href="#DejaVuSans-6e" x="668.921875"/>
      <use xlink:href="#DejaVuSans-76" x="732.300781"/>
      <use xlink:href="#DejaVuSans-65" x="791.480469"/>
      <use xlink:href="#DejaVuSans-73" x="853.003906"/>
      <use xlink:href="#DejaVuSans-74" x="905.103516"/>
      <use xlink:href="#DejaVuSans-69" x="944.3125"/>
      <use xlink:href="#DejaVuSans-67" x="972.095703"/>
      <use xlink:href="#DejaVuSans-61" x="1035.572266"/>
      <use xlink:href="#DejaVuSans-74" x="1096.851562"/>
      <use xlink:href="#DejaVuSans-69" x="1136.060547"/>
      <use xlink:href="#DejaVuSans-6f" x="1163.84375"/>
      <use xlink:href="#DejaVuSans-6e" x="1225.025391"/>
     </g>
    </g>
   </g>
   <g id="line2d_11">
    <path d="M 115.363636 482.97697 
L 171.727273 446.322424 
L 228.090909 484.334545 
L 284.454545 485.239596 
L 340.818182 490.217374 
L 397.181818 444.964848 
L 453.545455 473.473939 
L 509.909091 482.97697 
L 566.272727 490.217374 
L 622.636364 487.502222 
" clip-path="url(#pf7fe19d024)" style="fill: none; stroke: #440154; stroke-width: 1.5; stroke-linecap: square"/>
   </g>
   <g id="line2d_12">
    <path d="M 115.363636 478.904242 
L 171.727273 433.199192 
L 228.090909 316.447677 
L 284.454545 418.265859 
L 340.818182 473.926465 
L 397.181818 446.774949 
L 453.545455 483.429495 
L 509.909091 479.809293 
L 566.272727 428.221414 
L 622.636364 488.407273 
" clip-path="url(#pf7fe19d024)" style="fill: none; stroke: #414487; stroke-width: 1.5; stroke-linecap: square"/>
   </g>
   <g id="line2d_13">
    <path d="M 115.363636 453.562828 
L 171.727273 458.993131 
L 228.090909 475.736566 
L 284.454545 476.641616 
L 340.818182 459.898182 
L 397.181818 479.809293 
L 453.545455 463.518384 
L 509.909091 483.429495 
L 566.272727 477.546667 
L 622.636364 492.48 
" clip-path="url(#pf7fe19d024)" style="fill: none; stroke: #2a788e; stroke-width: 1.5; stroke-linecap: square"/>
   </g>
   <g id="line2d_14">
    <path d="M 115.363636 480.261818 
L 171.727273 483.429495 
L 228.090909 472.568889 
L 284.454545 480.714343 
L 340.818182 477.999192 
L 397.181818 489.312323 
L 453.545455 492.48 
L 509.909091 421.433535 
L 566.272727 483.429495 
L 622.636364 489.764848 
" clip-path="url(#pf7fe19d024)" style="fill: none; stroke: #22a884; stroke-width: 1.5; stroke-linecap: square"/>
   </g>
   <g id="line2d_15">
    <path d="M 115.363636 484.334545 
L 171.727273 430.48404 
L 228.090909 477.094141 
L 284.454545 485.692121 
L 340.818182 463.970909 
L 397.181818 489.764848 
L 453.545455 431.841616 
L 509.909091 487.954747 
L 566.272727 436.819394 
L 622.636364 471.663838 
" clip-path="url(#pf7fe19d024)" style="fill: none; stroke: #7ad151; stroke-width: 1.5; stroke-linecap: square"/>
   </g>
   <g id="line2d_16">
    <path d="M 115.363636 478.904242 
L 171.727273 469.853737 
L 228.090909 474.831515 
L 284.454545 486.144646 
L 340.818182 425.958788 
L 397.181818 458.540606 
L 453.545455 444.059798 
L 509.909091 469.401212 
L 566.272727 487.049697 
L 622.636364 478.904242 
" clip-path="url(#pf7fe19d024)" style="fill: none; stroke: #fde725; stroke-width: 1.5; stroke-linecap: square"/>
   </g>
   <g id="line2d_17">
    <path d="M 115.363636 455.372929 
L 171.727273 479.809293 
L 228.090909 478.904242 
L 284.454545 481.619394 
L 340.818182 485.692121 
L 397.181818 492.48 
L 453.545455 484.787071 
L 509.909091 475.736566 
L 566.272727 480.261818 
L 622.636364 476.189091 
" clip-path="url(#pf7fe19d024)" style="fill: none; stroke: #440154; stroke-width: 1.5; stroke-linecap: square"/>
   </g>
   <g id="line2d_18">
    <path d="M 115.363636 481.166869 
L 171.727273 486.597172 
L 228.090909 448.585051 
L 284.454545 488.407273 
L 340.818182 408.762828 
L 397.181818 426.411313 
L 453.545455 490.217374 
L 509.909091 417.360808 
L 566.272727 484.334545 
L 622.636364 487.049697 
" clip-path="url(#pf7fe19d024)" style="fill: none; stroke: #414487; stroke-width: 1.5; stroke-linecap: square"/>
   </g>
   <g id="line2d_19">
    <path d="M 115.363636 214.629495 
L 171.727273 323.688081 
L 228.090909 407.857778 
L 284.454545 306.039596 
L 340.818182 386.136566 
L 397.181818 421.886061 
L 453.545455 492.48 
L 509.909091 492.48 
L 566.272727 492.48 
L 622.636364 492.48 
" clip-path="url(#pf7fe19d024)" style="fill: none; stroke: #2a788e; stroke-width: 1.5; stroke-linecap: square"/>
   </g>
   <g id="line2d_20">
    <path d="M 115.363636 491.122424 
L 171.727273 425.053737 
L 228.090909 484.787071 
L 284.454545 419.623434 
L 340.818182 416.455758 
L 397.181818 485.239596 
L 453.545455 430.936566 
L 509.909091 488.859798 
L 566.272727 492.48 
L 622.636364 425.506263 
" clip-path="url(#pf7fe19d024)" style="fill: none; stroke: #22a884; stroke-width: 1.5; stroke-linecap: square"/>
   </g>
   <g id="line2d_21">
    <path d="M 115.363636 487.954747 
L 171.727273 421.433535 
L 228.090909 458.993131 
L 284.454545 425.958788 
L 340.818182 315.090101 
L 397.181818 142.67798 
L 453.545455 424.148687 
L 509.909091 466.686061 
L 566.272727 429.126465 
L 622.636364 484.334545 
" clip-path="url(#pf7fe19d024)" style="fill: none; stroke: #7ad151; stroke-width: 1.5; stroke-linecap: square"/>
   </g>
   <g id="line2d_22">
    <path d="M 115.363636 490.217374 
L 171.727273 490.217374 
L 228.090909 482.524444 
L 284.454545 455.825455 
L 340.818182 492.48 
L 397.181818 478.451717 
L 453.545455 470.758788 
L 509.909091 465.328485 
L 566.272727 468.043636 
L 622.636364 487.954747 
" clip-path="url(#pf7fe19d024)" style="fill: none; stroke: #fde725; stroke-width: 1.5; stroke-linecap: square"/>
   </g>
   <g id="line2d_23">
    <path d="M 115.363636 479.809293 
L 171.727273 474.831515 
L 228.090909 489.764848 
L 284.454545 484.787071 
L 340.818182 458.993131 
L 397.181818 434.104242 
L 453.545455 475.736566 
L 509.909091 482.524444 
L 566.272727 448.585051 
L 622.636364 478.451717 
" clip-path="url(#pf7fe19d024)" style="fill: none; stroke: #440154; stroke-width: 1.5; stroke-linecap: square"/>
   </g>
   <g id="line2d_24">
    <path d="M 115.363636 474.37899 
L 171.727273 420.07596 
L 228.090909 482.524444 
L 284.454545 487.502222 
L 340.818182 485.239596 
L 397.181818 487.954747 
L 453.545455 486.597172 
L 509.909091 483.88202 
L 566.272727 488.407273 
L 622.636364 466.233535 
" clip-path="url(#pf7fe19d024)" style="fill: none; stroke: #414487; stroke-width: 1.5; stroke-linecap: square"/>
   </g>
   <g id="line2d_25">
    <path d="M 115.363636 481.619394 
L 171.727273 461.255758 
L 228.090909 479.809293 
L 284.454545 422.791111 
L 340.818182 491.574949 
L 397.181818 454.467879 
L 453.545455 489.764848 
L 509.909091 436.366869 
L 566.272727 259.88202 
L 622.636364 435.914343 
" clip-path="url(#pf7fe19d024)" style="fill: none; stroke: #2a788e; stroke-width: 1.5; stroke-linecap: square"/>
   </g>
   <g id="line2d_26">
    <path d="M 115.363636 459.898182 
L 171.727273 481.166869 
L 228.090909 459.898182 
L 284.454545 407.405253 
L 340.818182 430.031515 
L 397.181818 472.568889 
L 453.545455 487.049697 
L 509.909091 440.892121 
L 566.272727 431.841616 
L 622.636364 476.189091 
" clip-path="url(#pf7fe19d024)" style="fill: none; stroke: #22a884; stroke-width: 1.5; stroke-linecap: square"/>
   </g>
   <g id="line2d_27">
    <path d="M 115.363636 492.027475 
L 171.727273 491.122424 
L 228.090909 474.831515 
L 284.454545 250.37899 
L 340.818182 450.847677 
L 397.181818 464.423434 
L 453.545455 485.239596 
L 509.909091 482.071919 
L 566.272727 482.97697 
L 622.636364 480.261818 
" clip-path="url(#pf7fe19d024)" style="fill: none; stroke: #7ad151; stroke-width: 1.5; stroke-linecap: square"/>
   </g>
   <g id="line2d_28">
    <path d="M 115.363636 489.312323 
L 171.727273 482.071919 
L 228.090909 457.635556 
L 284.454545 452.657778 
L 340.818182 394.28202 
L 397.181818 482.524444 
L 453.545455 428.221414 
L 509.909091 488.407273 
L 566.272727 492.027475 
L 622.636364 492.48 
" clip-path="url(#pf7fe19d024)" style="fill: none; stroke: #fde725; stroke-width: 1.5; stroke-linecap: square"/>
   </g>
   <g id="line2d_29">
    <path d="M 115.363636 466.686061 
L 171.727273 463.970909 
L 228.090909 482.524444 
L 284.454545 487.502222 
L 340.818182 492.48 
L 397.181818 429.126465 
L 453.545455 420.98101 
L 509.909091 486.597172 
L 566.272727 454.467879 
L 622.636364 491.574949 
" clip-path="url(#pf7fe19d024)" style="fill: none; stroke: #440154; stroke-width: 1.5; stroke-linecap: square"/>
   </g>
   <g id="line2d_30">
    <path d="M 115.363636 479.809293 
L 171.727273 423.243636 
L 228.090909 474.37899 
L 284.454545 438.17697 
L 340.818182 447.227475 
L 397.181818 273.910303 
L 453.545455 473.021414 
L 509.909091 456.27798 
L 566.272727 462.613333 
L 622.636364 492.48 
" clip-path="url(#pf7fe19d024)" style="fill: none; stroke: #443983; stroke-width: 1.5; stroke-linecap: square"/>
   </g>
   <g id="line2d_31">
    <path d="M 115.363636 473.473939 
L 171.727273 484.334545 
L 228.090909 484.787071 
L 284.454545 472.568889 
L 340.818182 488.859798 
L 397.181818 492.48 
L 453.545455 481.619394 
L 509.909091 488.859798 
L 566.272727 476.641616 
L 622.636364 476.641616 
" clip-path="url(#pf7fe19d024)" style="fill: none; stroke: #31688e; stroke-width: 1.5; stroke-linecap: square"/>
   </g>
   <g id="line2d_32">
    <path d="M 115.363636 473.021414 
L 171.727273 461.708283 
L 228.090909 482.97697 
L 284.454545 452.205253 
L 340.818182 485.239596 
L 397.181818 463.970909 
L 453.545455 487.954747 
L 509.909091 473.926465 
L 566.272727 486.597172 
L 622.636364 491.122424 
" clip-path="url(#pf7fe19d024)" style="fill: none; stroke: #21918c; stroke-width: 1.5; stroke-linecap: square"/>
   </g>
   <g id="line2d_33">
    <path d="M 115.363636 477.546667 
L 171.727273 485.692121 
L 228.090909 472.568889 
L 284.454545 461.255758 
L 340.818182 462.613333 
L 397.181818 473.926465 
L 453.545455 492.48 
L 509.909091 385.231515 
L 566.272727 461.255758 
L 622.636364 489.312323 
" clip-path="url(#pf7fe19d024)" style="fill: none; stroke: #35b779; stroke-width: 1.5; stroke-linecap: square"/>
   </g>
   <g id="line2d_34">
    <path d="M 115.363636 453.110303 
L 171.727273 487.502222 
L 228.090909 477.546667 
L 284.454545 431.841616 
L 340.818182 461.708283 
L 397.181818 463.970909 
L 453.545455 390.209293 
L 509.909091 479.809293 
L 566.272727 482.071919 
L 622.636364 484.334545 
" clip-path="url(#pf7fe19d024)" style="fill: none; stroke: #90d743; stroke-width: 1.5; stroke-linecap: square"/>
   </g>
   <g id="line2d_35">
    <path d="M 115.363636 489.764848 
L 171.727273 492.48 
L 228.090909 492.48 
L 284.454545 492.48 
L 340.818182 492.48 
L 397.181818 486.597172 
L 453.545455 473.021414 
L 509.909091 492.48 
L 566.272727 492.48 
L 622.636364 478.904242 
" clip-path="url(#pf7fe19d024)" style="fill: none; stroke: #fde725; stroke-width: 1.5; stroke-linecap: square"/>
   </g>
   <g id="line2d_36">
    <path d="M 115.363636 478.451717 
L 171.727273 423.696162 
L 228.090909 480.261818 
L 284.454545 473.926465 
L 340.818182 483.88202 
L 397.181818 470.758788 
L 453.545455 492.48 
L 509.909091 473.021414 
L 566.272727 487.954747 
L 622.636364 443.154747 
" clip-path="url(#pf7fe19d024)" style="fill: none; stroke: #440154; stroke-width: 1.5; stroke-linecap: square"/>
   </g>
   <g id="line2d_37">
    <path d="M 115.363636 450.395152 
L 171.727273 481.619394 
L 228.090909 476.641616 
L 284.454545 458.540606 
L 340.818182 481.619394 
L 397.181818 461.708283 
L 453.545455 488.859798 
L 509.909091 492.48 
L 566.272727 472.568889 
L 622.636364 492.48 
" clip-path="url(#pf7fe19d024)" style="fill: none; stroke: #443983; stroke-width: 1.5; stroke-linecap: square"/>
   </g>
   <g id="line2d_38">
    <path d="M 115.363636 470.758788 
L 171.727273 468.948687 
L 228.090909 479.809293 
L 284.454545 484.787071 
L 340.818182 487.502222 
L 397.181818 486.144646 
L 453.545455 472.568889 
L 509.909091 488.859798 
L 566.272727 490.217374 
L 622.636364 470.758788 
" clip-path="url(#pf7fe19d024)" style="fill: none; stroke: #31688e; stroke-width: 1.5; stroke-linecap: square"/>
   </g>
   <g id="line2d_39">
    <path d="M 115.363636 487.954747 
L 171.727273 480.714343 
L 228.090909 463.065859 
L 284.454545 492.48 
L 340.818182 492.48 
L 397.181818 491.574949 
L 453.545455 492.48 
L 509.909091 486.597172 
L 566.272727 466.233535 
L 622.636364 478.904242 
" clip-path="url(#pf7fe19d024)" style="fill: none; stroke: #21918c; stroke-width: 1.5; stroke-linecap: square"/>
   </g>
   <g id="line2d_40">
    <path d="M 115.363636 418.265859 
L 171.727273 480.714343 
L 228.090909 449.942626 
L 284.454545 492.48 
L 340.818182 481.166869 
L 397.181818 453.110303 
L 453.545455 471.211313 
L 509.909091 479.809293 
L 566.272727 455.825455 
L 622.636364 473.473939 
" clip-path="url(#pf7fe19d024)" style="fill: none; stroke: #35b779; stroke-width: 1.5; stroke-linecap: square"/>
   </g>
   <g id="line2d_41">
    <path d="M 115.363636 481.619394 
L 171.727273 492.48 
L 228.090909 474.37899 
L 284.454545 487.954747 
L 340.818182 492.48 
L 397.181818 477.546667 
L 453.545455 402.427475 
L 509.909091 442.249697 
L 566.272727 491.574949 
L 622.636364 489.764848 
" clip-path="url(#pf7fe19d024)" style="fill: none; stroke: #90d743; stroke-width: 1.5; stroke-linecap: square"/>
   </g>
   <g id="line2d_42">
    <path d="M 115.363636 454.015354 
L 171.727273 439.534545 
L 228.090909 469.401212 
L 284.454545 457.18303 
L 340.818182 446.322424 
L 397.181818 485.692121 
L 453.545455 421.433535 
L 509.909091 475.28404 
L 566.272727 483.88202 
L 622.636364 486.597172 
" clip-path="url(#pf7fe19d024)" style="fill: none; stroke: #fde725; stroke-width: 1.5; stroke-linecap: square"/>
   </g>
   <g id="line2d_43">
    <path d="M 115.363636 409.667879 
L 171.727273 460.350707 
L 228.090909 468.496162 
L 284.454545 492.48 
L 340.818182 487.502222 
L 397.181818 412.38303 
L 453.545455 470.306263 
L 509.909091 455.372929 
L 566.272727 443.154747 
L 622.636364 482.524444 
" clip-path="url(#pf7fe19d024)" style="fill: none; stroke: #440154; stroke-width: 1.5; stroke-linecap: square"/>
   </g>
   <g id="line2d_44">
    <path d="M 115.363636 463.518384 
L 171.727273 466.233535 
L 228.090909 475.28404 
L 284.454545 487.502222 
L 340.818182 487.502222 
L 397.181818 486.597172 
L 453.545455 467.591111 
L 509.909091 492.48 
L 566.272727 299.251717 
L 622.636364 471.663838 
" clip-path="url(#pf7fe19d024)" style="fill: none; stroke: #443983; stroke-width: 1.5; stroke-linecap: square"/>
   </g>
   <g id="line2d_45">
    <path d="M 115.363636 462.613333 
L 171.727273 488.407273 
L 228.090909 475.736566 
L 284.454545 482.071919 
L 340.818182 482.97697 
L 397.181818 467.138586 
L 453.545455 483.88202 
L 509.909091 492.48 
L 566.272727 448.585051 
L 622.636364 474.831515 
" clip-path="url(#pf7fe19d024)" style="fill: none; stroke: #31688e; stroke-width: 1.5; stroke-linecap: square"/>
   </g>
   <g id="line2d_46">
    <path d="M 115.363636 469.853737 
L 171.727273 486.144646 
L 228.090909 474.37899 
L 284.454545 471.211313 
L 340.818182 455.372929 
L 397.181818 485.239596 
L 453.545455 471.663838 
L 509.909091 450.395152 
L 566.272727 464.423434 
L 622.636364 482.97697 
" clip-path="url(#pf7fe19d024)" style="fill: none; stroke: #21918c; stroke-width: 1.5; stroke-linecap: square"/>
   </g>
   <g id="line2d_47">
    <path d="M 115.363636 478.904242 
L 171.727273 467.591111 
L 228.090909 458.088081 
L 284.454545 436.366869 
L 340.818182 452.657778 
L 397.181818 396.997172 
L 453.545455 468.948687 
L 509.909091 448.585051 
L 566.272727 442.702222 
L 622.636364 392.019394 
" clip-path="url(#pf7fe19d024)" style="fill: none; stroke: #35b779; stroke-width: 1.5; stroke-linecap: square"/>
   </g>
   <g id="line2d_48">
    <path d="M 115.363636 478.451717 
L 171.727273 483.429495 
L 228.090909 458.088081 
L 284.454545 482.524444 
L 340.818182 471.211313 
L 397.181818 488.859798 
L 453.545455 476.641616 
L 509.909091 469.853737 
L 566.272727 473.021414 
L 622.636364 436.819394 
" clip-path="url(#pf7fe19d024)" style="fill: none; stroke: #90d743; stroke-width: 1.5; stroke-linecap: square"/>
   </g>
   <g id="line2d_49">
    <path d="M 115.363636 477.094141 
L 171.727273 469.853737 
L 228.090909 463.518384 
L 284.454545 485.692121 
L 340.818182 484.787071 
L 397.181818 492.48 
L 453.545455 492.48 
L 509.909091 473.926465 
L 566.272727 460.350707 
L 622.636364 451.300202 
" clip-path="url(#pf7fe19d024)" style="fill: none; stroke: #fde725; stroke-width: 1.5; stroke-linecap: square"/>
   </g>
   <g id="line2d_50">
    <path d="M 115.363636 458.540606 
L 171.727273 476.641616 
L 228.090909 470.306263 
L 284.454545 492.48 
L 340.818182 492.48 
L 397.181818 486.144646 
L 453.545455 482.071919 
L 509.909091 492.48 
L 566.272727 492.48 
L 622.636364 445.869899 
" clip-path="url(#pf7fe19d024)" style="fill: none; stroke: #440154; stroke-width: 1.5; stroke-linecap: square"/>
   </g>
   <g id="line2d_51">
    <path d="M 115.363636 469.401212 
L 171.727273 431.389091 
L 228.090909 491.574949 
L 284.454545 440.892121 
L 340.818182 471.211313 
L 397.181818 466.686061 
L 453.545455 427.316364 
L 509.909091 479.356768 
L 566.272727 483.88202 
L 622.636364 492.48 
" clip-path="url(#pf7fe19d024)" style="fill: none; stroke: #414487; stroke-width: 1.5; stroke-linecap: square"/>
   </g>
   <g id="line2d_52">
    <path d="M 115.363636 471.211313 
L 171.727273 483.88202 
L 228.090909 477.546667 
L 284.454545 485.239596 
L 340.818182 492.48 
L 397.181818 491.122424 
L 453.545455 485.692121 
L 509.909091 486.597172 
L 566.272727 487.502222 
L 622.636364 481.166869 
" clip-path="url(#pf7fe19d024)" style="fill: none; stroke: #2a788e; stroke-width: 1.5; stroke-linecap: square"/>
   </g>
   <g id="line2d_53">
    <path d="M 115.363636 471.663838 
L 171.727273 484.334545 
L 228.090909 463.970909 
L 284.454545 484.787071 
L 340.818182 461.255758 
L 397.181818 492.48 
L 453.545455 465.328485 
L 509.909091 492.48 
L 566.272727 456.27798 
L 622.636364 479.356768 
" clip-path="url(#pf7fe19d024)" style="fill: none; stroke: #22a884; stroke-width: 1.5; stroke-linecap: square"/>
   </g>
   <g id="line2d_54">
    <path d="M 115.363636 452.657778 
L 171.727273 492.48 
L 228.090909 485.239596 
L 284.454545 491.574949 
L 340.818182 492.48 
L 397.181818 485.239596 
L 453.545455 492.48 
L 509.909091 492.48 
L 566.272727 492.48 
L 622.636364 492.48 
" clip-path="url(#pf7fe19d024)" style="fill: none; stroke: #7ad151; stroke-width: 1.5; stroke-linecap: square"/>
   </g>
   <g id="line2d_55">
    <path d="M 115.363636 480.714343 
L 171.727273 455.372929 
L 228.090909 474.37899 
L 284.454545 487.954747 
L 340.818182 475.28404 
L 397.181818 475.736566 
L 453.545455 469.401212 
L 509.909091 488.859798 
L 566.272727 492.48 
L 622.636364 485.692121 
" clip-path="url(#pf7fe19d024)" style="fill: none; stroke: #fde725; stroke-width: 1.5; stroke-linecap: square"/>
   </g>
   <g id="line2d_56">
    <path d="M 115.363636 483.88202 
L 171.727273 473.021414 
L 228.090909 352.649697 
L 284.454545 483.429495 
L 340.818182 454.015354 
L 397.181818 411.47798 
L 453.545455 469.401212 
L 509.909091 492.48 
L 566.272727 325.950707 
L 622.636364 483.88202 
" clip-path="url(#pf7fe19d024)" style="fill: none; stroke: #440154; stroke-width: 1.5; stroke-linecap: square"/>
   </g>
   <g id="line2d_57">
    <path d="M 115.363636 472.116364 
L 171.727273 418.265859 
L 228.090909 432.746667 
L 284.454545 473.473939 
L 340.818182 461.255758 
L 397.181818 420.98101 
L 453.545455 426.863838 
L 509.909091 454.015354 
L 566.272727 482.524444 
L 622.636364 486.144646 
" clip-path="url(#pf7fe19d024)" style="fill: none; stroke: #414487; stroke-width: 1.5; stroke-linecap: square"/>
   </g>
   <g id="line2d_58">
    <path d="M 115.363636 424.148687 
L 171.727273 488.407273 
L 228.090909 478.451717 
L 284.454545 487.954747 
L 340.818182 492.48 
L 397.181818 492.48 
L 453.545455 492.48 
L 509.909091 444.964848 
L 566.272727 492.48 
L 622.636364 492.48 
" clip-path="url(#pf7fe19d024)" style="fill: none; stroke: #2a788e; stroke-width: 1.5; stroke-linecap: square"/>
   </g>
   <g id="line2d_59">
    <path d="M 115.363636 480.261818 
L 171.727273 473.021414 
L 228.090909 492.48 
L 284.454545 492.48 
L 340.818182 480.714343 
L 397.181818 489.764848 
L 453.545455 488.859798 
L 509.909091 492.48 
L 566.272727 492.48 
L 622.636364 492.48 
" clip-path="url(#pf7fe19d024)" style="fill: none; stroke: #22a884; stroke-width: 1.5; stroke-linecap: square"/>
   </g>
   <g id="line2d_60">
    <path d="M 115.363636 491.122424 
L 171.727273 470.758788 
L 228.090909 479.809293 
L 284.454545 463.970909 
L 340.818182 467.138586 
L 397.181818 471.211313 
L 453.545455 459.898182 
L 509.909091 443.154747 
L 566.272727 491.574949 
L 622.636364 482.97697 
" clip-path="url(#pf7fe19d024)" style="fill: none; stroke: #7ad151; stroke-width: 1.5; stroke-linecap: square"/>
   </g>
   <g id="line2d_61">
    <path d="M 115.363636 488.407273 
L 171.727273 473.926465 
L 228.090909 492.48 
L 284.454545 492.48 
L 340.818182 492.48 
L 397.181818 492.48 
L 453.545455 423.696162 
L 509.909091 368.940606 
L 566.272727 464.423434 
L 622.636364 487.049697 
" clip-path="url(#pf7fe19d024)" style="fill: none; stroke: #fde725; stroke-width: 1.5; stroke-linecap: square"/>
   </g>
   <g id="line2d_62">
    <path d="M 115.363636 470.306263 
L 171.727273 485.239596 
L 228.090909 454.015354 
L 284.454545 448.585051 
L 340.818182 492.48 
L 397.181818 485.692121 
L 453.545455 483.88202 
L 509.909091 492.48 
L 566.272727 471.663838 
L 622.636364 439.08202 
" clip-path="url(#pf7fe19d024)" style="fill: none; stroke: #440154; stroke-width: 1.5; stroke-linecap: square"/>
   </g>
   <g id="line2d_63">
    <path d="M 115.363636 466.686061 
L 171.727273 471.663838 
L 228.090909 422.338586 
L 284.454545 481.166869 
L 340.818182 470.306263 
L 397.181818 487.049697 
L 453.545455 470.758788 
L 509.909091 453.562828 
L 566.272727 417.360808 
L 622.636364 476.641616 
" clip-path="url(#pf7fe19d024)" style="fill: none; stroke: #414487; stroke-width: 1.5; stroke-linecap: square"/>
   </g>
   <g id="line2d_64">
    <path d="M 115.363636 488.407273 
L 171.727273 487.954747 
L 228.090909 486.144646 
L 284.454545 489.312323 
L 340.818182 463.518384 
L 397.181818 485.692121 
L 453.545455 486.144646 
L 509.909091 482.524444 
L 566.272727 441.344646 
L 622.636364 89.28 
" clip-path="url(#pf7fe19d024)" style="fill: none; stroke: #2a788e; stroke-width: 1.5; stroke-linecap: square"/>
   </g>
   <g id="line2d_65">
    <path d="M 115.363636 477.546667 
L 171.727273 394.28202 
L 228.090909 460.803232 
L 284.454545 464.87596 
L 340.818182 483.429495 
L 397.181818 486.144646 
L 453.545455 462.613333 
L 509.909091 480.714343 
L 566.272727 459.445657 
L 622.636364 470.758788 
" clip-path="url(#pf7fe19d024)" style="fill: none; stroke: #22a884; stroke-width: 1.5; stroke-linecap: square"/>
   </g>
   <g id="line2d_66">
    <path d="M 115.363636 454.015354 
L 171.727273 492.48 
L 228.090909 482.524444 
L 284.454545 462.613333 
L 340.818182 492.48 
L 397.181818 492.48 
L 453.545455 492.48 
L 509.909091 475.736566 
L 566.272727 453.562828 
L 622.636364 492.48 
" clip-path="url(#pf7fe19d024)" style="fill: none; stroke: #7ad151; stroke-width: 1.5; stroke-linecap: square"/>
   </g>
   <g id="line2d_67">
    <path d="M 115.363636 435.914343 
L 171.727273 374.370909 
L 228.090909 473.021414 
L 284.454545 467.138586 
L 340.818182 478.904242 
L 397.181818 492.48 
L 453.545455 492.48 
L 509.909091 492.48 
L 566.272727 492.48 
L 622.636364 492.48 
" clip-path="url(#pf7fe19d024)" style="fill: none; stroke: #fde725; stroke-width: 1.5; stroke-linecap: square"/>
   </g>
   <g id="line2d_68">
    <path d="M 115.363636 491.122424 
L 171.727273 477.094141 
L 228.090909 482.071919 
L 284.454545 492.48 
L 340.818182 481.166869 
L 397.181818 492.48 
L 453.545455 475.28404 
L 509.909091 474.37899 
L 566.272727 488.859798 
L 622.636364 492.48 
" clip-path="url(#pf7fe19d024)" style="fill: none; stroke: #440154; stroke-width: 1.5; stroke-linecap: square"/>
   </g>
   <g id="line2d_69">
    <path d="M 115.363636 454.015354 
L 171.727273 474.831515 
L 228.090909 479.356768 
L 284.454545 466.233535 
L 340.818182 487.049697 
L 397.181818 492.48 
L 453.545455 465.78101 
L 509.909091 487.049697 
L 566.272727 492.48 
L 622.636364 492.48 
" clip-path="url(#pf7fe19d024)" style="fill: none; stroke: #3b528b; stroke-width: 1.5; stroke-linecap: square"/>
   </g>
   <g id="line2d_70">
    <path d="M 115.363636 477.546667 
L 171.727273 492.48 
L 228.090909 486.597172 
L 284.454545 473.926465 
L 340.818182 481.166869 
L 397.181818 492.48 
L 453.545455 477.094141 
L 509.909091 477.999192 
L 566.272727 492.48 
L 622.636364 492.48 
" clip-path="url(#pf7fe19d024)" style="fill: none; stroke: #21918c; stroke-width: 1.5; stroke-linecap: square"/>
   </g>
   <g id="line2d_71">
    <path d="M 115.363636 481.619394 
L 171.727273 469.401212 
L 228.090909 492.48 
L 284.454545 484.334545 
L 340.818182 484.787071 
L 397.181818 492.48 
L 453.545455 472.116364 
L 509.909091 492.48 
L 566.272727 476.641616 
L 622.636364 467.138586 
" clip-path="url(#pf7fe19d024)" style="fill: none; stroke: #5ec962; stroke-width: 1.5; stroke-linecap: square"/>
   </g>
   <g id="line2d_72">
    <path d="M 115.363636 484.334545 
L 171.727273 477.094141 
L 228.090909 487.954747 
L 284.454545 454.015354 
L 340.818182 479.356768 
L 397.181818 491.122424 
L 453.545455 487.049697 
L 509.909091 492.48 
L 566.272727 433.651717 
L 622.636364 492.48 
" clip-path="url(#pf7fe19d024)" style="fill: none; stroke: #fde725; stroke-width: 1.5; stroke-linecap: square"/>
   </g>
   <g id="patch_3">
    <path d="M 90 512.64 
L 90 69.12 
" style="fill: none; stroke: #ffffff; stroke-width: 0.8; stroke-linejoin: miter; stroke-linecap: square"/>
   </g>
   <g id="patch_4">
    <path d="M 90 512.64 
L 648 512.64 
" style="fill: none; stroke: #ffffff; stroke-width: 0.8; stroke-linejoin: miter; stroke-linecap: square"/>
   </g>
   <g id="text_13">
    <!-- Investigation Time of Mice in 1-Minute Bins (habituation) -->
    <g style="fill: #ffffff" transform="translate(198.796875 63.12) scale(0.12 -0.12)">
     <defs>
      <path id="DejaVuSans-54" d="M -19 4666 
L 3928 4666 
L 3928 4134 
L 2272 4134 
L 2272 0 
L 1638 0 
L 1638 4134 
L -19 4134 
L -19 4666 
z
" transform="scale(0.015625)"/>
      <path id="DejaVuSans-66" d="M 2375 4863 
L 2375 4384 
L 1825 4384 
Q 1516 4384 1395 4259 
Q 1275 4134 1275 3809 
L 1275 3500 
L 2222 3500 
L 2222 3053 
L 1275 3053 
L 1275 0 
L 697 0 
L 697 3053 
L 147 3053 
L 147 3500 
L 697 3500 
L 697 3744 
Q 697 4328 969 4595 
Q 1241 4863 1831 4863 
L 2375 4863 
z
" transform="scale(0.015625)"/>
      <path id="DejaVuSans-63" d="M 3122 3366 
L 3122 2828 
Q 2878 2963 2633 3030 
Q 2388 3097 2138 3097 
Q 1578 3097 1268 2742 
Q 959 2388 959 1747 
Q 959 1106 1268 751 
Q 1578 397 2138 397 
Q 2388 397 2633 464 
Q 2878 531 3122 666 
L 3122 134 
Q 2881 22 2623 -34 
Q 2366 -91 2075 -91 
Q 1284 -91 818 406 
Q 353 903 353 1747 
Q 353 2603 823 3093 
Q 1294 3584 2113 3584 
Q 2378 3584 2631 3529 
Q 2884 3475 3122 3366 
z
" transform="scale(0.015625)"/>
      <path id="DejaVuSans-2d" d="M 313 2009 
L 1997 2009 
L 1997 1497 
L 313 1497 
L 313 2009 
z
" transform="scale(0.015625)"/>
      <path id="DejaVuSans-42" d="M 1259 2228 
L 1259 519 
L 2272 519 
Q 2781 519 3026 730 
Q 3272 941 3272 1375 
Q 3272 1813 3026 2020 
Q 2781 2228 2272 2228 
L 1259 2228 
z
M 1259 4147 
L 1259 2741 
L 2194 2741 
Q 2656 2741 2882 2914 
Q 3109 3088 3109 3444 
Q 3109 3797 2882 3972 
Q 2656 4147 2194 4147 
L 1259 4147 
z
M 628 4666 
L 2241 4666 
Q 2963 4666 3353 4366 
Q 3744 4066 3744 3513 
Q 3744 3084 3544 2831 
Q 3344 2578 2956 2516 
Q 3422 2416 3680 2098 
Q 3938 1781 3938 1306 
Q 3938 681 3513 340 
Q 3088 0 2303 0 
L 628 0 
L 628 4666 
z
" transform="scale(0.015625)"/>
      <path id="DejaVuSans-28" d="M 1984 4856 
Q 1566 4138 1362 3434 
Q 1159 2731 1159 2009 
Q 1159 1288 1364 580 
Q 1569 -128 1984 -844 
L 1484 -844 
Q 1016 -109 783 600 
Q 550 1309 550 2009 
Q 550 2706 781 3412 
Q 1013 4119 1484 4856 
L 1984 4856 
z
" transform="scale(0.015625)"/>
      <path id="DejaVuSans-62" d="M 3116 1747 
Q 3116 2381 2855 2742 
Q 2594 3103 2138 3103 
Q 1681 3103 1420 2742 
Q 1159 2381 1159 1747 
Q 1159 1113 1420 752 
Q 1681 391 2138 391 
Q 2594 391 2855 752 
Q 3116 1113 3116 1747 
z
M 1159 2969 
Q 1341 3281 1617 3432 
Q 1894 3584 2278 3584 
Q 2916 3584 3314 3078 
Q 3713 2572 3713 1747 
Q 3713 922 3314 415 
Q 2916 -91 2278 -91 
Q 1894 -91 1617 61 
Q 1341 213 1159 525 
L 1159 0 
L 581 0 
L 581 4863 
L 1159 4863 
L 1159 2969 
z
" transform="scale(0.015625)"/>
      <path id="DejaVuSans-29" d="M 513 4856 
L 1013 4856 
Q 1481 4119 1714 3412 
Q 1947 2706 1947 2009 
Q 1947 1309 1714 600 
Q 1481 -109 1013 -844 
L 513 -844 
Q 928 -128 1133 580 
Q 1338 1288 1338 2009 
Q 1338 2731 1133 3434 
Q 928 4138 513 4856 
z
" transform="scale(0.015625)"/>
     </defs>
     <use xlink:href="#DejaVuSans-49"/>
     <use xlink:href="#DejaVuSans-6e" x="29.492188"/>
     <use xlink:href="#DejaVuSans-76" x="92.871094"/>
     <use xlink:href="#DejaVuSans-65" x="152.050781"/>
     <use xlink:href="#DejaVuSans-73" x="213.574219"/>
     <use xlink:href="#DejaVuSans-74" x="265.673828"/>
     <use xlink:href="#DejaVuSans-69" x="304.882812"/>
     <use xlink:href="#DejaVuSans-67" x="332.666016"/>
     <use xlink:href="#DejaVuSans-61" x="396.142578"/>
     <use xlink:href="#DejaVuSans-74" x="457.421875"/>
     <use xlink:href="#DejaVuSans-69" x="496.630859"/>
     <use xlink:href="#DejaVuSans-6f" x="524.414062"/>
     <use xlink:href="#DejaVuSans-6e" x="585.595703"/>
     <use xlink:href="#DejaVuSans-20" x="648.974609"/>
     <use xlink:href="#DejaVuSans-54" x="680.761719"/>
     <use xlink:href="#DejaVuSans-69" x="738.720703"/>
     <use xlink:href="#DejaVuSans-6d" x="766.503906"/>
     <use xlink:href="#DejaVuSans-65" x="863.916016"/>
     <use xlink:href="#DejaVuSans-20" x="925.439453"/>
     <use xlink:href="#DejaVuSans-6f" x="957.226562"/>
     <use xlink:href="#DejaVuSans-66" x="1018.408203"/>
     <use xlink:href="#DejaVuSans-20" x="1053.613281"/>
     <use xlink:href="#DejaVuSans-4d" x="1085.400391"/>
     <use xlink:href="#DejaVuSans-69" x="1171.679688"/>
     <use xlink:href="#DejaVuSans-63" x="1199.462891"/>
     <use xlink:href="#DejaVuSans-65" x="1254.443359"/>
     <use xlink:href="#DejaVuSans-20" x="1315.966797"/>
     <use xlink:href="#DejaVuSans-69" x="1347.753906"/>
     <use xlink:href="#DejaVuSans-6e" x="1375.537109"/>
     <use xlink:href="#DejaVuSans-20" x="1438.916016"/>
     <use xlink:href="#DejaVuSans-31" x="1470.703125"/>
     <use xlink:href="#DejaVuSans-2d" x="1534.326172"/>
     <use xlink:href="#DejaVuSans-4d" x="1570.410156"/>
     <use xlink:href="#DejaVuSans-69" x="1656.689453"/>
     <use xlink:href="#DejaVuSans-6e" x="1684.472656"/>
     <use xlink:href="#DejaVuSans-75" x="1747.851562"/>
     <use xlink:href="#DejaVuSans-74" x="1811.230469"/>
     <use xlink:href="#DejaVuSans-65" x="1850.439453"/>
     <use xlink:href="#DejaVuSans-20" x="1911.962891"/>
     <use xlink:href="#DejaVuSans-42" x="1943.75"/>
     <use xlink:href="#DejaVuSans-69" x="2012.353516"/>
     <use xlink:href="#DejaVuSans-6e" x="2040.136719"/>
     <use xlink:href="#DejaVuSans-73" x="2103.515625"/>
     <use xlink:href="#DejaVuSans-20" x="2155.615234"/>
     <use xlink:href="#DejaVuSans-28" x="2187.402344"/>
     <use xlink:href="#DejaVuSans-68" x="2226.416016"/>
     <use xlink:href="#DejaVuSans-61" x="2289.794922"/>
     <use xlink:href="#DejaVuSans-62" x="2351.074219"/>
     <use xlink:href="#DejaVuSans-69" x="2414.550781"/>
     <use xlink:href="#DejaVuSans-74" x="2442.333984"/>
     <use xlink:href="#DejaVuSans-75" x="2481.542969"/>
     <use xlink:href="#DejaVuSans-61" x="2544.921875"/>
     <use xlink:href="#DejaVuSans-74" x="2606.201172"/>
     <use xlink:href="#DejaVuSans-69" x="2645.410156"/>
     <use xlink:href="#DejaVuSans-6f" x="2673.193359"/>
     <use xlink:href="#DejaVuSans-6e" x="2734.375"/>
     <use xlink:href="#DejaVuSans-29" x="2797.753906"/>
    </g>
   </g>
  </g>
 </g>
 <defs>
  <clipPath id="pf7fe19d024">
   <rect x="90" y="69.12" width="558" height="443.52"/>
  </clipPath>
 </defs>
</svg>
